<?xml version="1.0" encoding="utf-8" standalone="no"?>
<!DOCTYPE svg PUBLIC "-//W3C//DTD SVG 1.1//EN"
  "http://www.w3.org/Graphics/SVG/1.1/DTD/svg11.dtd">
<svg xmlns:xlink="http://www.w3.org/1999/xlink" width="360pt" height="273.6pt" viewBox="0 0 360 273.6" xmlns="http://www.w3.org/2000/svg" version="1.1">
 <metadata>
  <rdf:RDF xmlns:dc="http://purl.org/dc/elements/1.1/" xmlns:cc="http://creativecommons.org/ns#" xmlns:rdf="http://www.w3.org/1999/02/22-rdf-syntax-ns#">
   <cc:Work>
    <dc:type rdf:resource="http://purl.org/dc/dcmitype/StillImage"/>
    <dc:date>2022-12-07T07:17:03.501956</dc:date>
    <dc:format>image/svg+xml</dc:format>
    <dc:creator>
     <cc:Agent>
      <dc:title>Matplotlib v3.6.2, https://matplotlib.org/</dc:title>
     </cc:Agent>
    </dc:creator>
   </cc:Work>
  </rdf:RDF>
 </metadata>
 <defs>
  <style type="text/css">*{stroke-linejoin: round; stroke-linecap: butt}</style>
 </defs>
 <g id="figure_1">
  <g id="patch_1">
   <path d="M 0 273.6 
L 360 273.6 
L 360 0 
L 0 0 
z
" style="fill: #ffffff"/>
  </g>
  <g id="axes_1">
   <g id="patch_2">
    <path d="M 45 243.504 
L 324 243.504 
L 324 32.832 
L 45 32.832 
z
" style="fill: #ffffff"/>
   </g>
   <g id="PathCollection_1">
    <defs>
     <path id="m5ff0c06117" d="M 0 3 
C 0.795609 3 1.55874 2.683901 2.12132 2.12132 
C 2.683901 1.55874 3 0.795609 3 0 
C 3 -0.795609 2.683901 -1.55874 2.12132 -2.12132 
C 1.55874 -2.683901 0.795609 -3 0 -3 
C -0.795609 -3 -1.55874 -2.683901 -2.12132 -2.12132 
C -2.683901 -1.55874 -3 -0.795609 -3 0 
C -3 0.795609 -2.683901 1.55874 -2.12132 2.12132 
C -1.55874 2.683901 -0.795609 3 0 3 
z
" style="stroke: #1f77b4; stroke-opacity: 0.8"/>
    </defs>
    <g clip-path="url(#pdfa2a510ce)">
     <use xlink:href="#m5ff0c06117" x="57.681818" y="225.758032" style="fill: #1f77b4; fill-opacity: 0.8; stroke: #1f77b4; stroke-opacity: 0.8"/>
     <use xlink:href="#m5ff0c06117" x="83.045455" y="213.02411" style="fill: #1f77b4; fill-opacity: 0.8; stroke: #1f77b4; stroke-opacity: 0.8"/>
     <use xlink:href="#m5ff0c06117" x="108.409091" y="185.737134" style="fill: #1f77b4; fill-opacity: 0.8; stroke: #1f77b4; stroke-opacity: 0.8"/>
     <use xlink:href="#m5ff0c06117" x="133.772727" y="183.918003" style="fill: #1f77b4; fill-opacity: 0.8; stroke: #1f77b4; stroke-opacity: 0.8"/>
     <use xlink:href="#m5ff0c06117" x="159.136364" y="156.631027" style="fill: #1f77b4; fill-opacity: 0.8; stroke: #1f77b4; stroke-opacity: 0.8"/>
     <use xlink:href="#m5ff0c06117" x="184.5" y="136.620579" style="fill: #1f77b4; fill-opacity: 0.8; stroke: #1f77b4; stroke-opacity: 0.8"/>
     <use xlink:href="#m5ff0c06117" x="209.863636" y="114.790999" style="fill: #1f77b4; fill-opacity: 0.8; stroke: #1f77b4; stroke-opacity: 0.8"/>
     <use xlink:href="#m5ff0c06117" x="235.227273" y="98.418813" style="fill: #1f77b4; fill-opacity: 0.8; stroke: #1f77b4; stroke-opacity: 0.8"/>
     <use xlink:href="#m5ff0c06117" x="260.590909" y="85.684892" style="fill: #1f77b4; fill-opacity: 0.8; stroke: #1f77b4; stroke-opacity: 0.8"/>
     <use xlink:href="#m5ff0c06117" x="285.954545" y="63.855311" style="fill: #1f77b4; fill-opacity: 0.8; stroke: #1f77b4; stroke-opacity: 0.8"/>
     <use xlink:href="#m5ff0c06117" x="311.318182" y="63.855311" style="fill: #1f77b4; fill-opacity: 0.8; stroke: #1f77b4; stroke-opacity: 0.8"/>
    </g>
   </g>
   <g id="PolyCollection_1">
    <path d="M 57.681818 219.264073 
L 57.681818 233.928 
L 60.243802 232.054088 
L 62.805785 230.180175 
L 65.367769 228.306263 
L 67.929752 226.431694 
L 70.491736 224.552835 
L 73.053719 222.63083 
L 75.615702 220.7087 
L 78.177686 218.785485 
L 80.739669 216.86227 
L 83.301653 214.939055 
L 85.863636 213.01584 
L 88.42562 211.092433 
L 90.987603 209.196234 
L 93.549587 207.291127 
L 96.11157 205.349149 
L 98.673554 203.45062 
L 101.235537 201.577268 
L 103.797521 199.654578 
L 106.359504 197.735509 
L 108.921488 195.926271 
L 111.483471 194.114478 
L 114.045455 192.248389 
L 116.607438 190.327086 
L 119.169421 188.405249 
L 121.731405 186.567147 
L 124.293388 184.735961 
L 126.855372 182.905625 
L 129.417355 181.075158 
L 131.979339 179.284472 
L 134.541322 177.498142 
L 137.103306 175.695268 
L 139.665289 173.919589 
L 142.227273 172.144301 
L 144.789256 170.270053 
L 147.35124 168.450817 
L 149.913223 166.712608 
L 152.475207 164.928048 
L 155.03719 163.102013 
L 157.599174 161.38652 
L 160.161157 159.641756 
L 162.72314 157.865116 
L 165.285124 156.116599 
L 167.847107 154.299102 
L 170.409091 152.50492 
L 172.971074 150.750678 
L 175.533058 149.03233 
L 178.095041 147.335937 
L 180.657025 145.63993 
L 183.219008 143.941657 
L 185.780992 142.242103 
L 188.342975 140.546687 
L 190.904959 138.832784 
L 193.466942 137.076352 
L 196.028926 135.320255 
L 198.590909 133.561475 
L 201.152893 131.808409 
L 203.714876 130.162083 
L 206.27686 128.462113 
L 208.838843 126.672529 
L 211.400826 125.031608 
L 213.96281 123.329774 
L 216.524793 121.641605 
L 219.086777 119.981203 
L 221.64876 118.320412 
L 224.210744 116.65962 
L 226.772727 114.988861 
L 229.334711 113.292615 
L 231.896694 111.634302 
L 234.458678 109.995524 
L 237.020661 108.299548 
L 239.582645 106.603221 
L 242.144628 104.905208 
L 244.706612 103.207178 
L 247.268595 101.509148 
L 249.830579 99.813526 
L 252.392562 98.118377 
L 254.954545 96.457514 
L 257.516529 94.856533 
L 260.078512 93.160455 
L 262.640496 91.456109 
L 265.202479 89.783026 
L 267.764463 88.137709 
L 270.326446 86.492865 
L 272.88843 84.845705 
L 275.450413 83.103652 
L 278.012397 81.359487 
L 280.57438 79.710013 
L 283.136364 78.046911 
L 285.698347 76.344271 
L 288.260331 74.65438 
L 290.822314 73.034989 
L 293.384298 71.450212 
L 295.946281 69.754221 
L 298.508264 68.056417 
L 301.070248 66.358613 
L 303.632231 64.66081 
L 306.194215 63.024191 
L 308.756198 61.349506 
L 311.318182 59.691323 
L 311.318182 42.408 
L 311.318182 42.408 
L 308.756198 44.328273 
L 306.194215 46.241414 
L 303.632231 48.155 
L 301.070248 50.131411 
L 298.508264 52.010576 
L 295.946281 53.919494 
L 293.384298 55.859821 
L 290.822314 57.800049 
L 288.260331 59.702257 
L 285.698347 61.626612 
L 283.136364 63.571901 
L 280.57438 65.470433 
L 278.012397 67.434361 
L 275.450413 69.356204 
L 272.88843 71.255727 
L 270.326446 73.141975 
L 267.764463 75.055596 
L 265.202479 76.954233 
L 262.640496 78.852869 
L 260.078512 80.723272 
L 257.516529 82.63023 
L 254.954545 84.497793 
L 252.392562 86.36596 
L 249.830579 88.235667 
L 247.268595 90.132299 
L 244.706612 92.029509 
L 242.144628 93.939844 
L 239.582645 95.810326 
L 237.020661 97.709485 
L 234.458678 99.610032 
L 231.896694 101.484791 
L 229.334711 103.325586 
L 226.772727 105.173918 
L 224.210744 107.00715 
L 221.64876 108.851013 
L 219.086777 110.711461 
L 216.524793 112.576094 
L 213.96281 114.37546 
L 211.400826 116.179636 
L 208.838843 118.026205 
L 206.27686 119.860681 
L 203.714876 121.674063 
L 201.152893 123.48999 
L 198.590909 125.302944 
L 196.028926 127.129502 
L 193.466942 128.954967 
L 190.904959 130.760818 
L 188.342975 132.59437 
L 185.780992 134.372609 
L 183.219008 136.206928 
L 180.657025 138.000482 
L 178.095041 139.763439 
L 175.533058 141.558179 
L 172.971074 143.287676 
L 170.409091 145.013857 
L 167.847107 146.80532 
L 165.285124 148.617811 
L 162.72314 150.348873 
L 160.161157 152.157438 
L 157.599174 153.899173 
L 155.03719 155.594121 
L 152.475207 157.293965 
L 149.913223 158.997892 
L 147.35124 160.763345 
L 144.789256 162.453033 
L 142.227273 164.08615 
L 139.665289 165.833324 
L 137.103306 167.607074 
L 134.541322 169.381004 
L 131.979339 171.123605 
L 129.417355 172.89218 
L 126.855372 174.622709 
L 124.293388 176.310955 
L 121.731405 177.999428 
L 119.169421 179.689181 
L 116.607438 181.357839 
L 114.045455 182.996864 
L 111.483471 184.633018 
L 108.921488 186.26681 
L 106.359504 187.901648 
L 103.797521 189.554178 
L 101.235537 191.250461 
L 98.673554 192.946744 
L 96.11157 194.643794 
L 93.549587 196.342004 
L 90.987603 198.041004 
L 88.42562 199.725332 
L 85.863636 201.359229 
L 83.301653 202.965309 
L 80.739669 204.584079 
L 78.177686 206.199889 
L 75.615702 207.799857 
L 73.053719 209.441522 
L 70.491736 211.060112 
L 67.929752 212.678702 
L 65.367769 214.298926 
L 62.805785 215.92005 
L 60.243802 217.576286 
L 57.681818 219.264073 
z
" clip-path="url(#pdfa2a510ce)" style="fill: #ff0000; fill-opacity: 0.15"/>
   </g>
   <g id="matplotlib.axis_1">
    <g id="xtick_1">
     <g id="line2d_1">
      <path d="M 57.681818 243.504 
L 57.681818 32.832 
" clip-path="url(#pdfa2a510ce)" style="fill: none; stroke: #b0b0b0; stroke-opacity: 0.4; stroke-width: 0.8; stroke-linecap: square"/>
     </g>
     <g id="line2d_2">
      <defs>
       <path id="m82b1d88e64" d="M 0 0 
L 0 3.5 
" style="stroke: #000000; stroke-width: 0.8"/>
      </defs>
      <g>
       <use xlink:href="#m82b1d88e64" x="57.681818" y="243.504" style="stroke: #000000; stroke-width: 0.8"/>
      </g>
     </g>
     <g id="text_1">
      <!-- 0 -->
      <g transform="translate(54.500568 258.102437) scale(0.1 -0.1)">
       <defs>
        <path id="DejaVuSans-30" d="M 2034 4250 
Q 1547 4250 1301 3770 
Q 1056 3291 1056 2328 
Q 1056 1369 1301 889 
Q 1547 409 2034 409 
Q 2525 409 2770 889 
Q 3016 1369 3016 2328 
Q 3016 3291 2770 3770 
Q 2525 4250 2034 4250 
z
M 2034 4750 
Q 2819 4750 3233 4129 
Q 3647 3509 3647 2328 
Q 3647 1150 3233 529 
Q 2819 -91 2034 -91 
Q 1250 -91 836 529 
Q 422 1150 422 2328 
Q 422 3509 836 4129 
Q 1250 4750 2034 4750 
z
" transform="scale(0.015625)"/>
       </defs>
       <use xlink:href="#DejaVuSans-30"/>
      </g>
     </g>
    </g>
    <g id="xtick_2">
     <g id="line2d_3">
      <path d="M 108.409091 243.504 
L 108.409091 32.832 
" clip-path="url(#pdfa2a510ce)" style="fill: none; stroke: #b0b0b0; stroke-opacity: 0.4; stroke-width: 0.8; stroke-linecap: square"/>
     </g>
     <g id="line2d_4">
      <g>
       <use xlink:href="#m82b1d88e64" x="108.409091" y="243.504" style="stroke: #000000; stroke-width: 0.8"/>
      </g>
     </g>
     <g id="text_2">
      <!-- 2 -->
      <g transform="translate(105.227841 258.102437) scale(0.1 -0.1)">
       <defs>
        <path id="DejaVuSans-32" d="M 1228 531 
L 3431 531 
L 3431 0 
L 469 0 
L 469 531 
Q 828 903 1448 1529 
Q 2069 2156 2228 2338 
Q 2531 2678 2651 2914 
Q 2772 3150 2772 3378 
Q 2772 3750 2511 3984 
Q 2250 4219 1831 4219 
Q 1534 4219 1204 4116 
Q 875 4013 500 3803 
L 500 4441 
Q 881 4594 1212 4672 
Q 1544 4750 1819 4750 
Q 2544 4750 2975 4387 
Q 3406 4025 3406 3419 
Q 3406 3131 3298 2873 
Q 3191 2616 2906 2266 
Q 2828 2175 2409 1742 
Q 1991 1309 1228 531 
z
" transform="scale(0.015625)"/>
       </defs>
       <use xlink:href="#DejaVuSans-32"/>
      </g>
     </g>
    </g>
    <g id="xtick_3">
     <g id="line2d_5">
      <path d="M 159.136364 243.504 
L 159.136364 32.832 
" clip-path="url(#pdfa2a510ce)" style="fill: none; stroke: #b0b0b0; stroke-opacity: 0.4; stroke-width: 0.8; stroke-linecap: square"/>
     </g>
     <g id="line2d_6">
      <g>
       <use xlink:href="#m82b1d88e64" x="159.136364" y="243.504" style="stroke: #000000; stroke-width: 0.8"/>
      </g>
     </g>
     <g id="text_3">
      <!-- 4 -->
      <g transform="translate(155.955114 258.102437) scale(0.1 -0.1)">
       <defs>
        <path id="DejaVuSans-34" d="M 2419 4116 
L 825 1625 
L 2419 1625 
L 2419 4116 
z
M 2253 4666 
L 3047 4666 
L 3047 1625 
L 3713 1625 
L 3713 1100 
L 3047 1100 
L 3047 0 
L 2419 0 
L 2419 1100 
L 313 1100 
L 313 1709 
L 2253 4666 
z
" transform="scale(0.015625)"/>
       </defs>
       <use xlink:href="#DejaVuSans-34"/>
      </g>
     </g>
    </g>
    <g id="xtick_4">
     <g id="line2d_7">
      <path d="M 209.863636 243.504 
L 209.863636 32.832 
" clip-path="url(#pdfa2a510ce)" style="fill: none; stroke: #b0b0b0; stroke-opacity: 0.4; stroke-width: 0.8; stroke-linecap: square"/>
     </g>
     <g id="line2d_8">
      <g>
       <use xlink:href="#m82b1d88e64" x="209.863636" y="243.504" style="stroke: #000000; stroke-width: 0.8"/>
      </g>
     </g>
     <g id="text_4">
      <!-- 6 -->
      <g transform="translate(206.682386 258.102437) scale(0.1 -0.1)">
       <defs>
        <path id="DejaVuSans-36" d="M 2113 2584 
Q 1688 2584 1439 2293 
Q 1191 2003 1191 1497 
Q 1191 994 1439 701 
Q 1688 409 2113 409 
Q 2538 409 2786 701 
Q 3034 994 3034 1497 
Q 3034 2003 2786 2293 
Q 2538 2584 2113 2584 
z
M 3366 4563 
L 3366 3988 
Q 3128 4100 2886 4159 
Q 2644 4219 2406 4219 
Q 1781 4219 1451 3797 
Q 1122 3375 1075 2522 
Q 1259 2794 1537 2939 
Q 1816 3084 2150 3084 
Q 2853 3084 3261 2657 
Q 3669 2231 3669 1497 
Q 3669 778 3244 343 
Q 2819 -91 2113 -91 
Q 1303 -91 875 529 
Q 447 1150 447 2328 
Q 447 3434 972 4092 
Q 1497 4750 2381 4750 
Q 2619 4750 2861 4703 
Q 3103 4656 3366 4563 
z
" transform="scale(0.015625)"/>
       </defs>
       <use xlink:href="#DejaVuSans-36"/>
      </g>
     </g>
    </g>
    <g id="xtick_5">
     <g id="line2d_9">
      <path d="M 260.590909 243.504 
L 260.590909 32.832 
" clip-path="url(#pdfa2a510ce)" style="fill: none; stroke: #b0b0b0; stroke-opacity: 0.4; stroke-width: 0.8; stroke-linecap: square"/>
     </g>
     <g id="line2d_10">
      <g>
       <use xlink:href="#m82b1d88e64" x="260.590909" y="243.504" style="stroke: #000000; stroke-width: 0.8"/>
      </g>
     </g>
     <g id="text_5">
      <!-- 8 -->
      <g transform="translate(257.409659 258.102437) scale(0.1 -0.1)">
       <defs>
        <path id="DejaVuSans-38" d="M 2034 2216 
Q 1584 2216 1326 1975 
Q 1069 1734 1069 1313 
Q 1069 891 1326 650 
Q 1584 409 2034 409 
Q 2484 409 2743 651 
Q 3003 894 3003 1313 
Q 3003 1734 2745 1975 
Q 2488 2216 2034 2216 
z
M 1403 2484 
Q 997 2584 770 2862 
Q 544 3141 544 3541 
Q 544 4100 942 4425 
Q 1341 4750 2034 4750 
Q 2731 4750 3128 4425 
Q 3525 4100 3525 3541 
Q 3525 3141 3298 2862 
Q 3072 2584 2669 2484 
Q 3125 2378 3379 2068 
Q 3634 1759 3634 1313 
Q 3634 634 3220 271 
Q 2806 -91 2034 -91 
Q 1263 -91 848 271 
Q 434 634 434 1313 
Q 434 1759 690 2068 
Q 947 2378 1403 2484 
z
M 1172 3481 
Q 1172 3119 1398 2916 
Q 1625 2713 2034 2713 
Q 2441 2713 2670 2916 
Q 2900 3119 2900 3481 
Q 2900 3844 2670 4047 
Q 2441 4250 2034 4250 
Q 1625 4250 1398 4047 
Q 1172 3844 1172 3481 
z
" transform="scale(0.015625)"/>
       </defs>
       <use xlink:href="#DejaVuSans-38"/>
      </g>
     </g>
    </g>
    <g id="xtick_6">
     <g id="line2d_11">
      <path d="M 311.318182 243.504 
L 311.318182 32.832 
" clip-path="url(#pdfa2a510ce)" style="fill: none; stroke: #b0b0b0; stroke-opacity: 0.4; stroke-width: 0.8; stroke-linecap: square"/>
     </g>
     <g id="line2d_12">
      <g>
       <use xlink:href="#m82b1d88e64" x="311.318182" y="243.504" style="stroke: #000000; stroke-width: 0.8"/>
      </g>
     </g>
     <g id="text_6">
      <!-- 10 -->
      <g transform="translate(304.955682 258.102437) scale(0.1 -0.1)">
       <defs>
        <path id="DejaVuSans-31" d="M 794 531 
L 1825 531 
L 1825 4091 
L 703 3866 
L 703 4441 
L 1819 4666 
L 2450 4666 
L 2450 531 
L 3481 531 
L 3481 0 
L 794 0 
L 794 531 
z
" transform="scale(0.015625)"/>
       </defs>
       <use xlink:href="#DejaVuSans-31"/>
       <use xlink:href="#DejaVuSans-30" x="63.623047"/>
      </g>
     </g>
    </g>
    <g id="text_7">
     <!-- Truth -->
     <g transform="translate(171.830469 271.780562) scale(0.1 -0.1)">
      <defs>
       <path id="DejaVuSans-54" d="M -19 4666 
L 3928 4666 
L 3928 4134 
L 2272 4134 
L 2272 0 
L 1638 0 
L 1638 4134 
L -19 4134 
L -19 4666 
z
" transform="scale(0.015625)"/>
       <path id="DejaVuSans-72" d="M 2631 2963 
Q 2534 3019 2420 3045 
Q 2306 3072 2169 3072 
Q 1681 3072 1420 2755 
Q 1159 2438 1159 1844 
L 1159 0 
L 581 0 
L 581 3500 
L 1159 3500 
L 1159 2956 
Q 1341 3275 1631 3429 
Q 1922 3584 2338 3584 
Q 2397 3584 2469 3576 
Q 2541 3569 2628 3553 
L 2631 2963 
z
" transform="scale(0.015625)"/>
       <path id="DejaVuSans-75" d="M 544 1381 
L 544 3500 
L 1119 3500 
L 1119 1403 
Q 1119 906 1312 657 
Q 1506 409 1894 409 
Q 2359 409 2629 706 
Q 2900 1003 2900 1516 
L 2900 3500 
L 3475 3500 
L 3475 0 
L 2900 0 
L 2900 538 
Q 2691 219 2414 64 
Q 2138 -91 1772 -91 
Q 1169 -91 856 284 
Q 544 659 544 1381 
z
M 1991 3584 
L 1991 3584 
z
" transform="scale(0.015625)"/>
       <path id="DejaVuSans-74" d="M 1172 4494 
L 1172 3500 
L 2356 3500 
L 2356 3053 
L 1172 3053 
L 1172 1153 
Q 1172 725 1289 603 
Q 1406 481 1766 481 
L 2356 481 
L 2356 0 
L 1766 0 
Q 1100 0 847 248 
Q 594 497 594 1153 
L 594 3053 
L 172 3053 
L 172 3500 
L 594 3500 
L 594 4494 
L 1172 4494 
z
" transform="scale(0.015625)"/>
       <path id="DejaVuSans-68" d="M 3513 2113 
L 3513 0 
L 2938 0 
L 2938 2094 
Q 2938 2591 2744 2837 
Q 2550 3084 2163 3084 
Q 1697 3084 1428 2787 
Q 1159 2491 1159 1978 
L 1159 0 
L 581 0 
L 581 4863 
L 1159 4863 
L 1159 2956 
Q 1366 3272 1645 3428 
Q 1925 3584 2291 3584 
Q 2894 3584 3203 3211 
Q 3513 2838 3513 2113 
z
" transform="scale(0.015625)"/>
      </defs>
      <use xlink:href="#DejaVuSans-54"/>
      <use xlink:href="#DejaVuSans-72" x="46.333984"/>
      <use xlink:href="#DejaVuSans-75" x="87.447266"/>
      <use xlink:href="#DejaVuSans-74" x="150.826172"/>
      <use xlink:href="#DejaVuSans-68" x="190.035156"/>
     </g>
    </g>
   </g>
   <g id="matplotlib.axis_2">
    <g id="ytick_1">
     <g id="line2d_13">
      <path d="M 45 227.577163 
L 324 227.577163 
" clip-path="url(#pdfa2a510ce)" style="fill: none; stroke: #b0b0b0; stroke-opacity: 0.4; stroke-width: 0.8; stroke-linecap: square"/>
     </g>
     <g id="line2d_14">
      <defs>
       <path id="mac77282cb2" d="M 0 0 
L -3.5 0 
" style="stroke: #000000; stroke-width: 0.8"/>
      </defs>
      <g>
       <use xlink:href="#mac77282cb2" x="45" y="227.577163" style="stroke: #000000; stroke-width: 0.8"/>
      </g>
     </g>
     <g id="text_8">
      <!-- 0 -->
      <g transform="translate(31.6375 231.376382) scale(0.1 -0.1)">
       <use xlink:href="#DejaVuSans-30"/>
      </g>
     </g>
    </g>
    <g id="ytick_2">
     <g id="line2d_15">
      <path d="M 45 191.194529 
L 324 191.194529 
" clip-path="url(#pdfa2a510ce)" style="fill: none; stroke: #b0b0b0; stroke-opacity: 0.4; stroke-width: 0.8; stroke-linecap: square"/>
     </g>
     <g id="line2d_16">
      <g>
       <use xlink:href="#mac77282cb2" x="45" y="191.194529" style="stroke: #000000; stroke-width: 0.8"/>
      </g>
     </g>
     <g id="text_9">
      <!-- 2 -->
      <g transform="translate(31.6375 194.993748) scale(0.1 -0.1)">
       <use xlink:href="#DejaVuSans-32"/>
      </g>
     </g>
    </g>
    <g id="ytick_3">
     <g id="line2d_17">
      <path d="M 45 154.811896 
L 324 154.811896 
" clip-path="url(#pdfa2a510ce)" style="fill: none; stroke: #b0b0b0; stroke-opacity: 0.4; stroke-width: 0.8; stroke-linecap: square"/>
     </g>
     <g id="line2d_18">
      <g>
       <use xlink:href="#mac77282cb2" x="45" y="154.811896" style="stroke: #000000; stroke-width: 0.8"/>
      </g>
     </g>
     <g id="text_10">
      <!-- 4 -->
      <g transform="translate(31.6375 158.611114) scale(0.1 -0.1)">
       <use xlink:href="#DejaVuSans-34"/>
      </g>
     </g>
    </g>
    <g id="ytick_4">
     <g id="line2d_19">
      <path d="M 45 118.429262 
L 324 118.429262 
" clip-path="url(#pdfa2a510ce)" style="fill: none; stroke: #b0b0b0; stroke-opacity: 0.4; stroke-width: 0.8; stroke-linecap: square"/>
     </g>
     <g id="line2d_20">
      <g>
       <use xlink:href="#mac77282cb2" x="45" y="118.429262" style="stroke: #000000; stroke-width: 0.8"/>
      </g>
     </g>
     <g id="text_11">
      <!-- 6 -->
      <g transform="translate(31.6375 122.228481) scale(0.1 -0.1)">
       <use xlink:href="#DejaVuSans-36"/>
      </g>
     </g>
    </g>
    <g id="ytick_5">
     <g id="line2d_21">
      <path d="M 45 82.046628 
L 324 82.046628 
" clip-path="url(#pdfa2a510ce)" style="fill: none; stroke: #b0b0b0; stroke-opacity: 0.4; stroke-width: 0.8; stroke-linecap: square"/>
     </g>
     <g id="line2d_22">
      <g>
       <use xlink:href="#mac77282cb2" x="45" y="82.046628" style="stroke: #000000; stroke-width: 0.8"/>
      </g>
     </g>
     <g id="text_12">
      <!-- 8 -->
      <g transform="translate(31.6375 85.845847) scale(0.1 -0.1)">
       <use xlink:href="#DejaVuSans-38"/>
      </g>
     </g>
    </g>
    <g id="ytick_6">
     <g id="line2d_23">
      <path d="M 45 45.663994 
L 324 45.663994 
" clip-path="url(#pdfa2a510ce)" style="fill: none; stroke: #b0b0b0; stroke-opacity: 0.4; stroke-width: 0.8; stroke-linecap: square"/>
     </g>
     <g id="line2d_24">
      <g>
       <use xlink:href="#mac77282cb2" x="45" y="45.663994" style="stroke: #000000; stroke-width: 0.8"/>
      </g>
     </g>
     <g id="text_13">
      <!-- 10 -->
      <g transform="translate(25.275 49.463213) scale(0.1 -0.1)">
       <use xlink:href="#DejaVuSans-31"/>
       <use xlink:href="#DejaVuSans-30" x="63.623047"/>
      </g>
     </g>
    </g>
    <g id="text_14">
     <!-- Prediction -->
     <g transform="translate(19.195312 163.004719) rotate(-90) scale(0.1 -0.1)">
      <defs>
       <path id="DejaVuSans-50" d="M 1259 4147 
L 1259 2394 
L 2053 2394 
Q 2494 2394 2734 2622 
Q 2975 2850 2975 3272 
Q 2975 3691 2734 3919 
Q 2494 4147 2053 4147 
L 1259 4147 
z
M 628 4666 
L 2053 4666 
Q 2838 4666 3239 4311 
Q 3641 3956 3641 3272 
Q 3641 2581 3239 2228 
Q 2838 1875 2053 1875 
L 1259 1875 
L 1259 0 
L 628 0 
L 628 4666 
z
" transform="scale(0.015625)"/>
       <path id="DejaVuSans-65" d="M 3597 1894 
L 3597 1613 
L 953 1613 
Q 991 1019 1311 708 
Q 1631 397 2203 397 
Q 2534 397 2845 478 
Q 3156 559 3463 722 
L 3463 178 
Q 3153 47 2828 -22 
Q 2503 -91 2169 -91 
Q 1331 -91 842 396 
Q 353 884 353 1716 
Q 353 2575 817 3079 
Q 1281 3584 2069 3584 
Q 2775 3584 3186 3129 
Q 3597 2675 3597 1894 
z
M 3022 2063 
Q 3016 2534 2758 2815 
Q 2500 3097 2075 3097 
Q 1594 3097 1305 2825 
Q 1016 2553 972 2059 
L 3022 2063 
z
" transform="scale(0.015625)"/>
       <path id="DejaVuSans-64" d="M 2906 2969 
L 2906 4863 
L 3481 4863 
L 3481 0 
L 2906 0 
L 2906 525 
Q 2725 213 2448 61 
Q 2172 -91 1784 -91 
Q 1150 -91 751 415 
Q 353 922 353 1747 
Q 353 2572 751 3078 
Q 1150 3584 1784 3584 
Q 2172 3584 2448 3432 
Q 2725 3281 2906 2969 
z
M 947 1747 
Q 947 1113 1208 752 
Q 1469 391 1925 391 
Q 2381 391 2643 752 
Q 2906 1113 2906 1747 
Q 2906 2381 2643 2742 
Q 2381 3103 1925 3103 
Q 1469 3103 1208 2742 
Q 947 2381 947 1747 
z
" transform="scale(0.015625)"/>
       <path id="DejaVuSans-69" d="M 603 3500 
L 1178 3500 
L 1178 0 
L 603 0 
L 603 3500 
z
M 603 4863 
L 1178 4863 
L 1178 4134 
L 603 4134 
L 603 4863 
z
" transform="scale(0.015625)"/>
       <path id="DejaVuSans-63" d="M 3122 3366 
L 3122 2828 
Q 2878 2963 2633 3030 
Q 2388 3097 2138 3097 
Q 1578 3097 1268 2742 
Q 959 2388 959 1747 
Q 959 1106 1268 751 
Q 1578 397 2138 397 
Q 2388 397 2633 464 
Q 2878 531 3122 666 
L 3122 134 
Q 2881 22 2623 -34 
Q 2366 -91 2075 -91 
Q 1284 -91 818 406 
Q 353 903 353 1747 
Q 353 2603 823 3093 
Q 1294 3584 2113 3584 
Q 2378 3584 2631 3529 
Q 2884 3475 3122 3366 
z
" transform="scale(0.015625)"/>
       <path id="DejaVuSans-6f" d="M 1959 3097 
Q 1497 3097 1228 2736 
Q 959 2375 959 1747 
Q 959 1119 1226 758 
Q 1494 397 1959 397 
Q 2419 397 2687 759 
Q 2956 1122 2956 1747 
Q 2956 2369 2687 2733 
Q 2419 3097 1959 3097 
z
M 1959 3584 
Q 2709 3584 3137 3096 
Q 3566 2609 3566 1747 
Q 3566 888 3137 398 
Q 2709 -91 1959 -91 
Q 1206 -91 779 398 
Q 353 888 353 1747 
Q 353 2609 779 3096 
Q 1206 3584 1959 3584 
z
" transform="scale(0.015625)"/>
       <path id="DejaVuSans-6e" d="M 3513 2113 
L 3513 0 
L 2938 0 
L 2938 2094 
Q 2938 2591 2744 2837 
Q 2550 3084 2163 3084 
Q 1697 3084 1428 2787 
Q 1159 2491 1159 1978 
L 1159 0 
L 581 0 
L 581 3500 
L 1159 3500 
L 1159 2956 
Q 1366 3272 1645 3428 
Q 1925 3584 2291 3584 
Q 2894 3584 3203 3211 
Q 3513 2838 3513 2113 
z
" transform="scale(0.015625)"/>
      </defs>
      <use xlink:href="#DejaVuSans-50"/>
      <use xlink:href="#DejaVuSans-72" x="58.552734"/>
      <use xlink:href="#DejaVuSans-65" x="97.416016"/>
      <use xlink:href="#DejaVuSans-64" x="158.939453"/>
      <use xlink:href="#DejaVuSans-69" x="222.416016"/>
      <use xlink:href="#DejaVuSans-63" x="250.199219"/>
      <use xlink:href="#DejaVuSans-74" x="305.179688"/>
      <use xlink:href="#DejaVuSans-69" x="344.388672"/>
      <use xlink:href="#DejaVuSans-6f" x="372.171875"/>
      <use xlink:href="#DejaVuSans-6e" x="433.353516"/>
     </g>
    </g>
   </g>
   <g id="line2d_25">
    <path d="M 57.681818 226.171471 
L 60.243802 224.409135 
L 62.805785 222.646798 
L 65.367769 220.884462 
L 67.929752 219.122126 
L 70.491736 217.35979 
L 73.053719 215.597454 
L 75.615702 213.835118 
L 78.177686 212.072782 
L 80.739669 210.310446 
L 83.301653 208.54811 
L 85.863636 206.785774 
L 88.42562 205.023438 
L 90.987603 203.261102 
L 93.549587 201.498766 
L 96.11157 199.73643 
L 98.673554 197.974094 
L 101.235537 196.211758 
L 103.797521 194.449422 
L 106.359504 192.687086 
L 108.921488 190.92475 
L 111.483471 189.162414 
L 114.045455 187.400078 
L 116.607438 185.637742 
L 119.169421 183.875406 
L 121.731405 182.11307 
L 124.293388 180.350734 
L 126.855372 178.588398 
L 129.417355 176.826062 
L 131.979339 175.063726 
L 134.541322 173.30139 
L 137.103306 171.539054 
L 139.665289 169.776718 
L 142.227273 168.014382 
L 144.789256 166.252046 
L 147.35124 164.48971 
L 149.913223 162.727374 
L 152.475207 160.965038 
L 155.03719 159.202702 
L 157.599174 157.440366 
L 160.161157 155.67803 
L 162.72314 153.915694 
L 165.285124 152.153358 
L 167.847107 150.391021 
L 170.409091 148.628685 
L 172.971074 146.866349 
L 175.533058 145.104013 
L 178.095041 143.341677 
L 180.657025 141.579341 
L 183.219008 139.817005 
L 185.780992 138.054669 
L 188.342975 136.292333 
L 190.904959 134.529997 
L 193.466942 132.767661 
L 196.028926 131.005325 
L 198.590909 129.242989 
L 201.152893 127.480653 
L 203.714876 125.718317 
L 206.27686 123.955981 
L 208.838843 122.193645 
L 211.400826 120.431309 
L 213.96281 118.668973 
L 216.524793 116.906637 
L 219.086777 115.144301 
L 221.64876 113.381965 
L 224.210744 111.619629 
L 226.772727 109.857293 
L 229.334711 108.094957 
L 231.896694 106.332621 
L 234.458678 104.570285 
L 237.020661 102.807949 
L 239.582645 101.045613 
L 242.144628 99.283277 
L 244.706612 97.520941 
L 247.268595 95.758605 
L 249.830579 93.996269 
L 252.392562 92.233933 
L 254.954545 90.471597 
L 257.516529 88.709261 
L 260.078512 86.946925 
L 262.640496 85.184589 
L 265.202479 83.422253 
L 267.764463 81.659917 
L 270.326446 79.89758 
L 272.88843 78.135244 
L 275.450413 76.372908 
L 278.012397 74.610572 
L 280.57438 72.848236 
L 283.136364 71.0859 
L 285.698347 69.323564 
L 288.260331 67.561228 
L 290.822314 65.798892 
L 293.384298 64.036556 
L 295.946281 62.27422 
L 298.508264 60.511884 
L 301.070248 58.749548 
L 303.632231 56.987212 
L 306.194215 55.224876 
L 308.756198 53.46254 
L 311.318182 51.700204 
" clip-path="url(#pdfa2a510ce)" style="fill: none; stroke: #ff0000; stroke-width: 2.25; stroke-linecap: square"/>
   </g>
   <g id="patch_3">
    <path d="M 45 243.504 
L 45 32.832 
" style="fill: none; stroke: #000000; stroke-width: 0.8; stroke-linejoin: miter; stroke-linecap: square"/>
   </g>
   <g id="patch_4">
    <path d="M 45 243.504 
L 324 243.504 
" style="fill: none; stroke: #000000; stroke-width: 0.8; stroke-linejoin: miter; stroke-linecap: square"/>
   </g>
  </g>
 </g>
 <defs>
  <clipPath id="pdfa2a510ce">
   <rect x="45" y="32.832" width="279" height="210.672"/>
  </clipPath>
 </defs>
</svg>
