<?xml version="1.0" encoding="utf-8" standalone="no"?>
<!DOCTYPE svg PUBLIC "-//W3C//DTD SVG 1.1//EN"
  "http://www.w3.org/Graphics/SVG/1.1/DTD/svg11.dtd">
<svg height="216pt" version="1.1" viewBox="0 0 864 216" width="864pt" xmlns="http://www.w3.org/2000/svg" xmlns:xlink="http://www.w3.org/1999/xlink">
 <metadata>
  <rdf:RDF xmlns:cc="http://creativecommons.org/ns#" xmlns:dc="http://purl.org/dc/elements/1.1/" xmlns:rdf="http://www.w3.org/1999/02/22-rdf-syntax-ns#">
   <cc:Work>
    <dc:type rdf:resource="http://purl.org/dc/dcmitype/StillImage"/>
    <dc:date>2021-07-05T15:28:37.116483</dc:date>
    <dc:format>image/svg+xml</dc:format>
    <dc:creator>
     <cc:Agent>
      <dc:title>Matplotlib v3.4.2, https://matplotlib.org/</dc:title>
     </cc:Agent>
    </dc:creator>
   </cc:Work>
  </rdf:RDF>
 </metadata>
 <defs>
  <style type="text/css">*{stroke-linecap:butt;stroke-linejoin:round;}</style>
 </defs>
 <g id="figure_1">
  <g id="patch_1">
   <path d="M 0 216 
L 864 216 
L 864 0 
L 0 0 
z
" style="fill:#ffffff;"/>
  </g>
  <g id="axes_1">
   <g id="patch_2">
    <path d="M 47.72 174.04 
L 282.554365 174.04 
L 282.554365 34.56 
L 47.72 34.56 
z
" style="fill:#ffffff;"/>
   </g>
   <g id="patch_3">
    <path clip-path="url(#p290d92458d)" d="M 113.357338 174.04 
L 124.921867 174.04 
L 124.921867 167.714376 
L 113.357338 167.714376 
z
" style="fill:#1f77b4;opacity:0.4;"/>
   </g>
   <g id="patch_4">
    <path clip-path="url(#p290d92458d)" d="M 124.921867 174.04 
L 136.486395 174.04 
L 136.486395 167.714376 
L 124.921867 167.714376 
z
" style="fill:#1f77b4;opacity:0.4;"/>
   </g>
   <g id="patch_5">
    <path clip-path="url(#p290d92458d)" d="M 136.486395 174.04 
L 148.050924 174.04 
L 148.050924 155.063129 
L 136.486395 155.063129 
z
" style="fill:#1f77b4;opacity:0.4;"/>
   </g>
   <g id="patch_6">
    <path clip-path="url(#p290d92458d)" d="M 148.050924 174.04 
L 159.615453 174.04 
L 159.615453 110.783764 
L 148.050924 110.783764 
z
" style="fill:#1f77b4;opacity:0.4;"/>
   </g>
   <g id="patch_7">
    <path clip-path="url(#p290d92458d)" d="M 159.615453 174.04 
L 171.179981 174.04 
L 171.179981 72.830023 
L 159.615453 72.830023 
z
" style="fill:#1f77b4;opacity:0.4;"/>
   </g>
   <g id="patch_8">
    <path clip-path="url(#p290d92458d)" d="M 171.179981 174.04 
L 182.74451 174.04 
L 182.74451 66.504399 
L 171.179981 66.504399 
z
" style="fill:#1f77b4;opacity:0.4;"/>
   </g>
   <g id="patch_9">
    <path clip-path="url(#p290d92458d)" d="M 182.74451 174.04 
L 194.309039 174.04 
L 194.309039 41.201905 
L 182.74451 41.201905 
z
" style="fill:#1f77b4;opacity:0.4;"/>
   </g>
   <g id="patch_10">
    <path clip-path="url(#p290d92458d)" d="M 194.309039 174.04 
L 205.873568 174.04 
L 205.873568 85.48127 
L 194.309039 85.48127 
z
" style="fill:#1f77b4;opacity:0.4;"/>
   </g>
   <g id="patch_11">
    <path clip-path="url(#p290d92458d)" d="M 205.873568 174.04 
L 217.438096 174.04 
L 217.438096 117.109388 
L 205.873568 117.109388 
z
" style="fill:#1f77b4;opacity:0.4;"/>
   </g>
   <g id="patch_12">
    <path clip-path="url(#p290d92458d)" d="M 217.438096 174.04 
L 229.002625 174.04 
L 229.002625 123.435011 
L 217.438096 123.435011 
z
" style="fill:#1f77b4;opacity:0.4;"/>
   </g>
   <g id="patch_13">
    <path clip-path="url(#p290d92458d)" d="M 92.242713 174.04 
L 106.821607 174.04 
L 106.821607 164.004553 
L 92.242713 164.004553 
z
" style="fill:#ff7f0e;opacity:0.4;"/>
   </g>
   <g id="patch_14">
    <path clip-path="url(#p290d92458d)" d="M 106.821607 174.04 
L 121.400501 174.04 
L 121.400501 174.04 
L 106.821607 174.04 
z
" style="fill:#ff7f0e;opacity:0.4;"/>
   </g>
   <g id="patch_15">
    <path clip-path="url(#p290d92458d)" d="M 121.400501 174.04 
L 135.979395 174.04 
L 135.979395 158.98683 
L 121.400501 158.98683 
z
" style="fill:#ff7f0e;opacity:0.4;"/>
   </g>
   <g id="patch_16">
    <path clip-path="url(#p290d92458d)" d="M 135.979395 174.04 
L 150.558289 174.04 
L 150.558289 123.862767 
L 135.979395 123.862767 
z
" style="fill:#ff7f0e;opacity:0.4;"/>
   </g>
   <g id="patch_17">
    <path clip-path="url(#p290d92458d)" d="M 150.558289 174.04 
L 165.137182 174.04 
L 165.137182 133.898214 
L 150.558289 133.898214 
z
" style="fill:#ff7f0e;opacity:0.4;"/>
   </g>
   <g id="patch_18">
    <path clip-path="url(#p290d92458d)" d="M 165.137182 174.04 
L 179.716076 174.04 
L 179.716076 58.632364 
L 165.137182 58.632364 
z
" style="fill:#ff7f0e;opacity:0.4;"/>
   </g>
   <g id="patch_19">
    <path clip-path="url(#p290d92458d)" d="M 179.716076 174.04 
L 194.29497 174.04 
L 194.29497 88.738704 
L 179.716076 88.738704 
z
" style="fill:#ff7f0e;opacity:0.4;"/>
   </g>
   <g id="patch_20">
    <path clip-path="url(#p290d92458d)" d="M 194.29497 174.04 
L 208.873864 174.04 
L 208.873864 98.774151 
L 194.29497 98.774151 
z
" style="fill:#ff7f0e;opacity:0.4;"/>
   </g>
   <g id="patch_21">
    <path clip-path="url(#p290d92458d)" d="M 208.873864 174.04 
L 223.452758 174.04 
L 223.452758 73.685534 
L 208.873864 73.685534 
z
" style="fill:#ff7f0e;opacity:0.4;"/>
   </g>
   <g id="patch_22">
    <path clip-path="url(#p290d92458d)" d="M 223.452758 174.04 
L 238.031652 174.04 
L 238.031652 164.004553 
L 223.452758 164.004553 
z
" style="fill:#ff7f0e;opacity:0.4;"/>
   </g>
   <g id="matplotlib.axis_1">
    <g id="xtick_1">
     <g id="line2d_1">
      <defs>
       <path d="M 0 0 
L 0 3.5 
" id="mec120e5c55" style="stroke:#000000;stroke-width:0.8;"/>
      </defs>
      <g>
       <use style="stroke:#000000;stroke-width:0.8;" x="80.297377" xlink:href="#mec120e5c55" y="174.04"/>
      </g>
     </g>
     <g id="text_1">
      <!-- −4 -->
      <g transform="translate(72.926284 188.638438)scale(0.1 -0.1)">
       <defs>
        <path d="M 678 2272 
L 4684 2272 
L 4684 1741 
L 678 1741 
L 678 2272 
z
" id="DejaVuSans-2212" transform="scale(0.015625)"/>
        <path d="M 2419 4116 
L 825 1625 
L 2419 1625 
L 2419 4116 
z
M 2253 4666 
L 3047 4666 
L 3047 1625 
L 3713 1625 
L 3713 1100 
L 3047 1100 
L 3047 0 
L 2419 0 
L 2419 1100 
L 313 1100 
L 313 1709 
L 2253 4666 
z
" id="DejaVuSans-34" transform="scale(0.015625)"/>
       </defs>
       <use xlink:href="#DejaVuSans-2212"/>
       <use x="83.789062" xlink:href="#DejaVuSans-34"/>
      </g>
     </g>
    </g>
    <g id="xtick_2">
     <g id="line2d_2">
      <g>
       <use style="stroke:#000000;stroke-width:0.8;" x="130.719328" xlink:href="#mec120e5c55" y="174.04"/>
      </g>
     </g>
     <g id="text_2">
      <!-- −2 -->
      <g transform="translate(123.348234 188.638438)scale(0.1 -0.1)">
       <defs>
        <path d="M 1228 531 
L 3431 531 
L 3431 0 
L 469 0 
L 469 531 
Q 828 903 1448 1529 
Q 2069 2156 2228 2338 
Q 2531 2678 2651 2914 
Q 2772 3150 2772 3378 
Q 2772 3750 2511 3984 
Q 2250 4219 1831 4219 
Q 1534 4219 1204 4116 
Q 875 4013 500 3803 
L 500 4441 
Q 881 4594 1212 4672 
Q 1544 4750 1819 4750 
Q 2544 4750 2975 4387 
Q 3406 4025 3406 3419 
Q 3406 3131 3298 2873 
Q 3191 2616 2906 2266 
Q 2828 2175 2409 1742 
Q 1991 1309 1228 531 
z
" id="DejaVuSans-32" transform="scale(0.015625)"/>
       </defs>
       <use xlink:href="#DejaVuSans-2212"/>
       <use x="83.789062" xlink:href="#DejaVuSans-32"/>
      </g>
     </g>
    </g>
    <g id="xtick_3">
     <g id="line2d_3">
      <g>
       <use style="stroke:#000000;stroke-width:0.8;" x="181.141278" xlink:href="#mec120e5c55" y="174.04"/>
      </g>
     </g>
     <g id="text_3">
      <!-- 0 -->
      <g transform="translate(177.960028 188.638438)scale(0.1 -0.1)">
       <defs>
        <path d="M 2034 4250 
Q 1547 4250 1301 3770 
Q 1056 3291 1056 2328 
Q 1056 1369 1301 889 
Q 1547 409 2034 409 
Q 2525 409 2770 889 
Q 3016 1369 3016 2328 
Q 3016 3291 2770 3770 
Q 2525 4250 2034 4250 
z
M 2034 4750 
Q 2819 4750 3233 4129 
Q 3647 3509 3647 2328 
Q 3647 1150 3233 529 
Q 2819 -91 2034 -91 
Q 1250 -91 836 529 
Q 422 1150 422 2328 
Q 422 3509 836 4129 
Q 1250 4750 2034 4750 
z
" id="DejaVuSans-30" transform="scale(0.015625)"/>
       </defs>
       <use xlink:href="#DejaVuSans-30"/>
      </g>
     </g>
    </g>
    <g id="xtick_4">
     <g id="line2d_4">
      <g>
       <use style="stroke:#000000;stroke-width:0.8;" x="231.563229" xlink:href="#mec120e5c55" y="174.04"/>
      </g>
     </g>
     <g id="text_4">
      <!-- 2 -->
      <g transform="translate(228.381979 188.638438)scale(0.1 -0.1)">
       <use xlink:href="#DejaVuSans-32"/>
      </g>
     </g>
    </g>
    <g id="xtick_5">
     <g id="line2d_5">
      <g>
       <use style="stroke:#000000;stroke-width:0.8;" x="281.985179" xlink:href="#mec120e5c55" y="174.04"/>
      </g>
     </g>
     <g id="text_5">
      <!-- 4 -->
      <g transform="translate(278.803929 188.638438)scale(0.1 -0.1)">
       <use xlink:href="#DejaVuSans-34"/>
      </g>
     </g>
    </g>
   </g>
   <g id="matplotlib.axis_2">
    <g id="ytick_1">
     <g id="line2d_6">
      <defs>
       <path d="M 0 0 
L -3.5 0 
" id="mbdded7afaf" style="stroke:#000000;stroke-width:0.8;"/>
      </defs>
      <g>
       <use style="stroke:#000000;stroke-width:0.8;" x="47.72" xlink:href="#mbdded7afaf" y="174.04"/>
      </g>
     </g>
     <g id="text_6">
      <!-- 0.0 -->
      <g transform="translate(24.816875 177.839219)scale(0.1 -0.1)">
       <defs>
        <path d="M 684 794 
L 1344 794 
L 1344 0 
L 684 0 
L 684 794 
z
" id="DejaVuSans-2e" transform="scale(0.015625)"/>
       </defs>
       <use xlink:href="#DejaVuSans-30"/>
       <use x="63.623047" xlink:href="#DejaVuSans-2e"/>
       <use x="95.410156" xlink:href="#DejaVuSans-30"/>
      </g>
     </g>
    </g>
    <g id="ytick_2">
     <g id="line2d_7">
      <g>
       <use style="stroke:#000000;stroke-width:0.8;" x="47.72" xlink:href="#mbdded7afaf" y="145.023727"/>
      </g>
     </g>
     <g id="text_7">
      <!-- 0.1 -->
      <g transform="translate(24.816875 148.822945)scale(0.1 -0.1)">
       <defs>
        <path d="M 794 531 
L 1825 531 
L 1825 4091 
L 703 3866 
L 703 4441 
L 1819 4666 
L 2450 4666 
L 2450 531 
L 3481 531 
L 3481 0 
L 794 0 
L 794 531 
z
" id="DejaVuSans-31" transform="scale(0.015625)"/>
       </defs>
       <use xlink:href="#DejaVuSans-30"/>
       <use x="63.623047" xlink:href="#DejaVuSans-2e"/>
       <use x="95.410156" xlink:href="#DejaVuSans-31"/>
      </g>
     </g>
    </g>
    <g id="ytick_3">
     <g id="line2d_8">
      <g>
       <use style="stroke:#000000;stroke-width:0.8;" x="47.72" xlink:href="#mbdded7afaf" y="116.007453"/>
      </g>
     </g>
     <g id="text_8">
      <!-- 0.2 -->
      <g transform="translate(24.816875 119.806672)scale(0.1 -0.1)">
       <use xlink:href="#DejaVuSans-30"/>
       <use x="63.623047" xlink:href="#DejaVuSans-2e"/>
       <use x="95.410156" xlink:href="#DejaVuSans-32"/>
      </g>
     </g>
    </g>
    <g id="ytick_4">
     <g id="line2d_9">
      <g>
       <use style="stroke:#000000;stroke-width:0.8;" x="47.72" xlink:href="#mbdded7afaf" y="86.99118"/>
      </g>
     </g>
     <g id="text_9">
      <!-- 0.3 -->
      <g transform="translate(24.816875 90.790398)scale(0.1 -0.1)">
       <defs>
        <path d="M 2597 2516 
Q 3050 2419 3304 2112 
Q 3559 1806 3559 1356 
Q 3559 666 3084 287 
Q 2609 -91 1734 -91 
Q 1441 -91 1130 -33 
Q 819 25 488 141 
L 488 750 
Q 750 597 1062 519 
Q 1375 441 1716 441 
Q 2309 441 2620 675 
Q 2931 909 2931 1356 
Q 2931 1769 2642 2001 
Q 2353 2234 1838 2234 
L 1294 2234 
L 1294 2753 
L 1863 2753 
Q 2328 2753 2575 2939 
Q 2822 3125 2822 3475 
Q 2822 3834 2567 4026 
Q 2313 4219 1838 4219 
Q 1578 4219 1281 4162 
Q 984 4106 628 3988 
L 628 4550 
Q 988 4650 1302 4700 
Q 1616 4750 1894 4750 
Q 2613 4750 3031 4423 
Q 3450 4097 3450 3541 
Q 3450 3153 3228 2886 
Q 3006 2619 2597 2516 
z
" id="DejaVuSans-33" transform="scale(0.015625)"/>
       </defs>
       <use xlink:href="#DejaVuSans-30"/>
       <use x="63.623047" xlink:href="#DejaVuSans-2e"/>
       <use x="95.410156" xlink:href="#DejaVuSans-33"/>
      </g>
     </g>
    </g>
    <g id="ytick_5">
     <g id="line2d_10">
      <g>
       <use style="stroke:#000000;stroke-width:0.8;" x="47.72" xlink:href="#mbdded7afaf" y="57.974906"/>
      </g>
     </g>
     <g id="text_10">
      <!-- 0.4 -->
      <g transform="translate(24.816875 61.774125)scale(0.1 -0.1)">
       <use xlink:href="#DejaVuSans-30"/>
       <use x="63.623047" xlink:href="#DejaVuSans-2e"/>
       <use x="95.410156" xlink:href="#DejaVuSans-34"/>
      </g>
     </g>
    </g>
    <g id="text_11">
     <!-- Density -->
     <g transform="translate(18.737188 123.308594)rotate(-90)scale(0.1 -0.1)">
      <defs>
       <path d="M 1259 4147 
L 1259 519 
L 2022 519 
Q 2988 519 3436 956 
Q 3884 1394 3884 2338 
Q 3884 3275 3436 3711 
Q 2988 4147 2022 4147 
L 1259 4147 
z
M 628 4666 
L 1925 4666 
Q 3281 4666 3915 4102 
Q 4550 3538 4550 2338 
Q 4550 1131 3912 565 
Q 3275 0 1925 0 
L 628 0 
L 628 4666 
z
" id="DejaVuSans-44" transform="scale(0.015625)"/>
       <path d="M 3597 1894 
L 3597 1613 
L 953 1613 
Q 991 1019 1311 708 
Q 1631 397 2203 397 
Q 2534 397 2845 478 
Q 3156 559 3463 722 
L 3463 178 
Q 3153 47 2828 -22 
Q 2503 -91 2169 -91 
Q 1331 -91 842 396 
Q 353 884 353 1716 
Q 353 2575 817 3079 
Q 1281 3584 2069 3584 
Q 2775 3584 3186 3129 
Q 3597 2675 3597 1894 
z
M 3022 2063 
Q 3016 2534 2758 2815 
Q 2500 3097 2075 3097 
Q 1594 3097 1305 2825 
Q 1016 2553 972 2059 
L 3022 2063 
z
" id="DejaVuSans-65" transform="scale(0.015625)"/>
       <path d="M 3513 2113 
L 3513 0 
L 2938 0 
L 2938 2094 
Q 2938 2591 2744 2837 
Q 2550 3084 2163 3084 
Q 1697 3084 1428 2787 
Q 1159 2491 1159 1978 
L 1159 0 
L 581 0 
L 581 3500 
L 1159 3500 
L 1159 2956 
Q 1366 3272 1645 3428 
Q 1925 3584 2291 3584 
Q 2894 3584 3203 3211 
Q 3513 2838 3513 2113 
z
" id="DejaVuSans-6e" transform="scale(0.015625)"/>
       <path d="M 2834 3397 
L 2834 2853 
Q 2591 2978 2328 3040 
Q 2066 3103 1784 3103 
Q 1356 3103 1142 2972 
Q 928 2841 928 2578 
Q 928 2378 1081 2264 
Q 1234 2150 1697 2047 
L 1894 2003 
Q 2506 1872 2764 1633 
Q 3022 1394 3022 966 
Q 3022 478 2636 193 
Q 2250 -91 1575 -91 
Q 1294 -91 989 -36 
Q 684 19 347 128 
L 347 722 
Q 666 556 975 473 
Q 1284 391 1588 391 
Q 1994 391 2212 530 
Q 2431 669 2431 922 
Q 2431 1156 2273 1281 
Q 2116 1406 1581 1522 
L 1381 1569 
Q 847 1681 609 1914 
Q 372 2147 372 2553 
Q 372 3047 722 3315 
Q 1072 3584 1716 3584 
Q 2034 3584 2315 3537 
Q 2597 3491 2834 3397 
z
" id="DejaVuSans-73" transform="scale(0.015625)"/>
       <path d="M 603 3500 
L 1178 3500 
L 1178 0 
L 603 0 
L 603 3500 
z
M 603 4863 
L 1178 4863 
L 1178 4134 
L 603 4134 
L 603 4863 
z
" id="DejaVuSans-69" transform="scale(0.015625)"/>
       <path d="M 1172 4494 
L 1172 3500 
L 2356 3500 
L 2356 3053 
L 1172 3053 
L 1172 1153 
Q 1172 725 1289 603 
Q 1406 481 1766 481 
L 2356 481 
L 2356 0 
L 1766 0 
Q 1100 0 847 248 
Q 594 497 594 1153 
L 594 3053 
L 172 3053 
L 172 3500 
L 594 3500 
L 594 4494 
L 1172 4494 
z
" id="DejaVuSans-74" transform="scale(0.015625)"/>
       <path d="M 2059 -325 
Q 1816 -950 1584 -1140 
Q 1353 -1331 966 -1331 
L 506 -1331 
L 506 -850 
L 844 -850 
Q 1081 -850 1212 -737 
Q 1344 -625 1503 -206 
L 1606 56 
L 191 3500 
L 800 3500 
L 1894 763 
L 2988 3500 
L 3597 3500 
L 2059 -325 
z
" id="DejaVuSans-79" transform="scale(0.015625)"/>
      </defs>
      <use xlink:href="#DejaVuSans-44"/>
      <use x="77.001953" xlink:href="#DejaVuSans-65"/>
      <use x="138.525391" xlink:href="#DejaVuSans-6e"/>
      <use x="201.904297" xlink:href="#DejaVuSans-73"/>
      <use x="254.003906" xlink:href="#DejaVuSans-69"/>
      <use x="281.787109" xlink:href="#DejaVuSans-74"/>
      <use x="320.996094" xlink:href="#DejaVuSans-79"/>
     </g>
    </g>
   </g>
   <g id="line2d_11">
    <path clip-path="url(#p290d92458d)" d="M 85.759084 174.004676 
L 91.768595 173.836586 
L 96.061102 173.490613 
L 99.495108 172.994197 
L 102.929114 172.2915 
L 116.665138 169.174255 
L 120.957645 168.227813 
L 123.533149 167.430841 
L 126.108654 166.338761 
L 127.825657 165.399111 
L 129.54266 164.256193 
L 131.259663 162.87847 
L 132.976666 161.231534 
L 134.693669 159.27897 
L 136.410672 156.984941 
L 138.127675 154.318204 
L 139.844678 151.256728 
L 141.56168 147.791754 
L 143.278683 143.93012 
L 145.854188 137.446233 
L 148.429692 130.247576 
L 151.863698 119.812252 
L 162.165716 87.31658 
L 163.882719 82.620054 
L 165.599722 78.391956 
L 167.316725 74.695693 
L 169.033728 71.554574 
L 170.750731 68.94765 
L 172.467734 66.814351 
L 174.184737 65.067612 
L 175.90174 63.613004 
L 178.477244 61.810854 
L 181.052748 60.369639 
L 182.769751 59.653723 
L 184.486754 59.229508 
L 185.345256 59.162471 
L 186.203757 59.213168 
L 187.062259 59.397445 
L 187.92076 59.730382 
L 188.779262 60.225613 
L 189.637763 60.894705 
L 190.496265 61.746595 
L 191.354766 62.787134 
L 193.071769 65.440165 
L 194.788772 68.828954 
L 196.505775 72.871105 
L 198.222778 77.435179 
L 201.656784 87.457063 
L 205.949291 99.94495 
L 208.524796 106.713338 
L 211.1003 112.778764 
L 213.675805 118.237178 
L 217.109811 124.945523 
L 223.119321 136.621559 
L 228.27033 147.316874 
L 231.704336 154.36029 
L 234.27984 159.202037 
L 235.996843 162.089607 
L 237.713846 164.645045 
L 239.430849 166.839526 
L 241.147852 168.666182 
L 242.864855 170.138671 
L 244.581858 171.287353 
L 246.298861 172.153996 
L 248.015864 172.786059 
L 249.732867 173.231499 
L 252.308371 173.645291 
L 255.742377 173.904344 
L 256.600879 173.93822 
L 256.600879 173.93822 
" style="fill:none;stroke:#1f77b4;stroke-linecap:square;stroke-width:1.5;"/>
   </g>
   <g id="line2d_12">
    <path clip-path="url(#p290d92458d)" d="M 58.394289 174.009225 
L 65.90384 173.850166 
L 71.267804 173.500893 
L 75.558976 172.970708 
L 79.850147 172.178431 
L 86.286905 170.662959 
L 90.578076 169.70916 
L 93.796455 169.17186 
L 97.014834 168.830008 
L 102.378798 168.549494 
L 105.597177 168.332539 
L 108.815555 167.862495 
L 110.961141 167.328583 
L 113.106727 166.577704 
L 115.252313 165.589826 
L 117.397899 164.356672 
L 119.543484 162.878247 
L 121.68907 161.158792 
L 123.834656 159.203864 
L 125.980242 157.019919 
L 129.19862 153.338354 
L 132.416999 149.239251 
L 144.217721 133.572647 
L 148.508893 128.67717 
L 152.800064 123.775419 
L 154.94565 121.00844 
L 157.091236 117.860528 
L 159.236822 114.248967 
L 161.382407 110.155934 
L 164.600786 103.269575 
L 169.964751 91.304322 
L 172.110336 87.05969 
L 174.255922 83.484227 
L 175.328715 82.003936 
L 176.401508 80.749064 
L 177.474301 79.728012 
L 178.547094 78.943369 
L 179.619887 78.391947 
L 180.692679 78.065047 
L 181.765472 77.948907 
L 182.838265 78.025331 
L 183.911058 78.272452 
L 184.983851 78.665602 
L 187.129437 79.782955 
L 190.347816 81.881698 
L 193.566194 83.929111 
L 195.71178 85.064353 
L 197.857366 85.979356 
L 204.294123 88.329276 
L 206.439709 89.585764 
L 207.512502 90.427064 
L 208.585295 91.445414 
L 209.658088 92.663434 
L 210.730881 94.099632 
L 211.803673 95.767547 
L 212.876466 97.675062 
L 215.022052 102.209512 
L 217.167638 107.640805 
L 219.313224 113.811169 
L 222.531602 123.927303 
L 226.822774 137.537747 
L 228.96836 143.803981 
L 231.113946 149.45385 
L 233.259531 154.382434 
L 235.405117 158.555048 
L 237.550703 161.995838 
L 239.696289 164.770906 
L 241.841875 166.97004 
L 243.98746 168.690499 
L 246.133046 170.024945 
L 248.278632 171.054249 
L 250.424218 171.844713 
L 252.569804 172.448503 
L 255.788182 173.089722 
L 259.006561 173.499716 
L 263.297732 173.807743 
L 269.73449 173.98777 
L 271.880076 174.01024 
L 271.880076 174.01024 
" style="fill:none;stroke:#ff7f0e;stroke-linecap:square;stroke-width:1.5;"/>
   </g>
   <g id="patch_23">
    <path d="M 47.72 174.04 
L 47.72 34.56 
" style="fill:none;stroke:#000000;stroke-linecap:square;stroke-linejoin:miter;stroke-width:0.8;"/>
   </g>
   <g id="patch_24">
    <path d="M 282.554365 174.04 
L 282.554365 34.56 
" style="fill:none;stroke:#000000;stroke-linecap:square;stroke-linejoin:miter;stroke-width:0.8;"/>
   </g>
   <g id="patch_25">
    <path d="M 47.72 174.04 
L 282.554365 174.04 
" style="fill:none;stroke:#000000;stroke-linecap:square;stroke-linejoin:miter;stroke-width:0.8;"/>
   </g>
   <g id="patch_26">
    <path d="M 47.72 34.56 
L 282.554365 34.56 
" style="fill:none;stroke:#000000;stroke-linecap:square;stroke-linejoin:miter;stroke-width:0.8;"/>
   </g>
   <g id="legend_1">
    <g id="patch_27">
     <path d="M 54.72 71.91625 
L 136.887188 71.91625 
Q 138.887188 71.91625 138.887188 69.91625 
L 138.887188 41.56 
Q 138.887188 39.56 136.887188 39.56 
L 54.72 39.56 
Q 52.72 39.56 52.72 41.56 
L 52.72 69.91625 
Q 52.72 71.91625 54.72 71.91625 
z
" style="fill:#ffffff;opacity:0.8;stroke:#cccccc;stroke-linejoin:miter;"/>
    </g>
    <g id="line2d_13">
     <path d="M 56.72 47.658438 
L 76.72 47.658438 
" style="fill:none;stroke:#1f77b4;stroke-linecap:square;stroke-width:1.5;"/>
    </g>
    <g id="line2d_14"/>
    <g id="text_12">
     <!-- truth -->
     <g transform="translate(84.72 51.158438)scale(0.1 -0.1)">
      <defs>
       <path d="M 2631 2963 
Q 2534 3019 2420 3045 
Q 2306 3072 2169 3072 
Q 1681 3072 1420 2755 
Q 1159 2438 1159 1844 
L 1159 0 
L 581 0 
L 581 3500 
L 1159 3500 
L 1159 2956 
Q 1341 3275 1631 3429 
Q 1922 3584 2338 3584 
Q 2397 3584 2469 3576 
Q 2541 3569 2628 3553 
L 2631 2963 
z
" id="DejaVuSans-72" transform="scale(0.015625)"/>
       <path d="M 544 1381 
L 544 3500 
L 1119 3500 
L 1119 1403 
Q 1119 906 1312 657 
Q 1506 409 1894 409 
Q 2359 409 2629 706 
Q 2900 1003 2900 1516 
L 2900 3500 
L 3475 3500 
L 3475 0 
L 2900 0 
L 2900 538 
Q 2691 219 2414 64 
Q 2138 -91 1772 -91 
Q 1169 -91 856 284 
Q 544 659 544 1381 
z
M 1991 3584 
L 1991 3584 
z
" id="DejaVuSans-75" transform="scale(0.015625)"/>
       <path d="M 3513 2113 
L 3513 0 
L 2938 0 
L 2938 2094 
Q 2938 2591 2744 2837 
Q 2550 3084 2163 3084 
Q 1697 3084 1428 2787 
Q 1159 2491 1159 1978 
L 1159 0 
L 581 0 
L 581 4863 
L 1159 4863 
L 1159 2956 
Q 1366 3272 1645 3428 
Q 1925 3584 2291 3584 
Q 2894 3584 3203 3211 
Q 3513 2838 3513 2113 
z
" id="DejaVuSans-68" transform="scale(0.015625)"/>
      </defs>
      <use xlink:href="#DejaVuSans-74"/>
      <use x="39.208984" xlink:href="#DejaVuSans-72"/>
      <use x="80.322266" xlink:href="#DejaVuSans-75"/>
      <use x="143.701172" xlink:href="#DejaVuSans-74"/>
      <use x="182.910156" xlink:href="#DejaVuSans-68"/>
     </g>
    </g>
    <g id="line2d_15">
     <path d="M 56.72 62.336563 
L 76.72 62.336563 
" style="fill:none;stroke:#ff7f0e;stroke-linecap:square;stroke-width:1.5;"/>
    </g>
    <g id="line2d_16"/>
    <g id="text_13">
     <!-- prediction -->
     <g transform="translate(84.72 65.836563)scale(0.1 -0.1)">
      <defs>
       <path d="M 1159 525 
L 1159 -1331 
L 581 -1331 
L 581 3500 
L 1159 3500 
L 1159 2969 
Q 1341 3281 1617 3432 
Q 1894 3584 2278 3584 
Q 2916 3584 3314 3078 
Q 3713 2572 3713 1747 
Q 3713 922 3314 415 
Q 2916 -91 2278 -91 
Q 1894 -91 1617 61 
Q 1341 213 1159 525 
z
M 3116 1747 
Q 3116 2381 2855 2742 
Q 2594 3103 2138 3103 
Q 1681 3103 1420 2742 
Q 1159 2381 1159 1747 
Q 1159 1113 1420 752 
Q 1681 391 2138 391 
Q 2594 391 2855 752 
Q 3116 1113 3116 1747 
z
" id="DejaVuSans-70" transform="scale(0.015625)"/>
       <path d="M 2906 2969 
L 2906 4863 
L 3481 4863 
L 3481 0 
L 2906 0 
L 2906 525 
Q 2725 213 2448 61 
Q 2172 -91 1784 -91 
Q 1150 -91 751 415 
Q 353 922 353 1747 
Q 353 2572 751 3078 
Q 1150 3584 1784 3584 
Q 2172 3584 2448 3432 
Q 2725 3281 2906 2969 
z
M 947 1747 
Q 947 1113 1208 752 
Q 1469 391 1925 391 
Q 2381 391 2643 752 
Q 2906 1113 2906 1747 
Q 2906 2381 2643 2742 
Q 2381 3103 1925 3103 
Q 1469 3103 1208 2742 
Q 947 2381 947 1747 
z
" id="DejaVuSans-64" transform="scale(0.015625)"/>
       <path d="M 3122 3366 
L 3122 2828 
Q 2878 2963 2633 3030 
Q 2388 3097 2138 3097 
Q 1578 3097 1268 2742 
Q 959 2388 959 1747 
Q 959 1106 1268 751 
Q 1578 397 2138 397 
Q 2388 397 2633 464 
Q 2878 531 3122 666 
L 3122 134 
Q 2881 22 2623 -34 
Q 2366 -91 2075 -91 
Q 1284 -91 818 406 
Q 353 903 353 1747 
Q 353 2603 823 3093 
Q 1294 3584 2113 3584 
Q 2378 3584 2631 3529 
Q 2884 3475 3122 3366 
z
" id="DejaVuSans-63" transform="scale(0.015625)"/>
       <path d="M 1959 3097 
Q 1497 3097 1228 2736 
Q 959 2375 959 1747 
Q 959 1119 1226 758 
Q 1494 397 1959 397 
Q 2419 397 2687 759 
Q 2956 1122 2956 1747 
Q 2956 2369 2687 2733 
Q 2419 3097 1959 3097 
z
M 1959 3584 
Q 2709 3584 3137 3096 
Q 3566 2609 3566 1747 
Q 3566 888 3137 398 
Q 2709 -91 1959 -91 
Q 1206 -91 779 398 
Q 353 888 353 1747 
Q 353 2609 779 3096 
Q 1206 3584 1959 3584 
z
" id="DejaVuSans-6f" transform="scale(0.015625)"/>
      </defs>
      <use xlink:href="#DejaVuSans-70"/>
      <use x="63.476562" xlink:href="#DejaVuSans-72"/>
      <use x="102.339844" xlink:href="#DejaVuSans-65"/>
      <use x="163.863281" xlink:href="#DejaVuSans-64"/>
      <use x="227.339844" xlink:href="#DejaVuSans-69"/>
      <use x="255.123047" xlink:href="#DejaVuSans-63"/>
      <use x="310.103516" xlink:href="#DejaVuSans-74"/>
      <use x="349.3125" xlink:href="#DejaVuSans-69"/>
      <use x="377.095703" xlink:href="#DejaVuSans-6f"/>
      <use x="438.277344" xlink:href="#DejaVuSans-6e"/>
     </g>
    </g>
   </g>
  </g>
  <g id="axes_2">
   <g id="patch_28">
    <path d="M 331.867024 174.04 
L 566.701389 174.04 
L 566.701389 34.56 
L 331.867024 34.56 
z
" style="fill:#ffffff;"/>
   </g>
   <g id="PathCollection_1">
    <defs>
     <path d="M 0 3 
C 0.795609 3 1.55874 2.683901 2.12132 2.12132 
C 2.683901 1.55874 3 0.795609 3 0 
C 3 -0.795609 2.683901 -1.55874 2.12132 -2.12132 
C 1.55874 -2.683901 0.795609 -3 0 -3 
C -0.795609 -3 -1.55874 -2.683901 -2.12132 -2.12132 
C -2.683901 -1.55874 -3 -0.795609 -3 0 
C -3 0.795609 -2.683901 1.55874 -2.12132 2.12132 
C -1.55874 2.683901 -0.795609 3 0 3 
z
" id="md6ef8a8a0d" style="stroke:#1f77b4;"/>
    </defs>
    <g clip-path="url(#p98a755c2fa)">
     <use style="fill:#1f77b4;stroke:#1f77b4;" x="436.100799" xlink:href="#md6ef8a8a0d" y="92.619754"/>
     <use style="fill:#1f77b4;stroke:#1f77b4;" x="435.364104" xlink:href="#md6ef8a8a0d" y="82.788142"/>
     <use style="fill:#1f77b4;stroke:#1f77b4;" x="462.221019" xlink:href="#md6ef8a8a0d" y="88.065062"/>
     <use style="fill:#1f77b4;stroke:#1f77b4;" x="449.981029" xlink:href="#md6ef8a8a0d" y="73.994142"/>
     <use style="fill:#1f77b4;stroke:#1f77b4;" x="422.833622" xlink:href="#md6ef8a8a0d" y="83.753627"/>
     <use style="fill:#1f77b4;stroke:#1f77b4;" x="513.469756" xlink:href="#md6ef8a8a0d" y="115.340093"/>
     <use style="fill:#1f77b4;stroke:#1f77b4;" x="439.259379" xlink:href="#md6ef8a8a0d" y="103.886875"/>
     <use style="fill:#1f77b4;stroke:#1f77b4;" x="506.099246" xlink:href="#md6ef8a8a0d" y="65.733994"/>
     <use style="fill:#1f77b4;stroke:#1f77b4;" x="445.372637" xlink:href="#md6ef8a8a0d" y="85.967555"/>
     <use style="fill:#1f77b4;stroke:#1f77b4;" x="422.318142" xlink:href="#md6ef8a8a0d" y="101.124623"/>
     <use style="fill:#1f77b4;stroke:#1f77b4;" x="518.07655" xlink:href="#md6ef8a8a0d" y="72.771182"/>
     <use style="fill:#1f77b4;stroke:#1f77b4;" x="510.699925" xlink:href="#md6ef8a8a0d" y="67.189901"/>
     <use style="fill:#1f77b4;stroke:#1f77b4;" x="440.531847" xlink:href="#md6ef8a8a0d" y="71.496264"/>
     <use style="fill:#1f77b4;stroke:#1f77b4;" x="443.174521" xlink:href="#md6ef8a8a0d" y="100.627311"/>
     <use style="fill:#1f77b4;stroke:#1f77b4;" x="468.027081" xlink:href="#md6ef8a8a0d" y="127.54592"/>
     <use style="fill:#1f77b4;stroke:#1f77b4;" x="457.056082" xlink:href="#md6ef8a8a0d" y="104.476398"/>
     <use style="fill:#1f77b4;stroke:#1f77b4;" x="477.807036" xlink:href="#md6ef8a8a0d" y="74.395857"/>
     <use style="fill:#1f77b4;stroke:#1f77b4;" x="496.783981" xlink:href="#md6ef8a8a0d" y="125.638155"/>
     <use style="fill:#1f77b4;stroke:#1f77b4;" x="468.101613" xlink:href="#md6ef8a8a0d" y="127.02769"/>
     <use style="fill:#1f77b4;stroke:#1f77b4;" x="461.253495" xlink:href="#md6ef8a8a0d" y="138.610413"/>
     <use style="fill:#1f77b4;stroke:#1f77b4;" x="458.800771" xlink:href="#md6ef8a8a0d" y="88.004253"/>
     <use style="fill:#1f77b4;stroke:#1f77b4;" x="450.543615" xlink:href="#md6ef8a8a0d" y="107.849352"/>
     <use style="fill:#1f77b4;stroke:#1f77b4;" x="444.431604" xlink:href="#md6ef8a8a0d" y="100.30615"/>
     <use style="fill:#1f77b4;stroke:#1f77b4;" x="501.243994" xlink:href="#md6ef8a8a0d" y="64.811546"/>
     <use style="fill:#1f77b4;stroke:#1f77b4;" x="468.664244" xlink:href="#md6ef8a8a0d" y="120.635014"/>
     <use style="fill:#1f77b4;stroke:#1f77b4;" x="422.967728" xlink:href="#md6ef8a8a0d" y="73.088771"/>
     <use style="fill:#1f77b4;stroke:#1f77b4;" x="446.637398" xlink:href="#md6ef8a8a0d" y="72.400745"/>
     <use style="fill:#1f77b4;stroke:#1f77b4;" x="464.950184" xlink:href="#md6ef8a8a0d" y="98.374916"/>
     <use style="fill:#1f77b4;stroke:#1f77b4;" x="434.608396" xlink:href="#md6ef8a8a0d" y="119.266563"/>
     <use style="fill:#1f77b4;stroke:#1f77b4;" x="418.027597" xlink:href="#md6ef8a8a0d" y="103.389086"/>
     <use style="fill:#1f77b4;stroke:#1f77b4;" x="491.684389" xlink:href="#md6ef8a8a0d" y="76.742919"/>
     <use style="fill:#1f77b4;stroke:#1f77b4;" x="421.751148" xlink:href="#md6ef8a8a0d" y="99.471885"/>
     <use style="fill:#1f77b4;stroke:#1f77b4;" x="511.905843" xlink:href="#md6ef8a8a0d" y="77.122995"/>
     <use style="fill:#1f77b4;stroke:#1f77b4;" x="467.65642" xlink:href="#md6ef8a8a0d" y="72.688116"/>
     <use style="fill:#1f77b4;stroke:#1f77b4;" x="450.934567" xlink:href="#md6ef8a8a0d" y="115.525422"/>
     <use style="fill:#1f77b4;stroke:#1f77b4;" x="489.990197" xlink:href="#md6ef8a8a0d" y="81.102721"/>
     <use style="fill:#1f77b4;stroke:#1f77b4;" x="442.866565" xlink:href="#md6ef8a8a0d" y="96.351204"/>
     <use style="fill:#1f77b4;stroke:#1f77b4;" x="509.022221" xlink:href="#md6ef8a8a0d" y="95.877406"/>
     <use style="fill:#1f77b4;stroke:#1f77b4;" x="481.535372" xlink:href="#md6ef8a8a0d" y="90.095358"/>
     <use style="fill:#1f77b4;stroke:#1f77b4;" x="427.361279" xlink:href="#md6ef8a8a0d" y="118.583785"/>
     <use style="fill:#1f77b4;stroke:#1f77b4;" x="451.437579" xlink:href="#md6ef8a8a0d" y="112.127373"/>
     <use style="fill:#1f77b4;stroke:#1f77b4;" x="470.779984" xlink:href="#md6ef8a8a0d" y="93.293315"/>
     <use style="fill:#1f77b4;stroke:#1f77b4;" x="474.80554" xlink:href="#md6ef8a8a0d" y="62.706162"/>
     <use style="fill:#1f77b4;stroke:#1f77b4;" x="404.787809" xlink:href="#md6ef8a8a0d" y="81.121714"/>
     <use style="fill:#1f77b4;stroke:#1f77b4;" x="503.651837" xlink:href="#md6ef8a8a0d" y="79.751743"/>
     <use style="fill:#1f77b4;stroke:#1f77b4;" x="479.295414" xlink:href="#md6ef8a8a0d" y="123.05779"/>
     <use style="fill:#1f77b4;stroke:#1f77b4;" x="449.025455" xlink:href="#md6ef8a8a0d" y="166.770955"/>
     <use style="fill:#1f77b4;stroke:#1f77b4;" x="489.524354" xlink:href="#md6ef8a8a0d" y="81.397818"/>
     <use style="fill:#1f77b4;stroke:#1f77b4;" x="463.439222" xlink:href="#md6ef8a8a0d" y="73.09185"/>
     <use style="fill:#1f77b4;stroke:#1f77b4;" x="444.340922" xlink:href="#md6ef8a8a0d" y="102.308775"/>
     <use style="fill:#1f77b4;stroke:#1f77b4;" x="461.034523" xlink:href="#md6ef8a8a0d" y="86.878155"/>
     <use style="fill:#1f77b4;stroke:#1f77b4;" x="524.33986" xlink:href="#md6ef8a8a0d" y="102.491882"/>
     <use style="fill:#1f77b4;stroke:#1f77b4;" x="477.135521" xlink:href="#md6ef8a8a0d" y="92.033632"/>
     <use style="fill:#1f77b4;stroke:#1f77b4;" x="464.008856" xlink:href="#md6ef8a8a0d" y="71.873466"/>
     <use style="fill:#1f77b4;stroke:#1f77b4;" x="496.464922" xlink:href="#md6ef8a8a0d" y="92.425213"/>
     <use style="fill:#1f77b4;stroke:#1f77b4;" x="522.72789" xlink:href="#md6ef8a8a0d" y="107.011073"/>
     <use style="fill:#1f77b4;stroke:#1f77b4;" x="480.680363" xlink:href="#md6ef8a8a0d" y="83.307424"/>
     <use style="fill:#1f77b4;stroke:#1f77b4;" x="485.558994" xlink:href="#md6ef8a8a0d" y="92.415453"/>
     <use style="fill:#1f77b4;stroke:#1f77b4;" x="486.596805" xlink:href="#md6ef8a8a0d" y="71.174197"/>
     <use style="fill:#1f77b4;stroke:#1f77b4;" x="499.013859" xlink:href="#md6ef8a8a0d" y="95.12237"/>
     <use style="fill:#1f77b4;stroke:#1f77b4;" x="450.590985" xlink:href="#md6ef8a8a0d" y="102.24099"/>
     <use style="fill:#1f77b4;stroke:#1f77b4;" x="476.276864" xlink:href="#md6ef8a8a0d" y="92.882204"/>
     <use style="fill:#1f77b4;stroke:#1f77b4;" x="432.361824" xlink:href="#md6ef8a8a0d" y="70.896601"/>
     <use style="fill:#1f77b4;stroke:#1f77b4;" x="431.045282" xlink:href="#md6ef8a8a0d" y="90.64592"/>
     <use style="fill:#1f77b4;stroke:#1f77b4;" x="523.932163" xlink:href="#md6ef8a8a0d" y="98.60447"/>
     <use style="fill:#1f77b4;stroke:#1f77b4;" x="443.743342" xlink:href="#md6ef8a8a0d" y="71.577029"/>
     <use style="fill:#1f77b4;stroke:#1f77b4;" x="442.343761" xlink:href="#md6ef8a8a0d" y="79.353221"/>
     <use style="fill:#1f77b4;stroke:#1f77b4;" x="449.720895" xlink:href="#md6ef8a8a0d" y="109.140209"/>
     <use style="fill:#1f77b4;stroke:#1f77b4;" x="481.25063" xlink:href="#md6ef8a8a0d" y="78.86038"/>
     <use style="fill:#1f77b4;stroke:#1f77b4;" x="478.900263" xlink:href="#md6ef8a8a0d" y="100.01143"/>
     <use style="fill:#1f77b4;stroke:#1f77b4;" x="405.262161" xlink:href="#md6ef8a8a0d" y="69.08678"/>
     <use style="fill:#1f77b4;stroke:#1f77b4;" x="479.102929" xlink:href="#md6ef8a8a0d" y="106.964003"/>
     <use style="fill:#1f77b4;stroke:#1f77b4;" x="429.73002" xlink:href="#md6ef8a8a0d" y="100.806601"/>
     <use style="fill:#1f77b4;stroke:#1f77b4;" x="477.888737" xlink:href="#md6ef8a8a0d" y="110.625595"/>
     <use style="fill:#1f77b4;stroke:#1f77b4;" x="469.062094" xlink:href="#md6ef8a8a0d" y="109.250331"/>
     <use style="fill:#1f77b4;stroke:#1f77b4;" x="451.847295" xlink:href="#md6ef8a8a0d" y="100.477945"/>
     <use style="fill:#1f77b4;stroke:#1f77b4;" x="474.967435" xlink:href="#md6ef8a8a0d" y="131.319018"/>
     <use style="fill:#1f77b4;stroke:#1f77b4;" x="419.99191" xlink:href="#md6ef8a8a0d" y="123.745318"/>
     <use style="fill:#1f77b4;stroke:#1f77b4;" x="453.441098" xlink:href="#md6ef8a8a0d" y="118.153377"/>
     <use style="fill:#1f77b4;stroke:#1f77b4;" x="452.980079" xlink:href="#md6ef8a8a0d" y="129.326782"/>
     <use style="fill:#1f77b4;stroke:#1f77b4;" x="439.663477" xlink:href="#md6ef8a8a0d" y="95.948163"/>
     <use style="fill:#1f77b4;stroke:#1f77b4;" x="483.445573" xlink:href="#md6ef8a8a0d" y="143.037419"/>
     <use style="fill:#1f77b4;stroke:#1f77b4;" x="496.838296" xlink:href="#md6ef8a8a0d" y="84.552975"/>
     <use style="fill:#1f77b4;stroke:#1f77b4;" x="511.829687" xlink:href="#md6ef8a8a0d" y="159.880765"/>
     <use style="fill:#1f77b4;stroke:#1f77b4;" x="475.58592" xlink:href="#md6ef8a8a0d" y="102.929019"/>
     <use style="fill:#1f77b4;stroke:#1f77b4;" x="463.961689" xlink:href="#md6ef8a8a0d" y="73.334494"/>
     <use style="fill:#1f77b4;stroke:#1f77b4;" x="391.297734" xlink:href="#md6ef8a8a0d" y="131.82161"/>
     <use style="fill:#1f77b4;stroke:#1f77b4;" x="371.932222" xlink:href="#md6ef8a8a0d" y="65.768932"/>
     <use style="fill:#1f77b4;stroke:#1f77b4;" x="491.726198" xlink:href="#md6ef8a8a0d" y="52.653085"/>
     <use style="fill:#1f77b4;stroke:#1f77b4;" x="464.553946" xlink:href="#md6ef8a8a0d" y="106.162082"/>
     <use style="fill:#1f77b4;stroke:#1f77b4;" x="437.6267" xlink:href="#md6ef8a8a0d" y="121.71774"/>
     <use style="fill:#1f77b4;stroke:#1f77b4;" x="474.292964" xlink:href="#md6ef8a8a0d" y="73.606024"/>
     <use style="fill:#1f77b4;stroke:#1f77b4;" x="461.970325" xlink:href="#md6ef8a8a0d" y="95.986028"/>
     <use style="fill:#1f77b4;stroke:#1f77b4;" x="468.506131" xlink:href="#md6ef8a8a0d" y="69.780547"/>
     <use style="fill:#1f77b4;stroke:#1f77b4;" x="482.333776" xlink:href="#md6ef8a8a0d" y="141.934423"/>
     <use style="fill:#1f77b4;stroke:#1f77b4;" x="417.071856" xlink:href="#md6ef8a8a0d" y="87.790474"/>
     <use style="fill:#1f77b4;stroke:#1f77b4;" x="436.389327" xlink:href="#md6ef8a8a0d" y="105.383536"/>
     <use style="fill:#1f77b4;stroke:#1f77b4;" x="461.204972" xlink:href="#md6ef8a8a0d" y="84.562359"/>
     <use style="fill:#1f77b4;stroke:#1f77b4;" x="496.567913" xlink:href="#md6ef8a8a0d" y="125.795652"/>
     <use style="fill:#1f77b4;stroke:#1f77b4;" x="477.793721" xlink:href="#md6ef8a8a0d" y="97.515874"/>
    </g>
   </g>
   <g id="matplotlib.axis_3">
    <g id="xtick_6">
     <g id="line2d_17">
      <g>
       <use style="stroke:#000000;stroke-width:0.8;" x="394.813395" xlink:href="#mec120e5c55" y="174.04"/>
      </g>
     </g>
     <g id="text_14">
      <!-- −2 -->
      <g transform="translate(387.442301 188.638438)scale(0.1 -0.1)">
       <use xlink:href="#DejaVuSans-2212"/>
       <use x="83.789062" xlink:href="#DejaVuSans-32"/>
      </g>
     </g>
    </g>
    <g id="xtick_7">
     <g id="line2d_18">
      <g>
       <use style="stroke:#000000;stroke-width:0.8;" x="461.263923" xlink:href="#mec120e5c55" y="174.04"/>
      </g>
     </g>
     <g id="text_15">
      <!-- 0 -->
      <g transform="translate(458.082673 188.638438)scale(0.1 -0.1)">
       <use xlink:href="#DejaVuSans-30"/>
      </g>
     </g>
    </g>
    <g id="xtick_8">
     <g id="line2d_19">
      <g>
       <use style="stroke:#000000;stroke-width:0.8;" x="527.714452" xlink:href="#mec120e5c55" y="174.04"/>
      </g>
     </g>
     <g id="text_16">
      <!-- 2 -->
      <g transform="translate(524.533202 188.638438)scale(0.1 -0.1)">
       <use xlink:href="#DejaVuSans-32"/>
      </g>
     </g>
    </g>
    <g id="text_17">
     <!-- truth -->
     <g transform="translate(436.970925 202.316563)scale(0.1 -0.1)">
      <use xlink:href="#DejaVuSans-74"/>
      <use x="39.208984" xlink:href="#DejaVuSans-72"/>
      <use x="80.322266" xlink:href="#DejaVuSans-75"/>
      <use x="143.701172" xlink:href="#DejaVuSans-74"/>
      <use x="182.910156" xlink:href="#DejaVuSans-68"/>
     </g>
    </g>
   </g>
   <g id="matplotlib.axis_4">
    <g id="ytick_6">
     <g id="line2d_20">
      <g>
       <use style="stroke:#000000;stroke-width:0.8;" x="331.867024" xlink:href="#mbdded7afaf" y="136.652968"/>
      </g>
     </g>
     <g id="text_18">
      <!-- −2 -->
      <g transform="translate(310.124836 140.452187)scale(0.1 -0.1)">
       <use xlink:href="#DejaVuSans-2212"/>
       <use x="83.789062" xlink:href="#DejaVuSans-32"/>
      </g>
     </g>
    </g>
    <g id="ytick_7">
     <g id="line2d_21">
      <g>
       <use style="stroke:#000000;stroke-width:0.8;" x="331.867024" xlink:href="#mbdded7afaf" y="97.18464"/>
      </g>
     </g>
     <g id="text_19">
      <!-- 0 -->
      <g transform="translate(318.504524 100.983859)scale(0.1 -0.1)">
       <use xlink:href="#DejaVuSans-30"/>
      </g>
     </g>
    </g>
    <g id="ytick_8">
     <g id="line2d_22">
      <g>
       <use style="stroke:#000000;stroke-width:0.8;" x="331.867024" xlink:href="#mbdded7afaf" y="57.716313"/>
      </g>
     </g>
     <g id="text_20">
      <!-- 2 -->
      <g transform="translate(318.504524 61.515531)scale(0.1 -0.1)">
       <use xlink:href="#DejaVuSans-32"/>
      </g>
     </g>
    </g>
    <g id="text_21">
     <!-- prediction -->
     <g transform="translate(304.045149 129.383594)rotate(-90)scale(0.1 -0.1)">
      <use xlink:href="#DejaVuSans-70"/>
      <use x="63.476562" xlink:href="#DejaVuSans-72"/>
      <use x="102.339844" xlink:href="#DejaVuSans-65"/>
      <use x="163.863281" xlink:href="#DejaVuSans-64"/>
      <use x="227.339844" xlink:href="#DejaVuSans-69"/>
      <use x="255.123047" xlink:href="#DejaVuSans-63"/>
      <use x="310.103516" xlink:href="#DejaVuSans-74"/>
      <use x="349.3125" xlink:href="#DejaVuSans-69"/>
      <use x="377.095703" xlink:href="#DejaVuSans-6f"/>
      <use x="438.277344" xlink:href="#DejaVuSans-6e"/>
     </g>
    </g>
   </g>
   <g id="line2d_23">
    <path clip-path="url(#p98a755c2fa)" d="M 331.867024 174.04 
L 566.701389 34.56 
" style="fill:none;stroke:#c44e52;stroke-linecap:square;stroke-width:1.5;"/>
   </g>
   <g id="patch_29">
    <path d="M 331.867024 174.04 
L 331.867024 34.56 
" style="fill:none;stroke:#000000;stroke-linecap:square;stroke-linejoin:miter;stroke-width:0.8;"/>
   </g>
   <g id="patch_30">
    <path d="M 566.701389 174.04 
L 566.701389 34.56 
" style="fill:none;stroke:#000000;stroke-linecap:square;stroke-linejoin:miter;stroke-width:0.8;"/>
   </g>
   <g id="patch_31">
    <path d="M 331.867024 174.04 
L 566.701389 174.04 
" style="fill:none;stroke:#000000;stroke-linecap:square;stroke-linejoin:miter;stroke-width:0.8;"/>
   </g>
   <g id="patch_32">
    <path d="M 331.867024 34.56 
L 566.701389 34.56 
" style="fill:none;stroke:#000000;stroke-linecap:square;stroke-linejoin:miter;stroke-width:0.8;"/>
   </g>
  </g>
  <g id="axes_3">
   <g id="patch_33">
    <path d="M 616.014048 174.04 
L 850.848413 174.04 
L 850.848413 34.56 
L 616.014048 34.56 
z
" style="fill:#ffffff;"/>
   </g>
   <g id="matplotlib.axis_5">
    <g id="xtick_9">
     <g id="line2d_24">
      <g>
       <use style="stroke:#000000;stroke-width:0.8;" x="626.688337" xlink:href="#mec120e5c55" y="174.04"/>
      </g>
     </g>
     <g id="text_22">
      <!-- 0 -->
      <g transform="translate(623.507087 188.638438)scale(0.1 -0.1)">
       <use xlink:href="#DejaVuSans-30"/>
      </g>
     </g>
    </g>
    <g id="xtick_10">
     <g id="line2d_25">
      <g>
       <use style="stroke:#000000;stroke-width:0.8;" x="669.816779" xlink:href="#mec120e5c55" y="174.04"/>
      </g>
     </g>
     <g id="text_23">
      <!-- 20 -->
      <g transform="translate(663.454279 188.638438)scale(0.1 -0.1)">
       <use xlink:href="#DejaVuSans-32"/>
       <use x="63.623047" xlink:href="#DejaVuSans-30"/>
      </g>
     </g>
    </g>
    <g id="xtick_11">
     <g id="line2d_26">
      <g>
       <use style="stroke:#000000;stroke-width:0.8;" x="712.94522" xlink:href="#mec120e5c55" y="174.04"/>
      </g>
     </g>
     <g id="text_24">
      <!-- 40 -->
      <g transform="translate(706.58272 188.638438)scale(0.1 -0.1)">
       <use xlink:href="#DejaVuSans-34"/>
       <use x="63.623047" xlink:href="#DejaVuSans-30"/>
      </g>
     </g>
    </g>
    <g id="xtick_12">
     <g id="line2d_27">
      <g>
       <use style="stroke:#000000;stroke-width:0.8;" x="756.073662" xlink:href="#mec120e5c55" y="174.04"/>
      </g>
     </g>
     <g id="text_25">
      <!-- 60 -->
      <g transform="translate(749.711162 188.638438)scale(0.1 -0.1)">
       <defs>
        <path d="M 2113 2584 
Q 1688 2584 1439 2293 
Q 1191 2003 1191 1497 
Q 1191 994 1439 701 
Q 1688 409 2113 409 
Q 2538 409 2786 701 
Q 3034 994 3034 1497 
Q 3034 2003 2786 2293 
Q 2538 2584 2113 2584 
z
M 3366 4563 
L 3366 3988 
Q 3128 4100 2886 4159 
Q 2644 4219 2406 4219 
Q 1781 4219 1451 3797 
Q 1122 3375 1075 2522 
Q 1259 2794 1537 2939 
Q 1816 3084 2150 3084 
Q 2853 3084 3261 2657 
Q 3669 2231 3669 1497 
Q 3669 778 3244 343 
Q 2819 -91 2113 -91 
Q 1303 -91 875 529 
Q 447 1150 447 2328 
Q 447 3434 972 4092 
Q 1497 4750 2381 4750 
Q 2619 4750 2861 4703 
Q 3103 4656 3366 4563 
z
" id="DejaVuSans-36" transform="scale(0.015625)"/>
       </defs>
       <use xlink:href="#DejaVuSans-36"/>
       <use x="63.623047" xlink:href="#DejaVuSans-30"/>
      </g>
     </g>
    </g>
    <g id="xtick_13">
     <g id="line2d_28">
      <g>
       <use style="stroke:#000000;stroke-width:0.8;" x="799.202104" xlink:href="#mec120e5c55" y="174.04"/>
      </g>
     </g>
     <g id="text_26">
      <!-- 80 -->
      <g transform="translate(792.839604 188.638438)scale(0.1 -0.1)">
       <defs>
        <path d="M 2034 2216 
Q 1584 2216 1326 1975 
Q 1069 1734 1069 1313 
Q 1069 891 1326 650 
Q 1584 409 2034 409 
Q 2484 409 2743 651 
Q 3003 894 3003 1313 
Q 3003 1734 2745 1975 
Q 2488 2216 2034 2216 
z
M 1403 2484 
Q 997 2584 770 2862 
Q 544 3141 544 3541 
Q 544 4100 942 4425 
Q 1341 4750 2034 4750 
Q 2731 4750 3128 4425 
Q 3525 4100 3525 3541 
Q 3525 3141 3298 2862 
Q 3072 2584 2669 2484 
Q 3125 2378 3379 2068 
Q 3634 1759 3634 1313 
Q 3634 634 3220 271 
Q 2806 -91 2034 -91 
Q 1263 -91 848 271 
Q 434 634 434 1313 
Q 434 1759 690 2068 
Q 947 2378 1403 2484 
z
M 1172 3481 
Q 1172 3119 1398 2916 
Q 1625 2713 2034 2713 
Q 2441 2713 2670 2916 
Q 2900 3119 2900 3481 
Q 2900 3844 2670 4047 
Q 2441 4250 2034 4250 
Q 1625 4250 1398 4047 
Q 1172 3844 1172 3481 
z
" id="DejaVuSans-38" transform="scale(0.015625)"/>
       </defs>
       <use xlink:href="#DejaVuSans-38"/>
       <use x="63.623047" xlink:href="#DejaVuSans-30"/>
      </g>
     </g>
    </g>
    <g id="xtick_14">
     <g id="line2d_29">
      <g>
       <use style="stroke:#000000;stroke-width:0.8;" x="842.330546" xlink:href="#mec120e5c55" y="174.04"/>
      </g>
     </g>
     <g id="text_27">
      <!-- 100 -->
      <g transform="translate(832.786796 188.638438)scale(0.1 -0.1)">
       <use xlink:href="#DejaVuSans-31"/>
       <use x="63.623047" xlink:href="#DejaVuSans-30"/>
       <use x="127.246094" xlink:href="#DejaVuSans-30"/>
      </g>
     </g>
    </g>
   </g>
   <g id="matplotlib.axis_6">
    <g id="ytick_9">
     <g id="line2d_30">
      <g>
       <use style="stroke:#000000;stroke-width:0.8;" x="616.014048" xlink:href="#mbdded7afaf" y="136.652968"/>
      </g>
     </g>
     <g id="text_28">
      <!-- −2 -->
      <g transform="translate(594.27186 140.452187)scale(0.1 -0.1)">
       <use xlink:href="#DejaVuSans-2212"/>
       <use x="83.789062" xlink:href="#DejaVuSans-32"/>
      </g>
     </g>
    </g>
    <g id="ytick_10">
     <g id="line2d_31">
      <g>
       <use style="stroke:#000000;stroke-width:0.8;" x="616.014048" xlink:href="#mbdded7afaf" y="97.18464"/>
      </g>
     </g>
     <g id="text_29">
      <!-- 0 -->
      <g transform="translate(602.651548 100.983859)scale(0.1 -0.1)">
       <use xlink:href="#DejaVuSans-30"/>
      </g>
     </g>
    </g>
    <g id="ytick_11">
     <g id="line2d_32">
      <g>
       <use style="stroke:#000000;stroke-width:0.8;" x="616.014048" xlink:href="#mbdded7afaf" y="57.716313"/>
      </g>
     </g>
     <g id="text_30">
      <!-- 2 -->
      <g transform="translate(602.651548 61.515531)scale(0.1 -0.1)">
       <use xlink:href="#DejaVuSans-32"/>
      </g>
     </g>
    </g>
   </g>
   <g id="line2d_33">
    <path clip-path="url(#p851fcfce04)" d="M 626.688337 112.130292 
L 628.844759 112.567853 
L 631.001181 96.616173 
L 633.157603 103.886122 
L 635.314025 120.010339 
L 637.470448 66.176957 
L 639.62687 110.254252 
L 641.783292 70.554676 
L 643.939714 106.623279 
L 646.096136 120.316509 
L 648.252558 63.440749 
L 650.40898 67.8221 
L 652.565402 109.498469 
L 654.721824 107.928851 
L 656.878246 93.16766 
L 659.034668 99.68389 
L 661.19109 87.358849 
L 663.347513 76.087483 
L 665.503935 93.123391 
L 667.660357 97.190834 
L 669.816779 98.647631 
L 671.973201 103.551973 
L 674.129623 107.182206 
L 676.286045 73.438456 
L 678.442467 92.789216 
L 680.598889 119.930687 
L 682.755311 105.872073 
L 684.911733 94.995184 
L 687.068155 113.016706 
L 689.224578 122.86488 
L 691.381 79.116389 
L 693.537422 120.653275 
L 695.693844 67.105845 
L 697.850266 93.387814 
L 700.006688 103.319767 
L 702.16311 80.122655 
L 704.319532 108.111762 
L 706.475954 68.818573 
L 708.632376 85.144403 
L 710.788798 117.321135 
L 712.94522 103.021003 
L 715.101643 91.532571 
L 717.258065 89.14159 
L 719.414487 130.72866 
L 721.570909 72.008316 
L 723.727331 86.474827 
L 725.883753 104.453685 
L 728.040175 80.399342 
L 730.196597 95.892621 
L 732.353019 107.236067 
L 734.509441 97.320893 
L 736.665863 59.720653 
L 738.822285 87.757696 
L 740.978708 95.554286 
L 743.13513 76.276988 
L 745.291552 60.678083 
L 747.447974 85.652236 
L 749.604396 82.75457 
L 751.760818 82.138161 
L 753.91724 74.763046 
L 756.073662 103.523838 
L 758.230084 88.267696 
L 760.386506 114.351058 
L 762.542928 115.133019 
L 764.69935 59.962805 
L 766.855773 107.591 
L 769.012195 108.422281 
L 771.168617 104.040629 
L 773.325039 85.313525 
L 775.481461 86.709527 
L 777.637883 130.446918 
L 779.794305 86.589153 
L 781.950727 115.91422 
L 784.107149 87.310323 
L 786.263571 92.552913 
L 788.419993 102.777652 
L 790.576415 89.045432 
L 792.732838 121.698175 
L 794.88926 101.831012 
L 797.045682 102.104834 
L 799.202104 110.014238 
L 801.358526 84.009838 
L 803.514948 76.055223 
L 805.67137 67.151078 
L 807.827792 88.678083 
L 809.984214 95.582301 
L 812.140636 138.741097 
L 814.297058 150.243254 
L 816.45348 79.091556 
L 818.609903 95.23053 
L 820.766325 111.223982 
L 822.922747 89.446035 
L 825.079169 96.765073 
L 827.235591 92.883128 
L 829.392013 84.67019 
L 831.548435 123.432543 
L 833.704857 111.958921 
L 835.861279 97.219655 
L 838.017701 76.215816 
L 840.174123 87.366758 
" style="fill:none;stroke:#1f77b4;stroke-linecap:square;stroke-width:1.5;"/>
   </g>
   <g id="line2d_34">
    <path clip-path="url(#p851fcfce04)" d="M 626.688337 92.619754 
L 628.844759 82.788142 
L 631.001181 88.065062 
L 633.157603 73.994142 
L 635.314025 83.753627 
L 637.470448 115.340093 
L 639.62687 103.886875 
L 641.783292 65.733994 
L 643.939714 85.967555 
L 646.096136 101.124623 
L 648.252558 72.771182 
L 650.40898 67.189901 
L 652.565402 71.496264 
L 654.721824 100.627311 
L 656.878246 127.54592 
L 659.034668 104.476398 
L 661.19109 74.395857 
L 663.347513 125.638155 
L 665.503935 127.02769 
L 667.660357 138.610413 
L 669.816779 88.004253 
L 671.973201 107.849352 
L 674.129623 100.30615 
L 676.286045 64.811546 
L 678.442467 120.635014 
L 680.598889 73.088771 
L 682.755311 72.400745 
L 684.911733 98.374916 
L 687.068155 119.266563 
L 689.224578 103.389086 
L 691.381 76.742919 
L 693.537422 99.471885 
L 695.693844 77.122995 
L 697.850266 72.688116 
L 700.006688 115.525422 
L 702.16311 81.102721 
L 704.319532 96.351204 
L 706.475954 95.877406 
L 708.632376 90.095358 
L 710.788798 118.583785 
L 712.94522 112.127373 
L 715.101643 93.293315 
L 717.258065 62.706162 
L 719.414487 81.121714 
L 721.570909 79.751743 
L 723.727331 123.05779 
L 725.883753 166.770955 
L 728.040175 81.397818 
L 730.196597 73.09185 
L 732.353019 102.308775 
L 734.509441 86.878155 
L 736.665863 102.491882 
L 738.822285 92.033632 
L 740.978708 71.873466 
L 743.13513 92.425213 
L 745.291552 107.011073 
L 747.447974 83.307424 
L 749.604396 92.415453 
L 751.760818 71.174197 
L 753.91724 95.12237 
L 756.073662 102.24099 
L 758.230084 92.882204 
L 760.386506 70.896601 
L 762.542928 90.64592 
L 764.69935 98.60447 
L 766.855773 71.577029 
L 769.012195 79.353221 
L 771.168617 109.140209 
L 773.325039 78.86038 
L 775.481461 100.01143 
L 777.637883 69.08678 
L 779.794305 106.964003 
L 781.950727 100.806601 
L 784.107149 110.625595 
L 786.263571 109.250331 
L 788.419993 100.477945 
L 790.576415 131.319018 
L 792.732838 123.745318 
L 794.88926 118.153377 
L 797.045682 129.326782 
L 799.202104 95.948163 
L 801.358526 143.037419 
L 803.514948 84.552975 
L 805.67137 159.880765 
L 807.827792 102.929019 
L 809.984214 73.334494 
L 812.140636 131.82161 
L 814.297058 65.768932 
L 816.45348 52.653085 
L 818.609903 106.162082 
L 820.766325 121.71774 
L 822.922747 73.606024 
L 825.079169 95.986028 
L 827.235591 69.780547 
L 829.392013 141.934423 
L 831.548435 87.790474 
L 833.704857 105.383536 
L 835.861279 84.562359 
L 838.017701 125.795652 
L 840.174123 97.515874 
" style="fill:none;stroke:#ff7f0e;stroke-linecap:square;stroke-width:1.5;"/>
   </g>
   <g id="patch_34">
    <path d="M 616.014048 174.04 
L 616.014048 34.56 
" style="fill:none;stroke:#000000;stroke-linecap:square;stroke-linejoin:miter;stroke-width:0.8;"/>
   </g>
   <g id="patch_35">
    <path d="M 850.848413 174.04 
L 850.848413 34.56 
" style="fill:none;stroke:#000000;stroke-linecap:square;stroke-linejoin:miter;stroke-width:0.8;"/>
   </g>
   <g id="patch_36">
    <path d="M 616.014048 174.04 
L 850.848413 174.04 
" style="fill:none;stroke:#000000;stroke-linecap:square;stroke-linejoin:miter;stroke-width:0.8;"/>
   </g>
   <g id="patch_37">
    <path d="M 616.014048 34.56 
L 850.848413 34.56 
" style="fill:none;stroke:#000000;stroke-linecap:square;stroke-linejoin:miter;stroke-width:0.8;"/>
   </g>
   <g id="legend_2">
    <g id="patch_38">
     <path d="M 623.014048 169.04 
L 705.181235 169.04 
Q 707.181235 169.04 707.181235 167.04 
L 707.181235 138.68375 
Q 707.181235 136.68375 705.181235 136.68375 
L 623.014048 136.68375 
Q 621.014048 136.68375 621.014048 138.68375 
L 621.014048 167.04 
Q 621.014048 169.04 623.014048 169.04 
z
" style="fill:#ffffff;opacity:0.8;stroke:#cccccc;stroke-linejoin:miter;"/>
    </g>
    <g id="line2d_35">
     <path d="M 625.014048 144.782188 
L 645.014048 144.782188 
" style="fill:none;stroke:#1f77b4;stroke-linecap:square;stroke-width:1.5;"/>
    </g>
    <g id="line2d_36"/>
    <g id="text_31">
     <!-- truth -->
     <g transform="translate(653.014048 148.282188)scale(0.1 -0.1)">
      <use xlink:href="#DejaVuSans-74"/>
      <use x="39.208984" xlink:href="#DejaVuSans-72"/>
      <use x="80.322266" xlink:href="#DejaVuSans-75"/>
      <use x="143.701172" xlink:href="#DejaVuSans-74"/>
      <use x="182.910156" xlink:href="#DejaVuSans-68"/>
     </g>
    </g>
    <g id="line2d_37">
     <path d="M 625.014048 159.460313 
L 645.014048 159.460313 
" style="fill:none;stroke:#ff7f0e;stroke-linecap:square;stroke-width:1.5;"/>
    </g>
    <g id="line2d_38"/>
    <g id="text_32">
     <!-- prediction -->
     <g transform="translate(653.014048 162.960313)scale(0.1 -0.1)">
      <use xlink:href="#DejaVuSans-70"/>
      <use x="63.476562" xlink:href="#DejaVuSans-72"/>
      <use x="102.339844" xlink:href="#DejaVuSans-65"/>
      <use x="163.863281" xlink:href="#DejaVuSans-64"/>
      <use x="227.339844" xlink:href="#DejaVuSans-69"/>
      <use x="255.123047" xlink:href="#DejaVuSans-63"/>
      <use x="310.103516" xlink:href="#DejaVuSans-74"/>
      <use x="349.3125" xlink:href="#DejaVuSans-69"/>
      <use x="377.095703" xlink:href="#DejaVuSans-6f"/>
      <use x="438.277344" xlink:href="#DejaVuSans-6e"/>
     </g>
    </g>
   </g>
  </g>
  <g id="text_33">
   <!-- Multiple plots in one figure -->
   <g transform="translate(351.865313 13.438125)scale(0.12 -0.12)">
    <defs>
     <path d="M 628 4666 
L 1569 4666 
L 2759 1491 
L 3956 4666 
L 4897 4666 
L 4897 0 
L 4281 0 
L 4281 4097 
L 3078 897 
L 2444 897 
L 1241 4097 
L 1241 0 
L 628 0 
L 628 4666 
z
" id="DejaVuSans-4d" transform="scale(0.015625)"/>
     <path d="M 603 4863 
L 1178 4863 
L 1178 0 
L 603 0 
L 603 4863 
z
" id="DejaVuSans-6c" transform="scale(0.015625)"/>
     <path id="DejaVuSans-20" transform="scale(0.015625)"/>
     <path d="M 2375 4863 
L 2375 4384 
L 1825 4384 
Q 1516 4384 1395 4259 
Q 1275 4134 1275 3809 
L 1275 3500 
L 2222 3500 
L 2222 3053 
L 1275 3053 
L 1275 0 
L 697 0 
L 697 3053 
L 147 3053 
L 147 3500 
L 697 3500 
L 697 3744 
Q 697 4328 969 4595 
Q 1241 4863 1831 4863 
L 2375 4863 
z
" id="DejaVuSans-66" transform="scale(0.015625)"/>
     <path d="M 2906 1791 
Q 2906 2416 2648 2759 
Q 2391 3103 1925 3103 
Q 1463 3103 1205 2759 
Q 947 2416 947 1791 
Q 947 1169 1205 825 
Q 1463 481 1925 481 
Q 2391 481 2648 825 
Q 2906 1169 2906 1791 
z
M 3481 434 
Q 3481 -459 3084 -895 
Q 2688 -1331 1869 -1331 
Q 1566 -1331 1297 -1286 
Q 1028 -1241 775 -1147 
L 775 -588 
Q 1028 -725 1275 -790 
Q 1522 -856 1778 -856 
Q 2344 -856 2625 -561 
Q 2906 -266 2906 331 
L 2906 616 
Q 2728 306 2450 153 
Q 2172 0 1784 0 
Q 1141 0 747 490 
Q 353 981 353 1791 
Q 353 2603 747 3093 
Q 1141 3584 1784 3584 
Q 2172 3584 2450 3431 
Q 2728 3278 2906 2969 
L 2906 3500 
L 3481 3500 
L 3481 434 
z
" id="DejaVuSans-67" transform="scale(0.015625)"/>
    </defs>
    <use xlink:href="#DejaVuSans-4d"/>
    <use x="86.279297" xlink:href="#DejaVuSans-75"/>
    <use x="149.658203" xlink:href="#DejaVuSans-6c"/>
    <use x="177.441406" xlink:href="#DejaVuSans-74"/>
    <use x="216.650391" xlink:href="#DejaVuSans-69"/>
    <use x="244.433594" xlink:href="#DejaVuSans-70"/>
    <use x="307.910156" xlink:href="#DejaVuSans-6c"/>
    <use x="335.693359" xlink:href="#DejaVuSans-65"/>
    <use x="397.216797" xlink:href="#DejaVuSans-20"/>
    <use x="429.003906" xlink:href="#DejaVuSans-70"/>
    <use x="492.480469" xlink:href="#DejaVuSans-6c"/>
    <use x="520.263672" xlink:href="#DejaVuSans-6f"/>
    <use x="581.445312" xlink:href="#DejaVuSans-74"/>
    <use x="620.654297" xlink:href="#DejaVuSans-73"/>
    <use x="672.753906" xlink:href="#DejaVuSans-20"/>
    <use x="704.541016" xlink:href="#DejaVuSans-69"/>
    <use x="732.324219" xlink:href="#DejaVuSans-6e"/>
    <use x="795.703125" xlink:href="#DejaVuSans-20"/>
    <use x="827.490234" xlink:href="#DejaVuSans-6f"/>
    <use x="888.671875" xlink:href="#DejaVuSans-6e"/>
    <use x="952.050781" xlink:href="#DejaVuSans-65"/>
    <use x="1013.574219" xlink:href="#DejaVuSans-20"/>
    <use x="1045.361328" xlink:href="#DejaVuSans-66"/>
    <use x="1080.566406" xlink:href="#DejaVuSans-69"/>
    <use x="1108.349609" xlink:href="#DejaVuSans-67"/>
    <use x="1171.826172" xlink:href="#DejaVuSans-75"/>
    <use x="1235.205078" xlink:href="#DejaVuSans-72"/>
    <use x="1274.068359" xlink:href="#DejaVuSans-65"/>
   </g>
  </g>
 </g>
 <defs>
  <clipPath id="p290d92458d">
   <rect height="139.48" width="234.834365" x="47.72" y="34.56"/>
  </clipPath>
  <clipPath id="p98a755c2fa">
   <rect height="139.48" width="234.834365" x="331.867024" y="34.56"/>
  </clipPath>
  <clipPath id="p851fcfce04">
   <rect height="139.48" width="234.834365" x="616.014048" y="34.56"/>
  </clipPath>
 </defs>
</svg>
