<?xml version="1.0" encoding="utf-8" standalone="no"?>
<!DOCTYPE svg PUBLIC "-//W3C//DTD SVG 1.1//EN"
  "http://www.w3.org/Graphics/SVG/1.1/DTD/svg11.dtd">
<svg xmlns:xlink="http://www.w3.org/1999/xlink" width="360pt" height="273.6pt" viewBox="0 0 360 273.6" xmlns="http://www.w3.org/2000/svg" version="1.1">
 <metadata>
  <rdf:RDF xmlns:dc="http://purl.org/dc/elements/1.1/" xmlns:cc="http://creativecommons.org/ns#" xmlns:rdf="http://www.w3.org/1999/02/22-rdf-syntax-ns#">
   <cc:Work>
    <dc:type rdf:resource="http://purl.org/dc/dcmitype/StillImage"/>
    <dc:date>2021-12-10T13:45:04.820954</dc:date>
    <dc:format>image/svg+xml</dc:format>
    <dc:creator>
     <cc:Agent>
      <dc:title>Matplotlib v3.5.0, https://matplotlib.org/</dc:title>
     </cc:Agent>
    </dc:creator>
   </cc:Work>
  </rdf:RDF>
 </metadata>
 <defs>
  <style type="text/css">*{stroke-linejoin: round; stroke-linecap: butt}</style>
 </defs>
 <g id="figure_1">
  <g id="patch_1">
   <path d="M 0 273.6 
L 360 273.6 
L 360 0 
L 0 0 
z
" style="fill: #ffffff"/>
  </g>
  <g id="axes_1">
   <g id="patch_2">
    <path d="M 45 243.504 
L 324 243.504 
L 324 32.832 
L 45 32.832 
z
" style="fill: #ffffff"/>
   </g>
   <g id="patch_3">
    <path d="M 139.15763 243.504 
L 143.445684 243.504 
L 143.445684 238.445849 
L 139.15763 238.445849 
z
" clip-path="url(#pac0f4c91c2)" style="fill: #ff7f0e; fill-opacity: 0.5"/>
   </g>
   <g id="patch_4">
    <path d="M 143.445684 243.504 
L 147.733738 243.504 
L 147.733738 240.131899 
L 143.445684 240.131899 
z
" clip-path="url(#pac0f4c91c2)" style="fill: #ff7f0e; fill-opacity: 0.5"/>
   </g>
   <g id="patch_5">
    <path d="M 147.733738 243.504 
L 152.021792 243.504 
L 152.021792 241.81795 
L 147.733738 241.81795 
z
" clip-path="url(#pac0f4c91c2)" style="fill: #ff7f0e; fill-opacity: 0.5"/>
   </g>
   <g id="patch_6">
    <path d="M 152.021792 243.504 
L 156.309846 243.504 
L 156.309846 231.701647 
L 152.021792 231.701647 
z
" clip-path="url(#pac0f4c91c2)" style="fill: #ff7f0e; fill-opacity: 0.5"/>
   </g>
   <g id="patch_7">
    <path d="M 156.309846 243.504 
L 160.5979 243.504 
L 160.5979 216.527193 
L 156.309846 216.527193 
z
" clip-path="url(#pac0f4c91c2)" style="fill: #ff7f0e; fill-opacity: 0.5"/>
   </g>
   <g id="patch_8">
    <path d="M 160.5979 243.504 
L 164.885954 243.504 
L 164.885954 191.236437 
L 160.5979 191.236437 
z
" clip-path="url(#pac0f4c91c2)" style="fill: #ff7f0e; fill-opacity: 0.5"/>
   </g>
   <g id="patch_9">
    <path d="M 164.885954 243.504 
L 169.174008 243.504 
L 169.174008 181.120134 
L 164.885954 181.120134 
z
" clip-path="url(#pac0f4c91c2)" style="fill: #ff7f0e; fill-opacity: 0.5"/>
   </g>
   <g id="patch_10">
    <path d="M 169.174008 243.504 
L 173.462062 243.504 
L 173.462062 169.317782 
L 169.174008 169.317782 
z
" clip-path="url(#pac0f4c91c2)" style="fill: #ff7f0e; fill-opacity: 0.5"/>
   </g>
   <g id="patch_11">
    <path d="M 173.462062 243.504 
L 177.750116 243.504 
L 177.750116 111.992067 
L 173.462062 111.992067 
z
" clip-path="url(#pac0f4c91c2)" style="fill: #ff7f0e; fill-opacity: 0.5"/>
   </g>
   <g id="patch_12">
    <path d="M 177.750116 243.504 
L 182.038171 243.504 
L 182.038171 125.480471 
L 177.750116 125.480471 
z
" clip-path="url(#pac0f4c91c2)" style="fill: #ff7f0e; fill-opacity: 0.5"/>
   </g>
   <g id="patch_13">
    <path d="M 182.038171 243.504 
L 186.326225 243.504 
L 186.326225 90.073412 
L 182.038171 90.073412 
z
" clip-path="url(#pac0f4c91c2)" style="fill: #ff7f0e; fill-opacity: 0.5"/>
   </g>
   <g id="patch_14">
    <path d="M 186.326225 243.504 
L 190.614279 243.504 
L 190.614279 90.073412 
L 186.326225 90.073412 
z
" clip-path="url(#pac0f4c91c2)" style="fill: #ff7f0e; fill-opacity: 0.5"/>
   </g>
   <g id="patch_15">
    <path d="M 190.614279 243.504 
L 194.902333 243.504 
L 194.902333 42.864 
L 190.614279 42.864 
z
" clip-path="url(#pac0f4c91c2)" style="fill: #ff7f0e; fill-opacity: 0.5"/>
   </g>
   <g id="patch_16">
    <path d="M 194.902333 243.504 
L 199.190387 243.504 
L 199.190387 90.073412 
L 194.902333 90.073412 
z
" clip-path="url(#pac0f4c91c2)" style="fill: #ff7f0e; fill-opacity: 0.5"/>
   </g>
   <g id="patch_17">
    <path d="M 199.190387 243.504 
L 203.478441 243.504 
L 203.478441 96.817613 
L 199.190387 96.817613 
z
" clip-path="url(#pac0f4c91c2)" style="fill: #ff7f0e; fill-opacity: 0.5"/>
   </g>
   <g id="patch_18">
    <path d="M 203.478441 243.504 
L 207.766495 243.504 
L 207.766495 128.852571 
L 203.478441 128.852571 
z
" clip-path="url(#pac0f4c91c2)" style="fill: #ff7f0e; fill-opacity: 0.5"/>
   </g>
   <g id="patch_19">
    <path d="M 207.766495 243.504 
L 212.054549 243.504 
L 212.054549 164.25963 
L 207.766495 164.25963 
z
" clip-path="url(#pac0f4c91c2)" style="fill: #ff7f0e; fill-opacity: 0.5"/>
   </g>
   <g id="patch_20">
    <path d="M 212.054549 243.504 
L 216.342603 243.504 
L 216.342603 171.003832 
L 212.054549 171.003832 
z
" clip-path="url(#pac0f4c91c2)" style="fill: #ff7f0e; fill-opacity: 0.5"/>
   </g>
   <g id="patch_21">
    <path d="M 216.342603 243.504 
L 220.630657 243.504 
L 220.630657 194.608538 
L 216.342603 194.608538 
z
" clip-path="url(#pac0f4c91c2)" style="fill: #ff7f0e; fill-opacity: 0.5"/>
   </g>
   <g id="patch_22">
    <path d="M 220.630657 243.504 
L 224.918711 243.504 
L 224.918711 208.096941 
L 220.630657 208.096941 
z
" clip-path="url(#pac0f4c91c2)" style="fill: #ff7f0e; fill-opacity: 0.5"/>
   </g>
   <g id="patch_23">
    <path d="M 224.918711 243.504 
L 229.206765 243.504 
L 229.206765 228.329546 
L 224.918711 228.329546 
z
" clip-path="url(#pac0f4c91c2)" style="fill: #ff7f0e; fill-opacity: 0.5"/>
   </g>
   <g id="patch_24">
    <path d="M 229.206765 243.504 
L 233.49482 243.504 
L 233.49482 231.701647 
L 229.206765 231.701647 
z
" clip-path="url(#pac0f4c91c2)" style="fill: #ff7f0e; fill-opacity: 0.5"/>
   </g>
   <g id="patch_25">
    <path d="M 233.49482 243.504 
L 237.782874 243.504 
L 237.782874 233.387697 
L 233.49482 233.387697 
z
" clip-path="url(#pac0f4c91c2)" style="fill: #ff7f0e; fill-opacity: 0.5"/>
   </g>
   <g id="patch_26">
    <path d="M 237.782874 243.504 
L 242.070928 243.504 
L 242.070928 241.81795 
L 237.782874 241.81795 
z
" clip-path="url(#pac0f4c91c2)" style="fill: #ff7f0e; fill-opacity: 0.5"/>
   </g>
   <g id="patch_27">
    <path d="M 242.070928 243.504 
L 246.358982 243.504 
L 246.358982 241.81795 
L 242.070928 241.81795 
z
" clip-path="url(#pac0f4c91c2)" style="fill: #ff7f0e; fill-opacity: 0.5"/>
   </g>
   <g id="patch_28">
    <path d="M 83.55954 243.504 
L 92.336971 243.504 
L 92.336971 241.856622 
L 83.55954 241.856622 
z
" clip-path="url(#pac0f4c91c2)" style="fill: #1f77b4; fill-opacity: 0.5"/>
   </g>
   <g id="patch_29">
    <path d="M 92.336971 243.504 
L 101.114402 243.504 
L 101.114402 237.738176 
L 92.336971 237.738176 
z
" clip-path="url(#pac0f4c91c2)" style="fill: #1f77b4; fill-opacity: 0.5"/>
   </g>
   <g id="patch_30">
    <path d="M 101.114402 243.504 
L 109.891834 243.504 
L 109.891834 241.032932 
L 101.114402 241.032932 
z
" clip-path="url(#pac0f4c91c2)" style="fill: #1f77b4; fill-opacity: 0.5"/>
   </g>
   <g id="patch_31">
    <path d="M 109.891834 243.504 
L 118.669265 243.504 
L 118.669265 236.090797 
L 109.891834 236.090797 
z
" clip-path="url(#pac0f4c91c2)" style="fill: #1f77b4; fill-opacity: 0.5"/>
   </g>
   <g id="patch_32">
    <path d="M 118.669265 243.504 
L 127.446696 243.504 
L 127.446696 231.972351 
L 118.669265 231.972351 
z
" clip-path="url(#pac0f4c91c2)" style="fill: #1f77b4; fill-opacity: 0.5"/>
   </g>
   <g id="patch_33">
    <path d="M 127.446696 243.504 
L 136.224128 243.504 
L 136.224128 216.322256 
L 127.446696 216.322256 
z
" clip-path="url(#pac0f4c91c2)" style="fill: #1f77b4; fill-opacity: 0.5"/>
   </g>
   <g id="patch_34">
    <path d="M 136.224128 243.504 
L 145.001559 243.504 
L 145.001559 213.851189 
L 136.224128 213.851189 
z
" clip-path="url(#pac0f4c91c2)" style="fill: #1f77b4; fill-opacity: 0.5"/>
   </g>
   <g id="patch_35">
    <path d="M 145.001559 243.504 
L 153.77899 243.504 
L 153.77899 201.495851 
L 145.001559 201.495851 
z
" clip-path="url(#pac0f4c91c2)" style="fill: #1f77b4; fill-opacity: 0.5"/>
   </g>
   <g id="patch_36">
    <path d="M 153.77899 243.504 
L 162.556422 243.504 
L 162.556422 182.550999 
L 153.77899 182.550999 
z
" clip-path="url(#pac0f4c91c2)" style="fill: #1f77b4; fill-opacity: 0.5"/>
   </g>
   <g id="patch_37">
    <path d="M 162.556422 243.504 
L 171.333853 243.504 
L 171.333853 178.432553 
L 162.556422 178.432553 
z
" clip-path="url(#pac0f4c91c2)" style="fill: #1f77b4; fill-opacity: 0.5"/>
   </g>
   <g id="patch_38">
    <path d="M 171.333853 243.504 
L 180.111284 243.504 
L 180.111284 154.545566 
L 171.333853 154.545566 
z
" clip-path="url(#pac0f4c91c2)" style="fill: #1f77b4; fill-opacity: 0.5"/>
   </g>
   <g id="patch_39">
    <path d="M 180.111284 243.504 
L 188.888716 243.504 
L 188.888716 158.664012 
L 180.111284 158.664012 
z
" clip-path="url(#pac0f4c91c2)" style="fill: #1f77b4; fill-opacity: 0.5"/>
   </g>
   <g id="patch_40">
    <path d="M 188.888716 243.504 
L 197.666147 243.504 
L 197.666147 165.253526 
L 188.888716 165.253526 
z
" clip-path="url(#pac0f4c91c2)" style="fill: #1f77b4; fill-opacity: 0.5"/>
   </g>
   <g id="patch_41">
    <path d="M 197.666147 243.504 
L 206.443578 243.504 
L 206.443578 154.545566 
L 197.666147 154.545566 
z
" clip-path="url(#pac0f4c91c2)" style="fill: #1f77b4; fill-opacity: 0.5"/>
   </g>
   <g id="patch_42">
    <path d="M 206.443578 243.504 
L 215.22101 243.504 
L 215.22101 191.61158 
L 206.443578 191.61158 
z
" clip-path="url(#pac0f4c91c2)" style="fill: #1f77b4; fill-opacity: 0.5"/>
   </g>
   <g id="patch_43">
    <path d="M 215.22101 243.504 
L 223.998441 243.504 
L 223.998441 184.198378 
L 215.22101 184.198378 
z
" clip-path="url(#pac0f4c91c2)" style="fill: #1f77b4; fill-opacity: 0.5"/>
   </g>
   <g id="patch_44">
    <path d="M 223.998441 243.504 
L 232.775872 243.504 
L 232.775872 207.261675 
L 223.998441 207.261675 
z
" clip-path="url(#pac0f4c91c2)" style="fill: #1f77b4; fill-opacity: 0.5"/>
   </g>
   <g id="patch_45">
    <path d="M 232.775872 243.504 
L 241.553304 243.504 
L 241.553304 213.0275 
L 232.775872 213.0275 
z
" clip-path="url(#pac0f4c91c2)" style="fill: #1f77b4; fill-opacity: 0.5"/>
   </g>
   <g id="patch_46">
    <path d="M 241.553304 243.504 
L 250.330735 243.504 
L 250.330735 225.382838 
L 241.553304 225.382838 
z
" clip-path="url(#pac0f4c91c2)" style="fill: #1f77b4; fill-opacity: 0.5"/>
   </g>
   <g id="patch_47">
    <path d="M 250.330735 243.504 
L 259.108166 243.504 
L 259.108166 229.501284 
L 250.330735 229.501284 
z
" clip-path="url(#pac0f4c91c2)" style="fill: #1f77b4; fill-opacity: 0.5"/>
   </g>
   <g id="patch_48">
    <path d="M 259.108166 243.504 
L 267.885598 243.504 
L 267.885598 235.267108 
L 259.108166 235.267108 
z
" clip-path="url(#pac0f4c91c2)" style="fill: #1f77b4; fill-opacity: 0.5"/>
   </g>
   <g id="patch_49">
    <path d="M 267.885598 243.504 
L 276.663029 243.504 
L 276.663029 235.267108 
L 267.885598 235.267108 
z
" clip-path="url(#pac0f4c91c2)" style="fill: #1f77b4; fill-opacity: 0.5"/>
   </g>
   <g id="patch_50">
    <path d="M 276.663029 243.504 
L 285.44046 243.504 
L 285.44046 241.032932 
L 276.663029 241.032932 
z
" clip-path="url(#pac0f4c91c2)" style="fill: #1f77b4; fill-opacity: 0.5"/>
   </g>
   <g id="matplotlib.axis_1">
    <g id="xtick_1">
     <g id="line2d_1">
      <path d="M 50.390032 243.504 
L 50.390032 32.832 
" clip-path="url(#pac0f4c91c2)" style="fill: none; stroke: #b0b0b0; stroke-opacity: 0.4; stroke-width: 0.8; stroke-linecap: square"/>
     </g>
     <g id="line2d_2">
      <defs>
       <path id="m76326e0caa" d="M 0 0 
L 0 3.5 
" style="stroke: #000000; stroke-width: 0.8"/>
      </defs>
      <g>
       <use xlink:href="#m76326e0caa" x="50.390032" y="243.504" style="stroke: #000000; stroke-width: 0.8"/>
      </g>
     </g>
     <g id="text_1">
      <!-- −4 -->
      <g transform="translate(43.018938 258.102437)scale(0.1 -0.1)">
       <defs>
        <path id="DejaVuSans-2212" d="M 678 2272 
L 4684 2272 
L 4684 1741 
L 678 1741 
L 678 2272 
z
" transform="scale(0.015625)"/>
        <path id="DejaVuSans-34" d="M 2419 4116 
L 825 1625 
L 2419 1625 
L 2419 4116 
z
M 2253 4666 
L 3047 4666 
L 3047 1625 
L 3713 1625 
L 3713 1100 
L 3047 1100 
L 3047 0 
L 2419 0 
L 2419 1100 
L 313 1100 
L 313 1709 
L 2253 4666 
z
" transform="scale(0.015625)"/>
       </defs>
       <use xlink:href="#DejaVuSans-2212"/>
       <use xlink:href="#DejaVuSans-34" x="83.789062"/>
      </g>
     </g>
    </g>
    <g id="xtick_2">
     <g id="line2d_3">
      <path d="M 85.164123 243.504 
L 85.164123 32.832 
" clip-path="url(#pac0f4c91c2)" style="fill: none; stroke: #b0b0b0; stroke-opacity: 0.4; stroke-width: 0.8; stroke-linecap: square"/>
     </g>
     <g id="line2d_4">
      <g>
       <use xlink:href="#m76326e0caa" x="85.164123" y="243.504" style="stroke: #000000; stroke-width: 0.8"/>
      </g>
     </g>
     <g id="text_2">
      <!-- −3 -->
      <g transform="translate(77.793029 258.102437)scale(0.1 -0.1)">
       <defs>
        <path id="DejaVuSans-33" d="M 2597 2516 
Q 3050 2419 3304 2112 
Q 3559 1806 3559 1356 
Q 3559 666 3084 287 
Q 2609 -91 1734 -91 
Q 1441 -91 1130 -33 
Q 819 25 488 141 
L 488 750 
Q 750 597 1062 519 
Q 1375 441 1716 441 
Q 2309 441 2620 675 
Q 2931 909 2931 1356 
Q 2931 1769 2642 2001 
Q 2353 2234 1838 2234 
L 1294 2234 
L 1294 2753 
L 1863 2753 
Q 2328 2753 2575 2939 
Q 2822 3125 2822 3475 
Q 2822 3834 2567 4026 
Q 2313 4219 1838 4219 
Q 1578 4219 1281 4162 
Q 984 4106 628 3988 
L 628 4550 
Q 988 4650 1302 4700 
Q 1616 4750 1894 4750 
Q 2613 4750 3031 4423 
Q 3450 4097 3450 3541 
Q 3450 3153 3228 2886 
Q 3006 2619 2597 2516 
z
" transform="scale(0.015625)"/>
       </defs>
       <use xlink:href="#DejaVuSans-2212"/>
       <use xlink:href="#DejaVuSans-33" x="83.789062"/>
      </g>
     </g>
    </g>
    <g id="xtick_3">
     <g id="line2d_5">
      <path d="M 119.938213 243.504 
L 119.938213 32.832 
" clip-path="url(#pac0f4c91c2)" style="fill: none; stroke: #b0b0b0; stroke-opacity: 0.4; stroke-width: 0.8; stroke-linecap: square"/>
     </g>
     <g id="line2d_6">
      <g>
       <use xlink:href="#m76326e0caa" x="119.938213" y="243.504" style="stroke: #000000; stroke-width: 0.8"/>
      </g>
     </g>
     <g id="text_3">
      <!-- −2 -->
      <g transform="translate(112.56712 258.102437)scale(0.1 -0.1)">
       <defs>
        <path id="DejaVuSans-32" d="M 1228 531 
L 3431 531 
L 3431 0 
L 469 0 
L 469 531 
Q 828 903 1448 1529 
Q 2069 2156 2228 2338 
Q 2531 2678 2651 2914 
Q 2772 3150 2772 3378 
Q 2772 3750 2511 3984 
Q 2250 4219 1831 4219 
Q 1534 4219 1204 4116 
Q 875 4013 500 3803 
L 500 4441 
Q 881 4594 1212 4672 
Q 1544 4750 1819 4750 
Q 2544 4750 2975 4387 
Q 3406 4025 3406 3419 
Q 3406 3131 3298 2873 
Q 3191 2616 2906 2266 
Q 2828 2175 2409 1742 
Q 1991 1309 1228 531 
z
" transform="scale(0.015625)"/>
       </defs>
       <use xlink:href="#DejaVuSans-2212"/>
       <use xlink:href="#DejaVuSans-32" x="83.789062"/>
      </g>
     </g>
    </g>
    <g id="xtick_4">
     <g id="line2d_7">
      <path d="M 154.712304 243.504 
L 154.712304 32.832 
" clip-path="url(#pac0f4c91c2)" style="fill: none; stroke: #b0b0b0; stroke-opacity: 0.4; stroke-width: 0.8; stroke-linecap: square"/>
     </g>
     <g id="line2d_8">
      <g>
       <use xlink:href="#m76326e0caa" x="154.712304" y="243.504" style="stroke: #000000; stroke-width: 0.8"/>
      </g>
     </g>
     <g id="text_4">
      <!-- −1 -->
      <g transform="translate(147.34121 258.102437)scale(0.1 -0.1)">
       <defs>
        <path id="DejaVuSans-31" d="M 794 531 
L 1825 531 
L 1825 4091 
L 703 3866 
L 703 4441 
L 1819 4666 
L 2450 4666 
L 2450 531 
L 3481 531 
L 3481 0 
L 794 0 
L 794 531 
z
" transform="scale(0.015625)"/>
       </defs>
       <use xlink:href="#DejaVuSans-2212"/>
       <use xlink:href="#DejaVuSans-31" x="83.789062"/>
      </g>
     </g>
    </g>
    <g id="xtick_5">
     <g id="line2d_9">
      <path d="M 189.486395 243.504 
L 189.486395 32.832 
" clip-path="url(#pac0f4c91c2)" style="fill: none; stroke: #b0b0b0; stroke-opacity: 0.4; stroke-width: 0.8; stroke-linecap: square"/>
     </g>
     <g id="line2d_10">
      <g>
       <use xlink:href="#m76326e0caa" x="189.486395" y="243.504" style="stroke: #000000; stroke-width: 0.8"/>
      </g>
     </g>
     <g id="text_5">
      <!-- 0 -->
      <g transform="translate(186.305145 258.102437)scale(0.1 -0.1)">
       <defs>
        <path id="DejaVuSans-30" d="M 2034 4250 
Q 1547 4250 1301 3770 
Q 1056 3291 1056 2328 
Q 1056 1369 1301 889 
Q 1547 409 2034 409 
Q 2525 409 2770 889 
Q 3016 1369 3016 2328 
Q 3016 3291 2770 3770 
Q 2525 4250 2034 4250 
z
M 2034 4750 
Q 2819 4750 3233 4129 
Q 3647 3509 3647 2328 
Q 3647 1150 3233 529 
Q 2819 -91 2034 -91 
Q 1250 -91 836 529 
Q 422 1150 422 2328 
Q 422 3509 836 4129 
Q 1250 4750 2034 4750 
z
" transform="scale(0.015625)"/>
       </defs>
       <use xlink:href="#DejaVuSans-30"/>
      </g>
     </g>
    </g>
    <g id="xtick_6">
     <g id="line2d_11">
      <path d="M 224.260486 243.504 
L 224.260486 32.832 
" clip-path="url(#pac0f4c91c2)" style="fill: none; stroke: #b0b0b0; stroke-opacity: 0.4; stroke-width: 0.8; stroke-linecap: square"/>
     </g>
     <g id="line2d_12">
      <g>
       <use xlink:href="#m76326e0caa" x="224.260486" y="243.504" style="stroke: #000000; stroke-width: 0.8"/>
      </g>
     </g>
     <g id="text_6">
      <!-- 1 -->
      <g transform="translate(221.079236 258.102437)scale(0.1 -0.1)">
       <use xlink:href="#DejaVuSans-31"/>
      </g>
     </g>
    </g>
    <g id="xtick_7">
     <g id="line2d_13">
      <path d="M 259.034577 243.504 
L 259.034577 32.832 
" clip-path="url(#pac0f4c91c2)" style="fill: none; stroke: #b0b0b0; stroke-opacity: 0.4; stroke-width: 0.8; stroke-linecap: square"/>
     </g>
     <g id="line2d_14">
      <g>
       <use xlink:href="#m76326e0caa" x="259.034577" y="243.504" style="stroke: #000000; stroke-width: 0.8"/>
      </g>
     </g>
     <g id="text_7">
      <!-- 2 -->
      <g transform="translate(255.853327 258.102437)scale(0.1 -0.1)">
       <use xlink:href="#DejaVuSans-32"/>
      </g>
     </g>
    </g>
    <g id="xtick_8">
     <g id="line2d_15">
      <path d="M 293.808667 243.504 
L 293.808667 32.832 
" clip-path="url(#pac0f4c91c2)" style="fill: none; stroke: #b0b0b0; stroke-opacity: 0.4; stroke-width: 0.8; stroke-linecap: square"/>
     </g>
     <g id="line2d_16">
      <g>
       <use xlink:href="#m76326e0caa" x="293.808667" y="243.504" style="stroke: #000000; stroke-width: 0.8"/>
      </g>
     </g>
     <g id="text_8">
      <!-- 3 -->
      <g transform="translate(290.627417 258.102437)scale(0.1 -0.1)">
       <use xlink:href="#DejaVuSans-33"/>
      </g>
     </g>
    </g>
   </g>
   <g id="matplotlib.axis_2">
    <g id="ytick_1">
     <g id="line2d_17">
      <path d="M 45 243.504 
L 324 243.504 
" clip-path="url(#pac0f4c91c2)" style="fill: none; stroke: #b0b0b0; stroke-opacity: 0.4; stroke-width: 0.8; stroke-linecap: square"/>
     </g>
     <g id="line2d_18">
      <defs>
       <path id="m82f1954cc9" d="M 0 0 
L -3.5 0 
" style="stroke: #000000; stroke-width: 0.8"/>
      </defs>
      <g>
       <use xlink:href="#m82f1954cc9" x="45" y="243.504" style="stroke: #000000; stroke-width: 0.8"/>
      </g>
     </g>
     <g id="text_9">
      <!-- 0 -->
      <g transform="translate(31.6375 247.303219)scale(0.1 -0.1)">
       <use xlink:href="#DejaVuSans-30"/>
      </g>
     </g>
    </g>
    <g id="ytick_2">
     <g id="line2d_19">
      <path d="M 45 218.55482 
L 324 218.55482 
" clip-path="url(#pac0f4c91c2)" style="fill: none; stroke: #b0b0b0; stroke-opacity: 0.4; stroke-width: 0.8; stroke-linecap: square"/>
     </g>
     <g id="line2d_20">
      <g>
       <use xlink:href="#m82f1954cc9" x="45" y="218.55482" style="stroke: #000000; stroke-width: 0.8"/>
      </g>
     </g>
     <g id="text_10">
      <!-- 60 -->
      <g transform="translate(25.275 222.354039)scale(0.1 -0.1)">
       <defs>
        <path id="DejaVuSans-36" d="M 2113 2584 
Q 1688 2584 1439 2293 
Q 1191 2003 1191 1497 
Q 1191 994 1439 701 
Q 1688 409 2113 409 
Q 2538 409 2786 701 
Q 3034 994 3034 1497 
Q 3034 2003 2786 2293 
Q 2538 2584 2113 2584 
z
M 3366 4563 
L 3366 3988 
Q 3128 4100 2886 4159 
Q 2644 4219 2406 4219 
Q 1781 4219 1451 3797 
Q 1122 3375 1075 2522 
Q 1259 2794 1537 2939 
Q 1816 3084 2150 3084 
Q 2853 3084 3261 2657 
Q 3669 2231 3669 1497 
Q 3669 778 3244 343 
Q 2819 -91 2113 -91 
Q 1303 -91 875 529 
Q 447 1150 447 2328 
Q 447 3434 972 4092 
Q 1497 4750 2381 4750 
Q 2619 4750 2861 4703 
Q 3103 4656 3366 4563 
z
" transform="scale(0.015625)"/>
       </defs>
       <use xlink:href="#DejaVuSans-36"/>
       <use xlink:href="#DejaVuSans-30" x="63.623047"/>
      </g>
     </g>
    </g>
    <g id="ytick_3">
     <g id="line2d_21">
      <path d="M 45 193.60564 
L 324 193.60564 
" clip-path="url(#pac0f4c91c2)" style="fill: none; stroke: #b0b0b0; stroke-opacity: 0.4; stroke-width: 0.8; stroke-linecap: square"/>
     </g>
     <g id="line2d_22">
      <g>
       <use xlink:href="#m82f1954cc9" x="45" y="193.60564" style="stroke: #000000; stroke-width: 0.8"/>
      </g>
     </g>
     <g id="text_11">
      <!-- 120 -->
      <g transform="translate(18.9125 197.404859)scale(0.1 -0.1)">
       <use xlink:href="#DejaVuSans-31"/>
       <use xlink:href="#DejaVuSans-32" x="63.623047"/>
       <use xlink:href="#DejaVuSans-30" x="127.246094"/>
      </g>
     </g>
    </g>
    <g id="ytick_4">
     <g id="line2d_23">
      <path d="M 45 168.65646 
L 324 168.65646 
" clip-path="url(#pac0f4c91c2)" style="fill: none; stroke: #b0b0b0; stroke-opacity: 0.4; stroke-width: 0.8; stroke-linecap: square"/>
     </g>
     <g id="line2d_24">
      <g>
       <use xlink:href="#m82f1954cc9" x="45" y="168.65646" style="stroke: #000000; stroke-width: 0.8"/>
      </g>
     </g>
     <g id="text_12">
      <!-- 180 -->
      <g transform="translate(18.9125 172.455679)scale(0.1 -0.1)">
       <defs>
        <path id="DejaVuSans-38" d="M 2034 2216 
Q 1584 2216 1326 1975 
Q 1069 1734 1069 1313 
Q 1069 891 1326 650 
Q 1584 409 2034 409 
Q 2484 409 2743 651 
Q 3003 894 3003 1313 
Q 3003 1734 2745 1975 
Q 2488 2216 2034 2216 
z
M 1403 2484 
Q 997 2584 770 2862 
Q 544 3141 544 3541 
Q 544 4100 942 4425 
Q 1341 4750 2034 4750 
Q 2731 4750 3128 4425 
Q 3525 4100 3525 3541 
Q 3525 3141 3298 2862 
Q 3072 2584 2669 2484 
Q 3125 2378 3379 2068 
Q 3634 1759 3634 1313 
Q 3634 634 3220 271 
Q 2806 -91 2034 -91 
Q 1263 -91 848 271 
Q 434 634 434 1313 
Q 434 1759 690 2068 
Q 947 2378 1403 2484 
z
M 1172 3481 
Q 1172 3119 1398 2916 
Q 1625 2713 2034 2713 
Q 2441 2713 2670 2916 
Q 2900 3119 2900 3481 
Q 2900 3844 2670 4047 
Q 2441 4250 2034 4250 
Q 1625 4250 1398 4047 
Q 1172 3844 1172 3481 
z
" transform="scale(0.015625)"/>
       </defs>
       <use xlink:href="#DejaVuSans-31"/>
       <use xlink:href="#DejaVuSans-38" x="63.623047"/>
       <use xlink:href="#DejaVuSans-30" x="127.246094"/>
      </g>
     </g>
    </g>
    <g id="ytick_5">
     <g id="line2d_25">
      <path d="M 45 143.70728 
L 324 143.70728 
" clip-path="url(#pac0f4c91c2)" style="fill: none; stroke: #b0b0b0; stroke-opacity: 0.4; stroke-width: 0.8; stroke-linecap: square"/>
     </g>
     <g id="line2d_26">
      <g>
       <use xlink:href="#m82f1954cc9" x="45" y="143.70728" style="stroke: #000000; stroke-width: 0.8"/>
      </g>
     </g>
     <g id="text_13">
      <!-- 240 -->
      <g transform="translate(18.9125 147.506499)scale(0.1 -0.1)">
       <use xlink:href="#DejaVuSans-32"/>
       <use xlink:href="#DejaVuSans-34" x="63.623047"/>
       <use xlink:href="#DejaVuSans-30" x="127.246094"/>
      </g>
     </g>
    </g>
    <g id="ytick_6">
     <g id="line2d_27">
      <path d="M 45 118.758101 
L 324 118.758101 
" clip-path="url(#pac0f4c91c2)" style="fill: none; stroke: #b0b0b0; stroke-opacity: 0.4; stroke-width: 0.8; stroke-linecap: square"/>
     </g>
     <g id="line2d_28">
      <g>
       <use xlink:href="#m82f1954cc9" x="45" y="118.758101" style="stroke: #000000; stroke-width: 0.8"/>
      </g>
     </g>
     <g id="text_14">
      <!-- 300 -->
      <g transform="translate(18.9125 122.557319)scale(0.1 -0.1)">
       <use xlink:href="#DejaVuSans-33"/>
       <use xlink:href="#DejaVuSans-30" x="63.623047"/>
       <use xlink:href="#DejaVuSans-30" x="127.246094"/>
      </g>
     </g>
    </g>
    <g id="ytick_7">
     <g id="line2d_29">
      <path d="M 45 93.808921 
L 324 93.808921 
" clip-path="url(#pac0f4c91c2)" style="fill: none; stroke: #b0b0b0; stroke-opacity: 0.4; stroke-width: 0.8; stroke-linecap: square"/>
     </g>
     <g id="line2d_30">
      <g>
       <use xlink:href="#m82f1954cc9" x="45" y="93.808921" style="stroke: #000000; stroke-width: 0.8"/>
      </g>
     </g>
     <g id="text_15">
      <!-- 360 -->
      <g transform="translate(18.9125 97.608139)scale(0.1 -0.1)">
       <use xlink:href="#DejaVuSans-33"/>
       <use xlink:href="#DejaVuSans-36" x="63.623047"/>
       <use xlink:href="#DejaVuSans-30" x="127.246094"/>
      </g>
     </g>
    </g>
    <g id="ytick_8">
     <g id="line2d_31">
      <path d="M 45 68.859741 
L 324 68.859741 
" clip-path="url(#pac0f4c91c2)" style="fill: none; stroke: #b0b0b0; stroke-opacity: 0.4; stroke-width: 0.8; stroke-linecap: square"/>
     </g>
     <g id="line2d_32">
      <g>
       <use xlink:href="#m82f1954cc9" x="45" y="68.859741" style="stroke: #000000; stroke-width: 0.8"/>
      </g>
     </g>
     <g id="text_16">
      <!-- 420 -->
      <g transform="translate(18.9125 72.65896)scale(0.1 -0.1)">
       <use xlink:href="#DejaVuSans-34"/>
       <use xlink:href="#DejaVuSans-32" x="63.623047"/>
       <use xlink:href="#DejaVuSans-30" x="127.246094"/>
      </g>
     </g>
    </g>
    <g id="ytick_9">
     <g id="line2d_33">
      <path d="M 45 43.910561 
L 324 43.910561 
" clip-path="url(#pac0f4c91c2)" style="fill: none; stroke: #b0b0b0; stroke-opacity: 0.4; stroke-width: 0.8; stroke-linecap: square"/>
     </g>
     <g id="line2d_34">
      <g>
       <use xlink:href="#m82f1954cc9" x="45" y="43.910561" style="stroke: #000000; stroke-width: 0.8"/>
      </g>
     </g>
     <g id="text_17">
      <!-- 480 -->
      <g transform="translate(18.9125 47.70978)scale(0.1 -0.1)">
       <use xlink:href="#DejaVuSans-34"/>
       <use xlink:href="#DejaVuSans-38" x="63.623047"/>
       <use xlink:href="#DejaVuSans-30" x="127.246094"/>
      </g>
     </g>
    </g>
    <g id="text_18">
     <!-- Frequency -->
     <g transform="translate(12.832812 163.997687)rotate(-90)scale(0.1 -0.1)">
      <defs>
       <path id="DejaVuSans-46" d="M 628 4666 
L 3309 4666 
L 3309 4134 
L 1259 4134 
L 1259 2759 
L 3109 2759 
L 3109 2228 
L 1259 2228 
L 1259 0 
L 628 0 
L 628 4666 
z
" transform="scale(0.015625)"/>
       <path id="DejaVuSans-72" d="M 2631 2963 
Q 2534 3019 2420 3045 
Q 2306 3072 2169 3072 
Q 1681 3072 1420 2755 
Q 1159 2438 1159 1844 
L 1159 0 
L 581 0 
L 581 3500 
L 1159 3500 
L 1159 2956 
Q 1341 3275 1631 3429 
Q 1922 3584 2338 3584 
Q 2397 3584 2469 3576 
Q 2541 3569 2628 3553 
L 2631 2963 
z
" transform="scale(0.015625)"/>
       <path id="DejaVuSans-65" d="M 3597 1894 
L 3597 1613 
L 953 1613 
Q 991 1019 1311 708 
Q 1631 397 2203 397 
Q 2534 397 2845 478 
Q 3156 559 3463 722 
L 3463 178 
Q 3153 47 2828 -22 
Q 2503 -91 2169 -91 
Q 1331 -91 842 396 
Q 353 884 353 1716 
Q 353 2575 817 3079 
Q 1281 3584 2069 3584 
Q 2775 3584 3186 3129 
Q 3597 2675 3597 1894 
z
M 3022 2063 
Q 3016 2534 2758 2815 
Q 2500 3097 2075 3097 
Q 1594 3097 1305 2825 
Q 1016 2553 972 2059 
L 3022 2063 
z
" transform="scale(0.015625)"/>
       <path id="DejaVuSans-71" d="M 947 1747 
Q 947 1113 1208 752 
Q 1469 391 1925 391 
Q 2381 391 2643 752 
Q 2906 1113 2906 1747 
Q 2906 2381 2643 2742 
Q 2381 3103 1925 3103 
Q 1469 3103 1208 2742 
Q 947 2381 947 1747 
z
M 2906 525 
Q 2725 213 2448 61 
Q 2172 -91 1784 -91 
Q 1150 -91 751 415 
Q 353 922 353 1747 
Q 353 2572 751 3078 
Q 1150 3584 1784 3584 
Q 2172 3584 2448 3432 
Q 2725 3281 2906 2969 
L 2906 3500 
L 3481 3500 
L 3481 -1331 
L 2906 -1331 
L 2906 525 
z
" transform="scale(0.015625)"/>
       <path id="DejaVuSans-75" d="M 544 1381 
L 544 3500 
L 1119 3500 
L 1119 1403 
Q 1119 906 1312 657 
Q 1506 409 1894 409 
Q 2359 409 2629 706 
Q 2900 1003 2900 1516 
L 2900 3500 
L 3475 3500 
L 3475 0 
L 2900 0 
L 2900 538 
Q 2691 219 2414 64 
Q 2138 -91 1772 -91 
Q 1169 -91 856 284 
Q 544 659 544 1381 
z
M 1991 3584 
L 1991 3584 
z
" transform="scale(0.015625)"/>
       <path id="DejaVuSans-6e" d="M 3513 2113 
L 3513 0 
L 2938 0 
L 2938 2094 
Q 2938 2591 2744 2837 
Q 2550 3084 2163 3084 
Q 1697 3084 1428 2787 
Q 1159 2491 1159 1978 
L 1159 0 
L 581 0 
L 581 3500 
L 1159 3500 
L 1159 2956 
Q 1366 3272 1645 3428 
Q 1925 3584 2291 3584 
Q 2894 3584 3203 3211 
Q 3513 2838 3513 2113 
z
" transform="scale(0.015625)"/>
       <path id="DejaVuSans-63" d="M 3122 3366 
L 3122 2828 
Q 2878 2963 2633 3030 
Q 2388 3097 2138 3097 
Q 1578 3097 1268 2742 
Q 959 2388 959 1747 
Q 959 1106 1268 751 
Q 1578 397 2138 397 
Q 2388 397 2633 464 
Q 2878 531 3122 666 
L 3122 134 
Q 2881 22 2623 -34 
Q 2366 -91 2075 -91 
Q 1284 -91 818 406 
Q 353 903 353 1747 
Q 353 2603 823 3093 
Q 1294 3584 2113 3584 
Q 2378 3584 2631 3529 
Q 2884 3475 3122 3366 
z
" transform="scale(0.015625)"/>
       <path id="DejaVuSans-79" d="M 2059 -325 
Q 1816 -950 1584 -1140 
Q 1353 -1331 966 -1331 
L 506 -1331 
L 506 -850 
L 844 -850 
Q 1081 -850 1212 -737 
Q 1344 -625 1503 -206 
L 1606 56 
L 191 3500 
L 800 3500 
L 1894 763 
L 2988 3500 
L 3597 3500 
L 2059 -325 
z
" transform="scale(0.015625)"/>
      </defs>
      <use xlink:href="#DejaVuSans-46"/>
      <use xlink:href="#DejaVuSans-72" x="50.269531"/>
      <use xlink:href="#DejaVuSans-65" x="89.132812"/>
      <use xlink:href="#DejaVuSans-71" x="150.65625"/>
      <use xlink:href="#DejaVuSans-75" x="214.132812"/>
      <use xlink:href="#DejaVuSans-65" x="277.511719"/>
      <use xlink:href="#DejaVuSans-6e" x="339.035156"/>
      <use xlink:href="#DejaVuSans-63" x="402.414062"/>
      <use xlink:href="#DejaVuSans-79" x="457.394531"/>
     </g>
    </g>
   </g>
   <g id="line2d_35">
    <path d="M 126.466174 243.49555 
L 131.129942 243.35787 
L 133.794953 243.039689 
L 135.79371 242.604496 
L 139.124973 241.583813 
L 143.122489 240.393238 
L 146.453752 239.44288 
L 147.786257 238.829301 
L 149.118762 237.893146 
L 150.451267 236.488733 
L 151.783772 234.483963 
L 153.116277 231.77728 
L 154.448783 228.306544 
L 155.781288 224.058067 
L 157.113793 219.085653 
L 159.112551 210.617193 
L 162.443814 196.110134 
L 164.442571 188.421668 
L 167.773834 175.979851 
L 169.106339 169.973491 
L 170.438844 162.985176 
L 172.437602 151.066121 
L 175.102612 135.184346 
L 176.435118 128.345508 
L 177.767623 122.42926 
L 179.766381 114.746539 
L 183.097643 102.271959 
L 185.096401 93.933868 
L 189.093917 76.668973 
L 190.426422 72.354198 
L 191.092674 70.845025 
L 191.758927 69.868328 
L 192.425179 69.474148 
L 193.091432 69.685957 
L 193.757685 70.498955 
L 194.423937 71.881849 
L 195.09019 73.781746 
L 196.422695 78.856119 
L 197.7552 85.145795 
L 199.753958 95.837902 
L 203.751473 118.928629 
L 211.746504 165.551211 
L 213.079009 171.735049 
L 214.411515 177.126118 
L 217.076525 186.596445 
L 219.741535 196.240014 
L 225.071556 216.234896 
L 226.404061 220.320998 
L 227.736566 223.799492 
L 229.069071 226.700647 
L 230.401576 229.112657 
L 231.734082 231.143578 
L 233.732839 233.698218 
L 236.39785 236.603299 
L 239.06286 239.161815 
L 240.395365 240.234687 
L 241.72787 241.098485 
L 243.060375 241.732454 
L 244.39288 242.161102 
L 246.391638 242.54968 
L 251.721659 243.191405 
L 255.052922 243.421122 
L 259.050437 243.496422 
L 259.050437 243.496422 
" clip-path="url(#pac0f4c91c2)" style="fill: none; stroke: #ff7f0e; stroke-width: 1.5; stroke-linecap: square"/>
   </g>
   <g id="line2d_36">
    <path d="M 57.681818 243.499944 
L 69.15281 243.390068 
L 75.525582 243.097737 
L 80.623801 242.615119 
L 85.722019 241.87406 
L 97.193011 239.793978 
L 103.565783 238.586417 
L 107.389447 237.658868 
L 109.938556 236.883922 
L 112.487666 235.941902 
L 115.036775 234.791424 
L 117.585884 233.388258 
L 120.134993 231.695842 
L 122.684102 229.700385 
L 125.233212 227.422329 
L 129.056875 223.599207 
L 134.155094 218.096229 
L 139.253312 212.316202 
L 143.076976 207.631722 
L 146.90064 202.460921 
L 150.724303 196.783229 
L 160.92074 181.045294 
L 164.744404 175.763206 
L 167.293513 172.548173 
L 169.842622 169.614137 
L 172.391731 167.0207 
L 174.940841 164.845247 
L 177.48995 163.153825 
L 178.764504 162.49964 
L 180.039059 161.971904 
L 182.588168 161.273272 
L 185.137277 160.992155 
L 187.686386 161.05198 
L 190.235496 161.400623 
L 192.784605 162.041584 
L 195.333714 163.047221 
L 196.608269 163.724081 
L 197.882823 164.538526 
L 199.157378 165.503693 
L 200.431932 166.62729 
L 202.981042 169.341774 
L 205.530151 172.578447 
L 215.726587 186.403401 
L 222.09936 194.407738 
L 225.923024 199.636985 
L 232.295797 208.557612 
L 234.844906 211.833006 
L 237.394016 214.831071 
L 239.943125 217.544648 
L 242.492234 219.989154 
L 245.041343 222.18489 
L 247.590452 224.153372 
L 251.414116 226.741354 
L 255.23778 228.997276 
L 260.335998 231.664276 
L 265.434217 234.063143 
L 273.081544 237.370103 
L 278.179762 239.359631 
L 282.003426 240.617963 
L 285.82709 241.617373 
L 289.650754 242.359367 
L 293.474418 242.872501 
L 298.572636 243.26774 
L 304.945409 243.456479 
L 311.318182 243.49805 
L 311.318182 243.49805 
" clip-path="url(#pac0f4c91c2)" style="fill: none; stroke: #1f77b4; stroke-width: 1.5; stroke-linecap: square"/>
   </g>
   <g id="patch_51">
    <path d="M 45 243.504 
L 45 32.832 
" style="fill: none; stroke: #000000; stroke-width: 0.8; stroke-linejoin: miter; stroke-linecap: square"/>
   </g>
   <g id="patch_52">
    <path d="M 45 243.504 
L 324 243.504 
" style="fill: none; stroke: #000000; stroke-width: 0.8; stroke-linejoin: miter; stroke-linecap: square"/>
   </g>
   <g id="legend_1">
    <g id="patch_53">
     <path d="M 235.326562 70.18825 
L 317 70.18825 
Q 319 70.18825 319 68.18825 
L 319 39.832 
Q 319 37.832 317 37.832 
L 235.326562 37.832 
Q 233.326562 37.832 233.326562 39.832 
L 233.326562 68.18825 
Q 233.326562 70.18825 235.326562 70.18825 
z
" style="fill: #ffffff; opacity: 0.8; stroke: #cccccc; stroke-linejoin: miter"/>
    </g>
    <g id="patch_54">
     <path d="M 237.326562 49.430437 
L 257.326563 49.430437 
L 257.326563 42.430437 
L 237.326562 42.430437 
z
" style="fill: #1f77b4; fill-opacity: 0.5"/>
    </g>
    <g id="text_19">
     <!-- Truth -->
     <g transform="translate(265.326563 49.430437)scale(0.1 -0.1)">
      <defs>
       <path id="DejaVuSans-54" d="M -19 4666 
L 3928 4666 
L 3928 4134 
L 2272 4134 
L 2272 0 
L 1638 0 
L 1638 4134 
L -19 4134 
L -19 4666 
z
" transform="scale(0.015625)"/>
       <path id="DejaVuSans-74" d="M 1172 4494 
L 1172 3500 
L 2356 3500 
L 2356 3053 
L 1172 3053 
L 1172 1153 
Q 1172 725 1289 603 
Q 1406 481 1766 481 
L 2356 481 
L 2356 0 
L 1766 0 
Q 1100 0 847 248 
Q 594 497 594 1153 
L 594 3053 
L 172 3053 
L 172 3500 
L 594 3500 
L 594 4494 
L 1172 4494 
z
" transform="scale(0.015625)"/>
       <path id="DejaVuSans-68" d="M 3513 2113 
L 3513 0 
L 2938 0 
L 2938 2094 
Q 2938 2591 2744 2837 
Q 2550 3084 2163 3084 
Q 1697 3084 1428 2787 
Q 1159 2491 1159 1978 
L 1159 0 
L 581 0 
L 581 4863 
L 1159 4863 
L 1159 2956 
Q 1366 3272 1645 3428 
Q 1925 3584 2291 3584 
Q 2894 3584 3203 3211 
Q 3513 2838 3513 2113 
z
" transform="scale(0.015625)"/>
      </defs>
      <use xlink:href="#DejaVuSans-54"/>
      <use xlink:href="#DejaVuSans-72" x="46.333984"/>
      <use xlink:href="#DejaVuSans-75" x="87.447266"/>
      <use xlink:href="#DejaVuSans-74" x="150.826172"/>
      <use xlink:href="#DejaVuSans-68" x="190.035156"/>
     </g>
    </g>
    <g id="patch_55">
     <path d="M 237.326562 64.108562 
L 257.326563 64.108562 
L 257.326563 57.108562 
L 237.326562 57.108562 
z
" style="fill: #ff7f0e; fill-opacity: 0.5"/>
    </g>
    <g id="text_20">
     <!-- Prediction -->
     <g transform="translate(265.326563 64.108562)scale(0.1 -0.1)">
      <defs>
       <path id="DejaVuSans-50" d="M 1259 4147 
L 1259 2394 
L 2053 2394 
Q 2494 2394 2734 2622 
Q 2975 2850 2975 3272 
Q 2975 3691 2734 3919 
Q 2494 4147 2053 4147 
L 1259 4147 
z
M 628 4666 
L 2053 4666 
Q 2838 4666 3239 4311 
Q 3641 3956 3641 3272 
Q 3641 2581 3239 2228 
Q 2838 1875 2053 1875 
L 1259 1875 
L 1259 0 
L 628 0 
L 628 4666 
z
" transform="scale(0.015625)"/>
       <path id="DejaVuSans-64" d="M 2906 2969 
L 2906 4863 
L 3481 4863 
L 3481 0 
L 2906 0 
L 2906 525 
Q 2725 213 2448 61 
Q 2172 -91 1784 -91 
Q 1150 -91 751 415 
Q 353 922 353 1747 
Q 353 2572 751 3078 
Q 1150 3584 1784 3584 
Q 2172 3584 2448 3432 
Q 2725 3281 2906 2969 
z
M 947 1747 
Q 947 1113 1208 752 
Q 1469 391 1925 391 
Q 2381 391 2643 752 
Q 2906 1113 2906 1747 
Q 2906 2381 2643 2742 
Q 2381 3103 1925 3103 
Q 1469 3103 1208 2742 
Q 947 2381 947 1747 
z
" transform="scale(0.015625)"/>
       <path id="DejaVuSans-69" d="M 603 3500 
L 1178 3500 
L 1178 0 
L 603 0 
L 603 3500 
z
M 603 4863 
L 1178 4863 
L 1178 4134 
L 603 4134 
L 603 4863 
z
" transform="scale(0.015625)"/>
       <path id="DejaVuSans-6f" d="M 1959 3097 
Q 1497 3097 1228 2736 
Q 959 2375 959 1747 
Q 959 1119 1226 758 
Q 1494 397 1959 397 
Q 2419 397 2687 759 
Q 2956 1122 2956 1747 
Q 2956 2369 2687 2733 
Q 2419 3097 1959 3097 
z
M 1959 3584 
Q 2709 3584 3137 3096 
Q 3566 2609 3566 1747 
Q 3566 888 3137 398 
Q 2709 -91 1959 -91 
Q 1206 -91 779 398 
Q 353 888 353 1747 
Q 353 2609 779 3096 
Q 1206 3584 1959 3584 
z
" transform="scale(0.015625)"/>
      </defs>
      <use xlink:href="#DejaVuSans-50"/>
      <use xlink:href="#DejaVuSans-72" x="58.552734"/>
      <use xlink:href="#DejaVuSans-65" x="97.416016"/>
      <use xlink:href="#DejaVuSans-64" x="158.939453"/>
      <use xlink:href="#DejaVuSans-69" x="222.416016"/>
      <use xlink:href="#DejaVuSans-63" x="250.199219"/>
      <use xlink:href="#DejaVuSans-74" x="305.179688"/>
      <use xlink:href="#DejaVuSans-69" x="344.388672"/>
      <use xlink:href="#DejaVuSans-6f" x="372.171875"/>
      <use xlink:href="#DejaVuSans-6e" x="433.353516"/>
     </g>
    </g>
   </g>
  </g>
 </g>
 <defs>
  <clipPath id="pac0f4c91c2">
   <rect x="45" y="32.832" width="279" height="210.672"/>
  </clipPath>
 </defs>
</svg>
