<?xml version="1.0" encoding="utf-8" standalone="no"?>
<!DOCTYPE svg PUBLIC "-//W3C//DTD SVG 1.1//EN"
  "http://www.w3.org/Graphics/SVG/1.1/DTD/svg11.dtd">
<svg xmlns:xlink="http://www.w3.org/1999/xlink" width="360pt" height="273.6pt" viewBox="0 0 360 273.6" xmlns="http://www.w3.org/2000/svg" version="1.1">
 <metadata>
  <rdf:RDF xmlns:dc="http://purl.org/dc/elements/1.1/" xmlns:cc="http://creativecommons.org/ns#" xmlns:rdf="http://www.w3.org/1999/02/22-rdf-syntax-ns#">
   <cc:Work>
    <dc:type rdf:resource="http://purl.org/dc/dcmitype/StillImage"/>
    <dc:date>2022-01-04T09:18:44.011345</dc:date>
    <dc:format>image/svg+xml</dc:format>
    <dc:creator>
     <cc:Agent>
      <dc:title>Matplotlib v3.5.1, https://matplotlib.org/</dc:title>
     </cc:Agent>
    </dc:creator>
   </cc:Work>
  </rdf:RDF>
 </metadata>
 <defs>
  <style type="text/css">*{stroke-linejoin: round; stroke-linecap: butt}</style>
 </defs>
 <g id="figure_1">
  <g id="patch_1">
   <path d="M 0 273.6 
L 360 273.6 
L 360 0 
L 0 0 
z
" style="fill: #ffffff"/>
  </g>
  <g id="axes_1">
   <g id="patch_2">
    <path d="M 45 243.504 
L 324 243.504 
L 324 32.832 
L 45 32.832 
z
" style="fill: #ffffff"/>
   </g>
   <g id="PathCollection_1">
    <defs>
     <path id="mcd8dba5448" d="M 0 3 
C 0.795609 3 1.55874 2.683901 2.12132 2.12132 
C 2.683901 1.55874 3 0.795609 3 0 
C 3 -0.795609 2.683901 -1.55874 2.12132 -2.12132 
C 1.55874 -2.683901 0.795609 -3 0 -3 
C -0.795609 -3 -1.55874 -2.683901 -2.12132 -2.12132 
C -2.683901 -1.55874 -3 -0.795609 -3 0 
C -3 0.795609 -2.683901 1.55874 -2.12132 2.12132 
C -1.55874 2.683901 -0.795609 3 0 3 
z
" style="stroke: #1f77b4; stroke-opacity: 0.8"/>
    </defs>
    <g clip-path="url(#p0662c3373b)">
     <use xlink:href="#mcd8dba5448" x="57.681818" y="225.726211" style="fill: #1f77b4; fill-opacity: 0.8; stroke: #1f77b4; stroke-opacity: 0.8"/>
     <use xlink:href="#mcd8dba5448" x="83.045455" y="213.022298" style="fill: #1f77b4; fill-opacity: 0.8; stroke: #1f77b4; stroke-opacity: 0.8"/>
     <use xlink:href="#mcd8dba5448" x="108.409091" y="185.799628" style="fill: #1f77b4; fill-opacity: 0.8; stroke: #1f77b4; stroke-opacity: 0.8"/>
     <use xlink:href="#mcd8dba5448" x="133.772727" y="183.984783" style="fill: #1f77b4; fill-opacity: 0.8; stroke: #1f77b4; stroke-opacity: 0.8"/>
     <use xlink:href="#mcd8dba5448" x="159.136364" y="156.762113" style="fill: #1f77b4; fill-opacity: 0.8; stroke: #1f77b4; stroke-opacity: 0.8"/>
     <use xlink:href="#mcd8dba5448" x="184.5" y="136.798821" style="fill: #1f77b4; fill-opacity: 0.8; stroke: #1f77b4; stroke-opacity: 0.8"/>
     <use xlink:href="#mcd8dba5448" x="209.863636" y="115.020685" style="fill: #1f77b4; fill-opacity: 0.8; stroke: #1f77b4; stroke-opacity: 0.8"/>
     <use xlink:href="#mcd8dba5448" x="235.227273" y="98.687083" style="fill: #1f77b4; fill-opacity: 0.8; stroke: #1f77b4; stroke-opacity: 0.8"/>
     <use xlink:href="#mcd8dba5448" x="260.590909" y="85.98317" style="fill: #1f77b4; fill-opacity: 0.8; stroke: #1f77b4; stroke-opacity: 0.8"/>
     <use xlink:href="#mcd8dba5448" x="285.954545" y="64.205034" style="fill: #1f77b4; fill-opacity: 0.8; stroke: #1f77b4; stroke-opacity: 0.8"/>
     <use xlink:href="#mcd8dba5448" x="311.318182" y="64.205034" style="fill: #1f77b4; fill-opacity: 0.8; stroke: #1f77b4; stroke-opacity: 0.8"/>
    </g>
   </g>
   <g id="PolyCollection_1">
    <path d="M 57.681818 218.312522 
L 57.681818 233.928 
L 60.243802 232.010859 
L 62.805785 230.06187 
L 65.367769 228.10068 
L 67.929752 226.240523 
L 70.491736 224.311979 
L 73.053719 222.383429 
L 75.615702 220.454193 
L 78.177686 218.524957 
L 80.739669 216.593132 
L 83.301653 214.667287 
L 85.863636 212.784868 
L 88.42562 210.926582 
L 90.987603 209.023735 
L 93.549587 207.154171 
L 96.11157 205.298713 
L 98.673554 203.437888 
L 101.235537 201.543894 
L 103.797521 199.673087 
L 106.359504 197.823497 
L 108.921488 195.931099 
L 111.483471 194.058996 
L 114.045455 192.162632 
L 116.607438 190.265959 
L 119.169421 188.416466 
L 121.731405 186.519685 
L 124.293388 184.649792 
L 126.855372 182.892766 
L 129.417355 181.057757 
L 131.979339 179.20441 
L 134.541322 177.371372 
L 137.103306 175.547426 
L 139.665289 173.75776 
L 142.227273 171.965447 
L 144.789256 170.177717 
L 147.35124 168.353887 
L 149.913223 166.59151 
L 152.475207 164.812011 
L 155.03719 163.050494 
L 157.599174 161.332362 
L 160.161157 159.61012 
L 162.72314 157.84836 
L 165.285124 155.985046 
L 167.847107 154.239728 
L 170.409091 152.450963 
L 172.971074 150.685358 
L 175.533058 148.896164 
L 178.095041 147.192334 
L 180.657025 145.453945 
L 183.219008 143.692736 
L 185.780992 141.961296 
L 188.342975 140.283465 
L 190.904959 138.580365 
L 193.466942 136.874962 
L 196.028926 135.171041 
L 198.590909 133.464956 
L 201.152893 131.710675 
L 203.714876 129.94152 
L 206.27686 128.272958 
L 208.838843 126.625587 
L 211.400826 124.942877 
L 213.96281 123.266608 
L 216.524793 121.563807 
L 219.086777 119.910132 
L 221.64876 118.256085 
L 224.210744 116.548331 
L 226.772727 114.902856 
L 229.334711 113.192269 
L 231.896694 111.525094 
L 234.458678 109.832725 
L 237.020661 108.178904 
L 239.582645 106.525255 
L 242.144628 104.84808 
L 244.706612 103.172492 
L 247.268595 101.470981 
L 249.830579 99.782841 
L 252.392562 98.0947 
L 254.954545 96.40656 
L 257.516529 94.76531 
L 260.078512 93.16644 
L 262.640496 91.508662 
L 265.202479 89.843538 
L 267.764463 88.176688 
L 270.326446 86.509838 
L 272.88843 84.842988 
L 275.450413 83.176138 
L 278.012397 81.509288 
L 280.57438 79.847548 
L 283.136364 78.177561 
L 285.698347 76.510899 
L 288.260331 74.845178 
L 290.822314 73.179457 
L 293.384298 71.513085 
L 295.946281 69.846265 
L 298.508264 68.183553 
L 301.070248 66.580524 
L 303.632231 64.900248 
L 306.194215 63.291885 
L 308.756198 61.641254 
L 311.318182 59.953087 
L 311.318182 42.408 
L 311.318182 42.408 
L 308.756198 44.352613 
L 306.194215 46.297227 
L 303.632231 48.235524 
L 301.070248 50.18533 
L 298.508264 52.095215 
L 295.946281 54.013957 
L 293.384298 55.961349 
L 290.822314 57.910273 
L 288.260331 59.859197 
L 285.698347 61.808121 
L 283.136364 63.757044 
L 280.57438 65.690245 
L 278.012397 67.567916 
L 275.450413 69.448943 
L 272.88843 71.328647 
L 270.326446 73.217366 
L 267.764463 75.119962 
L 265.202479 77.093227 
L 262.640496 78.942051 
L 260.078512 80.775501 
L 257.516529 82.61674 
L 254.954545 84.526769 
L 252.392562 86.422095 
L 249.830579 88.345866 
L 247.268595 90.249515 
L 244.706612 92.120847 
L 242.144628 93.970404 
L 239.582645 95.909812 
L 237.020661 97.83294 
L 234.458678 99.701437 
L 231.896694 101.571865 
L 229.334711 103.402203 
L 226.772727 105.246926 
L 224.210744 107.119766 
L 221.64876 109.00054 
L 219.086777 110.901331 
L 216.524793 112.751903 
L 213.96281 114.588998 
L 211.400826 116.441709 
L 208.838843 118.295269 
L 206.27686 120.126725 
L 203.714876 121.936964 
L 201.152893 123.756615 
L 198.590909 125.506188 
L 196.028926 127.247347 
L 193.466942 129.060781 
L 190.904959 130.874215 
L 188.342975 132.642464 
L 185.780992 134.333977 
L 183.219008 136.163796 
L 180.657025 137.925701 
L 178.095041 139.686679 
L 175.533058 141.416057 
L 172.971074 143.207638 
L 170.409091 144.90705 
L 167.847107 146.672618 
L 165.285124 148.337265 
L 162.72314 150.080966 
L 160.161157 151.838792 
L 157.599174 153.521517 
L 155.03719 155.214443 
L 152.475207 156.916288 
L 149.913223 158.668926 
L 147.35124 160.359577 
L 144.789256 161.970472 
L 142.227273 163.581366 
L 139.665289 165.19226 
L 137.103306 166.837972 
L 134.541322 168.498476 
L 131.979339 170.144172 
L 129.417355 171.835164 
L 126.855372 173.525648 
L 124.293388 175.216132 
L 121.731405 176.90791 
L 119.169421 178.60015 
L 116.607438 180.314085 
L 114.045455 182.043832 
L 111.483471 183.77358 
L 108.921488 185.503327 
L 106.359504 187.193332 
L 103.797521 188.833131 
L 101.235537 190.47293 
L 98.673554 192.127954 
L 96.11157 193.74999 
L 93.549587 195.387235 
L 90.987603 197.02448 
L 88.42562 198.662291 
L 85.863636 200.299269 
L 83.301653 201.935044 
L 80.739669 203.570819 
L 78.177686 205.210603 
L 75.615702 206.858152 
L 73.053719 208.496539 
L 70.491736 210.134925 
L 67.929752 211.749499 
L 65.367769 213.379809 
L 62.805785 215.004062 
L 60.243802 216.65269 
L 57.681818 218.312522 
z
" clip-path="url(#p0662c3373b)" style="fill: #ff0000; fill-opacity: 0.15"/>
   </g>
   <g id="matplotlib.axis_1">
    <g id="xtick_1">
     <g id="line2d_1">
      <path d="M 57.681818 243.504 
L 57.681818 32.832 
" clip-path="url(#p0662c3373b)" style="fill: none; stroke: #b0b0b0; stroke-opacity: 0.4; stroke-width: 0.8; stroke-linecap: square"/>
     </g>
     <g id="line2d_2">
      <defs>
       <path id="m9f83d81cbb" d="M 0 0 
L 0 3.5 
" style="stroke: #000000; stroke-width: 0.8"/>
      </defs>
      <g>
       <use xlink:href="#m9f83d81cbb" x="57.681818" y="243.504" style="stroke: #000000; stroke-width: 0.8"/>
      </g>
     </g>
     <g id="text_1">
      <!-- 0 -->
      <g transform="translate(54.500568 258.102437)scale(0.1 -0.1)">
       <defs>
        <path id="DejaVuSans-30" d="M 2034 4250 
Q 1547 4250 1301 3770 
Q 1056 3291 1056 2328 
Q 1056 1369 1301 889 
Q 1547 409 2034 409 
Q 2525 409 2770 889 
Q 3016 1369 3016 2328 
Q 3016 3291 2770 3770 
Q 2525 4250 2034 4250 
z
M 2034 4750 
Q 2819 4750 3233 4129 
Q 3647 3509 3647 2328 
Q 3647 1150 3233 529 
Q 2819 -91 2034 -91 
Q 1250 -91 836 529 
Q 422 1150 422 2328 
Q 422 3509 836 4129 
Q 1250 4750 2034 4750 
z
" transform="scale(0.015625)"/>
       </defs>
       <use xlink:href="#DejaVuSans-30"/>
      </g>
     </g>
    </g>
    <g id="xtick_2">
     <g id="line2d_3">
      <path d="M 108.409091 243.504 
L 108.409091 32.832 
" clip-path="url(#p0662c3373b)" style="fill: none; stroke: #b0b0b0; stroke-opacity: 0.4; stroke-width: 0.8; stroke-linecap: square"/>
     </g>
     <g id="line2d_4">
      <g>
       <use xlink:href="#m9f83d81cbb" x="108.409091" y="243.504" style="stroke: #000000; stroke-width: 0.8"/>
      </g>
     </g>
     <g id="text_2">
      <!-- 2 -->
      <g transform="translate(105.227841 258.102437)scale(0.1 -0.1)">
       <defs>
        <path id="DejaVuSans-32" d="M 1228 531 
L 3431 531 
L 3431 0 
L 469 0 
L 469 531 
Q 828 903 1448 1529 
Q 2069 2156 2228 2338 
Q 2531 2678 2651 2914 
Q 2772 3150 2772 3378 
Q 2772 3750 2511 3984 
Q 2250 4219 1831 4219 
Q 1534 4219 1204 4116 
Q 875 4013 500 3803 
L 500 4441 
Q 881 4594 1212 4672 
Q 1544 4750 1819 4750 
Q 2544 4750 2975 4387 
Q 3406 4025 3406 3419 
Q 3406 3131 3298 2873 
Q 3191 2616 2906 2266 
Q 2828 2175 2409 1742 
Q 1991 1309 1228 531 
z
" transform="scale(0.015625)"/>
       </defs>
       <use xlink:href="#DejaVuSans-32"/>
      </g>
     </g>
    </g>
    <g id="xtick_3">
     <g id="line2d_5">
      <path d="M 159.136364 243.504 
L 159.136364 32.832 
" clip-path="url(#p0662c3373b)" style="fill: none; stroke: #b0b0b0; stroke-opacity: 0.4; stroke-width: 0.8; stroke-linecap: square"/>
     </g>
     <g id="line2d_6">
      <g>
       <use xlink:href="#m9f83d81cbb" x="159.136364" y="243.504" style="stroke: #000000; stroke-width: 0.8"/>
      </g>
     </g>
     <g id="text_3">
      <!-- 4 -->
      <g transform="translate(155.955114 258.102437)scale(0.1 -0.1)">
       <defs>
        <path id="DejaVuSans-34" d="M 2419 4116 
L 825 1625 
L 2419 1625 
L 2419 4116 
z
M 2253 4666 
L 3047 4666 
L 3047 1625 
L 3713 1625 
L 3713 1100 
L 3047 1100 
L 3047 0 
L 2419 0 
L 2419 1100 
L 313 1100 
L 313 1709 
L 2253 4666 
z
" transform="scale(0.015625)"/>
       </defs>
       <use xlink:href="#DejaVuSans-34"/>
      </g>
     </g>
    </g>
    <g id="xtick_4">
     <g id="line2d_7">
      <path d="M 209.863636 243.504 
L 209.863636 32.832 
" clip-path="url(#p0662c3373b)" style="fill: none; stroke: #b0b0b0; stroke-opacity: 0.4; stroke-width: 0.8; stroke-linecap: square"/>
     </g>
     <g id="line2d_8">
      <g>
       <use xlink:href="#m9f83d81cbb" x="209.863636" y="243.504" style="stroke: #000000; stroke-width: 0.8"/>
      </g>
     </g>
     <g id="text_4">
      <!-- 6 -->
      <g transform="translate(206.682386 258.102437)scale(0.1 -0.1)">
       <defs>
        <path id="DejaVuSans-36" d="M 2113 2584 
Q 1688 2584 1439 2293 
Q 1191 2003 1191 1497 
Q 1191 994 1439 701 
Q 1688 409 2113 409 
Q 2538 409 2786 701 
Q 3034 994 3034 1497 
Q 3034 2003 2786 2293 
Q 2538 2584 2113 2584 
z
M 3366 4563 
L 3366 3988 
Q 3128 4100 2886 4159 
Q 2644 4219 2406 4219 
Q 1781 4219 1451 3797 
Q 1122 3375 1075 2522 
Q 1259 2794 1537 2939 
Q 1816 3084 2150 3084 
Q 2853 3084 3261 2657 
Q 3669 2231 3669 1497 
Q 3669 778 3244 343 
Q 2819 -91 2113 -91 
Q 1303 -91 875 529 
Q 447 1150 447 2328 
Q 447 3434 972 4092 
Q 1497 4750 2381 4750 
Q 2619 4750 2861 4703 
Q 3103 4656 3366 4563 
z
" transform="scale(0.015625)"/>
       </defs>
       <use xlink:href="#DejaVuSans-36"/>
      </g>
     </g>
    </g>
    <g id="xtick_5">
     <g id="line2d_9">
      <path d="M 260.590909 243.504 
L 260.590909 32.832 
" clip-path="url(#p0662c3373b)" style="fill: none; stroke: #b0b0b0; stroke-opacity: 0.4; stroke-width: 0.8; stroke-linecap: square"/>
     </g>
     <g id="line2d_10">
      <g>
       <use xlink:href="#m9f83d81cbb" x="260.590909" y="243.504" style="stroke: #000000; stroke-width: 0.8"/>
      </g>
     </g>
     <g id="text_5">
      <!-- 8 -->
      <g transform="translate(257.409659 258.102437)scale(0.1 -0.1)">
       <defs>
        <path id="DejaVuSans-38" d="M 2034 2216 
Q 1584 2216 1326 1975 
Q 1069 1734 1069 1313 
Q 1069 891 1326 650 
Q 1584 409 2034 409 
Q 2484 409 2743 651 
Q 3003 894 3003 1313 
Q 3003 1734 2745 1975 
Q 2488 2216 2034 2216 
z
M 1403 2484 
Q 997 2584 770 2862 
Q 544 3141 544 3541 
Q 544 4100 942 4425 
Q 1341 4750 2034 4750 
Q 2731 4750 3128 4425 
Q 3525 4100 3525 3541 
Q 3525 3141 3298 2862 
Q 3072 2584 2669 2484 
Q 3125 2378 3379 2068 
Q 3634 1759 3634 1313 
Q 3634 634 3220 271 
Q 2806 -91 2034 -91 
Q 1263 -91 848 271 
Q 434 634 434 1313 
Q 434 1759 690 2068 
Q 947 2378 1403 2484 
z
M 1172 3481 
Q 1172 3119 1398 2916 
Q 1625 2713 2034 2713 
Q 2441 2713 2670 2916 
Q 2900 3119 2900 3481 
Q 2900 3844 2670 4047 
Q 2441 4250 2034 4250 
Q 1625 4250 1398 4047 
Q 1172 3844 1172 3481 
z
" transform="scale(0.015625)"/>
       </defs>
       <use xlink:href="#DejaVuSans-38"/>
      </g>
     </g>
    </g>
    <g id="xtick_6">
     <g id="line2d_11">
      <path d="M 311.318182 243.504 
L 311.318182 32.832 
" clip-path="url(#p0662c3373b)" style="fill: none; stroke: #b0b0b0; stroke-opacity: 0.4; stroke-width: 0.8; stroke-linecap: square"/>
     </g>
     <g id="line2d_12">
      <g>
       <use xlink:href="#m9f83d81cbb" x="311.318182" y="243.504" style="stroke: #000000; stroke-width: 0.8"/>
      </g>
     </g>
     <g id="text_6">
      <!-- 10 -->
      <g transform="translate(304.955682 258.102437)scale(0.1 -0.1)">
       <defs>
        <path id="DejaVuSans-31" d="M 794 531 
L 1825 531 
L 1825 4091 
L 703 3866 
L 703 4441 
L 1819 4666 
L 2450 4666 
L 2450 531 
L 3481 531 
L 3481 0 
L 794 0 
L 794 531 
z
" transform="scale(0.015625)"/>
       </defs>
       <use xlink:href="#DejaVuSans-31"/>
       <use xlink:href="#DejaVuSans-30" x="63.623047"/>
      </g>
     </g>
    </g>
    <g id="text_7">
     <!-- Truth -->
     <g transform="translate(171.830469 271.780562)scale(0.1 -0.1)">
      <defs>
       <path id="DejaVuSans-54" d="M -19 4666 
L 3928 4666 
L 3928 4134 
L 2272 4134 
L 2272 0 
L 1638 0 
L 1638 4134 
L -19 4134 
L -19 4666 
z
" transform="scale(0.015625)"/>
       <path id="DejaVuSans-72" d="M 2631 2963 
Q 2534 3019 2420 3045 
Q 2306 3072 2169 3072 
Q 1681 3072 1420 2755 
Q 1159 2438 1159 1844 
L 1159 0 
L 581 0 
L 581 3500 
L 1159 3500 
L 1159 2956 
Q 1341 3275 1631 3429 
Q 1922 3584 2338 3584 
Q 2397 3584 2469 3576 
Q 2541 3569 2628 3553 
L 2631 2963 
z
" transform="scale(0.015625)"/>
       <path id="DejaVuSans-75" d="M 544 1381 
L 544 3500 
L 1119 3500 
L 1119 1403 
Q 1119 906 1312 657 
Q 1506 409 1894 409 
Q 2359 409 2629 706 
Q 2900 1003 2900 1516 
L 2900 3500 
L 3475 3500 
L 3475 0 
L 2900 0 
L 2900 538 
Q 2691 219 2414 64 
Q 2138 -91 1772 -91 
Q 1169 -91 856 284 
Q 544 659 544 1381 
z
M 1991 3584 
L 1991 3584 
z
" transform="scale(0.015625)"/>
       <path id="DejaVuSans-74" d="M 1172 4494 
L 1172 3500 
L 2356 3500 
L 2356 3053 
L 1172 3053 
L 1172 1153 
Q 1172 725 1289 603 
Q 1406 481 1766 481 
L 2356 481 
L 2356 0 
L 1766 0 
Q 1100 0 847 248 
Q 594 497 594 1153 
L 594 3053 
L 172 3053 
L 172 3500 
L 594 3500 
L 594 4494 
L 1172 4494 
z
" transform="scale(0.015625)"/>
       <path id="DejaVuSans-68" d="M 3513 2113 
L 3513 0 
L 2938 0 
L 2938 2094 
Q 2938 2591 2744 2837 
Q 2550 3084 2163 3084 
Q 1697 3084 1428 2787 
Q 1159 2491 1159 1978 
L 1159 0 
L 581 0 
L 581 4863 
L 1159 4863 
L 1159 2956 
Q 1366 3272 1645 3428 
Q 1925 3584 2291 3584 
Q 2894 3584 3203 3211 
Q 3513 2838 3513 2113 
z
" transform="scale(0.015625)"/>
      </defs>
      <use xlink:href="#DejaVuSans-54"/>
      <use xlink:href="#DejaVuSans-72" x="46.333984"/>
      <use xlink:href="#DejaVuSans-75" x="87.447266"/>
      <use xlink:href="#DejaVuSans-74" x="150.826172"/>
      <use xlink:href="#DejaVuSans-68" x="190.035156"/>
     </g>
    </g>
   </g>
   <g id="matplotlib.axis_2">
    <g id="ytick_1">
     <g id="line2d_13">
      <path d="M 45 227.541056 
L 324 227.541056 
" clip-path="url(#p0662c3373b)" style="fill: none; stroke: #b0b0b0; stroke-opacity: 0.4; stroke-width: 0.8; stroke-linecap: square"/>
     </g>
     <g id="line2d_14">
      <defs>
       <path id="m14e82b86e1" d="M 0 0 
L -3.5 0 
" style="stroke: #000000; stroke-width: 0.8"/>
      </defs>
      <g>
       <use xlink:href="#m14e82b86e1" x="45" y="227.541056" style="stroke: #000000; stroke-width: 0.8"/>
      </g>
     </g>
     <g id="text_8">
      <!-- 0 -->
      <g transform="translate(31.6375 231.340274)scale(0.1 -0.1)">
       <use xlink:href="#DejaVuSans-30"/>
      </g>
     </g>
    </g>
    <g id="ytick_2">
     <g id="line2d_15">
      <path d="M 45 191.244162 
L 324 191.244162 
" clip-path="url(#p0662c3373b)" style="fill: none; stroke: #b0b0b0; stroke-opacity: 0.4; stroke-width: 0.8; stroke-linecap: square"/>
     </g>
     <g id="line2d_16">
      <g>
       <use xlink:href="#m14e82b86e1" x="45" y="191.244162" style="stroke: #000000; stroke-width: 0.8"/>
      </g>
     </g>
     <g id="text_9">
      <!-- 2 -->
      <g transform="translate(31.6375 195.043381)scale(0.1 -0.1)">
       <use xlink:href="#DejaVuSans-32"/>
      </g>
     </g>
    </g>
    <g id="ytick_3">
     <g id="line2d_17">
      <path d="M 45 154.947268 
L 324 154.947268 
" clip-path="url(#p0662c3373b)" style="fill: none; stroke: #b0b0b0; stroke-opacity: 0.4; stroke-width: 0.8; stroke-linecap: square"/>
     </g>
     <g id="line2d_18">
      <g>
       <use xlink:href="#m14e82b86e1" x="45" y="154.947268" style="stroke: #000000; stroke-width: 0.8"/>
      </g>
     </g>
     <g id="text_10">
      <!-- 4 -->
      <g transform="translate(31.6375 158.746487)scale(0.1 -0.1)">
       <use xlink:href="#DejaVuSans-34"/>
      </g>
     </g>
    </g>
    <g id="ytick_4">
     <g id="line2d_19">
      <path d="M 45 118.650374 
L 324 118.650374 
" clip-path="url(#p0662c3373b)" style="fill: none; stroke: #b0b0b0; stroke-opacity: 0.4; stroke-width: 0.8; stroke-linecap: square"/>
     </g>
     <g id="line2d_20">
      <g>
       <use xlink:href="#m14e82b86e1" x="45" y="118.650374" style="stroke: #000000; stroke-width: 0.8"/>
      </g>
     </g>
     <g id="text_11">
      <!-- 6 -->
      <g transform="translate(31.6375 122.449593)scale(0.1 -0.1)">
       <use xlink:href="#DejaVuSans-36"/>
      </g>
     </g>
    </g>
    <g id="ytick_5">
     <g id="line2d_21">
      <path d="M 45 82.353481 
L 324 82.353481 
" clip-path="url(#p0662c3373b)" style="fill: none; stroke: #b0b0b0; stroke-opacity: 0.4; stroke-width: 0.8; stroke-linecap: square"/>
     </g>
     <g id="line2d_22">
      <g>
       <use xlink:href="#m14e82b86e1" x="45" y="82.353481" style="stroke: #000000; stroke-width: 0.8"/>
      </g>
     </g>
     <g id="text_12">
      <!-- 8 -->
      <g transform="translate(31.6375 86.152699)scale(0.1 -0.1)">
       <use xlink:href="#DejaVuSans-38"/>
      </g>
     </g>
    </g>
    <g id="ytick_6">
     <g id="line2d_23">
      <path d="M 45 46.056587 
L 324 46.056587 
" clip-path="url(#p0662c3373b)" style="fill: none; stroke: #b0b0b0; stroke-opacity: 0.4; stroke-width: 0.8; stroke-linecap: square"/>
     </g>
     <g id="line2d_24">
      <g>
       <use xlink:href="#m14e82b86e1" x="45" y="46.056587" style="stroke: #000000; stroke-width: 0.8"/>
      </g>
     </g>
     <g id="text_13">
      <!-- 10 -->
      <g transform="translate(25.275 49.855806)scale(0.1 -0.1)">
       <use xlink:href="#DejaVuSans-31"/>
       <use xlink:href="#DejaVuSans-30" x="63.623047"/>
      </g>
     </g>
    </g>
    <g id="text_14">
     <!-- Prediction -->
     <g transform="translate(19.195312 163.004719)rotate(-90)scale(0.1 -0.1)">
      <defs>
       <path id="DejaVuSans-50" d="M 1259 4147 
L 1259 2394 
L 2053 2394 
Q 2494 2394 2734 2622 
Q 2975 2850 2975 3272 
Q 2975 3691 2734 3919 
Q 2494 4147 2053 4147 
L 1259 4147 
z
M 628 4666 
L 2053 4666 
Q 2838 4666 3239 4311 
Q 3641 3956 3641 3272 
Q 3641 2581 3239 2228 
Q 2838 1875 2053 1875 
L 1259 1875 
L 1259 0 
L 628 0 
L 628 4666 
z
" transform="scale(0.015625)"/>
       <path id="DejaVuSans-65" d="M 3597 1894 
L 3597 1613 
L 953 1613 
Q 991 1019 1311 708 
Q 1631 397 2203 397 
Q 2534 397 2845 478 
Q 3156 559 3463 722 
L 3463 178 
Q 3153 47 2828 -22 
Q 2503 -91 2169 -91 
Q 1331 -91 842 396 
Q 353 884 353 1716 
Q 353 2575 817 3079 
Q 1281 3584 2069 3584 
Q 2775 3584 3186 3129 
Q 3597 2675 3597 1894 
z
M 3022 2063 
Q 3016 2534 2758 2815 
Q 2500 3097 2075 3097 
Q 1594 3097 1305 2825 
Q 1016 2553 972 2059 
L 3022 2063 
z
" transform="scale(0.015625)"/>
       <path id="DejaVuSans-64" d="M 2906 2969 
L 2906 4863 
L 3481 4863 
L 3481 0 
L 2906 0 
L 2906 525 
Q 2725 213 2448 61 
Q 2172 -91 1784 -91 
Q 1150 -91 751 415 
Q 353 922 353 1747 
Q 353 2572 751 3078 
Q 1150 3584 1784 3584 
Q 2172 3584 2448 3432 
Q 2725 3281 2906 2969 
z
M 947 1747 
Q 947 1113 1208 752 
Q 1469 391 1925 391 
Q 2381 391 2643 752 
Q 2906 1113 2906 1747 
Q 2906 2381 2643 2742 
Q 2381 3103 1925 3103 
Q 1469 3103 1208 2742 
Q 947 2381 947 1747 
z
" transform="scale(0.015625)"/>
       <path id="DejaVuSans-69" d="M 603 3500 
L 1178 3500 
L 1178 0 
L 603 0 
L 603 3500 
z
M 603 4863 
L 1178 4863 
L 1178 4134 
L 603 4134 
L 603 4863 
z
" transform="scale(0.015625)"/>
       <path id="DejaVuSans-63" d="M 3122 3366 
L 3122 2828 
Q 2878 2963 2633 3030 
Q 2388 3097 2138 3097 
Q 1578 3097 1268 2742 
Q 959 2388 959 1747 
Q 959 1106 1268 751 
Q 1578 397 2138 397 
Q 2388 397 2633 464 
Q 2878 531 3122 666 
L 3122 134 
Q 2881 22 2623 -34 
Q 2366 -91 2075 -91 
Q 1284 -91 818 406 
Q 353 903 353 1747 
Q 353 2603 823 3093 
Q 1294 3584 2113 3584 
Q 2378 3584 2631 3529 
Q 2884 3475 3122 3366 
z
" transform="scale(0.015625)"/>
       <path id="DejaVuSans-6f" d="M 1959 3097 
Q 1497 3097 1228 2736 
Q 959 2375 959 1747 
Q 959 1119 1226 758 
Q 1494 397 1959 397 
Q 2419 397 2687 759 
Q 2956 1122 2956 1747 
Q 2956 2369 2687 2733 
Q 2419 3097 1959 3097 
z
M 1959 3584 
Q 2709 3584 3137 3096 
Q 3566 2609 3566 1747 
Q 3566 888 3137 398 
Q 2709 -91 1959 -91 
Q 1206 -91 779 398 
Q 353 888 353 1747 
Q 353 2609 779 3096 
Q 1206 3584 1959 3584 
z
" transform="scale(0.015625)"/>
       <path id="DejaVuSans-6e" d="M 3513 2113 
L 3513 0 
L 2938 0 
L 2938 2094 
Q 2938 2591 2744 2837 
Q 2550 3084 2163 3084 
Q 1697 3084 1428 2787 
Q 1159 2491 1159 1978 
L 1159 0 
L 581 0 
L 581 3500 
L 1159 3500 
L 1159 2956 
Q 1366 3272 1645 3428 
Q 1925 3584 2291 3584 
Q 2894 3584 3203 3211 
Q 3513 2838 3513 2113 
z
" transform="scale(0.015625)"/>
      </defs>
      <use xlink:href="#DejaVuSans-50"/>
      <use xlink:href="#DejaVuSans-72" x="58.552734"/>
      <use xlink:href="#DejaVuSans-65" x="97.416016"/>
      <use xlink:href="#DejaVuSans-64" x="158.939453"/>
      <use xlink:href="#DejaVuSans-69" x="222.416016"/>
      <use xlink:href="#DejaVuSans-63" x="250.199219"/>
      <use xlink:href="#DejaVuSans-74" x="305.179688"/>
      <use xlink:href="#DejaVuSans-69" x="344.388672"/>
      <use xlink:href="#DejaVuSans-6f" x="372.171875"/>
      <use xlink:href="#DejaVuSans-6e" x="433.353516"/>
     </g>
    </g>
   </g>
   <g id="line2d_25">
    <path d="M 57.681818 226.138676 
L 60.243802 224.380493 
L 62.805785 222.62231 
L 65.367769 220.864127 
L 67.929752 219.105944 
L 70.491736 217.347761 
L 73.053719 215.589578 
L 75.615702 213.831396 
L 78.177686 212.073213 
L 80.739669 210.31503 
L 83.301653 208.556847 
L 85.863636 206.798664 
L 88.42562 205.040481 
L 90.987603 203.282298 
L 93.549587 201.524115 
L 96.11157 199.765933 
L 98.673554 198.00775 
L 101.235537 196.249567 
L 103.797521 194.491384 
L 106.359504 192.733201 
L 108.921488 190.975018 
L 111.483471 189.216835 
L 114.045455 187.458652 
L 116.607438 185.70047 
L 119.169421 183.942287 
L 121.731405 182.184104 
L 124.293388 180.425921 
L 126.855372 178.667738 
L 129.417355 176.909555 
L 131.979339 175.151372 
L 134.541322 173.39319 
L 137.103306 171.635007 
L 139.665289 169.876824 
L 142.227273 168.118641 
L 144.789256 166.360458 
L 147.35124 164.602275 
L 149.913223 162.844092 
L 152.475207 161.085909 
L 155.03719 159.327727 
L 157.599174 157.569544 
L 160.161157 155.811361 
L 162.72314 154.053178 
L 165.285124 152.294995 
L 167.847107 150.536812 
L 170.409091 148.778629 
L 172.971074 147.020446 
L 175.533058 145.262264 
L 178.095041 143.504081 
L 180.657025 141.745898 
L 183.219008 139.987715 
L 185.780992 138.229532 
L 188.342975 136.471349 
L 190.904959 134.713166 
L 193.466942 132.954984 
L 196.028926 131.196801 
L 198.590909 129.438618 
L 201.152893 127.680435 
L 203.714876 125.922252 
L 206.27686 124.164069 
L 208.838843 122.405886 
L 211.400826 120.647703 
L 213.96281 118.889521 
L 216.524793 117.131338 
L 219.086777 115.373155 
L 221.64876 113.614972 
L 224.210744 111.856789 
L 226.772727 110.098606 
L 229.334711 108.340423 
L 231.896694 106.58224 
L 234.458678 104.824058 
L 237.020661 103.065875 
L 239.582645 101.307692 
L 242.144628 99.549509 
L 244.706612 97.791326 
L 247.268595 96.033143 
L 249.830579 94.27496 
L 252.392562 92.516778 
L 254.954545 90.758595 
L 257.516529 89.000412 
L 260.078512 87.242229 
L 262.640496 85.484046 
L 265.202479 83.725863 
L 267.764463 81.96768 
L 270.326446 80.209497 
L 272.88843 78.451315 
L 275.450413 76.693132 
L 278.012397 74.934949 
L 280.57438 73.176766 
L 283.136364 71.418583 
L 285.698347 69.6604 
L 288.260331 67.902217 
L 290.822314 66.144034 
L 293.384298 64.385852 
L 295.946281 62.627669 
L 298.508264 60.869486 
L 301.070248 59.111303 
L 303.632231 57.35312 
L 306.194215 55.594937 
L 308.756198 53.836754 
L 311.318182 52.078572 
" clip-path="url(#p0662c3373b)" style="fill: none; stroke: #ff0000; stroke-width: 2.25; stroke-linecap: square"/>
   </g>
   <g id="patch_3">
    <path d="M 45 243.504 
L 45 32.832 
" style="fill: none; stroke: #000000; stroke-width: 0.8; stroke-linejoin: miter; stroke-linecap: square"/>
   </g>
   <g id="patch_4">
    <path d="M 45 243.504 
L 324 243.504 
" style="fill: none; stroke: #000000; stroke-width: 0.8; stroke-linejoin: miter; stroke-linecap: square"/>
   </g>
  </g>
 </g>
 <defs>
  <clipPath id="p0662c3373b">
   <rect x="45" y="32.832" width="279" height="210.672"/>
  </clipPath>
 </defs>
</svg>
