<?xml version="1.0" encoding="utf-8" standalone="no"?>
<!DOCTYPE svg PUBLIC "-//W3C//DTD SVG 1.1//EN"
  "http://www.w3.org/Graphics/SVG/1.1/DTD/svg11.dtd">
<svg xmlns:xlink="http://www.w3.org/1999/xlink" width="360pt" height="273.6pt" viewBox="0 0 360 273.6" xmlns="http://www.w3.org/2000/svg" version="1.1">
 <metadata>
  <rdf:RDF xmlns:dc="http://purl.org/dc/elements/1.1/" xmlns:cc="http://creativecommons.org/ns#" xmlns:rdf="http://www.w3.org/1999/02/22-rdf-syntax-ns#">
   <cc:Work>
    <dc:type rdf:resource="http://purl.org/dc/dcmitype/StillImage"/>
    <dc:date>2021-12-10T13:45:05.113513</dc:date>
    <dc:format>image/svg+xml</dc:format>
    <dc:creator>
     <cc:Agent>
      <dc:title>Matplotlib v3.5.0, https://matplotlib.org/</dc:title>
     </cc:Agent>
    </dc:creator>
   </cc:Work>
  </rdf:RDF>
 </metadata>
 <defs>
  <style type="text/css">*{stroke-linejoin: round; stroke-linecap: butt}</style>
 </defs>
 <g id="figure_1">
  <g id="patch_1">
   <path d="M 0 273.6 
L 360 273.6 
L 360 0 
L 0 0 
z
" style="fill: #ffffff"/>
  </g>
  <g id="axes_1">
   <g id="patch_2">
    <path d="M 45 243.504 
L 324 243.504 
L 324 32.832 
L 45 32.832 
z
" style="fill: #ffffff"/>
   </g>
   <g id="PathCollection_1">
    <defs>
     <path id="m4b6e24c3b9" d="M 0 3 
C 0.795609 3 1.55874 2.683901 2.12132 2.12132 
C 2.683901 1.55874 3 0.795609 3 0 
C 3 -0.795609 2.683901 -1.55874 2.12132 -2.12132 
C 1.55874 -2.683901 0.795609 -3 0 -3 
C -0.795609 -3 -1.55874 -2.683901 -2.12132 -2.12132 
C -2.683901 -1.55874 -3 -0.795609 -3 0 
C -3 0.795609 -2.683901 1.55874 -2.12132 2.12132 
C -1.55874 2.683901 -0.795609 3 0 3 
z
" style="stroke: #1f77b4; stroke-opacity: 0.8"/>
    </defs>
    <g clip-path="url(#pc08ba347cd)">
     <use xlink:href="#m4b6e24c3b9" x="57.681818" y="225.975854" style="fill: #1f77b4; fill-opacity: 0.8; stroke: #1f77b4; stroke-opacity: 0.8"/>
     <use xlink:href="#m4b6e24c3b9" x="83.045455" y="213.22241" style="fill: #1f77b4; fill-opacity: 0.8; stroke: #1f77b4; stroke-opacity: 0.8"/>
     <use xlink:href="#m4b6e24c3b9" x="108.409091" y="185.893602" style="fill: #1f77b4; fill-opacity: 0.8; stroke: #1f77b4; stroke-opacity: 0.8"/>
     <use xlink:href="#m4b6e24c3b9" x="133.772727" y="184.071682" style="fill: #1f77b4; fill-opacity: 0.8; stroke: #1f77b4; stroke-opacity: 0.8"/>
     <use xlink:href="#m4b6e24c3b9" x="159.136364" y="156.742874" style="fill: #1f77b4; fill-opacity: 0.8; stroke: #1f77b4; stroke-opacity: 0.8"/>
     <use xlink:href="#m4b6e24c3b9" x="184.5" y="136.701748" style="fill: #1f77b4; fill-opacity: 0.8; stroke: #1f77b4; stroke-opacity: 0.8"/>
     <use xlink:href="#m4b6e24c3b9" x="209.863636" y="114.838702" style="fill: #1f77b4; fill-opacity: 0.8; stroke: #1f77b4; stroke-opacity: 0.8"/>
     <use xlink:href="#m4b6e24c3b9" x="235.227273" y="98.441417" style="fill: #1f77b4; fill-opacity: 0.8; stroke: #1f77b4; stroke-opacity: 0.8"/>
     <use xlink:href="#m4b6e24c3b9" x="260.590909" y="85.687974" style="fill: #1f77b4; fill-opacity: 0.8; stroke: #1f77b4; stroke-opacity: 0.8"/>
     <use xlink:href="#m4b6e24c3b9" x="285.954545" y="63.824927" style="fill: #1f77b4; fill-opacity: 0.8; stroke: #1f77b4; stroke-opacity: 0.8"/>
     <use xlink:href="#m4b6e24c3b9" x="311.318182" y="63.824927" style="fill: #1f77b4; fill-opacity: 0.8; stroke: #1f77b4; stroke-opacity: 0.8"/>
    </g>
   </g>
   <g id="PolyCollection_1">
    <path d="M 57.681818 218.785344 
L 57.681818 233.928 
L 60.243802 231.967894 
L 62.805785 230.056254 
L 65.367769 228.199393 
L 67.929752 226.342531 
L 70.491736 224.48567 
L 73.053719 222.597822 
L 75.615702 220.697798 
L 78.177686 218.795685 
L 80.739669 216.893561 
L 83.301653 214.970711 
L 85.863636 213.091806 
L 88.42562 211.26006 
L 90.987603 209.358396 
L 93.549587 207.391639 
L 96.11157 205.515198 
L 98.673554 203.654821 
L 101.235537 201.711412 
L 103.797521 199.784819 
L 106.359504 197.882984 
L 108.921488 195.98115 
L 111.483471 194.067759 
L 114.045455 192.191131 
L 116.607438 190.340066 
L 119.169421 188.41684 
L 121.731405 186.53049 
L 124.293388 184.726315 
L 126.855372 182.92258 
L 129.417355 181.157512 
L 131.979339 179.263502 
L 134.541322 177.434325 
L 137.103306 175.539156 
L 139.665289 173.741593 
L 142.227273 172.000224 
L 144.789256 170.190021 
L 147.35124 168.421257 
L 149.913223 166.686533 
L 152.475207 164.835024 
L 155.03719 162.922192 
L 157.599174 161.119588 
L 160.161157 159.316428 
L 162.72314 157.535686 
L 165.285124 155.795052 
L 167.847107 154.056933 
L 170.409091 152.320059 
L 172.971074 150.605287 
L 175.533058 148.846546 
L 178.095041 147.111359 
L 180.657025 145.374365 
L 183.219008 143.63588 
L 185.780992 141.897713 
L 188.342975 140.161387 
L 190.904959 138.425061 
L 193.466942 136.719698 
L 196.028926 135.021701 
L 198.590909 133.347459 
L 201.152893 131.676317 
L 203.714876 130.013896 
L 206.27686 128.241687 
L 208.838843 126.589203 
L 211.400826 124.889349 
L 213.96281 123.195546 
L 216.524793 121.462646 
L 219.086777 119.789455 
L 221.64876 118.047902 
L 224.210744 116.349078 
L 226.772727 114.650222 
L 229.334711 112.951366 
L 231.896694 111.226193 
L 234.458678 109.482832 
L 237.020661 107.801297 
L 239.582645 106.140486 
L 242.144628 104.417907 
L 244.706612 102.731943 
L 247.268595 101.054325 
L 249.830579 99.369595 
L 252.392562 97.683964 
L 254.954545 95.989283 
L 257.516529 94.278079 
L 260.078512 92.594958 
L 262.640496 90.935413 
L 265.202479 89.286965 
L 267.764463 87.636513 
L 270.326446 85.946343 
L 272.88843 84.294107 
L 275.450413 82.64247 
L 278.012397 80.990354 
L 280.57438 79.337219 
L 283.136364 77.669095 
L 285.698347 75.973932 
L 288.260331 74.289903 
L 290.822314 72.664857 
L 293.384298 71.057602 
L 295.946281 69.354672 
L 298.508264 67.706117 
L 301.070248 66.064025 
L 303.632231 64.421934 
L 306.194215 62.779842 
L 308.756198 61.13775 
L 311.318182 59.495658 
L 311.318182 42.408 
L 311.318182 42.408 
L 308.756198 44.281085 
L 306.194215 46.196268 
L 303.632231 48.1356 
L 301.070248 50.075468 
L 298.508264 52.015336 
L 295.946281 53.923071 
L 293.384298 55.86578 
L 290.822314 57.786443 
L 288.260331 59.675001 
L 285.698347 61.538342 
L 283.136364 63.429545 
L 280.57438 65.389761 
L 278.012397 67.326801 
L 275.450413 69.207446 
L 272.88843 71.08809 
L 270.326446 72.994513 
L 267.764463 74.895246 
L 265.202479 76.788366 
L 262.640496 78.745535 
L 260.078512 80.656017 
L 257.516529 82.534555 
L 254.954545 84.42151 
L 252.392562 86.299088 
L 249.830579 88.176666 
L 247.268595 90.054243 
L 244.706612 91.931821 
L 242.144628 93.794378 
L 239.582645 95.688292 
L 237.020661 97.566516 
L 234.458678 99.453312 
L 231.896694 101.34063 
L 229.334711 103.222574 
L 226.772727 105.132557 
L 224.210744 106.973939 
L 221.64876 108.765686 
L 219.086777 110.63141 
L 216.524793 112.540927 
L 213.96281 114.392832 
L 211.400826 116.253388 
L 208.838843 118.099391 
L 206.27686 119.938698 
L 203.714876 121.812356 
L 201.152893 123.664953 
L 198.590909 125.483355 
L 196.028926 127.283826 
L 193.466942 129.135927 
L 190.904959 130.92371 
L 188.342975 132.67806 
L 185.780992 134.459701 
L 183.219008 136.249357 
L 180.657025 138.038964 
L 178.095041 139.841011 
L 175.533058 141.603484 
L 172.971074 143.330437 
L 170.409091 145.086223 
L 167.847107 146.883285 
L 165.285124 148.539959 
L 162.72314 150.296145 
L 160.161157 151.956096 
L 157.599174 153.644342 
L 155.03719 155.346971 
L 152.475207 157.072573 
L 149.913223 158.777999 
L 147.35124 160.500784 
L 144.789256 162.221035 
L 142.227273 163.943247 
L 139.665289 165.6791 
L 137.103306 167.387229 
L 134.541322 169.07457 
L 131.979339 170.762869 
L 129.417355 172.45702 
L 126.855372 174.121419 
L 124.293388 175.813678 
L 121.731405 177.471697 
L 119.169421 179.142716 
L 116.607438 180.800463 
L 114.045455 182.444284 
L 111.483471 184.101343 
L 108.921488 185.758402 
L 106.359504 187.415461 
L 103.797521 189.072519 
L 101.235537 190.729578 
L 98.673554 192.386637 
L 96.11157 193.994563 
L 93.549587 195.597735 
L 90.987603 197.200907 
L 88.42562 198.836879 
L 85.863636 200.487476 
L 83.301653 202.153368 
L 80.739669 203.819259 
L 78.177686 205.485268 
L 75.615702 207.151996 
L 73.053719 208.818724 
L 70.491736 210.485452 
L 67.929752 212.108895 
L 65.367769 213.765017 
L 62.805785 215.438363 
L 60.243802 217.111853 
L 57.681818 218.785344 
z
" clip-path="url(#pc08ba347cd)" style="fill: #ff0000; fill-opacity: 0.15"/>
   </g>
   <g id="matplotlib.axis_1">
    <g id="xtick_1">
     <g id="line2d_1">
      <path d="M 57.681818 243.504 
L 57.681818 32.832 
" clip-path="url(#pc08ba347cd)" style="fill: none; stroke: #b0b0b0; stroke-opacity: 0.4; stroke-width: 0.8; stroke-linecap: square"/>
     </g>
     <g id="line2d_2">
      <defs>
       <path id="mace9c81a5d" d="M 0 0 
L 0 3.5 
" style="stroke: #000000; stroke-width: 0.8"/>
      </defs>
      <g>
       <use xlink:href="#mace9c81a5d" x="57.681818" y="243.504" style="stroke: #000000; stroke-width: 0.8"/>
      </g>
     </g>
     <g id="text_1">
      <!-- 0 -->
      <g transform="translate(54.500568 258.102437)scale(0.1 -0.1)">
       <defs>
        <path id="DejaVuSans-30" d="M 2034 4250 
Q 1547 4250 1301 3770 
Q 1056 3291 1056 2328 
Q 1056 1369 1301 889 
Q 1547 409 2034 409 
Q 2525 409 2770 889 
Q 3016 1369 3016 2328 
Q 3016 3291 2770 3770 
Q 2525 4250 2034 4250 
z
M 2034 4750 
Q 2819 4750 3233 4129 
Q 3647 3509 3647 2328 
Q 3647 1150 3233 529 
Q 2819 -91 2034 -91 
Q 1250 -91 836 529 
Q 422 1150 422 2328 
Q 422 3509 836 4129 
Q 1250 4750 2034 4750 
z
" transform="scale(0.015625)"/>
       </defs>
       <use xlink:href="#DejaVuSans-30"/>
      </g>
     </g>
    </g>
    <g id="xtick_2">
     <g id="line2d_3">
      <path d="M 108.409091 243.504 
L 108.409091 32.832 
" clip-path="url(#pc08ba347cd)" style="fill: none; stroke: #b0b0b0; stroke-opacity: 0.4; stroke-width: 0.8; stroke-linecap: square"/>
     </g>
     <g id="line2d_4">
      <g>
       <use xlink:href="#mace9c81a5d" x="108.409091" y="243.504" style="stroke: #000000; stroke-width: 0.8"/>
      </g>
     </g>
     <g id="text_2">
      <!-- 2 -->
      <g transform="translate(105.227841 258.102437)scale(0.1 -0.1)">
       <defs>
        <path id="DejaVuSans-32" d="M 1228 531 
L 3431 531 
L 3431 0 
L 469 0 
L 469 531 
Q 828 903 1448 1529 
Q 2069 2156 2228 2338 
Q 2531 2678 2651 2914 
Q 2772 3150 2772 3378 
Q 2772 3750 2511 3984 
Q 2250 4219 1831 4219 
Q 1534 4219 1204 4116 
Q 875 4013 500 3803 
L 500 4441 
Q 881 4594 1212 4672 
Q 1544 4750 1819 4750 
Q 2544 4750 2975 4387 
Q 3406 4025 3406 3419 
Q 3406 3131 3298 2873 
Q 3191 2616 2906 2266 
Q 2828 2175 2409 1742 
Q 1991 1309 1228 531 
z
" transform="scale(0.015625)"/>
       </defs>
       <use xlink:href="#DejaVuSans-32"/>
      </g>
     </g>
    </g>
    <g id="xtick_3">
     <g id="line2d_5">
      <path d="M 159.136364 243.504 
L 159.136364 32.832 
" clip-path="url(#pc08ba347cd)" style="fill: none; stroke: #b0b0b0; stroke-opacity: 0.4; stroke-width: 0.8; stroke-linecap: square"/>
     </g>
     <g id="line2d_6">
      <g>
       <use xlink:href="#mace9c81a5d" x="159.136364" y="243.504" style="stroke: #000000; stroke-width: 0.8"/>
      </g>
     </g>
     <g id="text_3">
      <!-- 4 -->
      <g transform="translate(155.955114 258.102437)scale(0.1 -0.1)">
       <defs>
        <path id="DejaVuSans-34" d="M 2419 4116 
L 825 1625 
L 2419 1625 
L 2419 4116 
z
M 2253 4666 
L 3047 4666 
L 3047 1625 
L 3713 1625 
L 3713 1100 
L 3047 1100 
L 3047 0 
L 2419 0 
L 2419 1100 
L 313 1100 
L 313 1709 
L 2253 4666 
z
" transform="scale(0.015625)"/>
       </defs>
       <use xlink:href="#DejaVuSans-34"/>
      </g>
     </g>
    </g>
    <g id="xtick_4">
     <g id="line2d_7">
      <path d="M 209.863636 243.504 
L 209.863636 32.832 
" clip-path="url(#pc08ba347cd)" style="fill: none; stroke: #b0b0b0; stroke-opacity: 0.4; stroke-width: 0.8; stroke-linecap: square"/>
     </g>
     <g id="line2d_8">
      <g>
       <use xlink:href="#mace9c81a5d" x="209.863636" y="243.504" style="stroke: #000000; stroke-width: 0.8"/>
      </g>
     </g>
     <g id="text_4">
      <!-- 6 -->
      <g transform="translate(206.682386 258.102437)scale(0.1 -0.1)">
       <defs>
        <path id="DejaVuSans-36" d="M 2113 2584 
Q 1688 2584 1439 2293 
Q 1191 2003 1191 1497 
Q 1191 994 1439 701 
Q 1688 409 2113 409 
Q 2538 409 2786 701 
Q 3034 994 3034 1497 
Q 3034 2003 2786 2293 
Q 2538 2584 2113 2584 
z
M 3366 4563 
L 3366 3988 
Q 3128 4100 2886 4159 
Q 2644 4219 2406 4219 
Q 1781 4219 1451 3797 
Q 1122 3375 1075 2522 
Q 1259 2794 1537 2939 
Q 1816 3084 2150 3084 
Q 2853 3084 3261 2657 
Q 3669 2231 3669 1497 
Q 3669 778 3244 343 
Q 2819 -91 2113 -91 
Q 1303 -91 875 529 
Q 447 1150 447 2328 
Q 447 3434 972 4092 
Q 1497 4750 2381 4750 
Q 2619 4750 2861 4703 
Q 3103 4656 3366 4563 
z
" transform="scale(0.015625)"/>
       </defs>
       <use xlink:href="#DejaVuSans-36"/>
      </g>
     </g>
    </g>
    <g id="xtick_5">
     <g id="line2d_9">
      <path d="M 260.590909 243.504 
L 260.590909 32.832 
" clip-path="url(#pc08ba347cd)" style="fill: none; stroke: #b0b0b0; stroke-opacity: 0.4; stroke-width: 0.8; stroke-linecap: square"/>
     </g>
     <g id="line2d_10">
      <g>
       <use xlink:href="#mace9c81a5d" x="260.590909" y="243.504" style="stroke: #000000; stroke-width: 0.8"/>
      </g>
     </g>
     <g id="text_5">
      <!-- 8 -->
      <g transform="translate(257.409659 258.102437)scale(0.1 -0.1)">
       <defs>
        <path id="DejaVuSans-38" d="M 2034 2216 
Q 1584 2216 1326 1975 
Q 1069 1734 1069 1313 
Q 1069 891 1326 650 
Q 1584 409 2034 409 
Q 2484 409 2743 651 
Q 3003 894 3003 1313 
Q 3003 1734 2745 1975 
Q 2488 2216 2034 2216 
z
M 1403 2484 
Q 997 2584 770 2862 
Q 544 3141 544 3541 
Q 544 4100 942 4425 
Q 1341 4750 2034 4750 
Q 2731 4750 3128 4425 
Q 3525 4100 3525 3541 
Q 3525 3141 3298 2862 
Q 3072 2584 2669 2484 
Q 3125 2378 3379 2068 
Q 3634 1759 3634 1313 
Q 3634 634 3220 271 
Q 2806 -91 2034 -91 
Q 1263 -91 848 271 
Q 434 634 434 1313 
Q 434 1759 690 2068 
Q 947 2378 1403 2484 
z
M 1172 3481 
Q 1172 3119 1398 2916 
Q 1625 2713 2034 2713 
Q 2441 2713 2670 2916 
Q 2900 3119 2900 3481 
Q 2900 3844 2670 4047 
Q 2441 4250 2034 4250 
Q 1625 4250 1398 4047 
Q 1172 3844 1172 3481 
z
" transform="scale(0.015625)"/>
       </defs>
       <use xlink:href="#DejaVuSans-38"/>
      </g>
     </g>
    </g>
    <g id="xtick_6">
     <g id="line2d_11">
      <path d="M 311.318182 243.504 
L 311.318182 32.832 
" clip-path="url(#pc08ba347cd)" style="fill: none; stroke: #b0b0b0; stroke-opacity: 0.4; stroke-width: 0.8; stroke-linecap: square"/>
     </g>
     <g id="line2d_12">
      <g>
       <use xlink:href="#mace9c81a5d" x="311.318182" y="243.504" style="stroke: #000000; stroke-width: 0.8"/>
      </g>
     </g>
     <g id="text_6">
      <!-- 10 -->
      <g transform="translate(304.955682 258.102437)scale(0.1 -0.1)">
       <defs>
        <path id="DejaVuSans-31" d="M 794 531 
L 1825 531 
L 1825 4091 
L 703 3866 
L 703 4441 
L 1819 4666 
L 2450 4666 
L 2450 531 
L 3481 531 
L 3481 0 
L 794 0 
L 794 531 
z
" transform="scale(0.015625)"/>
       </defs>
       <use xlink:href="#DejaVuSans-31"/>
       <use xlink:href="#DejaVuSans-30" x="63.623047"/>
      </g>
     </g>
    </g>
    <g id="text_7">
     <!-- Truth -->
     <g transform="translate(171.830469 271.780562)scale(0.1 -0.1)">
      <defs>
       <path id="DejaVuSans-54" d="M -19 4666 
L 3928 4666 
L 3928 4134 
L 2272 4134 
L 2272 0 
L 1638 0 
L 1638 4134 
L -19 4134 
L -19 4666 
z
" transform="scale(0.015625)"/>
       <path id="DejaVuSans-72" d="M 2631 2963 
Q 2534 3019 2420 3045 
Q 2306 3072 2169 3072 
Q 1681 3072 1420 2755 
Q 1159 2438 1159 1844 
L 1159 0 
L 581 0 
L 581 3500 
L 1159 3500 
L 1159 2956 
Q 1341 3275 1631 3429 
Q 1922 3584 2338 3584 
Q 2397 3584 2469 3576 
Q 2541 3569 2628 3553 
L 2631 2963 
z
" transform="scale(0.015625)"/>
       <path id="DejaVuSans-75" d="M 544 1381 
L 544 3500 
L 1119 3500 
L 1119 1403 
Q 1119 906 1312 657 
Q 1506 409 1894 409 
Q 2359 409 2629 706 
Q 2900 1003 2900 1516 
L 2900 3500 
L 3475 3500 
L 3475 0 
L 2900 0 
L 2900 538 
Q 2691 219 2414 64 
Q 2138 -91 1772 -91 
Q 1169 -91 856 284 
Q 544 659 544 1381 
z
M 1991 3584 
L 1991 3584 
z
" transform="scale(0.015625)"/>
       <path id="DejaVuSans-74" d="M 1172 4494 
L 1172 3500 
L 2356 3500 
L 2356 3053 
L 1172 3053 
L 1172 1153 
Q 1172 725 1289 603 
Q 1406 481 1766 481 
L 2356 481 
L 2356 0 
L 1766 0 
Q 1100 0 847 248 
Q 594 497 594 1153 
L 594 3053 
L 172 3053 
L 172 3500 
L 594 3500 
L 594 4494 
L 1172 4494 
z
" transform="scale(0.015625)"/>
       <path id="DejaVuSans-68" d="M 3513 2113 
L 3513 0 
L 2938 0 
L 2938 2094 
Q 2938 2591 2744 2837 
Q 2550 3084 2163 3084 
Q 1697 3084 1428 2787 
Q 1159 2491 1159 1978 
L 1159 0 
L 581 0 
L 581 4863 
L 1159 4863 
L 1159 2956 
Q 1366 3272 1645 3428 
Q 1925 3584 2291 3584 
Q 2894 3584 3203 3211 
Q 3513 2838 3513 2113 
z
" transform="scale(0.015625)"/>
      </defs>
      <use xlink:href="#DejaVuSans-54"/>
      <use xlink:href="#DejaVuSans-72" x="46.333984"/>
      <use xlink:href="#DejaVuSans-75" x="87.447266"/>
      <use xlink:href="#DejaVuSans-74" x="150.826172"/>
      <use xlink:href="#DejaVuSans-68" x="190.035156"/>
     </g>
    </g>
   </g>
   <g id="matplotlib.axis_2">
    <g id="ytick_1">
     <g id="line2d_13">
      <path d="M 45 227.797774 
L 324 227.797774 
" clip-path="url(#pc08ba347cd)" style="fill: none; stroke: #b0b0b0; stroke-opacity: 0.4; stroke-width: 0.8; stroke-linecap: square"/>
     </g>
     <g id="line2d_14">
      <defs>
       <path id="m2957d4baa9" d="M 0 0 
L -3.5 0 
" style="stroke: #000000; stroke-width: 0.8"/>
      </defs>
      <g>
       <use xlink:href="#m2957d4baa9" x="45" y="227.797774" style="stroke: #000000; stroke-width: 0.8"/>
      </g>
     </g>
     <g id="text_8">
      <!-- 0 -->
      <g transform="translate(31.6375 231.596993)scale(0.1 -0.1)">
       <use xlink:href="#DejaVuSans-30"/>
      </g>
     </g>
    </g>
    <g id="ytick_2">
     <g id="line2d_15">
      <path d="M 45 191.359364 
L 324 191.359364 
" clip-path="url(#pc08ba347cd)" style="fill: none; stroke: #b0b0b0; stroke-opacity: 0.4; stroke-width: 0.8; stroke-linecap: square"/>
     </g>
     <g id="line2d_16">
      <g>
       <use xlink:href="#m2957d4baa9" x="45" y="191.359364" style="stroke: #000000; stroke-width: 0.8"/>
      </g>
     </g>
     <g id="text_9">
      <!-- 2 -->
      <g transform="translate(31.6375 195.158583)scale(0.1 -0.1)">
       <use xlink:href="#DejaVuSans-32"/>
      </g>
     </g>
    </g>
    <g id="ytick_3">
     <g id="line2d_17">
      <path d="M 45 154.920953 
L 324 154.920953 
" clip-path="url(#pc08ba347cd)" style="fill: none; stroke: #b0b0b0; stroke-opacity: 0.4; stroke-width: 0.8; stroke-linecap: square"/>
     </g>
     <g id="line2d_18">
      <g>
       <use xlink:href="#m2957d4baa9" x="45" y="154.920953" style="stroke: #000000; stroke-width: 0.8"/>
      </g>
     </g>
     <g id="text_10">
      <!-- 4 -->
      <g transform="translate(31.6375 158.720172)scale(0.1 -0.1)">
       <use xlink:href="#DejaVuSans-34"/>
      </g>
     </g>
    </g>
    <g id="ytick_4">
     <g id="line2d_19">
      <path d="M 45 118.482543 
L 324 118.482543 
" clip-path="url(#pc08ba347cd)" style="fill: none; stroke: #b0b0b0; stroke-opacity: 0.4; stroke-width: 0.8; stroke-linecap: square"/>
     </g>
     <g id="line2d_20">
      <g>
       <use xlink:href="#m2957d4baa9" x="45" y="118.482543" style="stroke: #000000; stroke-width: 0.8"/>
      </g>
     </g>
     <g id="text_11">
      <!-- 6 -->
      <g transform="translate(31.6375 122.281762)scale(0.1 -0.1)">
       <use xlink:href="#DejaVuSans-36"/>
      </g>
     </g>
    </g>
    <g id="ytick_5">
     <g id="line2d_21">
      <path d="M 45 82.044133 
L 324 82.044133 
" clip-path="url(#pc08ba347cd)" style="fill: none; stroke: #b0b0b0; stroke-opacity: 0.4; stroke-width: 0.8; stroke-linecap: square"/>
     </g>
     <g id="line2d_22">
      <g>
       <use xlink:href="#m2957d4baa9" x="45" y="82.044133" style="stroke: #000000; stroke-width: 0.8"/>
      </g>
     </g>
     <g id="text_12">
      <!-- 8 -->
      <g transform="translate(31.6375 85.843351)scale(0.1 -0.1)">
       <use xlink:href="#DejaVuSans-38"/>
      </g>
     </g>
    </g>
    <g id="ytick_6">
     <g id="line2d_23">
      <path d="M 45 45.605722 
L 324 45.605722 
" clip-path="url(#pc08ba347cd)" style="fill: none; stroke: #b0b0b0; stroke-opacity: 0.4; stroke-width: 0.8; stroke-linecap: square"/>
     </g>
     <g id="line2d_24">
      <g>
       <use xlink:href="#m2957d4baa9" x="45" y="45.605722" style="stroke: #000000; stroke-width: 0.8"/>
      </g>
     </g>
     <g id="text_13">
      <!-- 10 -->
      <g transform="translate(25.275 49.404941)scale(0.1 -0.1)">
       <use xlink:href="#DejaVuSans-31"/>
       <use xlink:href="#DejaVuSans-30" x="63.623047"/>
      </g>
     </g>
    </g>
    <g id="text_14">
     <!-- Prediction -->
     <g transform="translate(19.195312 163.004719)rotate(-90)scale(0.1 -0.1)">
      <defs>
       <path id="DejaVuSans-50" d="M 1259 4147 
L 1259 2394 
L 2053 2394 
Q 2494 2394 2734 2622 
Q 2975 2850 2975 3272 
Q 2975 3691 2734 3919 
Q 2494 4147 2053 4147 
L 1259 4147 
z
M 628 4666 
L 2053 4666 
Q 2838 4666 3239 4311 
Q 3641 3956 3641 3272 
Q 3641 2581 3239 2228 
Q 2838 1875 2053 1875 
L 1259 1875 
L 1259 0 
L 628 0 
L 628 4666 
z
" transform="scale(0.015625)"/>
       <path id="DejaVuSans-65" d="M 3597 1894 
L 3597 1613 
L 953 1613 
Q 991 1019 1311 708 
Q 1631 397 2203 397 
Q 2534 397 2845 478 
Q 3156 559 3463 722 
L 3463 178 
Q 3153 47 2828 -22 
Q 2503 -91 2169 -91 
Q 1331 -91 842 396 
Q 353 884 353 1716 
Q 353 2575 817 3079 
Q 1281 3584 2069 3584 
Q 2775 3584 3186 3129 
Q 3597 2675 3597 1894 
z
M 3022 2063 
Q 3016 2534 2758 2815 
Q 2500 3097 2075 3097 
Q 1594 3097 1305 2825 
Q 1016 2553 972 2059 
L 3022 2063 
z
" transform="scale(0.015625)"/>
       <path id="DejaVuSans-64" d="M 2906 2969 
L 2906 4863 
L 3481 4863 
L 3481 0 
L 2906 0 
L 2906 525 
Q 2725 213 2448 61 
Q 2172 -91 1784 -91 
Q 1150 -91 751 415 
Q 353 922 353 1747 
Q 353 2572 751 3078 
Q 1150 3584 1784 3584 
Q 2172 3584 2448 3432 
Q 2725 3281 2906 2969 
z
M 947 1747 
Q 947 1113 1208 752 
Q 1469 391 1925 391 
Q 2381 391 2643 752 
Q 2906 1113 2906 1747 
Q 2906 2381 2643 2742 
Q 2381 3103 1925 3103 
Q 1469 3103 1208 2742 
Q 947 2381 947 1747 
z
" transform="scale(0.015625)"/>
       <path id="DejaVuSans-69" d="M 603 3500 
L 1178 3500 
L 1178 0 
L 603 0 
L 603 3500 
z
M 603 4863 
L 1178 4863 
L 1178 4134 
L 603 4134 
L 603 4863 
z
" transform="scale(0.015625)"/>
       <path id="DejaVuSans-63" d="M 3122 3366 
L 3122 2828 
Q 2878 2963 2633 3030 
Q 2388 3097 2138 3097 
Q 1578 3097 1268 2742 
Q 959 2388 959 1747 
Q 959 1106 1268 751 
Q 1578 397 2138 397 
Q 2388 397 2633 464 
Q 2878 531 3122 666 
L 3122 134 
Q 2881 22 2623 -34 
Q 2366 -91 2075 -91 
Q 1284 -91 818 406 
Q 353 903 353 1747 
Q 353 2603 823 3093 
Q 1294 3584 2113 3584 
Q 2378 3584 2631 3529 
Q 2884 3475 3122 3366 
z
" transform="scale(0.015625)"/>
       <path id="DejaVuSans-6f" d="M 1959 3097 
Q 1497 3097 1228 2736 
Q 959 2375 959 1747 
Q 959 1119 1226 758 
Q 1494 397 1959 397 
Q 2419 397 2687 759 
Q 2956 1122 2956 1747 
Q 2956 2369 2687 2733 
Q 2419 3097 1959 3097 
z
M 1959 3584 
Q 2709 3584 3137 3096 
Q 3566 2609 3566 1747 
Q 3566 888 3137 398 
Q 2709 -91 1959 -91 
Q 1206 -91 779 398 
Q 353 888 353 1747 
Q 353 2609 779 3096 
Q 1206 3584 1959 3584 
z
" transform="scale(0.015625)"/>
       <path id="DejaVuSans-6e" d="M 3513 2113 
L 3513 0 
L 2938 0 
L 2938 2094 
Q 2938 2591 2744 2837 
Q 2550 3084 2163 3084 
Q 1697 3084 1428 2787 
Q 1159 2491 1159 1978 
L 1159 0 
L 581 0 
L 581 3500 
L 1159 3500 
L 1159 2956 
Q 1366 3272 1645 3428 
Q 1925 3584 2291 3584 
Q 2894 3584 3203 3211 
Q 3513 2838 3513 2113 
z
" transform="scale(0.015625)"/>
      </defs>
      <use xlink:href="#DejaVuSans-50"/>
      <use xlink:href="#DejaVuSans-72" x="58.552734"/>
      <use xlink:href="#DejaVuSans-65" x="97.416016"/>
      <use xlink:href="#DejaVuSans-64" x="158.939453"/>
      <use xlink:href="#DejaVuSans-69" x="222.416016"/>
      <use xlink:href="#DejaVuSans-63" x="250.199219"/>
      <use xlink:href="#DejaVuSans-74" x="305.179688"/>
      <use xlink:href="#DejaVuSans-69" x="344.388672"/>
      <use xlink:href="#DejaVuSans-6f" x="372.171875"/>
      <use xlink:href="#DejaVuSans-6e" x="433.353516"/>
     </g>
    </g>
   </g>
   <g id="line2d_25">
    <path d="M 57.681818 226.389927 
L 60.243802 224.624889 
L 62.805785 222.859851 
L 65.367769 221.094813 
L 67.929752 219.329775 
L 70.491736 217.564738 
L 73.053719 215.7997 
L 75.615702 214.034662 
L 78.177686 212.269624 
L 80.739669 210.504586 
L 83.301653 208.739549 
L 85.863636 206.974511 
L 88.42562 205.209473 
L 90.987603 203.444435 
L 93.549587 201.679398 
L 96.11157 199.91436 
L 98.673554 198.149322 
L 101.235537 196.384284 
L 103.797521 194.619246 
L 106.359504 192.854209 
L 108.921488 191.089171 
L 111.483471 189.324133 
L 114.045455 187.559095 
L 116.607438 185.794057 
L 119.169421 184.02902 
L 121.731405 182.263982 
L 124.293388 180.498944 
L 126.855372 178.733906 
L 129.417355 176.968869 
L 131.979339 175.203831 
L 134.541322 173.438793 
L 137.103306 171.673755 
L 139.665289 169.908717 
L 142.227273 168.14368 
L 144.789256 166.378642 
L 147.35124 164.613604 
L 149.913223 162.848566 
L 152.475207 161.083528 
L 155.03719 159.318491 
L 157.599174 157.553453 
L 160.161157 155.788415 
L 162.72314 154.023377 
L 165.285124 152.25834 
L 167.847107 150.493302 
L 170.409091 148.728264 
L 172.971074 146.963226 
L 175.533058 145.198188 
L 178.095041 143.433151 
L 180.657025 141.668113 
L 183.219008 139.903075 
L 185.780992 138.138037 
L 188.342975 136.372999 
L 190.904959 134.607962 
L 193.466942 132.842924 
L 196.028926 131.077886 
L 198.590909 129.312848 
L 201.152893 127.547811 
L 203.714876 125.782773 
L 206.27686 124.017735 
L 208.838843 122.252697 
L 211.400826 120.487659 
L 213.96281 118.722622 
L 216.524793 116.957584 
L 219.086777 115.192546 
L 221.64876 113.427508 
L 224.210744 111.66247 
L 226.772727 109.897433 
L 229.334711 108.132395 
L 231.896694 106.367357 
L 234.458678 104.602319 
L 237.020661 102.837282 
L 239.582645 101.072244 
L 242.144628 99.307206 
L 244.706612 97.542168 
L 247.268595 95.77713 
L 249.830579 94.012093 
L 252.392562 92.247055 
L 254.954545 90.482017 
L 257.516529 88.716979 
L 260.078512 86.951941 
L 262.640496 85.186904 
L 265.202479 83.421866 
L 267.764463 81.656828 
L 270.326446 79.89179 
L 272.88843 78.126753 
L 275.450413 76.361715 
L 278.012397 74.596677 
L 280.57438 72.831639 
L 283.136364 71.066601 
L 285.698347 69.301564 
L 288.260331 67.536526 
L 290.822314 65.771488 
L 293.384298 64.00645 
L 295.946281 62.241412 
L 298.508264 60.476375 
L 301.070248 58.711337 
L 303.632231 56.946299 
L 306.194215 55.181261 
L 308.756198 53.416224 
L 311.318182 51.651186 
" clip-path="url(#pc08ba347cd)" style="fill: none; stroke: #ff0000; stroke-width: 2.25; stroke-linecap: square"/>
   </g>
   <g id="patch_3">
    <path d="M 45 243.504 
L 45 32.832 
" style="fill: none; stroke: #000000; stroke-width: 0.8; stroke-linejoin: miter; stroke-linecap: square"/>
   </g>
   <g id="patch_4">
    <path d="M 45 243.504 
L 324 243.504 
" style="fill: none; stroke: #000000; stroke-width: 0.8; stroke-linejoin: miter; stroke-linecap: square"/>
   </g>
  </g>
 </g>
 <defs>
  <clipPath id="pc08ba347cd">
   <rect x="45" y="32.832" width="279" height="210.672"/>
  </clipPath>
 </defs>
</svg>
