<?xml version="1.0" encoding="utf-8" standalone="no"?>
<!DOCTYPE svg PUBLIC "-//W3C//DTD SVG 1.1//EN"
  "http://www.w3.org/Graphics/SVG/1.1/DTD/svg11.dtd">
<svg height="216pt" version="1.1" viewBox="0 0 864 216" width="864pt" xmlns="http://www.w3.org/2000/svg" xmlns:xlink="http://www.w3.org/1999/xlink">
 <metadata>
  <rdf:RDF xmlns:cc="http://creativecommons.org/ns#" xmlns:dc="http://purl.org/dc/elements/1.1/" xmlns:rdf="http://www.w3.org/1999/02/22-rdf-syntax-ns#">
   <cc:Work>
    <dc:type rdf:resource="http://purl.org/dc/dcmitype/StillImage"/>
    <dc:date>2021-07-30T11:54:56.972700</dc:date>
    <dc:format>image/svg+xml</dc:format>
    <dc:creator>
     <cc:Agent>
      <dc:title>Matplotlib v3.4.2, https://matplotlib.org/</dc:title>
     </cc:Agent>
    </dc:creator>
   </cc:Work>
  </rdf:RDF>
 </metadata>
 <defs>
  <style type="text/css">*{stroke-linecap:butt;stroke-linejoin:round;}</style>
 </defs>
 <g id="figure_1">
  <g id="patch_1">
   <path d="M 0 216 
L 864 216 
L 864 0 
L 0 0 
z
" style="fill:#ffffff;"/>
  </g>
  <g id="axes_1">
   <g id="patch_2">
    <path d="M 47.72 174.04 
L 284.336138 174.04 
L 284.336138 38.136937 
L 47.72 38.136937 
z
" style="fill:#ffffff;"/>
   </g>
   <g id="patch_3">
    <path clip-path="url(#p60da10d4a1)" d="M 106.615562 174.04 
L 120.265223 174.04 
L 120.265223 168.998547 
L 106.615562 168.998547 
z
" style="fill:#1f77b4;opacity:0.4;"/>
   </g>
   <g id="patch_4">
    <path clip-path="url(#p60da10d4a1)" d="M 120.265223 174.04 
L 133.914885 174.04 
L 133.914885 158.915641 
L 120.265223 158.915641 
z
" style="fill:#1f77b4;opacity:0.4;"/>
   </g>
   <g id="patch_5">
    <path clip-path="url(#p60da10d4a1)" d="M 133.914885 174.04 
L 147.564546 174.04 
L 147.564546 133.708376 
L 133.914885 133.708376 
z
" style="fill:#1f77b4;opacity:0.4;"/>
   </g>
   <g id="patch_6">
    <path clip-path="url(#p60da10d4a1)" d="M 147.564546 174.04 
L 161.214207 174.04 
L 161.214207 103.459658 
L 147.564546 103.459658 
z
" style="fill:#1f77b4;opacity:0.4;"/>
   </g>
   <g id="patch_7">
    <path clip-path="url(#p60da10d4a1)" d="M 161.214207 174.04 
L 174.863868 174.04 
L 174.863868 68.169487 
L 161.214207 68.169487 
z
" style="fill:#1f77b4;opacity:0.4;"/>
   </g>
   <g id="patch_8">
    <path clip-path="url(#p60da10d4a1)" d="M 174.863868 174.04 
L 188.51353 174.04 
L 188.51353 93.376752 
L 174.863868 93.376752 
z
" style="fill:#1f77b4;opacity:0.4;"/>
   </g>
   <g id="patch_9">
    <path clip-path="url(#p60da10d4a1)" d="M 188.51353 174.04 
L 202.163191 174.04 
L 202.163191 78.252393 
L 188.51353 78.252393 
z
" style="fill:#1f77b4;opacity:0.4;"/>
   </g>
   <g id="patch_10">
    <path clip-path="url(#p60da10d4a1)" d="M 202.163191 174.04 
L 215.812852 174.04 
L 215.812852 113.542564 
L 202.163191 113.542564 
z
" style="fill:#1f77b4;opacity:0.4;"/>
   </g>
   <g id="patch_11">
    <path clip-path="url(#p60da10d4a1)" d="M 215.812852 174.04 
L 229.462513 174.04 
L 229.462513 148.832735 
L 215.812852 148.832735 
z
" style="fill:#1f77b4;opacity:0.4;"/>
   </g>
   <g id="patch_12">
    <path clip-path="url(#p60da10d4a1)" d="M 229.462513 174.04 
L 243.112175 174.04 
L 243.112175 168.998547 
L 229.462513 168.998547 
z
" style="fill:#1f77b4;opacity:0.4;"/>
   </g>
   <g id="patch_13">
    <path clip-path="url(#p60da10d4a1)" d="M 89.461021 174.04 
L 101.15764 174.04 
L 101.15764 168.156751 
L 89.461021 168.156751 
z
" style="fill:#ff7f0e;opacity:0.4;"/>
   </g>
   <g id="patch_14">
    <path clip-path="url(#p60da10d4a1)" d="M 101.15764 174.04 
L 112.854258 174.04 
L 112.854258 174.04 
L 101.15764 174.04 
z
" style="fill:#ff7f0e;opacity:0.4;"/>
   </g>
   <g id="patch_15">
    <path clip-path="url(#p60da10d4a1)" d="M 112.854258 174.04 
L 124.550877 174.04 
L 124.550877 168.156751 
L 112.854258 168.156751 
z
" style="fill:#ff7f0e;opacity:0.4;"/>
   </g>
   <g id="patch_16">
    <path clip-path="url(#p60da10d4a1)" d="M 124.550877 174.04 
L 136.247496 174.04 
L 136.247496 156.390252 
L 124.550877 156.390252 
z
" style="fill:#ff7f0e;opacity:0.4;"/>
   </g>
   <g id="patch_17">
    <path clip-path="url(#p60da10d4a1)" d="M 136.247496 174.04 
L 147.944114 174.04 
L 147.944114 126.974004 
L 136.247496 126.974004 
z
" style="fill:#ff7f0e;opacity:0.4;"/>
   </g>
   <g id="patch_18">
    <path clip-path="url(#p60da10d4a1)" d="M 147.944114 174.04 
L 159.640733 174.04 
L 159.640733 103.441006 
L 147.944114 103.441006 
z
" style="fill:#ff7f0e;opacity:0.4;"/>
   </g>
   <g id="patch_19">
    <path clip-path="url(#p60da10d4a1)" d="M 159.640733 174.04 
L 171.337351 174.04 
L 171.337351 44.608511 
L 159.640733 44.608511 
z
" style="fill:#ff7f0e;opacity:0.4;"/>
   </g>
   <g id="patch_20">
    <path clip-path="url(#p60da10d4a1)" d="M 171.337351 174.04 
L 183.03397 174.04 
L 183.03397 56.37501 
L 171.337351 56.37501 
z
" style="fill:#ff7f0e;opacity:0.4;"/>
   </g>
   <g id="patch_21">
    <path clip-path="url(#p60da10d4a1)" d="M 183.03397 174.04 
L 194.730589 174.04 
L 194.730589 91.674507 
L 183.03397 91.674507 
z
" style="fill:#ff7f0e;opacity:0.4;"/>
   </g>
   <g id="patch_22">
    <path clip-path="url(#p60da10d4a1)" d="M 194.730589 174.04 
L 206.427207 174.04 
L 206.427207 126.974004 
L 194.730589 126.974004 
z
" style="fill:#ff7f0e;opacity:0.4;"/>
   </g>
   <g id="patch_23">
    <path clip-path="url(#p60da10d4a1)" d="M 206.427207 174.04 
L 218.123826 174.04 
L 218.123826 144.623753 
L 206.427207 144.623753 
z
" style="fill:#ff7f0e;opacity:0.4;"/>
   </g>
   <g id="patch_24">
    <path clip-path="url(#p60da10d4a1)" d="M 218.123826 174.04 
L 229.820445 174.04 
L 229.820445 162.273501 
L 218.123826 162.273501 
z
" style="fill:#ff7f0e;opacity:0.4;"/>
   </g>
   <g id="patch_25">
    <path clip-path="url(#p60da10d4a1)" d="M 229.820445 174.04 
L 241.517063 174.04 
L 241.517063 150.507002 
L 229.820445 150.507002 
z
" style="fill:#ff7f0e;opacity:0.4;"/>
   </g>
   <g id="matplotlib.axis_1">
    <g id="xtick_1">
     <g id="line2d_1">
      <defs>
       <path d="M 0 0 
L 0 3.5 
" id="mb3b0bb1530" style="stroke:#000000;stroke-width:0.8;"/>
      </defs>
      <g>
       <use style="stroke:#000000;stroke-width:0.8;" x="74.040146" xlink:href="#mb3b0bb1530" y="174.04"/>
      </g>
     </g>
     <g id="text_1">
      <!-- −4 -->
      <g transform="translate(66.669053 188.638438)scale(0.1 -0.1)">
       <defs>
        <path d="M 678 2272 
L 4684 2272 
L 4684 1741 
L 678 1741 
L 678 2272 
z
" id="DejaVuSans-2212" transform="scale(0.015625)"/>
        <path d="M 2419 4116 
L 825 1625 
L 2419 1625 
L 2419 4116 
z
M 2253 4666 
L 3047 4666 
L 3047 1625 
L 3713 1625 
L 3713 1100 
L 3047 1100 
L 3047 0 
L 2419 0 
L 2419 1100 
L 313 1100 
L 313 1709 
L 2253 4666 
z
" id="DejaVuSans-34" transform="scale(0.015625)"/>
       </defs>
       <use xlink:href="#DejaVuSans-2212"/>
       <use x="83.789062" xlink:href="#DejaVuSans-34"/>
      </g>
     </g>
    </g>
    <g id="xtick_2">
     <g id="line2d_2">
      <g>
       <use style="stroke:#000000;stroke-width:0.8;" x="124.791749" xlink:href="#mb3b0bb1530" y="174.04"/>
      </g>
     </g>
     <g id="text_2">
      <!-- −2 -->
      <g transform="translate(117.420655 188.638438)scale(0.1 -0.1)">
       <defs>
        <path d="M 1228 531 
L 3431 531 
L 3431 0 
L 469 0 
L 469 531 
Q 828 903 1448 1529 
Q 2069 2156 2228 2338 
Q 2531 2678 2651 2914 
Q 2772 3150 2772 3378 
Q 2772 3750 2511 3984 
Q 2250 4219 1831 4219 
Q 1534 4219 1204 4116 
Q 875 4013 500 3803 
L 500 4441 
Q 881 4594 1212 4672 
Q 1544 4750 1819 4750 
Q 2544 4750 2975 4387 
Q 3406 4025 3406 3419 
Q 3406 3131 3298 2873 
Q 3191 2616 2906 2266 
Q 2828 2175 2409 1742 
Q 1991 1309 1228 531 
z
" id="DejaVuSans-32" transform="scale(0.015625)"/>
       </defs>
       <use xlink:href="#DejaVuSans-2212"/>
       <use x="83.789062" xlink:href="#DejaVuSans-32"/>
      </g>
     </g>
    </g>
    <g id="xtick_3">
     <g id="line2d_3">
      <g>
       <use style="stroke:#000000;stroke-width:0.8;" x="175.543351" xlink:href="#mb3b0bb1530" y="174.04"/>
      </g>
     </g>
     <g id="text_3">
      <!-- 0 -->
      <g transform="translate(172.362101 188.638438)scale(0.1 -0.1)">
       <defs>
        <path d="M 2034 4250 
Q 1547 4250 1301 3770 
Q 1056 3291 1056 2328 
Q 1056 1369 1301 889 
Q 1547 409 2034 409 
Q 2525 409 2770 889 
Q 3016 1369 3016 2328 
Q 3016 3291 2770 3770 
Q 2525 4250 2034 4250 
z
M 2034 4750 
Q 2819 4750 3233 4129 
Q 3647 3509 3647 2328 
Q 3647 1150 3233 529 
Q 2819 -91 2034 -91 
Q 1250 -91 836 529 
Q 422 1150 422 2328 
Q 422 3509 836 4129 
Q 1250 4750 2034 4750 
z
" id="DejaVuSans-30" transform="scale(0.015625)"/>
       </defs>
       <use xlink:href="#DejaVuSans-30"/>
      </g>
     </g>
    </g>
    <g id="xtick_4">
     <g id="line2d_4">
      <g>
       <use style="stroke:#000000;stroke-width:0.8;" x="226.294953" xlink:href="#mb3b0bb1530" y="174.04"/>
      </g>
     </g>
     <g id="text_4">
      <!-- 2 -->
      <g transform="translate(223.113703 188.638438)scale(0.1 -0.1)">
       <use xlink:href="#DejaVuSans-32"/>
      </g>
     </g>
    </g>
    <g id="xtick_5">
     <g id="line2d_5">
      <g>
       <use style="stroke:#000000;stroke-width:0.8;" x="277.046556" xlink:href="#mb3b0bb1530" y="174.04"/>
      </g>
     </g>
     <g id="text_5">
      <!-- 4 -->
      <g transform="translate(273.865306 188.638438)scale(0.1 -0.1)">
       <use xlink:href="#DejaVuSans-34"/>
      </g>
     </g>
    </g>
   </g>
   <g id="matplotlib.axis_2">
    <g id="ytick_1">
     <g id="line2d_6">
      <defs>
       <path d="M 0 0 
L -3.5 0 
" id="m092e5de50b" style="stroke:#000000;stroke-width:0.8;"/>
      </defs>
      <g>
       <use style="stroke:#000000;stroke-width:0.8;" x="47.72" xlink:href="#m092e5de50b" y="174.04"/>
      </g>
     </g>
     <g id="text_6">
      <!-- 0.0 -->
      <g transform="translate(24.816875 177.839219)scale(0.1 -0.1)">
       <defs>
        <path d="M 684 794 
L 1344 794 
L 1344 0 
L 684 0 
L 684 794 
z
" id="DejaVuSans-2e" transform="scale(0.015625)"/>
       </defs>
       <use xlink:href="#DejaVuSans-30"/>
       <use x="63.623047" xlink:href="#DejaVuSans-2e"/>
       <use x="95.410156" xlink:href="#DejaVuSans-30"/>
      </g>
     </g>
    </g>
    <g id="ytick_2">
     <g id="line2d_7">
      <g>
       <use style="stroke:#000000;stroke-width:0.8;" x="47.72" xlink:href="#m092e5de50b" y="146.921989"/>
      </g>
     </g>
     <g id="text_7">
      <!-- 0.1 -->
      <g transform="translate(24.816875 150.721208)scale(0.1 -0.1)">
       <defs>
        <path d="M 794 531 
L 1825 531 
L 1825 4091 
L 703 3866 
L 703 4441 
L 1819 4666 
L 2450 4666 
L 2450 531 
L 3481 531 
L 3481 0 
L 794 0 
L 794 531 
z
" id="DejaVuSans-31" transform="scale(0.015625)"/>
       </defs>
       <use xlink:href="#DejaVuSans-30"/>
       <use x="63.623047" xlink:href="#DejaVuSans-2e"/>
       <use x="95.410156" xlink:href="#DejaVuSans-31"/>
      </g>
     </g>
    </g>
    <g id="ytick_3">
     <g id="line2d_8">
      <g>
       <use style="stroke:#000000;stroke-width:0.8;" x="47.72" xlink:href="#m092e5de50b" y="119.803978"/>
      </g>
     </g>
     <g id="text_8">
      <!-- 0.2 -->
      <g transform="translate(24.816875 123.603197)scale(0.1 -0.1)">
       <use xlink:href="#DejaVuSans-30"/>
       <use x="63.623047" xlink:href="#DejaVuSans-2e"/>
       <use x="95.410156" xlink:href="#DejaVuSans-32"/>
      </g>
     </g>
    </g>
    <g id="ytick_4">
     <g id="line2d_9">
      <g>
       <use style="stroke:#000000;stroke-width:0.8;" x="47.72" xlink:href="#m092e5de50b" y="92.685967"/>
      </g>
     </g>
     <g id="text_9">
      <!-- 0.3 -->
      <g transform="translate(24.816875 96.485186)scale(0.1 -0.1)">
       <defs>
        <path d="M 2597 2516 
Q 3050 2419 3304 2112 
Q 3559 1806 3559 1356 
Q 3559 666 3084 287 
Q 2609 -91 1734 -91 
Q 1441 -91 1130 -33 
Q 819 25 488 141 
L 488 750 
Q 750 597 1062 519 
Q 1375 441 1716 441 
Q 2309 441 2620 675 
Q 2931 909 2931 1356 
Q 2931 1769 2642 2001 
Q 2353 2234 1838 2234 
L 1294 2234 
L 1294 2753 
L 1863 2753 
Q 2328 2753 2575 2939 
Q 2822 3125 2822 3475 
Q 2822 3834 2567 4026 
Q 2313 4219 1838 4219 
Q 1578 4219 1281 4162 
Q 984 4106 628 3988 
L 628 4550 
Q 988 4650 1302 4700 
Q 1616 4750 1894 4750 
Q 2613 4750 3031 4423 
Q 3450 4097 3450 3541 
Q 3450 3153 3228 2886 
Q 3006 2619 2597 2516 
z
" id="DejaVuSans-33" transform="scale(0.015625)"/>
       </defs>
       <use xlink:href="#DejaVuSans-30"/>
       <use x="63.623047" xlink:href="#DejaVuSans-2e"/>
       <use x="95.410156" xlink:href="#DejaVuSans-33"/>
      </g>
     </g>
    </g>
    <g id="ytick_5">
     <g id="line2d_10">
      <g>
       <use style="stroke:#000000;stroke-width:0.8;" x="47.72" xlink:href="#m092e5de50b" y="65.567956"/>
      </g>
     </g>
     <g id="text_10">
      <!-- 0.4 -->
      <g transform="translate(24.816875 69.367174)scale(0.1 -0.1)">
       <use xlink:href="#DejaVuSans-30"/>
       <use x="63.623047" xlink:href="#DejaVuSans-2e"/>
       <use x="95.410156" xlink:href="#DejaVuSans-34"/>
      </g>
     </g>
    </g>
    <g id="ytick_6">
     <g id="line2d_11">
      <g>
       <use style="stroke:#000000;stroke-width:0.8;" x="47.72" xlink:href="#m092e5de50b" y="38.449945"/>
      </g>
     </g>
     <g id="text_11">
      <!-- 0.5 -->
      <g transform="translate(24.816875 42.249163)scale(0.1 -0.1)">
       <defs>
        <path d="M 691 4666 
L 3169 4666 
L 3169 4134 
L 1269 4134 
L 1269 2991 
Q 1406 3038 1543 3061 
Q 1681 3084 1819 3084 
Q 2600 3084 3056 2656 
Q 3513 2228 3513 1497 
Q 3513 744 3044 326 
Q 2575 -91 1722 -91 
Q 1428 -91 1123 -41 
Q 819 9 494 109 
L 494 744 
Q 775 591 1075 516 
Q 1375 441 1709 441 
Q 2250 441 2565 725 
Q 2881 1009 2881 1497 
Q 2881 1984 2565 2268 
Q 2250 2553 1709 2553 
Q 1456 2553 1204 2497 
Q 953 2441 691 2322 
L 691 4666 
z
" id="DejaVuSans-35" transform="scale(0.015625)"/>
       </defs>
       <use xlink:href="#DejaVuSans-30"/>
       <use x="63.623047" xlink:href="#DejaVuSans-2e"/>
       <use x="95.410156" xlink:href="#DejaVuSans-35"/>
      </g>
     </g>
    </g>
    <g id="text_12">
     <!-- Density -->
     <g transform="translate(18.737188 125.097062)rotate(-90)scale(0.1 -0.1)">
      <defs>
       <path d="M 1259 4147 
L 1259 519 
L 2022 519 
Q 2988 519 3436 956 
Q 3884 1394 3884 2338 
Q 3884 3275 3436 3711 
Q 2988 4147 2022 4147 
L 1259 4147 
z
M 628 4666 
L 1925 4666 
Q 3281 4666 3915 4102 
Q 4550 3538 4550 2338 
Q 4550 1131 3912 565 
Q 3275 0 1925 0 
L 628 0 
L 628 4666 
z
" id="DejaVuSans-44" transform="scale(0.015625)"/>
       <path d="M 3597 1894 
L 3597 1613 
L 953 1613 
Q 991 1019 1311 708 
Q 1631 397 2203 397 
Q 2534 397 2845 478 
Q 3156 559 3463 722 
L 3463 178 
Q 3153 47 2828 -22 
Q 2503 -91 2169 -91 
Q 1331 -91 842 396 
Q 353 884 353 1716 
Q 353 2575 817 3079 
Q 1281 3584 2069 3584 
Q 2775 3584 3186 3129 
Q 3597 2675 3597 1894 
z
M 3022 2063 
Q 3016 2534 2758 2815 
Q 2500 3097 2075 3097 
Q 1594 3097 1305 2825 
Q 1016 2553 972 2059 
L 3022 2063 
z
" id="DejaVuSans-65" transform="scale(0.015625)"/>
       <path d="M 3513 2113 
L 3513 0 
L 2938 0 
L 2938 2094 
Q 2938 2591 2744 2837 
Q 2550 3084 2163 3084 
Q 1697 3084 1428 2787 
Q 1159 2491 1159 1978 
L 1159 0 
L 581 0 
L 581 3500 
L 1159 3500 
L 1159 2956 
Q 1366 3272 1645 3428 
Q 1925 3584 2291 3584 
Q 2894 3584 3203 3211 
Q 3513 2838 3513 2113 
z
" id="DejaVuSans-6e" transform="scale(0.015625)"/>
       <path d="M 2834 3397 
L 2834 2853 
Q 2591 2978 2328 3040 
Q 2066 3103 1784 3103 
Q 1356 3103 1142 2972 
Q 928 2841 928 2578 
Q 928 2378 1081 2264 
Q 1234 2150 1697 2047 
L 1894 2003 
Q 2506 1872 2764 1633 
Q 3022 1394 3022 966 
Q 3022 478 2636 193 
Q 2250 -91 1575 -91 
Q 1294 -91 989 -36 
Q 684 19 347 128 
L 347 722 
Q 666 556 975 473 
Q 1284 391 1588 391 
Q 1994 391 2212 530 
Q 2431 669 2431 922 
Q 2431 1156 2273 1281 
Q 2116 1406 1581 1522 
L 1381 1569 
Q 847 1681 609 1914 
Q 372 2147 372 2553 
Q 372 3047 722 3315 
Q 1072 3584 1716 3584 
Q 2034 3584 2315 3537 
Q 2597 3491 2834 3397 
z
" id="DejaVuSans-73" transform="scale(0.015625)"/>
       <path d="M 603 3500 
L 1178 3500 
L 1178 0 
L 603 0 
L 603 3500 
z
M 603 4863 
L 1178 4863 
L 1178 4134 
L 603 4134 
L 603 4863 
z
" id="DejaVuSans-69" transform="scale(0.015625)"/>
       <path d="M 1172 4494 
L 1172 3500 
L 2356 3500 
L 2356 3053 
L 1172 3053 
L 1172 1153 
Q 1172 725 1289 603 
Q 1406 481 1766 481 
L 2356 481 
L 2356 0 
L 1766 0 
Q 1100 0 847 248 
Q 594 497 594 1153 
L 594 3053 
L 172 3053 
L 172 3500 
L 594 3500 
L 594 4494 
L 1172 4494 
z
" id="DejaVuSans-74" transform="scale(0.015625)"/>
       <path d="M 2059 -325 
Q 1816 -950 1584 -1140 
Q 1353 -1331 966 -1331 
L 506 -1331 
L 506 -850 
L 844 -850 
Q 1081 -850 1212 -737 
Q 1344 -625 1503 -206 
L 1606 56 
L 191 3500 
L 800 3500 
L 1894 763 
L 2988 3500 
L 3597 3500 
L 2059 -325 
z
" id="DejaVuSans-79" transform="scale(0.015625)"/>
      </defs>
      <use xlink:href="#DejaVuSans-44"/>
      <use x="77.001953" xlink:href="#DejaVuSans-65"/>
      <use x="138.525391" xlink:href="#DejaVuSans-6e"/>
      <use x="201.904297" xlink:href="#DejaVuSans-73"/>
      <use x="254.003906" xlink:href="#DejaVuSans-69"/>
      <use x="281.787109" xlink:href="#DejaVuSans-74"/>
      <use x="320.996094" xlink:href="#DejaVuSans-79"/>
     </g>
    </g>
   </g>
   <g id="line2d_12">
    <path clip-path="url(#p60da10d4a1)" d="M 76.146878 174.009964 
L 83.091792 173.854897 
L 88.052445 173.529618 
L 92.020967 173.069613 
L 97.97375 172.10002 
L 105.910795 170.819197 
L 109.879317 170.172738 
L 111.863578 169.719549 
L 113.847839 169.088795 
L 115.8321 168.204486 
L 117.816362 166.995764 
L 119.800623 165.407104 
L 121.784884 163.407219 
L 123.769145 160.995115 
L 125.753406 158.201996 
L 128.729798 153.436091 
L 132.69832 146.454068 
L 145.596017 123.078988 
L 148.572409 116.968705 
L 151.5488 110.35709 
L 157.501584 96.833105 
L 159.485845 92.78084 
L 161.470106 89.203659 
L 163.454367 86.200119 
L 165.438628 83.817562 
L 167.422889 82.052307 
L 168.41502 81.388134 
L 170.399281 80.45366 
L 172.383542 79.97475 
L 174.367803 79.864758 
L 176.352064 80.043784 
L 178.336325 80.446182 
L 180.320586 81.024292 
L 183.296978 82.163984 
L 186.27337 83.623896 
L 188.257631 84.8082 
L 190.241892 86.205848 
L 192.226153 87.864814 
L 194.210414 89.833766 
L 196.194675 92.153756 
L 198.178936 94.850896 
L 200.163198 97.93174 
L 202.147459 101.382373 
L 205.12385 107.178217 
L 208.100242 113.572642 
L 212.068764 122.691225 
L 219.013678 138.778696 
L 221.99007 145.085242 
L 223.974331 148.924117 
L 225.958592 152.415285 
L 227.942853 155.532005 
L 229.927114 158.267054 
L 231.911375 160.631221 
L 233.895636 162.650124 
L 235.879898 164.360134 
L 237.864159 165.804047 
L 239.84842 167.026858 
L 242.824811 168.539919 
L 245.801203 169.773864 
L 249.769725 171.118679 
L 253.738248 172.185222 
L 257.70677 172.977696 
L 261.675292 173.501713 
L 265.643814 173.80166 
L 271.596597 173.986309 
L 273.580859 174.00965 
L 273.580859 174.00965 
" style="fill:none;stroke:#1f77b4;stroke-linecap:square;stroke-width:1.5;"/>
   </g>
   <g id="line2d_13">
    <path clip-path="url(#p60da10d4a1)" d="M 58.475279 174.010473 
L 66.003885 173.838378 
L 71.381461 173.465602 
L 75.683522 172.94801 
L 86.438674 171.485357 
L 89.66522 171.359667 
L 92.891766 171.465441 
L 98.269342 171.954144 
L 102.571402 172.237252 
L 104.722433 172.208239 
L 106.873463 172.007376 
L 109.024494 171.598512 
L 111.175524 170.950716 
L 113.326555 170.036392 
L 115.477585 168.829085 
L 117.628615 167.301734 
L 119.779646 165.42604 
L 121.930676 163.173463 
L 124.081707 160.518062 
L 126.232737 157.440905 
L 128.383767 153.935235 
L 130.534798 150.011058 
L 132.685828 145.697562 
L 135.912374 138.604307 
L 139.13892 130.947513 
L 143.44098 120.190169 
L 149.894072 103.348607 
L 156.347163 86.43812 
L 158.498193 81.251735 
L 160.649224 76.572461 
L 162.800254 72.569695 
L 163.875769 70.864546 
L 164.951285 69.372664 
L 166.0268 68.101049 
L 167.102315 67.052968 
L 168.17783 66.228395 
L 169.253345 65.624685 
L 170.328861 65.2374 
L 171.404376 65.0612 
L 172.479891 65.090694 
L 173.555406 65.321178 
L 174.630921 65.749162 
L 175.706437 66.37266 
L 176.781952 67.191203 
L 177.857467 68.205584 
L 178.932982 69.417384 
L 180.008497 70.828308 
L 182.159528 74.250408 
L 184.310558 78.459169 
L 186.461589 83.398848 
L 188.612619 88.959849 
L 191.839165 98.102435 
L 197.216741 113.749566 
L 199.367771 119.565332 
L 201.518802 124.901037 
L 203.669832 129.678303 
L 205.820862 133.877814 
L 207.971893 137.533897 
L 210.122923 140.721307 
L 212.273954 143.536001 
L 215.500499 147.262708 
L 218.727045 150.583601 
L 221.953591 153.553154 
L 224.104621 155.302888 
L 226.255651 156.834711 
L 228.406682 158.137049 
L 230.557712 159.227954 
L 233.784258 160.584237 
L 239.161834 162.738214 
L 242.38838 164.304494 
L 246.69044 166.753452 
L 252.068016 169.823302 
L 255.294562 171.3211 
L 257.445592 172.106885 
L 259.596623 172.719081 
L 262.823168 173.34824 
L 266.049714 173.709559 
L 270.351775 173.93324 
L 272.502805 173.982995 
L 272.502805 173.982995 
" style="fill:none;stroke:#ff7f0e;stroke-linecap:square;stroke-width:1.5;"/>
   </g>
   <g id="patch_26">
    <path d="M 47.72 174.04 
L 47.72 38.136937 
" style="fill:none;stroke:#000000;stroke-linecap:square;stroke-linejoin:miter;stroke-width:0.8;"/>
   </g>
   <g id="patch_27">
    <path d="M 284.336138 174.04 
L 284.336138 38.136937 
" style="fill:none;stroke:#000000;stroke-linecap:square;stroke-linejoin:miter;stroke-width:0.8;"/>
   </g>
   <g id="patch_28">
    <path d="M 47.72 174.04 
L 284.336138 174.04 
" style="fill:none;stroke:#000000;stroke-linecap:square;stroke-linejoin:miter;stroke-width:0.8;"/>
   </g>
   <g id="patch_29">
    <path d="M 47.72 38.136937 
L 284.336138 38.136937 
" style="fill:none;stroke:#000000;stroke-linecap:square;stroke-linejoin:miter;stroke-width:0.8;"/>
   </g>
   <g id="legend_1">
    <g id="patch_30">
     <path d="M 195.6627 75.493187 
L 277.336138 75.493187 
Q 279.336138 75.493187 279.336138 73.493187 
L 279.336138 45.136937 
Q 279.336138 43.136937 277.336138 43.136937 
L 195.6627 43.136937 
Q 193.6627 43.136937 193.6627 45.136937 
L 193.6627 73.493187 
Q 193.6627 75.493187 195.6627 75.493187 
z
" style="fill:#ffffff;opacity:0.8;stroke:#cccccc;stroke-linejoin:miter;"/>
    </g>
    <g id="line2d_14">
     <path d="M 197.6627 51.235374 
L 217.6627 51.235374 
" style="fill:none;stroke:#1f77b4;stroke-linecap:square;stroke-width:1.5;"/>
    </g>
    <g id="line2d_15"/>
    <g id="text_13">
     <!-- Truth -->
     <g transform="translate(225.6627 54.735374)scale(0.1 -0.1)">
      <defs>
       <path d="M -19 4666 
L 3928 4666 
L 3928 4134 
L 2272 4134 
L 2272 0 
L 1638 0 
L 1638 4134 
L -19 4134 
L -19 4666 
z
" id="DejaVuSans-54" transform="scale(0.015625)"/>
       <path d="M 2631 2963 
Q 2534 3019 2420 3045 
Q 2306 3072 2169 3072 
Q 1681 3072 1420 2755 
Q 1159 2438 1159 1844 
L 1159 0 
L 581 0 
L 581 3500 
L 1159 3500 
L 1159 2956 
Q 1341 3275 1631 3429 
Q 1922 3584 2338 3584 
Q 2397 3584 2469 3576 
Q 2541 3569 2628 3553 
L 2631 2963 
z
" id="DejaVuSans-72" transform="scale(0.015625)"/>
       <path d="M 544 1381 
L 544 3500 
L 1119 3500 
L 1119 1403 
Q 1119 906 1312 657 
Q 1506 409 1894 409 
Q 2359 409 2629 706 
Q 2900 1003 2900 1516 
L 2900 3500 
L 3475 3500 
L 3475 0 
L 2900 0 
L 2900 538 
Q 2691 219 2414 64 
Q 2138 -91 1772 -91 
Q 1169 -91 856 284 
Q 544 659 544 1381 
z
M 1991 3584 
L 1991 3584 
z
" id="DejaVuSans-75" transform="scale(0.015625)"/>
       <path d="M 3513 2113 
L 3513 0 
L 2938 0 
L 2938 2094 
Q 2938 2591 2744 2837 
Q 2550 3084 2163 3084 
Q 1697 3084 1428 2787 
Q 1159 2491 1159 1978 
L 1159 0 
L 581 0 
L 581 4863 
L 1159 4863 
L 1159 2956 
Q 1366 3272 1645 3428 
Q 1925 3584 2291 3584 
Q 2894 3584 3203 3211 
Q 3513 2838 3513 2113 
z
" id="DejaVuSans-68" transform="scale(0.015625)"/>
      </defs>
      <use xlink:href="#DejaVuSans-54"/>
      <use x="46.333984" xlink:href="#DejaVuSans-72"/>
      <use x="87.447266" xlink:href="#DejaVuSans-75"/>
      <use x="150.826172" xlink:href="#DejaVuSans-74"/>
      <use x="190.035156" xlink:href="#DejaVuSans-68"/>
     </g>
    </g>
    <g id="line2d_16">
     <path d="M 197.6627 65.913499 
L 217.6627 65.913499 
" style="fill:none;stroke:#ff7f0e;stroke-linecap:square;stroke-width:1.5;"/>
    </g>
    <g id="line2d_17"/>
    <g id="text_14">
     <!-- Prediction -->
     <g transform="translate(225.6627 69.413499)scale(0.1 -0.1)">
      <defs>
       <path d="M 1259 4147 
L 1259 2394 
L 2053 2394 
Q 2494 2394 2734 2622 
Q 2975 2850 2975 3272 
Q 2975 3691 2734 3919 
Q 2494 4147 2053 4147 
L 1259 4147 
z
M 628 4666 
L 2053 4666 
Q 2838 4666 3239 4311 
Q 3641 3956 3641 3272 
Q 3641 2581 3239 2228 
Q 2838 1875 2053 1875 
L 1259 1875 
L 1259 0 
L 628 0 
L 628 4666 
z
" id="DejaVuSans-50" transform="scale(0.015625)"/>
       <path d="M 2906 2969 
L 2906 4863 
L 3481 4863 
L 3481 0 
L 2906 0 
L 2906 525 
Q 2725 213 2448 61 
Q 2172 -91 1784 -91 
Q 1150 -91 751 415 
Q 353 922 353 1747 
Q 353 2572 751 3078 
Q 1150 3584 1784 3584 
Q 2172 3584 2448 3432 
Q 2725 3281 2906 2969 
z
M 947 1747 
Q 947 1113 1208 752 
Q 1469 391 1925 391 
Q 2381 391 2643 752 
Q 2906 1113 2906 1747 
Q 2906 2381 2643 2742 
Q 2381 3103 1925 3103 
Q 1469 3103 1208 2742 
Q 947 2381 947 1747 
z
" id="DejaVuSans-64" transform="scale(0.015625)"/>
       <path d="M 3122 3366 
L 3122 2828 
Q 2878 2963 2633 3030 
Q 2388 3097 2138 3097 
Q 1578 3097 1268 2742 
Q 959 2388 959 1747 
Q 959 1106 1268 751 
Q 1578 397 2138 397 
Q 2388 397 2633 464 
Q 2878 531 3122 666 
L 3122 134 
Q 2881 22 2623 -34 
Q 2366 -91 2075 -91 
Q 1284 -91 818 406 
Q 353 903 353 1747 
Q 353 2603 823 3093 
Q 1294 3584 2113 3584 
Q 2378 3584 2631 3529 
Q 2884 3475 3122 3366 
z
" id="DejaVuSans-63" transform="scale(0.015625)"/>
       <path d="M 1959 3097 
Q 1497 3097 1228 2736 
Q 959 2375 959 1747 
Q 959 1119 1226 758 
Q 1494 397 1959 397 
Q 2419 397 2687 759 
Q 2956 1122 2956 1747 
Q 2956 2369 2687 2733 
Q 2419 3097 1959 3097 
z
M 1959 3584 
Q 2709 3584 3137 3096 
Q 3566 2609 3566 1747 
Q 3566 888 3137 398 
Q 2709 -91 1959 -91 
Q 1206 -91 779 398 
Q 353 888 353 1747 
Q 353 2609 779 3096 
Q 1206 3584 1959 3584 
z
" id="DejaVuSans-6f" transform="scale(0.015625)"/>
      </defs>
      <use xlink:href="#DejaVuSans-50"/>
      <use x="58.552734" xlink:href="#DejaVuSans-72"/>
      <use x="97.416016" xlink:href="#DejaVuSans-65"/>
      <use x="158.939453" xlink:href="#DejaVuSans-64"/>
      <use x="222.416016" xlink:href="#DejaVuSans-69"/>
      <use x="250.199219" xlink:href="#DejaVuSans-63"/>
      <use x="305.179688" xlink:href="#DejaVuSans-74"/>
      <use x="344.388672" xlink:href="#DejaVuSans-69"/>
      <use x="372.171875" xlink:href="#DejaVuSans-6f"/>
      <use x="433.353516" xlink:href="#DejaVuSans-6e"/>
     </g>
    </g>
   </g>
  </g>
  <g id="axes_2">
   <g id="patch_31">
    <path d="M 330.976138 174.04 
L 567.592275 174.04 
L 567.592275 38.136937 
L 330.976138 38.136937 
z
" style="fill:#ffffff;"/>
   </g>
   <g id="PathCollection_1">
    <defs>
     <path d="M 0 3 
C 0.795609 3 1.55874 2.683901 2.12132 2.12132 
C 2.683901 1.55874 3 0.795609 3 0 
C 3 -0.795609 2.683901 -1.55874 2.12132 -2.12132 
C 1.55874 -2.683901 0.795609 -3 0 -3 
C -0.795609 -3 -1.55874 -2.683901 -2.12132 -2.12132 
C -2.683901 -1.55874 -3 -0.795609 -3 0 
C -3 0.795609 -2.683901 1.55874 -2.12132 2.12132 
C -1.55874 2.683901 -0.795609 3 0 3 
z
" id="mba34dfc450" style="stroke:#1f77b4;"/>
    </defs>
    <g clip-path="url(#p7b4049922b)">
     <use style="fill:#1f77b4;stroke:#1f77b4;" x="475.273608" xlink:href="#mba34dfc450" y="101.836993"/>
     <use style="fill:#1f77b4;stroke:#1f77b4;" x="546.016801" xlink:href="#mba34dfc450" y="70.482925"/>
     <use style="fill:#1f77b4;stroke:#1f77b4;" x="518.75925" xlink:href="#mba34dfc450" y="74.86156"/>
     <use style="fill:#1f77b4;stroke:#1f77b4;" x="522.428438" xlink:href="#mba34dfc450" y="137.678092"/>
     <use style="fill:#1f77b4;stroke:#1f77b4;" x="495.481154" xlink:href="#mba34dfc450" y="135.886438"/>
     <use style="fill:#1f77b4;stroke:#1f77b4;" x="488.807417" xlink:href="#mba34dfc450" y="119.138561"/>
     <use style="fill:#1f77b4;stroke:#1f77b4;" x="417.363846" xlink:href="#mba34dfc450" y="117.956283"/>
     <use style="fill:#1f77b4;stroke:#1f77b4;" x="450.44463" xlink:href="#mba34dfc450" y="123.005895"/>
     <use style="fill:#1f77b4;stroke:#1f77b4;" x="534.923439" xlink:href="#mba34dfc450" y="91.79352"/>
     <use style="fill:#1f77b4;stroke:#1f77b4;" x="406.63574" xlink:href="#mba34dfc450" y="108.308646"/>
     <use style="fill:#1f77b4;stroke:#1f77b4;" x="445.943256" xlink:href="#mba34dfc450" y="70.829887"/>
     <use style="fill:#1f77b4;stroke:#1f77b4;" x="408.078892" xlink:href="#mba34dfc450" y="65.291594"/>
     <use style="fill:#1f77b4;stroke:#1f77b4;" x="520.238975" xlink:href="#mba34dfc450" y="98.544739"/>
     <use style="fill:#1f77b4;stroke:#1f77b4;" x="441.429809" xlink:href="#mba34dfc450" y="60.116299"/>
     <use style="fill:#1f77b4;stroke:#1f77b4;" x="523.89596" xlink:href="#mba34dfc450" y="97.357471"/>
     <use style="fill:#1f77b4;stroke:#1f77b4;" x="447.370346" xlink:href="#mba34dfc450" y="107.659685"/>
     <use style="fill:#1f77b4;stroke:#1f77b4;" x="443.838916" xlink:href="#mba34dfc450" y="96.446859"/>
     <use style="fill:#1f77b4;stroke:#1f77b4;" x="513.501106" xlink:href="#mba34dfc450" y="76.693884"/>
     <use style="fill:#1f77b4;stroke:#1f77b4;" x="500.226532" xlink:href="#mba34dfc450" y="134.136994"/>
     <use style="fill:#1f77b4;stroke:#1f77b4;" x="357.39339" xlink:href="#mba34dfc450" y="102.582896"/>
     <use style="fill:#1f77b4;stroke:#1f77b4;" x="481.168723" xlink:href="#mba34dfc450" y="91.225782"/>
     <use style="fill:#1f77b4;stroke:#1f77b4;" x="486.99231" xlink:href="#mba34dfc450" y="89.751639"/>
     <use style="fill:#1f77b4;stroke:#1f77b4;" x="471.737966" xlink:href="#mba34dfc450" y="106.170385"/>
     <use style="fill:#1f77b4;stroke:#1f77b4;" x="437.839485" xlink:href="#mba34dfc450" y="86.93032"/>
     <use style="fill:#1f77b4;stroke:#1f77b4;" x="464.649341" xlink:href="#mba34dfc450" y="91.344381"/>
     <use style="fill:#1f77b4;stroke:#1f77b4;" x="447.983904" xlink:href="#mba34dfc450" y="111.186134"/>
     <use style="fill:#1f77b4;stroke:#1f77b4;" x="471.797211" xlink:href="#mba34dfc450" y="48.935697"/>
     <use style="fill:#1f77b4;stroke:#1f77b4;" x="455.630117" xlink:href="#mba34dfc450" y="88.035395"/>
     <use style="fill:#1f77b4;stroke:#1f77b4;" x="439.235723" xlink:href="#mba34dfc450" y="105.334254"/>
     <use style="fill:#1f77b4;stroke:#1f77b4;" x="469.938968" xlink:href="#mba34dfc450" y="110.732997"/>
     <use style="fill:#1f77b4;stroke:#1f77b4;" x="494.896623" xlink:href="#mba34dfc450" y="74.796212"/>
     <use style="fill:#1f77b4;stroke:#1f77b4;" x="474.832874" xlink:href="#mba34dfc450" y="95.610255"/>
     <use style="fill:#1f77b4;stroke:#1f77b4;" x="441.90417" xlink:href="#mba34dfc450" y="40.70941"/>
     <use style="fill:#1f77b4;stroke:#1f77b4;" x="476.679219" xlink:href="#mba34dfc450" y="107.685126"/>
     <use style="fill:#1f77b4;stroke:#1f77b4;" x="505.344165" xlink:href="#mba34dfc450" y="125.790853"/>
     <use style="fill:#1f77b4;stroke:#1f77b4;" x="525.883832" xlink:href="#mba34dfc450" y="98.522636"/>
     <use style="fill:#1f77b4;stroke:#1f77b4;" x="510.727508" xlink:href="#mba34dfc450" y="93.971622"/>
     <use style="fill:#1f77b4;stroke:#1f77b4;" x="484.538755" xlink:href="#mba34dfc450" y="145.448874"/>
     <use style="fill:#1f77b4;stroke:#1f77b4;" x="424.105023" xlink:href="#mba34dfc450" y="104.840138"/>
     <use style="fill:#1f77b4;stroke:#1f77b4;" x="410.176632" xlink:href="#mba34dfc450" y="106.169916"/>
     <use style="fill:#1f77b4;stroke:#1f77b4;" x="455.630627" xlink:href="#mba34dfc450" y="106.177728"/>
     <use style="fill:#1f77b4;stroke:#1f77b4;" x="408.471595" xlink:href="#mba34dfc450" y="112.046161"/>
     <use style="fill:#1f77b4;stroke:#1f77b4;" x="432.871673" xlink:href="#mba34dfc450" y="128.048464"/>
     <use style="fill:#1f77b4;stroke:#1f77b4;" x="456.891229" xlink:href="#mba34dfc450" y="80.887041"/>
     <use style="fill:#1f77b4;stroke:#1f77b4;" x="444.617407" xlink:href="#mba34dfc450" y="111.005067"/>
     <use style="fill:#1f77b4;stroke:#1f77b4;" x="450.724944" xlink:href="#mba34dfc450" y="120.877592"/>
     <use style="fill:#1f77b4;stroke:#1f77b4;" x="411.643923" xlink:href="#mba34dfc450" y="114.957426"/>
     <use style="fill:#1f77b4;stroke:#1f77b4;" x="472.58438" xlink:href="#mba34dfc450" y="108.502092"/>
     <use style="fill:#1f77b4;stroke:#1f77b4;" x="502.480387" xlink:href="#mba34dfc450" y="95.462405"/>
     <use style="fill:#1f77b4;stroke:#1f77b4;" x="442.119289" xlink:href="#mba34dfc450" y="82.900307"/>
     <use style="fill:#1f77b4;stroke:#1f77b4;" x="491.90001" xlink:href="#mba34dfc450" y="119.294751"/>
     <use style="fill:#1f77b4;stroke:#1f77b4;" x="567.592275" xlink:href="#mba34dfc450" y="108.658624"/>
     <use style="fill:#1f77b4;stroke:#1f77b4;" x="459.951448" xlink:href="#mba34dfc450" y="128.100427"/>
     <use style="fill:#1f77b4;stroke:#1f77b4;" x="488.986955" xlink:href="#mba34dfc450" y="174.04"/>
     <use style="fill:#1f77b4;stroke:#1f77b4;" x="471.228517" xlink:href="#mba34dfc450" y="94.40421"/>
     <use style="fill:#1f77b4;stroke:#1f77b4;" x="501.429811" xlink:href="#mba34dfc450" y="63.784979"/>
     <use style="fill:#1f77b4;stroke:#1f77b4;" x="396.37843" xlink:href="#mba34dfc450" y="86.182968"/>
     <use style="fill:#1f77b4;stroke:#1f77b4;" x="422.235833" xlink:href="#mba34dfc450" y="109.281746"/>
     <use style="fill:#1f77b4;stroke:#1f77b4;" x="469.145438" xlink:href="#mba34dfc450" y="95.735511"/>
     <use style="fill:#1f77b4;stroke:#1f77b4;" x="498.199608" xlink:href="#mba34dfc450" y="124.2694"/>
     <use style="fill:#1f77b4;stroke:#1f77b4;" x="468.639777" xlink:href="#mba34dfc450" y="100.645765"/>
     <use style="fill:#1f77b4;stroke:#1f77b4;" x="398.491617" xlink:href="#mba34dfc450" y="107.500745"/>
     <use style="fill:#1f77b4;stroke:#1f77b4;" x="431.354345" xlink:href="#mba34dfc450" y="117.039841"/>
     <use style="fill:#1f77b4;stroke:#1f77b4;" x="432.483969" xlink:href="#mba34dfc450" y="88.796224"/>
     <use style="fill:#1f77b4;stroke:#1f77b4;" x="478.740093" xlink:href="#mba34dfc450" y="39.547798"/>
     <use style="fill:#1f77b4;stroke:#1f77b4;" x="433.760524" xlink:href="#mba34dfc450" y="60.520492"/>
     <use style="fill:#1f77b4;stroke:#1f77b4;" x="436.934873" xlink:href="#mba34dfc450" y="99.518608"/>
     <use style="fill:#1f77b4;stroke:#1f77b4;" x="505.928579" xlink:href="#mba34dfc450" y="78.057294"/>
     <use style="fill:#1f77b4;stroke:#1f77b4;" x="515.720212" xlink:href="#mba34dfc450" y="78.537772"/>
     <use style="fill:#1f77b4;stroke:#1f77b4;" x="447.389403" xlink:href="#mba34dfc450" y="112.434729"/>
     <use style="fill:#1f77b4;stroke:#1f77b4;" x="480.143399" xlink:href="#mba34dfc450" y="83.44874"/>
     <use style="fill:#1f77b4;stroke:#1f77b4;" x="390.015265" xlink:href="#mba34dfc450" y="130.243542"/>
     <use style="fill:#1f77b4;stroke:#1f77b4;" x="471.289359" xlink:href="#mba34dfc450" y="115.975608"/>
     <use style="fill:#1f77b4;stroke:#1f77b4;" x="510.040737" xlink:href="#mba34dfc450" y="92.542224"/>
     <use style="fill:#1f77b4;stroke:#1f77b4;" x="484.124591" xlink:href="#mba34dfc450" y="107.210725"/>
     <use style="fill:#1f77b4;stroke:#1f77b4;" x="467.488425" xlink:href="#mba34dfc450" y="58.477374"/>
     <use style="fill:#1f77b4;stroke:#1f77b4;" x="448.351957" xlink:href="#mba34dfc450" y="83.355901"/>
     <use style="fill:#1f77b4;stroke:#1f77b4;" x="438.264103" xlink:href="#mba34dfc450" y="106.475672"/>
     <use style="fill:#1f77b4;stroke:#1f77b4;" x="456.541089" xlink:href="#mba34dfc450" y="108.462959"/>
     <use style="fill:#1f77b4;stroke:#1f77b4;" x="402.912552" xlink:href="#mba34dfc450" y="93.70446"/>
     <use style="fill:#1f77b4;stroke:#1f77b4;" x="526.472138" xlink:href="#mba34dfc450" y="121.592003"/>
     <use style="fill:#1f77b4;stroke:#1f77b4;" x="485.587225" xlink:href="#mba34dfc450" y="84.532641"/>
     <use style="fill:#1f77b4;stroke:#1f77b4;" x="459.536209" xlink:href="#mba34dfc450" y="128.769149"/>
     <use style="fill:#1f77b4;stroke:#1f77b4;" x="439.3187" xlink:href="#mba34dfc450" y="83.917696"/>
     <use style="fill:#1f77b4;stroke:#1f77b4;" x="460.7905" xlink:href="#mba34dfc450" y="101.595227"/>
     <use style="fill:#1f77b4;stroke:#1f77b4;" x="494.715148" xlink:href="#mba34dfc450" y="88.595091"/>
     <use style="fill:#1f77b4;stroke:#1f77b4;" x="503.0642" xlink:href="#mba34dfc450" y="120.628108"/>
     <use style="fill:#1f77b4;stroke:#1f77b4;" x="428.2251" xlink:href="#mba34dfc450" y="92.402342"/>
     <use style="fill:#1f77b4;stroke:#1f77b4;" x="425.496003" xlink:href="#mba34dfc450" y="43.75661"/>
     <use style="fill:#1f77b4;stroke:#1f77b4;" x="544.751523" xlink:href="#mba34dfc450" y="108.163032"/>
     <use style="fill:#1f77b4;stroke:#1f77b4;" x="507.95457" xlink:href="#mba34dfc450" y="90.777019"/>
     <use style="fill:#1f77b4;stroke:#1f77b4;" x="491.226492" xlink:href="#mba34dfc450" y="64.109003"/>
     <use style="fill:#1f77b4;stroke:#1f77b4;" x="458.121239" xlink:href="#mba34dfc450" y="80.804757"/>
     <use style="fill:#1f77b4;stroke:#1f77b4;" x="499.647738" xlink:href="#mba34dfc450" y="88.207427"/>
     <use style="fill:#1f77b4;stroke:#1f77b4;" x="413.784262" xlink:href="#mba34dfc450" y="120.652872"/>
     <use style="fill:#1f77b4;stroke:#1f77b4;" x="523.397097" xlink:href="#mba34dfc450" y="126.576"/>
     <use style="fill:#1f77b4;stroke:#1f77b4;" x="462.141312" xlink:href="#mba34dfc450" y="96.70168"/>
     <use style="fill:#1f77b4;stroke:#1f77b4;" x="494.444205" xlink:href="#mba34dfc450" y="108.298128"/>
     <use style="fill:#1f77b4;stroke:#1f77b4;" x="488.79187" xlink:href="#mba34dfc450" y="98.328709"/>
     <use style="fill:#1f77b4;stroke:#1f77b4;" x="458.397726" xlink:href="#mba34dfc450" y="93.285058"/>
    </g>
   </g>
   <g id="matplotlib.axis_3">
    <g id="xtick_6">
     <g id="line2d_18">
      <g>
       <use style="stroke:#000000;stroke-width:0.8;" x="346.306294" xlink:href="#mb3b0bb1530" y="174.04"/>
      </g>
     </g>
     <g id="text_15">
      <!-- −3 -->
      <g transform="translate(338.935201 188.638438)scale(0.1 -0.1)">
       <use xlink:href="#DejaVuSans-2212"/>
       <use x="83.789062" xlink:href="#DejaVuSans-33"/>
      </g>
     </g>
    </g>
    <g id="xtick_7">
     <g id="line2d_19">
      <g>
       <use style="stroke:#000000;stroke-width:0.8;" x="385.383932" xlink:href="#mb3b0bb1530" y="174.04"/>
      </g>
     </g>
     <g id="text_16">
      <!-- −2 -->
      <g transform="translate(378.012838 188.638438)scale(0.1 -0.1)">
       <use xlink:href="#DejaVuSans-2212"/>
       <use x="83.789062" xlink:href="#DejaVuSans-32"/>
      </g>
     </g>
    </g>
    <g id="xtick_8">
     <g id="line2d_20">
      <g>
       <use style="stroke:#000000;stroke-width:0.8;" x="424.461569" xlink:href="#mb3b0bb1530" y="174.04"/>
      </g>
     </g>
     <g id="text_17">
      <!-- −1 -->
      <g transform="translate(417.090475 188.638438)scale(0.1 -0.1)">
       <use xlink:href="#DejaVuSans-2212"/>
       <use x="83.789062" xlink:href="#DejaVuSans-31"/>
      </g>
     </g>
    </g>
    <g id="xtick_9">
     <g id="line2d_21">
      <g>
       <use style="stroke:#000000;stroke-width:0.8;" x="463.539206" xlink:href="#mb3b0bb1530" y="174.04"/>
      </g>
     </g>
     <g id="text_18">
      <!-- 0 -->
      <g transform="translate(460.357956 188.638438)scale(0.1 -0.1)">
       <use xlink:href="#DejaVuSans-30"/>
      </g>
     </g>
    </g>
    <g id="xtick_10">
     <g id="line2d_22">
      <g>
       <use style="stroke:#000000;stroke-width:0.8;" x="502.616844" xlink:href="#mb3b0bb1530" y="174.04"/>
      </g>
     </g>
     <g id="text_19">
      <!-- 1 -->
      <g transform="translate(499.435594 188.638438)scale(0.1 -0.1)">
       <use xlink:href="#DejaVuSans-31"/>
      </g>
     </g>
    </g>
    <g id="xtick_11">
     <g id="line2d_23">
      <g>
       <use style="stroke:#000000;stroke-width:0.8;" x="541.694481" xlink:href="#mb3b0bb1530" y="174.04"/>
      </g>
     </g>
     <g id="text_20">
      <!-- 2 -->
      <g transform="translate(538.513231 188.638438)scale(0.1 -0.1)">
       <use xlink:href="#DejaVuSans-32"/>
      </g>
     </g>
    </g>
    <g id="text_21">
     <!-- Truth -->
     <g transform="translate(436.614675 202.316563)scale(0.1 -0.1)">
      <use xlink:href="#DejaVuSans-54"/>
      <use x="46.333984" xlink:href="#DejaVuSans-72"/>
      <use x="87.447266" xlink:href="#DejaVuSans-75"/>
      <use x="150.826172" xlink:href="#DejaVuSans-74"/>
      <use x="190.035156" xlink:href="#DejaVuSans-68"/>
     </g>
    </g>
   </g>
   <g id="matplotlib.axis_4">
    <g id="ytick_7">
     <g id="line2d_24">
      <g>
       <use style="stroke:#000000;stroke-width:0.8;" x="330.976138" xlink:href="#m092e5de50b" y="142.790289"/>
      </g>
     </g>
     <g id="text_22">
      <!-- −2 -->
      <g transform="translate(309.23395 146.589508)scale(0.1 -0.1)">
       <use xlink:href="#DejaVuSans-2212"/>
       <use x="83.789062" xlink:href="#DejaVuSans-32"/>
      </g>
     </g>
    </g>
    <g id="ytick_8">
     <g id="line2d_25">
      <g>
       <use style="stroke:#000000;stroke-width:0.8;" x="330.976138" xlink:href="#m092e5de50b" y="97.900953"/>
      </g>
     </g>
     <g id="text_23">
      <!-- 0 -->
      <g transform="translate(317.613638 101.700172)scale(0.1 -0.1)">
       <use xlink:href="#DejaVuSans-30"/>
      </g>
     </g>
    </g>
    <g id="ytick_9">
     <g id="line2d_26">
      <g>
       <use style="stroke:#000000;stroke-width:0.8;" x="330.976138" xlink:href="#m092e5de50b" y="53.011618"/>
      </g>
     </g>
     <g id="text_24">
      <!-- 2 -->
      <g transform="translate(317.613638 56.810836)scale(0.1 -0.1)">
       <use xlink:href="#DejaVuSans-32"/>
      </g>
     </g>
    </g>
    <g id="text_25">
     <!-- Prediction -->
     <g transform="translate(303.154263 130.925187)rotate(-90)scale(0.1 -0.1)">
      <use xlink:href="#DejaVuSans-50"/>
      <use x="58.552734" xlink:href="#DejaVuSans-72"/>
      <use x="97.416016" xlink:href="#DejaVuSans-65"/>
      <use x="158.939453" xlink:href="#DejaVuSans-64"/>
      <use x="222.416016" xlink:href="#DejaVuSans-69"/>
      <use x="250.199219" xlink:href="#DejaVuSans-63"/>
      <use x="305.179688" xlink:href="#DejaVuSans-74"/>
      <use x="344.388672" xlink:href="#DejaVuSans-69"/>
      <use x="372.171875" xlink:href="#DejaVuSans-6f"/>
      <use x="433.353516" xlink:href="#DejaVuSans-6e"/>
     </g>
    </g>
   </g>
   <g id="line2d_27">
    <path clip-path="url(#p7b4049922b)" d="M 330.976138 174.04 
L 567.592275 38.136937 
" style="fill:none;stroke:#c44e52;stroke-linecap:square;stroke-width:1.5;"/>
   </g>
   <g id="patch_32">
    <path d="M 330.976138 174.04 
L 330.976138 38.136937 
" style="fill:none;stroke:#000000;stroke-linecap:square;stroke-linejoin:miter;stroke-width:0.8;"/>
   </g>
   <g id="patch_33">
    <path d="M 567.592275 174.04 
L 567.592275 38.136937 
" style="fill:none;stroke:#000000;stroke-linecap:square;stroke-linejoin:miter;stroke-width:0.8;"/>
   </g>
   <g id="patch_34">
    <path d="M 330.976138 174.04 
L 567.592275 174.04 
" style="fill:none;stroke:#000000;stroke-linecap:square;stroke-linejoin:miter;stroke-width:0.8;"/>
   </g>
   <g id="patch_35">
    <path d="M 330.976138 38.136937 
L 567.592275 38.136937 
" style="fill:none;stroke:#000000;stroke-linecap:square;stroke-linejoin:miter;stroke-width:0.8;"/>
   </g>
  </g>
  <g id="axes_3">
   <g id="patch_36">
    <path d="M 614.232275 174.04 
L 850.848413 174.04 
L 850.848413 38.136937 
L 614.232275 38.136937 
z
" style="fill:#ffffff;"/>
   </g>
   <g id="matplotlib.axis_5">
    <g id="xtick_12">
     <g id="line2d_28">
      <g>
       <use style="stroke:#000000;stroke-width:0.8;" x="624.987554" xlink:href="#mb3b0bb1530" y="174.04"/>
      </g>
     </g>
     <g id="text_26">
      <!-- 0 -->
      <g transform="translate(621.806304 188.638438)scale(0.1 -0.1)">
       <use xlink:href="#DejaVuSans-30"/>
      </g>
     </g>
    </g>
    <g id="xtick_13">
     <g id="line2d_29">
      <g>
       <use style="stroke:#000000;stroke-width:0.8;" x="668.443227" xlink:href="#mb3b0bb1530" y="174.04"/>
      </g>
     </g>
     <g id="text_27">
      <!-- 20 -->
      <g transform="translate(662.080727 188.638438)scale(0.1 -0.1)">
       <use xlink:href="#DejaVuSans-32"/>
       <use x="63.623047" xlink:href="#DejaVuSans-30"/>
      </g>
     </g>
    </g>
    <g id="xtick_14">
     <g id="line2d_30">
      <g>
       <use style="stroke:#000000;stroke-width:0.8;" x="711.898899" xlink:href="#mb3b0bb1530" y="174.04"/>
      </g>
     </g>
     <g id="text_28">
      <!-- 40 -->
      <g transform="translate(705.536399 188.638438)scale(0.1 -0.1)">
       <use xlink:href="#DejaVuSans-34"/>
       <use x="63.623047" xlink:href="#DejaVuSans-30"/>
      </g>
     </g>
    </g>
    <g id="xtick_15">
     <g id="line2d_31">
      <g>
       <use style="stroke:#000000;stroke-width:0.8;" x="755.354572" xlink:href="#mb3b0bb1530" y="174.04"/>
      </g>
     </g>
     <g id="text_29">
      <!-- 60 -->
      <g transform="translate(748.992072 188.638438)scale(0.1 -0.1)">
       <defs>
        <path d="M 2113 2584 
Q 1688 2584 1439 2293 
Q 1191 2003 1191 1497 
Q 1191 994 1439 701 
Q 1688 409 2113 409 
Q 2538 409 2786 701 
Q 3034 994 3034 1497 
Q 3034 2003 2786 2293 
Q 2538 2584 2113 2584 
z
M 3366 4563 
L 3366 3988 
Q 3128 4100 2886 4159 
Q 2644 4219 2406 4219 
Q 1781 4219 1451 3797 
Q 1122 3375 1075 2522 
Q 1259 2794 1537 2939 
Q 1816 3084 2150 3084 
Q 2853 3084 3261 2657 
Q 3669 2231 3669 1497 
Q 3669 778 3244 343 
Q 2819 -91 2113 -91 
Q 1303 -91 875 529 
Q 447 1150 447 2328 
Q 447 3434 972 4092 
Q 1497 4750 2381 4750 
Q 2619 4750 2861 4703 
Q 3103 4656 3366 4563 
z
" id="DejaVuSans-36" transform="scale(0.015625)"/>
       </defs>
       <use xlink:href="#DejaVuSans-36"/>
       <use x="63.623047" xlink:href="#DejaVuSans-30"/>
      </g>
     </g>
    </g>
    <g id="xtick_16">
     <g id="line2d_32">
      <g>
       <use style="stroke:#000000;stroke-width:0.8;" x="798.810245" xlink:href="#mb3b0bb1530" y="174.04"/>
      </g>
     </g>
     <g id="text_30">
      <!-- 80 -->
      <g transform="translate(792.447745 188.638438)scale(0.1 -0.1)">
       <defs>
        <path d="M 2034 2216 
Q 1584 2216 1326 1975 
Q 1069 1734 1069 1313 
Q 1069 891 1326 650 
Q 1584 409 2034 409 
Q 2484 409 2743 651 
Q 3003 894 3003 1313 
Q 3003 1734 2745 1975 
Q 2488 2216 2034 2216 
z
M 1403 2484 
Q 997 2584 770 2862 
Q 544 3141 544 3541 
Q 544 4100 942 4425 
Q 1341 4750 2034 4750 
Q 2731 4750 3128 4425 
Q 3525 4100 3525 3541 
Q 3525 3141 3298 2862 
Q 3072 2584 2669 2484 
Q 3125 2378 3379 2068 
Q 3634 1759 3634 1313 
Q 3634 634 3220 271 
Q 2806 -91 2034 -91 
Q 1263 -91 848 271 
Q 434 634 434 1313 
Q 434 1759 690 2068 
Q 947 2378 1403 2484 
z
M 1172 3481 
Q 1172 3119 1398 2916 
Q 1625 2713 2034 2713 
Q 2441 2713 2670 2916 
Q 2900 3119 2900 3481 
Q 2900 3844 2670 4047 
Q 2441 4250 2034 4250 
Q 1625 4250 1398 4047 
Q 1172 3844 1172 3481 
z
" id="DejaVuSans-38" transform="scale(0.015625)"/>
       </defs>
       <use xlink:href="#DejaVuSans-38"/>
       <use x="63.623047" xlink:href="#DejaVuSans-30"/>
      </g>
     </g>
    </g>
    <g id="xtick_17">
     <g id="line2d_33">
      <g>
       <use style="stroke:#000000;stroke-width:0.8;" x="842.265917" xlink:href="#mb3b0bb1530" y="174.04"/>
      </g>
     </g>
     <g id="text_31">
      <!-- 100 -->
      <g transform="translate(832.722167 188.638438)scale(0.1 -0.1)">
       <use xlink:href="#DejaVuSans-31"/>
       <use x="63.623047" xlink:href="#DejaVuSans-30"/>
       <use x="127.246094" xlink:href="#DejaVuSans-30"/>
      </g>
     </g>
    </g>
   </g>
   <g id="matplotlib.axis_6">
    <g id="ytick_10">
     <g id="line2d_34">
      <g>
       <use style="stroke:#000000;stroke-width:0.8;" x="614.232275" xlink:href="#m092e5de50b" y="142.790289"/>
      </g>
     </g>
     <g id="text_32">
      <!-- −2 -->
      <g transform="translate(592.490088 146.589508)scale(0.1 -0.1)">
       <use xlink:href="#DejaVuSans-2212"/>
       <use x="83.789062" xlink:href="#DejaVuSans-32"/>
      </g>
     </g>
    </g>
    <g id="ytick_11">
     <g id="line2d_35">
      <g>
       <use style="stroke:#000000;stroke-width:0.8;" x="614.232275" xlink:href="#m092e5de50b" y="97.900953"/>
      </g>
     </g>
     <g id="text_33">
      <!-- 0 -->
      <g transform="translate(600.869775 101.700172)scale(0.1 -0.1)">
       <use xlink:href="#DejaVuSans-30"/>
      </g>
     </g>
    </g>
    <g id="ytick_12">
     <g id="line2d_36">
      <g>
       <use style="stroke:#000000;stroke-width:0.8;" x="614.232275" xlink:href="#m092e5de50b" y="53.011618"/>
      </g>
     </g>
     <g id="text_34">
      <!-- 2 -->
      <g transform="translate(600.869775 56.810836)scale(0.1 -0.1)">
       <use xlink:href="#DejaVuSans-32"/>
      </g>
     </g>
    </g>
   </g>
   <g id="line2d_37">
    <path clip-path="url(#pc38054f579)" d="M 624.987554 91.161171 
L 627.160338 50.529046 
L 629.333121 66.184718 
L 631.505905 64.07728 
L 633.678689 79.554747 
L 635.851472 83.387881 
L 638.024256 124.422276 
L 640.19704 105.421966 
L 642.369823 56.90064 
L 644.542607 130.584081 
L 646.71539 108.00738 
L 648.888174 129.755191 
L 651.060958 65.334822 
L 653.233741 110.599727 
L 655.406525 63.234393 
L 657.579309 107.187715 
L 659.752092 109.21603 
L 661.924876 69.20479 
L 664.09766 76.829187 
L 666.270443 158.866963 
L 668.443227 87.775248 
L 670.61601 84.430407 
L 672.788794 93.191906 
L 674.961578 112.661869 
L 677.134361 97.263335 
L 679.307145 106.835311 
L 681.479929 93.157878 
L 683.652712 102.443625 
L 685.825496 111.859924 
L 687.998279 94.22518 
L 690.171063 79.890479 
L 692.343847 91.414312 
L 694.51663 110.327273 
L 696.689414 90.353844 
L 698.862198 73.889818 
L 701.034981 62.092637 
L 703.207765 70.797837 
L 705.380549 85.839633 
L 707.553332 120.550407 
L 709.726116 128.550331 
L 711.898899 102.443332 
L 714.071683 129.529638 
L 716.244467 115.515186 
L 718.41725 101.719292 
L 720.590034 108.768895 
L 722.762818 105.260965 
L 724.935601 127.707576 
L 727.108385 92.705759 
L 729.281168 75.534661 
L 731.453952 110.203717 
L 733.626736 81.611616 
L 735.799519 38.136937 
L 737.972303 99.961621 
L 740.145087 83.284761 
L 742.31787 93.484514 
L 744.490654 76.138071 
L 746.663438 136.475479 
L 748.836221 121.623997 
L 751.009005 94.680953 
L 753.181788 77.993373 
L 755.354572 94.971385 
L 757.527356 135.261747 
L 759.700139 116.38668 
L 761.872923 115.737868 
L 764.045707 89.170158 
L 766.21849 115.004665 
L 768.391274 113.181443 
L 770.564058 73.554154 
L 772.736841 67.930223 
L 774.909625 107.176769 
L 777.082408 88.364154 
L 779.255192 140.130232 
L 781.427976 93.449568 
L 783.600759 71.192291 
L 785.773543 86.077513 
L 787.946327 95.632676 
L 790.11911 106.623916 
L 792.291894 112.417985 
L 794.464677 101.920398 
L 796.637461 132.722534 
L 798.810245 61.754736 
L 800.983028 85.237433 
L 803.155812 100.200119 
L 805.328596 111.812266 
L 807.501379 99.479703 
L 809.674163 79.994711 
L 811.846947 75.199341 
L 814.01973 118.183996 
L 816.192514 119.751483 
L 818.365297 51.255772 
L 820.538081 72.390504 
L 822.710865 81.998459 
L 824.883648 101.012822 
L 827.056432 77.161624 
L 829.229216 126.478249 
L 831.401999 63.52092 
L 833.574783 98.703849 
L 835.747566 80.15033 
L 837.92035 83.39681 
L 840.093134 100.854019 
" style="fill:none;stroke:#1f77b4;stroke-linecap:square;stroke-width:1.5;"/>
   </g>
   <g id="line2d_38">
    <path clip-path="url(#pc38054f579)" d="M 624.987554 101.836993 
L 627.160338 70.482925 
L 629.333121 74.86156 
L 631.505905 137.678092 
L 633.678689 135.886438 
L 635.851472 119.138561 
L 638.024256 117.956283 
L 640.19704 123.005895 
L 642.369823 91.79352 
L 644.542607 108.308646 
L 646.71539 70.829887 
L 648.888174 65.291594 
L 651.060958 98.544739 
L 653.233741 60.116299 
L 655.406525 97.357471 
L 657.579309 107.659685 
L 659.752092 96.446859 
L 661.924876 76.693884 
L 664.09766 134.136994 
L 666.270443 102.582896 
L 668.443227 91.225782 
L 670.61601 89.751639 
L 672.788794 106.170385 
L 674.961578 86.93032 
L 677.134361 91.344381 
L 679.307145 111.186134 
L 681.479929 48.935697 
L 683.652712 88.035395 
L 685.825496 105.334254 
L 687.998279 110.732997 
L 690.171063 74.796212 
L 692.343847 95.610255 
L 694.51663 40.70941 
L 696.689414 107.685126 
L 698.862198 125.790853 
L 701.034981 98.522636 
L 703.207765 93.971622 
L 705.380549 145.448874 
L 707.553332 104.840138 
L 709.726116 106.169916 
L 711.898899 106.177728 
L 714.071683 112.046161 
L 716.244467 128.048464 
L 718.41725 80.887041 
L 720.590034 111.005067 
L 722.762818 120.877592 
L 724.935601 114.957426 
L 727.108385 108.502092 
L 729.281168 95.462405 
L 731.453952 82.900307 
L 733.626736 119.294751 
L 735.799519 108.658624 
L 737.972303 128.100427 
L 740.145087 174.04 
L 742.31787 94.40421 
L 744.490654 63.784979 
L 746.663438 86.182968 
L 748.836221 109.281746 
L 751.009005 95.735511 
L 753.181788 124.2694 
L 755.354572 100.645765 
L 757.527356 107.500745 
L 759.700139 117.039841 
L 761.872923 88.796224 
L 764.045707 39.547798 
L 766.21849 60.520492 
L 768.391274 99.518608 
L 770.564058 78.057294 
L 772.736841 78.537772 
L 774.909625 112.434729 
L 777.082408 83.44874 
L 779.255192 130.243542 
L 781.427976 115.975608 
L 783.600759 92.542224 
L 785.773543 107.210725 
L 787.946327 58.477374 
L 790.11911 83.355901 
L 792.291894 106.475672 
L 794.464677 108.462959 
L 796.637461 93.70446 
L 798.810245 121.592003 
L 800.983028 84.532641 
L 803.155812 128.769149 
L 805.328596 83.917696 
L 807.501379 101.595227 
L 809.674163 88.595091 
L 811.846947 120.628108 
L 814.01973 92.402342 
L 816.192514 43.75661 
L 818.365297 108.163032 
L 820.538081 90.777019 
L 822.710865 64.109003 
L 824.883648 80.804757 
L 827.056432 88.207427 
L 829.229216 120.652872 
L 831.401999 126.576 
L 833.574783 96.70168 
L 835.747566 108.298128 
L 837.92035 98.328709 
L 840.093134 93.285058 
" style="fill:none;stroke:#ff7f0e;stroke-linecap:square;stroke-width:1.5;"/>
   </g>
   <g id="patch_37">
    <path d="M 614.232275 174.04 
L 614.232275 38.136937 
" style="fill:none;stroke:#000000;stroke-linecap:square;stroke-linejoin:miter;stroke-width:0.8;"/>
   </g>
   <g id="patch_38">
    <path d="M 850.848413 174.04 
L 850.848413 38.136937 
" style="fill:none;stroke:#000000;stroke-linecap:square;stroke-linejoin:miter;stroke-width:0.8;"/>
   </g>
   <g id="patch_39">
    <path d="M 614.232275 174.04 
L 850.848413 174.04 
" style="fill:none;stroke:#000000;stroke-linecap:square;stroke-linejoin:miter;stroke-width:0.8;"/>
   </g>
   <g id="patch_40">
    <path d="M 614.232275 38.136937 
L 850.848413 38.136937 
" style="fill:none;stroke:#000000;stroke-linecap:square;stroke-linejoin:miter;stroke-width:0.8;"/>
   </g>
   <g id="legend_2">
    <g id="patch_41">
     <path d="M 762.174975 169.04 
L 843.848413 169.04 
Q 845.848413 169.04 845.848413 167.04 
L 845.848413 138.68375 
Q 845.848413 136.68375 843.848413 136.68375 
L 762.174975 136.68375 
Q 760.174975 136.68375 760.174975 138.68375 
L 760.174975 167.04 
Q 760.174975 169.04 762.174975 169.04 
z
" style="fill:#ffffff;opacity:0.8;stroke:#cccccc;stroke-linejoin:miter;"/>
    </g>
    <g id="line2d_39">
     <path d="M 764.174975 144.782188 
L 784.174975 144.782188 
" style="fill:none;stroke:#1f77b4;stroke-linecap:square;stroke-width:1.5;"/>
    </g>
    <g id="line2d_40"/>
    <g id="text_35">
     <!-- Truth -->
     <g transform="translate(792.174975 148.282188)scale(0.1 -0.1)">
      <use xlink:href="#DejaVuSans-54"/>
      <use x="46.333984" xlink:href="#DejaVuSans-72"/>
      <use x="87.447266" xlink:href="#DejaVuSans-75"/>
      <use x="150.826172" xlink:href="#DejaVuSans-74"/>
      <use x="190.035156" xlink:href="#DejaVuSans-68"/>
     </g>
    </g>
    <g id="line2d_41">
     <path d="M 764.174975 159.460313 
L 784.174975 159.460313 
" style="fill:none;stroke:#ff7f0e;stroke-linecap:square;stroke-width:1.5;"/>
    </g>
    <g id="line2d_42"/>
    <g id="text_36">
     <!-- Prediction -->
     <g transform="translate(792.174975 162.960313)scale(0.1 -0.1)">
      <use xlink:href="#DejaVuSans-50"/>
      <use x="58.552734" xlink:href="#DejaVuSans-72"/>
      <use x="97.416016" xlink:href="#DejaVuSans-65"/>
      <use x="158.939453" xlink:href="#DejaVuSans-64"/>
      <use x="222.416016" xlink:href="#DejaVuSans-69"/>
      <use x="250.199219" xlink:href="#DejaVuSans-63"/>
      <use x="305.179688" xlink:href="#DejaVuSans-74"/>
      <use x="344.388672" xlink:href="#DejaVuSans-69"/>
      <use x="372.171875" xlink:href="#DejaVuSans-6f"/>
      <use x="433.353516" xlink:href="#DejaVuSans-6e"/>
     </g>
    </g>
   </g>
  </g>
  <g id="text_37">
   <!-- Multiple plots in one figure -->
   <g transform="translate(351.865313 13.438125)scale(0.12 -0.12)">
    <defs>
     <path d="M 628 4666 
L 1569 4666 
L 2759 1491 
L 3956 4666 
L 4897 4666 
L 4897 0 
L 4281 0 
L 4281 4097 
L 3078 897 
L 2444 897 
L 1241 4097 
L 1241 0 
L 628 0 
L 628 4666 
z
" id="DejaVuSans-4d" transform="scale(0.015625)"/>
     <path d="M 603 4863 
L 1178 4863 
L 1178 0 
L 603 0 
L 603 4863 
z
" id="DejaVuSans-6c" transform="scale(0.015625)"/>
     <path d="M 1159 525 
L 1159 -1331 
L 581 -1331 
L 581 3500 
L 1159 3500 
L 1159 2969 
Q 1341 3281 1617 3432 
Q 1894 3584 2278 3584 
Q 2916 3584 3314 3078 
Q 3713 2572 3713 1747 
Q 3713 922 3314 415 
Q 2916 -91 2278 -91 
Q 1894 -91 1617 61 
Q 1341 213 1159 525 
z
M 3116 1747 
Q 3116 2381 2855 2742 
Q 2594 3103 2138 3103 
Q 1681 3103 1420 2742 
Q 1159 2381 1159 1747 
Q 1159 1113 1420 752 
Q 1681 391 2138 391 
Q 2594 391 2855 752 
Q 3116 1113 3116 1747 
z
" id="DejaVuSans-70" transform="scale(0.015625)"/>
     <path id="DejaVuSans-20" transform="scale(0.015625)"/>
     <path d="M 2375 4863 
L 2375 4384 
L 1825 4384 
Q 1516 4384 1395 4259 
Q 1275 4134 1275 3809 
L 1275 3500 
L 2222 3500 
L 2222 3053 
L 1275 3053 
L 1275 0 
L 697 0 
L 697 3053 
L 147 3053 
L 147 3500 
L 697 3500 
L 697 3744 
Q 697 4328 969 4595 
Q 1241 4863 1831 4863 
L 2375 4863 
z
" id="DejaVuSans-66" transform="scale(0.015625)"/>
     <path d="M 2906 1791 
Q 2906 2416 2648 2759 
Q 2391 3103 1925 3103 
Q 1463 3103 1205 2759 
Q 947 2416 947 1791 
Q 947 1169 1205 825 
Q 1463 481 1925 481 
Q 2391 481 2648 825 
Q 2906 1169 2906 1791 
z
M 3481 434 
Q 3481 -459 3084 -895 
Q 2688 -1331 1869 -1331 
Q 1566 -1331 1297 -1286 
Q 1028 -1241 775 -1147 
L 775 -588 
Q 1028 -725 1275 -790 
Q 1522 -856 1778 -856 
Q 2344 -856 2625 -561 
Q 2906 -266 2906 331 
L 2906 616 
Q 2728 306 2450 153 
Q 2172 0 1784 0 
Q 1141 0 747 490 
Q 353 981 353 1791 
Q 353 2603 747 3093 
Q 1141 3584 1784 3584 
Q 2172 3584 2450 3431 
Q 2728 3278 2906 2969 
L 2906 3500 
L 3481 3500 
L 3481 434 
z
" id="DejaVuSans-67" transform="scale(0.015625)"/>
    </defs>
    <use xlink:href="#DejaVuSans-4d"/>
    <use x="86.279297" xlink:href="#DejaVuSans-75"/>
    <use x="149.658203" xlink:href="#DejaVuSans-6c"/>
    <use x="177.441406" xlink:href="#DejaVuSans-74"/>
    <use x="216.650391" xlink:href="#DejaVuSans-69"/>
    <use x="244.433594" xlink:href="#DejaVuSans-70"/>
    <use x="307.910156" xlink:href="#DejaVuSans-6c"/>
    <use x="335.693359" xlink:href="#DejaVuSans-65"/>
    <use x="397.216797" xlink:href="#DejaVuSans-20"/>
    <use x="429.003906" xlink:href="#DejaVuSans-70"/>
    <use x="492.480469" xlink:href="#DejaVuSans-6c"/>
    <use x="520.263672" xlink:href="#DejaVuSans-6f"/>
    <use x="581.445312" xlink:href="#DejaVuSans-74"/>
    <use x="620.654297" xlink:href="#DejaVuSans-73"/>
    <use x="672.753906" xlink:href="#DejaVuSans-20"/>
    <use x="704.541016" xlink:href="#DejaVuSans-69"/>
    <use x="732.324219" xlink:href="#DejaVuSans-6e"/>
    <use x="795.703125" xlink:href="#DejaVuSans-20"/>
    <use x="827.490234" xlink:href="#DejaVuSans-6f"/>
    <use x="888.671875" xlink:href="#DejaVuSans-6e"/>
    <use x="952.050781" xlink:href="#DejaVuSans-65"/>
    <use x="1013.574219" xlink:href="#DejaVuSans-20"/>
    <use x="1045.361328" xlink:href="#DejaVuSans-66"/>
    <use x="1080.566406" xlink:href="#DejaVuSans-69"/>
    <use x="1108.349609" xlink:href="#DejaVuSans-67"/>
    <use x="1171.826172" xlink:href="#DejaVuSans-75"/>
    <use x="1235.205078" xlink:href="#DejaVuSans-72"/>
    <use x="1274.068359" xlink:href="#DejaVuSans-65"/>
   </g>
  </g>
 </g>
 <defs>
  <clipPath id="p60da10d4a1">
   <rect height="135.903063" width="236.616138" x="47.72" y="38.136937"/>
  </clipPath>
  <clipPath id="p7b4049922b">
   <rect height="135.903063" width="236.616138" x="330.976138" y="38.136937"/>
  </clipPath>
  <clipPath id="pc38054f579">
   <rect height="135.903063" width="236.616138" x="614.232275" y="38.136937"/>
  </clipPath>
 </defs>
</svg>
