<?xml version="1.0" encoding="utf-8" standalone="no"?>
<!DOCTYPE svg PUBLIC "-//W3C//DTD SVG 1.1//EN"
  "http://www.w3.org/Graphics/SVG/1.1/DTD/svg11.dtd">
<svg xmlns:xlink="http://www.w3.org/1999/xlink" width="864pt" height="216pt" viewBox="0 0 864 216" xmlns="http://www.w3.org/2000/svg" version="1.1">
 <metadata>
  <rdf:RDF xmlns:dc="http://purl.org/dc/elements/1.1/" xmlns:cc="http://creativecommons.org/ns#" xmlns:rdf="http://www.w3.org/1999/02/22-rdf-syntax-ns#">
   <cc:Work>
    <dc:type rdf:resource="http://purl.org/dc/dcmitype/StillImage"/>
    <dc:date>2026-01-07T11:04:18.469410</dc:date>
    <dc:format>image/svg+xml</dc:format>
    <dc:creator>
     <cc:Agent>
      <dc:title>Matplotlib v3.10.8, https://matplotlib.org/</dc:title>
     </cc:Agent>
    </dc:creator>
   </cc:Work>
  </rdf:RDF>
 </metadata>
 <defs>
  <style type="text/css">*{stroke-linejoin: round; stroke-linecap: butt}</style>
 </defs>
 <g id="figure_1">
  <g id="patch_1">
   <path d="M 0 216 
L 864 216 
L 864 0 
L 0 0 
z
" style="fill: #ffffff"/>
  </g>
  <g id="axes_1">
   <g id="patch_2">
    <path d="M 44.66 174.04 
L 282.296138 174.04 
L 282.296138 34.56 
L 44.66 34.56 
z
" style="fill: #ffffff"/>
   </g>
   <g id="patch_3">
    <path d="M 93.712471 174.04 
L 108.200587 174.04 
L 108.200587 164.868471 
L 93.712471 164.868471 
z
" clip-path="url(#p877f4920bb)" style="fill: #ff7f0e; fill-opacity: 0.5"/>
   </g>
   <g id="patch_4">
    <path d="M 108.200587 174.04 
L 122.688704 174.04 
L 122.688704 174.04 
L 108.200587 174.04 
z
" clip-path="url(#p877f4920bb)" style="fill: #ff7f0e; fill-opacity: 0.5"/>
   </g>
   <g id="patch_5">
    <path d="M 122.688704 174.04 
L 137.17682 174.04 
L 137.17682 123.596591 
L 122.688704 123.596591 
z
" clip-path="url(#p877f4920bb)" style="fill: #ff7f0e; fill-opacity: 0.5"/>
   </g>
   <g id="patch_6">
    <path d="M 137.17682 174.04 
L 151.664936 174.04 
L 151.664936 54.810125 
L 137.17682 54.810125 
z
" clip-path="url(#p877f4920bb)" style="fill: #ff7f0e; fill-opacity: 0.5"/>
   </g>
   <g id="patch_7">
    <path d="M 151.664936 174.04 
L 166.153052 174.04 
L 166.153052 82.324711 
L 151.664936 82.324711 
z
" clip-path="url(#p877f4920bb)" style="fill: #ff7f0e; fill-opacity: 0.5"/>
   </g>
   <g id="patch_8">
    <path d="M 166.153052 174.04 
L 180.641169 174.04 
L 180.641169 91.49624 
L 166.153052 91.49624 
z
" clip-path="url(#p877f4920bb)" style="fill: #ff7f0e; fill-opacity: 0.5"/>
   </g>
   <g id="patch_9">
    <path d="M 180.641169 174.04 
L 195.129285 174.04 
L 195.129285 119.010827 
L 180.641169 119.010827 
z
" clip-path="url(#p877f4920bb)" style="fill: #ff7f0e; fill-opacity: 0.5"/>
   </g>
   <g id="patch_10">
    <path d="M 195.129285 174.04 
L 209.617401 174.04 
L 209.617401 137.353884 
L 195.129285 137.353884 
z
" clip-path="url(#p877f4920bb)" style="fill: #ff7f0e; fill-opacity: 0.5"/>
   </g>
   <g id="patch_11">
    <path d="M 209.617401 174.04 
L 224.105518 174.04 
L 224.105518 160.282707 
L 209.617401 160.282707 
z
" clip-path="url(#p877f4920bb)" style="fill: #ff7f0e; fill-opacity: 0.5"/>
   </g>
   <g id="patch_12">
    <path d="M 86.454835 174.04 
L 100.45906 174.04 
L 100.45906 169.295782 
L 86.454835 169.295782 
z
" clip-path="url(#p877f4920bb)" style="fill: #1f77b4; fill-opacity: 0.5"/>
   </g>
   <g id="patch_13">
    <path d="M 100.45906 174.04 
L 114.463284 174.04 
L 114.463284 174.04 
L 100.45906 174.04 
z
" clip-path="url(#p877f4920bb)" style="fill: #1f77b4; fill-opacity: 0.5"/>
   </g>
   <g id="patch_14">
    <path d="M 114.463284 174.04 
L 128.467508 174.04 
L 128.467508 136.086259 
L 114.463284 136.086259 
z
" clip-path="url(#p877f4920bb)" style="fill: #1f77b4; fill-opacity: 0.5"/>
   </g>
   <g id="patch_15">
    <path d="M 128.467508 174.04 
L 142.471732 174.04 
L 142.471732 126.597823 
L 128.467508 126.597823 
z
" clip-path="url(#p877f4920bb)" style="fill: #1f77b4; fill-opacity: 0.5"/>
   </g>
   <g id="patch_16">
    <path d="M 142.471732 174.04 
L 156.475957 174.04 
L 156.475957 121.853605 
L 142.471732 121.853605 
z
" clip-path="url(#p877f4920bb)" style="fill: #1f77b4; fill-opacity: 0.5"/>
   </g>
   <g id="patch_17">
    <path d="M 156.475957 174.04 
L 170.480181 174.04 
L 170.480181 74.411429 
L 156.475957 74.411429 
z
" clip-path="url(#p877f4920bb)" style="fill: #1f77b4; fill-opacity: 0.5"/>
   </g>
   <g id="patch_18">
    <path d="M 170.480181 174.04 
L 184.484405 174.04 
L 184.484405 41.201905 
L 170.480181 41.201905 
z
" clip-path="url(#p877f4920bb)" style="fill: #1f77b4; fill-opacity: 0.5"/>
   </g>
   <g id="patch_19">
    <path d="M 184.484405 174.04 
L 198.488629 174.04 
L 198.488629 131.342041 
L 184.484405 131.342041 
z
" clip-path="url(#p877f4920bb)" style="fill: #1f77b4; fill-opacity: 0.5"/>
   </g>
   <g id="patch_20">
    <path d="M 198.488629 174.04 
L 212.492854 174.04 
L 212.492854 126.597823 
L 198.488629 126.597823 
z
" clip-path="url(#p877f4920bb)" style="fill: #1f77b4; fill-opacity: 0.5"/>
   </g>
   <g id="patch_21">
    <path d="M 212.492854 174.04 
L 226.497078 174.04 
L 226.497078 169.295782 
L 212.492854 169.295782 
z
" clip-path="url(#p877f4920bb)" style="fill: #1f77b4; fill-opacity: 0.5"/>
   </g>
   <g id="patch_22">
    <path d="M 226.497078 174.04 
L 240.501302 174.04 
L 240.501302 169.295782 
L 226.497078 169.295782 
z
" clip-path="url(#p877f4920bb)" style="fill: #1f77b4; fill-opacity: 0.5"/>
   </g>
   <g id="matplotlib.axis_1">
    <g id="xtick_1">
     <g id="line2d_1">
      <path d="M 63.952986 174.04 
L 63.952986 34.56 
" clip-path="url(#p877f4920bb)" style="fill: none; stroke: #b0b0b0; stroke-opacity: 0.4; stroke-width: 0.8; stroke-linecap: square"/>
     </g>
     <g id="line2d_2">
      <defs>
       <path id="me151def718" d="M 0 0 
L 0 3.5 
" style="stroke: #000000; stroke-width: 0.8"/>
      </defs>
      <g>
       <use xlink:href="#me151def718" x="63.952986" y="174.04" style="stroke: #000000; stroke-width: 0.8"/>
      </g>
     </g>
     <g id="text_1">
      <!-- −4 -->
      <g transform="translate(56.581892 188.638438) scale(0.1 -0.1)">
       <defs>
        <path id="DejaVuSans-2212" d="M 678 2272 
L 4684 2272 
L 4684 1741 
L 678 1741 
L 678 2272 
z
" transform="scale(0.015625)"/>
        <path id="DejaVuSans-34" d="M 2419 4116 
L 825 1625 
L 2419 1625 
L 2419 4116 
z
M 2253 4666 
L 3047 4666 
L 3047 1625 
L 3713 1625 
L 3713 1100 
L 3047 1100 
L 3047 0 
L 2419 0 
L 2419 1100 
L 313 1100 
L 313 1709 
L 2253 4666 
z
" transform="scale(0.015625)"/>
       </defs>
       <use xlink:href="#DejaVuSans-2212"/>
       <use xlink:href="#DejaVuSans-34" transform="translate(83.789062 0)"/>
      </g>
     </g>
    </g>
    <g id="xtick_2">
     <g id="line2d_3">
      <path d="M 114.911526 174.04 
L 114.911526 34.56 
" clip-path="url(#p877f4920bb)" style="fill: none; stroke: #b0b0b0; stroke-opacity: 0.4; stroke-width: 0.8; stroke-linecap: square"/>
     </g>
     <g id="line2d_4">
      <g>
       <use xlink:href="#me151def718" x="114.911526" y="174.04" style="stroke: #000000; stroke-width: 0.8"/>
      </g>
     </g>
     <g id="text_2">
      <!-- −2 -->
      <g transform="translate(107.540433 188.638438) scale(0.1 -0.1)">
       <defs>
        <path id="DejaVuSans-32" d="M 1228 531 
L 3431 531 
L 3431 0 
L 469 0 
L 469 531 
Q 828 903 1448 1529 
Q 2069 2156 2228 2338 
Q 2531 2678 2651 2914 
Q 2772 3150 2772 3378 
Q 2772 3750 2511 3984 
Q 2250 4219 1831 4219 
Q 1534 4219 1204 4116 
Q 875 4013 500 3803 
L 500 4441 
Q 881 4594 1212 4672 
Q 1544 4750 1819 4750 
Q 2544 4750 2975 4387 
Q 3406 4025 3406 3419 
Q 3406 3131 3298 2873 
Q 3191 2616 2906 2266 
Q 2828 2175 2409 1742 
Q 1991 1309 1228 531 
z
" transform="scale(0.015625)"/>
       </defs>
       <use xlink:href="#DejaVuSans-2212"/>
       <use xlink:href="#DejaVuSans-32" transform="translate(83.789062 0)"/>
      </g>
     </g>
    </g>
    <g id="xtick_3">
     <g id="line2d_5">
      <path d="M 165.870067 174.04 
L 165.870067 34.56 
" clip-path="url(#p877f4920bb)" style="fill: none; stroke: #b0b0b0; stroke-opacity: 0.4; stroke-width: 0.8; stroke-linecap: square"/>
     </g>
     <g id="line2d_6">
      <g>
       <use xlink:href="#me151def718" x="165.870067" y="174.04" style="stroke: #000000; stroke-width: 0.8"/>
      </g>
     </g>
     <g id="text_3">
      <!-- 0 -->
      <g transform="translate(162.688817 188.638438) scale(0.1 -0.1)">
       <defs>
        <path id="DejaVuSans-30" d="M 2034 4250 
Q 1547 4250 1301 3770 
Q 1056 3291 1056 2328 
Q 1056 1369 1301 889 
Q 1547 409 2034 409 
Q 2525 409 2770 889 
Q 3016 1369 3016 2328 
Q 3016 3291 2770 3770 
Q 2525 4250 2034 4250 
z
M 2034 4750 
Q 2819 4750 3233 4129 
Q 3647 3509 3647 2328 
Q 3647 1150 3233 529 
Q 2819 -91 2034 -91 
Q 1250 -91 836 529 
Q 422 1150 422 2328 
Q 422 3509 836 4129 
Q 1250 4750 2034 4750 
z
" transform="scale(0.015625)"/>
       </defs>
       <use xlink:href="#DejaVuSans-30"/>
      </g>
     </g>
    </g>
    <g id="xtick_4">
     <g id="line2d_7">
      <path d="M 216.828608 174.04 
L 216.828608 34.56 
" clip-path="url(#p877f4920bb)" style="fill: none; stroke: #b0b0b0; stroke-opacity: 0.4; stroke-width: 0.8; stroke-linecap: square"/>
     </g>
     <g id="line2d_8">
      <g>
       <use xlink:href="#me151def718" x="216.828608" y="174.04" style="stroke: #000000; stroke-width: 0.8"/>
      </g>
     </g>
     <g id="text_4">
      <!-- 2 -->
      <g transform="translate(213.647358 188.638438) scale(0.1 -0.1)">
       <use xlink:href="#DejaVuSans-32"/>
      </g>
     </g>
    </g>
    <g id="xtick_5">
     <g id="line2d_9">
      <path d="M 267.787148 174.04 
L 267.787148 34.56 
" clip-path="url(#p877f4920bb)" style="fill: none; stroke: #b0b0b0; stroke-opacity: 0.4; stroke-width: 0.8; stroke-linecap: square"/>
     </g>
     <g id="line2d_10">
      <g>
       <use xlink:href="#me151def718" x="267.787148" y="174.04" style="stroke: #000000; stroke-width: 0.8"/>
      </g>
     </g>
     <g id="text_5">
      <!-- 4 -->
      <g transform="translate(264.605898 188.638438) scale(0.1 -0.1)">
       <use xlink:href="#DejaVuSans-34"/>
      </g>
     </g>
    </g>
   </g>
   <g id="matplotlib.axis_2">
    <g id="ytick_1">
     <g id="line2d_11">
      <path d="M 44.66 174.04 
L 282.296138 174.04 
" clip-path="url(#p877f4920bb)" style="fill: none; stroke: #b0b0b0; stroke-opacity: 0.4; stroke-width: 0.8; stroke-linecap: square"/>
     </g>
     <g id="line2d_12">
      <defs>
       <path id="m4360e03428" d="M 0 0 
L -3.5 0 
" style="stroke: #000000; stroke-width: 0.8"/>
      </defs>
      <g>
       <use xlink:href="#m4360e03428" x="44.66" y="174.04" style="stroke: #000000; stroke-width: 0.8"/>
      </g>
     </g>
     <g id="text_6">
      <!-- 0 -->
      <g transform="translate(31.2975 177.839219) scale(0.1 -0.1)">
       <use xlink:href="#DejaVuSans-30"/>
      </g>
     </g>
    </g>
    <g id="ytick_2">
     <g id="line2d_13">
      <path d="M 44.66 158.394555 
L 282.296138 158.394555 
" clip-path="url(#p877f4920bb)" style="fill: none; stroke: #b0b0b0; stroke-opacity: 0.4; stroke-width: 0.8; stroke-linecap: square"/>
     </g>
     <g id="line2d_14">
      <g>
       <use xlink:href="#m4360e03428" x="44.66" y="158.394555" style="stroke: #000000; stroke-width: 0.8"/>
      </g>
     </g>
     <g id="text_7">
      <!-- 3 -->
      <g transform="translate(31.2975 162.193773) scale(0.1 -0.1)">
       <defs>
        <path id="DejaVuSans-33" d="M 2597 2516 
Q 3050 2419 3304 2112 
Q 3559 1806 3559 1356 
Q 3559 666 3084 287 
Q 2609 -91 1734 -91 
Q 1441 -91 1130 -33 
Q 819 25 488 141 
L 488 750 
Q 750 597 1062 519 
Q 1375 441 1716 441 
Q 2309 441 2620 675 
Q 2931 909 2931 1356 
Q 2931 1769 2642 2001 
Q 2353 2234 1838 2234 
L 1294 2234 
L 1294 2753 
L 1863 2753 
Q 2328 2753 2575 2939 
Q 2822 3125 2822 3475 
Q 2822 3834 2567 4026 
Q 2313 4219 1838 4219 
Q 1578 4219 1281 4162 
Q 984 4106 628 3988 
L 628 4550 
Q 988 4650 1302 4700 
Q 1616 4750 1894 4750 
Q 2613 4750 3031 4423 
Q 3450 4097 3450 3541 
Q 3450 3153 3228 2886 
Q 3006 2619 2597 2516 
z
" transform="scale(0.015625)"/>
       </defs>
       <use xlink:href="#DejaVuSans-33"/>
      </g>
     </g>
    </g>
    <g id="ytick_3">
     <g id="line2d_15">
      <path d="M 44.66 142.749109 
L 282.296138 142.749109 
" clip-path="url(#p877f4920bb)" style="fill: none; stroke: #b0b0b0; stroke-opacity: 0.4; stroke-width: 0.8; stroke-linecap: square"/>
     </g>
     <g id="line2d_16">
      <g>
       <use xlink:href="#m4360e03428" x="44.66" y="142.749109" style="stroke: #000000; stroke-width: 0.8"/>
      </g>
     </g>
     <g id="text_8">
      <!-- 6 -->
      <g transform="translate(31.2975 146.548328) scale(0.1 -0.1)">
       <defs>
        <path id="DejaVuSans-36" d="M 2113 2584 
Q 1688 2584 1439 2293 
Q 1191 2003 1191 1497 
Q 1191 994 1439 701 
Q 1688 409 2113 409 
Q 2538 409 2786 701 
Q 3034 994 3034 1497 
Q 3034 2003 2786 2293 
Q 2538 2584 2113 2584 
z
M 3366 4563 
L 3366 3988 
Q 3128 4100 2886 4159 
Q 2644 4219 2406 4219 
Q 1781 4219 1451 3797 
Q 1122 3375 1075 2522 
Q 1259 2794 1537 2939 
Q 1816 3084 2150 3084 
Q 2853 3084 3261 2657 
Q 3669 2231 3669 1497 
Q 3669 778 3244 343 
Q 2819 -91 2113 -91 
Q 1303 -91 875 529 
Q 447 1150 447 2328 
Q 447 3434 972 4092 
Q 1497 4750 2381 4750 
Q 2619 4750 2861 4703 
Q 3103 4656 3366 4563 
z
" transform="scale(0.015625)"/>
       </defs>
       <use xlink:href="#DejaVuSans-36"/>
      </g>
     </g>
    </g>
    <g id="ytick_4">
     <g id="line2d_17">
      <path d="M 44.66 127.103664 
L 282.296138 127.103664 
" clip-path="url(#p877f4920bb)" style="fill: none; stroke: #b0b0b0; stroke-opacity: 0.4; stroke-width: 0.8; stroke-linecap: square"/>
     </g>
     <g id="line2d_18">
      <g>
       <use xlink:href="#m4360e03428" x="44.66" y="127.103664" style="stroke: #000000; stroke-width: 0.8"/>
      </g>
     </g>
     <g id="text_9">
      <!-- 9 -->
      <g transform="translate(31.2975 130.902883) scale(0.1 -0.1)">
       <defs>
        <path id="DejaVuSans-39" d="M 703 97 
L 703 672 
Q 941 559 1184 500 
Q 1428 441 1663 441 
Q 2288 441 2617 861 
Q 2947 1281 2994 2138 
Q 2813 1869 2534 1725 
Q 2256 1581 1919 1581 
Q 1219 1581 811 2004 
Q 403 2428 403 3163 
Q 403 3881 828 4315 
Q 1253 4750 1959 4750 
Q 2769 4750 3195 4129 
Q 3622 3509 3622 2328 
Q 3622 1225 3098 567 
Q 2575 -91 1691 -91 
Q 1453 -91 1209 -44 
Q 966 3 703 97 
z
M 1959 2075 
Q 2384 2075 2632 2365 
Q 2881 2656 2881 3163 
Q 2881 3666 2632 3958 
Q 2384 4250 1959 4250 
Q 1534 4250 1286 3958 
Q 1038 3666 1038 3163 
Q 1038 2656 1286 2365 
Q 1534 2075 1959 2075 
z
" transform="scale(0.015625)"/>
       </defs>
       <use xlink:href="#DejaVuSans-39"/>
      </g>
     </g>
    </g>
    <g id="ytick_5">
     <g id="line2d_19">
      <path d="M 44.66 111.458219 
L 282.296138 111.458219 
" clip-path="url(#p877f4920bb)" style="fill: none; stroke: #b0b0b0; stroke-opacity: 0.4; stroke-width: 0.8; stroke-linecap: square"/>
     </g>
     <g id="line2d_20">
      <g>
       <use xlink:href="#m4360e03428" x="44.66" y="111.458219" style="stroke: #000000; stroke-width: 0.8"/>
      </g>
     </g>
     <g id="text_10">
      <!-- 12 -->
      <g transform="translate(24.935 115.257438) scale(0.1 -0.1)">
       <defs>
        <path id="DejaVuSans-31" d="M 794 531 
L 1825 531 
L 1825 4091 
L 703 3866 
L 703 4441 
L 1819 4666 
L 2450 4666 
L 2450 531 
L 3481 531 
L 3481 0 
L 794 0 
L 794 531 
z
" transform="scale(0.015625)"/>
       </defs>
       <use xlink:href="#DejaVuSans-31"/>
       <use xlink:href="#DejaVuSans-32" transform="translate(63.623047 0)"/>
      </g>
     </g>
    </g>
    <g id="ytick_6">
     <g id="line2d_21">
      <path d="M 44.66 95.812774 
L 282.296138 95.812774 
" clip-path="url(#p877f4920bb)" style="fill: none; stroke: #b0b0b0; stroke-opacity: 0.4; stroke-width: 0.8; stroke-linecap: square"/>
     </g>
     <g id="line2d_22">
      <g>
       <use xlink:href="#m4360e03428" x="44.66" y="95.812774" style="stroke: #000000; stroke-width: 0.8"/>
      </g>
     </g>
     <g id="text_11">
      <!-- 15 -->
      <g transform="translate(24.935 99.611992) scale(0.1 -0.1)">
       <defs>
        <path id="DejaVuSans-35" d="M 691 4666 
L 3169 4666 
L 3169 4134 
L 1269 4134 
L 1269 2991 
Q 1406 3038 1543 3061 
Q 1681 3084 1819 3084 
Q 2600 3084 3056 2656 
Q 3513 2228 3513 1497 
Q 3513 744 3044 326 
Q 2575 -91 1722 -91 
Q 1428 -91 1123 -41 
Q 819 9 494 109 
L 494 744 
Q 775 591 1075 516 
Q 1375 441 1709 441 
Q 2250 441 2565 725 
Q 2881 1009 2881 1497 
Q 2881 1984 2565 2268 
Q 2250 2553 1709 2553 
Q 1456 2553 1204 2497 
Q 953 2441 691 2322 
L 691 4666 
z
" transform="scale(0.015625)"/>
       </defs>
       <use xlink:href="#DejaVuSans-31"/>
       <use xlink:href="#DejaVuSans-35" transform="translate(63.623047 0)"/>
      </g>
     </g>
    </g>
    <g id="ytick_7">
     <g id="line2d_23">
      <path d="M 44.66 80.167328 
L 282.296138 80.167328 
" clip-path="url(#p877f4920bb)" style="fill: none; stroke: #b0b0b0; stroke-opacity: 0.4; stroke-width: 0.8; stroke-linecap: square"/>
     </g>
     <g id="line2d_24">
      <g>
       <use xlink:href="#m4360e03428" x="44.66" y="80.167328" style="stroke: #000000; stroke-width: 0.8"/>
      </g>
     </g>
     <g id="text_12">
      <!-- 18 -->
      <g transform="translate(24.935 83.966547) scale(0.1 -0.1)">
       <defs>
        <path id="DejaVuSans-38" d="M 2034 2216 
Q 1584 2216 1326 1975 
Q 1069 1734 1069 1313 
Q 1069 891 1326 650 
Q 1584 409 2034 409 
Q 2484 409 2743 651 
Q 3003 894 3003 1313 
Q 3003 1734 2745 1975 
Q 2488 2216 2034 2216 
z
M 1403 2484 
Q 997 2584 770 2862 
Q 544 3141 544 3541 
Q 544 4100 942 4425 
Q 1341 4750 2034 4750 
Q 2731 4750 3128 4425 
Q 3525 4100 3525 3541 
Q 3525 3141 3298 2862 
Q 3072 2584 2669 2484 
Q 3125 2378 3379 2068 
Q 3634 1759 3634 1313 
Q 3634 634 3220 271 
Q 2806 -91 2034 -91 
Q 1263 -91 848 271 
Q 434 634 434 1313 
Q 434 1759 690 2068 
Q 947 2378 1403 2484 
z
M 1172 3481 
Q 1172 3119 1398 2916 
Q 1625 2713 2034 2713 
Q 2441 2713 2670 2916 
Q 2900 3119 2900 3481 
Q 2900 3844 2670 4047 
Q 2441 4250 2034 4250 
Q 1625 4250 1398 4047 
Q 1172 3844 1172 3481 
z
" transform="scale(0.015625)"/>
       </defs>
       <use xlink:href="#DejaVuSans-31"/>
       <use xlink:href="#DejaVuSans-38" transform="translate(63.623047 0)"/>
      </g>
     </g>
    </g>
    <g id="ytick_8">
     <g id="line2d_25">
      <path d="M 44.66 64.521883 
L 282.296138 64.521883 
" clip-path="url(#p877f4920bb)" style="fill: none; stroke: #b0b0b0; stroke-opacity: 0.4; stroke-width: 0.8; stroke-linecap: square"/>
     </g>
     <g id="line2d_26">
      <g>
       <use xlink:href="#m4360e03428" x="44.66" y="64.521883" style="stroke: #000000; stroke-width: 0.8"/>
      </g>
     </g>
     <g id="text_13">
      <!-- 21 -->
      <g transform="translate(24.935 68.321102) scale(0.1 -0.1)">
       <use xlink:href="#DejaVuSans-32"/>
       <use xlink:href="#DejaVuSans-31" transform="translate(63.623047 0)"/>
      </g>
     </g>
    </g>
    <g id="ytick_9">
     <g id="line2d_27">
      <path d="M 44.66 48.876438 
L 282.296138 48.876438 
" clip-path="url(#p877f4920bb)" style="fill: none; stroke: #b0b0b0; stroke-opacity: 0.4; stroke-width: 0.8; stroke-linecap: square"/>
     </g>
     <g id="line2d_28">
      <g>
       <use xlink:href="#m4360e03428" x="44.66" y="48.876438" style="stroke: #000000; stroke-width: 0.8"/>
      </g>
     </g>
     <g id="text_14">
      <!-- 24 -->
      <g transform="translate(24.935 52.675656) scale(0.1 -0.1)">
       <use xlink:href="#DejaVuSans-32"/>
       <use xlink:href="#DejaVuSans-34" transform="translate(63.623047 0)"/>
      </g>
     </g>
    </g>
    <g id="text_15">
     <!-- Frequency -->
     <g transform="translate(18.855313 130.129688) rotate(-90) scale(0.1 -0.1)">
      <defs>
       <path id="DejaVuSans-46" d="M 628 4666 
L 3309 4666 
L 3309 4134 
L 1259 4134 
L 1259 2759 
L 3109 2759 
L 3109 2228 
L 1259 2228 
L 1259 0 
L 628 0 
L 628 4666 
z
" transform="scale(0.015625)"/>
       <path id="DejaVuSans-72" d="M 2631 2963 
Q 2534 3019 2420 3045 
Q 2306 3072 2169 3072 
Q 1681 3072 1420 2755 
Q 1159 2438 1159 1844 
L 1159 0 
L 581 0 
L 581 3500 
L 1159 3500 
L 1159 2956 
Q 1341 3275 1631 3429 
Q 1922 3584 2338 3584 
Q 2397 3584 2469 3576 
Q 2541 3569 2628 3553 
L 2631 2963 
z
" transform="scale(0.015625)"/>
       <path id="DejaVuSans-65" d="M 3597 1894 
L 3597 1613 
L 953 1613 
Q 991 1019 1311 708 
Q 1631 397 2203 397 
Q 2534 397 2845 478 
Q 3156 559 3463 722 
L 3463 178 
Q 3153 47 2828 -22 
Q 2503 -91 2169 -91 
Q 1331 -91 842 396 
Q 353 884 353 1716 
Q 353 2575 817 3079 
Q 1281 3584 2069 3584 
Q 2775 3584 3186 3129 
Q 3597 2675 3597 1894 
z
M 3022 2063 
Q 3016 2534 2758 2815 
Q 2500 3097 2075 3097 
Q 1594 3097 1305 2825 
Q 1016 2553 972 2059 
L 3022 2063 
z
" transform="scale(0.015625)"/>
       <path id="DejaVuSans-71" d="M 947 1747 
Q 947 1113 1208 752 
Q 1469 391 1925 391 
Q 2381 391 2643 752 
Q 2906 1113 2906 1747 
Q 2906 2381 2643 2742 
Q 2381 3103 1925 3103 
Q 1469 3103 1208 2742 
Q 947 2381 947 1747 
z
M 2906 525 
Q 2725 213 2448 61 
Q 2172 -91 1784 -91 
Q 1150 -91 751 415 
Q 353 922 353 1747 
Q 353 2572 751 3078 
Q 1150 3584 1784 3584 
Q 2172 3584 2448 3432 
Q 2725 3281 2906 2969 
L 2906 3500 
L 3481 3500 
L 3481 -1331 
L 2906 -1331 
L 2906 525 
z
" transform="scale(0.015625)"/>
       <path id="DejaVuSans-75" d="M 544 1381 
L 544 3500 
L 1119 3500 
L 1119 1403 
Q 1119 906 1312 657 
Q 1506 409 1894 409 
Q 2359 409 2629 706 
Q 2900 1003 2900 1516 
L 2900 3500 
L 3475 3500 
L 3475 0 
L 2900 0 
L 2900 538 
Q 2691 219 2414 64 
Q 2138 -91 1772 -91 
Q 1169 -91 856 284 
Q 544 659 544 1381 
z
M 1991 3584 
L 1991 3584 
z
" transform="scale(0.015625)"/>
       <path id="DejaVuSans-6e" d="M 3513 2113 
L 3513 0 
L 2938 0 
L 2938 2094 
Q 2938 2591 2744 2837 
Q 2550 3084 2163 3084 
Q 1697 3084 1428 2787 
Q 1159 2491 1159 1978 
L 1159 0 
L 581 0 
L 581 3500 
L 1159 3500 
L 1159 2956 
Q 1366 3272 1645 3428 
Q 1925 3584 2291 3584 
Q 2894 3584 3203 3211 
Q 3513 2838 3513 2113 
z
" transform="scale(0.015625)"/>
       <path id="DejaVuSans-63" d="M 3122 3366 
L 3122 2828 
Q 2878 2963 2633 3030 
Q 2388 3097 2138 3097 
Q 1578 3097 1268 2742 
Q 959 2388 959 1747 
Q 959 1106 1268 751 
Q 1578 397 2138 397 
Q 2388 397 2633 464 
Q 2878 531 3122 666 
L 3122 134 
Q 2881 22 2623 -34 
Q 2366 -91 2075 -91 
Q 1284 -91 818 406 
Q 353 903 353 1747 
Q 353 2603 823 3093 
Q 1294 3584 2113 3584 
Q 2378 3584 2631 3529 
Q 2884 3475 3122 3366 
z
" transform="scale(0.015625)"/>
       <path id="DejaVuSans-79" d="M 2059 -325 
Q 1816 -950 1584 -1140 
Q 1353 -1331 966 -1331 
L 506 -1331 
L 506 -850 
L 844 -850 
Q 1081 -850 1212 -737 
Q 1344 -625 1503 -206 
L 1606 56 
L 191 3500 
L 800 3500 
L 1894 763 
L 2988 3500 
L 3597 3500 
L 2059 -325 
z
" transform="scale(0.015625)"/>
      </defs>
      <use xlink:href="#DejaVuSans-46"/>
      <use xlink:href="#DejaVuSans-72" transform="translate(50.269531 0)"/>
      <use xlink:href="#DejaVuSans-65" transform="translate(89.132812 0)"/>
      <use xlink:href="#DejaVuSans-71" transform="translate(150.65625 0)"/>
      <use xlink:href="#DejaVuSans-75" transform="translate(214.132812 0)"/>
      <use xlink:href="#DejaVuSans-65" transform="translate(277.511719 0)"/>
      <use xlink:href="#DejaVuSans-6e" transform="translate(339.035156 0)"/>
      <use xlink:href="#DejaVuSans-63" transform="translate(402.414062 0)"/>
      <use xlink:href="#DejaVuSans-79" transform="translate(457.394531 0)"/>
     </g>
    </g>
   </g>
   <g id="line2d_29">
    <path d="M 63.235802 174.010547 
L 69.96658 173.864246 
L 74.774278 173.553372 
L 78.620436 173.093793 
L 82.466595 172.4207 
L 88.235832 171.136496 
L 94.00507 169.884174 
L 102.658927 168.161426 
L 104.582006 167.537995 
L 106.505085 166.672837 
L 108.428164 165.475698 
L 110.351244 163.858201 
L 112.274323 161.743682 
L 114.197402 159.076755 
L 116.120481 155.83067 
L 118.043561 152.010794 
L 119.96664 147.653346 
L 121.889719 142.819849 
L 124.774338 134.851761 
L 128.620496 123.35622 
L 135.351274 103.000222 
L 138.235893 95.169283 
L 140.158972 90.568979 
L 142.082051 86.604517 
L 144.00513 83.36422 
L 144.96667 82.031969 
L 145.928209 80.894394 
L 146.889749 79.949717 
L 147.851289 79.193243 
L 148.812828 78.61766 
L 149.774368 78.213444 
L 150.735908 77.969368 
L 151.697447 77.873071 
L 152.658987 77.911647 
L 154.582066 78.342527 
L 156.505145 79.168596 
L 158.428225 80.317709 
L 160.351304 81.74463 
L 162.274383 83.429147 
L 164.197462 85.368114 
L 166.120541 87.564044 
L 168.043621 90.013271 
L 170.92824 94.113544 
L 174.774398 100.103775 
L 178.620557 106.104075 
L 181.505175 110.200547 
L 183.428255 112.62997 
L 185.351334 114.803057 
L 188.235953 117.661165 
L 194.96673 123.949328 
L 196.889809 126.077947 
L 198.812889 128.47252 
L 200.735968 131.144423 
L 203.620587 135.615076 
L 207.466745 142.130663 
L 212.274443 150.322687 
L 215.159062 154.851552 
L 218.043681 158.893798 
L 219.96676 161.275958 
L 221.889839 163.397496 
L 223.812919 165.261838 
L 225.735998 166.880644 
L 227.659077 168.27096 
L 229.582156 169.452561 
L 231.505236 170.445892 
L 234.389854 171.626003 
L 237.274473 172.489393 
L 240.159092 173.094156 
L 243.043711 173.495639 
L 246.889869 173.804135 
L 252.659107 173.9867 
L 254.582186 174.009591 
L 254.582186 174.009591 
" clip-path="url(#p877f4920bb)" style="fill: none; stroke: #ff7f0e; stroke-width: 1.5; stroke-linecap: square"/>
   </g>
   <g id="line2d_30">
    <path d="M 55.461643 174.011499 
L 63.060788 173.842422 
L 68.488749 173.474365 
L 72.831118 172.964115 
L 83.68704 171.534409 
L 86.943817 171.391277 
L 92.371778 171.465412 
L 95.628555 171.427467 
L 97.799739 171.203646 
L 99.970924 170.712918 
L 102.142108 169.866327 
L 104.313293 168.590015 
L 106.484477 166.836306 
L 108.655662 164.593437 
L 110.826846 161.891648 
L 112.99803 158.803183 
L 116.254807 153.684223 
L 122.76836 143.188763 
L 126.025137 138.371368 
L 129.281914 133.921033 
L 133.624283 128.435035 
L 137.966652 123.384756 
L 143.394613 117.57551 
L 146.651389 113.971651 
L 148.822574 111.242699 
L 150.993758 108.080149 
L 153.164943 104.384201 
L 155.336127 100.138774 
L 158.592904 92.96293 
L 162.935273 83.094403 
L 165.106457 78.708121 
L 167.277642 75.084552 
L 168.363234 73.636004 
L 169.448826 72.462267 
L 170.534418 71.581938 
L 171.62001 71.008789 
L 172.705603 70.751801 
L 173.791195 70.815263 
L 174.876787 71.198875 
L 175.962379 71.897854 
L 177.047972 72.903023 
L 178.133564 74.200894 
L 179.219156 75.773778 
L 180.304748 77.599966 
L 182.475933 81.90713 
L 184.647117 86.882862 
L 188.989486 97.768521 
L 192.246263 105.813784 
L 195.503039 113.244106 
L 198.759816 120.078824 
L 206.358962 135.637915 
L 215.043699 153.972383 
L 217.214884 157.955355 
L 219.386068 161.43439 
L 221.557253 164.335238 
L 223.728437 166.633553 
L 225.899622 168.352415 
L 228.070806 169.553949 
L 230.24199 170.327751 
L 232.413175 170.778259 
L 235.669952 171.080027 
L 244.354689 171.583353 
L 248.697058 172.151293 
L 257.381796 173.364171 
L 261.724165 173.728867 
L 267.152126 173.94792 
L 271.494495 174.011498 
L 271.494495 174.011498 
" clip-path="url(#p877f4920bb)" style="fill: none; stroke: #1f77b4; stroke-width: 1.5; stroke-linecap: square"/>
   </g>
   <g id="patch_23">
    <path d="M 44.66 174.04 
L 44.66 34.56 
" style="fill: none; stroke: #000000; stroke-width: 0.8; stroke-linejoin: miter; stroke-linecap: square"/>
   </g>
   <g id="patch_24">
    <path d="M 44.66 174.04 
L 282.296138 174.04 
" style="fill: none; stroke: #000000; stroke-width: 0.8; stroke-linejoin: miter; stroke-linecap: square"/>
   </g>
   <g id="legend_1">
    <g id="patch_25">
     <path d="M 193.6227 71.91625 
L 275.296138 71.91625 
Q 277.296138 71.91625 277.296138 69.91625 
L 277.296138 41.56 
Q 277.296138 39.56 275.296138 39.56 
L 193.6227 39.56 
Q 191.6227 39.56 191.6227 41.56 
L 191.6227 69.91625 
Q 191.6227 71.91625 193.6227 71.91625 
z
" style="fill: #ffffff; opacity: 0.8; stroke: #cccccc; stroke-linejoin: miter"/>
    </g>
    <g id="patch_26">
     <path d="M 195.6227 51.158438 
L 215.6227 51.158438 
L 215.6227 44.158438 
L 195.6227 44.158438 
z
" style="fill: #1f77b4; fill-opacity: 0.5"/>
    </g>
    <g id="text_16">
     <!-- Truth -->
     <g transform="translate(223.6227 51.158438) scale(0.1 -0.1)">
      <defs>
       <path id="DejaVuSans-54" d="M -19 4666 
L 3928 4666 
L 3928 4134 
L 2272 4134 
L 2272 0 
L 1638 0 
L 1638 4134 
L -19 4134 
L -19 4666 
z
" transform="scale(0.015625)"/>
       <path id="DejaVuSans-74" d="M 1172 4494 
L 1172 3500 
L 2356 3500 
L 2356 3053 
L 1172 3053 
L 1172 1153 
Q 1172 725 1289 603 
Q 1406 481 1766 481 
L 2356 481 
L 2356 0 
L 1766 0 
Q 1100 0 847 248 
Q 594 497 594 1153 
L 594 3053 
L 172 3053 
L 172 3500 
L 594 3500 
L 594 4494 
L 1172 4494 
z
" transform="scale(0.015625)"/>
       <path id="DejaVuSans-68" d="M 3513 2113 
L 3513 0 
L 2938 0 
L 2938 2094 
Q 2938 2591 2744 2837 
Q 2550 3084 2163 3084 
Q 1697 3084 1428 2787 
Q 1159 2491 1159 1978 
L 1159 0 
L 581 0 
L 581 4863 
L 1159 4863 
L 1159 2956 
Q 1366 3272 1645 3428 
Q 1925 3584 2291 3584 
Q 2894 3584 3203 3211 
Q 3513 2838 3513 2113 
z
" transform="scale(0.015625)"/>
      </defs>
      <use xlink:href="#DejaVuSans-54"/>
      <use xlink:href="#DejaVuSans-72" transform="translate(46.333984 0)"/>
      <use xlink:href="#DejaVuSans-75" transform="translate(87.447266 0)"/>
      <use xlink:href="#DejaVuSans-74" transform="translate(150.826172 0)"/>
      <use xlink:href="#DejaVuSans-68" transform="translate(190.035156 0)"/>
     </g>
    </g>
    <g id="patch_27">
     <path d="M 195.6227 65.836563 
L 215.6227 65.836563 
L 215.6227 58.836563 
L 195.6227 58.836563 
z
" style="fill: #ff7f0e; fill-opacity: 0.5"/>
    </g>
    <g id="text_17">
     <!-- Prediction -->
     <g transform="translate(223.6227 65.836563) scale(0.1 -0.1)">
      <defs>
       <path id="DejaVuSans-50" d="M 1259 4147 
L 1259 2394 
L 2053 2394 
Q 2494 2394 2734 2622 
Q 2975 2850 2975 3272 
Q 2975 3691 2734 3919 
Q 2494 4147 2053 4147 
L 1259 4147 
z
M 628 4666 
L 2053 4666 
Q 2838 4666 3239 4311 
Q 3641 3956 3641 3272 
Q 3641 2581 3239 2228 
Q 2838 1875 2053 1875 
L 1259 1875 
L 1259 0 
L 628 0 
L 628 4666 
z
" transform="scale(0.015625)"/>
       <path id="DejaVuSans-64" d="M 2906 2969 
L 2906 4863 
L 3481 4863 
L 3481 0 
L 2906 0 
L 2906 525 
Q 2725 213 2448 61 
Q 2172 -91 1784 -91 
Q 1150 -91 751 415 
Q 353 922 353 1747 
Q 353 2572 751 3078 
Q 1150 3584 1784 3584 
Q 2172 3584 2448 3432 
Q 2725 3281 2906 2969 
z
M 947 1747 
Q 947 1113 1208 752 
Q 1469 391 1925 391 
Q 2381 391 2643 752 
Q 2906 1113 2906 1747 
Q 2906 2381 2643 2742 
Q 2381 3103 1925 3103 
Q 1469 3103 1208 2742 
Q 947 2381 947 1747 
z
" transform="scale(0.015625)"/>
       <path id="DejaVuSans-69" d="M 603 3500 
L 1178 3500 
L 1178 0 
L 603 0 
L 603 3500 
z
M 603 4863 
L 1178 4863 
L 1178 4134 
L 603 4134 
L 603 4863 
z
" transform="scale(0.015625)"/>
       <path id="DejaVuSans-6f" d="M 1959 3097 
Q 1497 3097 1228 2736 
Q 959 2375 959 1747 
Q 959 1119 1226 758 
Q 1494 397 1959 397 
Q 2419 397 2687 759 
Q 2956 1122 2956 1747 
Q 2956 2369 2687 2733 
Q 2419 3097 1959 3097 
z
M 1959 3584 
Q 2709 3584 3137 3096 
Q 3566 2609 3566 1747 
Q 3566 888 3137 398 
Q 2709 -91 1959 -91 
Q 1206 -91 779 398 
Q 353 888 353 1747 
Q 353 2609 779 3096 
Q 1206 3584 1959 3584 
z
" transform="scale(0.015625)"/>
      </defs>
      <use xlink:href="#DejaVuSans-50"/>
      <use xlink:href="#DejaVuSans-72" transform="translate(58.552734 0)"/>
      <use xlink:href="#DejaVuSans-65" transform="translate(97.416016 0)"/>
      <use xlink:href="#DejaVuSans-64" transform="translate(158.939453 0)"/>
      <use xlink:href="#DejaVuSans-69" transform="translate(222.416016 0)"/>
      <use xlink:href="#DejaVuSans-63" transform="translate(250.199219 0)"/>
      <use xlink:href="#DejaVuSans-74" transform="translate(305.179688 0)"/>
      <use xlink:href="#DejaVuSans-69" transform="translate(344.388672 0)"/>
      <use xlink:href="#DejaVuSans-6f" transform="translate(372.171875 0)"/>
      <use xlink:href="#DejaVuSans-6e" transform="translate(433.353516 0)"/>
     </g>
    </g>
   </g>
  </g>
  <g id="axes_2">
   <g id="patch_28">
    <path d="M 328.936138 174.04 
L 566.572275 174.04 
L 566.572275 34.56 
L 328.936138 34.56 
z
" style="fill: #ffffff"/>
   </g>
   <g id="PathCollection_1">
    <defs>
     <path id="m2e44a5e81c" d="M 0 3 
C 0.795609 3 1.55874 2.683901 2.12132 2.12132 
C 2.683901 1.55874 3 0.795609 3 0 
C 3 -0.795609 2.683901 -1.55874 2.12132 -2.12132 
C 1.55874 -2.683901 0.795609 -3 0 -3 
C -0.795609 -3 -1.55874 -2.683901 -2.12132 -2.12132 
C -2.683901 -1.55874 -3 -0.795609 -3 0 
C -3 0.795609 -2.683901 1.55874 -2.12132 2.12132 
C -1.55874 2.683901 -0.795609 3 0 3 
z
" style="stroke: #1f77b4; stroke-opacity: 0.8"/>
    </defs>
    <g clip-path="url(#p8b17ed6b27)">
     <use xlink:href="#m2e44a5e81c" x="396.334668" y="97.541083" style="fill: #1f77b4; fill-opacity: 0.8; stroke: #1f77b4; stroke-opacity: 0.8"/>
     <use xlink:href="#m2e44a5e81c" x="389.936918" y="88.260237" style="fill: #1f77b4; fill-opacity: 0.8; stroke: #1f77b4; stroke-opacity: 0.8"/>
     <use xlink:href="#m2e44a5e81c" x="452.757204" y="87.383207" style="fill: #1f77b4; fill-opacity: 0.8; stroke: #1f77b4; stroke-opacity: 0.8"/>
     <use xlink:href="#m2e44a5e81c" x="416.864258" y="117.342412" style="fill: #1f77b4; fill-opacity: 0.8; stroke: #1f77b4; stroke-opacity: 0.8"/>
     <use xlink:href="#m2e44a5e81c" x="448.22117" y="60.076589" style="fill: #1f77b4; fill-opacity: 0.8; stroke: #1f77b4; stroke-opacity: 0.8"/>
     <use xlink:href="#m2e44a5e81c" x="425.958556" y="55.249279" style="fill: #1f77b4; fill-opacity: 0.8; stroke: #1f77b4; stroke-opacity: 0.8"/>
     <use xlink:href="#m2e44a5e81c" x="423.567195" y="80.142533" style="fill: #1f77b4; fill-opacity: 0.8; stroke: #1f77b4; stroke-opacity: 0.8"/>
     <use xlink:href="#m2e44a5e81c" x="433.92724" y="95.714937" style="fill: #1f77b4; fill-opacity: 0.8; stroke: #1f77b4; stroke-opacity: 0.8"/>
     <use xlink:href="#m2e44a5e81c" x="476.249102" y="108.975167" style="fill: #1f77b4; fill-opacity: 0.8; stroke: #1f77b4; stroke-opacity: 0.8"/>
     <use xlink:href="#m2e44a5e81c" x="484.308755" y="113.053402" style="fill: #1f77b4; fill-opacity: 0.8; stroke: #1f77b4; stroke-opacity: 0.8"/>
     <use xlink:href="#m2e44a5e81c" x="464.371383" y="55.141044" style="fill: #1f77b4; fill-opacity: 0.8; stroke: #1f77b4; stroke-opacity: 0.8"/>
     <use xlink:href="#m2e44a5e81c" x="415.740562" y="62.485532" style="fill: #1f77b4; fill-opacity: 0.8; stroke: #1f77b4; stroke-opacity: 0.8"/>
     <use xlink:href="#m2e44a5e81c" x="474.106827" y="99.108095" style="fill: #1f77b4; fill-opacity: 0.8; stroke: #1f77b4; stroke-opacity: 0.8"/>
     <use xlink:href="#m2e44a5e81c" x="475.724242" y="136.67696" style="fill: #1f77b4; fill-opacity: 0.8; stroke: #1f77b4; stroke-opacity: 0.8"/>
     <use xlink:href="#m2e44a5e81c" x="460.922358" y="167.7" style="fill: #1f77b4; fill-opacity: 0.8; stroke: #1f77b4; stroke-opacity: 0.8"/>
     <use xlink:href="#m2e44a5e81c" x="429.540263" y="124.374996" style="fill: #1f77b4; fill-opacity: 0.8; stroke: #1f77b4; stroke-opacity: 0.8"/>
     <use xlink:href="#m2e44a5e81c" x="476.437553" y="100.767148" style="fill: #1f77b4; fill-opacity: 0.8; stroke: #1f77b4; stroke-opacity: 0.8"/>
     <use xlink:href="#m2e44a5e81c" x="466.216789" y="62.825624" style="fill: #1f77b4; fill-opacity: 0.8; stroke: #1f77b4; stroke-opacity: 0.8"/>
     <use xlink:href="#m2e44a5e81c" x="339.73778" y="113.676944" style="fill: #1f77b4; fill-opacity: 0.8; stroke: #1f77b4; stroke-opacity: 0.8"/>
     <use xlink:href="#m2e44a5e81c" x="474.136154" y="85.022842" style="fill: #1f77b4; fill-opacity: 0.8; stroke: #1f77b4; stroke-opacity: 0.8"/>
     <use xlink:href="#m2e44a5e81c" x="382.727221" y="65.241599" style="fill: #1f77b4; fill-opacity: 0.8; stroke: #1f77b4; stroke-opacity: 0.8"/>
     <use xlink:href="#m2e44a5e81c" x="474.818973" y="94.345976" style="fill: #1f77b4; fill-opacity: 0.8; stroke: #1f77b4; stroke-opacity: 0.8"/>
     <use xlink:href="#m2e44a5e81c" x="445.603429" y="101.060199" style="fill: #1f77b4; fill-opacity: 0.8; stroke: #1f77b4; stroke-opacity: 0.8"/>
     <use xlink:href="#m2e44a5e81c" x="493.758624" y="129.958207" style="fill: #1f77b4; fill-opacity: 0.8; stroke: #1f77b4; stroke-opacity: 0.8"/>
     <use xlink:href="#m2e44a5e81c" x="447.601237" y="127.324686" style="fill: #1f77b4; fill-opacity: 0.8; stroke: #1f77b4; stroke-opacity: 0.8"/>
     <use xlink:href="#m2e44a5e81c" x="419.428381" y="87.220969" style="fill: #1f77b4; fill-opacity: 0.8; stroke: #1f77b4; stroke-opacity: 0.8"/>
     <use xlink:href="#m2e44a5e81c" x="445.843502" y="102.508664" style="fill: #1f77b4; fill-opacity: 0.8; stroke: #1f77b4; stroke-opacity: 0.8"/>
     <use xlink:href="#m2e44a5e81c" x="488.977515" y="94.494763" style="fill: #1f77b4; fill-opacity: 0.8; stroke: #1f77b4; stroke-opacity: 0.8"/>
     <use xlink:href="#m2e44a5e81c" x="452.046554" y="98.702151" style="fill: #1f77b4; fill-opacity: 0.8; stroke: #1f77b4; stroke-opacity: 0.8"/>
     <use xlink:href="#m2e44a5e81c" x="447.023313" y="81.075129" style="fill: #1f77b4; fill-opacity: 0.8; stroke: #1f77b4; stroke-opacity: 0.8"/>
     <use xlink:href="#m2e44a5e81c" x="477.67723" y="116.973081" style="fill: #1f77b4; fill-opacity: 0.8; stroke: #1f77b4; stroke-opacity: 0.8"/>
     <use xlink:href="#m2e44a5e81c" x="458.625237" y="105.845484" style="fill: #1f77b4; fill-opacity: 0.8; stroke: #1f77b4; stroke-opacity: 0.8"/>
     <use xlink:href="#m2e44a5e81c" x="450.896918" y="50.548702" style="fill: #1f77b4; fill-opacity: 0.8; stroke: #1f77b4; stroke-opacity: 0.8"/>
     <use xlink:href="#m2e44a5e81c" x="499.920517" y="117.347185" style="fill: #1f77b4; fill-opacity: 0.8; stroke: #1f77b4; stroke-opacity: 0.8"/>
     <use xlink:href="#m2e44a5e81c" x="506.675758" y="104.507387" style="fill: #1f77b4; fill-opacity: 0.8; stroke: #1f77b4; stroke-opacity: 0.8"/>
     <use xlink:href="#m2e44a5e81c" x="473.023973" y="112.134081" style="fill: #1f77b4; fill-opacity: 0.8; stroke: #1f77b4; stroke-opacity: 0.8"/>
     <use xlink:href="#m2e44a5e81c" x="440.890876" y="86.510317" style="fill: #1f77b4; fill-opacity: 0.8; stroke: #1f77b4; stroke-opacity: 0.8"/>
     <use xlink:href="#m2e44a5e81c" x="504.596058" y="72.198748" style="fill: #1f77b4; fill-opacity: 0.8; stroke: #1f77b4; stroke-opacity: 0.8"/>
     <use xlink:href="#m2e44a5e81c" x="493.383721" y="109.87502" style="fill: #1f77b4; fill-opacity: 0.8; stroke: #1f77b4; stroke-opacity: 0.8"/>
     <use xlink:href="#m2e44a5e81c" x="476.796214" y="108.219972" style="fill: #1f77b4; fill-opacity: 0.8; stroke: #1f77b4; stroke-opacity: 0.8"/>
     <use xlink:href="#m2e44a5e81c" x="407.656095" y="104.443119" style="fill: #1f77b4; fill-opacity: 0.8; stroke: #1f77b4; stroke-opacity: 0.8"/>
     <use xlink:href="#m2e44a5e81c" x="456.135177" y="84.402958" style="fill: #1f77b4; fill-opacity: 0.8; stroke: #1f77b4; stroke-opacity: 0.8"/>
     <use xlink:href="#m2e44a5e81c" x="424.535961" y="115.850871" style="fill: #1f77b4; fill-opacity: 0.8; stroke: #1f77b4; stroke-opacity: 0.8"/>
     <use xlink:href="#m2e44a5e81c" x="445.426919" y="106.845969" style="fill: #1f77b4; fill-opacity: 0.8; stroke: #1f77b4; stroke-opacity: 0.8"/>
     <use xlink:href="#m2e44a5e81c" x="459.686384" y="156.307008" style="fill: #1f77b4; fill-opacity: 0.8; stroke: #1f77b4; stroke-opacity: 0.8"/>
     <use xlink:href="#m2e44a5e81c" x="454.687592" y="131.766483" style="fill: #1f77b4; fill-opacity: 0.8; stroke: #1f77b4; stroke-opacity: 0.8"/>
     <use xlink:href="#m2e44a5e81c" x="434.129847" y="100.316782" style="fill: #1f77b4; fill-opacity: 0.8; stroke: #1f77b4; stroke-opacity: 0.8"/>
     <use xlink:href="#m2e44a5e81c" x="496.59366" y="75.284204" style="fill: #1f77b4; fill-opacity: 0.8; stroke: #1f77b4; stroke-opacity: 0.8"/>
     <use xlink:href="#m2e44a5e81c" x="390.502871" y="90.219598" style="fill: #1f77b4; fill-opacity: 0.8; stroke: #1f77b4; stroke-opacity: 0.8"/>
     <use xlink:href="#m2e44a5e81c" x="477.199496" y="124.755123" style="fill: #1f77b4; fill-opacity: 0.8; stroke: #1f77b4; stroke-opacity: 0.8"/>
     <use xlink:href="#m2e44a5e81c" x="384.737471" y="132.225138" style="fill: #1f77b4; fill-opacity: 0.8; stroke: #1f77b4; stroke-opacity: 0.8"/>
     <use xlink:href="#m2e44a5e81c" x="464.77964" y="93.202664" style="fill: #1f77b4; fill-opacity: 0.8; stroke: #1f77b4; stroke-opacity: 0.8"/>
     <use xlink:href="#m2e44a5e81c" x="419.418016" y="138.48255" style="fill: #1f77b4; fill-opacity: 0.8; stroke: #1f77b4; stroke-opacity: 0.8"/>
     <use xlink:href="#m2e44a5e81c" x="482.4921" y="71.120087" style="fill: #1f77b4; fill-opacity: 0.8; stroke: #1f77b4; stroke-opacity: 0.8"/>
     <use xlink:href="#m2e44a5e81c" x="454.197821" y="95.947576" style="fill: #1f77b4; fill-opacity: 0.8; stroke: #1f77b4; stroke-opacity: 0.8"/>
     <use xlink:href="#m2e44a5e81c" x="459.959713" y="137.355598" style="fill: #1f77b4; fill-opacity: 0.8; stroke: #1f77b4; stroke-opacity: 0.8"/>
     <use xlink:href="#m2e44a5e81c" x="414.723749" y="121.464352" style="fill: #1f77b4; fill-opacity: 0.8; stroke: #1f77b4; stroke-opacity: 0.8"/>
     <use xlink:href="#m2e44a5e81c" x="427.719738" y="115.477132" style="fill: #1f77b4; fill-opacity: 0.8; stroke: #1f77b4; stroke-opacity: 0.8"/>
     <use xlink:href="#m2e44a5e81c" x="458.512968" y="116.68827" style="fill: #1f77b4; fill-opacity: 0.8; stroke: #1f77b4; stroke-opacity: 0.8"/>
     <use xlink:href="#m2e44a5e81c" x="471.960726" y="134.447076" style="fill: #1f77b4; fill-opacity: 0.8; stroke: #1f77b4; stroke-opacity: 0.8"/>
     <use xlink:href="#m2e44a5e81c" x="555.770633" y="119.20241" style="fill: #1f77b4; fill-opacity: 0.8; stroke: #1f77b4; stroke-opacity: 0.8"/>
     <use xlink:href="#m2e44a5e81c" x="459.071847" y="114.488281" style="fill: #1f77b4; fill-opacity: 0.8; stroke: #1f77b4; stroke-opacity: 0.8"/>
     <use xlink:href="#m2e44a5e81c" x="485.984305" y="115.154396" style="fill: #1f77b4; fill-opacity: 0.8; stroke: #1f77b4; stroke-opacity: 0.8"/>
     <use xlink:href="#m2e44a5e81c" x="395.476644" y="69.583163" style="fill: #1f77b4; fill-opacity: 0.8; stroke: #1f77b4; stroke-opacity: 0.8"/>
     <use xlink:href="#m2e44a5e81c" x="403.589269" y="94.933406" style="fill: #1f77b4; fill-opacity: 0.8; stroke: #1f77b4; stroke-opacity: 0.8"/>
     <use xlink:href="#m2e44a5e81c" x="438.406243" y="122.140852" style="fill: #1f77b4; fill-opacity: 0.8; stroke: #1f77b4; stroke-opacity: 0.8"/>
     <use xlink:href="#m2e44a5e81c" x="408.322453" y="105.821722" style="fill: #1f77b4; fill-opacity: 0.8; stroke: #1f77b4; stroke-opacity: 0.8"/>
     <use xlink:href="#m2e44a5e81c" x="504.220454" y="119.323684" style="fill: #1f77b4; fill-opacity: 0.8; stroke: #1f77b4; stroke-opacity: 0.8"/>
     <use xlink:href="#m2e44a5e81c" x="436.450858" y="104.964061" style="fill: #1f77b4; fill-opacity: 0.8; stroke: #1f77b4; stroke-opacity: 0.8"/>
     <use xlink:href="#m2e44a5e81c" x="500.496579" y="75.838099" style="fill: #1f77b4; fill-opacity: 0.8; stroke: #1f77b4; stroke-opacity: 0.8"/>
     <use xlink:href="#m2e44a5e81c" x="504.234148" y="91.280185" style="fill: #1f77b4; fill-opacity: 0.8; stroke: #1f77b4; stroke-opacity: 0.8"/>
     <use xlink:href="#m2e44a5e81c" x="452.637312" y="40.9" style="fill: #1f77b4; fill-opacity: 0.8; stroke: #1f77b4; stroke-opacity: 0.8"/>
     <use xlink:href="#m2e44a5e81c" x="469.03893" y="88.216323" style="fill: #1f77b4; fill-opacity: 0.8; stroke: #1f77b4; stroke-opacity: 0.8"/>
     <use xlink:href="#m2e44a5e81c" x="449.104179" y="120.167035" style="fill: #1f77b4; fill-opacity: 0.8; stroke: #1f77b4; stroke-opacity: 0.8"/>
     <use xlink:href="#m2e44a5e81c" x="470.348045" y="77.467654" style="fill: #1f77b4; fill-opacity: 0.8; stroke: #1f77b4; stroke-opacity: 0.8"/>
     <use xlink:href="#m2e44a5e81c" x="468.379396" y="70.773097" style="fill: #1f77b4; fill-opacity: 0.8; stroke: #1f77b4; stroke-opacity: 0.8"/>
     <use xlink:href="#m2e44a5e81c" x="446.69049" y="70.420375" style="fill: #1f77b4; fill-opacity: 0.8; stroke: #1f77b4; stroke-opacity: 0.8"/>
     <use xlink:href="#m2e44a5e81c" x="469.152208" y="124.642944" style="fill: #1f77b4; fill-opacity: 0.8; stroke: #1f77b4; stroke-opacity: 0.8"/>
     <use xlink:href="#m2e44a5e81c" x="512.699507" y="101.188781" style="fill: #1f77b4; fill-opacity: 0.8; stroke: #1f77b4; stroke-opacity: 0.8"/>
     <use xlink:href="#m2e44a5e81c" x="476.586077" y="69.487639" style="fill: #1f77b4; fill-opacity: 0.8; stroke: #1f77b4; stroke-opacity: 0.8"/>
     <use xlink:href="#m2e44a5e81c" x="462.750126" y="139.273569" style="fill: #1f77b4; fill-opacity: 0.8; stroke: #1f77b4; stroke-opacity: 0.8"/>
     <use xlink:href="#m2e44a5e81c" x="455.566956" y="109.90488" style="fill: #1f77b4; fill-opacity: 0.8; stroke: #1f77b4; stroke-opacity: 0.8"/>
     <use xlink:href="#m2e44a5e81c" x="414.924069" y="132.886229" style="fill: #1f77b4; fill-opacity: 0.8; stroke: #1f77b4; stroke-opacity: 0.8"/>
     <use xlink:href="#m2e44a5e81c" x="414.401536" y="120.6372" style="fill: #1f77b4; fill-opacity: 0.8; stroke: #1f77b4; stroke-opacity: 0.8"/>
     <use xlink:href="#m2e44a5e81c" x="462.66283" y="122.616572" style="fill: #1f77b4; fill-opacity: 0.8; stroke: #1f77b4; stroke-opacity: 0.8"/>
     <use xlink:href="#m2e44a5e81c" x="402.177888" y="66.545154" style="fill: #1f77b4; fill-opacity: 0.8; stroke: #1f77b4; stroke-opacity: 0.8"/>
     <use xlink:href="#m2e44a5e81c" x="423.726441" y="103.341933" style="fill: #1f77b4; fill-opacity: 0.8; stroke: #1f77b4; stroke-opacity: 0.8"/>
     <use xlink:href="#m2e44a5e81c" x="496.899438" y="118.922256" style="fill: #1f77b4; fill-opacity: 0.8; stroke: #1f77b4; stroke-opacity: 0.8"/>
     <use xlink:href="#m2e44a5e81c" x="519.507612" y="123.190129" style="fill: #1f77b4; fill-opacity: 0.8; stroke: #1f77b4; stroke-opacity: 0.8"/>
     <use xlink:href="#m2e44a5e81c" x="391.581085" y="94.020631" style="fill: #1f77b4; fill-opacity: 0.8; stroke: #1f77b4; stroke-opacity: 0.8"/>
     <use xlink:href="#m2e44a5e81c" x="509.231852" y="97.806652" style="fill: #1f77b4; fill-opacity: 0.8; stroke: #1f77b4; stroke-opacity: 0.8"/>
     <use xlink:href="#m2e44a5e81c" x="443.553642" y="64.228376" style="fill: #1f77b4; fill-opacity: 0.8; stroke: #1f77b4; stroke-opacity: 0.8"/>
     <use xlink:href="#m2e44a5e81c" x="450.572556" y="85.141741" style="fill: #1f77b4; fill-opacity: 0.8; stroke: #1f77b4; stroke-opacity: 0.8"/>
     <use xlink:href="#m2e44a5e81c" x="447.056312" y="133.006649" style="fill: #1f77b4; fill-opacity: 0.8; stroke: #1f77b4; stroke-opacity: 0.8"/>
     <use xlink:href="#m2e44a5e81c" x="489.718515" y="113.115109" style="fill: #1f77b4; fill-opacity: 0.8; stroke: #1f77b4; stroke-opacity: 0.8"/>
     <use xlink:href="#m2e44a5e81c" x="393.663517" y="71.017368" style="fill: #1f77b4; fill-opacity: 0.8; stroke: #1f77b4; stroke-opacity: 0.8"/>
     <use xlink:href="#m2e44a5e81c" x="467.408268" y="112.919418" style="fill: #1f77b4; fill-opacity: 0.8; stroke: #1f77b4; stroke-opacity: 0.8"/>
     <use xlink:href="#m2e44a5e81c" x="417.346791" y="54.552943" style="fill: #1f77b4; fill-opacity: 0.8; stroke: #1f77b4; stroke-opacity: 0.8"/>
     <use xlink:href="#m2e44a5e81c" x="471.504024" y="124.743254" style="fill: #1f77b4; fill-opacity: 0.8; stroke: #1f77b4; stroke-opacity: 0.8"/>
     <use xlink:href="#m2e44a5e81c" x="506.235624" y="83.343001" style="fill: #1f77b4; fill-opacity: 0.8; stroke: #1f77b4; stroke-opacity: 0.8"/>
    </g>
   </g>
   <g id="matplotlib.axis_3">
    <g id="xtick_6">
     <g id="line2d_31">
      <path d="M 343.913278 174.04 
L 343.913278 34.56 
" clip-path="url(#p8b17ed6b27)" style="fill: none; stroke: #b0b0b0; stroke-opacity: 0.4; stroke-width: 0.8; stroke-linecap: square"/>
     </g>
     <g id="line2d_32">
      <g>
       <use xlink:href="#me151def718" x="343.913278" y="174.04" style="stroke: #000000; stroke-width: 0.8"/>
      </g>
     </g>
     <g id="text_18">
      <!-- −3 -->
      <g transform="translate(336.542184 188.638438) scale(0.1 -0.1)">
       <use xlink:href="#DejaVuSans-2212"/>
       <use xlink:href="#DejaVuSans-33" transform="translate(83.789062 0)"/>
      </g>
     </g>
    </g>
    <g id="xtick_7">
     <g id="line2d_33">
      <path d="M 379.64509 174.04 
L 379.64509 34.56 
" clip-path="url(#p8b17ed6b27)" style="fill: none; stroke: #b0b0b0; stroke-opacity: 0.4; stroke-width: 0.8; stroke-linecap: square"/>
     </g>
     <g id="line2d_34">
      <g>
       <use xlink:href="#me151def718" x="379.64509" y="174.04" style="stroke: #000000; stroke-width: 0.8"/>
      </g>
     </g>
     <g id="text_19">
      <!-- −2 -->
      <g transform="translate(372.273997 188.638438) scale(0.1 -0.1)">
       <use xlink:href="#DejaVuSans-2212"/>
       <use xlink:href="#DejaVuSans-32" transform="translate(83.789062 0)"/>
      </g>
     </g>
    </g>
    <g id="xtick_8">
     <g id="line2d_35">
      <path d="M 415.376903 174.04 
L 415.376903 34.56 
" clip-path="url(#p8b17ed6b27)" style="fill: none; stroke: #b0b0b0; stroke-opacity: 0.4; stroke-width: 0.8; stroke-linecap: square"/>
     </g>
     <g id="line2d_36">
      <g>
       <use xlink:href="#me151def718" x="415.376903" y="174.04" style="stroke: #000000; stroke-width: 0.8"/>
      </g>
     </g>
     <g id="text_20">
      <!-- −1 -->
      <g transform="translate(408.005809 188.638438) scale(0.1 -0.1)">
       <use xlink:href="#DejaVuSans-2212"/>
       <use xlink:href="#DejaVuSans-31" transform="translate(83.789062 0)"/>
      </g>
     </g>
    </g>
    <g id="xtick_9">
     <g id="line2d_37">
      <path d="M 451.108715 174.04 
L 451.108715 34.56 
" clip-path="url(#p8b17ed6b27)" style="fill: none; stroke: #b0b0b0; stroke-opacity: 0.4; stroke-width: 0.8; stroke-linecap: square"/>
     </g>
     <g id="line2d_38">
      <g>
       <use xlink:href="#me151def718" x="451.108715" y="174.04" style="stroke: #000000; stroke-width: 0.8"/>
      </g>
     </g>
     <g id="text_21">
      <!-- 0 -->
      <g transform="translate(447.927465 188.638438) scale(0.1 -0.1)">
       <use xlink:href="#DejaVuSans-30"/>
      </g>
     </g>
    </g>
    <g id="xtick_10">
     <g id="line2d_39">
      <path d="M 486.840528 174.04 
L 486.840528 34.56 
" clip-path="url(#p8b17ed6b27)" style="fill: none; stroke: #b0b0b0; stroke-opacity: 0.4; stroke-width: 0.8; stroke-linecap: square"/>
     </g>
     <g id="line2d_40">
      <g>
       <use xlink:href="#me151def718" x="486.840528" y="174.04" style="stroke: #000000; stroke-width: 0.8"/>
      </g>
     </g>
     <g id="text_22">
      <!-- 1 -->
      <g transform="translate(483.659278 188.638438) scale(0.1 -0.1)">
       <use xlink:href="#DejaVuSans-31"/>
      </g>
     </g>
    </g>
    <g id="xtick_11">
     <g id="line2d_41">
      <path d="M 522.57234 174.04 
L 522.57234 34.56 
" clip-path="url(#p8b17ed6b27)" style="fill: none; stroke: #b0b0b0; stroke-opacity: 0.4; stroke-width: 0.8; stroke-linecap: square"/>
     </g>
     <g id="line2d_42">
      <g>
       <use xlink:href="#me151def718" x="522.57234" y="174.04" style="stroke: #000000; stroke-width: 0.8"/>
      </g>
     </g>
     <g id="text_23">
      <!-- 2 -->
      <g transform="translate(519.39109 188.638438) scale(0.1 -0.1)">
       <use xlink:href="#DejaVuSans-32"/>
      </g>
     </g>
    </g>
    <g id="xtick_12">
     <g id="line2d_43">
      <path d="M 558.304152 174.04 
L 558.304152 34.56 
" clip-path="url(#p8b17ed6b27)" style="fill: none; stroke: #b0b0b0; stroke-opacity: 0.4; stroke-width: 0.8; stroke-linecap: square"/>
     </g>
     <g id="line2d_44">
      <g>
       <use xlink:href="#me151def718" x="558.304152" y="174.04" style="stroke: #000000; stroke-width: 0.8"/>
      </g>
     </g>
     <g id="text_24">
      <!-- 3 -->
      <g transform="translate(555.122902 188.638438) scale(0.1 -0.1)">
       <use xlink:href="#DejaVuSans-33"/>
      </g>
     </g>
    </g>
    <g id="text_25">
     <!-- Truth -->
     <g transform="translate(435.084675 202.316563) scale(0.1 -0.1)">
      <use xlink:href="#DejaVuSans-54"/>
      <use xlink:href="#DejaVuSans-72" transform="translate(46.333984 0)"/>
      <use xlink:href="#DejaVuSans-75" transform="translate(87.447266 0)"/>
      <use xlink:href="#DejaVuSans-74" transform="translate(150.826172 0)"/>
      <use xlink:href="#DejaVuSans-68" transform="translate(190.035156 0)"/>
     </g>
    </g>
   </g>
   <g id="matplotlib.axis_4">
    <g id="ytick_10">
     <g id="line2d_45">
      <path d="M 328.936138 171.862271 
L 566.572275 171.862271 
" clip-path="url(#p8b17ed6b27)" style="fill: none; stroke: #b0b0b0; stroke-opacity: 0.4; stroke-width: 0.8; stroke-linecap: square"/>
     </g>
     <g id="line2d_46">
      <g>
       <use xlink:href="#m4360e03428" x="328.936138" y="171.862271" style="stroke: #000000; stroke-width: 0.8"/>
      </g>
     </g>
     <g id="text_26">
      <!-- −3 -->
      <g transform="translate(307.19395 175.66149) scale(0.1 -0.1)">
       <use xlink:href="#DejaVuSans-2212"/>
       <use xlink:href="#DejaVuSans-33" transform="translate(83.789062 0)"/>
      </g>
     </g>
    </g>
    <g id="ytick_11">
     <g id="line2d_47">
      <path d="M 328.936138 147.085095 
L 566.572275 147.085095 
" clip-path="url(#p8b17ed6b27)" style="fill: none; stroke: #b0b0b0; stroke-opacity: 0.4; stroke-width: 0.8; stroke-linecap: square"/>
     </g>
     <g id="line2d_48">
      <g>
       <use xlink:href="#m4360e03428" x="328.936138" y="147.085095" style="stroke: #000000; stroke-width: 0.8"/>
      </g>
     </g>
     <g id="text_27">
      <!-- −2 -->
      <g transform="translate(307.19395 150.884314) scale(0.1 -0.1)">
       <use xlink:href="#DejaVuSans-2212"/>
       <use xlink:href="#DejaVuSans-32" transform="translate(83.789062 0)"/>
      </g>
     </g>
    </g>
    <g id="ytick_12">
     <g id="line2d_49">
      <path d="M 328.936138 122.307919 
L 566.572275 122.307919 
" clip-path="url(#p8b17ed6b27)" style="fill: none; stroke: #b0b0b0; stroke-opacity: 0.4; stroke-width: 0.8; stroke-linecap: square"/>
     </g>
     <g id="line2d_50">
      <g>
       <use xlink:href="#m4360e03428" x="328.936138" y="122.307919" style="stroke: #000000; stroke-width: 0.8"/>
      </g>
     </g>
     <g id="text_28">
      <!-- −1 -->
      <g transform="translate(307.19395 126.107138) scale(0.1 -0.1)">
       <use xlink:href="#DejaVuSans-2212"/>
       <use xlink:href="#DejaVuSans-31" transform="translate(83.789062 0)"/>
      </g>
     </g>
    </g>
    <g id="ytick_13">
     <g id="line2d_51">
      <path d="M 328.936138 97.530743 
L 566.572275 97.530743 
" clip-path="url(#p8b17ed6b27)" style="fill: none; stroke: #b0b0b0; stroke-opacity: 0.4; stroke-width: 0.8; stroke-linecap: square"/>
     </g>
     <g id="line2d_52">
      <g>
       <use xlink:href="#m4360e03428" x="328.936138" y="97.530743" style="stroke: #000000; stroke-width: 0.8"/>
      </g>
     </g>
     <g id="text_29">
      <!-- 0 -->
      <g transform="translate(315.573638 101.329962) scale(0.1 -0.1)">
       <use xlink:href="#DejaVuSans-30"/>
      </g>
     </g>
    </g>
    <g id="ytick_14">
     <g id="line2d_53">
      <path d="M 328.936138 72.753567 
L 566.572275 72.753567 
" clip-path="url(#p8b17ed6b27)" style="fill: none; stroke: #b0b0b0; stroke-opacity: 0.4; stroke-width: 0.8; stroke-linecap: square"/>
     </g>
     <g id="line2d_54">
      <g>
       <use xlink:href="#m4360e03428" x="328.936138" y="72.753567" style="stroke: #000000; stroke-width: 0.8"/>
      </g>
     </g>
     <g id="text_30">
      <!-- 1 -->
      <g transform="translate(315.573638 76.552786) scale(0.1 -0.1)">
       <use xlink:href="#DejaVuSans-31"/>
      </g>
     </g>
    </g>
    <g id="ytick_15">
     <g id="line2d_55">
      <path d="M 328.936138 47.976391 
L 566.572275 47.976391 
" clip-path="url(#p8b17ed6b27)" style="fill: none; stroke: #b0b0b0; stroke-opacity: 0.4; stroke-width: 0.8; stroke-linecap: square"/>
     </g>
     <g id="line2d_56">
      <g>
       <use xlink:href="#m4360e03428" x="328.936138" y="47.976391" style="stroke: #000000; stroke-width: 0.8"/>
      </g>
     </g>
     <g id="text_31">
      <!-- 2 -->
      <g transform="translate(315.573638 51.77561) scale(0.1 -0.1)">
       <use xlink:href="#DejaVuSans-32"/>
      </g>
     </g>
    </g>
    <g id="text_32">
     <!-- Prediction -->
     <g transform="translate(301.114263 129.136719) rotate(-90) scale(0.1 -0.1)">
      <use xlink:href="#DejaVuSans-50"/>
      <use xlink:href="#DejaVuSans-72" transform="translate(58.552734 0)"/>
      <use xlink:href="#DejaVuSans-65" transform="translate(97.416016 0)"/>
      <use xlink:href="#DejaVuSans-64" transform="translate(158.939453 0)"/>
      <use xlink:href="#DejaVuSans-69" transform="translate(222.416016 0)"/>
      <use xlink:href="#DejaVuSans-63" transform="translate(250.199219 0)"/>
      <use xlink:href="#DejaVuSans-74" transform="translate(305.179688 0)"/>
      <use xlink:href="#DejaVuSans-69" transform="translate(344.388672 0)"/>
      <use xlink:href="#DejaVuSans-6f" transform="translate(372.171875 0)"/>
      <use xlink:href="#DejaVuSans-6e" transform="translate(433.353516 0)"/>
     </g>
    </g>
   </g>
   <g id="patch_29">
    <path d="M 328.936138 174.04 
L 328.936138 34.56 
" style="fill: none; stroke: #000000; stroke-width: 0.8; stroke-linejoin: miter; stroke-linecap: square"/>
   </g>
   <g id="patch_30">
    <path d="M 328.936138 174.04 
L 566.572275 174.04 
" style="fill: none; stroke: #000000; stroke-width: 0.8; stroke-linejoin: miter; stroke-linecap: square"/>
   </g>
  </g>
  <g id="axes_3">
   <g id="patch_31">
    <path d="M 613.212275 174.04 
L 850.848413 174.04 
L 850.848413 34.56 
L 613.212275 34.56 
z
" style="fill: #ffffff"/>
   </g>
   <g id="matplotlib.axis_5">
    <g id="xtick_13">
     <g id="line2d_57">
      <path d="M 624.013918 174.04 
L 624.013918 34.56 
" clip-path="url(#p70b810bde2)" style="fill: none; stroke: #b0b0b0; stroke-opacity: 0.4; stroke-width: 0.8; stroke-linecap: square"/>
     </g>
     <g id="line2d_58">
      <g>
       <use xlink:href="#me151def718" x="624.013918" y="174.04" style="stroke: #000000; stroke-width: 0.8"/>
      </g>
     </g>
     <g id="text_33">
      <!-- 0 -->
      <g transform="translate(620.832668 188.638438) scale(0.1 -0.1)">
       <use xlink:href="#DejaVuSans-30"/>
      </g>
     </g>
    </g>
    <g id="xtick_14">
     <g id="line2d_59">
      <path d="M 667.656918 174.04 
L 667.656918 34.56 
" clip-path="url(#p70b810bde2)" style="fill: none; stroke: #b0b0b0; stroke-opacity: 0.4; stroke-width: 0.8; stroke-linecap: square"/>
     </g>
     <g id="line2d_60">
      <g>
       <use xlink:href="#me151def718" x="667.656918" y="174.04" style="stroke: #000000; stroke-width: 0.8"/>
      </g>
     </g>
     <g id="text_34">
      <!-- 20 -->
      <g transform="translate(661.294418 188.638438) scale(0.1 -0.1)">
       <use xlink:href="#DejaVuSans-32"/>
       <use xlink:href="#DejaVuSans-30" transform="translate(63.623047 0)"/>
      </g>
     </g>
    </g>
    <g id="xtick_15">
     <g id="line2d_61">
      <path d="M 711.299919 174.04 
L 711.299919 34.56 
" clip-path="url(#p70b810bde2)" style="fill: none; stroke: #b0b0b0; stroke-opacity: 0.4; stroke-width: 0.8; stroke-linecap: square"/>
     </g>
     <g id="line2d_62">
      <g>
       <use xlink:href="#me151def718" x="711.299919" y="174.04" style="stroke: #000000; stroke-width: 0.8"/>
      </g>
     </g>
     <g id="text_35">
      <!-- 40 -->
      <g transform="translate(704.937419 188.638438) scale(0.1 -0.1)">
       <use xlink:href="#DejaVuSans-34"/>
       <use xlink:href="#DejaVuSans-30" transform="translate(63.623047 0)"/>
      </g>
     </g>
    </g>
    <g id="xtick_16">
     <g id="line2d_63">
      <path d="M 754.942919 174.04 
L 754.942919 34.56 
" clip-path="url(#p70b810bde2)" style="fill: none; stroke: #b0b0b0; stroke-opacity: 0.4; stroke-width: 0.8; stroke-linecap: square"/>
     </g>
     <g id="line2d_64">
      <g>
       <use xlink:href="#me151def718" x="754.942919" y="174.04" style="stroke: #000000; stroke-width: 0.8"/>
      </g>
     </g>
     <g id="text_36">
      <!-- 60 -->
      <g transform="translate(748.580419 188.638438) scale(0.1 -0.1)">
       <use xlink:href="#DejaVuSans-36"/>
       <use xlink:href="#DejaVuSans-30" transform="translate(63.623047 0)"/>
      </g>
     </g>
    </g>
    <g id="xtick_17">
     <g id="line2d_65">
      <path d="M 798.58592 174.04 
L 798.58592 34.56 
" clip-path="url(#p70b810bde2)" style="fill: none; stroke: #b0b0b0; stroke-opacity: 0.4; stroke-width: 0.8; stroke-linecap: square"/>
     </g>
     <g id="line2d_66">
      <g>
       <use xlink:href="#me151def718" x="798.58592" y="174.04" style="stroke: #000000; stroke-width: 0.8"/>
      </g>
     </g>
     <g id="text_37">
      <!-- 80 -->
      <g transform="translate(792.22342 188.638438) scale(0.1 -0.1)">
       <use xlink:href="#DejaVuSans-38"/>
       <use xlink:href="#DejaVuSans-30" transform="translate(63.623047 0)"/>
      </g>
     </g>
    </g>
    <g id="xtick_18">
     <g id="line2d_67">
      <path d="M 842.22892 174.04 
L 842.22892 34.56 
" clip-path="url(#p70b810bde2)" style="fill: none; stroke: #b0b0b0; stroke-opacity: 0.4; stroke-width: 0.8; stroke-linecap: square"/>
     </g>
     <g id="line2d_68">
      <g>
       <use xlink:href="#me151def718" x="842.22892" y="174.04" style="stroke: #000000; stroke-width: 0.8"/>
      </g>
     </g>
     <g id="text_38">
      <!-- 100 -->
      <g transform="translate(832.68517 188.638438) scale(0.1 -0.1)">
       <use xlink:href="#DejaVuSans-31"/>
       <use xlink:href="#DejaVuSans-30" transform="translate(63.623047 0)"/>
       <use xlink:href="#DejaVuSans-30" transform="translate(127.246094 0)"/>
      </g>
     </g>
    </g>
   </g>
   <g id="matplotlib.axis_6">
    <g id="ytick_16">
     <g id="line2d_69">
      <path d="M 613.212275 148.274143 
L 850.848413 148.274143 
" clip-path="url(#p70b810bde2)" style="fill: none; stroke: #b0b0b0; stroke-opacity: 0.4; stroke-width: 0.8; stroke-linecap: square"/>
     </g>
     <g id="line2d_70">
      <g>
       <use xlink:href="#m4360e03428" x="613.212275" y="148.274143" style="stroke: #000000; stroke-width: 0.8"/>
      </g>
     </g>
     <g id="text_39">
      <!-- −2 -->
      <g transform="translate(591.470088 152.073362) scale(0.1 -0.1)">
       <use xlink:href="#DejaVuSans-2212"/>
       <use xlink:href="#DejaVuSans-32" transform="translate(83.789062 0)"/>
      </g>
     </g>
    </g>
    <g id="ytick_17">
     <g id="line2d_71">
      <path d="M 613.212275 102.134186 
L 850.848413 102.134186 
" clip-path="url(#p70b810bde2)" style="fill: none; stroke: #b0b0b0; stroke-opacity: 0.4; stroke-width: 0.8; stroke-linecap: square"/>
     </g>
     <g id="line2d_72">
      <g>
       <use xlink:href="#m4360e03428" x="613.212275" y="102.134186" style="stroke: #000000; stroke-width: 0.8"/>
      </g>
     </g>
     <g id="text_40">
      <!-- 0 -->
      <g transform="translate(599.849775 105.933405) scale(0.1 -0.1)">
       <use xlink:href="#DejaVuSans-30"/>
      </g>
     </g>
    </g>
    <g id="ytick_18">
     <g id="line2d_73">
      <path d="M 613.212275 55.99423 
L 850.848413 55.99423 
" clip-path="url(#p70b810bde2)" style="fill: none; stroke: #b0b0b0; stroke-opacity: 0.4; stroke-width: 0.8; stroke-linecap: square"/>
     </g>
     <g id="line2d_74">
      <g>
       <use xlink:href="#m4360e03428" x="613.212275" y="55.99423" style="stroke: #000000; stroke-width: 0.8"/>
      </g>
     </g>
     <g id="text_41">
      <!-- 2 -->
      <g transform="translate(599.849775 59.793449) scale(0.1 -0.1)">
       <use xlink:href="#DejaVuSans-32"/>
      </g>
     </g>
    </g>
   </g>
   <g id="line2d_75">
    <path d="M 624.013918 137.498642 
L 626.196068 141.629301 
L 628.378218 101.069852 
L 630.560368 124.243865 
L 632.742518 103.998509 
L 634.924668 118.372199 
L 637.106818 119.916163 
L 639.288968 113.227278 
L 641.471118 85.902483 
L 643.653268 80.698828 
L 645.835418 93.571244 
L 648.017568 124.969371 
L 650.199718 87.285627 
L 652.381868 86.241355 
L 654.564018 95.798081 
L 656.746168 116.059697 
L 658.928318 85.780811 
L 661.110468 92.379771 
L 663.292618 174.04 
L 665.474768 87.266692 
L 667.656918 146.284188 
L 669.839068 86.825835 
L 672.021218 105.688633 
L 674.203368 74.597591 
L 676.385518 104.398763 
L 678.567668 122.588358 
L 680.749818 105.533632 
L 682.931968 77.684478 
L 685.114118 101.528678 
L 687.296268 104.771896 
L 689.478418 84.980423 
L 691.660569 97.2812 
L 693.842719 102.270932 
L 696.024869 70.61921 
L 698.207019 66.25774 
L 700.389169 87.984764 
L 702.571319 108.731258 
L 704.753469 67.600482 
L 706.935619 74.839644 
L 709.117769 85.549244 
L 711.299919 130.189047 
L 713.482069 98.888889 
L 715.664219 119.290687 
L 717.846369 105.802596 
L 720.028519 96.596078 
L 722.210669 99.823511 
L 724.392819 113.096466 
L 726.574969 72.767171 
L 728.757119 141.263898 
L 730.939269 85.288868 
L 733.121419 144.986285 
L 735.303569 93.307656 
L 737.485719 122.59505 
L 739.667869 81.871738 
L 741.850019 100.139729 
L 744.032169 96.419606 
L 746.214319 125.625868 
L 748.396469 117.235105 
L 750.578619 97.353686 
L 752.760769 88.671241 
L 754.942919 34.56 
L 757.125069 96.99285 
L 759.307219 79.617022 
L 761.489369 138.052618 
L 763.671519 132.814763 
L 765.853669 110.335443 
L 768.035819 129.758817 
L 770.217969 67.842988 
L 772.400119 111.597923 
L 774.582269 70.24728 
L 776.764419 67.834147 
L 778.946569 101.147259 
L 781.128719 90.557677 
L 783.31087 103.4284 
L 785.49302 89.712457 
L 787.67517 90.9835 
L 789.85732 104.986781 
L 792.03947 90.48454 
L 794.22162 62.368551 
L 796.40377 85.684918 
L 798.58592 94.617996 
L 800.76807 99.255756 
L 802.95022 125.496533 
L 805.13237 125.833903 
L 807.31452 94.674358 
L 809.49667 133.72601 
L 811.67882 119.813347 
L 813.86097 72.569748 
L 816.04312 57.972949 
L 818.22527 140.567757 
L 820.40742 64.607416 
L 822.58957 107.012063 
L 824.77172 102.480353 
L 826.95387 104.75059 
L 829.13602 77.206057 
L 831.31817 139.22325 
L 833.50032 91.610502 
L 835.68247 123.932321 
L 837.86462 88.966107 
L 840.04677 66.541909 
" clip-path="url(#p70b810bde2)" style="fill: none; stroke: #1f77b4; stroke-width: 1.5; stroke-linecap: square"/>
   </g>
   <g id="line2d_76">
    <path d="M 624.013918 102.143814 
L 626.196068 93.502437 
L 628.378218 92.685836 
L 630.560368 120.580791 
L 632.742518 67.2607 
L 634.924668 62.766001 
L 637.106818 85.944059 
L 639.288968 100.443493 
L 641.471118 112.790067 
L 643.653268 116.587302 
L 645.835418 62.665224 
L 648.017568 69.503662 
L 650.199718 103.602856 
L 652.381868 138.583149 
L 654.564018 167.468638 
L 656.746168 127.128816 
L 658.928318 105.147596 
L 661.110468 69.820321 
L 663.292618 117.167881 
L 665.474768 90.488105 
L 667.656918 72.06983 
L 669.839068 99.168856 
L 672.021218 105.420456 
L 674.203368 132.327332 
L 676.385518 129.875266 
L 678.567668 92.534777 
L 680.749818 106.769119 
L 682.931968 99.307392 
L 685.114118 103.224882 
L 687.296268 86.812398 
L 689.478418 120.236908 
L 691.660569 109.876025 
L 693.842719 58.389304 
L 696.024869 120.585235 
L 698.207019 108.630125 
L 700.389169 115.731325 
L 702.571319 91.87309 
L 704.753469 78.547618 
L 706.935619 113.627918 
L 709.117769 112.086906 
L 711.299919 108.570286 
L 713.482069 89.910933 
L 715.664219 119.19202 
L 717.846369 110.807575 
L 720.028519 156.860647 
L 722.210669 134.011014 
L 724.392819 104.728261 
L 726.574969 81.42048 
L 728.757119 95.326795 
L 730.939269 127.482751 
L 733.121419 134.438067 
L 735.303569 98.10432 
L 737.485719 140.26433 
L 739.667869 77.543278 
L 741.850019 100.660103 
L 744.032169 139.215027 
L 746.214319 124.418721 
L 748.396469 118.844033 
L 750.578619 119.971721 
L 752.760769 136.506908 
L 754.942919 122.312632 
L 757.125069 117.923315 
L 759.307219 118.543533 
L 761.489369 76.112252 
L 763.671519 99.715811 
L 765.853669 125.048609 
L 768.035819 109.8539 
L 770.217969 122.425549 
L 772.400119 109.055333 
L 774.582269 81.936209 
L 776.764419 96.314305 
L 778.946569 49.405417 
L 781.128719 93.461549 
L 783.31087 123.210792 
L 785.49302 83.453485 
L 787.67517 77.220197 
L 789.85732 76.891778 
L 792.03947 127.378301 
L 794.22162 105.540178 
L 796.40377 76.023309 
L 798.58592 141.000847 
L 800.76807 113.65572 
L 802.95022 135.053608 
L 805.13237 123.648561 
L 807.31452 125.491551 
L 809.49667 73.283568 
L 811.67882 107.544974 
L 813.86097 122.051781 
L 816.04312 126.025588 
L 818.22527 98.865928 
L 820.40742 102.391085 
L 822.58957 71.12642 
L 824.77172 90.598812 
L 826.95387 135.16573 
L 829.13602 116.644758 
L 831.31817 77.447637 
L 833.50032 116.462551 
L 835.68247 62.117644 
L 837.86462 127.4717 
L 840.04677 88.924009 
" clip-path="url(#p70b810bde2)" style="fill: none; stroke: #ff7f0e; stroke-width: 1.5; stroke-linecap: square"/>
   </g>
   <g id="patch_32">
    <path d="M 613.212275 174.04 
L 613.212275 34.56 
" style="fill: none; stroke: #000000; stroke-width: 0.8; stroke-linejoin: miter; stroke-linecap: square"/>
   </g>
   <g id="patch_33">
    <path d="M 613.212275 174.04 
L 850.848413 174.04 
" style="fill: none; stroke: #000000; stroke-width: 0.8; stroke-linejoin: miter; stroke-linecap: square"/>
   </g>
   <g id="legend_2">
    <g id="patch_34">
     <path d="M 762.174975 169.04 
L 843.848413 169.04 
Q 845.848413 169.04 845.848413 167.04 
L 845.848413 138.68375 
Q 845.848413 136.68375 843.848413 136.68375 
L 762.174975 136.68375 
Q 760.174975 136.68375 760.174975 138.68375 
L 760.174975 167.04 
Q 760.174975 169.04 762.174975 169.04 
z
" style="fill: #ffffff; opacity: 0.8; stroke: #cccccc; stroke-linejoin: miter"/>
    </g>
    <g id="line2d_77">
     <path d="M 764.174975 144.782188 
L 774.174975 144.782188 
L 784.174975 144.782188 
" style="fill: none; stroke: #1f77b4; stroke-width: 1.5; stroke-linecap: square"/>
    </g>
    <g id="text_42">
     <!-- Truth -->
     <g transform="translate(792.174975 148.282188) scale(0.1 -0.1)">
      <use xlink:href="#DejaVuSans-54"/>
      <use xlink:href="#DejaVuSans-72" transform="translate(46.333984 0)"/>
      <use xlink:href="#DejaVuSans-75" transform="translate(87.447266 0)"/>
      <use xlink:href="#DejaVuSans-74" transform="translate(150.826172 0)"/>
      <use xlink:href="#DejaVuSans-68" transform="translate(190.035156 0)"/>
     </g>
    </g>
    <g id="line2d_78">
     <path d="M 764.174975 159.460313 
L 774.174975 159.460313 
L 784.174975 159.460313 
" style="fill: none; stroke: #ff7f0e; stroke-width: 1.5; stroke-linecap: square"/>
    </g>
    <g id="text_43">
     <!-- Prediction -->
     <g transform="translate(792.174975 162.960313) scale(0.1 -0.1)">
      <use xlink:href="#DejaVuSans-50"/>
      <use xlink:href="#DejaVuSans-72" transform="translate(58.552734 0)"/>
      <use xlink:href="#DejaVuSans-65" transform="translate(97.416016 0)"/>
      <use xlink:href="#DejaVuSans-64" transform="translate(158.939453 0)"/>
      <use xlink:href="#DejaVuSans-69" transform="translate(222.416016 0)"/>
      <use xlink:href="#DejaVuSans-63" transform="translate(250.199219 0)"/>
      <use xlink:href="#DejaVuSans-74" transform="translate(305.179688 0)"/>
      <use xlink:href="#DejaVuSans-69" transform="translate(344.388672 0)"/>
      <use xlink:href="#DejaVuSans-6f" transform="translate(372.171875 0)"/>
      <use xlink:href="#DejaVuSans-6e" transform="translate(433.353516 0)"/>
     </g>
    </g>
   </g>
  </g>
  <g id="text_44">
   <!-- Multiple plots in one figure -->
   <g transform="translate(351.865313 13.438125) scale(0.12 -0.12)">
    <defs>
     <path id="DejaVuSans-4d" d="M 628 4666 
L 1569 4666 
L 2759 1491 
L 3956 4666 
L 4897 4666 
L 4897 0 
L 4281 0 
L 4281 4097 
L 3078 897 
L 2444 897 
L 1241 4097 
L 1241 0 
L 628 0 
L 628 4666 
z
" transform="scale(0.015625)"/>
     <path id="DejaVuSans-6c" d="M 603 4863 
L 1178 4863 
L 1178 0 
L 603 0 
L 603 4863 
z
" transform="scale(0.015625)"/>
     <path id="DejaVuSans-70" d="M 1159 525 
L 1159 -1331 
L 581 -1331 
L 581 3500 
L 1159 3500 
L 1159 2969 
Q 1341 3281 1617 3432 
Q 1894 3584 2278 3584 
Q 2916 3584 3314 3078 
Q 3713 2572 3713 1747 
Q 3713 922 3314 415 
Q 2916 -91 2278 -91 
Q 1894 -91 1617 61 
Q 1341 213 1159 525 
z
M 3116 1747 
Q 3116 2381 2855 2742 
Q 2594 3103 2138 3103 
Q 1681 3103 1420 2742 
Q 1159 2381 1159 1747 
Q 1159 1113 1420 752 
Q 1681 391 2138 391 
Q 2594 391 2855 752 
Q 3116 1113 3116 1747 
z
" transform="scale(0.015625)"/>
     <path id="DejaVuSans-20" transform="scale(0.015625)"/>
     <path id="DejaVuSans-73" d="M 2834 3397 
L 2834 2853 
Q 2591 2978 2328 3040 
Q 2066 3103 1784 3103 
Q 1356 3103 1142 2972 
Q 928 2841 928 2578 
Q 928 2378 1081 2264 
Q 1234 2150 1697 2047 
L 1894 2003 
Q 2506 1872 2764 1633 
Q 3022 1394 3022 966 
Q 3022 478 2636 193 
Q 2250 -91 1575 -91 
Q 1294 -91 989 -36 
Q 684 19 347 128 
L 347 722 
Q 666 556 975 473 
Q 1284 391 1588 391 
Q 1994 391 2212 530 
Q 2431 669 2431 922 
Q 2431 1156 2273 1281 
Q 2116 1406 1581 1522 
L 1381 1569 
Q 847 1681 609 1914 
Q 372 2147 372 2553 
Q 372 3047 722 3315 
Q 1072 3584 1716 3584 
Q 2034 3584 2315 3537 
Q 2597 3491 2834 3397 
z
" transform="scale(0.015625)"/>
     <path id="DejaVuSans-66" d="M 2375 4863 
L 2375 4384 
L 1825 4384 
Q 1516 4384 1395 4259 
Q 1275 4134 1275 3809 
L 1275 3500 
L 2222 3500 
L 2222 3053 
L 1275 3053 
L 1275 0 
L 697 0 
L 697 3053 
L 147 3053 
L 147 3500 
L 697 3500 
L 697 3744 
Q 697 4328 969 4595 
Q 1241 4863 1831 4863 
L 2375 4863 
z
" transform="scale(0.015625)"/>
     <path id="DejaVuSans-67" d="M 2906 1791 
Q 2906 2416 2648 2759 
Q 2391 3103 1925 3103 
Q 1463 3103 1205 2759 
Q 947 2416 947 1791 
Q 947 1169 1205 825 
Q 1463 481 1925 481 
Q 2391 481 2648 825 
Q 2906 1169 2906 1791 
z
M 3481 434 
Q 3481 -459 3084 -895 
Q 2688 -1331 1869 -1331 
Q 1566 -1331 1297 -1286 
Q 1028 -1241 775 -1147 
L 775 -588 
Q 1028 -725 1275 -790 
Q 1522 -856 1778 -856 
Q 2344 -856 2625 -561 
Q 2906 -266 2906 331 
L 2906 616 
Q 2728 306 2450 153 
Q 2172 0 1784 0 
Q 1141 0 747 490 
Q 353 981 353 1791 
Q 353 2603 747 3093 
Q 1141 3584 1784 3584 
Q 2172 3584 2450 3431 
Q 2728 3278 2906 2969 
L 2906 3500 
L 3481 3500 
L 3481 434 
z
" transform="scale(0.015625)"/>
    </defs>
    <use xlink:href="#DejaVuSans-4d"/>
    <use xlink:href="#DejaVuSans-75" transform="translate(86.279297 0)"/>
    <use xlink:href="#DejaVuSans-6c" transform="translate(149.658203 0)"/>
    <use xlink:href="#DejaVuSans-74" transform="translate(177.441406 0)"/>
    <use xlink:href="#DejaVuSans-69" transform="translate(216.650391 0)"/>
    <use xlink:href="#DejaVuSans-70" transform="translate(244.433594 0)"/>
    <use xlink:href="#DejaVuSans-6c" transform="translate(307.910156 0)"/>
    <use xlink:href="#DejaVuSans-65" transform="translate(335.693359 0)"/>
    <use xlink:href="#DejaVuSans-20" transform="translate(397.216797 0)"/>
    <use xlink:href="#DejaVuSans-70" transform="translate(429.003906 0)"/>
    <use xlink:href="#DejaVuSans-6c" transform="translate(492.480469 0)"/>
    <use xlink:href="#DejaVuSans-6f" transform="translate(520.263672 0)"/>
    <use xlink:href="#DejaVuSans-74" transform="translate(581.445312 0)"/>
    <use xlink:href="#DejaVuSans-73" transform="translate(620.654297 0)"/>
    <use xlink:href="#DejaVuSans-20" transform="translate(672.753906 0)"/>
    <use xlink:href="#DejaVuSans-69" transform="translate(704.541016 0)"/>
    <use xlink:href="#DejaVuSans-6e" transform="translate(732.324219 0)"/>
    <use xlink:href="#DejaVuSans-20" transform="translate(795.703125 0)"/>
    <use xlink:href="#DejaVuSans-6f" transform="translate(827.490234 0)"/>
    <use xlink:href="#DejaVuSans-6e" transform="translate(888.671875 0)"/>
    <use xlink:href="#DejaVuSans-65" transform="translate(952.050781 0)"/>
    <use xlink:href="#DejaVuSans-20" transform="translate(1013.574219 0)"/>
    <use xlink:href="#DejaVuSans-66" transform="translate(1045.361328 0)"/>
    <use xlink:href="#DejaVuSans-69" transform="translate(1080.566406 0)"/>
    <use xlink:href="#DejaVuSans-67" transform="translate(1108.349609 0)"/>
    <use xlink:href="#DejaVuSans-75" transform="translate(1171.826172 0)"/>
    <use xlink:href="#DejaVuSans-72" transform="translate(1235.205078 0)"/>
    <use xlink:href="#DejaVuSans-65" transform="translate(1274.068359 0)"/>
   </g>
  </g>
 </g>
 <defs>
  <clipPath id="p877f4920bb">
   <rect x="44.66" y="34.56" width="237.636138" height="139.48"/>
  </clipPath>
  <clipPath id="p8b17ed6b27">
   <rect x="328.936138" y="34.56" width="237.636138" height="139.48"/>
  </clipPath>
  <clipPath id="p70b810bde2">
   <rect x="613.212275" y="34.56" width="237.636138" height="139.48"/>
  </clipPath>
 </defs>
</svg>
