<?xml version="1.0" encoding="utf-8" standalone="no"?>
<!DOCTYPE svg PUBLIC "-//W3C//DTD SVG 1.1//EN"
  "http://www.w3.org/Graphics/SVG/1.1/DTD/svg11.dtd">
<svg height="216pt" version="1.1" viewBox="0 0 864 216" width="864pt" xmlns="http://www.w3.org/2000/svg" xmlns:xlink="http://www.w3.org/1999/xlink">
 <metadata>
  <rdf:RDF xmlns:cc="http://creativecommons.org/ns#" xmlns:dc="http://purl.org/dc/elements/1.1/" xmlns:rdf="http://www.w3.org/1999/02/22-rdf-syntax-ns#">
   <cc:Work>
    <dc:type rdf:resource="http://purl.org/dc/dcmitype/StillImage"/>
    <dc:date>2021-07-27T12:16:50.956345</dc:date>
    <dc:format>image/svg+xml</dc:format>
    <dc:creator>
     <cc:Agent>
      <dc:title>Matplotlib v3.4.2, https://matplotlib.org/</dc:title>
     </cc:Agent>
    </dc:creator>
   </cc:Work>
  </rdf:RDF>
 </metadata>
 <defs>
  <style type="text/css">*{stroke-linecap:butt;stroke-linejoin:round;}</style>
 </defs>
 <g id="figure_1">
  <g id="patch_1">
   <path d="M 0 216 
L 864 216 
L 864 0 
L 0 0 
z
" style="fill:#ffffff;"/>
  </g>
  <g id="axes_1">
   <g id="patch_2">
    <path d="M 47.72 174.04 
L 284.336138 174.04 
L 284.336138 35.60587 
L 47.72 35.60587 
z
" style="fill:#ffffff;"/>
   </g>
   <g id="patch_3">
    <path clip-path="url(#pcf02cf5d0f)" d="M 92.464405 174.04 
L 107.177138 174.04 
L 107.177138 153.756611 
L 92.464405 153.756611 
z
" style="fill:#1f77b4;opacity:0.4;"/>
   </g>
   <g id="patch_4">
    <path clip-path="url(#pcf02cf5d0f)" d="M 107.177138 174.04 
L 121.88987 174.04 
L 121.88987 153.756611 
L 107.177138 153.756611 
z
" style="fill:#1f77b4;opacity:0.4;"/>
   </g>
   <g id="patch_5">
    <path clip-path="url(#pcf02cf5d0f)" d="M 121.88987 174.04 
L 136.602603 174.04 
L 136.602603 123.331528 
L 121.88987 123.331528 
z
" style="fill:#1f77b4;opacity:0.4;"/>
   </g>
   <g id="patch_6">
    <path clip-path="url(#pcf02cf5d0f)" d="M 136.602603 174.04 
L 151.315336 174.04 
L 151.315336 42.197972 
L 136.602603 42.197972 
z
" style="fill:#1f77b4;opacity:0.4;"/>
   </g>
   <g id="patch_7">
    <path clip-path="url(#pcf02cf5d0f)" d="M 151.315336 174.04 
L 166.028069 174.04 
L 166.028069 67.552208 
L 151.315336 67.552208 
z
" style="fill:#1f77b4;opacity:0.4;"/>
   </g>
   <g id="patch_8">
    <path clip-path="url(#pcf02cf5d0f)" d="M 166.028069 174.04 
L 180.740802 174.04 
L 180.740802 108.118986 
L 166.028069 108.118986 
z
" style="fill:#1f77b4;opacity:0.4;"/>
   </g>
   <g id="patch_9">
    <path clip-path="url(#pcf02cf5d0f)" d="M 180.740802 174.04 
L 195.453534 174.04 
L 195.453534 118.26068 
L 180.740802 118.26068 
z
" style="fill:#1f77b4;opacity:0.4;"/>
   </g>
   <g id="patch_10">
    <path clip-path="url(#pcf02cf5d0f)" d="M 195.453534 174.04 
L 210.166267 174.04 
L 210.166267 148.685764 
L 195.453534 148.685764 
z
" style="fill:#1f77b4;opacity:0.4;"/>
   </g>
   <g id="patch_11">
    <path clip-path="url(#pcf02cf5d0f)" d="M 210.166267 174.04 
L 224.879 174.04 
L 224.879 153.756611 
L 210.166267 153.756611 
z
" style="fill:#1f77b4;opacity:0.4;"/>
   </g>
   <g id="patch_12">
    <path clip-path="url(#pcf02cf5d0f)" d="M 224.879 174.04 
L 239.591733 174.04 
L 239.591733 163.898306 
L 224.879 163.898306 
z
" style="fill:#1f77b4;opacity:0.4;"/>
   </g>
   <g id="patch_13">
    <path clip-path="url(#pcf02cf5d0f)" d="M 101.728829 174.04 
L 118.560844 174.04 
L 118.560844 143.013285 
L 101.728829 143.013285 
z
" style="fill:#ff7f0e;opacity:0.4;"/>
   </g>
   <g id="patch_14">
    <path clip-path="url(#pcf02cf5d0f)" d="M 118.560844 174.04 
L 135.392859 174.04 
L 135.392859 111.98657 
L 118.560844 111.98657 
z
" style="fill:#ff7f0e;opacity:0.4;"/>
   </g>
   <g id="patch_15">
    <path clip-path="url(#pcf02cf5d0f)" d="M 135.392859 174.04 
L 152.224875 174.04 
L 152.224875 98.689406 
L 135.392859 98.689406 
z
" style="fill:#ff7f0e;opacity:0.4;"/>
   </g>
   <g id="patch_16">
    <path clip-path="url(#pcf02cf5d0f)" d="M 152.224875 174.04 
L 169.05689 174.04 
L 169.05689 98.689406 
L 152.224875 98.689406 
z
" style="fill:#ff7f0e;opacity:0.4;"/>
   </g>
   <g id="patch_17">
    <path clip-path="url(#pcf02cf5d0f)" d="M 169.05689 174.04 
L 185.888905 174.04 
L 185.888905 54.365527 
L 169.05689 54.365527 
z
" style="fill:#ff7f0e;opacity:0.4;"/>
   </g>
   <g id="patch_18">
    <path clip-path="url(#pcf02cf5d0f)" d="M 185.888905 174.04 
L 202.72092 174.04 
L 202.72092 125.283733 
L 185.888905 125.283733 
z
" style="fill:#ff7f0e;opacity:0.4;"/>
   </g>
   <g id="patch_19">
    <path clip-path="url(#pcf02cf5d0f)" d="M 202.72092 174.04 
L 219.552936 174.04 
L 219.552936 143.013285 
L 202.72092 143.013285 
z
" style="fill:#ff7f0e;opacity:0.4;"/>
   </g>
   <g id="matplotlib.axis_1">
    <g id="xtick_1">
     <g id="line2d_1">
      <defs>
       <path d="M 0 0 
L 0 3.5 
" id="md83c35afd8" style="stroke:#000000;stroke-width:0.8;"/>
      </defs>
      <g>
       <use style="stroke:#000000;stroke-width:0.8;" x="50.445911" xlink:href="#md83c35afd8" y="174.04"/>
      </g>
     </g>
     <g id="text_1">
      <!-- −4 -->
      <g transform="translate(43.074817 188.638438)scale(0.1 -0.1)">
       <defs>
        <path d="M 678 2272 
L 4684 2272 
L 4684 1741 
L 678 1741 
L 678 2272 
z
" id="DejaVuSans-2212" transform="scale(0.015625)"/>
        <path d="M 2419 4116 
L 825 1625 
L 2419 1625 
L 2419 4116 
z
M 2253 4666 
L 3047 4666 
L 3047 1625 
L 3713 1625 
L 3713 1100 
L 3047 1100 
L 3047 0 
L 2419 0 
L 2419 1100 
L 313 1100 
L 313 1709 
L 2253 4666 
z
" id="DejaVuSans-34" transform="scale(0.015625)"/>
       </defs>
       <use xlink:href="#DejaVuSans-2212"/>
       <use x="83.789062" xlink:href="#DejaVuSans-34"/>
      </g>
     </g>
    </g>
    <g id="xtick_2">
     <g id="line2d_2">
      <g>
       <use style="stroke:#000000;stroke-width:0.8;" x="103.751046" xlink:href="#md83c35afd8" y="174.04"/>
      </g>
     </g>
     <g id="text_2">
      <!-- −2 -->
      <g transform="translate(96.379952 188.638438)scale(0.1 -0.1)">
       <defs>
        <path d="M 1228 531 
L 3431 531 
L 3431 0 
L 469 0 
L 469 531 
Q 828 903 1448 1529 
Q 2069 2156 2228 2338 
Q 2531 2678 2651 2914 
Q 2772 3150 2772 3378 
Q 2772 3750 2511 3984 
Q 2250 4219 1831 4219 
Q 1534 4219 1204 4116 
Q 875 4013 500 3803 
L 500 4441 
Q 881 4594 1212 4672 
Q 1544 4750 1819 4750 
Q 2544 4750 2975 4387 
Q 3406 4025 3406 3419 
Q 3406 3131 3298 2873 
Q 3191 2616 2906 2266 
Q 2828 2175 2409 1742 
Q 1991 1309 1228 531 
z
" id="DejaVuSans-32" transform="scale(0.015625)"/>
       </defs>
       <use xlink:href="#DejaVuSans-2212"/>
       <use x="83.789062" xlink:href="#DejaVuSans-32"/>
      </g>
     </g>
    </g>
    <g id="xtick_3">
     <g id="line2d_3">
      <g>
       <use style="stroke:#000000;stroke-width:0.8;" x="157.05618" xlink:href="#md83c35afd8" y="174.04"/>
      </g>
     </g>
     <g id="text_3">
      <!-- 0 -->
      <g transform="translate(153.87493 188.638438)scale(0.1 -0.1)">
       <defs>
        <path d="M 2034 4250 
Q 1547 4250 1301 3770 
Q 1056 3291 1056 2328 
Q 1056 1369 1301 889 
Q 1547 409 2034 409 
Q 2525 409 2770 889 
Q 3016 1369 3016 2328 
Q 3016 3291 2770 3770 
Q 2525 4250 2034 4250 
z
M 2034 4750 
Q 2819 4750 3233 4129 
Q 3647 3509 3647 2328 
Q 3647 1150 3233 529 
Q 2819 -91 2034 -91 
Q 1250 -91 836 529 
Q 422 1150 422 2328 
Q 422 3509 836 4129 
Q 1250 4750 2034 4750 
z
" id="DejaVuSans-30" transform="scale(0.015625)"/>
       </defs>
       <use xlink:href="#DejaVuSans-30"/>
      </g>
     </g>
    </g>
    <g id="xtick_4">
     <g id="line2d_4">
      <g>
       <use style="stroke:#000000;stroke-width:0.8;" x="210.361315" xlink:href="#md83c35afd8" y="174.04"/>
      </g>
     </g>
     <g id="text_4">
      <!-- 2 -->
      <g transform="translate(207.180065 188.638438)scale(0.1 -0.1)">
       <use xlink:href="#DejaVuSans-32"/>
      </g>
     </g>
    </g>
    <g id="xtick_5">
     <g id="line2d_5">
      <g>
       <use style="stroke:#000000;stroke-width:0.8;" x="263.666449" xlink:href="#md83c35afd8" y="174.04"/>
      </g>
     </g>
     <g id="text_5">
      <!-- 4 -->
      <g transform="translate(260.485199 188.638438)scale(0.1 -0.1)">
       <use xlink:href="#DejaVuSans-34"/>
      </g>
     </g>
    </g>
   </g>
   <g id="matplotlib.axis_2">
    <g id="ytick_1">
     <g id="line2d_6">
      <defs>
       <path d="M 0 0 
L -3.5 0 
" id="mb3a1cddef7" style="stroke:#000000;stroke-width:0.8;"/>
      </defs>
      <g>
       <use style="stroke:#000000;stroke-width:0.8;" x="47.72" xlink:href="#mb3a1cddef7" y="174.04"/>
      </g>
     </g>
     <g id="text_6">
      <!-- 0.0 -->
      <g transform="translate(24.816875 177.839219)scale(0.1 -0.1)">
       <defs>
        <path d="M 684 794 
L 1344 794 
L 1344 0 
L 684 0 
L 684 794 
z
" id="DejaVuSans-2e" transform="scale(0.015625)"/>
       </defs>
       <use xlink:href="#DejaVuSans-30"/>
       <use x="63.623047" xlink:href="#DejaVuSans-2e"/>
       <use x="95.410156" xlink:href="#DejaVuSans-30"/>
      </g>
     </g>
    </g>
    <g id="ytick_2">
     <g id="line2d_7">
      <g>
       <use style="stroke:#000000;stroke-width:0.8;" x="47.72" xlink:href="#mb3a1cddef7" y="146.047942"/>
      </g>
     </g>
     <g id="text_7">
      <!-- 0.1 -->
      <g transform="translate(24.816875 149.847161)scale(0.1 -0.1)">
       <defs>
        <path d="M 794 531 
L 1825 531 
L 1825 4091 
L 703 3866 
L 703 4441 
L 1819 4666 
L 2450 4666 
L 2450 531 
L 3481 531 
L 3481 0 
L 794 0 
L 794 531 
z
" id="DejaVuSans-31" transform="scale(0.015625)"/>
       </defs>
       <use xlink:href="#DejaVuSans-30"/>
       <use x="63.623047" xlink:href="#DejaVuSans-2e"/>
       <use x="95.410156" xlink:href="#DejaVuSans-31"/>
      </g>
     </g>
    </g>
    <g id="ytick_3">
     <g id="line2d_8">
      <g>
       <use style="stroke:#000000;stroke-width:0.8;" x="47.72" xlink:href="#mb3a1cddef7" y="118.055884"/>
      </g>
     </g>
     <g id="text_8">
      <!-- 0.2 -->
      <g transform="translate(24.816875 121.855103)scale(0.1 -0.1)">
       <use xlink:href="#DejaVuSans-30"/>
       <use x="63.623047" xlink:href="#DejaVuSans-2e"/>
       <use x="95.410156" xlink:href="#DejaVuSans-32"/>
      </g>
     </g>
    </g>
    <g id="ytick_4">
     <g id="line2d_9">
      <g>
       <use style="stroke:#000000;stroke-width:0.8;" x="47.72" xlink:href="#mb3a1cddef7" y="90.063826"/>
      </g>
     </g>
     <g id="text_9">
      <!-- 0.3 -->
      <g transform="translate(24.816875 93.863045)scale(0.1 -0.1)">
       <defs>
        <path d="M 2597 2516 
Q 3050 2419 3304 2112 
Q 3559 1806 3559 1356 
Q 3559 666 3084 287 
Q 2609 -91 1734 -91 
Q 1441 -91 1130 -33 
Q 819 25 488 141 
L 488 750 
Q 750 597 1062 519 
Q 1375 441 1716 441 
Q 2309 441 2620 675 
Q 2931 909 2931 1356 
Q 2931 1769 2642 2001 
Q 2353 2234 1838 2234 
L 1294 2234 
L 1294 2753 
L 1863 2753 
Q 2328 2753 2575 2939 
Q 2822 3125 2822 3475 
Q 2822 3834 2567 4026 
Q 2313 4219 1838 4219 
Q 1578 4219 1281 4162 
Q 984 4106 628 3988 
L 628 4550 
Q 988 4650 1302 4700 
Q 1616 4750 1894 4750 
Q 2613 4750 3031 4423 
Q 3450 4097 3450 3541 
Q 3450 3153 3228 2886 
Q 3006 2619 2597 2516 
z
" id="DejaVuSans-33" transform="scale(0.015625)"/>
       </defs>
       <use xlink:href="#DejaVuSans-30"/>
       <use x="63.623047" xlink:href="#DejaVuSans-2e"/>
       <use x="95.410156" xlink:href="#DejaVuSans-33"/>
      </g>
     </g>
    </g>
    <g id="ytick_5">
     <g id="line2d_10">
      <g>
       <use style="stroke:#000000;stroke-width:0.8;" x="47.72" xlink:href="#mb3a1cddef7" y="62.071768"/>
      </g>
     </g>
     <g id="text_10">
      <!-- 0.4 -->
      <g transform="translate(24.816875 65.870987)scale(0.1 -0.1)">
       <use xlink:href="#DejaVuSans-30"/>
       <use x="63.623047" xlink:href="#DejaVuSans-2e"/>
       <use x="95.410156" xlink:href="#DejaVuSans-34"/>
      </g>
     </g>
    </g>
    <g id="text_11">
     <!-- Density -->
     <g transform="translate(18.737188 123.831529)rotate(-90)scale(0.1 -0.1)">
      <defs>
       <path d="M 1259 4147 
L 1259 519 
L 2022 519 
Q 2988 519 3436 956 
Q 3884 1394 3884 2338 
Q 3884 3275 3436 3711 
Q 2988 4147 2022 4147 
L 1259 4147 
z
M 628 4666 
L 1925 4666 
Q 3281 4666 3915 4102 
Q 4550 3538 4550 2338 
Q 4550 1131 3912 565 
Q 3275 0 1925 0 
L 628 0 
L 628 4666 
z
" id="DejaVuSans-44" transform="scale(0.015625)"/>
       <path d="M 3597 1894 
L 3597 1613 
L 953 1613 
Q 991 1019 1311 708 
Q 1631 397 2203 397 
Q 2534 397 2845 478 
Q 3156 559 3463 722 
L 3463 178 
Q 3153 47 2828 -22 
Q 2503 -91 2169 -91 
Q 1331 -91 842 396 
Q 353 884 353 1716 
Q 353 2575 817 3079 
Q 1281 3584 2069 3584 
Q 2775 3584 3186 3129 
Q 3597 2675 3597 1894 
z
M 3022 2063 
Q 3016 2534 2758 2815 
Q 2500 3097 2075 3097 
Q 1594 3097 1305 2825 
Q 1016 2553 972 2059 
L 3022 2063 
z
" id="DejaVuSans-65" transform="scale(0.015625)"/>
       <path d="M 3513 2113 
L 3513 0 
L 2938 0 
L 2938 2094 
Q 2938 2591 2744 2837 
Q 2550 3084 2163 3084 
Q 1697 3084 1428 2787 
Q 1159 2491 1159 1978 
L 1159 0 
L 581 0 
L 581 3500 
L 1159 3500 
L 1159 2956 
Q 1366 3272 1645 3428 
Q 1925 3584 2291 3584 
Q 2894 3584 3203 3211 
Q 3513 2838 3513 2113 
z
" id="DejaVuSans-6e" transform="scale(0.015625)"/>
       <path d="M 2834 3397 
L 2834 2853 
Q 2591 2978 2328 3040 
Q 2066 3103 1784 3103 
Q 1356 3103 1142 2972 
Q 928 2841 928 2578 
Q 928 2378 1081 2264 
Q 1234 2150 1697 2047 
L 1894 2003 
Q 2506 1872 2764 1633 
Q 3022 1394 3022 966 
Q 3022 478 2636 193 
Q 2250 -91 1575 -91 
Q 1294 -91 989 -36 
Q 684 19 347 128 
L 347 722 
Q 666 556 975 473 
Q 1284 391 1588 391 
Q 1994 391 2212 530 
Q 2431 669 2431 922 
Q 2431 1156 2273 1281 
Q 2116 1406 1581 1522 
L 1381 1569 
Q 847 1681 609 1914 
Q 372 2147 372 2553 
Q 372 3047 722 3315 
Q 1072 3584 1716 3584 
Q 2034 3584 2315 3537 
Q 2597 3491 2834 3397 
z
" id="DejaVuSans-73" transform="scale(0.015625)"/>
       <path d="M 603 3500 
L 1178 3500 
L 1178 0 
L 603 0 
L 603 3500 
z
M 603 4863 
L 1178 4863 
L 1178 4134 
L 603 4134 
L 603 4863 
z
" id="DejaVuSans-69" transform="scale(0.015625)"/>
       <path d="M 1172 4494 
L 1172 3500 
L 2356 3500 
L 2356 3053 
L 1172 3053 
L 1172 1153 
Q 1172 725 1289 603 
Q 1406 481 1766 481 
L 2356 481 
L 2356 0 
L 1766 0 
Q 1100 0 847 248 
Q 594 497 594 1153 
L 594 3053 
L 172 3053 
L 172 3500 
L 594 3500 
L 594 4494 
L 1172 4494 
z
" id="DejaVuSans-74" transform="scale(0.015625)"/>
       <path d="M 2059 -325 
Q 1816 -950 1584 -1140 
Q 1353 -1331 966 -1331 
L 506 -1331 
L 506 -850 
L 844 -850 
Q 1081 -850 1212 -737 
Q 1344 -625 1503 -206 
L 1606 56 
L 191 3500 
L 800 3500 
L 1894 763 
L 2988 3500 
L 3597 3500 
L 2059 -325 
z
" id="DejaVuSans-79" transform="scale(0.015625)"/>
      </defs>
      <use xlink:href="#DejaVuSans-44"/>
      <use x="77.001953" xlink:href="#DejaVuSans-65"/>
      <use x="138.525391" xlink:href="#DejaVuSans-6e"/>
      <use x="201.904297" xlink:href="#DejaVuSans-73"/>
      <use x="254.003906" xlink:href="#DejaVuSans-69"/>
      <use x="281.787109" xlink:href="#DejaVuSans-74"/>
      <use x="320.996094" xlink:href="#DejaVuSans-79"/>
     </g>
    </g>
   </g>
   <g id="line2d_11">
    <path clip-path="url(#pcf02cf5d0f)" d="M 58.475279 174.007864 
L 66.041807 173.834297 
L 70.365537 173.542076 
L 73.608335 173.148089 
L 76.851133 172.543446 
L 80.09393 171.679665 
L 83.336728 170.526884 
L 86.579526 169.082435 
L 89.822323 167.370084 
L 93.065121 165.426136 
L 96.307919 163.273739 
L 99.550716 160.894227 
L 102.793514 158.210193 
L 104.955379 156.18951 
L 107.117244 153.932629 
L 109.279109 151.397474 
L 111.440974 148.548957 
L 113.60284 145.361202 
L 115.764705 141.816416 
L 117.92657 137.901087 
L 120.088435 133.60161 
L 122.2503 128.902152 
L 124.412165 123.787328 
L 126.57403 118.250738 
L 129.816828 109.199744 
L 134.140558 96.149816 
L 138.464288 83.169082 
L 140.626154 77.283414 
L 142.788019 72.137957 
L 143.868951 69.914917 
L 144.949884 67.957744 
L 146.030816 66.28623 
L 147.111749 64.915737 
L 148.192682 63.856845 
L 149.273614 63.115162 
L 150.354547 62.691288 
L 151.435479 62.580933 
L 152.516412 62.775169 
L 153.597344 63.260809 
L 154.678277 64.020891 
L 155.759209 65.035235 
L 156.840142 66.281072 
L 159.002007 69.367114 
L 161.163872 73.070069 
L 164.40667 79.329326 
L 171.973198 94.46166 
L 176.296928 102.525313 
L 186.025321 120.365394 
L 192.510917 132.460968 
L 195.753714 137.923567 
L 197.915579 141.143748 
L 200.077444 143.964077 
L 202.23931 146.370591 
L 204.401175 148.384018 
L 206.56304 150.053145 
L 208.724905 151.445029 
L 211.967703 153.176778 
L 224.938893 159.502716 
L 231.424489 163.250685 
L 236.829152 166.296962 
L 241.152882 168.436333 
L 244.395679 169.805355 
L 247.638477 170.957678 
L 250.881275 171.89288 
L 254.124073 172.618761 
L 257.36687 173.152162 
L 261.6906 173.611103 
L 267.095263 173.895152 
L 273.580859 174.010135 
L 273.580859 174.010135 
" style="fill:none;stroke:#1f77b4;stroke-linecap:square;stroke-width:1.5;"/>
   </g>
   <g id="line2d_12">
    <path clip-path="url(#pcf02cf5d0f)" d="M 67.57537 173.950038 
L 72.252028 173.740366 
L 75.993356 173.339682 
L 78.799351 172.799763 
L 81.605346 171.960977 
L 83.47601 171.192852 
L 85.346673 170.231571 
L 87.217337 169.061779 
L 89.088001 167.677286 
L 90.958664 166.083061 
L 93.76466 163.338435 
L 96.570655 160.262963 
L 102.182646 153.638064 
L 113.406627 140.106925 
L 117.147954 135.118689 
L 120.889281 129.721576 
L 131.177931 114.456014 
L 133.983926 110.719995 
L 136.789922 107.323986 
L 139.595917 104.314348 
L 142.401912 101.714649 
L 145.207908 99.50793 
L 148.013903 97.611695 
L 154.561226 93.382357 
L 156.431889 91.928945 
L 158.302553 90.276611 
L 161.108548 87.424937 
L 167.655871 80.23514 
L 169.526534 78.609531 
L 170.461866 77.96325 
L 171.397198 77.452413 
L 172.33253 77.093666 
L 173.267861 76.901862 
L 174.203193 76.889758 
L 175.138525 77.067766 
L 176.073857 77.443783 
L 177.009188 78.02308 
L 177.94452 78.808252 
L 178.879852 79.79923 
L 179.815184 80.993339 
L 181.685847 83.967861 
L 183.556511 87.662986 
L 185.427175 91.977795 
L 188.23317 99.330667 
L 192.909829 112.690889 
L 196.651156 123.027009 
L 199.457151 129.926498 
L 201.327815 133.976145 
L 203.198478 137.550835 
L 205.069142 140.660068 
L 206.939806 143.344946 
L 208.810469 145.671756 
L 211.616465 148.673391 
L 215.357792 152.216791 
L 220.969782 157.547143 
L 228.452437 164.885222 
L 231.258432 167.292626 
L 234.064427 169.3168 
L 235.935091 170.425411 
L 237.805755 171.340386 
L 239.676418 172.073031 
L 242.482413 172.872913 
L 245.288409 173.385996 
L 249.029736 173.763841 
L 253.706395 173.958759 
L 253.706395 173.958759 
" style="fill:none;stroke:#ff7f0e;stroke-linecap:square;stroke-width:1.5;"/>
   </g>
   <g id="patch_20">
    <path d="M 47.72 174.04 
L 47.72 35.60587 
" style="fill:none;stroke:#000000;stroke-linecap:square;stroke-linejoin:miter;stroke-width:0.8;"/>
   </g>
   <g id="patch_21">
    <path d="M 284.336138 174.04 
L 284.336138 35.60587 
" style="fill:none;stroke:#000000;stroke-linecap:square;stroke-linejoin:miter;stroke-width:0.8;"/>
   </g>
   <g id="patch_22">
    <path d="M 47.72 174.04 
L 284.336138 174.04 
" style="fill:none;stroke:#000000;stroke-linecap:square;stroke-linejoin:miter;stroke-width:0.8;"/>
   </g>
   <g id="patch_23">
    <path d="M 47.72 35.60587 
L 284.336138 35.60587 
" style="fill:none;stroke:#000000;stroke-linecap:square;stroke-linejoin:miter;stroke-width:0.8;"/>
   </g>
   <g id="legend_1">
    <g id="patch_24">
     <path d="M 195.6627 72.96212 
L 277.336138 72.96212 
Q 279.336138 72.96212 279.336138 70.96212 
L 279.336138 42.60587 
Q 279.336138 40.60587 277.336138 40.60587 
L 195.6627 40.60587 
Q 193.6627 40.60587 193.6627 42.60587 
L 193.6627 70.96212 
Q 193.6627 72.96212 195.6627 72.96212 
z
" style="fill:#ffffff;opacity:0.8;stroke:#cccccc;stroke-linejoin:miter;"/>
    </g>
    <g id="line2d_13">
     <path d="M 197.6627 48.704308 
L 217.6627 48.704308 
" style="fill:none;stroke:#1f77b4;stroke-linecap:square;stroke-width:1.5;"/>
    </g>
    <g id="line2d_14"/>
    <g id="text_12">
     <!-- Truth -->
     <g transform="translate(225.6627 52.204308)scale(0.1 -0.1)">
      <defs>
       <path d="M -19 4666 
L 3928 4666 
L 3928 4134 
L 2272 4134 
L 2272 0 
L 1638 0 
L 1638 4134 
L -19 4134 
L -19 4666 
z
" id="DejaVuSans-54" transform="scale(0.015625)"/>
       <path d="M 2631 2963 
Q 2534 3019 2420 3045 
Q 2306 3072 2169 3072 
Q 1681 3072 1420 2755 
Q 1159 2438 1159 1844 
L 1159 0 
L 581 0 
L 581 3500 
L 1159 3500 
L 1159 2956 
Q 1341 3275 1631 3429 
Q 1922 3584 2338 3584 
Q 2397 3584 2469 3576 
Q 2541 3569 2628 3553 
L 2631 2963 
z
" id="DejaVuSans-72" transform="scale(0.015625)"/>
       <path d="M 544 1381 
L 544 3500 
L 1119 3500 
L 1119 1403 
Q 1119 906 1312 657 
Q 1506 409 1894 409 
Q 2359 409 2629 706 
Q 2900 1003 2900 1516 
L 2900 3500 
L 3475 3500 
L 3475 0 
L 2900 0 
L 2900 538 
Q 2691 219 2414 64 
Q 2138 -91 1772 -91 
Q 1169 -91 856 284 
Q 544 659 544 1381 
z
M 1991 3584 
L 1991 3584 
z
" id="DejaVuSans-75" transform="scale(0.015625)"/>
       <path d="M 3513 2113 
L 3513 0 
L 2938 0 
L 2938 2094 
Q 2938 2591 2744 2837 
Q 2550 3084 2163 3084 
Q 1697 3084 1428 2787 
Q 1159 2491 1159 1978 
L 1159 0 
L 581 0 
L 581 4863 
L 1159 4863 
L 1159 2956 
Q 1366 3272 1645 3428 
Q 1925 3584 2291 3584 
Q 2894 3584 3203 3211 
Q 3513 2838 3513 2113 
z
" id="DejaVuSans-68" transform="scale(0.015625)"/>
      </defs>
      <use xlink:href="#DejaVuSans-54"/>
      <use x="46.333984" xlink:href="#DejaVuSans-72"/>
      <use x="87.447266" xlink:href="#DejaVuSans-75"/>
      <use x="150.826172" xlink:href="#DejaVuSans-74"/>
      <use x="190.035156" xlink:href="#DejaVuSans-68"/>
     </g>
    </g>
    <g id="line2d_15">
     <path d="M 197.6627 63.382433 
L 217.6627 63.382433 
" style="fill:none;stroke:#ff7f0e;stroke-linecap:square;stroke-width:1.5;"/>
    </g>
    <g id="line2d_16"/>
    <g id="text_13">
     <!-- Prediction -->
     <g transform="translate(225.6627 66.882433)scale(0.1 -0.1)">
      <defs>
       <path d="M 1259 4147 
L 1259 2394 
L 2053 2394 
Q 2494 2394 2734 2622 
Q 2975 2850 2975 3272 
Q 2975 3691 2734 3919 
Q 2494 4147 2053 4147 
L 1259 4147 
z
M 628 4666 
L 2053 4666 
Q 2838 4666 3239 4311 
Q 3641 3956 3641 3272 
Q 3641 2581 3239 2228 
Q 2838 1875 2053 1875 
L 1259 1875 
L 1259 0 
L 628 0 
L 628 4666 
z
" id="DejaVuSans-50" transform="scale(0.015625)"/>
       <path d="M 2906 2969 
L 2906 4863 
L 3481 4863 
L 3481 0 
L 2906 0 
L 2906 525 
Q 2725 213 2448 61 
Q 2172 -91 1784 -91 
Q 1150 -91 751 415 
Q 353 922 353 1747 
Q 353 2572 751 3078 
Q 1150 3584 1784 3584 
Q 2172 3584 2448 3432 
Q 2725 3281 2906 2969 
z
M 947 1747 
Q 947 1113 1208 752 
Q 1469 391 1925 391 
Q 2381 391 2643 752 
Q 2906 1113 2906 1747 
Q 2906 2381 2643 2742 
Q 2381 3103 1925 3103 
Q 1469 3103 1208 2742 
Q 947 2381 947 1747 
z
" id="DejaVuSans-64" transform="scale(0.015625)"/>
       <path d="M 3122 3366 
L 3122 2828 
Q 2878 2963 2633 3030 
Q 2388 3097 2138 3097 
Q 1578 3097 1268 2742 
Q 959 2388 959 1747 
Q 959 1106 1268 751 
Q 1578 397 2138 397 
Q 2388 397 2633 464 
Q 2878 531 3122 666 
L 3122 134 
Q 2881 22 2623 -34 
Q 2366 -91 2075 -91 
Q 1284 -91 818 406 
Q 353 903 353 1747 
Q 353 2603 823 3093 
Q 1294 3584 2113 3584 
Q 2378 3584 2631 3529 
Q 2884 3475 3122 3366 
z
" id="DejaVuSans-63" transform="scale(0.015625)"/>
       <path d="M 1959 3097 
Q 1497 3097 1228 2736 
Q 959 2375 959 1747 
Q 959 1119 1226 758 
Q 1494 397 1959 397 
Q 2419 397 2687 759 
Q 2956 1122 2956 1747 
Q 2956 2369 2687 2733 
Q 2419 3097 1959 3097 
z
M 1959 3584 
Q 2709 3584 3137 3096 
Q 3566 2609 3566 1747 
Q 3566 888 3137 398 
Q 2709 -91 1959 -91 
Q 1206 -91 779 398 
Q 353 888 353 1747 
Q 353 2609 779 3096 
Q 1206 3584 1959 3584 
z
" id="DejaVuSans-6f" transform="scale(0.015625)"/>
      </defs>
      <use xlink:href="#DejaVuSans-50"/>
      <use x="58.552734" xlink:href="#DejaVuSans-72"/>
      <use x="97.416016" xlink:href="#DejaVuSans-65"/>
      <use x="158.939453" xlink:href="#DejaVuSans-64"/>
      <use x="222.416016" xlink:href="#DejaVuSans-69"/>
      <use x="250.199219" xlink:href="#DejaVuSans-63"/>
      <use x="305.179688" xlink:href="#DejaVuSans-74"/>
      <use x="344.388672" xlink:href="#DejaVuSans-69"/>
      <use x="372.171875" xlink:href="#DejaVuSans-6f"/>
      <use x="433.353516" xlink:href="#DejaVuSans-6e"/>
     </g>
    </g>
   </g>
  </g>
  <g id="axes_2">
   <g id="patch_25">
    <path d="M 330.976138 174.04 
L 567.592275 174.04 
L 567.592275 35.60587 
L 330.976138 35.60587 
z
" style="fill:#ffffff;"/>
   </g>
   <g id="PathCollection_1">
    <defs>
     <path d="M 0 3 
C 0.795609 3 1.55874 2.683901 2.12132 2.12132 
C 2.683901 1.55874 3 0.795609 3 0 
C 3 -0.795609 2.683901 -1.55874 2.12132 -2.12132 
C 1.55874 -2.683901 0.795609 -3 0 -3 
C -0.795609 -3 -1.55874 -2.683901 -2.12132 -2.12132 
C -2.683901 -1.55874 -3 -0.795609 -3 0 
C -3 0.795609 -2.683901 1.55874 -2.12132 2.12132 
C -1.55874 2.683901 -0.795609 3 0 3 
z
" id="m0c6d39c4cc" style="stroke:#1f77b4;"/>
    </defs>
    <g clip-path="url(#p64f1a81f39)">
     <use style="fill:#1f77b4;stroke:#1f77b4;" x="466.886541" xlink:href="#m0c6d39c4cc" y="154.414559"/>
     <use style="fill:#1f77b4;stroke:#1f77b4;" x="378.566903" xlink:href="#m0c6d39c4cc" y="124.0252"/>
     <use style="fill:#1f77b4;stroke:#1f77b4;" x="376.00134" xlink:href="#m0c6d39c4cc" y="130.877705"/>
     <use style="fill:#1f77b4;stroke:#1f77b4;" x="545.154972" xlink:href="#m0c6d39c4cc" y="136.224445"/>
     <use style="fill:#1f77b4;stroke:#1f77b4;" x="460.639673" xlink:href="#m0c6d39c4cc" y="67.376355"/>
     <use style="fill:#1f77b4;stroke:#1f77b4;" x="481.96233" xlink:href="#m0c6d39c4cc" y="135.934955"/>
     <use style="fill:#1f77b4;stroke:#1f77b4;" x="411.589452" xlink:href="#m0c6d39c4cc" y="123.997559"/>
     <use style="fill:#1f77b4;stroke:#1f77b4;" x="409.040115" xlink:href="#m0c6d39c4cc" y="136.585888"/>
     <use style="fill:#1f77b4;stroke:#1f77b4;" x="423.424272" xlink:href="#m0c6d39c4cc" y="122.364229"/>
     <use style="fill:#1f77b4;stroke:#1f77b4;" x="476.054255" xlink:href="#m0c6d39c4cc" y="99.659487"/>
     <use style="fill:#1f77b4;stroke:#1f77b4;" x="368.658497" xlink:href="#m0c6d39c4cc" y="158.29459"/>
     <use style="fill:#1f77b4;stroke:#1f77b4;" x="516.177945" xlink:href="#m0c6d39c4cc" y="126.543577"/>
     <use style="fill:#1f77b4;stroke:#1f77b4;" x="435.999553" xlink:href="#m0c6d39c4cc" y="91.35463"/>
     <use style="fill:#1f77b4;stroke:#1f77b4;" x="425.859594" xlink:href="#m0c6d39c4cc" y="85.071002"/>
     <use style="fill:#1f77b4;stroke:#1f77b4;" x="386.95003" xlink:href="#m0c6d39c4cc" y="99.154163"/>
     <use style="fill:#1f77b4;stroke:#1f77b4;" x="378.39229" xlink:href="#m0c6d39c4cc" y="95.036162"/>
     <use style="fill:#1f77b4;stroke:#1f77b4;" x="432.605698" xlink:href="#m0c6d39c4cc" y="128.41231"/>
     <use style="fill:#1f77b4;stroke:#1f77b4;" x="401.464625" xlink:href="#m0c6d39c4cc" y="100.264061"/>
     <use style="fill:#1f77b4;stroke:#1f77b4;" x="455.000848" xlink:href="#m0c6d39c4cc" y="114.736821"/>
     <use style="fill:#1f77b4;stroke:#1f77b4;" x="452.156226" xlink:href="#m0c6d39c4cc" y="103.701052"/>
     <use style="fill:#1f77b4;stroke:#1f77b4;" x="434.38406" xlink:href="#m0c6d39c4cc" y="114.847976"/>
     <use style="fill:#1f77b4;stroke:#1f77b4;" x="408.275663" xlink:href="#m0c6d39c4cc" y="131.380622"/>
     <use style="fill:#1f77b4;stroke:#1f77b4;" x="403.575222" xlink:href="#m0c6d39c4cc" y="159.540749"/>
     <use style="fill:#1f77b4;stroke:#1f77b4;" x="446.067445" xlink:href="#m0c6d39c4cc" y="147.417329"/>
     <use style="fill:#1f77b4;stroke:#1f77b4;" x="416.215828" xlink:href="#m0c6d39c4cc" y="115.886421"/>
     <use style="fill:#1f77b4;stroke:#1f77b4;" x="441.322532" xlink:href="#m0c6d39c4cc" y="102.734655"/>
     <use style="fill:#1f77b4;stroke:#1f77b4;" x="423.323969" xlink:href="#m0c6d39c4cc" y="90.898745"/>
     <use style="fill:#1f77b4;stroke:#1f77b4;" x="451.123738" xlink:href="#m0c6d39c4cc" y="99.248148"/>
     <use style="fill:#1f77b4;stroke:#1f77b4;" x="473.039427" xlink:href="#m0c6d39c4cc" y="100.184215"/>
     <use style="fill:#1f77b4;stroke:#1f77b4;" x="330.976138" xlink:href="#m0c6d39c4cc" y="109.833906"/>
     <use style="fill:#1f77b4;stroke:#1f77b4;" x="481.585727" xlink:href="#m0c6d39c4cc" y="84.586748"/>
     <use style="fill:#1f77b4;stroke:#1f77b4;" x="384.362151" xlink:href="#m0c6d39c4cc" y="141.610887"/>
     <use style="fill:#1f77b4;stroke:#1f77b4;" x="468.601303" xlink:href="#m0c6d39c4cc" y="115.804865"/>
     <use style="fill:#1f77b4;stroke:#1f77b4;" x="428.871976" xlink:href="#m0c6d39c4cc" y="103.481283"/>
     <use style="fill:#1f77b4;stroke:#1f77b4;" x="475.953681" xlink:href="#m0c6d39c4cc" y="92.546702"/>
     <use style="fill:#1f77b4;stroke:#1f77b4;" x="399.14844" xlink:href="#m0c6d39c4cc" y="82.353094"/>
     <use style="fill:#1f77b4;stroke:#1f77b4;" x="376.053201" xlink:href="#m0c6d39c4cc" y="112.861119"/>
     <use style="fill:#1f77b4;stroke:#1f77b4;" x="459.512697" xlink:href="#m0c6d39c4cc" y="158.528558"/>
     <use style="fill:#1f77b4;stroke:#1f77b4;" x="387.903265" xlink:href="#m0c6d39c4cc" y="105.79477"/>
     <use style="fill:#1f77b4;stroke:#1f77b4;" x="424.912136" xlink:href="#m0c6d39c4cc" y="98.816536"/>
     <use style="fill:#1f77b4;stroke:#1f77b4;" x="446.160107" xlink:href="#m0c6d39c4cc" y="65.471441"/>
     <use style="fill:#1f77b4;stroke:#1f77b4;" x="408.293229" xlink:href="#m0c6d39c4cc" y="123.428731"/>
     <use style="fill:#1f77b4;stroke:#1f77b4;" x="420.337986" xlink:href="#m0c6d39c4cc" y="56.590408"/>
     <use style="fill:#1f77b4;stroke:#1f77b4;" x="527.26013" xlink:href="#m0c6d39c4cc" y="149.45637"/>
     <use style="fill:#1f77b4;stroke:#1f77b4;" x="427.955724" xlink:href="#m0c6d39c4cc" y="93.952015"/>
     <use style="fill:#1f77b4;stroke:#1f77b4;" x="476.649409" xlink:href="#m0c6d39c4cc" y="75.908338"/>
     <use style="fill:#1f77b4;stroke:#1f77b4;" x="483.563945" xlink:href="#m0c6d39c4cc" y="142.887986"/>
     <use style="fill:#1f77b4;stroke:#1f77b4;" x="345.620231" xlink:href="#m0c6d39c4cc" y="72.816443"/>
     <use style="fill:#1f77b4;stroke:#1f77b4;" x="423.557786" xlink:href="#m0c6d39c4cc" y="165.174871"/>
     <use style="fill:#1f77b4;stroke:#1f77b4;" x="415.804496" xlink:href="#m0c6d39c4cc" y="81.788176"/>
     <use style="fill:#1f77b4;stroke:#1f77b4;" x="427.732068" xlink:href="#m0c6d39c4cc" y="146.489436"/>
     <use style="fill:#1f77b4;stroke:#1f77b4;" x="425.131012" xlink:href="#m0c6d39c4cc" y="116.307711"/>
     <use style="fill:#1f77b4;stroke:#1f77b4;" x="446.344227" xlink:href="#m0c6d39c4cc" y="106.669008"/>
     <use style="fill:#1f77b4;stroke:#1f77b4;" x="385.112088" xlink:href="#m0c6d39c4cc" y="106.82294"/>
     <use style="fill:#1f77b4;stroke:#1f77b4;" x="446.738352" xlink:href="#m0c6d39c4cc" y="57.610374"/>
     <use style="fill:#1f77b4;stroke:#1f77b4;" x="417.216959" xlink:href="#m0c6d39c4cc" y="138.571038"/>
     <use style="fill:#1f77b4;stroke:#1f77b4;" x="482.406544" xlink:href="#m0c6d39c4cc" y="84.644989"/>
     <use style="fill:#1f77b4;stroke:#1f77b4;" x="443.165004" xlink:href="#m0c6d39c4cc" y="125.89506"/>
     <use style="fill:#1f77b4;stroke:#1f77b4;" x="567.592275" xlink:href="#m0c6d39c4cc" y="54.460651"/>
     <use style="fill:#1f77b4;stroke:#1f77b4;" x="457.198607" xlink:href="#m0c6d39c4cc" y="97.122372"/>
     <use style="fill:#1f77b4;stroke:#1f77b4;" x="541.608243" xlink:href="#m0c6d39c4cc" y="94.461205"/>
     <use style="fill:#1f77b4;stroke:#1f77b4;" x="421.694336" xlink:href="#m0c6d39c4cc" y="102.145379"/>
     <use style="fill:#1f77b4;stroke:#1f77b4;" x="426.891788" xlink:href="#m0c6d39c4cc" y="87.414719"/>
     <use style="fill:#1f77b4;stroke:#1f77b4;" x="353.583192" xlink:href="#m0c6d39c4cc" y="123.925915"/>
     <use style="fill:#1f77b4;stroke:#1f77b4;" x="434.965843" xlink:href="#m0c6d39c4cc" y="100.648364"/>
     <use style="fill:#1f77b4;stroke:#1f77b4;" x="438.020629" xlink:href="#m0c6d39c4cc" y="58.514162"/>
     <use style="fill:#1f77b4;stroke:#1f77b4;" x="419.397888" xlink:href="#m0c6d39c4cc" y="99.711506"/>
     <use style="fill:#1f77b4;stroke:#1f77b4;" x="423.523842" xlink:href="#m0c6d39c4cc" y="129.516018"/>
     <use style="fill:#1f77b4;stroke:#1f77b4;" x="425.356844" xlink:href="#m0c6d39c4cc" y="94.971338"/>
     <use style="fill:#1f77b4;stroke:#1f77b4;" x="376.135019" xlink:href="#m0c6d39c4cc" y="88.779488"/>
     <use style="fill:#1f77b4;stroke:#1f77b4;" x="405.289759" xlink:href="#m0c6d39c4cc" y="83.810455"/>
     <use style="fill:#1f77b4;stroke:#1f77b4;" x="432.470173" xlink:href="#m0c6d39c4cc" y="142.100447"/>
     <use style="fill:#1f77b4;stroke:#1f77b4;" x="452.154065" xlink:href="#m0c6d39c4cc" y="120.623056"/>
     <use style="fill:#1f77b4;stroke:#1f77b4;" x="488.488277" xlink:href="#m0c6d39c4cc" y="99.810342"/>
     <use style="fill:#1f77b4;stroke:#1f77b4;" x="408.272616" xlink:href="#m0c6d39c4cc" y="88.089764"/>
     <use style="fill:#1f77b4;stroke:#1f77b4;" x="402.94809" xlink:href="#m0c6d39c4cc" y="77.274067"/>
     <use style="fill:#1f77b4;stroke:#1f77b4;" x="455.575022" xlink:href="#m0c6d39c4cc" y="112.016296"/>
     <use style="fill:#1f77b4;stroke:#1f77b4;" x="517.415493" xlink:href="#m0c6d39c4cc" y="143.332812"/>
     <use style="fill:#1f77b4;stroke:#1f77b4;" x="501.401089" xlink:href="#m0c6d39c4cc" y="56.720934"/>
     <use style="fill:#1f77b4;stroke:#1f77b4;" x="415.421275" xlink:href="#m0c6d39c4cc" y="87.382383"/>
     <use style="fill:#1f77b4;stroke:#1f77b4;" x="469.760111" xlink:href="#m0c6d39c4cc" y="75.058979"/>
     <use style="fill:#1f77b4;stroke:#1f77b4;" x="451.00368" xlink:href="#m0c6d39c4cc" y="119.854257"/>
     <use style="fill:#1f77b4;stroke:#1f77b4;" x="470.493799" xlink:href="#m0c6d39c4cc" y="79.319598"/>
     <use style="fill:#1f77b4;stroke:#1f77b4;" x="499.241506" xlink:href="#m0c6d39c4cc" y="117.912194"/>
     <use style="fill:#1f77b4;stroke:#1f77b4;" x="430.871758" xlink:href="#m0c6d39c4cc" y="87.023085"/>
     <use style="fill:#1f77b4;stroke:#1f77b4;" x="523.742841" xlink:href="#m0c6d39c4cc" y="98.359828"/>
     <use style="fill:#1f77b4;stroke:#1f77b4;" x="408.001781" xlink:href="#m0c6d39c4cc" y="120.948542"/>
     <use style="fill:#1f77b4;stroke:#1f77b4;" x="446.419935" xlink:href="#m0c6d39c4cc" y="98.245776"/>
     <use style="fill:#1f77b4;stroke:#1f77b4;" x="542.697073" xlink:href="#m0c6d39c4cc" y="131.805727"/>
     <use style="fill:#1f77b4;stroke:#1f77b4;" x="474.220865" xlink:href="#m0c6d39c4cc" y="102.260461"/>
     <use style="fill:#1f77b4;stroke:#1f77b4;" x="398.132093" xlink:href="#m0c6d39c4cc" y="88.942158"/>
     <use style="fill:#1f77b4;stroke:#1f77b4;" x="485.146427" xlink:href="#m0c6d39c4cc" y="133.818118"/>
     <use style="fill:#1f77b4;stroke:#1f77b4;" x="433.914475" xlink:href="#m0c6d39c4cc" y="164.058096"/>
     <use style="fill:#1f77b4;stroke:#1f77b4;" x="350.117924" xlink:href="#m0c6d39c4cc" y="115.480305"/>
     <use style="fill:#1f77b4;stroke:#1f77b4;" x="406.992016" xlink:href="#m0c6d39c4cc" y="89.067389"/>
     <use style="fill:#1f77b4;stroke:#1f77b4;" x="413.829851" xlink:href="#m0c6d39c4cc" y="140.028818"/>
     <use style="fill:#1f77b4;stroke:#1f77b4;" x="442.903529" xlink:href="#m0c6d39c4cc" y="123.22368"/>
     <use style="fill:#1f77b4;stroke:#1f77b4;" x="506.417082" xlink:href="#m0c6d39c4cc" y="141.431068"/>
     <use style="fill:#1f77b4;stroke:#1f77b4;" x="407.171557" xlink:href="#m0c6d39c4cc" y="87.554181"/>
     <use style="fill:#1f77b4;stroke:#1f77b4;" x="401.859885" xlink:href="#m0c6d39c4cc" y="165.322976"/>
    </g>
   </g>
   <g id="matplotlib.axis_3">
    <g id="xtick_6">
     <g id="line2d_17">
      <g>
       <use style="stroke:#000000;stroke-width:0.8;" x="349.127771" xlink:href="#md83c35afd8" y="174.04"/>
      </g>
     </g>
     <g id="text_14">
      <!-- −2 -->
      <g transform="translate(341.756678 188.638438)scale(0.1 -0.1)">
       <use xlink:href="#DejaVuSans-2212"/>
       <use x="83.789062" xlink:href="#DejaVuSans-32"/>
      </g>
     </g>
    </g>
    <g id="xtick_7">
     <g id="line2d_18">
      <g>
       <use style="stroke:#000000;stroke-width:0.8;" x="391.991511" xlink:href="#md83c35afd8" y="174.04"/>
      </g>
     </g>
     <g id="text_15">
      <!-- −1 -->
      <g transform="translate(384.620418 188.638438)scale(0.1 -0.1)">
       <use xlink:href="#DejaVuSans-2212"/>
       <use x="83.789062" xlink:href="#DejaVuSans-31"/>
      </g>
     </g>
    </g>
    <g id="xtick_8">
     <g id="line2d_19">
      <g>
       <use style="stroke:#000000;stroke-width:0.8;" x="434.855251" xlink:href="#md83c35afd8" y="174.04"/>
      </g>
     </g>
     <g id="text_16">
      <!-- 0 -->
      <g transform="translate(431.674001 188.638438)scale(0.1 -0.1)">
       <use xlink:href="#DejaVuSans-30"/>
      </g>
     </g>
    </g>
    <g id="xtick_9">
     <g id="line2d_20">
      <g>
       <use style="stroke:#000000;stroke-width:0.8;" x="477.718991" xlink:href="#md83c35afd8" y="174.04"/>
      </g>
     </g>
     <g id="text_17">
      <!-- 1 -->
      <g transform="translate(474.537741 188.638438)scale(0.1 -0.1)">
       <use xlink:href="#DejaVuSans-31"/>
      </g>
     </g>
    </g>
    <g id="xtick_10">
     <g id="line2d_21">
      <g>
       <use style="stroke:#000000;stroke-width:0.8;" x="520.582731" xlink:href="#md83c35afd8" y="174.04"/>
      </g>
     </g>
     <g id="text_18">
      <!-- 2 -->
      <g transform="translate(517.401481 188.638438)scale(0.1 -0.1)">
       <use xlink:href="#DejaVuSans-32"/>
      </g>
     </g>
    </g>
    <g id="xtick_11">
     <g id="line2d_22">
      <g>
       <use style="stroke:#000000;stroke-width:0.8;" x="563.446471" xlink:href="#md83c35afd8" y="174.04"/>
      </g>
     </g>
     <g id="text_19">
      <!-- 3 -->
      <g transform="translate(560.265221 188.638438)scale(0.1 -0.1)">
       <use xlink:href="#DejaVuSans-33"/>
      </g>
     </g>
    </g>
    <g id="text_20">
     <!-- Truth -->
     <g transform="translate(436.614675 202.316563)scale(0.1 -0.1)">
      <use xlink:href="#DejaVuSans-54"/>
      <use x="46.333984" xlink:href="#DejaVuSans-72"/>
      <use x="87.447266" xlink:href="#DejaVuSans-75"/>
      <use x="150.826172" xlink:href="#DejaVuSans-74"/>
      <use x="190.035156" xlink:href="#DejaVuSans-68"/>
     </g>
    </g>
   </g>
   <g id="matplotlib.axis_4">
    <g id="ytick_6">
     <g id="line2d_23">
      <g>
       <use style="stroke:#000000;stroke-width:0.8;" x="330.976138" xlink:href="#mb3a1cddef7" y="163.420244"/>
      </g>
     </g>
     <g id="text_21">
      <!-- −2 -->
      <g transform="translate(309.23395 167.219463)scale(0.1 -0.1)">
       <use xlink:href="#DejaVuSans-2212"/>
       <use x="83.789062" xlink:href="#DejaVuSans-32"/>
      </g>
     </g>
    </g>
    <g id="ytick_7">
     <g id="line2d_24">
      <g>
       <use style="stroke:#000000;stroke-width:0.8;" x="330.976138" xlink:href="#mb3a1cddef7" y="138.342476"/>
      </g>
     </g>
     <g id="text_22">
      <!-- −1 -->
      <g transform="translate(309.23395 142.141695)scale(0.1 -0.1)">
       <use xlink:href="#DejaVuSans-2212"/>
       <use x="83.789062" xlink:href="#DejaVuSans-31"/>
      </g>
     </g>
    </g>
    <g id="ytick_8">
     <g id="line2d_25">
      <g>
       <use style="stroke:#000000;stroke-width:0.8;" x="330.976138" xlink:href="#mb3a1cddef7" y="113.264709"/>
      </g>
     </g>
     <g id="text_23">
      <!-- 0 -->
      <g transform="translate(317.613638 117.063927)scale(0.1 -0.1)">
       <use xlink:href="#DejaVuSans-30"/>
      </g>
     </g>
    </g>
    <g id="ytick_9">
     <g id="line2d_26">
      <g>
       <use style="stroke:#000000;stroke-width:0.8;" x="330.976138" xlink:href="#mb3a1cddef7" y="88.186941"/>
      </g>
     </g>
     <g id="text_24">
      <!-- 1 -->
      <g transform="translate(317.613638 91.98616)scale(0.1 -0.1)">
       <use xlink:href="#DejaVuSans-31"/>
      </g>
     </g>
    </g>
    <g id="ytick_10">
     <g id="line2d_27">
      <g>
       <use style="stroke:#000000;stroke-width:0.8;" x="330.976138" xlink:href="#mb3a1cddef7" y="63.109173"/>
      </g>
     </g>
     <g id="text_25">
      <!-- 2 -->
      <g transform="translate(317.613638 66.908392)scale(0.1 -0.1)">
       <use xlink:href="#DejaVuSans-32"/>
      </g>
     </g>
    </g>
    <g id="ytick_11">
     <g id="line2d_28">
      <g>
       <use style="stroke:#000000;stroke-width:0.8;" x="330.976138" xlink:href="#mb3a1cddef7" y="38.031405"/>
      </g>
     </g>
     <g id="text_26">
      <!-- 3 -->
      <g transform="translate(317.613638 41.830624)scale(0.1 -0.1)">
       <use xlink:href="#DejaVuSans-33"/>
      </g>
     </g>
    </g>
    <g id="text_27">
     <!-- Prediction -->
     <g transform="translate(303.154263 129.659654)rotate(-90)scale(0.1 -0.1)">
      <use xlink:href="#DejaVuSans-50"/>
      <use x="58.552734" xlink:href="#DejaVuSans-72"/>
      <use x="97.416016" xlink:href="#DejaVuSans-65"/>
      <use x="158.939453" xlink:href="#DejaVuSans-64"/>
      <use x="222.416016" xlink:href="#DejaVuSans-69"/>
      <use x="250.199219" xlink:href="#DejaVuSans-63"/>
      <use x="305.179688" xlink:href="#DejaVuSans-74"/>
      <use x="344.388672" xlink:href="#DejaVuSans-69"/>
      <use x="372.171875" xlink:href="#DejaVuSans-6f"/>
      <use x="433.353516" xlink:href="#DejaVuSans-6e"/>
     </g>
    </g>
   </g>
   <g id="line2d_29">
    <path clip-path="url(#p64f1a81f39)" d="M 330.976138 174.04 
L 567.592275 35.60587 
" style="fill:none;stroke:#c44e52;stroke-linecap:square;stroke-width:1.5;"/>
   </g>
   <g id="patch_26">
    <path d="M 330.976138 174.04 
L 330.976138 35.60587 
" style="fill:none;stroke:#000000;stroke-linecap:square;stroke-linejoin:miter;stroke-width:0.8;"/>
   </g>
   <g id="patch_27">
    <path d="M 567.592275 174.04 
L 567.592275 35.60587 
" style="fill:none;stroke:#000000;stroke-linecap:square;stroke-linejoin:miter;stroke-width:0.8;"/>
   </g>
   <g id="patch_28">
    <path d="M 330.976138 174.04 
L 567.592275 174.04 
" style="fill:none;stroke:#000000;stroke-linecap:square;stroke-linejoin:miter;stroke-width:0.8;"/>
   </g>
   <g id="patch_29">
    <path d="M 330.976138 35.60587 
L 567.592275 35.60587 
" style="fill:none;stroke:#000000;stroke-linecap:square;stroke-linejoin:miter;stroke-width:0.8;"/>
   </g>
  </g>
  <g id="axes_3">
   <g id="patch_30">
    <path d="M 614.232275 174.04 
L 850.848413 174.04 
L 850.848413 35.60587 
L 614.232275 35.60587 
z
" style="fill:#ffffff;"/>
   </g>
   <g id="matplotlib.axis_5">
    <g id="xtick_12">
     <g id="line2d_30">
      <g>
       <use style="stroke:#000000;stroke-width:0.8;" x="624.987554" xlink:href="#md83c35afd8" y="174.04"/>
      </g>
     </g>
     <g id="text_28">
      <!-- 0 -->
      <g transform="translate(621.806304 188.638438)scale(0.1 -0.1)">
       <use xlink:href="#DejaVuSans-30"/>
      </g>
     </g>
    </g>
    <g id="xtick_13">
     <g id="line2d_31">
      <g>
       <use style="stroke:#000000;stroke-width:0.8;" x="668.443227" xlink:href="#md83c35afd8" y="174.04"/>
      </g>
     </g>
     <g id="text_29">
      <!-- 20 -->
      <g transform="translate(662.080727 188.638438)scale(0.1 -0.1)">
       <use xlink:href="#DejaVuSans-32"/>
       <use x="63.623047" xlink:href="#DejaVuSans-30"/>
      </g>
     </g>
    </g>
    <g id="xtick_14">
     <g id="line2d_32">
      <g>
       <use style="stroke:#000000;stroke-width:0.8;" x="711.898899" xlink:href="#md83c35afd8" y="174.04"/>
      </g>
     </g>
     <g id="text_30">
      <!-- 40 -->
      <g transform="translate(705.536399 188.638438)scale(0.1 -0.1)">
       <use xlink:href="#DejaVuSans-34"/>
       <use x="63.623047" xlink:href="#DejaVuSans-30"/>
      </g>
     </g>
    </g>
    <g id="xtick_15">
     <g id="line2d_33">
      <g>
       <use style="stroke:#000000;stroke-width:0.8;" x="755.354572" xlink:href="#md83c35afd8" y="174.04"/>
      </g>
     </g>
     <g id="text_31">
      <!-- 60 -->
      <g transform="translate(748.992072 188.638438)scale(0.1 -0.1)">
       <defs>
        <path d="M 2113 2584 
Q 1688 2584 1439 2293 
Q 1191 2003 1191 1497 
Q 1191 994 1439 701 
Q 1688 409 2113 409 
Q 2538 409 2786 701 
Q 3034 994 3034 1497 
Q 3034 2003 2786 2293 
Q 2538 2584 2113 2584 
z
M 3366 4563 
L 3366 3988 
Q 3128 4100 2886 4159 
Q 2644 4219 2406 4219 
Q 1781 4219 1451 3797 
Q 1122 3375 1075 2522 
Q 1259 2794 1537 2939 
Q 1816 3084 2150 3084 
Q 2853 3084 3261 2657 
Q 3669 2231 3669 1497 
Q 3669 778 3244 343 
Q 2819 -91 2113 -91 
Q 1303 -91 875 529 
Q 447 1150 447 2328 
Q 447 3434 972 4092 
Q 1497 4750 2381 4750 
Q 2619 4750 2861 4703 
Q 3103 4656 3366 4563 
z
" id="DejaVuSans-36" transform="scale(0.015625)"/>
       </defs>
       <use xlink:href="#DejaVuSans-36"/>
       <use x="63.623047" xlink:href="#DejaVuSans-30"/>
      </g>
     </g>
    </g>
    <g id="xtick_16">
     <g id="line2d_34">
      <g>
       <use style="stroke:#000000;stroke-width:0.8;" x="798.810245" xlink:href="#md83c35afd8" y="174.04"/>
      </g>
     </g>
     <g id="text_32">
      <!-- 80 -->
      <g transform="translate(792.447745 188.638438)scale(0.1 -0.1)">
       <defs>
        <path d="M 2034 2216 
Q 1584 2216 1326 1975 
Q 1069 1734 1069 1313 
Q 1069 891 1326 650 
Q 1584 409 2034 409 
Q 2484 409 2743 651 
Q 3003 894 3003 1313 
Q 3003 1734 2745 1975 
Q 2488 2216 2034 2216 
z
M 1403 2484 
Q 997 2584 770 2862 
Q 544 3141 544 3541 
Q 544 4100 942 4425 
Q 1341 4750 2034 4750 
Q 2731 4750 3128 4425 
Q 3525 4100 3525 3541 
Q 3525 3141 3298 2862 
Q 3072 2584 2669 2484 
Q 3125 2378 3379 2068 
Q 3634 1759 3634 1313 
Q 3634 634 3220 271 
Q 2806 -91 2034 -91 
Q 1263 -91 848 271 
Q 434 634 434 1313 
Q 434 1759 690 2068 
Q 947 2378 1403 2484 
z
M 1172 3481 
Q 1172 3119 1398 2916 
Q 1625 2713 2034 2713 
Q 2441 2713 2670 2916 
Q 2900 3119 2900 3481 
Q 2900 3844 2670 4047 
Q 2441 4250 2034 4250 
Q 1625 4250 1398 4047 
Q 1172 3844 1172 3481 
z
" id="DejaVuSans-38" transform="scale(0.015625)"/>
       </defs>
       <use xlink:href="#DejaVuSans-38"/>
       <use x="63.623047" xlink:href="#DejaVuSans-30"/>
      </g>
     </g>
    </g>
    <g id="xtick_17">
     <g id="line2d_35">
      <g>
       <use style="stroke:#000000;stroke-width:0.8;" x="842.265917" xlink:href="#md83c35afd8" y="174.04"/>
      </g>
     </g>
     <g id="text_33">
      <!-- 100 -->
      <g transform="translate(832.722167 188.638438)scale(0.1 -0.1)">
       <use xlink:href="#DejaVuSans-31"/>
       <use x="63.623047" xlink:href="#DejaVuSans-30"/>
       <use x="127.246094" xlink:href="#DejaVuSans-30"/>
      </g>
     </g>
    </g>
   </g>
   <g id="matplotlib.axis_6">
    <g id="ytick_12">
     <g id="line2d_36">
      <g>
       <use style="stroke:#000000;stroke-width:0.8;" x="614.232275" xlink:href="#mb3a1cddef7" y="163.420244"/>
      </g>
     </g>
     <g id="text_34">
      <!-- −2 -->
      <g transform="translate(592.490088 167.219463)scale(0.1 -0.1)">
       <use xlink:href="#DejaVuSans-2212"/>
       <use x="83.789062" xlink:href="#DejaVuSans-32"/>
      </g>
     </g>
    </g>
    <g id="ytick_13">
     <g id="line2d_37">
      <g>
       <use style="stroke:#000000;stroke-width:0.8;" x="614.232275" xlink:href="#mb3a1cddef7" y="138.342476"/>
      </g>
     </g>
     <g id="text_35">
      <!-- −1 -->
      <g transform="translate(592.490088 142.141695)scale(0.1 -0.1)">
       <use xlink:href="#DejaVuSans-2212"/>
       <use x="83.789062" xlink:href="#DejaVuSans-31"/>
      </g>
     </g>
    </g>
    <g id="ytick_14">
     <g id="line2d_38">
      <g>
       <use style="stroke:#000000;stroke-width:0.8;" x="614.232275" xlink:href="#mb3a1cddef7" y="113.264709"/>
      </g>
     </g>
     <g id="text_36">
      <!-- 0 -->
      <g transform="translate(600.869775 117.063927)scale(0.1 -0.1)">
       <use xlink:href="#DejaVuSans-30"/>
      </g>
     </g>
    </g>
    <g id="ytick_15">
     <g id="line2d_39">
      <g>
       <use style="stroke:#000000;stroke-width:0.8;" x="614.232275" xlink:href="#mb3a1cddef7" y="88.186941"/>
      </g>
     </g>
     <g id="text_37">
      <!-- 1 -->
      <g transform="translate(600.869775 91.98616)scale(0.1 -0.1)">
       <use xlink:href="#DejaVuSans-31"/>
      </g>
     </g>
    </g>
    <g id="ytick_16">
     <g id="line2d_40">
      <g>
       <use style="stroke:#000000;stroke-width:0.8;" x="614.232275" xlink:href="#mb3a1cddef7" y="63.109173"/>
      </g>
     </g>
     <g id="text_38">
      <!-- 2 -->
      <g transform="translate(600.869775 66.908392)scale(0.1 -0.1)">
       <use xlink:href="#DejaVuSans-32"/>
      </g>
     </g>
    </g>
    <g id="ytick_17">
     <g id="line2d_41">
      <g>
       <use style="stroke:#000000;stroke-width:0.8;" x="614.232275" xlink:href="#mb3a1cddef7" y="38.031405"/>
      </g>
     </g>
     <g id="text_39">
      <!-- 3 -->
      <g transform="translate(600.869775 41.830624)scale(0.1 -0.1)">
       <use xlink:href="#DejaVuSans-33"/>
      </g>
     </g>
    </g>
   </g>
   <g id="line2d_42">
    <path clip-path="url(#p1b2d080646)" d="M 624.987554 94.524551 
L 627.160338 146.196649 
L 629.333121 147.697652 
L 631.505905 48.73299 
L 633.678689 98.17933 
L 635.851472 85.704342 
L 638.024256 126.876547 
L 640.19704 128.368057 
L 642.369823 119.952493 
L 644.542607 89.160908 
L 646.71539 151.99364 
L 648.888174 65.686228 
L 651.060958 112.595226 
L 653.233741 118.527688 
L 655.406525 141.292034 
L 657.579309 146.298808 
L 659.752092 114.580827 
L 661.924876 132.800157 
L 664.09766 101.478369 
L 666.270443 103.142637 
L 668.443227 113.540383 
L 670.61601 128.815305 
L 672.788794 131.565335 
L 674.961578 106.704927 
L 677.134361 124.16985 
L 679.307145 109.480975 
L 681.479929 120.011176 
L 683.652712 103.746703 
L 685.825496 90.924757 
L 687.998279 174.04 
L 690.171063 85.924677 
L 692.343847 142.806094 
L 694.51663 93.521316 
L 696.689414 116.765271 
L 698.862198 89.21975 
L 701.034981 134.155259 
L 703.207765 147.66731 
L 705.380549 98.838677 
L 707.553332 140.734337 
L 709.726116 119.082007 
L 711.898899 106.650714 
L 714.071683 128.805029 
L 716.244467 121.758149 
L 718.41725 59.202509 
L 720.590034 117.301331 
L 722.762818 88.812708 
L 724.935601 84.767305 
L 727.108385 165.472358 
L 729.281168 119.87438 
L 731.453952 124.410502 
L 733.626736 117.432183 
L 735.799519 118.953951 
L 737.972303 106.542993 
L 740.145087 142.367337 
L 742.31787 106.312407 
L 744.490654 123.58413 
L 746.663438 85.444451 
L 748.836221 108.403023 
L 751.009005 35.60587 
L 753.181788 100.192553 
L 755.354572 50.808032 
L 757.527356 120.964605 
L 759.700139 117.923795 
L 761.872923 160.813565 
L 764.045707 113.200006 
L 766.21849 111.41278 
L 768.391274 122.30816 
L 770.564058 119.894239 
L 772.736841 118.821827 
L 774.909625 147.619442 
L 777.082408 130.562232 
L 779.255192 114.660117 
L 781.427976 103.143902 
L 783.600759 81.886286 
L 785.773543 128.817088 
L 787.946327 131.932244 
L 790.11911 101.142444 
L 792.291894 64.962191 
L 794.464677 74.331543 
L 796.637461 124.634709 
L 798.810245 92.843346 
L 800.983028 103.816944 
L 803.155812 92.414096 
L 805.328596 75.595024 
L 807.501379 115.595283 
L 809.674163 61.260326 
L 811.846947 128.975542 
L 814.01973 106.4987 
L 816.192514 50.171004 
L 818.365297 90.233547 
L 820.538081 134.749881 
L 822.710865 83.841461 
L 824.883648 113.815117 
L 827.056432 162.840947 
L 829.229216 129.566313 
L 831.401999 125.565784 
L 833.574783 108.556 
L 835.747566 71.396898 
L 837.92035 129.461272 
L 840.093134 132.568907 
" style="fill:none;stroke:#1f77b4;stroke-linecap:square;stroke-width:1.5;"/>
   </g>
   <g id="line2d_43">
    <path clip-path="url(#p1b2d080646)" d="M 624.987554 154.414559 
L 627.160338 124.0252 
L 629.333121 130.877705 
L 631.505905 136.224445 
L 633.678689 67.376355 
L 635.851472 135.934955 
L 638.024256 123.997559 
L 640.19704 136.585888 
L 642.369823 122.364229 
L 644.542607 99.659487 
L 646.71539 158.29459 
L 648.888174 126.543577 
L 651.060958 91.35463 
L 653.233741 85.071002 
L 655.406525 99.154163 
L 657.579309 95.036162 
L 659.752092 128.41231 
L 661.924876 100.264061 
L 664.09766 114.736821 
L 666.270443 103.701052 
L 668.443227 114.847976 
L 670.61601 131.380622 
L 672.788794 159.540749 
L 674.961578 147.417329 
L 677.134361 115.886421 
L 679.307145 102.734655 
L 681.479929 90.898745 
L 683.652712 99.248148 
L 685.825496 100.184215 
L 687.998279 109.833906 
L 690.171063 84.586748 
L 692.343847 141.610887 
L 694.51663 115.804865 
L 696.689414 103.481283 
L 698.862198 92.546702 
L 701.034981 82.353094 
L 703.207765 112.861119 
L 705.380549 158.528558 
L 707.553332 105.79477 
L 709.726116 98.816536 
L 711.898899 65.471441 
L 714.071683 123.428731 
L 716.244467 56.590408 
L 718.41725 149.45637 
L 720.590034 93.952015 
L 722.762818 75.908338 
L 724.935601 142.887986 
L 727.108385 72.816443 
L 729.281168 165.174871 
L 731.453952 81.788176 
L 733.626736 146.489436 
L 735.799519 116.307711 
L 737.972303 106.669008 
L 740.145087 106.82294 
L 742.31787 57.610374 
L 744.490654 138.571038 
L 746.663438 84.644989 
L 748.836221 125.89506 
L 751.009005 54.460651 
L 753.181788 97.122372 
L 755.354572 94.461205 
L 757.527356 102.145379 
L 759.700139 87.414719 
L 761.872923 123.925915 
L 764.045707 100.648364 
L 766.21849 58.514162 
L 768.391274 99.711506 
L 770.564058 129.516018 
L 772.736841 94.971338 
L 774.909625 88.779488 
L 777.082408 83.810455 
L 779.255192 142.100447 
L 781.427976 120.623056 
L 783.600759 99.810342 
L 785.773543 88.089764 
L 787.946327 77.274067 
L 790.11911 112.016296 
L 792.291894 143.332812 
L 794.464677 56.720934 
L 796.637461 87.382383 
L 798.810245 75.058979 
L 800.983028 119.854257 
L 803.155812 79.319598 
L 805.328596 117.912194 
L 807.501379 87.023085 
L 809.674163 98.359828 
L 811.846947 120.948542 
L 814.01973 98.245776 
L 816.192514 131.805727 
L 818.365297 102.260461 
L 820.538081 88.942158 
L 822.710865 133.818118 
L 824.883648 164.058096 
L 827.056432 115.480305 
L 829.229216 89.067389 
L 831.401999 140.028818 
L 833.574783 123.22368 
L 835.747566 141.431068 
L 837.92035 87.554181 
L 840.093134 165.322976 
" style="fill:none;stroke:#ff7f0e;stroke-linecap:square;stroke-width:1.5;"/>
   </g>
   <g id="patch_31">
    <path d="M 614.232275 174.04 
L 614.232275 35.60587 
" style="fill:none;stroke:#000000;stroke-linecap:square;stroke-linejoin:miter;stroke-width:0.8;"/>
   </g>
   <g id="patch_32">
    <path d="M 850.848413 174.04 
L 850.848413 35.60587 
" style="fill:none;stroke:#000000;stroke-linecap:square;stroke-linejoin:miter;stroke-width:0.8;"/>
   </g>
   <g id="patch_33">
    <path d="M 614.232275 174.04 
L 850.848413 174.04 
" style="fill:none;stroke:#000000;stroke-linecap:square;stroke-linejoin:miter;stroke-width:0.8;"/>
   </g>
   <g id="patch_34">
    <path d="M 614.232275 35.60587 
L 850.848413 35.60587 
" style="fill:none;stroke:#000000;stroke-linecap:square;stroke-linejoin:miter;stroke-width:0.8;"/>
   </g>
   <g id="legend_2">
    <g id="patch_35">
     <path d="M 621.232275 72.96212 
L 702.905713 72.96212 
Q 704.905713 72.96212 704.905713 70.96212 
L 704.905713 42.60587 
Q 704.905713 40.60587 702.905713 40.60587 
L 621.232275 40.60587 
Q 619.232275 40.60587 619.232275 42.60587 
L 619.232275 70.96212 
Q 619.232275 72.96212 621.232275 72.96212 
z
" style="fill:#ffffff;opacity:0.8;stroke:#cccccc;stroke-linejoin:miter;"/>
    </g>
    <g id="line2d_44">
     <path d="M 623.232275 48.704308 
L 643.232275 48.704308 
" style="fill:none;stroke:#1f77b4;stroke-linecap:square;stroke-width:1.5;"/>
    </g>
    <g id="line2d_45"/>
    <g id="text_40">
     <!-- Truth -->
     <g transform="translate(651.232275 52.204308)scale(0.1 -0.1)">
      <use xlink:href="#DejaVuSans-54"/>
      <use x="46.333984" xlink:href="#DejaVuSans-72"/>
      <use x="87.447266" xlink:href="#DejaVuSans-75"/>
      <use x="150.826172" xlink:href="#DejaVuSans-74"/>
      <use x="190.035156" xlink:href="#DejaVuSans-68"/>
     </g>
    </g>
    <g id="line2d_46">
     <path d="M 623.232275 63.382433 
L 643.232275 63.382433 
" style="fill:none;stroke:#ff7f0e;stroke-linecap:square;stroke-width:1.5;"/>
    </g>
    <g id="line2d_47"/>
    <g id="text_41">
     <!-- Prediction -->
     <g transform="translate(651.232275 66.882433)scale(0.1 -0.1)">
      <use xlink:href="#DejaVuSans-50"/>
      <use x="58.552734" xlink:href="#DejaVuSans-72"/>
      <use x="97.416016" xlink:href="#DejaVuSans-65"/>
      <use x="158.939453" xlink:href="#DejaVuSans-64"/>
      <use x="222.416016" xlink:href="#DejaVuSans-69"/>
      <use x="250.199219" xlink:href="#DejaVuSans-63"/>
      <use x="305.179688" xlink:href="#DejaVuSans-74"/>
      <use x="344.388672" xlink:href="#DejaVuSans-69"/>
      <use x="372.171875" xlink:href="#DejaVuSans-6f"/>
      <use x="433.353516" xlink:href="#DejaVuSans-6e"/>
     </g>
    </g>
   </g>
  </g>
  <g id="text_42">
   <!-- Multiple plots in one figure -->
   <g transform="translate(351.865313 13.438125)scale(0.12 -0.12)">
    <defs>
     <path d="M 628 4666 
L 1569 4666 
L 2759 1491 
L 3956 4666 
L 4897 4666 
L 4897 0 
L 4281 0 
L 4281 4097 
L 3078 897 
L 2444 897 
L 1241 4097 
L 1241 0 
L 628 0 
L 628 4666 
z
" id="DejaVuSans-4d" transform="scale(0.015625)"/>
     <path d="M 603 4863 
L 1178 4863 
L 1178 0 
L 603 0 
L 603 4863 
z
" id="DejaVuSans-6c" transform="scale(0.015625)"/>
     <path d="M 1159 525 
L 1159 -1331 
L 581 -1331 
L 581 3500 
L 1159 3500 
L 1159 2969 
Q 1341 3281 1617 3432 
Q 1894 3584 2278 3584 
Q 2916 3584 3314 3078 
Q 3713 2572 3713 1747 
Q 3713 922 3314 415 
Q 2916 -91 2278 -91 
Q 1894 -91 1617 61 
Q 1341 213 1159 525 
z
M 3116 1747 
Q 3116 2381 2855 2742 
Q 2594 3103 2138 3103 
Q 1681 3103 1420 2742 
Q 1159 2381 1159 1747 
Q 1159 1113 1420 752 
Q 1681 391 2138 391 
Q 2594 391 2855 752 
Q 3116 1113 3116 1747 
z
" id="DejaVuSans-70" transform="scale(0.015625)"/>
     <path id="DejaVuSans-20" transform="scale(0.015625)"/>
     <path d="M 2375 4863 
L 2375 4384 
L 1825 4384 
Q 1516 4384 1395 4259 
Q 1275 4134 1275 3809 
L 1275 3500 
L 2222 3500 
L 2222 3053 
L 1275 3053 
L 1275 0 
L 697 0 
L 697 3053 
L 147 3053 
L 147 3500 
L 697 3500 
L 697 3744 
Q 697 4328 969 4595 
Q 1241 4863 1831 4863 
L 2375 4863 
z
" id="DejaVuSans-66" transform="scale(0.015625)"/>
     <path d="M 2906 1791 
Q 2906 2416 2648 2759 
Q 2391 3103 1925 3103 
Q 1463 3103 1205 2759 
Q 947 2416 947 1791 
Q 947 1169 1205 825 
Q 1463 481 1925 481 
Q 2391 481 2648 825 
Q 2906 1169 2906 1791 
z
M 3481 434 
Q 3481 -459 3084 -895 
Q 2688 -1331 1869 -1331 
Q 1566 -1331 1297 -1286 
Q 1028 -1241 775 -1147 
L 775 -588 
Q 1028 -725 1275 -790 
Q 1522 -856 1778 -856 
Q 2344 -856 2625 -561 
Q 2906 -266 2906 331 
L 2906 616 
Q 2728 306 2450 153 
Q 2172 0 1784 0 
Q 1141 0 747 490 
Q 353 981 353 1791 
Q 353 2603 747 3093 
Q 1141 3584 1784 3584 
Q 2172 3584 2450 3431 
Q 2728 3278 2906 2969 
L 2906 3500 
L 3481 3500 
L 3481 434 
z
" id="DejaVuSans-67" transform="scale(0.015625)"/>
    </defs>
    <use xlink:href="#DejaVuSans-4d"/>
    <use x="86.279297" xlink:href="#DejaVuSans-75"/>
    <use x="149.658203" xlink:href="#DejaVuSans-6c"/>
    <use x="177.441406" xlink:href="#DejaVuSans-74"/>
    <use x="216.650391" xlink:href="#DejaVuSans-69"/>
    <use x="244.433594" xlink:href="#DejaVuSans-70"/>
    <use x="307.910156" xlink:href="#DejaVuSans-6c"/>
    <use x="335.693359" xlink:href="#DejaVuSans-65"/>
    <use x="397.216797" xlink:href="#DejaVuSans-20"/>
    <use x="429.003906" xlink:href="#DejaVuSans-70"/>
    <use x="492.480469" xlink:href="#DejaVuSans-6c"/>
    <use x="520.263672" xlink:href="#DejaVuSans-6f"/>
    <use x="581.445312" xlink:href="#DejaVuSans-74"/>
    <use x="620.654297" xlink:href="#DejaVuSans-73"/>
    <use x="672.753906" xlink:href="#DejaVuSans-20"/>
    <use x="704.541016" xlink:href="#DejaVuSans-69"/>
    <use x="732.324219" xlink:href="#DejaVuSans-6e"/>
    <use x="795.703125" xlink:href="#DejaVuSans-20"/>
    <use x="827.490234" xlink:href="#DejaVuSans-6f"/>
    <use x="888.671875" xlink:href="#DejaVuSans-6e"/>
    <use x="952.050781" xlink:href="#DejaVuSans-65"/>
    <use x="1013.574219" xlink:href="#DejaVuSans-20"/>
    <use x="1045.361328" xlink:href="#DejaVuSans-66"/>
    <use x="1080.566406" xlink:href="#DejaVuSans-69"/>
    <use x="1108.349609" xlink:href="#DejaVuSans-67"/>
    <use x="1171.826172" xlink:href="#DejaVuSans-75"/>
    <use x="1235.205078" xlink:href="#DejaVuSans-72"/>
    <use x="1274.068359" xlink:href="#DejaVuSans-65"/>
   </g>
  </g>
 </g>
 <defs>
  <clipPath id="pcf02cf5d0f">
   <rect height="138.43413" width="236.616138" x="47.72" y="35.60587"/>
  </clipPath>
  <clipPath id="p64f1a81f39">
   <rect height="138.43413" width="236.616138" x="330.976138" y="35.60587"/>
  </clipPath>
  <clipPath id="p1b2d080646">
   <rect height="138.43413" width="236.616138" x="614.232275" y="35.60587"/>
  </clipPath>
 </defs>
</svg>
