<?xml version="1.0" encoding="utf-8" standalone="no"?>
<!DOCTYPE svg PUBLIC "-//W3C//DTD SVG 1.1//EN"
  "http://www.w3.org/Graphics/SVG/1.1/DTD/svg11.dtd">
<svg height="216pt" version="1.1" viewBox="0 0 864 216" width="864pt" xmlns="http://www.w3.org/2000/svg" xmlns:xlink="http://www.w3.org/1999/xlink">
 <metadata>
  <rdf:RDF xmlns:cc="http://creativecommons.org/ns#" xmlns:dc="http://purl.org/dc/elements/1.1/" xmlns:rdf="http://www.w3.org/1999/02/22-rdf-syntax-ns#">
   <cc:Work>
    <dc:type rdf:resource="http://purl.org/dc/dcmitype/StillImage"/>
    <dc:date>2021-07-13T07:43:52.948169</dc:date>
    <dc:format>image/svg+xml</dc:format>
    <dc:creator>
     <cc:Agent>
      <dc:title>Matplotlib v3.4.2, https://matplotlib.org/</dc:title>
     </cc:Agent>
    </dc:creator>
   </cc:Work>
  </rdf:RDF>
 </metadata>
 <defs>
  <style type="text/css">*{stroke-linecap:butt;stroke-linejoin:round;}</style>
 </defs>
 <g id="figure_1">
  <g id="patch_1">
   <path d="M 0 216 
L 864 216 
L 864 0 
L 0 0 
z
" style="fill:#ffffff;"/>
  </g>
  <g id="axes_1">
   <g id="patch_2">
    <path d="M 47.72 174.04 
L 283.390706 174.04 
L 283.390706 34.56 
L 47.72 34.56 
z
" style="fill:#ffffff;"/>
   </g>
   <g id="patch_3">
    <path clip-path="url(#p2ab76f78fb)" d="M 109.905698 174.04 
L 124.416414 174.04 
L 124.416414 161.722477 
L 109.905698 161.722477 
z
" style="fill:#1f77b4;opacity:0.4;"/>
   </g>
   <g id="patch_4">
    <path clip-path="url(#p2ab76f78fb)" d="M 124.416414 174.04 
L 138.927129 174.04 
L 138.927129 118.611146 
L 124.416414 118.611146 
z
" style="fill:#1f77b4;opacity:0.4;"/>
   </g>
   <g id="patch_5">
    <path clip-path="url(#p2ab76f78fb)" d="M 138.927129 174.04 
L 153.437845 174.04 
L 153.437845 100.134861 
L 138.927129 100.134861 
z
" style="fill:#1f77b4;opacity:0.4;"/>
   </g>
   <g id="patch_6">
    <path clip-path="url(#p2ab76f78fb)" d="M 153.437845 174.04 
L 167.94856 174.04 
L 167.94856 50.864768 
L 153.437845 50.864768 
z
" style="fill:#1f77b4;opacity:0.4;"/>
   </g>
   <g id="patch_7">
    <path clip-path="url(#p2ab76f78fb)" d="M 167.94856 174.04 
L 182.459276 174.04 
L 182.459276 57.02353 
L 167.94856 57.02353 
z
" style="fill:#1f77b4;opacity:0.4;"/>
   </g>
   <g id="patch_8">
    <path clip-path="url(#p2ab76f78fb)" d="M 182.459276 174.04 
L 196.969992 174.04 
L 196.969992 63.182292 
L 182.459276 63.182292 
z
" style="fill:#1f77b4;opacity:0.4;"/>
   </g>
   <g id="patch_9">
    <path clip-path="url(#p2ab76f78fb)" d="M 196.969992 174.04 
L 211.480707 174.04 
L 211.480707 106.293623 
L 196.969992 106.293623 
z
" style="fill:#1f77b4;opacity:0.4;"/>
   </g>
   <g id="patch_10">
    <path clip-path="url(#p2ab76f78fb)" d="M 211.480707 174.04 
L 225.991423 174.04 
L 225.991423 143.246192 
L 211.480707 143.246192 
z
" style="fill:#1f77b4;opacity:0.4;"/>
   </g>
   <g id="patch_11">
    <path clip-path="url(#p2ab76f78fb)" d="M 225.991423 174.04 
L 240.502139 174.04 
L 240.502139 149.404954 
L 225.991423 149.404954 
z
" style="fill:#1f77b4;opacity:0.4;"/>
   </g>
   <g id="patch_12">
    <path clip-path="url(#p2ab76f78fb)" d="M 91.2928 174.04 
L 107.439019 174.04 
L 107.439019 168.505079 
L 91.2928 168.505079 
z
" style="fill:#ff7f0e;opacity:0.4;"/>
   </g>
   <g id="patch_13">
    <path clip-path="url(#p2ab76f78fb)" d="M 107.439019 174.04 
L 123.585237 174.04 
L 123.585237 168.505079 
L 107.439019 168.505079 
z
" style="fill:#ff7f0e;opacity:0.4;"/>
   </g>
   <g id="patch_14">
    <path clip-path="url(#p2ab76f78fb)" d="M 123.585237 174.04 
L 139.731455 174.04 
L 139.731455 113.155873 
L 123.585237 113.155873 
z
" style="fill:#ff7f0e;opacity:0.4;"/>
   </g>
   <g id="patch_15">
    <path clip-path="url(#p2ab76f78fb)" d="M 139.731455 174.04 
L 155.877674 174.04 
L 155.877674 74.411429 
L 139.731455 74.411429 
z
" style="fill:#ff7f0e;opacity:0.4;"/>
   </g>
   <g id="patch_16">
    <path clip-path="url(#p2ab76f78fb)" d="M 155.877674 174.04 
L 172.023892 174.04 
L 172.023892 41.201905 
L 155.877674 41.201905 
z
" style="fill:#ff7f0e;opacity:0.4;"/>
   </g>
   <g id="patch_17">
    <path clip-path="url(#p2ab76f78fb)" d="M 172.023892 174.04 
L 188.170111 174.04 
L 188.170111 85.48127 
L 172.023892 85.48127 
z
" style="fill:#ff7f0e;opacity:0.4;"/>
   </g>
   <g id="patch_18">
    <path clip-path="url(#p2ab76f78fb)" d="M 188.170111 174.04 
L 204.316329 174.04 
L 204.316329 74.411429 
L 188.170111 74.411429 
z
" style="fill:#ff7f0e;opacity:0.4;"/>
   </g>
   <g id="patch_19">
    <path clip-path="url(#p2ab76f78fb)" d="M 204.316329 174.04 
L 220.462548 174.04 
L 220.462548 140.830476 
L 204.316329 140.830476 
z
" style="fill:#ff7f0e;opacity:0.4;"/>
   </g>
   <g id="patch_20">
    <path clip-path="url(#p2ab76f78fb)" d="M 220.462548 174.04 
L 236.608766 174.04 
L 236.608766 146.365397 
L 220.462548 146.365397 
z
" style="fill:#ff7f0e;opacity:0.4;"/>
   </g>
   <g id="matplotlib.axis_1">
    <g id="xtick_1">
     <g id="line2d_1">
      <defs>
       <path d="M 0 0 
L 0 3.5 
" id="m750e4955da" style="stroke:#000000;stroke-width:0.8;"/>
      </defs>
      <g>
       <use style="stroke:#000000;stroke-width:0.8;" x="63.310398" xlink:href="#m750e4955da" y="174.04"/>
      </g>
     </g>
     <g id="text_1">
      <!-- −4 -->
      <g transform="translate(55.939304 188.638438)scale(0.1 -0.1)">
       <defs>
        <path d="M 678 2272 
L 4684 2272 
L 4684 1741 
L 678 1741 
L 678 2272 
z
" id="DejaVuSans-2212" transform="scale(0.015625)"/>
        <path d="M 2419 4116 
L 825 1625 
L 2419 1625 
L 2419 4116 
z
M 2253 4666 
L 3047 4666 
L 3047 1625 
L 3713 1625 
L 3713 1100 
L 3047 1100 
L 3047 0 
L 2419 0 
L 2419 1100 
L 313 1100 
L 313 1709 
L 2253 4666 
z
" id="DejaVuSans-34" transform="scale(0.015625)"/>
       </defs>
       <use xlink:href="#DejaVuSans-2212"/>
       <use x="83.789062" xlink:href="#DejaVuSans-34"/>
      </g>
     </g>
    </g>
    <g id="xtick_2">
     <g id="line2d_2">
      <g>
       <use style="stroke:#000000;stroke-width:0.8;" x="117.839292" xlink:href="#m750e4955da" y="174.04"/>
      </g>
     </g>
     <g id="text_2">
      <!-- −2 -->
      <g transform="translate(110.468198 188.638438)scale(0.1 -0.1)">
       <defs>
        <path d="M 1228 531 
L 3431 531 
L 3431 0 
L 469 0 
L 469 531 
Q 828 903 1448 1529 
Q 2069 2156 2228 2338 
Q 2531 2678 2651 2914 
Q 2772 3150 2772 3378 
Q 2772 3750 2511 3984 
Q 2250 4219 1831 4219 
Q 1534 4219 1204 4116 
Q 875 4013 500 3803 
L 500 4441 
Q 881 4594 1212 4672 
Q 1544 4750 1819 4750 
Q 2544 4750 2975 4387 
Q 3406 4025 3406 3419 
Q 3406 3131 3298 2873 
Q 3191 2616 2906 2266 
Q 2828 2175 2409 1742 
Q 1991 1309 1228 531 
z
" id="DejaVuSans-32" transform="scale(0.015625)"/>
       </defs>
       <use xlink:href="#DejaVuSans-2212"/>
       <use x="83.789062" xlink:href="#DejaVuSans-32"/>
      </g>
     </g>
    </g>
    <g id="xtick_3">
     <g id="line2d_3">
      <g>
       <use style="stroke:#000000;stroke-width:0.8;" x="172.368186" xlink:href="#m750e4955da" y="174.04"/>
      </g>
     </g>
     <g id="text_3">
      <!-- 0 -->
      <g transform="translate(169.186936 188.638438)scale(0.1 -0.1)">
       <defs>
        <path d="M 2034 4250 
Q 1547 4250 1301 3770 
Q 1056 3291 1056 2328 
Q 1056 1369 1301 889 
Q 1547 409 2034 409 
Q 2525 409 2770 889 
Q 3016 1369 3016 2328 
Q 3016 3291 2770 3770 
Q 2525 4250 2034 4250 
z
M 2034 4750 
Q 2819 4750 3233 4129 
Q 3647 3509 3647 2328 
Q 3647 1150 3233 529 
Q 2819 -91 2034 -91 
Q 1250 -91 836 529 
Q 422 1150 422 2328 
Q 422 3509 836 4129 
Q 1250 4750 2034 4750 
z
" id="DejaVuSans-30" transform="scale(0.015625)"/>
       </defs>
       <use xlink:href="#DejaVuSans-30"/>
      </g>
     </g>
    </g>
    <g id="xtick_4">
     <g id="line2d_4">
      <g>
       <use style="stroke:#000000;stroke-width:0.8;" x="226.89708" xlink:href="#m750e4955da" y="174.04"/>
      </g>
     </g>
     <g id="text_4">
      <!-- 2 -->
      <g transform="translate(223.71583 188.638438)scale(0.1 -0.1)">
       <use xlink:href="#DejaVuSans-32"/>
      </g>
     </g>
    </g>
    <g id="xtick_5">
     <g id="line2d_5">
      <g>
       <use style="stroke:#000000;stroke-width:0.8;" x="281.425974" xlink:href="#m750e4955da" y="174.04"/>
      </g>
     </g>
     <g id="text_5">
      <!-- 4 -->
      <g transform="translate(278.244724 188.638438)scale(0.1 -0.1)">
       <use xlink:href="#DejaVuSans-34"/>
      </g>
     </g>
    </g>
   </g>
   <g id="matplotlib.axis_2">
    <g id="ytick_1">
     <g id="line2d_6">
      <defs>
       <path d="M 0 0 
L -3.5 0 
" id="mbe231e9b07" style="stroke:#000000;stroke-width:0.8;"/>
      </defs>
      <g>
       <use style="stroke:#000000;stroke-width:0.8;" x="47.72" xlink:href="#mbe231e9b07" y="174.04"/>
      </g>
     </g>
     <g id="text_6">
      <!-- 0.0 -->
      <g transform="translate(24.816875 177.839219)scale(0.1 -0.1)">
       <defs>
        <path d="M 684 794 
L 1344 794 
L 1344 0 
L 684 0 
L 684 794 
z
" id="DejaVuSans-2e" transform="scale(0.015625)"/>
       </defs>
       <use xlink:href="#DejaVuSans-30"/>
       <use x="63.623047" xlink:href="#DejaVuSans-2e"/>
       <use x="95.410156" xlink:href="#DejaVuSans-30"/>
      </g>
     </g>
    </g>
    <g id="ytick_2">
     <g id="line2d_7">
      <g>
       <use style="stroke:#000000;stroke-width:0.8;" x="47.72" xlink:href="#mbe231e9b07" y="141.261768"/>
      </g>
     </g>
     <g id="text_7">
      <!-- 0.1 -->
      <g transform="translate(24.816875 145.060986)scale(0.1 -0.1)">
       <defs>
        <path d="M 794 531 
L 1825 531 
L 1825 4091 
L 703 3866 
L 703 4441 
L 1819 4666 
L 2450 4666 
L 2450 531 
L 3481 531 
L 3481 0 
L 794 0 
L 794 531 
z
" id="DejaVuSans-31" transform="scale(0.015625)"/>
       </defs>
       <use xlink:href="#DejaVuSans-30"/>
       <use x="63.623047" xlink:href="#DejaVuSans-2e"/>
       <use x="95.410156" xlink:href="#DejaVuSans-31"/>
      </g>
     </g>
    </g>
    <g id="ytick_3">
     <g id="line2d_8">
      <g>
       <use style="stroke:#000000;stroke-width:0.8;" x="47.72" xlink:href="#mbe231e9b07" y="108.483535"/>
      </g>
     </g>
     <g id="text_8">
      <!-- 0.2 -->
      <g transform="translate(24.816875 112.282754)scale(0.1 -0.1)">
       <use xlink:href="#DejaVuSans-30"/>
       <use x="63.623047" xlink:href="#DejaVuSans-2e"/>
       <use x="95.410156" xlink:href="#DejaVuSans-32"/>
      </g>
     </g>
    </g>
    <g id="ytick_4">
     <g id="line2d_9">
      <g>
       <use style="stroke:#000000;stroke-width:0.8;" x="47.72" xlink:href="#mbe231e9b07" y="75.705303"/>
      </g>
     </g>
     <g id="text_9">
      <!-- 0.3 -->
      <g transform="translate(24.816875 79.504522)scale(0.1 -0.1)">
       <defs>
        <path d="M 2597 2516 
Q 3050 2419 3304 2112 
Q 3559 1806 3559 1356 
Q 3559 666 3084 287 
Q 2609 -91 1734 -91 
Q 1441 -91 1130 -33 
Q 819 25 488 141 
L 488 750 
Q 750 597 1062 519 
Q 1375 441 1716 441 
Q 2309 441 2620 675 
Q 2931 909 2931 1356 
Q 2931 1769 2642 2001 
Q 2353 2234 1838 2234 
L 1294 2234 
L 1294 2753 
L 1863 2753 
Q 2328 2753 2575 2939 
Q 2822 3125 2822 3475 
Q 2822 3834 2567 4026 
Q 2313 4219 1838 4219 
Q 1578 4219 1281 4162 
Q 984 4106 628 3988 
L 628 4550 
Q 988 4650 1302 4700 
Q 1616 4750 1894 4750 
Q 2613 4750 3031 4423 
Q 3450 4097 3450 3541 
Q 3450 3153 3228 2886 
Q 3006 2619 2597 2516 
z
" id="DejaVuSans-33" transform="scale(0.015625)"/>
       </defs>
       <use xlink:href="#DejaVuSans-30"/>
       <use x="63.623047" xlink:href="#DejaVuSans-2e"/>
       <use x="95.410156" xlink:href="#DejaVuSans-33"/>
      </g>
     </g>
    </g>
    <g id="ytick_5">
     <g id="line2d_10">
      <g>
       <use style="stroke:#000000;stroke-width:0.8;" x="47.72" xlink:href="#mbe231e9b07" y="42.927071"/>
      </g>
     </g>
     <g id="text_10">
      <!-- 0.4 -->
      <g transform="translate(24.816875 46.72629)scale(0.1 -0.1)">
       <use xlink:href="#DejaVuSans-30"/>
       <use x="63.623047" xlink:href="#DejaVuSans-2e"/>
       <use x="95.410156" xlink:href="#DejaVuSans-34"/>
      </g>
     </g>
    </g>
    <g id="text_11">
     <!-- Density -->
     <g transform="translate(18.737188 123.308594)rotate(-90)scale(0.1 -0.1)">
      <defs>
       <path d="M 1259 4147 
L 1259 519 
L 2022 519 
Q 2988 519 3436 956 
Q 3884 1394 3884 2338 
Q 3884 3275 3436 3711 
Q 2988 4147 2022 4147 
L 1259 4147 
z
M 628 4666 
L 1925 4666 
Q 3281 4666 3915 4102 
Q 4550 3538 4550 2338 
Q 4550 1131 3912 565 
Q 3275 0 1925 0 
L 628 0 
L 628 4666 
z
" id="DejaVuSans-44" transform="scale(0.015625)"/>
       <path d="M 3597 1894 
L 3597 1613 
L 953 1613 
Q 991 1019 1311 708 
Q 1631 397 2203 397 
Q 2534 397 2845 478 
Q 3156 559 3463 722 
L 3463 178 
Q 3153 47 2828 -22 
Q 2503 -91 2169 -91 
Q 1331 -91 842 396 
Q 353 884 353 1716 
Q 353 2575 817 3079 
Q 1281 3584 2069 3584 
Q 2775 3584 3186 3129 
Q 3597 2675 3597 1894 
z
M 3022 2063 
Q 3016 2534 2758 2815 
Q 2500 3097 2075 3097 
Q 1594 3097 1305 2825 
Q 1016 2553 972 2059 
L 3022 2063 
z
" id="DejaVuSans-65" transform="scale(0.015625)"/>
       <path d="M 3513 2113 
L 3513 0 
L 2938 0 
L 2938 2094 
Q 2938 2591 2744 2837 
Q 2550 3084 2163 3084 
Q 1697 3084 1428 2787 
Q 1159 2491 1159 1978 
L 1159 0 
L 581 0 
L 581 3500 
L 1159 3500 
L 1159 2956 
Q 1366 3272 1645 3428 
Q 1925 3584 2291 3584 
Q 2894 3584 3203 3211 
Q 3513 2838 3513 2113 
z
" id="DejaVuSans-6e" transform="scale(0.015625)"/>
       <path d="M 2834 3397 
L 2834 2853 
Q 2591 2978 2328 3040 
Q 2066 3103 1784 3103 
Q 1356 3103 1142 2972 
Q 928 2841 928 2578 
Q 928 2378 1081 2264 
Q 1234 2150 1697 2047 
L 1894 2003 
Q 2506 1872 2764 1633 
Q 3022 1394 3022 966 
Q 3022 478 2636 193 
Q 2250 -91 1575 -91 
Q 1294 -91 989 -36 
Q 684 19 347 128 
L 347 722 
Q 666 556 975 473 
Q 1284 391 1588 391 
Q 1994 391 2212 530 
Q 2431 669 2431 922 
Q 2431 1156 2273 1281 
Q 2116 1406 1581 1522 
L 1381 1569 
Q 847 1681 609 1914 
Q 372 2147 372 2553 
Q 372 3047 722 3315 
Q 1072 3584 1716 3584 
Q 2034 3584 2315 3537 
Q 2597 3491 2834 3397 
z
" id="DejaVuSans-73" transform="scale(0.015625)"/>
       <path d="M 603 3500 
L 1178 3500 
L 1178 0 
L 603 0 
L 603 3500 
z
M 603 4863 
L 1178 4863 
L 1178 4134 
L 603 4134 
L 603 4863 
z
" id="DejaVuSans-69" transform="scale(0.015625)"/>
       <path d="M 1172 4494 
L 1172 3500 
L 2356 3500 
L 2356 3053 
L 1172 3053 
L 1172 1153 
Q 1172 725 1289 603 
Q 1406 481 1766 481 
L 2356 481 
L 2356 0 
L 1766 0 
Q 1100 0 847 248 
Q 594 497 594 1153 
L 594 3053 
L 172 3053 
L 172 3500 
L 594 3500 
L 594 4494 
L 1172 4494 
z
" id="DejaVuSans-74" transform="scale(0.015625)"/>
       <path d="M 2059 -325 
Q 1816 -950 1584 -1140 
Q 1353 -1331 966 -1331 
L 506 -1331 
L 506 -850 
L 844 -850 
Q 1081 -850 1212 -737 
Q 1344 -625 1503 -206 
L 1606 56 
L 191 3500 
L 800 3500 
L 1894 763 
L 2988 3500 
L 3597 3500 
L 2059 -325 
z
" id="DejaVuSans-79" transform="scale(0.015625)"/>
      </defs>
      <use xlink:href="#DejaVuSans-44"/>
      <use x="77.001953" xlink:href="#DejaVuSans-65"/>
      <use x="138.525391" xlink:href="#DejaVuSans-6e"/>
      <use x="201.904297" xlink:href="#DejaVuSans-73"/>
      <use x="254.003906" xlink:href="#DejaVuSans-69"/>
      <use x="281.787109" xlink:href="#DejaVuSans-74"/>
      <use x="320.996094" xlink:href="#DejaVuSans-79"/>
     </g>
    </g>
   </g>
   <g id="line2d_11">
    <path clip-path="url(#p2ab76f78fb)" d="M 77.729435 174.001416 
L 84.586937 173.818079 
L 88.505509 173.531657 
L 92.424081 173.005677 
L 95.36301 172.402202 
L 98.301939 171.591085 
L 101.240868 170.557952 
L 104.179798 169.287162 
L 107.118727 167.737814 
L 109.078013 166.506089 
L 111.037299 165.063566 
L 112.996585 163.34924 
L 114.955871 161.291028 
L 116.915157 158.813246 
L 118.874443 155.847433 
L 120.833729 152.345207 
L 122.793015 148.291047 
L 124.752302 143.712392 
L 127.691231 136.038141 
L 136.508018 111.826652 
L 138.467304 107.137212 
L 140.42659 102.847057 
L 143.365519 97.041166 
L 152.182307 80.501361 
L 159.039808 66.81731 
L 160.999094 63.489449 
L 162.95838 60.7143 
L 164.917666 58.581974 
L 165.897309 57.765501 
L 166.876952 57.111101 
L 167.856595 56.610522 
L 168.836239 56.252367 
L 170.795525 55.907352 
L 172.754811 55.957102 
L 174.714097 56.292778 
L 176.673383 56.840815 
L 178.632669 57.577165 
L 180.591955 58.528503 
L 182.551241 59.761715 
L 184.510527 61.365579 
L 186.469813 63.429724 
L 188.429099 66.025702 
L 190.388385 69.193574 
L 192.347672 72.935566 
L 194.306958 77.216517 
L 196.266244 81.969541 
L 199.205173 89.7836 
L 204.103388 103.751878 
L 209.001603 117.518547 
L 211.940532 125.118849 
L 214.879462 131.948681 
L 216.838748 135.994808 
L 218.798034 139.602806 
L 220.75732 142.766974 
L 222.716606 145.504168 
L 224.675892 147.854407 
L 226.635178 149.87863 
L 229.574107 152.473093 
L 234.472322 156.293327 
L 239.370538 160.245714 
L 247.207682 166.779552 
L 250.146611 168.861134 
L 252.105897 170.038145 
L 254.065183 171.029843 
L 256.024469 171.837261 
L 257.983756 172.472634 
L 260.922685 173.148178 
L 263.861614 173.564576 
L 267.780186 173.854641 
L 272.678401 173.991766 
L 272.678401 173.991766 
" style="fill:none;stroke:#1f77b4;stroke-linecap:square;stroke-width:1.5;"/>
   </g>
   <g id="line2d_12">
    <path clip-path="url(#p2ab76f78fb)" d="M 58.432305 174.003835 
L 65.855715 173.820327 
L 70.097664 173.538586 
L 74.339613 173.053659 
L 79.642049 172.170575 
L 87.06546 170.861745 
L 91.307409 170.367243 
L 98.730819 169.700897 
L 100.851794 169.32182 
L 102.972768 168.731358 
L 105.093742 167.855287 
L 107.214717 166.623819 
L 109.335691 164.975213 
L 111.456666 162.858639 
L 113.57764 160.236811 
L 115.698615 157.088772 
L 117.819589 153.412774 
L 119.940564 149.228619 
L 122.061538 144.578431 
L 125.243 136.870632 
L 128.424461 128.52648 
L 134.787385 111.005896 
L 142.210795 90.671834 
L 146.452744 79.587832 
L 149.634206 71.880184 
L 151.75518 67.218339 
L 153.876155 63.079802 
L 155.997129 59.588119 
L 157.057616 58.120151 
L 158.118103 56.853299 
L 159.178591 55.796839 
L 160.239078 54.957463 
L 161.299565 54.338929 
L 162.360052 53.941771 
L 163.42054 53.763092 
L 164.481027 53.796458 
L 165.541514 54.031897 
L 166.602001 54.456026 
L 167.662488 55.052314 
L 169.783463 56.682058 
L 171.904437 58.744549 
L 176.146386 63.431946 
L 180.388335 67.973594 
L 185.690771 73.366255 
L 187.811746 75.846599 
L 189.93272 78.794159 
L 192.053694 82.37148 
L 194.174669 86.673429 
L 196.295643 91.702756 
L 198.416618 97.363191 
L 201.598079 106.618683 
L 205.840028 119.060038 
L 207.961003 124.7676 
L 210.081977 129.889517 
L 212.202952 134.334483 
L 214.323926 138.088736 
L 216.444901 141.205935 
L 218.565875 143.789124 
L 220.686849 145.969089 
L 223.868311 148.78066 
L 231.291722 155.004202 
L 236.594158 159.902673 
L 241.896594 164.762335 
L 245.078055 167.330463 
L 247.19903 168.809406 
L 249.320004 170.074701 
L 251.440979 171.120284 
L 253.561953 171.954204 
L 255.682928 172.595732 
L 258.864389 173.25658 
L 262.045851 173.645584 
L 266.2878 173.899805 
L 269.469262 173.981103 
L 269.469262 173.981103 
" style="fill:none;stroke:#ff7f0e;stroke-linecap:square;stroke-width:1.5;"/>
   </g>
   <g id="patch_21">
    <path d="M 47.72 174.04 
L 47.72 34.56 
" style="fill:none;stroke:#000000;stroke-linecap:square;stroke-linejoin:miter;stroke-width:0.8;"/>
   </g>
   <g id="patch_22">
    <path d="M 283.390706 174.04 
L 283.390706 34.56 
" style="fill:none;stroke:#000000;stroke-linecap:square;stroke-linejoin:miter;stroke-width:0.8;"/>
   </g>
   <g id="patch_23">
    <path d="M 47.72 174.04 
L 283.390706 174.04 
" style="fill:none;stroke:#000000;stroke-linecap:square;stroke-linejoin:miter;stroke-width:0.8;"/>
   </g>
   <g id="patch_24">
    <path d="M 47.72 34.56 
L 283.390706 34.56 
" style="fill:none;stroke:#000000;stroke-linecap:square;stroke-linejoin:miter;stroke-width:0.8;"/>
   </g>
   <g id="legend_1">
    <g id="patch_25">
     <path d="M 54.72 71.91625 
L 136.393438 71.91625 
Q 138.393438 71.91625 138.393438 69.91625 
L 138.393438 41.56 
Q 138.393438 39.56 136.393438 39.56 
L 54.72 39.56 
Q 52.72 39.56 52.72 41.56 
L 52.72 69.91625 
Q 52.72 71.91625 54.72 71.91625 
z
" style="fill:#ffffff;opacity:0.8;stroke:#cccccc;stroke-linejoin:miter;"/>
    </g>
    <g id="line2d_13">
     <path d="M 56.72 47.658438 
L 76.72 47.658438 
" style="fill:none;stroke:#1f77b4;stroke-linecap:square;stroke-width:1.5;"/>
    </g>
    <g id="line2d_14"/>
    <g id="text_12">
     <!-- Truth -->
     <g transform="translate(84.72 51.158438)scale(0.1 -0.1)">
      <defs>
       <path d="M -19 4666 
L 3928 4666 
L 3928 4134 
L 2272 4134 
L 2272 0 
L 1638 0 
L 1638 4134 
L -19 4134 
L -19 4666 
z
" id="DejaVuSans-54" transform="scale(0.015625)"/>
       <path d="M 2631 2963 
Q 2534 3019 2420 3045 
Q 2306 3072 2169 3072 
Q 1681 3072 1420 2755 
Q 1159 2438 1159 1844 
L 1159 0 
L 581 0 
L 581 3500 
L 1159 3500 
L 1159 2956 
Q 1341 3275 1631 3429 
Q 1922 3584 2338 3584 
Q 2397 3584 2469 3576 
Q 2541 3569 2628 3553 
L 2631 2963 
z
" id="DejaVuSans-72" transform="scale(0.015625)"/>
       <path d="M 544 1381 
L 544 3500 
L 1119 3500 
L 1119 1403 
Q 1119 906 1312 657 
Q 1506 409 1894 409 
Q 2359 409 2629 706 
Q 2900 1003 2900 1516 
L 2900 3500 
L 3475 3500 
L 3475 0 
L 2900 0 
L 2900 538 
Q 2691 219 2414 64 
Q 2138 -91 1772 -91 
Q 1169 -91 856 284 
Q 544 659 544 1381 
z
M 1991 3584 
L 1991 3584 
z
" id="DejaVuSans-75" transform="scale(0.015625)"/>
       <path d="M 3513 2113 
L 3513 0 
L 2938 0 
L 2938 2094 
Q 2938 2591 2744 2837 
Q 2550 3084 2163 3084 
Q 1697 3084 1428 2787 
Q 1159 2491 1159 1978 
L 1159 0 
L 581 0 
L 581 4863 
L 1159 4863 
L 1159 2956 
Q 1366 3272 1645 3428 
Q 1925 3584 2291 3584 
Q 2894 3584 3203 3211 
Q 3513 2838 3513 2113 
z
" id="DejaVuSans-68" transform="scale(0.015625)"/>
      </defs>
      <use xlink:href="#DejaVuSans-54"/>
      <use x="46.333984" xlink:href="#DejaVuSans-72"/>
      <use x="87.447266" xlink:href="#DejaVuSans-75"/>
      <use x="150.826172" xlink:href="#DejaVuSans-74"/>
      <use x="190.035156" xlink:href="#DejaVuSans-68"/>
     </g>
    </g>
    <g id="line2d_15">
     <path d="M 56.72 62.336563 
L 76.72 62.336563 
" style="fill:none;stroke:#ff7f0e;stroke-linecap:square;stroke-width:1.5;"/>
    </g>
    <g id="line2d_16"/>
    <g id="text_13">
     <!-- Prediction -->
     <g transform="translate(84.72 65.836563)scale(0.1 -0.1)">
      <defs>
       <path d="M 1259 4147 
L 1259 2394 
L 2053 2394 
Q 2494 2394 2734 2622 
Q 2975 2850 2975 3272 
Q 2975 3691 2734 3919 
Q 2494 4147 2053 4147 
L 1259 4147 
z
M 628 4666 
L 2053 4666 
Q 2838 4666 3239 4311 
Q 3641 3956 3641 3272 
Q 3641 2581 3239 2228 
Q 2838 1875 2053 1875 
L 1259 1875 
L 1259 0 
L 628 0 
L 628 4666 
z
" id="DejaVuSans-50" transform="scale(0.015625)"/>
       <path d="M 2906 2969 
L 2906 4863 
L 3481 4863 
L 3481 0 
L 2906 0 
L 2906 525 
Q 2725 213 2448 61 
Q 2172 -91 1784 -91 
Q 1150 -91 751 415 
Q 353 922 353 1747 
Q 353 2572 751 3078 
Q 1150 3584 1784 3584 
Q 2172 3584 2448 3432 
Q 2725 3281 2906 2969 
z
M 947 1747 
Q 947 1113 1208 752 
Q 1469 391 1925 391 
Q 2381 391 2643 752 
Q 2906 1113 2906 1747 
Q 2906 2381 2643 2742 
Q 2381 3103 1925 3103 
Q 1469 3103 1208 2742 
Q 947 2381 947 1747 
z
" id="DejaVuSans-64" transform="scale(0.015625)"/>
       <path d="M 3122 3366 
L 3122 2828 
Q 2878 2963 2633 3030 
Q 2388 3097 2138 3097 
Q 1578 3097 1268 2742 
Q 959 2388 959 1747 
Q 959 1106 1268 751 
Q 1578 397 2138 397 
Q 2388 397 2633 464 
Q 2878 531 3122 666 
L 3122 134 
Q 2881 22 2623 -34 
Q 2366 -91 2075 -91 
Q 1284 -91 818 406 
Q 353 903 353 1747 
Q 353 2603 823 3093 
Q 1294 3584 2113 3584 
Q 2378 3584 2631 3529 
Q 2884 3475 3122 3366 
z
" id="DejaVuSans-63" transform="scale(0.015625)"/>
       <path d="M 1959 3097 
Q 1497 3097 1228 2736 
Q 959 2375 959 1747 
Q 959 1119 1226 758 
Q 1494 397 1959 397 
Q 2419 397 2687 759 
Q 2956 1122 2956 1747 
Q 2956 2369 2687 2733 
Q 2419 3097 1959 3097 
z
M 1959 3584 
Q 2709 3584 3137 3096 
Q 3566 2609 3566 1747 
Q 3566 888 3137 398 
Q 2709 -91 1959 -91 
Q 1206 -91 779 398 
Q 353 888 353 1747 
Q 353 2609 779 3096 
Q 1206 3584 1959 3584 
z
" id="DejaVuSans-6f" transform="scale(0.015625)"/>
      </defs>
      <use xlink:href="#DejaVuSans-50"/>
      <use x="58.552734" xlink:href="#DejaVuSans-72"/>
      <use x="97.416016" xlink:href="#DejaVuSans-65"/>
      <use x="158.939453" xlink:href="#DejaVuSans-64"/>
      <use x="222.416016" xlink:href="#DejaVuSans-69"/>
      <use x="250.199219" xlink:href="#DejaVuSans-63"/>
      <use x="305.179688" xlink:href="#DejaVuSans-74"/>
      <use x="344.388672" xlink:href="#DejaVuSans-69"/>
      <use x="372.171875" xlink:href="#DejaVuSans-6f"/>
      <use x="433.353516" xlink:href="#DejaVuSans-6e"/>
     </g>
    </g>
   </g>
  </g>
  <g id="axes_2">
   <g id="patch_26">
    <path d="M 331.448853 174.04 
L 567.119559 174.04 
L 567.119559 34.56 
L 331.448853 34.56 
z
" style="fill:#ffffff;"/>
   </g>
   <g id="PathCollection_1">
    <defs>
     <path d="M 0 3 
C 0.795609 3 1.55874 2.683901 2.12132 2.12132 
C 2.683901 1.55874 3 0.795609 3 0 
C 3 -0.795609 2.683901 -1.55874 2.12132 -2.12132 
C 1.55874 -2.683901 0.795609 -3 0 -3 
C -0.795609 -3 -1.55874 -2.683901 -2.12132 -2.12132 
C -2.683901 -1.55874 -3 -0.795609 -3 0 
C -3 0.795609 -2.683901 1.55874 -2.12132 2.12132 
C -1.55874 2.683901 -0.795609 3 0 3 
z
" id="mbce08ea60b" style="stroke:#1f77b4;"/>
    </defs>
    <g clip-path="url(#pa53a9145ce)">
     <use style="fill:#1f77b4;stroke:#1f77b4;" x="510.141811" xlink:href="#mbce08ea60b" y="128.379665"/>
     <use style="fill:#1f77b4;stroke:#1f77b4;" x="462.201012" xlink:href="#mbce08ea60b" y="111.26447"/>
     <use style="fill:#1f77b4;stroke:#1f77b4;" x="490.217721" xlink:href="#mbce08ea60b" y="124.060233"/>
     <use style="fill:#1f77b4;stroke:#1f77b4;" x="448.895491" xlink:href="#mbce08ea60b" y="112.842809"/>
     <use style="fill:#1f77b4;stroke:#1f77b4;" x="476.081683" xlink:href="#mbce08ea60b" y="79.117059"/>
     <use style="fill:#1f77b4;stroke:#1f77b4;" x="449.645719" xlink:href="#mbce08ea60b" y="96.727866"/>
     <use style="fill:#1f77b4;stroke:#1f77b4;" x="413.319954" xlink:href="#mbce08ea60b" y="93.751136"/>
     <use style="fill:#1f77b4;stroke:#1f77b4;" x="443.51105" xlink:href="#mbce08ea60b" y="124.904654"/>
     <use style="fill:#1f77b4;stroke:#1f77b4;" x="433.213801" xlink:href="#mbce08ea60b" y="119.265855"/>
     <use style="fill:#1f77b4;stroke:#1f77b4;" x="467.352139" xlink:href="#mbce08ea60b" y="111.565059"/>
     <use style="fill:#1f77b4;stroke:#1f77b4;" x="457.381231" xlink:href="#mbce08ea60b" y="93.408733"/>
     <use style="fill:#1f77b4;stroke:#1f77b4;" x="456.334971" xlink:href="#mbce08ea60b" y="100.218972"/>
     <use style="fill:#1f77b4;stroke:#1f77b4;" x="440.089433" xlink:href="#mbce08ea60b" y="94.277944"/>
     <use style="fill:#1f77b4;stroke:#1f77b4;" x="457.314997" xlink:href="#mbce08ea60b" y="126.747987"/>
     <use style="fill:#1f77b4;stroke:#1f77b4;" x="426.127912" xlink:href="#mbce08ea60b" y="120.401529"/>
     <use style="fill:#1f77b4;stroke:#1f77b4;" x="409.356786" xlink:href="#mbce08ea60b" y="111.761919"/>
     <use style="fill:#1f77b4;stroke:#1f77b4;" x="466.195511" xlink:href="#mbce08ea60b" y="85.387382"/>
     <use style="fill:#1f77b4;stroke:#1f77b4;" x="447.52969" xlink:href="#mbce08ea60b" y="103.901564"/>
     <use style="fill:#1f77b4;stroke:#1f77b4;" x="431.493354" xlink:href="#mbce08ea60b" y="115.364273"/>
     <use style="fill:#1f77b4;stroke:#1f77b4;" x="481.721419" xlink:href="#mbce08ea60b" y="112.476379"/>
     <use style="fill:#1f77b4;stroke:#1f77b4;" x="390.43421" xlink:href="#mbce08ea60b" y="124.142332"/>
     <use style="fill:#1f77b4;stroke:#1f77b4;" x="450.990064" xlink:href="#mbce08ea60b" y="114.205238"/>
     <use style="fill:#1f77b4;stroke:#1f77b4;" x="417.57714" xlink:href="#mbce08ea60b" y="92.192184"/>
     <use style="fill:#1f77b4;stroke:#1f77b4;" x="503.701092" xlink:href="#mbce08ea60b" y="116.266575"/>
     <use style="fill:#1f77b4;stroke:#1f77b4;" x="432.866863" xlink:href="#mbce08ea60b" y="94.547779"/>
     <use style="fill:#1f77b4;stroke:#1f77b4;" x="408.373372" xlink:href="#mbce08ea60b" y="110.091287"/>
     <use style="fill:#1f77b4;stroke:#1f77b4;" x="454.905923" xlink:href="#mbce08ea60b" y="118.521979"/>
     <use style="fill:#1f77b4;stroke:#1f77b4;" x="438.578224" xlink:href="#mbce08ea60b" y="118.478713"/>
     <use style="fill:#1f77b4;stroke:#1f77b4;" x="419.541731" xlink:href="#mbce08ea60b" y="122.904959"/>
     <use style="fill:#1f77b4;stroke:#1f77b4;" x="412.746212" xlink:href="#mbce08ea60b" y="130.768619"/>
     <use style="fill:#1f77b4;stroke:#1f77b4;" x="451.249666" xlink:href="#mbce08ea60b" y="102.476278"/>
     <use style="fill:#1f77b4;stroke:#1f77b4;" x="404.88325" xlink:href="#mbce08ea60b" y="127.750796"/>
     <use style="fill:#1f77b4;stroke:#1f77b4;" x="400.21288" xlink:href="#mbce08ea60b" y="109.323436"/>
     <use style="fill:#1f77b4;stroke:#1f77b4;" x="478.032651" xlink:href="#mbce08ea60b" y="106.891767"/>
     <use style="fill:#1f77b4;stroke:#1f77b4;" x="448.354544" xlink:href="#mbce08ea60b" y="115.944219"/>
     <use style="fill:#1f77b4;stroke:#1f77b4;" x="430.746364" xlink:href="#mbce08ea60b" y="106.699539"/>
     <use style="fill:#1f77b4;stroke:#1f77b4;" x="433.6167" xlink:href="#mbce08ea60b" y="101.043449"/>
     <use style="fill:#1f77b4;stroke:#1f77b4;" x="432.528547" xlink:href="#mbce08ea60b" y="95.918293"/>
     <use style="fill:#1f77b4;stroke:#1f77b4;" x="491.380672" xlink:href="#mbce08ea60b" y="103.295749"/>
     <use style="fill:#1f77b4;stroke:#1f77b4;" x="421.293905" xlink:href="#mbce08ea60b" y="96.419709"/>
     <use style="fill:#1f77b4;stroke:#1f77b4;" x="410.224899" xlink:href="#mbce08ea60b" y="119.860451"/>
     <use style="fill:#1f77b4;stroke:#1f77b4;" x="416.638804" xlink:href="#mbce08ea60b" y="106.631898"/>
     <use style="fill:#1f77b4;stroke:#1f77b4;" x="438.891258" xlink:href="#mbce08ea60b" y="111.591054"/>
     <use style="fill:#1f77b4;stroke:#1f77b4;" x="401.471424" xlink:href="#mbce08ea60b" y="80.710541"/>
     <use style="fill:#1f77b4;stroke:#1f77b4;" x="445.20969" xlink:href="#mbce08ea60b" y="97.514414"/>
     <use style="fill:#1f77b4;stroke:#1f77b4;" x="380.778174" xlink:href="#mbce08ea60b" y="97.241457"/>
     <use style="fill:#1f77b4;stroke:#1f77b4;" x="456.993824" xlink:href="#mbce08ea60b" y="122.140008"/>
     <use style="fill:#1f77b4;stroke:#1f77b4;" x="407.738549" xlink:href="#mbce08ea60b" y="132.628915"/>
     <use style="fill:#1f77b4;stroke:#1f77b4;" x="419.652161" xlink:href="#mbce08ea60b" y="87.876617"/>
     <use style="fill:#1f77b4;stroke:#1f77b4;" x="500.527852" xlink:href="#mbce08ea60b" y="97.702174"/>
     <use style="fill:#1f77b4;stroke:#1f77b4;" x="417.543672" xlink:href="#mbce08ea60b" y="136.310506"/>
     <use style="fill:#1f77b4;stroke:#1f77b4;" x="431.232215" xlink:href="#mbce08ea60b" y="98.799905"/>
     <use style="fill:#1f77b4;stroke:#1f77b4;" x="443.73927" xlink:href="#mbce08ea60b" y="136.252696"/>
     <use style="fill:#1f77b4;stroke:#1f77b4;" x="428.214631" xlink:href="#mbce08ea60b" y="117.220153"/>
     <use style="fill:#1f77b4;stroke:#1f77b4;" x="429.395515" xlink:href="#mbce08ea60b" y="116.500974"/>
     <use style="fill:#1f77b4;stroke:#1f77b4;" x="483.84555" xlink:href="#mbce08ea60b" y="112.446633"/>
     <use style="fill:#1f77b4;stroke:#1f77b4;" x="503.485398" xlink:href="#mbce08ea60b" y="70.56438"/>
     <use style="fill:#1f77b4;stroke:#1f77b4;" x="477.12936" xlink:href="#mbce08ea60b" y="120.373839"/>
     <use style="fill:#1f77b4;stroke:#1f77b4;" x="436.895053" xlink:href="#mbce08ea60b" y="114.769217"/>
     <use style="fill:#1f77b4;stroke:#1f77b4;" x="411.758904" xlink:href="#mbce08ea60b" y="155.75672"/>
     <use style="fill:#1f77b4;stroke:#1f77b4;" x="434.794165" xlink:href="#mbce08ea60b" y="92.141304"/>
     <use style="fill:#1f77b4;stroke:#1f77b4;" x="448.328494" xlink:href="#mbce08ea60b" y="95.102063"/>
     <use style="fill:#1f77b4;stroke:#1f77b4;" x="477.684556" xlink:href="#mbce08ea60b" y="129.935671"/>
     <use style="fill:#1f77b4;stroke:#1f77b4;" x="418.195761" xlink:href="#mbce08ea60b" y="88.924376"/>
     <use style="fill:#1f77b4;stroke:#1f77b4;" x="483.69172" xlink:href="#mbce08ea60b" y="106.529464"/>
     <use style="fill:#1f77b4;stroke:#1f77b4;" x="469.728255" xlink:href="#mbce08ea60b" y="119.794267"/>
     <use style="fill:#1f77b4;stroke:#1f77b4;" x="414.563053" xlink:href="#mbce08ea60b" y="100.497954"/>
     <use style="fill:#1f77b4;stroke:#1f77b4;" x="439.16357" xlink:href="#mbce08ea60b" y="109.043341"/>
     <use style="fill:#1f77b4;stroke:#1f77b4;" x="406.085898" xlink:href="#mbce08ea60b" y="129.697681"/>
     <use style="fill:#1f77b4;stroke:#1f77b4;" x="471.558367" xlink:href="#mbce08ea60b" y="127.291127"/>
     <use style="fill:#1f77b4;stroke:#1f77b4;" x="465.734051" xlink:href="#mbce08ea60b" y="110.12392"/>
     <use style="fill:#1f77b4;stroke:#1f77b4;" x="455.834627" xlink:href="#mbce08ea60b" y="141.984383"/>
     <use style="fill:#1f77b4;stroke:#1f77b4;" x="461.690596" xlink:href="#mbce08ea60b" y="103.934836"/>
     <use style="fill:#1f77b4;stroke:#1f77b4;" x="434.600744" xlink:href="#mbce08ea60b" y="122.91042"/>
     <use style="fill:#1f77b4;stroke:#1f77b4;" x="448.952142" xlink:href="#mbce08ea60b" y="113.444969"/>
     <use style="fill:#1f77b4;stroke:#1f77b4;" x="467.71719" xlink:href="#mbce08ea60b" y="101.025049"/>
     <use style="fill:#1f77b4;stroke:#1f77b4;" x="464.18472" xlink:href="#mbce08ea60b" y="71.861776"/>
     <use style="fill:#1f77b4;stroke:#1f77b4;" x="457.018771" xlink:href="#mbce08ea60b" y="114.706608"/>
     <use style="fill:#1f77b4;stroke:#1f77b4;" x="432.566527" xlink:href="#mbce08ea60b" y="105.817098"/>
     <use style="fill:#1f77b4;stroke:#1f77b4;" x="463.847787" xlink:href="#mbce08ea60b" y="120.519453"/>
     <use style="fill:#1f77b4;stroke:#1f77b4;" x="463.62562" xlink:href="#mbce08ea60b" y="103.573984"/>
     <use style="fill:#1f77b4;stroke:#1f77b4;" x="433.077678" xlink:href="#mbce08ea60b" y="76.029504"/>
     <use style="fill:#1f77b4;stroke:#1f77b4;" x="431.188147" xlink:href="#mbce08ea60b" y="120.411859"/>
     <use style="fill:#1f77b4;stroke:#1f77b4;" x="458.297842" xlink:href="#mbce08ea60b" y="96.121957"/>
     <use style="fill:#1f77b4;stroke:#1f77b4;" x="469.226747" xlink:href="#mbce08ea60b" y="98.397195"/>
     <use style="fill:#1f77b4;stroke:#1f77b4;" x="454.204059" xlink:href="#mbce08ea60b" y="131.431706"/>
     <use style="fill:#1f77b4;stroke:#1f77b4;" x="404.014881" xlink:href="#mbce08ea60b" y="81.913777"/>
     <use style="fill:#1f77b4;stroke:#1f77b4;" x="426.920919" xlink:href="#mbce08ea60b" y="130.893757"/>
     <use style="fill:#1f77b4;stroke:#1f77b4;" x="437.421669" xlink:href="#mbce08ea60b" y="107.152635"/>
     <use style="fill:#1f77b4;stroke:#1f77b4;" x="457.524164" xlink:href="#mbce08ea60b" y="77.051311"/>
     <use style="fill:#1f77b4;stroke:#1f77b4;" x="433.390843" xlink:href="#mbce08ea60b" y="111.827643"/>
     <use style="fill:#1f77b4;stroke:#1f77b4;" x="469.316241" xlink:href="#mbce08ea60b" y="107.208108"/>
     <use style="fill:#1f77b4;stroke:#1f77b4;" x="449.990394" xlink:href="#mbce08ea60b" y="124.071243"/>
     <use style="fill:#1f77b4;stroke:#1f77b4;" x="439.89027" xlink:href="#mbce08ea60b" y="88.066998"/>
     <use style="fill:#1f77b4;stroke:#1f77b4;" x="407.915462" xlink:href="#mbce08ea60b" y="134.062087"/>
     <use style="fill:#1f77b4;stroke:#1f77b4;" x="458.813273" xlink:href="#mbce08ea60b" y="117.687167"/>
     <use style="fill:#1f77b4;stroke:#1f77b4;" x="473.660423" xlink:href="#mbce08ea60b" y="93.504787"/>
     <use style="fill:#1f77b4;stroke:#1f77b4;" x="451.850777" xlink:href="#mbce08ea60b" y="96.614111"/>
     <use style="fill:#1f77b4;stroke:#1f77b4;" x="441.650529" xlink:href="#mbce08ea60b" y="109.651654"/>
     <use style="fill:#1f77b4;stroke:#1f77b4;" x="431.922708" xlink:href="#mbce08ea60b" y="114.492501"/>
    </g>
   </g>
   <g id="matplotlib.axis_3">
    <g id="xtick_6">
     <g id="line2d_17">
      <g>
       <use style="stroke:#000000;stroke-width:0.8;" x="334.622725" xlink:href="#m750e4955da" y="174.04"/>
      </g>
     </g>
     <g id="text_14">
      <!-- −4 -->
      <g transform="translate(327.251631 188.638438)scale(0.1 -0.1)">
       <use xlink:href="#DejaVuSans-2212"/>
       <use x="83.789062" xlink:href="#DejaVuSans-34"/>
      </g>
     </g>
    </g>
    <g id="xtick_7">
     <g id="line2d_18">
      <g>
       <use style="stroke:#000000;stroke-width:0.8;" x="388.636877" xlink:href="#m750e4955da" y="174.04"/>
      </g>
     </g>
     <g id="text_15">
      <!-- −2 -->
      <g transform="translate(381.265783 188.638438)scale(0.1 -0.1)">
       <use xlink:href="#DejaVuSans-2212"/>
       <use x="83.789062" xlink:href="#DejaVuSans-32"/>
      </g>
     </g>
    </g>
    <g id="xtick_8">
     <g id="line2d_19">
      <g>
       <use style="stroke:#000000;stroke-width:0.8;" x="442.651029" xlink:href="#m750e4955da" y="174.04"/>
      </g>
     </g>
     <g id="text_16">
      <!-- 0 -->
      <g transform="translate(439.469779 188.638438)scale(0.1 -0.1)">
       <use xlink:href="#DejaVuSans-30"/>
      </g>
     </g>
    </g>
    <g id="xtick_9">
     <g id="line2d_20">
      <g>
       <use style="stroke:#000000;stroke-width:0.8;" x="496.665181" xlink:href="#m750e4955da" y="174.04"/>
      </g>
     </g>
     <g id="text_17">
      <!-- 2 -->
      <g transform="translate(493.483931 188.638438)scale(0.1 -0.1)">
       <use xlink:href="#DejaVuSans-32"/>
      </g>
     </g>
    </g>
    <g id="xtick_10">
     <g id="line2d_21">
      <g>
       <use style="stroke:#000000;stroke-width:0.8;" x="550.679334" xlink:href="#m750e4955da" y="174.04"/>
      </g>
     </g>
     <g id="text_18">
      <!-- 4 -->
      <g transform="translate(547.498084 188.638438)scale(0.1 -0.1)">
       <use xlink:href="#DejaVuSans-34"/>
      </g>
     </g>
    </g>
    <g id="text_19">
     <!-- Truth -->
     <g transform="translate(436.614675 202.316563)scale(0.1 -0.1)">
      <use xlink:href="#DejaVuSans-54"/>
      <use x="46.333984" xlink:href="#DejaVuSans-72"/>
      <use x="87.447266" xlink:href="#DejaVuSans-75"/>
      <use x="150.826172" xlink:href="#DejaVuSans-74"/>
      <use x="190.035156" xlink:href="#DejaVuSans-68"/>
     </g>
    </g>
   </g>
   <g id="matplotlib.axis_4">
    <g id="ytick_6">
     <g id="line2d_22">
      <g>
       <use style="stroke:#000000;stroke-width:0.8;" x="331.448853" xlink:href="#mbe231e9b07" y="172.161567"/>
      </g>
     </g>
     <g id="text_20">
      <!-- −4 -->
      <g transform="translate(309.706666 175.960786)scale(0.1 -0.1)">
       <use xlink:href="#DejaVuSans-2212"/>
       <use x="83.789062" xlink:href="#DejaVuSans-34"/>
      </g>
     </g>
    </g>
    <g id="ytick_7">
     <g id="line2d_23">
      <g>
       <use style="stroke:#000000;stroke-width:0.8;" x="331.448853" xlink:href="#mbe231e9b07" y="140.193683"/>
      </g>
     </g>
     <g id="text_21">
      <!-- −2 -->
      <g transform="translate(309.706666 143.992901)scale(0.1 -0.1)">
       <use xlink:href="#DejaVuSans-2212"/>
       <use x="83.789062" xlink:href="#DejaVuSans-32"/>
      </g>
     </g>
    </g>
    <g id="ytick_8">
     <g id="line2d_24">
      <g>
       <use style="stroke:#000000;stroke-width:0.8;" x="331.448853" xlink:href="#mbe231e9b07" y="108.225798"/>
      </g>
     </g>
     <g id="text_22">
      <!-- 0 -->
      <g transform="translate(318.086353 112.025017)scale(0.1 -0.1)">
       <use xlink:href="#DejaVuSans-30"/>
      </g>
     </g>
    </g>
    <g id="ytick_9">
     <g id="line2d_25">
      <g>
       <use style="stroke:#000000;stroke-width:0.8;" x="331.448853" xlink:href="#mbe231e9b07" y="76.257913"/>
      </g>
     </g>
     <g id="text_23">
      <!-- 2 -->
      <g transform="translate(318.086353 80.057132)scale(0.1 -0.1)">
       <use xlink:href="#DejaVuSans-32"/>
      </g>
     </g>
    </g>
    <g id="ytick_10">
     <g id="line2d_26">
      <g>
       <use style="stroke:#000000;stroke-width:0.8;" x="331.448853" xlink:href="#mbe231e9b07" y="44.290029"/>
      </g>
     </g>
     <g id="text_24">
      <!-- 4 -->
      <g transform="translate(318.086353 48.089247)scale(0.1 -0.1)">
       <use xlink:href="#DejaVuSans-34"/>
      </g>
     </g>
    </g>
    <g id="text_25">
     <!-- Prediction -->
     <g transform="translate(303.626978 129.136719)rotate(-90)scale(0.1 -0.1)">
      <use xlink:href="#DejaVuSans-50"/>
      <use x="58.552734" xlink:href="#DejaVuSans-72"/>
      <use x="97.416016" xlink:href="#DejaVuSans-65"/>
      <use x="158.939453" xlink:href="#DejaVuSans-64"/>
      <use x="222.416016" xlink:href="#DejaVuSans-69"/>
      <use x="250.199219" xlink:href="#DejaVuSans-63"/>
      <use x="305.179688" xlink:href="#DejaVuSans-74"/>
      <use x="344.388672" xlink:href="#DejaVuSans-69"/>
      <use x="372.171875" xlink:href="#DejaVuSans-6f"/>
      <use x="433.353516" xlink:href="#DejaVuSans-6e"/>
     </g>
    </g>
   </g>
   <g id="line2d_27">
    <path clip-path="url(#pa53a9145ce)" d="M 331.448853 174.04 
L 567.119559 34.56 
" style="fill:none;stroke:#c44e52;stroke-linecap:square;stroke-width:1.5;"/>
   </g>
   <g id="patch_27">
    <path d="M 331.448853 174.04 
L 331.448853 34.56 
" style="fill:none;stroke:#000000;stroke-linecap:square;stroke-linejoin:miter;stroke-width:0.8;"/>
   </g>
   <g id="patch_28">
    <path d="M 567.119559 174.04 
L 567.119559 34.56 
" style="fill:none;stroke:#000000;stroke-linecap:square;stroke-linejoin:miter;stroke-width:0.8;"/>
   </g>
   <g id="patch_29">
    <path d="M 331.448853 174.04 
L 567.119559 174.04 
" style="fill:none;stroke:#000000;stroke-linecap:square;stroke-linejoin:miter;stroke-width:0.8;"/>
   </g>
   <g id="patch_30">
    <path d="M 331.448853 34.56 
L 567.119559 34.56 
" style="fill:none;stroke:#000000;stroke-linecap:square;stroke-linejoin:miter;stroke-width:0.8;"/>
   </g>
  </g>
  <g id="axes_3">
   <g id="patch_31">
    <path d="M 615.177707 174.04 
L 850.848413 174.04 
L 850.848413 34.56 
L 615.177707 34.56 
z
" style="fill:#ffffff;"/>
   </g>
   <g id="matplotlib.axis_5">
    <g id="xtick_11">
     <g id="line2d_28">
      <g>
       <use style="stroke:#000000;stroke-width:0.8;" x="625.890012" xlink:href="#m750e4955da" y="174.04"/>
      </g>
     </g>
     <g id="text_26">
      <!-- 0 -->
      <g transform="translate(622.708762 188.638438)scale(0.1 -0.1)">
       <use xlink:href="#DejaVuSans-30"/>
      </g>
     </g>
    </g>
    <g id="xtick_12">
     <g id="line2d_29">
      <g>
       <use style="stroke:#000000;stroke-width:0.8;" x="669.172051" xlink:href="#m750e4955da" y="174.04"/>
      </g>
     </g>
     <g id="text_27">
      <!-- 20 -->
      <g transform="translate(662.809551 188.638438)scale(0.1 -0.1)">
       <use xlink:href="#DejaVuSans-32"/>
       <use x="63.623047" xlink:href="#DejaVuSans-30"/>
      </g>
     </g>
    </g>
    <g id="xtick_13">
     <g id="line2d_30">
      <g>
       <use style="stroke:#000000;stroke-width:0.8;" x="712.454091" xlink:href="#m750e4955da" y="174.04"/>
      </g>
     </g>
     <g id="text_28">
      <!-- 40 -->
      <g transform="translate(706.091591 188.638438)scale(0.1 -0.1)">
       <use xlink:href="#DejaVuSans-34"/>
       <use x="63.623047" xlink:href="#DejaVuSans-30"/>
      </g>
     </g>
    </g>
    <g id="xtick_14">
     <g id="line2d_31">
      <g>
       <use style="stroke:#000000;stroke-width:0.8;" x="755.736131" xlink:href="#m750e4955da" y="174.04"/>
      </g>
     </g>
     <g id="text_29">
      <!-- 60 -->
      <g transform="translate(749.373631 188.638438)scale(0.1 -0.1)">
       <defs>
        <path d="M 2113 2584 
Q 1688 2584 1439 2293 
Q 1191 2003 1191 1497 
Q 1191 994 1439 701 
Q 1688 409 2113 409 
Q 2538 409 2786 701 
Q 3034 994 3034 1497 
Q 3034 2003 2786 2293 
Q 2538 2584 2113 2584 
z
M 3366 4563 
L 3366 3988 
Q 3128 4100 2886 4159 
Q 2644 4219 2406 4219 
Q 1781 4219 1451 3797 
Q 1122 3375 1075 2522 
Q 1259 2794 1537 2939 
Q 1816 3084 2150 3084 
Q 2853 3084 3261 2657 
Q 3669 2231 3669 1497 
Q 3669 778 3244 343 
Q 2819 -91 2113 -91 
Q 1303 -91 875 529 
Q 447 1150 447 2328 
Q 447 3434 972 4092 
Q 1497 4750 2381 4750 
Q 2619 4750 2861 4703 
Q 3103 4656 3366 4563 
z
" id="DejaVuSans-36" transform="scale(0.015625)"/>
       </defs>
       <use xlink:href="#DejaVuSans-36"/>
       <use x="63.623047" xlink:href="#DejaVuSans-30"/>
      </g>
     </g>
    </g>
    <g id="xtick_15">
     <g id="line2d_32">
      <g>
       <use style="stroke:#000000;stroke-width:0.8;" x="799.01817" xlink:href="#m750e4955da" y="174.04"/>
      </g>
     </g>
     <g id="text_30">
      <!-- 80 -->
      <g transform="translate(792.65567 188.638438)scale(0.1 -0.1)">
       <defs>
        <path d="M 2034 2216 
Q 1584 2216 1326 1975 
Q 1069 1734 1069 1313 
Q 1069 891 1326 650 
Q 1584 409 2034 409 
Q 2484 409 2743 651 
Q 3003 894 3003 1313 
Q 3003 1734 2745 1975 
Q 2488 2216 2034 2216 
z
M 1403 2484 
Q 997 2584 770 2862 
Q 544 3141 544 3541 
Q 544 4100 942 4425 
Q 1341 4750 2034 4750 
Q 2731 4750 3128 4425 
Q 3525 4100 3525 3541 
Q 3525 3141 3298 2862 
Q 3072 2584 2669 2484 
Q 3125 2378 3379 2068 
Q 3634 1759 3634 1313 
Q 3634 634 3220 271 
Q 2806 -91 2034 -91 
Q 1263 -91 848 271 
Q 434 634 434 1313 
Q 434 1759 690 2068 
Q 947 2378 1403 2484 
z
M 1172 3481 
Q 1172 3119 1398 2916 
Q 1625 2713 2034 2713 
Q 2441 2713 2670 2916 
Q 2900 3119 2900 3481 
Q 2900 3844 2670 4047 
Q 2441 4250 2034 4250 
Q 1625 4250 1398 4047 
Q 1172 3844 1172 3481 
z
" id="DejaVuSans-38" transform="scale(0.015625)"/>
       </defs>
       <use xlink:href="#DejaVuSans-38"/>
       <use x="63.623047" xlink:href="#DejaVuSans-30"/>
      </g>
     </g>
    </g>
    <g id="xtick_16">
     <g id="line2d_33">
      <g>
       <use style="stroke:#000000;stroke-width:0.8;" x="842.30021" xlink:href="#m750e4955da" y="174.04"/>
      </g>
     </g>
     <g id="text_31">
      <!-- 100 -->
      <g transform="translate(832.75646 188.638438)scale(0.1 -0.1)">
       <use xlink:href="#DejaVuSans-31"/>
       <use x="63.623047" xlink:href="#DejaVuSans-30"/>
       <use x="127.246094" xlink:href="#DejaVuSans-30"/>
      </g>
     </g>
    </g>
   </g>
   <g id="matplotlib.axis_6">
    <g id="ytick_11">
     <g id="line2d_34">
      <g>
       <use style="stroke:#000000;stroke-width:0.8;" x="615.177707" xlink:href="#mbe231e9b07" y="172.161567"/>
      </g>
     </g>
     <g id="text_32">
      <!-- −4 -->
      <g transform="translate(593.435519 175.960786)scale(0.1 -0.1)">
       <use xlink:href="#DejaVuSans-2212"/>
       <use x="83.789062" xlink:href="#DejaVuSans-34"/>
      </g>
     </g>
    </g>
    <g id="ytick_12">
     <g id="line2d_35">
      <g>
       <use style="stroke:#000000;stroke-width:0.8;" x="615.177707" xlink:href="#mbe231e9b07" y="140.193683"/>
      </g>
     </g>
     <g id="text_33">
      <!-- −2 -->
      <g transform="translate(593.435519 143.992901)scale(0.1 -0.1)">
       <use xlink:href="#DejaVuSans-2212"/>
       <use x="83.789062" xlink:href="#DejaVuSans-32"/>
      </g>
     </g>
    </g>
    <g id="ytick_13">
     <g id="line2d_36">
      <g>
       <use style="stroke:#000000;stroke-width:0.8;" x="615.177707" xlink:href="#mbe231e9b07" y="108.225798"/>
      </g>
     </g>
     <g id="text_34">
      <!-- 0 -->
      <g transform="translate(601.815207 112.025017)scale(0.1 -0.1)">
       <use xlink:href="#DejaVuSans-30"/>
      </g>
     </g>
    </g>
    <g id="ytick_14">
     <g id="line2d_37">
      <g>
       <use style="stroke:#000000;stroke-width:0.8;" x="615.177707" xlink:href="#mbe231e9b07" y="76.257913"/>
      </g>
     </g>
     <g id="text_35">
      <!-- 2 -->
      <g transform="translate(601.815207 80.057132)scale(0.1 -0.1)">
       <use xlink:href="#DejaVuSans-32"/>
      </g>
     </g>
    </g>
    <g id="ytick_15">
     <g id="line2d_38">
      <g>
       <use style="stroke:#000000;stroke-width:0.8;" x="615.177707" xlink:href="#mbe231e9b07" y="44.290029"/>
      </g>
     </g>
     <g id="text_36">
      <!-- 4 -->
      <g transform="translate(601.815207 48.089247)scale(0.1 -0.1)">
       <use xlink:href="#DejaVuSans-34"/>
      </g>
     </g>
    </g>
   </g>
   <g id="line2d_39">
    <path clip-path="url(#pbea5caf5b0)" d="M 625.890012 68.281868 
L 628.054114 96.655282 
L 630.218215 80.073796 
L 632.382317 104.530058 
L 634.546419 88.440107 
L 636.710521 104.086041 
L 638.874623 125.585182 
L 641.038725 107.716801 
L 643.202827 113.811153 
L 645.366929 93.606625 
L 647.531031 99.507835 
L 649.695133 100.127056 
L 651.859235 109.74186 
L 654.023337 99.547035 
L 656.187439 118.004885 
L 658.351541 127.930755 
L 660.515643 94.291167 
L 662.679745 105.338398 
L 664.843847 114.829387 
L 667.007949 85.10227 
L 669.172051 139.129944 
L 671.336153 103.2904 
L 673.500255 123.065597 
L 675.664357 72.09376 
L 677.828459 114.016486 
L 679.992561 128.512781 
L 682.156663 100.972828 
L 684.320765 110.636258 
L 686.484867 121.902868 
L 688.648969 125.924748 
L 690.813071 103.136757 
L 692.977173 130.578385 
L 695.141275 133.342509 
L 697.305377 87.285441 
L 699.469479 104.850214 
L 701.633581 115.271488 
L 703.797683 113.5727 
L 705.961785 114.216716 
L 708.125887 79.385512 
L 710.289989 120.865857 
L 712.454091 127.416968 
L 714.618193 123.620945 
L 716.782295 110.450991 
L 718.946397 132.597649 
L 721.110499 106.711473 
L 723.274601 144.844799 
L 725.438703 99.737118 
L 727.602805 128.888496 
L 729.766907 121.837511 
L 731.931009 73.97182 
L 734.095111 123.085405 
L 736.259213 114.98394 
L 738.423315 107.581731 
L 740.587417 116.769876 
L 742.751519 116.070978 
L 744.915621 83.845119 
L 747.079723 72.221418 
L 749.243825 87.820048 
L 751.407927 111.632431 
L 753.572029 126.509078 
L 755.736131 112.875826 
L 757.900233 104.865631 
L 760.064335 87.491459 
L 762.228437 122.699471 
L 764.392538 83.936162 
L 766.55664 92.200338 
L 768.720742 124.849463 
L 770.884844 110.289825 
L 773.048946 129.866606 
L 775.213048 91.1172 
L 777.37715 94.564279 
L 779.541252 100.423181 
L 781.705354 96.957368 
L 783.869456 112.990301 
L 786.033558 104.49653 
L 788.19766 93.390572 
L 790.361762 95.481239 
L 792.525864 99.722354 
L 794.689966 114.194238 
L 796.854068 95.68065 
L 799.01817 95.812138 
L 801.182272 113.891716 
L 803.346374 115.010022 
L 805.510476 98.965345 
L 807.674578 92.497152 
L 809.83868 101.388221 
L 812.002782 131.092322 
L 814.166884 117.53555 
L 816.330986 111.320757 
L 818.495088 99.423241 
L 820.65919 113.706372 
L 822.823292 92.444185 
L 824.987394 103.882048 
L 827.151496 109.859733 
L 829.315598 128.783792 
L 831.4797 98.660291 
L 833.643802 89.873113 
L 835.807904 102.780994 
L 837.972006 108.817937 
L 840.136108 114.575277 
" style="fill:none;stroke:#1f77b4;stroke-linecap:square;stroke-width:1.5;"/>
   </g>
   <g id="line2d_40">
    <path clip-path="url(#pbea5caf5b0)" d="M 625.890012 128.379665 
L 628.054114 111.26447 
L 630.218215 124.060233 
L 632.382317 112.842809 
L 634.546419 79.117059 
L 636.710521 96.727866 
L 638.874623 93.751136 
L 641.038725 124.904654 
L 643.202827 119.265855 
L 645.366929 111.565059 
L 647.531031 93.408733 
L 649.695133 100.218972 
L 651.859235 94.277944 
L 654.023337 126.747987 
L 656.187439 120.401529 
L 658.351541 111.761919 
L 660.515643 85.387382 
L 662.679745 103.901564 
L 664.843847 115.364273 
L 667.007949 112.476379 
L 669.172051 124.142332 
L 671.336153 114.205238 
L 673.500255 92.192184 
L 675.664357 116.266575 
L 677.828459 94.547779 
L 679.992561 110.091287 
L 682.156663 118.521979 
L 684.320765 118.478713 
L 686.484867 122.904959 
L 688.648969 130.768619 
L 690.813071 102.476278 
L 692.977173 127.750796 
L 695.141275 109.323436 
L 697.305377 106.891767 
L 699.469479 115.944219 
L 701.633581 106.699539 
L 703.797683 101.043449 
L 705.961785 95.918293 
L 708.125887 103.295749 
L 710.289989 96.419709 
L 712.454091 119.860451 
L 714.618193 106.631898 
L 716.782295 111.591054 
L 718.946397 80.710541 
L 721.110499 97.514414 
L 723.274601 97.241457 
L 725.438703 122.140008 
L 727.602805 132.628915 
L 729.766907 87.876617 
L 731.931009 97.702174 
L 734.095111 136.310506 
L 736.259213 98.799905 
L 738.423315 136.252696 
L 740.587417 117.220153 
L 742.751519 116.500974 
L 744.915621 112.446633 
L 747.079723 70.56438 
L 749.243825 120.373839 
L 751.407927 114.769217 
L 753.572029 155.75672 
L 755.736131 92.141304 
L 757.900233 95.102063 
L 760.064335 129.935671 
L 762.228437 88.924376 
L 764.392538 106.529464 
L 766.55664 119.794267 
L 768.720742 100.497954 
L 770.884844 109.043341 
L 773.048946 129.697681 
L 775.213048 127.291127 
L 777.37715 110.12392 
L 779.541252 141.984383 
L 781.705354 103.934836 
L 783.869456 122.91042 
L 786.033558 113.444969 
L 788.19766 101.025049 
L 790.361762 71.861776 
L 792.525864 114.706608 
L 794.689966 105.817098 
L 796.854068 120.519453 
L 799.01817 103.573984 
L 801.182272 76.029504 
L 803.346374 120.411859 
L 805.510476 96.121957 
L 807.674578 98.397195 
L 809.83868 131.431706 
L 812.002782 81.913777 
L 814.166884 130.893757 
L 816.330986 107.152635 
L 818.495088 77.051311 
L 820.65919 111.827643 
L 822.823292 107.208108 
L 824.987394 124.071243 
L 827.151496 88.066998 
L 829.315598 134.062087 
L 831.4797 117.687167 
L 833.643802 93.504787 
L 835.807904 96.614111 
L 837.972006 109.651654 
L 840.136108 114.492501 
" style="fill:none;stroke:#ff7f0e;stroke-linecap:square;stroke-width:1.5;"/>
   </g>
   <g id="patch_32">
    <path d="M 615.177707 174.04 
L 615.177707 34.56 
" style="fill:none;stroke:#000000;stroke-linecap:square;stroke-linejoin:miter;stroke-width:0.8;"/>
   </g>
   <g id="patch_33">
    <path d="M 850.848413 174.04 
L 850.848413 34.56 
" style="fill:none;stroke:#000000;stroke-linecap:square;stroke-linejoin:miter;stroke-width:0.8;"/>
   </g>
   <g id="patch_34">
    <path d="M 615.177707 174.04 
L 850.848413 174.04 
" style="fill:none;stroke:#000000;stroke-linecap:square;stroke-linejoin:miter;stroke-width:0.8;"/>
   </g>
   <g id="patch_35">
    <path d="M 615.177707 34.56 
L 850.848413 34.56 
" style="fill:none;stroke:#000000;stroke-linecap:square;stroke-linejoin:miter;stroke-width:0.8;"/>
   </g>
   <g id="legend_2">
    <g id="patch_36">
     <path d="M 762.174975 71.91625 
L 843.848413 71.91625 
Q 845.848413 71.91625 845.848413 69.91625 
L 845.848413 41.56 
Q 845.848413 39.56 843.848413 39.56 
L 762.174975 39.56 
Q 760.174975 39.56 760.174975 41.56 
L 760.174975 69.91625 
Q 760.174975 71.91625 762.174975 71.91625 
z
" style="fill:#ffffff;opacity:0.8;stroke:#cccccc;stroke-linejoin:miter;"/>
    </g>
    <g id="line2d_41">
     <path d="M 764.174975 47.658438 
L 784.174975 47.658438 
" style="fill:none;stroke:#1f77b4;stroke-linecap:square;stroke-width:1.5;"/>
    </g>
    <g id="line2d_42"/>
    <g id="text_37">
     <!-- Truth -->
     <g transform="translate(792.174975 51.158438)scale(0.1 -0.1)">
      <use xlink:href="#DejaVuSans-54"/>
      <use x="46.333984" xlink:href="#DejaVuSans-72"/>
      <use x="87.447266" xlink:href="#DejaVuSans-75"/>
      <use x="150.826172" xlink:href="#DejaVuSans-74"/>
      <use x="190.035156" xlink:href="#DejaVuSans-68"/>
     </g>
    </g>
    <g id="line2d_43">
     <path d="M 764.174975 62.336563 
L 784.174975 62.336563 
" style="fill:none;stroke:#ff7f0e;stroke-linecap:square;stroke-width:1.5;"/>
    </g>
    <g id="line2d_44"/>
    <g id="text_38">
     <!-- Prediction -->
     <g transform="translate(792.174975 65.836563)scale(0.1 -0.1)">
      <use xlink:href="#DejaVuSans-50"/>
      <use x="58.552734" xlink:href="#DejaVuSans-72"/>
      <use x="97.416016" xlink:href="#DejaVuSans-65"/>
      <use x="158.939453" xlink:href="#DejaVuSans-64"/>
      <use x="222.416016" xlink:href="#DejaVuSans-69"/>
      <use x="250.199219" xlink:href="#DejaVuSans-63"/>
      <use x="305.179688" xlink:href="#DejaVuSans-74"/>
      <use x="344.388672" xlink:href="#DejaVuSans-69"/>
      <use x="372.171875" xlink:href="#DejaVuSans-6f"/>
      <use x="433.353516" xlink:href="#DejaVuSans-6e"/>
     </g>
    </g>
   </g>
  </g>
  <g id="text_39">
   <!-- Multiple plots in one figure -->
   <g transform="translate(351.865313 13.438125)scale(0.12 -0.12)">
    <defs>
     <path d="M 628 4666 
L 1569 4666 
L 2759 1491 
L 3956 4666 
L 4897 4666 
L 4897 0 
L 4281 0 
L 4281 4097 
L 3078 897 
L 2444 897 
L 1241 4097 
L 1241 0 
L 628 0 
L 628 4666 
z
" id="DejaVuSans-4d" transform="scale(0.015625)"/>
     <path d="M 603 4863 
L 1178 4863 
L 1178 0 
L 603 0 
L 603 4863 
z
" id="DejaVuSans-6c" transform="scale(0.015625)"/>
     <path d="M 1159 525 
L 1159 -1331 
L 581 -1331 
L 581 3500 
L 1159 3500 
L 1159 2969 
Q 1341 3281 1617 3432 
Q 1894 3584 2278 3584 
Q 2916 3584 3314 3078 
Q 3713 2572 3713 1747 
Q 3713 922 3314 415 
Q 2916 -91 2278 -91 
Q 1894 -91 1617 61 
Q 1341 213 1159 525 
z
M 3116 1747 
Q 3116 2381 2855 2742 
Q 2594 3103 2138 3103 
Q 1681 3103 1420 2742 
Q 1159 2381 1159 1747 
Q 1159 1113 1420 752 
Q 1681 391 2138 391 
Q 2594 391 2855 752 
Q 3116 1113 3116 1747 
z
" id="DejaVuSans-70" transform="scale(0.015625)"/>
     <path id="DejaVuSans-20" transform="scale(0.015625)"/>
     <path d="M 2375 4863 
L 2375 4384 
L 1825 4384 
Q 1516 4384 1395 4259 
Q 1275 4134 1275 3809 
L 1275 3500 
L 2222 3500 
L 2222 3053 
L 1275 3053 
L 1275 0 
L 697 0 
L 697 3053 
L 147 3053 
L 147 3500 
L 697 3500 
L 697 3744 
Q 697 4328 969 4595 
Q 1241 4863 1831 4863 
L 2375 4863 
z
" id="DejaVuSans-66" transform="scale(0.015625)"/>
     <path d="M 2906 1791 
Q 2906 2416 2648 2759 
Q 2391 3103 1925 3103 
Q 1463 3103 1205 2759 
Q 947 2416 947 1791 
Q 947 1169 1205 825 
Q 1463 481 1925 481 
Q 2391 481 2648 825 
Q 2906 1169 2906 1791 
z
M 3481 434 
Q 3481 -459 3084 -895 
Q 2688 -1331 1869 -1331 
Q 1566 -1331 1297 -1286 
Q 1028 -1241 775 -1147 
L 775 -588 
Q 1028 -725 1275 -790 
Q 1522 -856 1778 -856 
Q 2344 -856 2625 -561 
Q 2906 -266 2906 331 
L 2906 616 
Q 2728 306 2450 153 
Q 2172 0 1784 0 
Q 1141 0 747 490 
Q 353 981 353 1791 
Q 353 2603 747 3093 
Q 1141 3584 1784 3584 
Q 2172 3584 2450 3431 
Q 2728 3278 2906 2969 
L 2906 3500 
L 3481 3500 
L 3481 434 
z
" id="DejaVuSans-67" transform="scale(0.015625)"/>
    </defs>
    <use xlink:href="#DejaVuSans-4d"/>
    <use x="86.279297" xlink:href="#DejaVuSans-75"/>
    <use x="149.658203" xlink:href="#DejaVuSans-6c"/>
    <use x="177.441406" xlink:href="#DejaVuSans-74"/>
    <use x="216.650391" xlink:href="#DejaVuSans-69"/>
    <use x="244.433594" xlink:href="#DejaVuSans-70"/>
    <use x="307.910156" xlink:href="#DejaVuSans-6c"/>
    <use x="335.693359" xlink:href="#DejaVuSans-65"/>
    <use x="397.216797" xlink:href="#DejaVuSans-20"/>
    <use x="429.003906" xlink:href="#DejaVuSans-70"/>
    <use x="492.480469" xlink:href="#DejaVuSans-6c"/>
    <use x="520.263672" xlink:href="#DejaVuSans-6f"/>
    <use x="581.445312" xlink:href="#DejaVuSans-74"/>
    <use x="620.654297" xlink:href="#DejaVuSans-73"/>
    <use x="672.753906" xlink:href="#DejaVuSans-20"/>
    <use x="704.541016" xlink:href="#DejaVuSans-69"/>
    <use x="732.324219" xlink:href="#DejaVuSans-6e"/>
    <use x="795.703125" xlink:href="#DejaVuSans-20"/>
    <use x="827.490234" xlink:href="#DejaVuSans-6f"/>
    <use x="888.671875" xlink:href="#DejaVuSans-6e"/>
    <use x="952.050781" xlink:href="#DejaVuSans-65"/>
    <use x="1013.574219" xlink:href="#DejaVuSans-20"/>
    <use x="1045.361328" xlink:href="#DejaVuSans-66"/>
    <use x="1080.566406" xlink:href="#DejaVuSans-69"/>
    <use x="1108.349609" xlink:href="#DejaVuSans-67"/>
    <use x="1171.826172" xlink:href="#DejaVuSans-75"/>
    <use x="1235.205078" xlink:href="#DejaVuSans-72"/>
    <use x="1274.068359" xlink:href="#DejaVuSans-65"/>
   </g>
  </g>
 </g>
 <defs>
  <clipPath id="p2ab76f78fb">
   <rect height="139.48" width="235.670706" x="47.72" y="34.56"/>
  </clipPath>
  <clipPath id="pa53a9145ce">
   <rect height="139.48" width="235.670706" x="331.448853" y="34.56"/>
  </clipPath>
  <clipPath id="pbea5caf5b0">
   <rect height="139.48" width="235.670706" x="615.177707" y="34.56"/>
  </clipPath>
 </defs>
</svg>
