<?xml version="1.0" encoding="utf-8" standalone="no"?>
<!DOCTYPE svg PUBLIC "-//W3C//DTD SVG 1.1//EN"
  "http://www.w3.org/Graphics/SVG/1.1/DTD/svg11.dtd">
<svg height="216pt" version="1.1" viewBox="0 0 864 216" width="864pt" xmlns="http://www.w3.org/2000/svg" xmlns:xlink="http://www.w3.org/1999/xlink">
 <metadata>
  <rdf:RDF xmlns:cc="http://creativecommons.org/ns#" xmlns:dc="http://purl.org/dc/elements/1.1/" xmlns:rdf="http://www.w3.org/1999/02/22-rdf-syntax-ns#">
   <cc:Work>
    <dc:type rdf:resource="http://purl.org/dc/dcmitype/StillImage"/>
    <dc:date>2021-07-22T21:33:39.311403</dc:date>
    <dc:format>image/svg+xml</dc:format>
    <dc:creator>
     <cc:Agent>
      <dc:title>Matplotlib v3.4.2, https://matplotlib.org/</dc:title>
     </cc:Agent>
    </dc:creator>
   </cc:Work>
  </rdf:RDF>
 </metadata>
 <defs>
  <style type="text/css">*{stroke-linecap:butt;stroke-linejoin:round;}</style>
 </defs>
 <g id="figure_1">
  <g id="patch_1">
   <path d="M 0 216 
L 864 216 
L 864 0 
L 0 0 
z
" style="fill:#ffffff;"/>
  </g>
  <g id="axes_1">
   <g id="patch_2">
    <path d="M 47.72 174.04 
L 284.336138 174.04 
L 284.336138 34.56 
L 47.72 34.56 
z
" style="fill:#ffffff;"/>
   </g>
   <g id="patch_3">
    <path clip-path="url(#p72638bb41d)" d="M 90.603395 174.04 
L 104.188403 174.04 
L 104.188403 168.415739 
L 90.603395 168.415739 
z
" style="fill:#1f77b4;opacity:0.4;"/>
   </g>
   <g id="patch_4">
    <path clip-path="url(#p72638bb41d)" d="M 104.188403 174.04 
L 117.773411 174.04 
L 117.773411 140.294432 
L 104.188403 140.294432 
z
" style="fill:#1f77b4;opacity:0.4;"/>
   </g>
   <g id="patch_5">
    <path clip-path="url(#p72638bb41d)" d="M 117.773411 174.04 
L 131.35842 174.04 
L 131.35842 145.918693 
L 117.773411 145.918693 
z
" style="fill:#1f77b4;opacity:0.4;"/>
   </g>
   <g id="patch_6">
    <path clip-path="url(#p72638bb41d)" d="M 131.35842 174.04 
L 144.943428 174.04 
L 144.943428 89.67608 
L 131.35842 89.67608 
z
" style="fill:#1f77b4;opacity:0.4;"/>
   </g>
   <g id="patch_7">
    <path clip-path="url(#p72638bb41d)" d="M 144.943428 174.04 
L 158.528436 174.04 
L 158.528436 95.300341 
L 144.943428 95.300341 
z
" style="fill:#1f77b4;opacity:0.4;"/>
   </g>
   <g id="patch_8">
    <path clip-path="url(#p72638bb41d)" d="M 158.528436 174.04 
L 172.113444 174.04 
L 172.113444 61.554773 
L 158.528436 61.554773 
z
" style="fill:#1f77b4;opacity:0.4;"/>
   </g>
   <g id="patch_9">
    <path clip-path="url(#p72638bb41d)" d="M 172.113444 174.04 
L 185.698452 174.04 
L 185.698452 50.30625 
L 172.113444 50.30625 
z
" style="fill:#1f77b4;opacity:0.4;"/>
   </g>
   <g id="patch_10">
    <path clip-path="url(#p72638bb41d)" d="M 185.698452 174.04 
L 199.283461 174.04 
L 199.283461 123.421648 
L 185.698452 123.421648 
z
" style="fill:#1f77b4;opacity:0.4;"/>
   </g>
   <g id="patch_11">
    <path clip-path="url(#p72638bb41d)" d="M 199.283461 174.04 
L 212.868469 174.04 
L 212.868469 140.294432 
L 199.283461 140.294432 
z
" style="fill:#1f77b4;opacity:0.4;"/>
   </g>
   <g id="patch_12">
    <path clip-path="url(#p72638bb41d)" d="M 212.868469 174.04 
L 226.453477 174.04 
L 226.453477 162.791477 
L 212.868469 162.791477 
z
" style="fill:#1f77b4;opacity:0.4;"/>
   </g>
   <g id="patch_13">
    <path clip-path="url(#p72638bb41d)" d="M 105.857095 174.04 
L 119.661382 174.04 
L 119.661382 162.970159 
L 105.857095 162.970159 
z
" style="fill:#ff7f0e;opacity:0.4;"/>
   </g>
   <g id="patch_14">
    <path clip-path="url(#p72638bb41d)" d="M 119.661382 174.04 
L 133.46567 174.04 
L 133.46567 124.225714 
L 119.661382 124.225714 
z
" style="fill:#ff7f0e;opacity:0.4;"/>
   </g>
   <g id="patch_15">
    <path clip-path="url(#p72638bb41d)" d="M 133.46567 174.04 
L 147.269957 174.04 
L 147.269957 102.086032 
L 133.46567 102.086032 
z
" style="fill:#ff7f0e;opacity:0.4;"/>
   </g>
   <g id="patch_16">
    <path clip-path="url(#p72638bb41d)" d="M 147.269957 174.04 
L 161.074245 174.04 
L 161.074245 41.201905 
L 147.269957 41.201905 
z
" style="fill:#ff7f0e;opacity:0.4;"/>
   </g>
   <g id="patch_17">
    <path clip-path="url(#p72638bb41d)" d="M 161.074245 174.04 
L 174.878533 174.04 
L 174.878533 63.341587 
L 161.074245 63.341587 
z
" style="fill:#ff7f0e;opacity:0.4;"/>
   </g>
   <g id="patch_18">
    <path clip-path="url(#p72638bb41d)" d="M 174.878533 174.04 
L 188.68282 174.04 
L 188.68282 79.946349 
L 174.878533 79.946349 
z
" style="fill:#ff7f0e;opacity:0.4;"/>
   </g>
   <g id="patch_19">
    <path clip-path="url(#p72638bb41d)" d="M 188.68282 174.04 
L 202.487108 174.04 
L 202.487108 118.690794 
L 188.68282 118.690794 
z
" style="fill:#ff7f0e;opacity:0.4;"/>
   </g>
   <g id="patch_20">
    <path clip-path="url(#p72638bb41d)" d="M 202.487108 174.04 
L 216.291396 174.04 
L 216.291396 151.900317 
L 202.487108 151.900317 
z
" style="fill:#ff7f0e;opacity:0.4;"/>
   </g>
   <g id="patch_21">
    <path clip-path="url(#p72638bb41d)" d="M 216.291396 174.04 
L 230.095683 174.04 
L 230.095683 174.04 
L 216.291396 174.04 
z
" style="fill:#ff7f0e;opacity:0.4;"/>
   </g>
   <g id="patch_22">
    <path clip-path="url(#p72638bb41d)" d="M 230.095683 174.04 
L 243.899971 174.04 
L 243.899971 168.505079 
L 230.095683 168.505079 
z
" style="fill:#ff7f0e;opacity:0.4;"/>
   </g>
   <g id="matplotlib.axis_1">
    <g id="xtick_1">
     <g id="line2d_1">
      <defs>
       <path d="M 0 0 
L 0 3.5 
" id="m36c987769e" style="stroke:#000000;stroke-width:0.8;"/>
      </defs>
      <g>
       <use style="stroke:#000000;stroke-width:0.8;" x="67.118769" xlink:href="#m36c987769e" y="174.04"/>
      </g>
     </g>
     <g id="text_1">
      <!-- −4 -->
      <g transform="translate(59.747676 188.638438)scale(0.1 -0.1)">
       <defs>
        <path d="M 678 2272 
L 4684 2272 
L 4684 1741 
L 678 1741 
L 678 2272 
z
" id="DejaVuSans-2212" transform="scale(0.015625)"/>
        <path d="M 2419 4116 
L 825 1625 
L 2419 1625 
L 2419 4116 
z
M 2253 4666 
L 3047 4666 
L 3047 1625 
L 3713 1625 
L 3713 1100 
L 3047 1100 
L 3047 0 
L 2419 0 
L 2419 1100 
L 313 1100 
L 313 1709 
L 2253 4666 
z
" id="DejaVuSans-34" transform="scale(0.015625)"/>
       </defs>
       <use xlink:href="#DejaVuSans-2212"/>
       <use x="83.789062" xlink:href="#DejaVuSans-34"/>
      </g>
     </g>
    </g>
    <g id="xtick_2">
     <g id="line2d_2">
      <g>
       <use style="stroke:#000000;stroke-width:0.8;" x="115.588439" xlink:href="#m36c987769e" y="174.04"/>
      </g>
     </g>
     <g id="text_2">
      <!-- −2 -->
      <g transform="translate(108.217345 188.638438)scale(0.1 -0.1)">
       <defs>
        <path d="M 1228 531 
L 3431 531 
L 3431 0 
L 469 0 
L 469 531 
Q 828 903 1448 1529 
Q 2069 2156 2228 2338 
Q 2531 2678 2651 2914 
Q 2772 3150 2772 3378 
Q 2772 3750 2511 3984 
Q 2250 4219 1831 4219 
Q 1534 4219 1204 4116 
Q 875 4013 500 3803 
L 500 4441 
Q 881 4594 1212 4672 
Q 1544 4750 1819 4750 
Q 2544 4750 2975 4387 
Q 3406 4025 3406 3419 
Q 3406 3131 3298 2873 
Q 3191 2616 2906 2266 
Q 2828 2175 2409 1742 
Q 1991 1309 1228 531 
z
" id="DejaVuSans-32" transform="scale(0.015625)"/>
       </defs>
       <use xlink:href="#DejaVuSans-2212"/>
       <use x="83.789062" xlink:href="#DejaVuSans-32"/>
      </g>
     </g>
    </g>
    <g id="xtick_3">
     <g id="line2d_3">
      <g>
       <use style="stroke:#000000;stroke-width:0.8;" x="164.058109" xlink:href="#m36c987769e" y="174.04"/>
      </g>
     </g>
     <g id="text_3">
      <!-- 0 -->
      <g transform="translate(160.876859 188.638438)scale(0.1 -0.1)">
       <defs>
        <path d="M 2034 4250 
Q 1547 4250 1301 3770 
Q 1056 3291 1056 2328 
Q 1056 1369 1301 889 
Q 1547 409 2034 409 
Q 2525 409 2770 889 
Q 3016 1369 3016 2328 
Q 3016 3291 2770 3770 
Q 2525 4250 2034 4250 
z
M 2034 4750 
Q 2819 4750 3233 4129 
Q 3647 3509 3647 2328 
Q 3647 1150 3233 529 
Q 2819 -91 2034 -91 
Q 1250 -91 836 529 
Q 422 1150 422 2328 
Q 422 3509 836 4129 
Q 1250 4750 2034 4750 
z
" id="DejaVuSans-30" transform="scale(0.015625)"/>
       </defs>
       <use xlink:href="#DejaVuSans-30"/>
      </g>
     </g>
    </g>
    <g id="xtick_4">
     <g id="line2d_4">
      <g>
       <use style="stroke:#000000;stroke-width:0.8;" x="212.527778" xlink:href="#m36c987769e" y="174.04"/>
      </g>
     </g>
     <g id="text_4">
      <!-- 2 -->
      <g transform="translate(209.346528 188.638438)scale(0.1 -0.1)">
       <use xlink:href="#DejaVuSans-32"/>
      </g>
     </g>
    </g>
    <g id="xtick_5">
     <g id="line2d_5">
      <g>
       <use style="stroke:#000000;stroke-width:0.8;" x="260.997448" xlink:href="#m36c987769e" y="174.04"/>
      </g>
     </g>
     <g id="text_5">
      <!-- 4 -->
      <g transform="translate(257.816198 188.638438)scale(0.1 -0.1)">
       <use xlink:href="#DejaVuSans-34"/>
      </g>
     </g>
    </g>
   </g>
   <g id="matplotlib.axis_2">
    <g id="ytick_1">
     <g id="line2d_6">
      <defs>
       <path d="M 0 0 
L -3.5 0 
" id="m56275370d2" style="stroke:#000000;stroke-width:0.8;"/>
      </defs>
      <g>
       <use style="stroke:#000000;stroke-width:0.8;" x="47.72" xlink:href="#m56275370d2" y="174.04"/>
      </g>
     </g>
     <g id="text_6">
      <!-- 0.0 -->
      <g transform="translate(24.816875 177.839219)scale(0.1 -0.1)">
       <defs>
        <path d="M 684 794 
L 1344 794 
L 1344 0 
L 684 0 
L 684 794 
z
" id="DejaVuSans-2e" transform="scale(0.015625)"/>
       </defs>
       <use xlink:href="#DejaVuSans-30"/>
       <use x="63.623047" xlink:href="#DejaVuSans-2e"/>
       <use x="95.410156" xlink:href="#DejaVuSans-30"/>
      </g>
     </g>
    </g>
    <g id="ytick_2">
     <g id="line2d_7">
      <g>
       <use style="stroke:#000000;stroke-width:0.8;" x="47.72" xlink:href="#m56275370d2" y="142.512805"/>
      </g>
     </g>
     <g id="text_7">
      <!-- 0.1 -->
      <g transform="translate(24.816875 146.312024)scale(0.1 -0.1)">
       <defs>
        <path d="M 794 531 
L 1825 531 
L 1825 4091 
L 703 3866 
L 703 4441 
L 1819 4666 
L 2450 4666 
L 2450 531 
L 3481 531 
L 3481 0 
L 794 0 
L 794 531 
z
" id="DejaVuSans-31" transform="scale(0.015625)"/>
       </defs>
       <use xlink:href="#DejaVuSans-30"/>
       <use x="63.623047" xlink:href="#DejaVuSans-2e"/>
       <use x="95.410156" xlink:href="#DejaVuSans-31"/>
      </g>
     </g>
    </g>
    <g id="ytick_3">
     <g id="line2d_8">
      <g>
       <use style="stroke:#000000;stroke-width:0.8;" x="47.72" xlink:href="#m56275370d2" y="110.98561"/>
      </g>
     </g>
     <g id="text_8">
      <!-- 0.2 -->
      <g transform="translate(24.816875 114.784829)scale(0.1 -0.1)">
       <use xlink:href="#DejaVuSans-30"/>
       <use x="63.623047" xlink:href="#DejaVuSans-2e"/>
       <use x="95.410156" xlink:href="#DejaVuSans-32"/>
      </g>
     </g>
    </g>
    <g id="ytick_4">
     <g id="line2d_9">
      <g>
       <use style="stroke:#000000;stroke-width:0.8;" x="47.72" xlink:href="#m56275370d2" y="79.458415"/>
      </g>
     </g>
     <g id="text_9">
      <!-- 0.3 -->
      <g transform="translate(24.816875 83.257633)scale(0.1 -0.1)">
       <defs>
        <path d="M 2597 2516 
Q 3050 2419 3304 2112 
Q 3559 1806 3559 1356 
Q 3559 666 3084 287 
Q 2609 -91 1734 -91 
Q 1441 -91 1130 -33 
Q 819 25 488 141 
L 488 750 
Q 750 597 1062 519 
Q 1375 441 1716 441 
Q 2309 441 2620 675 
Q 2931 909 2931 1356 
Q 2931 1769 2642 2001 
Q 2353 2234 1838 2234 
L 1294 2234 
L 1294 2753 
L 1863 2753 
Q 2328 2753 2575 2939 
Q 2822 3125 2822 3475 
Q 2822 3834 2567 4026 
Q 2313 4219 1838 4219 
Q 1578 4219 1281 4162 
Q 984 4106 628 3988 
L 628 4550 
Q 988 4650 1302 4700 
Q 1616 4750 1894 4750 
Q 2613 4750 3031 4423 
Q 3450 4097 3450 3541 
Q 3450 3153 3228 2886 
Q 3006 2619 2597 2516 
z
" id="DejaVuSans-33" transform="scale(0.015625)"/>
       </defs>
       <use xlink:href="#DejaVuSans-30"/>
       <use x="63.623047" xlink:href="#DejaVuSans-2e"/>
       <use x="95.410156" xlink:href="#DejaVuSans-33"/>
      </g>
     </g>
    </g>
    <g id="ytick_5">
     <g id="line2d_10">
      <g>
       <use style="stroke:#000000;stroke-width:0.8;" x="47.72" xlink:href="#m56275370d2" y="47.93122"/>
      </g>
     </g>
     <g id="text_10">
      <!-- 0.4 -->
      <g transform="translate(24.816875 51.730438)scale(0.1 -0.1)">
       <use xlink:href="#DejaVuSans-30"/>
       <use x="63.623047" xlink:href="#DejaVuSans-2e"/>
       <use x="95.410156" xlink:href="#DejaVuSans-34"/>
      </g>
     </g>
    </g>
    <g id="text_11">
     <!-- Density -->
     <g transform="translate(18.737188 123.308594)rotate(-90)scale(0.1 -0.1)">
      <defs>
       <path d="M 1259 4147 
L 1259 519 
L 2022 519 
Q 2988 519 3436 956 
Q 3884 1394 3884 2338 
Q 3884 3275 3436 3711 
Q 2988 4147 2022 4147 
L 1259 4147 
z
M 628 4666 
L 1925 4666 
Q 3281 4666 3915 4102 
Q 4550 3538 4550 2338 
Q 4550 1131 3912 565 
Q 3275 0 1925 0 
L 628 0 
L 628 4666 
z
" id="DejaVuSans-44" transform="scale(0.015625)"/>
       <path d="M 3597 1894 
L 3597 1613 
L 953 1613 
Q 991 1019 1311 708 
Q 1631 397 2203 397 
Q 2534 397 2845 478 
Q 3156 559 3463 722 
L 3463 178 
Q 3153 47 2828 -22 
Q 2503 -91 2169 -91 
Q 1331 -91 842 396 
Q 353 884 353 1716 
Q 353 2575 817 3079 
Q 1281 3584 2069 3584 
Q 2775 3584 3186 3129 
Q 3597 2675 3597 1894 
z
M 3022 2063 
Q 3016 2534 2758 2815 
Q 2500 3097 2075 3097 
Q 1594 3097 1305 2825 
Q 1016 2553 972 2059 
L 3022 2063 
z
" id="DejaVuSans-65" transform="scale(0.015625)"/>
       <path d="M 3513 2113 
L 3513 0 
L 2938 0 
L 2938 2094 
Q 2938 2591 2744 2837 
Q 2550 3084 2163 3084 
Q 1697 3084 1428 2787 
Q 1159 2491 1159 1978 
L 1159 0 
L 581 0 
L 581 3500 
L 1159 3500 
L 1159 2956 
Q 1366 3272 1645 3428 
Q 1925 3584 2291 3584 
Q 2894 3584 3203 3211 
Q 3513 2838 3513 2113 
z
" id="DejaVuSans-6e" transform="scale(0.015625)"/>
       <path d="M 2834 3397 
L 2834 2853 
Q 2591 2978 2328 3040 
Q 2066 3103 1784 3103 
Q 1356 3103 1142 2972 
Q 928 2841 928 2578 
Q 928 2378 1081 2264 
Q 1234 2150 1697 2047 
L 1894 2003 
Q 2506 1872 2764 1633 
Q 3022 1394 3022 966 
Q 3022 478 2636 193 
Q 2250 -91 1575 -91 
Q 1294 -91 989 -36 
Q 684 19 347 128 
L 347 722 
Q 666 556 975 473 
Q 1284 391 1588 391 
Q 1994 391 2212 530 
Q 2431 669 2431 922 
Q 2431 1156 2273 1281 
Q 2116 1406 1581 1522 
L 1381 1569 
Q 847 1681 609 1914 
Q 372 2147 372 2553 
Q 372 3047 722 3315 
Q 1072 3584 1716 3584 
Q 2034 3584 2315 3537 
Q 2597 3491 2834 3397 
z
" id="DejaVuSans-73" transform="scale(0.015625)"/>
       <path d="M 603 3500 
L 1178 3500 
L 1178 0 
L 603 0 
L 603 3500 
z
M 603 4863 
L 1178 4863 
L 1178 4134 
L 603 4134 
L 603 4863 
z
" id="DejaVuSans-69" transform="scale(0.015625)"/>
       <path d="M 1172 4494 
L 1172 3500 
L 2356 3500 
L 2356 3053 
L 1172 3053 
L 1172 1153 
Q 1172 725 1289 603 
Q 1406 481 1766 481 
L 2356 481 
L 2356 0 
L 1766 0 
Q 1100 0 847 248 
Q 594 497 594 1153 
L 594 3053 
L 172 3053 
L 172 3500 
L 594 3500 
L 594 4494 
L 1172 4494 
z
" id="DejaVuSans-74" transform="scale(0.015625)"/>
       <path d="M 2059 -325 
Q 1816 -950 1584 -1140 
Q 1353 -1331 966 -1331 
L 506 -1331 
L 506 -850 
L 844 -850 
Q 1081 -850 1212 -737 
Q 1344 -625 1503 -206 
L 1606 56 
L 191 3500 
L 800 3500 
L 1894 763 
L 2988 3500 
L 3597 3500 
L 2059 -325 
z
" id="DejaVuSans-79" transform="scale(0.015625)"/>
      </defs>
      <use xlink:href="#DejaVuSans-44"/>
      <use x="77.001953" xlink:href="#DejaVuSans-65"/>
      <use x="138.525391" xlink:href="#DejaVuSans-6e"/>
      <use x="201.904297" xlink:href="#DejaVuSans-73"/>
      <use x="254.003906" xlink:href="#DejaVuSans-69"/>
      <use x="281.787109" xlink:href="#DejaVuSans-74"/>
      <use x="320.996094" xlink:href="#DejaVuSans-79"/>
     </g>
    </g>
   </g>
   <g id="line2d_11">
    <path clip-path="url(#p72638bb41d)" d="M 58.475279 174.007935 
L 65.514195 173.849965 
L 70.541991 173.508813 
L 74.564229 172.982017 
L 77.580907 172.383901 
L 80.597585 171.573991 
L 83.614263 170.514371 
L 86.630941 169.156261 
L 88.64206 168.055617 
L 90.653179 166.777949 
L 92.664297 165.310202 
L 95.680976 162.748805 
L 98.697654 159.808649 
L 109.758807 148.458031 
L 112.775485 145.87484 
L 119.8144 140.178653 
L 121.825519 138.274914 
L 123.836638 136.09123 
L 125.847757 133.56795 
L 127.858875 130.677164 
L 129.869994 127.428023 
L 132.886672 121.990919 
L 136.90891 114.129377 
L 141.936706 104.302818 
L 145.958944 96.883331 
L 156.014538 78.652006 
L 162.047894 67.374225 
L 164.059013 64.028218 
L 166.070131 61.203611 
L 167.075691 60.058489 
L 168.08125 59.130236 
L 169.086809 58.446693 
L 170.092369 58.033566 
L 171.097928 57.913462 
L 172.103487 58.104968 
L 173.109047 58.621834 
L 174.114606 59.472296 
L 175.120166 60.658584 
L 176.125725 62.176646 
L 177.131284 64.016113 
L 178.136844 66.160494 
L 180.147962 71.270264 
L 182.159081 77.273285 
L 185.175759 87.326655 
L 190.203556 104.485509 
L 193.220234 113.809947 
L 195.231353 119.379293 
L 197.242472 124.410508 
L 199.25359 128.943462 
L 201.264709 133.050529 
L 204.281387 138.601687 
L 207.298065 143.655729 
L 211.320303 149.890531 
L 214.336981 154.210613 
L 217.353659 158.135668 
L 219.364778 160.481533 
L 221.375896 162.585378 
L 223.387015 164.440225 
L 225.398134 166.052852 
L 227.409253 167.44102 
L 229.420371 168.628962 
L 232.437049 170.091796 
L 235.453728 171.239134 
L 238.470406 172.12715 
L 241.487084 172.794728 
L 244.503762 173.273858 
L 248.525999 173.677004 
L 253.553796 173.920173 
L 258.581593 174.007804 
L 258.581593 174.007804 
" style="fill:none;stroke:#1f77b4;stroke-linecap:square;stroke-width:1.5;"/>
   </g>
   <g id="line2d_12">
    <path clip-path="url(#p72638bb41d)" d="M 76.176207 174.00245 
L 82.128106 173.839701 
L 86.096039 173.531702 
L 89.071988 173.10836 
L 92.047938 172.45512 
L 95.023887 171.521564 
L 97.999837 170.268651 
L 99.983803 169.237034 
L 101.96777 168.028893 
L 103.951736 166.617471 
L 105.935702 164.964596 
L 107.919669 163.022173 
L 109.903635 160.738199 
L 111.887601 158.066855 
L 113.871568 154.980612 
L 115.855534 151.481045 
L 117.8395 147.604855 
L 120.81545 141.246227 
L 130.735282 119.236495 
L 136.687181 107.124504 
L 139.66313 100.843848 
L 141.647096 96.302671 
L 143.631063 91.362508 
L 146.607012 83.154181 
L 153.550895 62.988666 
L 155.534861 58.410838 
L 156.526844 56.560791 
L 157.518827 55.057924 
L 158.51081 53.93376 
L 159.502794 53.210322 
L 160.494777 52.898957 
L 161.48676 52.999631 
L 162.478743 53.500752 
L 163.470726 54.37952 
L 164.462709 55.602817 
L 165.454693 57.128576 
L 167.438659 60.885631 
L 170.414609 67.447389 
L 173.390558 73.875711 
L 175.374524 77.610503 
L 177.358491 80.797138 
L 179.342457 83.525653 
L 184.302373 89.908393 
L 186.286339 93.008633 
L 188.270306 96.724492 
L 190.254272 101.112478 
L 192.238238 106.111982 
L 195.214188 114.398532 
L 200.174104 128.457541 
L 202.15807 133.583997 
L 204.142036 138.242694 
L 206.126003 142.401942 
L 208.109969 146.088159 
L 210.093935 149.368385 
L 213.069885 153.714241 
L 216.045835 157.592742 
L 219.021784 161.125998 
L 221.997734 164.275164 
L 223.9817 166.092964 
L 225.965666 167.632014 
L 227.949633 168.860455 
L 229.933599 169.769154 
L 231.917565 170.375378 
L 233.901532 170.721179 
L 235.885498 170.867533 
L 239.853431 170.847928 
L 243.821363 170.843509 
L 246.797313 171.043642 
L 249.773262 171.440953 
L 262.669044 173.530394 
L 266.636976 173.820296 
L 272.588875 173.993995 
L 273.580859 174.005774 
L 273.580859 174.005774 
" style="fill:none;stroke:#ff7f0e;stroke-linecap:square;stroke-width:1.5;"/>
   </g>
   <g id="patch_23">
    <path d="M 47.72 174.04 
L 47.72 34.56 
" style="fill:none;stroke:#000000;stroke-linecap:square;stroke-linejoin:miter;stroke-width:0.8;"/>
   </g>
   <g id="patch_24">
    <path d="M 284.336138 174.04 
L 284.336138 34.56 
" style="fill:none;stroke:#000000;stroke-linecap:square;stroke-linejoin:miter;stroke-width:0.8;"/>
   </g>
   <g id="patch_25">
    <path d="M 47.72 174.04 
L 284.336138 174.04 
" style="fill:none;stroke:#000000;stroke-linecap:square;stroke-linejoin:miter;stroke-width:0.8;"/>
   </g>
   <g id="patch_26">
    <path d="M 47.72 34.56 
L 284.336138 34.56 
" style="fill:none;stroke:#000000;stroke-linecap:square;stroke-linejoin:miter;stroke-width:0.8;"/>
   </g>
   <g id="legend_1">
    <g id="patch_27">
     <path d="M 195.6627 71.91625 
L 277.336138 71.91625 
Q 279.336138 71.91625 279.336138 69.91625 
L 279.336138 41.56 
Q 279.336138 39.56 277.336138 39.56 
L 195.6627 39.56 
Q 193.6627 39.56 193.6627 41.56 
L 193.6627 69.91625 
Q 193.6627 71.91625 195.6627 71.91625 
z
" style="fill:#ffffff;opacity:0.8;stroke:#cccccc;stroke-linejoin:miter;"/>
    </g>
    <g id="line2d_13">
     <path d="M 197.6627 47.658438 
L 217.6627 47.658438 
" style="fill:none;stroke:#1f77b4;stroke-linecap:square;stroke-width:1.5;"/>
    </g>
    <g id="line2d_14"/>
    <g id="text_12">
     <!-- Truth -->
     <g transform="translate(225.6627 51.158438)scale(0.1 -0.1)">
      <defs>
       <path d="M -19 4666 
L 3928 4666 
L 3928 4134 
L 2272 4134 
L 2272 0 
L 1638 0 
L 1638 4134 
L -19 4134 
L -19 4666 
z
" id="DejaVuSans-54" transform="scale(0.015625)"/>
       <path d="M 2631 2963 
Q 2534 3019 2420 3045 
Q 2306 3072 2169 3072 
Q 1681 3072 1420 2755 
Q 1159 2438 1159 1844 
L 1159 0 
L 581 0 
L 581 3500 
L 1159 3500 
L 1159 2956 
Q 1341 3275 1631 3429 
Q 1922 3584 2338 3584 
Q 2397 3584 2469 3576 
Q 2541 3569 2628 3553 
L 2631 2963 
z
" id="DejaVuSans-72" transform="scale(0.015625)"/>
       <path d="M 544 1381 
L 544 3500 
L 1119 3500 
L 1119 1403 
Q 1119 906 1312 657 
Q 1506 409 1894 409 
Q 2359 409 2629 706 
Q 2900 1003 2900 1516 
L 2900 3500 
L 3475 3500 
L 3475 0 
L 2900 0 
L 2900 538 
Q 2691 219 2414 64 
Q 2138 -91 1772 -91 
Q 1169 -91 856 284 
Q 544 659 544 1381 
z
M 1991 3584 
L 1991 3584 
z
" id="DejaVuSans-75" transform="scale(0.015625)"/>
       <path d="M 3513 2113 
L 3513 0 
L 2938 0 
L 2938 2094 
Q 2938 2591 2744 2837 
Q 2550 3084 2163 3084 
Q 1697 3084 1428 2787 
Q 1159 2491 1159 1978 
L 1159 0 
L 581 0 
L 581 4863 
L 1159 4863 
L 1159 2956 
Q 1366 3272 1645 3428 
Q 1925 3584 2291 3584 
Q 2894 3584 3203 3211 
Q 3513 2838 3513 2113 
z
" id="DejaVuSans-68" transform="scale(0.015625)"/>
      </defs>
      <use xlink:href="#DejaVuSans-54"/>
      <use x="46.333984" xlink:href="#DejaVuSans-72"/>
      <use x="87.447266" xlink:href="#DejaVuSans-75"/>
      <use x="150.826172" xlink:href="#DejaVuSans-74"/>
      <use x="190.035156" xlink:href="#DejaVuSans-68"/>
     </g>
    </g>
    <g id="line2d_15">
     <path d="M 197.6627 62.336563 
L 217.6627 62.336563 
" style="fill:none;stroke:#ff7f0e;stroke-linecap:square;stroke-width:1.5;"/>
    </g>
    <g id="line2d_16"/>
    <g id="text_13">
     <!-- Prediction -->
     <g transform="translate(225.6627 65.836563)scale(0.1 -0.1)">
      <defs>
       <path d="M 1259 4147 
L 1259 2394 
L 2053 2394 
Q 2494 2394 2734 2622 
Q 2975 2850 2975 3272 
Q 2975 3691 2734 3919 
Q 2494 4147 2053 4147 
L 1259 4147 
z
M 628 4666 
L 2053 4666 
Q 2838 4666 3239 4311 
Q 3641 3956 3641 3272 
Q 3641 2581 3239 2228 
Q 2838 1875 2053 1875 
L 1259 1875 
L 1259 0 
L 628 0 
L 628 4666 
z
" id="DejaVuSans-50" transform="scale(0.015625)"/>
       <path d="M 2906 2969 
L 2906 4863 
L 3481 4863 
L 3481 0 
L 2906 0 
L 2906 525 
Q 2725 213 2448 61 
Q 2172 -91 1784 -91 
Q 1150 -91 751 415 
Q 353 922 353 1747 
Q 353 2572 751 3078 
Q 1150 3584 1784 3584 
Q 2172 3584 2448 3432 
Q 2725 3281 2906 2969 
z
M 947 1747 
Q 947 1113 1208 752 
Q 1469 391 1925 391 
Q 2381 391 2643 752 
Q 2906 1113 2906 1747 
Q 2906 2381 2643 2742 
Q 2381 3103 1925 3103 
Q 1469 3103 1208 2742 
Q 947 2381 947 1747 
z
" id="DejaVuSans-64" transform="scale(0.015625)"/>
       <path d="M 3122 3366 
L 3122 2828 
Q 2878 2963 2633 3030 
Q 2388 3097 2138 3097 
Q 1578 3097 1268 2742 
Q 959 2388 959 1747 
Q 959 1106 1268 751 
Q 1578 397 2138 397 
Q 2388 397 2633 464 
Q 2878 531 3122 666 
L 3122 134 
Q 2881 22 2623 -34 
Q 2366 -91 2075 -91 
Q 1284 -91 818 406 
Q 353 903 353 1747 
Q 353 2603 823 3093 
Q 1294 3584 2113 3584 
Q 2378 3584 2631 3529 
Q 2884 3475 3122 3366 
z
" id="DejaVuSans-63" transform="scale(0.015625)"/>
       <path d="M 1959 3097 
Q 1497 3097 1228 2736 
Q 959 2375 959 1747 
Q 959 1119 1226 758 
Q 1494 397 1959 397 
Q 2419 397 2687 759 
Q 2956 1122 2956 1747 
Q 2956 2369 2687 2733 
Q 2419 3097 1959 3097 
z
M 1959 3584 
Q 2709 3584 3137 3096 
Q 3566 2609 3566 1747 
Q 3566 888 3137 398 
Q 2709 -91 1959 -91 
Q 1206 -91 779 398 
Q 353 888 353 1747 
Q 353 2609 779 3096 
Q 1206 3584 1959 3584 
z
" id="DejaVuSans-6f" transform="scale(0.015625)"/>
      </defs>
      <use xlink:href="#DejaVuSans-50"/>
      <use x="58.552734" xlink:href="#DejaVuSans-72"/>
      <use x="97.416016" xlink:href="#DejaVuSans-65"/>
      <use x="158.939453" xlink:href="#DejaVuSans-64"/>
      <use x="222.416016" xlink:href="#DejaVuSans-69"/>
      <use x="250.199219" xlink:href="#DejaVuSans-63"/>
      <use x="305.179688" xlink:href="#DejaVuSans-74"/>
      <use x="344.388672" xlink:href="#DejaVuSans-69"/>
      <use x="372.171875" xlink:href="#DejaVuSans-6f"/>
      <use x="433.353516" xlink:href="#DejaVuSans-6e"/>
     </g>
    </g>
   </g>
  </g>
  <g id="axes_2">
   <g id="patch_28">
    <path d="M 330.976138 174.04 
L 567.592275 174.04 
L 567.592275 34.56 
L 330.976138 34.56 
z
" style="fill:#ffffff;"/>
   </g>
   <g id="PathCollection_1">
    <defs>
     <path d="M 0 3 
C 0.795609 3 1.55874 2.683901 2.12132 2.12132 
C 2.683901 1.55874 3 0.795609 3 0 
C 3 -0.795609 2.683901 -1.55874 2.12132 -2.12132 
C 1.55874 -2.683901 0.795609 -3 0 -3 
C -0.795609 -3 -1.55874 -2.683901 -2.12132 -2.12132 
C -2.683901 -1.55874 -3 -0.795609 -3 0 
C -3 0.795609 -2.683901 1.55874 -2.12132 2.12132 
C -1.55874 2.683901 -0.795609 3 0 3 
z
" id="m0811840b4f" style="stroke:#1f77b4;"/>
    </defs>
    <g clip-path="url(#pc7dfc153c6)">
     <use style="fill:#1f77b4;stroke:#1f77b4;" x="330.976138" xlink:href="#m0811840b4f" y="129.286357"/>
     <use style="fill:#1f77b4;stroke:#1f77b4;" x="414.192455" xlink:href="#m0811840b4f" y="87.475662"/>
     <use style="fill:#1f77b4;stroke:#1f77b4;" x="455.183772" xlink:href="#m0811840b4f" y="77.995188"/>
     <use style="fill:#1f77b4;stroke:#1f77b4;" x="469.163236" xlink:href="#m0811840b4f" y="116.86105"/>
     <use style="fill:#1f77b4;stroke:#1f77b4;" x="462.857614" xlink:href="#m0811840b4f" y="104.482191"/>
     <use style="fill:#1f77b4;stroke:#1f77b4;" x="490.097937" xlink:href="#m0811840b4f" y="86.524657"/>
     <use style="fill:#1f77b4;stroke:#1f77b4;" x="355.990839" xlink:href="#m0811840b4f" y="112.254044"/>
     <use style="fill:#1f77b4;stroke:#1f77b4;" x="451.86094" xlink:href="#m0811840b4f" y="117.867136"/>
     <use style="fill:#1f77b4;stroke:#1f77b4;" x="466.426668" xlink:href="#m0811840b4f" y="130.721064"/>
     <use style="fill:#1f77b4;stroke:#1f77b4;" x="459.308006" xlink:href="#m0811840b4f" y="103.681813"/>
     <use style="fill:#1f77b4;stroke:#1f77b4;" x="411.72075" xlink:href="#m0811840b4f" y="130.165974"/>
     <use style="fill:#1f77b4;stroke:#1f77b4;" x="520.416332" xlink:href="#m0811840b4f" y="61.537827"/>
     <use style="fill:#1f77b4;stroke:#1f77b4;" x="453.751268" xlink:href="#m0811840b4f" y="82.015502"/>
     <use style="fill:#1f77b4;stroke:#1f77b4;" x="461.594363" xlink:href="#m0811840b4f" y="87.903999"/>
     <use style="fill:#1f77b4;stroke:#1f77b4;" x="442.590774" xlink:href="#m0811840b4f" y="115.830464"/>
     <use style="fill:#1f77b4;stroke:#1f77b4;" x="465.862728" xlink:href="#m0811840b4f" y="133.42252"/>
     <use style="fill:#1f77b4;stroke:#1f77b4;" x="458.653942" xlink:href="#m0811840b4f" y="105.508619"/>
     <use style="fill:#1f77b4;stroke:#1f77b4;" x="397.822887" xlink:href="#m0811840b4f" y="113.494773"/>
     <use style="fill:#1f77b4;stroke:#1f77b4;" x="366.518313" xlink:href="#m0811840b4f" y="143.190602"/>
     <use style="fill:#1f77b4;stroke:#1f77b4;" x="479.786131" xlink:href="#m0811840b4f" y="110.138066"/>
     <use style="fill:#1f77b4;stroke:#1f77b4;" x="432.488468" xlink:href="#m0811840b4f" y="103.297142"/>
     <use style="fill:#1f77b4;stroke:#1f77b4;" x="440.100537" xlink:href="#m0811840b4f" y="84.055204"/>
     <use style="fill:#1f77b4;stroke:#1f77b4;" x="429.136643" xlink:href="#m0811840b4f" y="130.723468"/>
     <use style="fill:#1f77b4;stroke:#1f77b4;" x="421.797374" xlink:href="#m0811840b4f" y="75.431265"/>
     <use style="fill:#1f77b4;stroke:#1f77b4;" x="477.450862" xlink:href="#m0811840b4f" y="111.3834"/>
     <use style="fill:#1f77b4;stroke:#1f77b4;" x="381.329613" xlink:href="#m0811840b4f" y="128.502654"/>
     <use style="fill:#1f77b4;stroke:#1f77b4;" x="401.822604" xlink:href="#m0811840b4f" y="132.682016"/>
     <use style="fill:#1f77b4;stroke:#1f77b4;" x="398.067415" xlink:href="#m0811840b4f" y="88.857493"/>
     <use style="fill:#1f77b4;stroke:#1f77b4;" x="456.278868" xlink:href="#m0811840b4f" y="118.675531"/>
     <use style="fill:#1f77b4;stroke:#1f77b4;" x="463.571123" xlink:href="#m0811840b4f" y="108.038532"/>
     <use style="fill:#1f77b4;stroke:#1f77b4;" x="445.372102" xlink:href="#m0811840b4f" y="91.190996"/>
     <use style="fill:#1f77b4;stroke:#1f77b4;" x="507.913956" xlink:href="#m0811840b4f" y="92.991604"/>
     <use style="fill:#1f77b4;stroke:#1f77b4;" x="358.280163" xlink:href="#m0811840b4f" y="90.779502"/>
     <use style="fill:#1f77b4;stroke:#1f77b4;" x="485.206802" xlink:href="#m0811840b4f" y="127.60925"/>
     <use style="fill:#1f77b4;stroke:#1f77b4;" x="468.320646" xlink:href="#m0811840b4f" y="65.633953"/>
     <use style="fill:#1f77b4;stroke:#1f77b4;" x="437.850033" xlink:href="#m0811840b4f" y="101.348622"/>
     <use style="fill:#1f77b4;stroke:#1f77b4;" x="355.136554" xlink:href="#m0811840b4f" y="72.342036"/>
     <use style="fill:#1f77b4;stroke:#1f77b4;" x="439.261731" xlink:href="#m0811840b4f" y="106.315575"/>
     <use style="fill:#1f77b4;stroke:#1f77b4;" x="439.754825" xlink:href="#m0811840b4f" y="90.683179"/>
     <use style="fill:#1f77b4;stroke:#1f77b4;" x="416.190965" xlink:href="#m0811840b4f" y="104.772641"/>
     <use style="fill:#1f77b4;stroke:#1f77b4;" x="454.542768" xlink:href="#m0811840b4f" y="111.164813"/>
     <use style="fill:#1f77b4;stroke:#1f77b4;" x="398.25479" xlink:href="#m0811840b4f" y="153.810809"/>
     <use style="fill:#1f77b4;stroke:#1f77b4;" x="434.946753" xlink:href="#m0811840b4f" y="143.735349"/>
     <use style="fill:#1f77b4;stroke:#1f77b4;" x="462.449452" xlink:href="#m0811840b4f" y="87.67254"/>
     <use style="fill:#1f77b4;stroke:#1f77b4;" x="430.785526" xlink:href="#m0811840b4f" y="101.132907"/>
     <use style="fill:#1f77b4;stroke:#1f77b4;" x="428.895438" xlink:href="#m0811840b4f" y="111.271715"/>
     <use style="fill:#1f77b4;stroke:#1f77b4;" x="466.274583" xlink:href="#m0811840b4f" y="108.969052"/>
     <use style="fill:#1f77b4;stroke:#1f77b4;" x="365.711636" xlink:href="#m0811840b4f" y="87.126474"/>
     <use style="fill:#1f77b4;stroke:#1f77b4;" x="375.587937" xlink:href="#m0811840b4f" y="87.68882"/>
     <use style="fill:#1f77b4;stroke:#1f77b4;" x="355.160894" xlink:href="#m0811840b4f" y="118.459883"/>
     <use style="fill:#1f77b4;stroke:#1f77b4;" x="449.875204" xlink:href="#m0811840b4f" y="107.36777"/>
     <use style="fill:#1f77b4;stroke:#1f77b4;" x="412.171724" xlink:href="#m0811840b4f" y="114.144285"/>
     <use style="fill:#1f77b4;stroke:#1f77b4;" x="465.29079" xlink:href="#m0811840b4f" y="125.400197"/>
     <use style="fill:#1f77b4;stroke:#1f77b4;" x="380.190922" xlink:href="#m0811840b4f" y="109.973641"/>
     <use style="fill:#1f77b4;stroke:#1f77b4;" x="449.457665" xlink:href="#m0811840b4f" y="114.259151"/>
     <use style="fill:#1f77b4;stroke:#1f77b4;" x="482.537907" xlink:href="#m0811840b4f" y="34.56"/>
     <use style="fill:#1f77b4;stroke:#1f77b4;" x="380.792463" xlink:href="#m0811840b4f" y="135.972579"/>
     <use style="fill:#1f77b4;stroke:#1f77b4;" x="441.820074" xlink:href="#m0811840b4f" y="110.086086"/>
     <use style="fill:#1f77b4;stroke:#1f77b4;" x="465.508383" xlink:href="#m0811840b4f" y="101.338599"/>
     <use style="fill:#1f77b4;stroke:#1f77b4;" x="487.730586" xlink:href="#m0811840b4f" y="106.682974"/>
     <use style="fill:#1f77b4;stroke:#1f77b4;" x="487.694048" xlink:href="#m0811840b4f" y="141.369921"/>
     <use style="fill:#1f77b4;stroke:#1f77b4;" x="490.113278" xlink:href="#m0811840b4f" y="142.671061"/>
     <use style="fill:#1f77b4;stroke:#1f77b4;" x="432.568924" xlink:href="#m0811840b4f" y="140.82796"/>
     <use style="fill:#1f77b4;stroke:#1f77b4;" x="540.663285" xlink:href="#m0811840b4f" y="84.928452"/>
     <use style="fill:#1f77b4;stroke:#1f77b4;" x="460.978645" xlink:href="#m0811840b4f" y="117.602633"/>
     <use style="fill:#1f77b4;stroke:#1f77b4;" x="431.447249" xlink:href="#m0811840b4f" y="109.476225"/>
     <use style="fill:#1f77b4;stroke:#1f77b4;" x="404.591012" xlink:href="#m0811840b4f" y="90.840781"/>
     <use style="fill:#1f77b4;stroke:#1f77b4;" x="409.525336" xlink:href="#m0811840b4f" y="106.153694"/>
     <use style="fill:#1f77b4;stroke:#1f77b4;" x="412.233058" xlink:href="#m0811840b4f" y="99.365215"/>
     <use style="fill:#1f77b4;stroke:#1f77b4;" x="516.537052" xlink:href="#m0811840b4f" y="117.004457"/>
     <use style="fill:#1f77b4;stroke:#1f77b4;" x="469.275635" xlink:href="#m0811840b4f" y="115.431356"/>
     <use style="fill:#1f77b4;stroke:#1f77b4;" x="413.403198" xlink:href="#m0811840b4f" y="109.488305"/>
     <use style="fill:#1f77b4;stroke:#1f77b4;" x="511.040525" xlink:href="#m0811840b4f" y="142.457782"/>
     <use style="fill:#1f77b4;stroke:#1f77b4;" x="420.17265" xlink:href="#m0811840b4f" y="136.825896"/>
     <use style="fill:#1f77b4;stroke:#1f77b4;" x="405.612056" xlink:href="#m0811840b4f" y="113.817792"/>
     <use style="fill:#1f77b4;stroke:#1f77b4;" x="455.696781" xlink:href="#m0811840b4f" y="84.435326"/>
     <use style="fill:#1f77b4;stroke:#1f77b4;" x="497.541559" xlink:href="#m0811840b4f" y="102.32613"/>
     <use style="fill:#1f77b4;stroke:#1f77b4;" x="455.941838" xlink:href="#m0811840b4f" y="88.677963"/>
     <use style="fill:#1f77b4;stroke:#1f77b4;" x="474.570503" xlink:href="#m0811840b4f" y="86.963324"/>
     <use style="fill:#1f77b4;stroke:#1f77b4;" x="467.51831" xlink:href="#m0811840b4f" y="98.865056"/>
     <use style="fill:#1f77b4;stroke:#1f77b4;" x="434.265254" xlink:href="#m0811840b4f" y="125.614995"/>
     <use style="fill:#1f77b4;stroke:#1f77b4;" x="466.268817" xlink:href="#m0811840b4f" y="93.368044"/>
     <use style="fill:#1f77b4;stroke:#1f77b4;" x="505.752406" xlink:href="#m0811840b4f" y="160.161112"/>
     <use style="fill:#1f77b4;stroke:#1f77b4;" x="423.875485" xlink:href="#m0811840b4f" y="94.140273"/>
     <use style="fill:#1f77b4;stroke:#1f77b4;" x="459.2956" xlink:href="#m0811840b4f" y="121.944608"/>
     <use style="fill:#1f77b4;stroke:#1f77b4;" x="380.978315" xlink:href="#m0811840b4f" y="80.391076"/>
     <use style="fill:#1f77b4;stroke:#1f77b4;" x="508.151089" xlink:href="#m0811840b4f" y="62.984504"/>
     <use style="fill:#1f77b4;stroke:#1f77b4;" x="456.823086" xlink:href="#m0811840b4f" y="114.776286"/>
     <use style="fill:#1f77b4;stroke:#1f77b4;" x="430.31515" xlink:href="#m0811840b4f" y="130.358039"/>
     <use style="fill:#1f77b4;stroke:#1f77b4;" x="449.696525" xlink:href="#m0811840b4f" y="117.507671"/>
     <use style="fill:#1f77b4;stroke:#1f77b4;" x="450.836678" xlink:href="#m0811840b4f" y="75.182965"/>
     <use style="fill:#1f77b4;stroke:#1f77b4;" x="425.566651" xlink:href="#m0811840b4f" y="127.804619"/>
     <use style="fill:#1f77b4;stroke:#1f77b4;" x="404.594152" xlink:href="#m0811840b4f" y="110.396941"/>
     <use style="fill:#1f77b4;stroke:#1f77b4;" x="480.872995" xlink:href="#m0811840b4f" y="76.058963"/>
     <use style="fill:#1f77b4;stroke:#1f77b4;" x="501.06524" xlink:href="#m0811840b4f" y="101.061738"/>
     <use style="fill:#1f77b4;stroke:#1f77b4;" x="474.637278" xlink:href="#m0811840b4f" y="60.495927"/>
     <use style="fill:#1f77b4;stroke:#1f77b4;" x="450.308665" xlink:href="#m0811840b4f" y="124.935286"/>
     <use style="fill:#1f77b4;stroke:#1f77b4;" x="413.868676" xlink:href="#m0811840b4f" y="113.279157"/>
     <use style="fill:#1f77b4;stroke:#1f77b4;" x="441.849829" xlink:href="#m0811840b4f" y="143.072718"/>
     <use style="fill:#1f77b4;stroke:#1f77b4;" x="397.14961" xlink:href="#m0811840b4f" y="78.914958"/>
    </g>
   </g>
   <g id="matplotlib.axis_3">
    <g id="xtick_6">
     <g id="line2d_17">
      <g>
       <use style="stroke:#000000;stroke-width:0.8;" x="332.134099" xlink:href="#m36c987769e" y="174.04"/>
      </g>
     </g>
     <g id="text_14">
      <!-- −3 -->
      <g transform="translate(324.763006 188.638438)scale(0.1 -0.1)">
       <use xlink:href="#DejaVuSans-2212"/>
       <use x="83.789062" xlink:href="#DejaVuSans-33"/>
      </g>
     </g>
    </g>
    <g id="xtick_7">
     <g id="line2d_18">
      <g>
       <use style="stroke:#000000;stroke-width:0.8;" x="369.541021" xlink:href="#m36c987769e" y="174.04"/>
      </g>
     </g>
     <g id="text_15">
      <!-- −2 -->
      <g transform="translate(362.169927 188.638438)scale(0.1 -0.1)">
       <use xlink:href="#DejaVuSans-2212"/>
       <use x="83.789062" xlink:href="#DejaVuSans-32"/>
      </g>
     </g>
    </g>
    <g id="xtick_8">
     <g id="line2d_19">
      <g>
       <use style="stroke:#000000;stroke-width:0.8;" x="406.947943" xlink:href="#m36c987769e" y="174.04"/>
      </g>
     </g>
     <g id="text_16">
      <!-- −1 -->
      <g transform="translate(399.576849 188.638438)scale(0.1 -0.1)">
       <use xlink:href="#DejaVuSans-2212"/>
       <use x="83.789062" xlink:href="#DejaVuSans-31"/>
      </g>
     </g>
    </g>
    <g id="xtick_9">
     <g id="line2d_20">
      <g>
       <use style="stroke:#000000;stroke-width:0.8;" x="444.354864" xlink:href="#m36c987769e" y="174.04"/>
      </g>
     </g>
     <g id="text_17">
      <!-- 0 -->
      <g transform="translate(441.173614 188.638438)scale(0.1 -0.1)">
       <use xlink:href="#DejaVuSans-30"/>
      </g>
     </g>
    </g>
    <g id="xtick_10">
     <g id="line2d_21">
      <g>
       <use style="stroke:#000000;stroke-width:0.8;" x="481.761786" xlink:href="#m36c987769e" y="174.04"/>
      </g>
     </g>
     <g id="text_18">
      <!-- 1 -->
      <g transform="translate(478.580536 188.638438)scale(0.1 -0.1)">
       <use xlink:href="#DejaVuSans-31"/>
      </g>
     </g>
    </g>
    <g id="xtick_11">
     <g id="line2d_22">
      <g>
       <use style="stroke:#000000;stroke-width:0.8;" x="519.168708" xlink:href="#m36c987769e" y="174.04"/>
      </g>
     </g>
     <g id="text_19">
      <!-- 2 -->
      <g transform="translate(515.987458 188.638438)scale(0.1 -0.1)">
       <use xlink:href="#DejaVuSans-32"/>
      </g>
     </g>
    </g>
    <g id="xtick_12">
     <g id="line2d_23">
      <g>
       <use style="stroke:#000000;stroke-width:0.8;" x="556.575629" xlink:href="#m36c987769e" y="174.04"/>
      </g>
     </g>
     <g id="text_20">
      <!-- 3 -->
      <g transform="translate(553.394379 188.638438)scale(0.1 -0.1)">
       <use xlink:href="#DejaVuSans-33"/>
      </g>
     </g>
    </g>
    <g id="text_21">
     <!-- Truth -->
     <g transform="translate(436.614675 202.316563)scale(0.1 -0.1)">
      <use xlink:href="#DejaVuSans-54"/>
      <use x="46.333984" xlink:href="#DejaVuSans-72"/>
      <use x="87.447266" xlink:href="#DejaVuSans-75"/>
      <use x="150.826172" xlink:href="#DejaVuSans-74"/>
      <use x="190.035156" xlink:href="#DejaVuSans-68"/>
     </g>
    </g>
   </g>
   <g id="matplotlib.axis_4">
    <g id="ytick_6">
     <g id="line2d_24">
      <g>
       <use style="stroke:#000000;stroke-width:0.8;" x="330.976138" xlink:href="#m56275370d2" y="151.306851"/>
      </g>
     </g>
     <g id="text_22">
      <!-- −2 -->
      <g transform="translate(309.23395 155.10607)scale(0.1 -0.1)">
       <use xlink:href="#DejaVuSans-2212"/>
       <use x="83.789062" xlink:href="#DejaVuSans-32"/>
      </g>
     </g>
    </g>
    <g id="ytick_7">
     <g id="line2d_25">
      <g>
       <use style="stroke:#000000;stroke-width:0.8;" x="330.976138" xlink:href="#m56275370d2" y="107.205738"/>
      </g>
     </g>
     <g id="text_23">
      <!-- 0 -->
      <g transform="translate(317.613638 111.004957)scale(0.1 -0.1)">
       <use xlink:href="#DejaVuSans-30"/>
      </g>
     </g>
    </g>
    <g id="ytick_8">
     <g id="line2d_26">
      <g>
       <use style="stroke:#000000;stroke-width:0.8;" x="330.976138" xlink:href="#m56275370d2" y="63.104626"/>
      </g>
     </g>
     <g id="text_24">
      <!-- 2 -->
      <g transform="translate(317.613638 66.903845)scale(0.1 -0.1)">
       <use xlink:href="#DejaVuSans-32"/>
      </g>
     </g>
    </g>
    <g id="text_25">
     <!-- Prediction -->
     <g transform="translate(303.154263 129.136719)rotate(-90)scale(0.1 -0.1)">
      <use xlink:href="#DejaVuSans-50"/>
      <use x="58.552734" xlink:href="#DejaVuSans-72"/>
      <use x="97.416016" xlink:href="#DejaVuSans-65"/>
      <use x="158.939453" xlink:href="#DejaVuSans-64"/>
      <use x="222.416016" xlink:href="#DejaVuSans-69"/>
      <use x="250.199219" xlink:href="#DejaVuSans-63"/>
      <use x="305.179688" xlink:href="#DejaVuSans-74"/>
      <use x="344.388672" xlink:href="#DejaVuSans-69"/>
      <use x="372.171875" xlink:href="#DejaVuSans-6f"/>
      <use x="433.353516" xlink:href="#DejaVuSans-6e"/>
     </g>
    </g>
   </g>
   <g id="line2d_27">
    <path clip-path="url(#pc7dfc153c6)" d="M 330.976138 174.04 
L 567.592275 34.56 
" style="fill:none;stroke:#c44e52;stroke-linecap:square;stroke-width:1.5;"/>
   </g>
   <g id="patch_29">
    <path d="M 330.976138 174.04 
L 330.976138 34.56 
" style="fill:none;stroke:#000000;stroke-linecap:square;stroke-linejoin:miter;stroke-width:0.8;"/>
   </g>
   <g id="patch_30">
    <path d="M 567.592275 174.04 
L 567.592275 34.56 
" style="fill:none;stroke:#000000;stroke-linecap:square;stroke-linejoin:miter;stroke-width:0.8;"/>
   </g>
   <g id="patch_31">
    <path d="M 330.976138 174.04 
L 567.592275 174.04 
" style="fill:none;stroke:#000000;stroke-linecap:square;stroke-linejoin:miter;stroke-width:0.8;"/>
   </g>
   <g id="patch_32">
    <path d="M 330.976138 34.56 
L 567.592275 34.56 
" style="fill:none;stroke:#000000;stroke-linecap:square;stroke-linejoin:miter;stroke-width:0.8;"/>
   </g>
  </g>
  <g id="axes_3">
   <g id="patch_33">
    <path d="M 614.232275 174.04 
L 850.848413 174.04 
L 850.848413 34.56 
L 614.232275 34.56 
z
" style="fill:#ffffff;"/>
   </g>
   <g id="matplotlib.axis_5">
    <g id="xtick_13">
     <g id="line2d_28">
      <g>
       <use style="stroke:#000000;stroke-width:0.8;" x="624.987554" xlink:href="#m36c987769e" y="174.04"/>
      </g>
     </g>
     <g id="text_26">
      <!-- 0 -->
      <g transform="translate(621.806304 188.638438)scale(0.1 -0.1)">
       <use xlink:href="#DejaVuSans-30"/>
      </g>
     </g>
    </g>
    <g id="xtick_14">
     <g id="line2d_29">
      <g>
       <use style="stroke:#000000;stroke-width:0.8;" x="668.443227" xlink:href="#m36c987769e" y="174.04"/>
      </g>
     </g>
     <g id="text_27">
      <!-- 20 -->
      <g transform="translate(662.080727 188.638438)scale(0.1 -0.1)">
       <use xlink:href="#DejaVuSans-32"/>
       <use x="63.623047" xlink:href="#DejaVuSans-30"/>
      </g>
     </g>
    </g>
    <g id="xtick_15">
     <g id="line2d_30">
      <g>
       <use style="stroke:#000000;stroke-width:0.8;" x="711.898899" xlink:href="#m36c987769e" y="174.04"/>
      </g>
     </g>
     <g id="text_28">
      <!-- 40 -->
      <g transform="translate(705.536399 188.638438)scale(0.1 -0.1)">
       <use xlink:href="#DejaVuSans-34"/>
       <use x="63.623047" xlink:href="#DejaVuSans-30"/>
      </g>
     </g>
    </g>
    <g id="xtick_16">
     <g id="line2d_31">
      <g>
       <use style="stroke:#000000;stroke-width:0.8;" x="755.354572" xlink:href="#m36c987769e" y="174.04"/>
      </g>
     </g>
     <g id="text_29">
      <!-- 60 -->
      <g transform="translate(748.992072 188.638438)scale(0.1 -0.1)">
       <defs>
        <path d="M 2113 2584 
Q 1688 2584 1439 2293 
Q 1191 2003 1191 1497 
Q 1191 994 1439 701 
Q 1688 409 2113 409 
Q 2538 409 2786 701 
Q 3034 994 3034 1497 
Q 3034 2003 2786 2293 
Q 2538 2584 2113 2584 
z
M 3366 4563 
L 3366 3988 
Q 3128 4100 2886 4159 
Q 2644 4219 2406 4219 
Q 1781 4219 1451 3797 
Q 1122 3375 1075 2522 
Q 1259 2794 1537 2939 
Q 1816 3084 2150 3084 
Q 2853 3084 3261 2657 
Q 3669 2231 3669 1497 
Q 3669 778 3244 343 
Q 2819 -91 2113 -91 
Q 1303 -91 875 529 
Q 447 1150 447 2328 
Q 447 3434 972 4092 
Q 1497 4750 2381 4750 
Q 2619 4750 2861 4703 
Q 3103 4656 3366 4563 
z
" id="DejaVuSans-36" transform="scale(0.015625)"/>
       </defs>
       <use xlink:href="#DejaVuSans-36"/>
       <use x="63.623047" xlink:href="#DejaVuSans-30"/>
      </g>
     </g>
    </g>
    <g id="xtick_17">
     <g id="line2d_32">
      <g>
       <use style="stroke:#000000;stroke-width:0.8;" x="798.810245" xlink:href="#m36c987769e" y="174.04"/>
      </g>
     </g>
     <g id="text_30">
      <!-- 80 -->
      <g transform="translate(792.447745 188.638438)scale(0.1 -0.1)">
       <defs>
        <path d="M 2034 2216 
Q 1584 2216 1326 1975 
Q 1069 1734 1069 1313 
Q 1069 891 1326 650 
Q 1584 409 2034 409 
Q 2484 409 2743 651 
Q 3003 894 3003 1313 
Q 3003 1734 2745 1975 
Q 2488 2216 2034 2216 
z
M 1403 2484 
Q 997 2584 770 2862 
Q 544 3141 544 3541 
Q 544 4100 942 4425 
Q 1341 4750 2034 4750 
Q 2731 4750 3128 4425 
Q 3525 4100 3525 3541 
Q 3525 3141 3298 2862 
Q 3072 2584 2669 2484 
Q 3125 2378 3379 2068 
Q 3634 1759 3634 1313 
Q 3634 634 3220 271 
Q 2806 -91 2034 -91 
Q 1263 -91 848 271 
Q 434 634 434 1313 
Q 434 1759 690 2068 
Q 947 2378 1403 2484 
z
M 1172 3481 
Q 1172 3119 1398 2916 
Q 1625 2713 2034 2713 
Q 2441 2713 2670 2916 
Q 2900 3119 2900 3481 
Q 2900 3844 2670 4047 
Q 2441 4250 2034 4250 
Q 1625 4250 1398 4047 
Q 1172 3844 1172 3481 
z
" id="DejaVuSans-38" transform="scale(0.015625)"/>
       </defs>
       <use xlink:href="#DejaVuSans-38"/>
       <use x="63.623047" xlink:href="#DejaVuSans-30"/>
      </g>
     </g>
    </g>
    <g id="xtick_18">
     <g id="line2d_33">
      <g>
       <use style="stroke:#000000;stroke-width:0.8;" x="842.265917" xlink:href="#m36c987769e" y="174.04"/>
      </g>
     </g>
     <g id="text_31">
      <!-- 100 -->
      <g transform="translate(832.722167 188.638438)scale(0.1 -0.1)">
       <use xlink:href="#DejaVuSans-31"/>
       <use x="63.623047" xlink:href="#DejaVuSans-30"/>
       <use x="127.246094" xlink:href="#DejaVuSans-30"/>
      </g>
     </g>
    </g>
   </g>
   <g id="matplotlib.axis_6">
    <g id="ytick_9">
     <g id="line2d_34">
      <g>
       <use style="stroke:#000000;stroke-width:0.8;" x="614.232275" xlink:href="#m56275370d2" y="151.306851"/>
      </g>
     </g>
     <g id="text_32">
      <!-- −2 -->
      <g transform="translate(592.490088 155.10607)scale(0.1 -0.1)">
       <use xlink:href="#DejaVuSans-2212"/>
       <use x="83.789062" xlink:href="#DejaVuSans-32"/>
      </g>
     </g>
    </g>
    <g id="ytick_10">
     <g id="line2d_35">
      <g>
       <use style="stroke:#000000;stroke-width:0.8;" x="614.232275" xlink:href="#m56275370d2" y="107.205738"/>
      </g>
     </g>
     <g id="text_33">
      <!-- 0 -->
      <g transform="translate(600.869775 111.004957)scale(0.1 -0.1)">
       <use xlink:href="#DejaVuSans-30"/>
      </g>
     </g>
    </g>
    <g id="ytick_11">
     <g id="line2d_36">
      <g>
       <use style="stroke:#000000;stroke-width:0.8;" x="614.232275" xlink:href="#m56275370d2" y="63.104626"/>
      </g>
     </g>
     <g id="text_34">
      <!-- 2 -->
      <g transform="translate(600.869775 66.903845)scale(0.1 -0.1)">
       <use xlink:href="#DejaVuSans-32"/>
      </g>
     </g>
    </g>
   </g>
   <g id="line2d_37">
    <path clip-path="url(#pfa25cb8ab5)" d="M 624.987554 174.04 
L 627.160338 124.985815 
L 629.333121 100.822336 
L 631.505905 92.58175 
L 633.678689 96.298775 
L 635.851472 80.241205 
L 638.024256 159.294385 
L 640.19704 102.781072 
L 642.369823 94.194896 
L 644.542607 98.391191 
L 646.71539 126.44283 
L 648.888174 62.369179 
L 651.060958 101.666766 
L 653.233741 97.043434 
L 655.406525 108.245631 
L 657.579309 94.527327 
L 659.752092 98.776747 
L 661.924876 134.635314 
L 664.09766 153.088671 
L 666.270443 86.319787 
L 668.443227 114.200718 
L 670.61601 109.713571 
L 672.788794 116.176545 
L 674.961578 120.502882 
L 677.134361 87.696377 
L 679.307145 144.357736 
L 681.479929 132.277569 
L 683.652712 134.49117 
L 685.825496 100.176801 
L 687.998279 95.878177 
L 690.171063 106.606099 
L 692.343847 69.739054 
L 694.51663 157.944879 
L 696.689414 83.124421 
L 698.862198 93.078438 
L 701.034981 111.040193 
L 703.207765 159.797967 
L 705.380549 110.208029 
L 707.553332 109.917361 
L 709.726116 123.807736 
L 711.898899 101.200194 
L 714.071683 134.380717 
L 716.244467 112.751613 
L 718.41725 96.539378 
L 720.590034 115.204565 
L 722.762818 116.31873 
L 724.935601 94.284547 
L 727.108385 153.564189 
L 729.281168 147.742327 
L 731.453952 159.783619 
L 733.626736 103.95162 
L 735.799519 126.176991 
L 737.972303 94.864472 
L 740.145087 145.028969 
L 742.31787 104.19775 
L 744.490654 84.697676 
L 746.663438 144.674373 
L 748.836221 108.699942 
L 751.009005 94.736205 
L 753.181788 81.636706 
L 755.354572 81.658244 
L 757.527356 80.232162 
L 759.700139 114.153291 
L 761.872923 50.434047 
L 764.045707 97.406386 
L 766.21849 114.814493 
L 768.391274 130.645653 
L 770.564058 127.736978 
L 772.736841 126.140836 
L 774.909625 64.655929 
L 777.082408 92.515493 
L 779.255192 125.451064 
L 781.427976 67.896011 
L 783.600759 121.460621 
L 785.773543 130.043771 
L 787.946327 100.519929 
L 790.11911 75.853354 
L 792.291894 100.375473 
L 794.464677 89.394285 
L 796.637461 93.551398 
L 798.810245 113.153342 
L 800.983028 94.287946 
L 803.155812 71.013241 
L 805.328596 119.277882 
L 807.501379 98.398504 
L 809.674163 144.564818 
L 811.846947 69.59927 
L 814.01973 99.855996 
L 816.192514 115.481841 
L 818.365297 104.056947 
L 820.538081 103.384852 
L 822.710865 118.280976 
L 824.883648 130.643802 
L 827.056432 85.679105 
L 829.229216 73.776221 
L 831.401999 89.354923 
L 833.574783 103.696104 
L 835.747566 125.176675 
L 837.92035 108.682402 
L 840.093134 135.032196 
" style="fill:none;stroke:#1f77b4;stroke-linecap:square;stroke-width:1.5;"/>
   </g>
   <g id="line2d_38">
    <path clip-path="url(#pfa25cb8ab5)" d="M 624.987554 129.286357 
L 627.160338 87.475662 
L 629.333121 77.995188 
L 631.505905 116.86105 
L 633.678689 104.482191 
L 635.851472 86.524657 
L 638.024256 112.254044 
L 640.19704 117.867136 
L 642.369823 130.721064 
L 644.542607 103.681813 
L 646.71539 130.165974 
L 648.888174 61.537827 
L 651.060958 82.015502 
L 653.233741 87.903999 
L 655.406525 115.830464 
L 657.579309 133.42252 
L 659.752092 105.508619 
L 661.924876 113.494773 
L 664.09766 143.190602 
L 666.270443 110.138066 
L 668.443227 103.297142 
L 670.61601 84.055204 
L 672.788794 130.723468 
L 674.961578 75.431265 
L 677.134361 111.3834 
L 679.307145 128.502654 
L 681.479929 132.682016 
L 683.652712 88.857493 
L 685.825496 118.675531 
L 687.998279 108.038532 
L 690.171063 91.190996 
L 692.343847 92.991604 
L 694.51663 90.779502 
L 696.689414 127.60925 
L 698.862198 65.633953 
L 701.034981 101.348622 
L 703.207765 72.342036 
L 705.380549 106.315575 
L 707.553332 90.683179 
L 709.726116 104.772641 
L 711.898899 111.164813 
L 714.071683 153.810809 
L 716.244467 143.735349 
L 718.41725 87.67254 
L 720.590034 101.132907 
L 722.762818 111.271715 
L 724.935601 108.969052 
L 727.108385 87.126474 
L 729.281168 87.68882 
L 731.453952 118.459883 
L 733.626736 107.36777 
L 735.799519 114.144285 
L 737.972303 125.400197 
L 740.145087 109.973641 
L 742.31787 114.259151 
L 744.490654 34.56 
L 746.663438 135.972579 
L 748.836221 110.086086 
L 751.009005 101.338599 
L 753.181788 106.682974 
L 755.354572 141.369921 
L 757.527356 142.671061 
L 759.700139 140.82796 
L 761.872923 84.928452 
L 764.045707 117.602633 
L 766.21849 109.476225 
L 768.391274 90.840781 
L 770.564058 106.153694 
L 772.736841 99.365215 
L 774.909625 117.004457 
L 777.082408 115.431356 
L 779.255192 109.488305 
L 781.427976 142.457782 
L 783.600759 136.825896 
L 785.773543 113.817792 
L 787.946327 84.435326 
L 790.11911 102.32613 
L 792.291894 88.677963 
L 794.464677 86.963324 
L 796.637461 98.865056 
L 798.810245 125.614995 
L 800.983028 93.368044 
L 803.155812 160.161112 
L 805.328596 94.140273 
L 807.501379 121.944608 
L 809.674163 80.391076 
L 811.846947 62.984504 
L 814.01973 114.776286 
L 816.192514 130.358039 
L 818.365297 117.507671 
L 820.538081 75.182965 
L 822.710865 127.804619 
L 824.883648 110.396941 
L 827.056432 76.058963 
L 829.229216 101.061738 
L 831.401999 60.495927 
L 833.574783 124.935286 
L 835.747566 113.279157 
L 837.92035 143.072718 
L 840.093134 78.914958 
" style="fill:none;stroke:#ff7f0e;stroke-linecap:square;stroke-width:1.5;"/>
   </g>
   <g id="patch_34">
    <path d="M 614.232275 174.04 
L 614.232275 34.56 
" style="fill:none;stroke:#000000;stroke-linecap:square;stroke-linejoin:miter;stroke-width:0.8;"/>
   </g>
   <g id="patch_35">
    <path d="M 850.848413 174.04 
L 850.848413 34.56 
" style="fill:none;stroke:#000000;stroke-linecap:square;stroke-linejoin:miter;stroke-width:0.8;"/>
   </g>
   <g id="patch_36">
    <path d="M 614.232275 174.04 
L 850.848413 174.04 
" style="fill:none;stroke:#000000;stroke-linecap:square;stroke-linejoin:miter;stroke-width:0.8;"/>
   </g>
   <g id="patch_37">
    <path d="M 614.232275 34.56 
L 850.848413 34.56 
" style="fill:none;stroke:#000000;stroke-linecap:square;stroke-linejoin:miter;stroke-width:0.8;"/>
   </g>
   <g id="legend_2">
    <g id="patch_38">
     <path d="M 621.232275 71.91625 
L 702.905713 71.91625 
Q 704.905713 71.91625 704.905713 69.91625 
L 704.905713 41.56 
Q 704.905713 39.56 702.905713 39.56 
L 621.232275 39.56 
Q 619.232275 39.56 619.232275 41.56 
L 619.232275 69.91625 
Q 619.232275 71.91625 621.232275 71.91625 
z
" style="fill:#ffffff;opacity:0.8;stroke:#cccccc;stroke-linejoin:miter;"/>
    </g>
    <g id="line2d_39">
     <path d="M 623.232275 47.658438 
L 643.232275 47.658438 
" style="fill:none;stroke:#1f77b4;stroke-linecap:square;stroke-width:1.5;"/>
    </g>
    <g id="line2d_40"/>
    <g id="text_35">
     <!-- Truth -->
     <g transform="translate(651.232275 51.158438)scale(0.1 -0.1)">
      <use xlink:href="#DejaVuSans-54"/>
      <use x="46.333984" xlink:href="#DejaVuSans-72"/>
      <use x="87.447266" xlink:href="#DejaVuSans-75"/>
      <use x="150.826172" xlink:href="#DejaVuSans-74"/>
      <use x="190.035156" xlink:href="#DejaVuSans-68"/>
     </g>
    </g>
    <g id="line2d_41">
     <path d="M 623.232275 62.336563 
L 643.232275 62.336563 
" style="fill:none;stroke:#ff7f0e;stroke-linecap:square;stroke-width:1.5;"/>
    </g>
    <g id="line2d_42"/>
    <g id="text_36">
     <!-- Prediction -->
     <g transform="translate(651.232275 65.836563)scale(0.1 -0.1)">
      <use xlink:href="#DejaVuSans-50"/>
      <use x="58.552734" xlink:href="#DejaVuSans-72"/>
      <use x="97.416016" xlink:href="#DejaVuSans-65"/>
      <use x="158.939453" xlink:href="#DejaVuSans-64"/>
      <use x="222.416016" xlink:href="#DejaVuSans-69"/>
      <use x="250.199219" xlink:href="#DejaVuSans-63"/>
      <use x="305.179688" xlink:href="#DejaVuSans-74"/>
      <use x="344.388672" xlink:href="#DejaVuSans-69"/>
      <use x="372.171875" xlink:href="#DejaVuSans-6f"/>
      <use x="433.353516" xlink:href="#DejaVuSans-6e"/>
     </g>
    </g>
   </g>
  </g>
  <g id="text_37">
   <!-- Multiple plots in one figure -->
   <g transform="translate(351.865313 13.438125)scale(0.12 -0.12)">
    <defs>
     <path d="M 628 4666 
L 1569 4666 
L 2759 1491 
L 3956 4666 
L 4897 4666 
L 4897 0 
L 4281 0 
L 4281 4097 
L 3078 897 
L 2444 897 
L 1241 4097 
L 1241 0 
L 628 0 
L 628 4666 
z
" id="DejaVuSans-4d" transform="scale(0.015625)"/>
     <path d="M 603 4863 
L 1178 4863 
L 1178 0 
L 603 0 
L 603 4863 
z
" id="DejaVuSans-6c" transform="scale(0.015625)"/>
     <path d="M 1159 525 
L 1159 -1331 
L 581 -1331 
L 581 3500 
L 1159 3500 
L 1159 2969 
Q 1341 3281 1617 3432 
Q 1894 3584 2278 3584 
Q 2916 3584 3314 3078 
Q 3713 2572 3713 1747 
Q 3713 922 3314 415 
Q 2916 -91 2278 -91 
Q 1894 -91 1617 61 
Q 1341 213 1159 525 
z
M 3116 1747 
Q 3116 2381 2855 2742 
Q 2594 3103 2138 3103 
Q 1681 3103 1420 2742 
Q 1159 2381 1159 1747 
Q 1159 1113 1420 752 
Q 1681 391 2138 391 
Q 2594 391 2855 752 
Q 3116 1113 3116 1747 
z
" id="DejaVuSans-70" transform="scale(0.015625)"/>
     <path id="DejaVuSans-20" transform="scale(0.015625)"/>
     <path d="M 2375 4863 
L 2375 4384 
L 1825 4384 
Q 1516 4384 1395 4259 
Q 1275 4134 1275 3809 
L 1275 3500 
L 2222 3500 
L 2222 3053 
L 1275 3053 
L 1275 0 
L 697 0 
L 697 3053 
L 147 3053 
L 147 3500 
L 697 3500 
L 697 3744 
Q 697 4328 969 4595 
Q 1241 4863 1831 4863 
L 2375 4863 
z
" id="DejaVuSans-66" transform="scale(0.015625)"/>
     <path d="M 2906 1791 
Q 2906 2416 2648 2759 
Q 2391 3103 1925 3103 
Q 1463 3103 1205 2759 
Q 947 2416 947 1791 
Q 947 1169 1205 825 
Q 1463 481 1925 481 
Q 2391 481 2648 825 
Q 2906 1169 2906 1791 
z
M 3481 434 
Q 3481 -459 3084 -895 
Q 2688 -1331 1869 -1331 
Q 1566 -1331 1297 -1286 
Q 1028 -1241 775 -1147 
L 775 -588 
Q 1028 -725 1275 -790 
Q 1522 -856 1778 -856 
Q 2344 -856 2625 -561 
Q 2906 -266 2906 331 
L 2906 616 
Q 2728 306 2450 153 
Q 2172 0 1784 0 
Q 1141 0 747 490 
Q 353 981 353 1791 
Q 353 2603 747 3093 
Q 1141 3584 1784 3584 
Q 2172 3584 2450 3431 
Q 2728 3278 2906 2969 
L 2906 3500 
L 3481 3500 
L 3481 434 
z
" id="DejaVuSans-67" transform="scale(0.015625)"/>
    </defs>
    <use xlink:href="#DejaVuSans-4d"/>
    <use x="86.279297" xlink:href="#DejaVuSans-75"/>
    <use x="149.658203" xlink:href="#DejaVuSans-6c"/>
    <use x="177.441406" xlink:href="#DejaVuSans-74"/>
    <use x="216.650391" xlink:href="#DejaVuSans-69"/>
    <use x="244.433594" xlink:href="#DejaVuSans-70"/>
    <use x="307.910156" xlink:href="#DejaVuSans-6c"/>
    <use x="335.693359" xlink:href="#DejaVuSans-65"/>
    <use x="397.216797" xlink:href="#DejaVuSans-20"/>
    <use x="429.003906" xlink:href="#DejaVuSans-70"/>
    <use x="492.480469" xlink:href="#DejaVuSans-6c"/>
    <use x="520.263672" xlink:href="#DejaVuSans-6f"/>
    <use x="581.445312" xlink:href="#DejaVuSans-74"/>
    <use x="620.654297" xlink:href="#DejaVuSans-73"/>
    <use x="672.753906" xlink:href="#DejaVuSans-20"/>
    <use x="704.541016" xlink:href="#DejaVuSans-69"/>
    <use x="732.324219" xlink:href="#DejaVuSans-6e"/>
    <use x="795.703125" xlink:href="#DejaVuSans-20"/>
    <use x="827.490234" xlink:href="#DejaVuSans-6f"/>
    <use x="888.671875" xlink:href="#DejaVuSans-6e"/>
    <use x="952.050781" xlink:href="#DejaVuSans-65"/>
    <use x="1013.574219" xlink:href="#DejaVuSans-20"/>
    <use x="1045.361328" xlink:href="#DejaVuSans-66"/>
    <use x="1080.566406" xlink:href="#DejaVuSans-69"/>
    <use x="1108.349609" xlink:href="#DejaVuSans-67"/>
    <use x="1171.826172" xlink:href="#DejaVuSans-75"/>
    <use x="1235.205078" xlink:href="#DejaVuSans-72"/>
    <use x="1274.068359" xlink:href="#DejaVuSans-65"/>
   </g>
  </g>
 </g>
 <defs>
  <clipPath id="p72638bb41d">
   <rect height="139.48" width="236.616138" x="47.72" y="34.56"/>
  </clipPath>
  <clipPath id="pc7dfc153c6">
   <rect height="139.48" width="236.616138" x="330.976138" y="34.56"/>
  </clipPath>
  <clipPath id="pfa25cb8ab5">
   <rect height="139.48" width="236.616138" x="614.232275" y="34.56"/>
  </clipPath>
 </defs>
</svg>
