<?xml version="1.0" encoding="utf-8" standalone="no"?>
<!DOCTYPE svg PUBLIC "-//W3C//DTD SVG 1.1//EN"
  "http://www.w3.org/Graphics/SVG/1.1/DTD/svg11.dtd">
<svg xmlns:xlink="http://www.w3.org/1999/xlink" width="576pt" height="72pt" viewBox="0 0 576 72" xmlns="http://www.w3.org/2000/svg" version="1.1">
 <metadata>
  <rdf:RDF xmlns:dc="http://purl.org/dc/elements/1.1/" xmlns:cc="http://creativecommons.org/ns#" xmlns:rdf="http://www.w3.org/1999/02/22-rdf-syntax-ns#">
   <cc:Work>
    <dc:type rdf:resource="http://purl.org/dc/dcmitype/StillImage"/>
    <dc:date>2024-04-26T07:08:54.145621</dc:date>
    <dc:format>image/svg+xml</dc:format>
    <dc:creator>
     <cc:Agent>
      <dc:title>Matplotlib v3.8.4, https://matplotlib.org/</dc:title>
     </cc:Agent>
    </dc:creator>
   </cc:Work>
  </rdf:RDF>
 </metadata>
 <defs>
  <style type="text/css">*{stroke-linejoin: round; stroke-linecap: butt}</style>
 </defs>
 <g id="figure_1">
  <g id="patch_1">
   <path d="M 0 72 
L 576 72 
L 576 0 
L 0 0 
z
" style="fill: #ffffff"/>
  </g>
  <g id="axes_1">
   <g id="patch_2">
    <path d="M 72 64.08 
L 518.4 64.08 
L 518.4 8.64 
L 72 8.64 
L 72 64.08 
z
" style="fill: none"/>
   </g>
   <g id="PolyCollection_1">
    <defs>
     <path id="mf49c2251f3" d="M 142.780223 -37.156131 
L 142.780223 -33.775476 
L 143.249162 -33.83155 
L 143.7181 -27.133586 
L 144.187039 -24.542142 
L 144.655977 -21.459199 
L 145.124916 -21.847929 
L 145.593854 -21.837324 
L 146.062793 -22.462844 
L 146.531731 -22.152762 
L 147.00067 -22.788087 
L 147.469608 -22.987914 
L 147.938547 -22.740164 
L 148.407486 -23.589729 
L 148.876424 -23.217364 
L 149.345363 -24.588637 
L 149.814301 -24.481357 
L 150.28324 -24.481273 
L 150.752178 -24.985425 
L 151.221117 -25.156876 
L 151.690055 -25.113596 
L 152.158994 -25.200722 
L 152.627933 -25.047242 
L 153.096871 -25.031889 
L 153.56581 -24.87453 
L 154.034748 -24.319011 
L 154.503687 -24.668578 
L 154.972625 -31.872076 
L 155.441564 -33.653649 
L 155.910502 -34.451418 
L 156.379441 -34.977753 
L 156.848379 -35.211262 
L 157.317318 -32.717794 
L 157.786257 -26.546183 
L 158.255195 -21.423483 
L 158.724134 -18.294935 
L 159.193072 -19.101148 
L 159.662011 -19.257575 
L 160.130949 -19.10148 
L 160.599888 -18.921899 
L 161.068826 -20.012363 
L 161.537765 -20.496833 
L 162.006703 -20.103769 
L 162.475642 -22.487042 
L 162.944581 -22.930111 
L 163.413519 -23.433938 
L 163.882458 -24.362078 
L 164.351396 -24.294694 
L 164.820335 -24.178742 
L 165.289273 -25.311916 
L 165.758212 -26.049118 
L 166.22715 -26.10983 
L 166.696089 -26.094839 
L 167.165028 -26.471343 
L 167.633966 -27.023558 
L 168.102905 -29.595361 
L 168.571843 -31.627299 
L 169.040782 -32.219985 
L 169.50972 -31.132053 
L 169.978659 -27.794343 
L 170.447597 -27.168188 
L 170.916536 -27.239331 
L 171.385474 -27.3256 
L 171.854413 -28.296978 
L 172.323352 -27.789882 
L 172.79229 -28.432797 
L 173.261229 -28.083887 
L 173.730167 -28.214675 
L 174.199106 -28.470888 
L 174.668044 -28.159919 
L 175.136983 -27.495577 
L 175.605921 -28.310847 
L 176.07486 -28.394401 
L 176.543798 -27.804559 
L 177.012737 -28.184397 
L 177.481676 -28.21548 
L 177.950614 -27.847651 
L 178.419553 -28.444008 
L 178.888491 -28.963669 
L 179.35743 -32.822944 
L 179.826368 -33.968198 
L 180.295307 -34.448365 
L 180.764245 -34.750387 
L 181.233184 -35.033842 
L 181.702122 -34.982336 
L 182.171061 -34.179885 
L 182.64 -29.481497 
L 183.108938 -25.162266 
L 183.577877 -19.524232 
L 184.046815 -17.393602 
L 184.515754 -18.017032 
L 184.984692 -16.658455 
L 185.453631 -16.885866 
L 185.922569 -17.43771 
L 186.391508 -17.159634 
L 186.860447 -18.408946 
L 187.329385 -19.087598 
L 187.798324 -20.753118 
L 188.267262 -22.443905 
L 188.736201 -23.546905 
L 189.205139 -24.161988 
L 189.674078 -25.00302 
L 190.143016 -24.973719 
L 190.611955 -25.565947 
L 191.080893 -25.990156 
L 191.549832 -26.752704 
L 192.018771 -30.897795 
L 192.487709 -32.482847 
L 192.956648 -31.258951 
L 193.425586 -31.57608 
L 193.894525 -29.450445 
L 194.363463 -28.574246 
L 194.832402 -28.157901 
L 195.30134 -28.619617 
L 195.770279 -27.691205 
L 196.239217 -28.699896 
L 196.708156 -29.18406 
L 197.177095 -29.240992 
L 197.646033 -29.511389 
L 198.114972 -29.388945 
L 198.58391 -29.562263 
L 199.052849 -29.902048 
L 199.521787 -29.65329 
L 199.990726 -28.799838 
L 200.459664 -29.001138 
L 200.928603 -28.700253 
L 201.397542 -28.279286 
L 201.86648 -27.657677 
L 202.335419 -28.093981 
L 202.804357 -29.945276 
L 203.273296 -32.278654 
L 203.742234 -34.085097 
L 204.211173 -34.45846 
L 204.680111 -33.868573 
L 205.14905 -31.767407 
L 205.617988 -28.010171 
L 206.086927 -25.48357 
L 206.555866 -18.859688 
L 207.024804 -20.970514 
L 207.493743 -18.964996 
L 207.962681 -18.578463 
L 208.43162 -18.340155 
L 208.900558 -18.406499 
L 209.369497 -18.983312 
L 209.838435 -18.407426 
L 210.307374 -18.762452 
L 210.776312 -17.426926 
L 211.245251 -18.035951 
L 211.71419 -17.458315 
L 212.183128 -16.742871 
L 212.652067 -21.255166 
L 213.121005 -31.105049 
L 213.589944 -27.70473 
L 214.058882 -26.129671 
L 214.527821 -33.160685 
L 214.996759 -34.327446 
L 215.465698 -34.605209 
L 215.934637 -35.221391 
L 216.403575 -35.036645 
L 216.872514 -34.676223 
L 217.341452 -32.451388 
L 217.810391 -29.356165 
L 218.279329 -22.368908 
L 218.748268 -20.634259 
L 219.217206 -18.803604 
L 219.686145 -25.149716 
L 220.155083 -29.732566 
L 220.624022 -31.821844 
L 221.092961 -31.370427 
L 221.561899 -27.584546 
L 222.030838 -25.806233 
L 222.499776 -23.942328 
L 222.968715 -23.668116 
L 223.437653 -24.18398 
L 223.906592 -24.53105 
L 224.37553 -25.010498 
L 224.844469 -25.064681 
L 225.313407 -25.374446 
L 225.782346 -25.396359 
L 226.251285 -25.17766 
L 226.720223 -25.03512 
L 227.189162 -25.195845 
L 227.6581 -26.200126 
L 228.127039 -26.811505 
L 228.595977 -27.100308 
L 229.064916 -27.608096 
L 229.533854 -27.904657 
L 230.002793 -28.771865 
L 230.471731 -28.872237 
L 230.94067 -28.899451 
L 231.409609 -28.850423 
L 231.878547 -28.341451 
L 232.347486 -28.837769 
L 232.816424 -29.193312 
L 233.285363 -31.805322 
L 233.754301 -33.097096 
L 234.22324 -34.22828 
L 234.692178 -34.731654 
L 235.161117 -34.751301 
L 235.630056 -34.80853 
L 236.098994 -34.907856 
L 236.567933 -35.033057 
L 237.036871 -35.073194 
L 237.50581 -35.24775 
L 237.974748 -35.132897 
L 238.443687 -35.148725 
L 238.912625 -35.163216 
L 239.381564 -35.120441 
L 239.850502 -33.684274 
L 240.319441 -28.29392 
L 240.78838 -23.07649 
L 241.257318 -22.197898 
L 241.726257 -20.248135 
L 242.195195 -23.480241 
L 242.664134 -20.077216 
L 243.133072 -22.424827 
L 243.602011 -26.238631 
L 244.070949 -30.975111 
L 244.539888 -33.468085 
L 245.008826 -33.740101 
L 245.477765 -32.093542 
L 245.946704 -28.712623 
L 246.415642 -27.536034 
L 246.884581 -26.128012 
L 247.353519 -27.21229 
L 247.822458 -27.333393 
L 248.291396 -28.266648 
L 248.760335 -28.599389 
L 249.229273 -29.745215 
L 249.698212 -31.143134 
L 250.167151 -32.678155 
L 250.636089 -31.585557 
L 251.105028 -31.272372 
L 251.573966 -30.010784 
L 252.042905 -29.579599 
L 252.511843 -29.687331 
L 252.980782 -29.408713 
L 253.44972 -29.939539 
L 253.918659 -30.372479 
L 254.387597 -30.365424 
L 254.856536 -30.784784 
L 255.325475 -30.890188 
L 255.794413 -30.898921 
L 256.263352 -31.195937 
L 256.73229 -31.919579 
L 257.201229 -31.818731 
L 257.670167 -31.220264 
L 258.139106 -31.213208 
L 258.608044 -31.862809 
L 259.076983 -30.320834 
L 259.545921 -30.777889 
L 260.01486 -31.52136 
L 260.483799 -30.991286 
L 260.952737 -30.206189 
L 261.421676 -30.055274 
L 261.890614 -29.875927 
L 262.359553 -29.578186 
L 262.828491 -29.22683 
L 263.29743 -28.91882 
L 263.766368 -28.424592 
L 264.235307 -28.336777 
L 264.704246 -28.528128 
L 265.173184 -28.68698 
L 265.642123 -28.894716 
L 266.111061 -28.773873 
L 266.58 -29.256158 
L 267.048938 -29.1016 
L 267.517877 -29.297961 
L 267.986815 -29.581448 
L 268.455754 -29.822521 
L 268.924692 -30.239341 
L 269.393631 -30.650701 
L 269.86257 -30.936629 
L 270.331508 -31.382223 
L 270.800447 -31.633539 
L 271.269385 -32.204788 
L 271.738324 -32.169789 
L 272.207262 -32.362956 
L 272.676201 -32.225557 
L 273.145139 -32.207472 
L 273.614078 -34.107903 
L 274.083016 -34.577226 
L 274.551955 -35.130941 
L 275.020894 -35.244272 
L 275.489832 -35.435845 
L 275.958771 -35.504773 
L 276.427709 -35.476566 
L 276.896648 -35.401955 
L 277.365586 -35.442926 
L 277.834525 -35.421525 
L 278.303463 -35.367413 
L 278.772402 -35.381555 
L 279.24134 -35.379724 
L 279.710279 -35.329407 
L 280.179218 -35.418723 
L 280.648156 -35.358727 
L 281.117095 -35.370489 
L 281.586033 -35.4661 
L 282.054972 -35.409792 
L 282.52391 -35.420742 
L 282.992849 -35.410321 
L 283.461787 -35.437776 
L 283.930726 -33.778007 
L 284.399665 -31.441699 
L 284.868603 -22.274792 
L 285.337542 -19.641482 
L 285.80648 -17.785609 
L 286.275419 -18.902082 
L 286.744357 -19.312491 
L 287.213296 -19.353643 
L 287.682234 -20.375283 
L 288.151173 -20.192829 
L 288.620111 -20.938468 
L 289.08905 -20.872798 
L 289.557989 -21.885613 
L 290.026927 -21.568364 
L 290.495866 -21.348063 
L 290.964804 -20.948596 
L 291.433743 -21.700464 
L 291.902681 -22.906069 
L 292.37162 -23.131114 
L 292.840558 -23.616411 
L 293.309497 -23.826506 
L 293.778435 -24.304971 
L 294.247374 -24.15227 
L 294.716313 -24.670592 
L 295.185251 -25.296672 
L 295.65419 -27.228727 
L 296.123128 -29.777819 
L 296.592067 -33.87325 
L 297.061005 -34.09921 
L 297.529944 -34.518361 
L 297.998882 -34.901454 
L 298.467821 -34.993043 
L 298.93676 -35.123688 
L 299.405698 -35.015804 
L 299.874637 -35.336139 
L 300.343575 -35.183554 
L 300.812514 -35.101595 
L 301.281452 -35.088279 
L 301.750391 -35.092355 
L 302.219329 -35.304669 
L 302.688268 -35.235145 
L 303.157206 -35.282499 
L 303.626145 -35.220393 
L 304.095084 -35.256579 
L 304.564022 -35.252889 
L 305.032961 -35.365706 
L 305.501899 -35.401691 
L 305.970838 -35.4432 
L 306.439776 -35.421886 
L 306.908715 -34.754997 
L 307.377653 -32.364523 
L 307.846592 -28.364734 
L 308.31553 -27.309239 
L 308.784469 -26.207407 
L 309.253408 -26.561454 
L 309.722346 -25.283665 
L 310.191285 -24.270957 
L 310.660223 -24.540208 
L 311.129162 -24.831434 
L 311.5981 -24.171678 
L 312.067039 -24.713154 
L 312.535977 -24.860436 
L 313.004916 -23.773899 
L 313.473855 -23.573644 
L 313.942793 -23.311862 
L 314.411732 -22.641799 
L 314.88067 -22.394292 
L 315.349609 -22.334408 
L 315.818547 -22.162856 
L 316.287486 -22.69682 
L 316.756424 -22.89512 
L 317.225363 -23.061453 
L 317.694301 -24.313792 
L 318.16324 -24.571781 
L 318.632179 -25.356879 
L 319.101117 -26.706655 
L 319.570056 -29.577327 
L 320.038994 -30.397395 
L 320.507933 -29.333798 
L 320.976871 -27.44359 
L 321.44581 -27.674884 
L 321.914748 -25.538303 
L 322.383687 -24.510671 
L 322.852625 -24.545347 
L 323.321564 -25.648867 
L 323.790503 -24.675888 
L 324.259441 -24.015749 
L 324.72838 -24.501202 
L 325.197318 -25.193446 
L 325.666257 -25.681235 
L 326.135195 -26.051165 
L 326.604134 -26.318386 
L 327.073072 -26.452719 
L 327.542011 -26.0222 
L 328.010949 -26.233897 
L 328.479888 -26.179566 
L 328.948827 -27.112932 
L 329.417765 -27.316099 
L 329.886704 -27.25614 
L 330.355642 -27.125525 
L 330.824581 -27.113752 
L 331.293519 -26.808078 
L 331.762458 -27.089769 
L 332.231396 -27.254672 
L 332.700335 -27.440209 
L 333.169274 -28.135693 
L 333.638212 -28.268292 
L 334.107151 -28.32082 
L 334.576089 -28.910578 
L 335.045028 -28.98874 
L 335.513966 -28.76636 
L 335.982905 -28.991681 
L 336.451843 -29.481667 
L 336.920782 -29.34648 
L 337.38972 -29.496056 
L 337.858659 -29.30037 
L 338.327598 -29.366571 
L 338.796536 -29.394121 
L 339.265475 -29.320569 
L 339.734413 -29.223932 
L 340.203352 -29.100325 
L 340.67229 -29.210493 
L 341.141229 -28.876407 
L 341.610167 -29.049652 
L 342.079106 -29.358107 
L 342.548044 -29.346646 
L 343.016983 -29.647397 
L 343.485922 -29.629702 
L 343.95486 -30.06951 
L 344.423799 -30.108666 
L 344.892737 -30.248641 
L 345.361676 -30.3237 
L 345.830614 -30.24217 
L 346.299553 -30.17945 
L 346.768491 -30.286714 
L 347.23743 -30.529272 
L 347.706369 -30.815275 
L 348.175307 -31.00271 
L 348.644246 -31.243077 
L 349.113184 -31.355715 
L 349.582123 -31.451916 
L 350.051061 -31.441385 
L 350.52 -31.507719 
L 350.988938 -31.621287 
L 351.457877 -31.924042 
L 351.926815 -32.397003 
L 352.395754 -32.762921 
L 352.864693 -33.200598 
L 353.333631 -33.749824 
L 353.80257 -33.908158 
L 354.271508 -34.785679 
L 354.740447 -34.999125 
L 355.209385 -35.046313 
L 355.678324 -35.188617 
L 356.147262 -35.280484 
L 356.616201 -35.357268 
L 357.085139 -35.406295 
L 357.554078 -35.37891 
L 358.023017 -35.381384 
L 358.491955 -35.361246 
L 358.960894 -35.395328 
L 359.429832 -35.465636 
L 359.898771 -35.422875 
L 360.367709 -35.373558 
L 360.836648 -35.422915 
L 361.305586 -35.420486 
L 361.774525 -35.431745 
L 362.243463 -35.433186 
L 362.712402 -35.454416 
L 363.181341 -35.396399 
L 363.650279 -35.417522 
L 364.119218 -35.43028 
L 364.588156 -35.418823 
L 365.057095 -35.460843 
L 365.526033 -35.45932 
L 365.994972 -35.455466 
L 366.46391 -35.472597 
L 366.932849 -35.466341 
L 367.401788 -35.484369 
L 367.870726 -35.489758 
L 368.339665 -35.467667 
L 368.808603 -35.481197 
L 369.277542 -35.483847 
L 369.74648 -35.477781 
L 370.215419 -35.47711 
L 370.684357 -35.470445 
L 371.153296 -35.476074 
L 371.622234 -35.476037 
L 372.091173 -35.482793 
L 372.560112 -35.503611 
L 373.02905 -35.530811 
L 373.497989 -35.525394 
L 373.966927 -35.544702 
L 374.435866 -35.564507 
L 374.904804 -35.558408 
L 375.373743 -35.545855 
L 375.842681 -35.55367 
L 376.31162 -35.563798 
L 376.780558 -35.55351 
L 377.249497 -35.558205 
L 377.718436 -35.562918 
L 378.187374 -35.568765 
L 378.656313 -35.577812 
L 379.125251 -35.577179 
L 379.59419 -35.571757 
L 380.063128 -35.580725 
L 380.532067 -35.58476 
L 381.001005 -35.577678 
L 381.469944 -35.584493 
L 381.938883 -35.598883 
L 382.407821 -35.598603 
L 382.87676 -35.608496 
L 383.345698 -35.603707 
L 383.814637 -35.589983 
L 384.283575 -35.588266 
L 384.752514 -35.591368 
L 385.221452 -35.593955 
L 385.690391 -35.595413 
L 386.159329 -35.605567 
L 386.628268 -35.610129 
L 387.097207 -35.605749 
L 387.566145 -35.610347 
L 388.035084 -35.606383 
L 388.504022 -35.607895 
L 388.972961 -35.610326 
L 389.441899 -35.596783 
L 389.910838 -35.61157 
L 390.379776 -35.611896 
L 390.848715 -35.607789 
L 391.317653 -35.60983 
L 391.786592 -35.607495 
L 392.255531 -35.609001 
L 392.724469 -35.610358 
L 393.193408 -35.610382 
L 393.662346 -35.605067 
L 394.131285 -35.610919 
L 394.600223 -35.609914 
L 395.069162 -35.609415 
L 395.5381 -35.613067 
L 396.007039 -35.617944 
L 396.475978 -35.618603 
L 396.944916 -35.617848 
L 397.413855 -35.619985 
L 397.882793 -35.617047 
L 398.351732 -35.621531 
L 398.82067 -35.614201 
L 399.289609 -35.620776 
L 399.758547 -35.62203 
L 400.227486 -35.617216 
L 400.696424 -35.626064 
L 401.165363 -35.620934 
L 401.634302 -35.625645 
L 402.10324 -35.62422 
L 402.572179 -35.622744 
L 403.041117 -35.623899 
L 403.510056 -35.626304 
L 403.978994 -35.626598 
L 404.447933 -35.625312 
L 404.916871 -35.628831 
L 405.38581 -35.622996 
L 405.854748 -35.626752 
L 406.323687 -35.625743 
L 406.792626 -35.62828 
L 407.261564 -35.627841 
L 407.730503 -35.630276 
L 408.199441 -35.631114 
L 408.66838 -35.631394 
L 409.137318 -35.630636 
L 409.606257 -35.628832 
L 410.075195 -35.626859 
L 410.544134 -35.624608 
L 411.013072 -35.624441 
L 411.482011 -35.626089 
L 411.95095 -35.627654 
L 412.419888 -35.629411 
L 412.888827 -35.629465 
L 413.357765 -35.628575 
L 413.826704 -35.629888 
L 414.295642 -35.627342 
L 414.764581 -35.629608 
L 415.233519 -35.630822 
L 415.702458 -35.630387 
L 416.171397 -35.632792 
L 416.640335 -35.633485 
L 417.109274 -35.635677 
L 417.578212 -35.636371 
L 418.047151 -35.634457 
L 418.516089 -35.634571 
L 418.985028 -35.634548 
L 419.453966 -35.63181 
L 419.922905 -35.631563 
L 420.391843 -35.631322 
L 420.860782 -35.633514 
L 421.329721 -35.633098 
L 421.798659 -35.634891 
L 422.267598 -35.635523 
L 422.736536 -35.634206 
L 423.205475 -35.636301 
L 423.674413 -35.634066 
L 424.143352 -35.636271 
L 424.61229 -35.636485 
L 425.081229 -35.636966 
L 425.550167 -35.637326 
L 426.019106 -35.636311 
L 426.488045 -35.63624 
L 426.956983 -35.636265 
L 427.425922 -35.636213 
L 427.89486 -35.635844 
L 428.363799 -35.635581 
L 428.832737 -35.635739 
L 429.301676 -35.636098 
L 429.770614 -35.636276 
L 430.239553 -35.636409 
L 430.708492 -35.636949 
L 431.17743 -35.636607 
L 431.646369 -35.635103 
L 432.115307 -35.636735 
L 432.584246 -35.635426 
L 433.053184 -35.635978 
L 433.522123 -35.634986 
L 433.991061 -35.6348 
L 434.46 -35.635807 
L 434.928938 -35.635668 
L 435.397877 -35.635751 
L 435.866816 -35.636018 
L 436.335754 -35.636358 
L 436.804693 -35.636069 
L 437.273631 -35.635003 
L 437.74257 -35.63555 
L 438.211508 -35.636041 
L 438.680447 -35.636724 
L 439.149385 -35.63628 
L 439.618324 -35.636538 
L 440.087262 -35.636618 
L 440.556201 -35.636307 
L 441.02514 -35.636529 
L 441.494078 -35.635341 
L 441.963017 -35.635069 
L 442.431955 -35.636077 
L 442.900894 -35.63615 
L 443.369832 -35.636645 
L 443.838771 -35.637301 
L 444.307709 -35.637165 
L 444.776648 -35.636709 
L 445.245587 -35.636841 
L 445.714525 -35.637255 
L 446.183464 -35.637177 
L 446.652402 -35.637319 
L 447.121341 -35.637206 
L 447.590279 -35.637721 
L 448.059218 -35.637975 
L 448.528156 -35.637766 
L 448.997095 -35.637475 
L 449.466033 -35.63768 
L 449.934972 -35.637739 
L 450.403911 -35.637279 
L 450.872849 -35.637311 
L 451.341788 -35.637193 
L 451.810726 -35.637547 
L 452.279665 -35.63757 
L 452.748603 -35.637752 
L 453.217542 -35.637797 
L 453.68648 -35.637497 
L 454.155419 -35.638086 
L 454.624357 -35.638379 
L 455.093296 -35.637789 
L 455.562235 -35.63839 
L 456.031173 -35.637971 
L 456.500112 -35.637895 
L 456.96905 -35.637982 
L 457.437989 -35.638231 
L 457.906927 -35.63763 
L 458.375866 -35.638157 
L 458.844804 -35.638172 
L 459.313743 -35.638187 
L 459.782681 -35.638028 
L 460.25162 -35.638049 
L 460.720559 -35.638695 
L 461.189497 -35.638073 
L 461.658436 -35.638337 
L 462.127374 -35.638574 
L 462.596313 -35.638373 
L 463.065251 -35.638394 
L 463.53419 -35.6385 
L 464.003128 -35.638323 
L 464.472067 -35.638056 
L 464.941006 -35.63806 
L 465.409944 -35.63798 
L 465.878883 -35.638147 
L 466.347821 -35.637947 
L 466.81676 -35.637672 
L 467.285698 -35.637727 
L 467.754637 -35.63834 
L 468.223575 -35.638614 
L 468.692514 -35.63852 
L 469.161452 -35.638475 
L 469.630391 -35.638418 
L 470.09933 -35.638395 
L 470.568268 -35.63848 
L 471.037207 -35.637595 
L 471.506145 -35.637952 
L 471.975084 -35.638428 
L 472.444022 -35.638268 
L 472.912961 -35.63827 
L 473.381899 -35.637999 
L 473.850838 -35.638295 
L 474.319776 -35.638135 
L 474.788715 -35.638382 
L 475.257654 -35.638414 
L 475.726592 -35.638213 
L 476.195531 -35.638617 
L 476.664469 -35.638443 
L 477.133408 -35.637772 
L 477.602346 -35.63763 
L 478.071285 -35.638303 
L 478.540223 -35.638369 
L 479.009162 -35.637591 
L 479.478101 -35.638293 
L 479.947039 -35.637433 
L 480.415978 -35.638251 
L 480.884916 -35.637672 
L 481.353855 -35.638679 
L 481.822793 -35.638515 
L 482.291732 -35.637907 
L 482.76067 -35.638281 
L 483.229609 -35.638458 
L 483.698547 -35.638382 
L 484.167486 -35.638784 
L 484.636425 -35.638542 
L 485.105363 -35.638013 
L 485.574302 -35.638551 
L 486.04324 -35.638201 
L 486.512179 -35.638261 
L 486.981117 -35.637917 
L 487.450056 -35.638542 
L 487.918994 -35.638672 
L 488.387933 -35.638522 
L 488.856871 -35.638577 
L 489.32581 -35.63764 
L 489.794749 -35.63846 
L 490.263687 -35.638637 
L 490.732626 -35.638272 
L 491.201564 -35.638511 
L 491.670503 -35.638068 
L 492.139441 -35.63817 
L 492.60838 -35.638495 
L 493.077318 -35.638428 
L 493.546257 -35.638482 
L 494.015196 -35.638409 
L 494.484134 -35.638271 
L 494.953073 -35.638363 
L 495.422011 -35.638649 
L 495.89095 -35.637857 
L 496.359888 -35.638119 
L 496.828827 -35.637996 
L 497.297765 -35.638706 
L 497.766704 -35.638292 
L 498.235642 -35.638473 
L 498.704581 -35.638572 
L 499.17352 -35.638159 
L 499.642458 -35.638392 
L 500.111397 -35.638589 
L 500.580335 -35.638303 
L 501.049274 -35.638364 
L 501.518212 -35.638487 
L 501.987151 -35.638026 
L 502.456089 -35.638249 
L 502.925028 -35.638581 
L 503.393966 -35.63789 
L 503.862905 -35.638705 
L 504.331844 -35.638571 
L 504.800782 -35.638299 
L 505.269721 -35.638756 
L 505.738659 -35.638759 
L 506.207598 -35.638193 
L 506.676536 -35.638644 
L 507.145475 -35.638229 
L 507.614413 -35.638418 
L 508.083352 -35.638626 
L 508.55229 -35.638193 
L 509.021229 -35.638288 
L 509.490168 -35.638747 
L 509.959106 -35.638789 
L 510.428045 -35.638166 
L 510.896983 -35.638701 
L 511.365922 -35.638537 
L 511.83486 -35.638685 
L 512.303799 -35.638633 
L 512.772737 -35.63876 
L 513.241676 -35.63874 
L 513.710615 -35.637955 
L 514.179553 -35.638553 
L 514.648492 -35.638706 
L 515.11743 -35.638324 
L 515.586369 -35.638412 
L 516.055307 -35.638536 
L 516.524246 -35.638665 
L 516.993184 -35.63886 
L 517.462123 -35.638785 
L 517.931061 -35.640354 
L 517.931061 -35.640354 
L 517.931061 -35.640354 
L 517.462123 -35.641122 
L 516.993184 -35.64131 
L 516.524246 -35.641215 
L 516.055307 -35.641066 
L 515.586369 -35.641473 
L 515.11743 -35.641356 
L 514.648492 -35.641378 
L 514.179553 -35.641393 
L 513.710615 -35.641554 
L 513.241676 -35.641337 
L 512.772737 -35.641153 
L 512.303799 -35.641167 
L 511.83486 -35.641548 
L 511.365922 -35.641345 
L 510.896983 -35.641102 
L 510.428045 -35.641166 
L 509.959106 -35.641426 
L 509.490168 -35.641204 
L 509.021229 -35.641551 
L 508.55229 -35.641722 
L 508.083352 -35.641764 
L 507.614413 -35.641704 
L 507.145475 -35.641307 
L 506.676536 -35.64169 
L 506.207598 -35.641104 
L 505.738659 -35.641446 
L 505.269721 -35.641357 
L 504.800782 -35.641406 
L 504.331844 -35.641635 
L 503.862905 -35.641504 
L 503.393966 -35.641583 
L 502.925028 -35.641786 
L 502.456089 -35.641593 
L 501.987151 -35.641727 
L 501.518212 -35.641442 
L 501.049274 -35.642092 
L 500.580335 -35.641681 
L 500.111397 -35.641489 
L 499.642458 -35.641846 
L 499.17352 -35.641385 
L 498.704581 -35.64185 
L 498.235642 -35.64179 
L 497.766704 -35.641677 
L 497.297765 -35.641402 
L 496.828827 -35.64189 
L 496.359888 -35.641502 
L 495.89095 -35.641751 
L 495.422011 -35.641794 
L 494.953073 -35.642116 
L 494.484134 -35.641628 
L 494.015196 -35.641885 
L 493.546257 -35.641646 
L 493.077318 -35.641932 
L 492.60838 -35.641496 
L 492.139441 -35.641679 
L 491.670503 -35.642047 
L 491.201564 -35.641576 
L 490.732626 -35.641915 
L 490.263687 -35.641795 
L 489.794749 -35.641915 
L 489.32581 -35.641814 
L 488.856871 -35.641663 
L 488.387933 -35.642127 
L 487.918994 -35.64149 
L 487.450056 -35.641753 
L 486.981117 -35.641481 
L 486.512179 -35.642495 
L 486.04324 -35.641792 
L 485.574302 -35.641897 
L 485.105363 -35.642015 
L 484.636425 -35.641526 
L 484.167486 -35.641764 
L 483.698547 -35.641565 
L 483.229609 -35.641593 
L 482.76067 -35.641936 
L 482.291732 -35.641948 
L 481.822793 -35.641528 
L 481.353855 -35.641445 
L 480.884916 -35.641652 
L 480.415978 -35.641731 
L 479.947039 -35.641894 
L 479.478101 -35.641796 
L 479.009162 -35.641917 
L 478.540223 -35.641507 
L 478.071285 -35.642061 
L 477.602346 -35.642594 
L 477.133408 -35.641825 
L 476.664469 -35.641556 
L 476.195531 -35.641841 
L 475.726592 -35.64224 
L 475.257654 -35.641477 
L 474.788715 -35.641876 
L 474.319776 -35.641725 
L 473.850838 -35.642058 
L 473.381899 -35.6417 
L 472.912961 -35.642065 
L 472.444022 -35.641514 
L 471.975084 -35.641711 
L 471.506145 -35.641712 
L 471.037207 -35.641799 
L 470.568268 -35.641921 
L 470.09933 -35.641483 
L 469.630391 -35.641587 
L 469.161452 -35.641538 
L 468.692514 -35.641768 
L 468.223575 -35.641956 
L 467.754637 -35.641785 
L 467.285698 -35.642315 
L 466.81676 -35.642225 
L 466.347821 -35.643099 
L 465.878883 -35.641859 
L 465.409944 -35.641352 
L 464.941006 -35.641834 
L 464.472067 -35.641926 
L 464.003128 -35.641632 
L 463.53419 -35.641315 
L 463.065251 -35.641612 
L 462.596313 -35.64136 
L 462.127374 -35.641656 
L 461.658436 -35.641769 
L 461.189497 -35.641468 
L 460.720559 -35.641543 
L 460.25162 -35.641678 
L 459.782681 -35.642212 
L 459.313743 -35.641716 
L 458.844804 -35.642472 
L 458.375866 -35.64205 
L 457.906927 -35.642173 
L 457.437989 -35.642354 
L 456.96905 -35.642174 
L 456.500112 -35.64252 
L 456.031173 -35.642041 
L 455.562235 -35.642121 
L 455.093296 -35.642336 
L 454.624357 -35.642106 
L 454.155419 -35.641739 
L 453.68648 -35.642058 
L 453.217542 -35.642503 
L 452.748603 -35.642191 
L 452.279665 -35.642235 
L 451.810726 -35.642237 
L 451.341788 -35.642463 
L 450.872849 -35.642155 
L 450.403911 -35.642349 
L 449.934972 -35.642053 
L 449.466033 -35.641834 
L 448.997095 -35.642064 
L 448.528156 -35.641858 
L 448.059218 -35.641982 
L 447.590279 -35.642457 
L 447.121341 -35.642392 
L 446.652402 -35.64299 
L 446.183464 -35.642709 
L 445.714525 -35.643124 
L 445.245587 -35.642713 
L 444.776648 -35.642803 
L 444.307709 -35.642681 
L 443.838771 -35.643238 
L 443.369832 -35.642662 
L 442.900894 -35.642673 
L 442.431955 -35.642721 
L 441.963017 -35.643832 
L 441.494078 -35.64327 
L 441.02514 -35.643628 
L 440.556201 -35.642933 
L 440.087262 -35.64281 
L 439.618324 -35.642664 
L 439.149385 -35.642532 
L 438.680447 -35.643604 
L 438.211508 -35.643835 
L 437.74257 -35.64334 
L 437.273631 -35.643874 
L 436.804693 -35.64335 
L 436.335754 -35.643015 
L 435.866816 -35.643722 
L 435.397877 -35.643331 
L 434.928938 -35.644102 
L 434.46 -35.643428 
L 433.991061 -35.644275 
L 433.522123 -35.643972 
L 433.053184 -35.643088 
L 432.584246 -35.644175 
L 432.115307 -35.644131 
L 431.646369 -35.644863 
L 431.17743 -35.64532 
L 430.708492 -35.646009 
L 430.239553 -35.645237 
L 429.770614 -35.645567 
L 429.301676 -35.646545 
L 428.832737 -35.646159 
L 428.363799 -35.646975 
L 427.89486 -35.646305 
L 427.425922 -35.645392 
L 426.956983 -35.645323 
L 426.488045 -35.644959 
L 426.019106 -35.643893 
L 425.550167 -35.642931 
L 425.081229 -35.64272 
L 424.61229 -35.643292 
L 424.143352 -35.64448 
L 423.674413 -35.64458 
L 423.205475 -35.644525 
L 422.736536 -35.645394 
L 422.267598 -35.645377 
L 421.798659 -35.647471 
L 421.329721 -35.64762 
L 420.860782 -35.64654 
L 420.391843 -35.648157 
L 419.922905 -35.646932 
L 419.453966 -35.647371 
L 418.985028 -35.646286 
L 418.516089 -35.646312 
L 418.047151 -35.645398 
L 417.578212 -35.643616 
L 417.109274 -35.643273 
L 416.640335 -35.643933 
L 416.171397 -35.643543 
L 415.702458 -35.644667 
L 415.233519 -35.645322 
L 414.764581 -35.646617 
L 414.295642 -35.647913 
L 413.826704 -35.648585 
L 413.357765 -35.647461 
L 412.888827 -35.64858 
L 412.419888 -35.648329 
L 411.95095 -35.649275 
L 411.482011 -35.648676 
L 411.013072 -35.648186 
L 410.544134 -35.648383 
L 410.075195 -35.646419 
L 409.606257 -35.647001 
L 409.137318 -35.64748 
L 408.66838 -35.648056 
L 408.199441 -35.646776 
L 407.730503 -35.648388 
L 407.261564 -35.652267 
L 406.792626 -35.648917 
L 406.323687 -35.651239 
L 405.854748 -35.653668 
L 405.38581 -35.655398 
L 404.916871 -35.655831 
L 404.447933 -35.656236 
L 403.978994 -35.654543 
L 403.510056 -35.658603 
L 403.041117 -35.6541 
L 402.572179 -35.659961 
L 402.10324 -35.656857 
L 401.634302 -35.658114 
L 401.165363 -35.666286 
L 400.696424 -35.661628 
L 400.227486 -35.667045 
L 399.758547 -35.661734 
L 399.289609 -35.666469 
L 398.82067 -35.66468 
L 398.351732 -35.66695 
L 397.882793 -35.670353 
L 397.413855 -35.663121 
L 396.944916 -35.662636 
L 396.475978 -35.66053 
L 396.007039 -35.660277 
L 395.5381 -35.66364 
L 395.069162 -35.664657 
L 394.600223 -35.666955 
L 394.131285 -35.666882 
L 393.662346 -35.673872 
L 393.193408 -35.675404 
L 392.724469 -35.675567 
L 392.255531 -35.669094 
L 391.786592 -35.667585 
L 391.317653 -35.663755 
L 390.848715 -35.664985 
L 390.379776 -35.670222 
L 389.910838 -35.675724 
L 389.441899 -35.67771 
L 388.972961 -35.684154 
L 388.504022 -35.682689 
L 388.035084 -35.691298 
L 387.566145 -35.686109 
L 387.097207 -35.679003 
L 386.628268 -35.677901 
L 386.159329 -35.677414 
L 385.690391 -35.690392 
L 385.221452 -35.696096 
L 384.752514 -35.703146 
L 384.283575 -35.70784 
L 383.814637 -35.708677 
L 383.345698 -35.703453 
L 382.87676 -35.706241 
L 382.407821 -35.695065 
L 381.938883 -35.682083 
L 381.469944 -35.682805 
L 381.001005 -35.685275 
L 380.532067 -35.684557 
L 380.063128 -35.706076 
L 379.59419 -35.713143 
L 379.125251 -35.726907 
L 378.656313 -35.747088 
L 378.187374 -35.754289 
L 377.718436 -35.772414 
L 377.249497 -35.768285 
L 376.780558 -35.775974 
L 376.31162 -35.767939 
L 375.842681 -35.765671 
L 375.373743 -35.776221 
L 374.904804 -35.750804 
L 374.435866 -35.759152 
L 373.966927 -35.761818 
L 373.497989 -35.76173 
L 373.02905 -35.746675 
L 372.560112 -35.763964 
L 372.091173 -35.765649 
L 371.622234 -35.76736 
L 371.153296 -35.761046 
L 370.684357 -35.752175 
L 370.215419 -35.780073 
L 369.74648 -35.796322 
L 369.277542 -35.829978 
L 368.808603 -35.843024 
L 368.339665 -35.836474 
L 367.870726 -35.834544 
L 367.401788 -35.816644 
L 366.932849 -35.81469 
L 366.46391 -35.796029 
L 365.994972 -35.795656 
L 365.526033 -35.776462 
L 365.057095 -35.788488 
L 364.588156 -35.838993 
L 364.119218 -35.823469 
L 363.650279 -35.802585 
L 363.181341 -35.864243 
L 362.712402 -35.826559 
L 362.243463 -35.876565 
L 361.774525 -35.800926 
L 361.305586 -35.854557 
L 360.836648 -35.912811 
L 360.367709 -35.869331 
L 359.898771 -35.879254 
L 359.429832 -35.910076 
L 358.960894 -35.886081 
L 358.491955 -35.919825 
L 358.023017 -35.96611 
L 357.554078 -36.02085 
L 357.085139 -35.987655 
L 356.616201 -35.990286 
L 356.147262 -35.905123 
L 355.678324 -35.944683 
L 355.209385 -36.146831 
L 354.740447 -36.136904 
L 354.271508 -36.289721 
L 353.80257 -37.013899 
L 353.333631 -36.76588 
L 352.864693 -37.477063 
L 352.395754 -37.38915 
L 351.926815 -37.544894 
L 351.457877 -37.915853 
L 350.988938 -38.335991 
L 350.52 -38.389897 
L 350.051061 -38.503549 
L 349.582123 -38.471446 
L 349.113184 -38.457988 
L 348.644246 -38.629194 
L 348.175307 -38.637993 
L 347.706369 -38.815092 
L 347.23743 -38.98029 
L 346.768491 -39.159251 
L 346.299553 -39.21817 
L 345.830614 -39.439915 
L 345.361676 -39.414515 
L 344.892737 -39.308737 
L 344.423799 -39.256171 
L 343.95486 -39.311774 
L 343.485922 -39.468313 
L 343.016983 -39.53933 
L 342.548044 -39.709965 
L 342.079106 -39.727362 
L 341.610167 -39.898544 
L 341.141229 -39.883823 
L 340.67229 -39.868324 
L 340.203352 -39.72068 
L 339.734413 -39.447065 
L 339.265475 -39.666101 
L 338.796536 -40.069674 
L 338.327598 -40.034643 
L 337.858659 -39.733038 
L 337.38972 -39.801831 
L 336.920782 -39.67215 
L 336.451843 -40.01077 
L 335.982905 -40.146824 
L 335.513966 -40.367508 
L 335.045028 -40.092372 
L 334.576089 -39.995668 
L 334.107151 -40.633258 
L 333.638212 -40.611896 
L 333.169274 -41.253511 
L 332.700335 -41.061535 
L 332.231396 -41.138697 
L 331.762458 -41.20193 
L 331.293519 -41.383746 
L 330.824581 -41.073031 
L 330.355642 -40.522356 
L 329.886704 -40.864118 
L 329.417765 -40.456822 
L 328.948827 -40.153893 
L 328.479888 -40.851247 
L 328.010949 -41.314755 
L 327.542011 -41.472225 
L 327.073072 -41.450376 
L 326.604134 -41.703239 
L 326.135195 -41.803104 
L 325.666257 -41.665178 
L 325.197318 -42.519464 
L 324.72838 -41.653473 
L 324.259441 -41.106772 
L 323.790503 -39.521218 
L 323.321564 -38.699116 
L 322.852625 -38.805467 
L 322.383687 -38.953084 
L 321.914748 -39.974659 
L 321.44581 -38.673695 
L 320.976871 -38.718181 
L 320.507933 -39.056019 
L 320.038994 -39.124654 
L 319.570056 -38.858763 
L 319.101117 -41.486823 
L 318.632179 -41.923764 
L 318.16324 -42.323001 
L 317.694301 -42.5051 
L 317.225363 -43.567827 
L 316.756424 -44.073409 
L 316.287486 -44.123381 
L 315.818547 -44.594566 
L 315.349609 -45.084636 
L 314.88067 -44.585414 
L 314.411732 -44.591731 
L 313.942793 -43.816222 
L 313.473855 -42.831148 
L 313.004916 -42.233207 
L 312.535977 -41.412499 
L 312.067039 -41.698005 
L 311.5981 -41.60442 
L 311.129162 -41.765333 
L 310.660223 -40.849793 
L 310.191285 -42.242893 
L 309.722346 -41.177293 
L 309.253408 -41.31707 
L 308.784469 -40.513825 
L 308.31553 -41.302691 
L 307.846592 -39.565981 
L 307.377653 -37.813125 
L 306.908715 -36.63046 
L 306.439776 -35.956914 
L 305.970838 -35.939668 
L 305.501899 -36.010737 
L 305.032961 -36.088682 
L 304.564022 -36.043274 
L 304.095084 -36.091463 
L 303.626145 -35.966445 
L 303.157206 -35.891199 
L 302.688268 -35.874974 
L 302.219329 -35.947861 
L 301.750391 -35.894591 
L 301.281452 -35.989123 
L 300.812514 -35.979446 
L 300.343575 -36.114016 
L 299.874637 -35.999449 
L 299.405698 -36.021192 
L 298.93676 -36.062887 
L 298.467821 -36.183531 
L 297.998882 -36.494587 
L 297.529944 -36.68302 
L 297.061005 -36.826681 
L 296.592067 -36.841515 
L 296.123128 -39.861046 
L 295.65419 -41.014911 
L 295.185251 -41.438877 
L 294.716313 -42.03675 
L 294.247374 -43.249496 
L 293.778435 -43.736971 
L 293.309497 -44.320562 
L 292.840558 -44.259184 
L 292.37162 -44.889911 
L 291.902681 -45.207094 
L 291.433743 -45.471726 
L 290.964804 -45.995283 
L 290.495866 -45.953536 
L 290.026927 -45.119087 
L 289.557989 -45.305841 
L 289.08905 -45.258917 
L 288.620111 -45.715637 
L 288.151173 -45.671265 
L 287.682234 -45.552924 
L 287.213296 -46.331138 
L 286.744357 -46.127449 
L 286.275419 -47.366257 
L 285.80648 -47.896207 
L 285.337542 -44.974088 
L 284.868603 -44.668878 
L 284.399665 -38.716919 
L 283.930726 -37.434942 
L 283.461787 -35.879385 
L 282.992849 -35.836491 
L 282.52391 -35.813479 
L 282.054972 -35.844006 
L 281.586033 -35.855432 
L 281.117095 -35.912374 
L 280.648156 -35.907197 
L 280.179218 -35.908739 
L 279.710279 -35.906269 
L 279.24134 -35.905967 
L 278.772402 -35.87706 
L 278.303463 -35.862973 
L 277.834525 -35.91134 
L 277.365586 -35.967924 
L 276.896648 -36.085371 
L 276.427709 -35.945334 
L 275.958771 -35.848523 
L 275.489832 -35.936721 
L 275.020894 -36.086915 
L 274.551955 -36.52659 
L 274.083016 -36.623302 
L 273.614078 -36.915215 
L 273.145139 -37.64481 
L 272.676201 -37.397627 
L 272.207262 -37.370162 
L 271.738324 -37.251838 
L 271.269385 -37.593387 
L 270.800447 -37.646105 
L 270.331508 -37.906921 
L 269.86257 -37.971452 
L 269.393631 -38.189586 
L 268.924692 -38.03817 
L 268.455754 -38.112632 
L 267.986815 -38.356661 
L 267.517877 -38.491355 
L 267.048938 -38.804172 
L 266.58 -38.701509 
L 266.111061 -38.866374 
L 265.642123 -38.955386 
L 265.173184 -39.003145 
L 264.704246 -39.035244 
L 264.235307 -38.856069 
L 263.766368 -38.664067 
L 263.29743 -38.489385 
L 262.828491 -38.572235 
L 262.359553 -38.474279 
L 261.890614 -38.647625 
L 261.421676 -38.371934 
L 260.952737 -38.024749 
L 260.483799 -37.877346 
L 260.01486 -37.547706 
L 259.545921 -37.397128 
L 259.076983 -38.62944 
L 258.608044 -37.07855 
L 258.139106 -38.268799 
L 257.670167 -38.146844 
L 257.201229 -37.671234 
L 256.73229 -37.7512 
L 256.263352 -38.60279 
L 255.794413 -38.669747 
L 255.325475 -39.065351 
L 254.856536 -38.736407 
L 254.387597 -38.838588 
L 253.918659 -38.923364 
L 253.44972 -38.955665 
L 252.980782 -38.967709 
L 252.511843 -39.034675 
L 252.042905 -38.721544 
L 251.573966 -38.585789 
L 251.105028 -37.681786 
L 250.636089 -37.714999 
L 250.167151 -36.839156 
L 249.698212 -38.882409 
L 249.229273 -39.680206 
L 248.760335 -40.322637 
L 248.291396 -40.068408 
L 247.822458 -40.644683 
L 247.353519 -40.808046 
L 246.884581 -40.759394 
L 246.415642 -40.553784 
L 245.946704 -39.904654 
L 245.477765 -37.878159 
L 245.008826 -36.835005 
L 244.539888 -37.271584 
L 244.070949 -38.181173 
L 243.602011 -41.088335 
L 243.133072 -44.051138 
L 242.664134 -46.158033 
L 242.195195 -43.858013 
L 241.726257 -46.051833 
L 241.257318 -43.360342 
L 240.78838 -43.392833 
L 240.319441 -40.321468 
L 239.850502 -37.037824 
L 239.381564 -36.311392 
L 238.912625 -36.065683 
L 238.443687 -35.962345 
L 237.974748 -36.027716 
L 237.50581 -36.227117 
L 237.036871 -36.135586 
L 236.567933 -36.040215 
L 236.098994 -36.043937 
L 235.630056 -36.11785 
L 235.161117 -36.248357 
L 234.692178 -36.491677 
L 234.22324 -37.085233 
L 233.754301 -37.486055 
L 233.285363 -37.739096 
L 232.816424 -39.100895 
L 232.347486 -39.277805 
L 231.878547 -39.669338 
L 231.409609 -39.303346 
L 230.94067 -39.732904 
L 230.471731 -39.523066 
L 230.002793 -39.537281 
L 229.533854 -39.934596 
L 229.064916 -40.177658 
L 228.595977 -40.301948 
L 228.127039 -40.758831 
L 227.6581 -41.181276 
L 227.189162 -41.264194 
L 226.720223 -41.68835 
L 226.251285 -42.121806 
L 225.782346 -41.550014 
L 225.313407 -41.980759 
L 224.844469 -42.138013 
L 224.37553 -43.123171 
L 223.906592 -43.536485 
L 223.437653 -44.021936 
L 222.968715 -44.352173 
L 222.499776 -43.665835 
L 222.030838 -41.908613 
L 221.561899 -39.46982 
L 221.092961 -38.526051 
L 220.624022 -38.293361 
L 220.155083 -38.561328 
L 219.686145 -39.530355 
L 219.217206 -47.735414 
L 218.748268 -45.57157 
L 218.279329 -43.824644 
L 217.810391 -39.319958 
L 217.341452 -37.694704 
L 216.872514 -36.952652 
L 216.403575 -36.407009 
L 215.934637 -36.37676 
L 215.465698 -36.381926 
L 214.996759 -36.641621 
L 214.527821 -37.618096 
L 214.058882 -40.295063 
L 213.589944 -39.801039 
L 213.121005 -39.050733 
L 212.652067 -42.292322 
L 212.183128 -46.596647 
L 211.71419 -46.297661 
L 211.245251 -45.857177 
L 210.776312 -47.693475 
L 210.307374 -46.440439 
L 209.838435 -46.770321 
L 209.369497 -47.142173 
L 208.900558 -46.933188 
L 208.43162 -47.379201 
L 207.962681 -47.246464 
L 207.493743 -46.635067 
L 207.024804 -44.543597 
L 206.555866 -45.969375 
L 206.086927 -42.048808 
L 205.617988 -40.939207 
L 205.14905 -37.86107 
L 204.680111 -37.138341 
L 204.211173 -36.42189 
L 203.742234 -37.020112 
L 203.273296 -37.255481 
L 202.804357 -38.587011 
L 202.335419 -38.595168 
L 201.86648 -38.482695 
L 201.397542 -38.28228 
L 200.928603 -38.121939 
L 200.459664 -37.965759 
L 199.990726 -38.272002 
L 199.521787 -37.891924 
L 199.052849 -37.591078 
L 198.58391 -38.347391 
L 198.114972 -38.647437 
L 197.646033 -38.672005 
L 197.177095 -38.811829 
L 196.708156 -39.100801 
L 196.239217 -39.961183 
L 195.770279 -40.414975 
L 195.30134 -40.539109 
L 194.832402 -40.1224 
L 194.363463 -38.48476 
L 193.894525 -38.588461 
L 193.425586 -38.715495 
L 192.956648 -38.521484 
L 192.487709 -38.218655 
L 192.018771 -39.005767 
L 191.549832 -40.405066 
L 191.080893 -40.030179 
L 190.611955 -40.474946 
L 190.143016 -40.426712 
L 189.674078 -40.836906 
L 189.205139 -40.976051 
L 188.736201 -41.330936 
L 188.267262 -42.677238 
L 187.798324 -44.21694 
L 187.329385 -45.761669 
L 186.860447 -47.771139 
L 186.391508 -48.254691 
L 185.922569 -50.405998 
L 185.453631 -50.882988 
L 184.984692 -53.147911 
L 184.515754 -50.955611 
L 184.046815 -49.782318 
L 183.577877 -47.922407 
L 183.108938 -42.30168 
L 182.64 -38.646728 
L 182.171061 -37.405424 
L 181.702122 -36.27066 
L 181.233184 -36.295136 
L 180.764245 -36.280722 
L 180.295307 -36.581705 
L 179.826368 -37.042639 
L 179.35743 -37.845126 
L 178.888491 -38.848907 
L 178.419553 -39.778331 
L 177.950614 -40.061903 
L 177.481676 -40.13378 
L 177.012737 -40.533943 
L 176.543798 -40.537088 
L 176.07486 -39.883124 
L 175.605921 -40.009773 
L 175.136983 -40.054211 
L 174.668044 -39.735681 
L 174.199106 -39.718441 
L 173.730167 -39.71097 
L 173.261229 -39.588456 
L 172.79229 -40.078556 
L 172.323352 -40.464885 
L 171.854413 -40.765741 
L 171.385474 -40.774417 
L 170.916536 -41.735502 
L 170.447597 -41.798188 
L 169.978659 -40.278671 
L 169.50972 -38.7395 
L 169.040782 -37.444569 
L 168.571843 -37.71275 
L 168.102905 -39.667594 
L 167.633966 -41.175819 
L 167.165028 -40.997727 
L 166.696089 -41.74088 
L 166.22715 -41.8903 
L 165.758212 -41.834802 
L 165.289273 -41.367222 
L 164.820335 -42.00172 
L 164.351396 -42.238737 
L 163.882458 -41.572935 
L 163.413519 -41.862675 
L 162.944581 -42.433879 
L 162.475642 -44.406935 
L 162.006703 -45.083619 
L 161.537765 -45.931906 
L 161.068826 -46.47729 
L 160.599888 -46.866793 
L 160.130949 -47.479509 
L 159.662011 -48.470639 
L 159.193072 -47.340478 
L 158.724134 -46.662732 
L 158.255195 -43.998147 
L 157.786257 -41.04259 
L 157.317318 -38.157212 
L 156.848379 -36.07934 
L 156.379441 -36.209201 
L 155.910502 -36.501255 
L 155.441564 -38.029781 
L 154.972625 -38.954383 
L 154.503687 -40.872307 
L 154.034748 -41.377133 
L 153.56581 -41.146059 
L 153.096871 -40.680011 
L 152.627933 -40.484612 
L 152.158994 -39.872439 
L 151.690055 -40.101629 
L 151.221117 -40.026624 
L 150.752178 -39.753976 
L 150.28324 -40.137496 
L 149.814301 -40.481628 
L 149.345363 -40.504476 
L 148.876424 -41.278326 
L 148.407486 -41.503682 
L 147.938547 -41.615624 
L 147.469608 -42.291652 
L 147.00067 -43.041554 
L 146.531731 -43.554207 
L 146.062793 -44.139825 
L 145.593854 -45.26679 
L 145.124916 -43.073064 
L 144.655977 -43.845128 
L 144.187039 -41.808904 
L 143.7181 -41.116706 
L 143.249162 -37.355289 
L 142.780223 -37.156131 
z
" style="stroke: #e13b41; stroke-width: 1.5"/>
    </defs>
    <g clip-path="url(#pf832821cf3)">
     <use xlink:href="#mf49c2251f3" x="0" y="72" style="fill: #e13b41; stroke: #e13b41; stroke-width: 1.5"/>
    </g>
   </g>
   <g id="matplotlib.axis_1">
    <g id="xtick_1"/>
    <g id="xtick_2"/>
    <g id="xtick_3"/>
    <g id="xtick_4"/>
    <g id="xtick_5"/>
    <g id="xtick_6"/>
    <g id="xtick_7"/>
   </g>
   <g id="matplotlib.axis_2">
    <g id="ytick_1"/>
    <g id="ytick_2"/>
    <g id="ytick_3"/>
   </g>
   <g id="text_1">
    <!-- Trumpet -->
    <g style="fill: #e13b41" transform="translate(78.972827 39.67125) scale(0.12 -0.12)">
     <defs>
      <path id="DejaVuSans-Bold-54" d="M 31 4666 
L 4331 4666 
L 4331 3756 
L 2784 3756 
L 2784 0 
L 1581 0 
L 1581 3756 
L 31 3756 
L 31 4666 
z
" transform="scale(0.015625)"/>
      <path id="DejaVuSans-Bold-72" d="M 3138 2547 
Q 2991 2616 2845 2648 
Q 2700 2681 2553 2681 
Q 2122 2681 1889 2404 
Q 1656 2128 1656 1613 
L 1656 0 
L 538 0 
L 538 3500 
L 1656 3500 
L 1656 2925 
Q 1872 3269 2151 3426 
Q 2431 3584 2822 3584 
Q 2878 3584 2943 3579 
Q 3009 3575 3134 3559 
L 3138 2547 
z
" transform="scale(0.015625)"/>
      <path id="DejaVuSans-Bold-75" d="M 500 1363 
L 500 3500 
L 1625 3500 
L 1625 3150 
Q 1625 2866 1622 2436 
Q 1619 2006 1619 1863 
Q 1619 1441 1641 1255 
Q 1663 1069 1716 984 
Q 1784 875 1895 815 
Q 2006 756 2150 756 
Q 2500 756 2700 1025 
Q 2900 1294 2900 1772 
L 2900 3500 
L 4019 3500 
L 4019 0 
L 2900 0 
L 2900 506 
Q 2647 200 2364 54 
Q 2081 -91 1741 -91 
Q 1134 -91 817 281 
Q 500 653 500 1363 
z
" transform="scale(0.015625)"/>
      <path id="DejaVuSans-Bold-6d" d="M 3781 2919 
Q 3994 3244 4286 3414 
Q 4578 3584 4928 3584 
Q 5531 3584 5847 3212 
Q 6163 2841 6163 2131 
L 6163 0 
L 5038 0 
L 5038 1825 
Q 5041 1866 5042 1909 
Q 5044 1953 5044 2034 
Q 5044 2406 4934 2573 
Q 4825 2741 4581 2741 
Q 4263 2741 4089 2478 
Q 3916 2216 3909 1719 
L 3909 0 
L 2784 0 
L 2784 1825 
Q 2784 2406 2684 2573 
Q 2584 2741 2328 2741 
Q 2006 2741 1831 2477 
Q 1656 2213 1656 1722 
L 1656 0 
L 531 0 
L 531 3500 
L 1656 3500 
L 1656 2988 
Q 1863 3284 2130 3434 
Q 2397 3584 2719 3584 
Q 3081 3584 3359 3409 
Q 3638 3234 3781 2919 
z
" transform="scale(0.015625)"/>
      <path id="DejaVuSans-Bold-70" d="M 1656 506 
L 1656 -1331 
L 538 -1331 
L 538 3500 
L 1656 3500 
L 1656 2988 
Q 1888 3294 2169 3439 
Q 2450 3584 2816 3584 
Q 3463 3584 3878 3070 
Q 4294 2556 4294 1747 
Q 4294 938 3878 423 
Q 3463 -91 2816 -91 
Q 2450 -91 2169 54 
Q 1888 200 1656 506 
z
M 2400 2772 
Q 2041 2772 1848 2508 
Q 1656 2244 1656 1747 
Q 1656 1250 1848 986 
Q 2041 722 2400 722 
Q 2759 722 2948 984 
Q 3138 1247 3138 1747 
Q 3138 2247 2948 2509 
Q 2759 2772 2400 2772 
z
" transform="scale(0.015625)"/>
      <path id="DejaVuSans-Bold-65" d="M 4031 1759 
L 4031 1441 
L 1416 1441 
Q 1456 1047 1700 850 
Q 1944 653 2381 653 
Q 2734 653 3104 758 
Q 3475 863 3866 1075 
L 3866 213 
Q 3469 63 3072 -14 
Q 2675 -91 2278 -91 
Q 1328 -91 801 392 
Q 275 875 275 1747 
Q 275 2603 792 3093 
Q 1309 3584 2216 3584 
Q 3041 3584 3536 3087 
Q 4031 2591 4031 1759 
z
M 2881 2131 
Q 2881 2450 2695 2645 
Q 2509 2841 2209 2841 
Q 1884 2841 1681 2658 
Q 1478 2475 1428 2131 
L 2881 2131 
z
" transform="scale(0.015625)"/>
      <path id="DejaVuSans-Bold-74" d="M 1759 4494 
L 1759 3500 
L 2913 3500 
L 2913 2700 
L 1759 2700 
L 1759 1216 
Q 1759 972 1856 886 
Q 1953 800 2241 800 
L 2816 800 
L 2816 0 
L 1856 0 
Q 1194 0 917 276 
Q 641 553 641 1216 
L 641 2700 
L 84 2700 
L 84 3500 
L 641 3500 
L 641 4494 
L 1759 4494 
z
" transform="scale(0.015625)"/>
     </defs>
     <use xlink:href="#DejaVuSans-Bold-54"/>
     <use xlink:href="#DejaVuSans-Bold-72" x="57.212891"/>
     <use xlink:href="#DejaVuSans-Bold-75" x="106.529297"/>
     <use xlink:href="#DejaVuSans-Bold-6d" x="177.720703"/>
     <use xlink:href="#DejaVuSans-Bold-70" x="281.919922"/>
     <use xlink:href="#DejaVuSans-Bold-65" x="353.501953"/>
     <use xlink:href="#DejaVuSans-Bold-74" x="421.324219"/>
    </g>
   </g>
  </g>
 </g>
 <defs>
  <clipPath id="pf832821cf3">
   <rect x="72" y="8.64" width="446.4" height="55.44"/>
  </clipPath>
 </defs>
</svg>
