<?xml version="1.0" encoding="utf-8" standalone="no"?>
<!DOCTYPE svg PUBLIC "-//W3C//DTD SVG 1.1//EN"
  "http://www.w3.org/Graphics/SVG/1.1/DTD/svg11.dtd">
<svg xmlns:xlink="http://www.w3.org/1999/xlink" width="576pt" height="216pt" viewBox="0 0 576 216" xmlns="http://www.w3.org/2000/svg" version="1.1">
 <metadata>
  <rdf:RDF xmlns:dc="http://purl.org/dc/elements/1.1/" xmlns:cc="http://creativecommons.org/ns#" xmlns:rdf="http://www.w3.org/1999/02/22-rdf-syntax-ns#">
   <cc:Work>
    <dc:type rdf:resource="http://purl.org/dc/dcmitype/StillImage"/>
    <dc:date>2024-04-26T07:08:54.584516</dc:date>
    <dc:format>image/svg+xml</dc:format>
    <dc:creator>
     <cc:Agent>
      <dc:title>Matplotlib v3.8.4, https://matplotlib.org/</dc:title>
     </cc:Agent>
    </dc:creator>
   </cc:Work>
  </rdf:RDF>
 </metadata>
 <defs>
  <style type="text/css">*{stroke-linejoin: round; stroke-linecap: butt}</style>
 </defs>
 <g id="figure_1">
  <g id="patch_1">
   <path d="M 0 216 
L 576 216 
L 576 0 
L 0 0 
z
" style="fill: #ffffff"/>
  </g>
  <g id="axes_1">
   <g id="patch_2">
    <path d="M 72 109.08 
L 518.4 109.08 
L 518.4 25.92 
L 72 25.92 
z
" style="fill: #389dcd"/>
   </g>
   <g id="PolyCollection_1">
    <defs>
     <path id="mbb26d5c47d" d="M 122.02107 -150.756023 
L 122.02107 -145.789475 
L 122.515925 -145.90261 
L 123.01078 -137.091908 
L 123.505636 -132.469085 
L 124.000491 -128.487021 
L 124.495346 -128.949353 
L 124.990201 -128.744816 
L 125.485056 -130.663426 
L 125.979911 -129.899213 
L 126.474766 -130.441666 
L 126.969621 -130.337734 
L 127.464476 -131.030374 
L 127.959331 -131.457912 
L 128.454186 -131.55256 
L 128.949042 -132.87442 
L 129.443897 -132.972961 
L 129.938752 -133.460341 
L 130.433607 -133.251199 
L 130.928462 -133.430782 
L 131.423317 -133.461529 
L 131.918172 -133.652608 
L 132.413027 -133.802662 
L 132.907882 -133.549029 
L 133.402737 -133.466499 
L 133.897592 -133.293293 
L 134.392448 -134.191705 
L 134.887303 -142.994814 
L 135.382158 -146.168125 
L 135.877013 -146.850695 
L 136.371868 -147.607845 
L 136.866723 -147.770597 
L 137.361578 -143.867793 
L 137.856433 -134.024052 
L 138.351288 -127.560366 
L 138.846143 -123.41497 
L 139.340999 -124.931026 
L 139.835854 -124.221444 
L 140.330709 -124.625194 
L 140.825564 -125.295633 
L 141.320419 -125.705521 
L 141.815274 -127.016626 
L 142.310129 -126.818244 
L 142.804984 -128.63484 
L 143.299839 -129.438552 
L 143.794694 -131.057661 
L 144.289549 -131.952493 
L 144.784405 -132.467381 
L 145.27926 -132.298076 
L 145.774115 -133.690114 
L 146.26897 -134.564557 
L 146.763825 -135.250284 
L 147.25868 -134.744543 
L 147.753535 -134.810943 
L 148.24839 -136.23063 
L 148.743245 -140.032719 
L 149.2381 -142.349504 
L 149.732955 -143.681169 
L 150.227811 -141.599122 
L 150.722666 -137.116741 
L 151.217521 -135.780144 
L 151.712376 -136.402883 
L 152.207231 -136.423998 
L 152.702086 -137.721506 
L 153.196941 -137.30382 
L 153.691796 -138.279391 
L 154.186651 -137.766002 
L 154.681506 -137.853887 
L 155.176362 -138.579379 
L 155.671217 -137.405843 
L 156.166072 -137.727625 
L 156.660927 -138.205884 
L 157.155782 -137.875721 
L 157.650637 -137.587773 
L 158.145492 -138.091202 
L 158.640347 -137.857242 
L 159.135202 -137.489834 
L 159.630057 -138.35812 
L 160.124912 -138.52329 
L 160.619768 -144.59925 
L 161.114623 -146.421928 
L 161.609478 -146.415556 
L 162.104333 -147.294094 
L 162.599188 -147.396635 
L 163.094043 -147.572822 
L 163.588898 -146.073178 
L 164.083753 -139.125831 
L 164.578608 -133.36148 
L 165.073463 -123.752439 
L 165.568318 -124.549163 
L 166.063174 -122.698288 
L 166.558029 -121.772397 
L 167.052884 -121.738731 
L 167.547739 -121.411409 
L 168.042594 -121.356607 
L 168.537449 -122.494869 
L 169.032304 -125.083264 
L 169.527159 -127.385367 
L 170.022014 -129.656857 
L 170.516869 -130.012841 
L 171.011724 -131.640909 
L 171.50658 -132.409745 
L 172.001435 -132.414233 
L 172.49629 -133.579312 
L 172.991145 -134.06058 
L 173.486 -134.920458 
L 173.980855 -142.009323 
L 174.47571 -144.282794 
L 174.970565 -142.219681 
L 175.46542 -142.796577 
L 175.960275 -139.303592 
L 176.455131 -138.32967 
L 176.949986 -137.850291 
L 177.444841 -137.419285 
L 177.939696 -137.849702 
L 178.434551 -138.507951 
L 178.929406 -139.151823 
L 179.424261 -139.582455 
L 179.919116 -139.52709 
L 180.413971 -139.6563 
L 180.908826 -139.880262 
L 181.403681 -140.130371 
L 181.898537 -139.510845 
L 182.393392 -139.131118 
L 182.888247 -139.135059 
L 183.383102 -138.63446 
L 183.877957 -137.673537 
L 184.372812 -137.973962 
L 184.867667 -137.957658 
L 185.362522 -140.317875 
L 185.857377 -143.586836 
L 186.352232 -145.833122 
L 186.847087 -146.51269 
L 187.341943 -145.881343 
L 187.836798 -143.608027 
L 188.331653 -137.610963 
L 188.826508 -133.779437 
L 189.321363 -126.062519 
L 189.816218 -127.908457 
L 190.311073 -125.081606 
L 190.805928 -127.702322 
L 191.300783 -123.057819 
L 191.795638 -123.022921 
L 192.290493 -124.213414 
L 192.785349 -122.879025 
L 193.280204 -123.458924 
L 193.775059 -122.86559 
L 194.269914 -123.079718 
L 194.764769 -122.46243 
L 195.259624 -121.36572 
L 195.754479 -128.411215 
L 196.249334 -141.912074 
L 196.744189 -136.63664 
L 197.239044 -134.772489 
L 197.7339 -143.763838 
L 198.228755 -146.527507 
L 198.72361 -147.22354 
L 199.218465 -147.511523 
L 199.71332 -147.715446 
L 200.208175 -147.137432 
L 200.70303 -144.211108 
L 201.197885 -140.038747 
L 201.69274 -129.805606 
L 202.187595 -127.562904 
L 202.68245 -124.799187 
L 203.177306 -133.27355 
L 203.672161 -139.464148 
L 204.167016 -143.271501 
L 204.661871 -142.365271 
L 205.156726 -137.93322 
L 205.651581 -134.084316 
L 206.146436 -132.069458 
L 206.641291 -132.17926 
L 207.136146 -133.361497 
L 207.631001 -133.093508 
L 208.125856 -132.49923 
L 208.620712 -132.953806 
L 209.115567 -133.979927 
L 209.610422 -133.42809 
L 210.105277 -133.075263 
L 210.600132 -133.441096 
L 211.094987 -134.408338 
L 211.589842 -135.629417 
L 212.084697 -135.695054 
L 212.579552 -136.059963 
L 213.074407 -136.842249 
L 213.569263 -136.96164 
L 214.064118 -138.445526 
L 214.558973 -138.354726 
L 215.053828 -139.261857 
L 215.548683 -138.581378 
L 216.043538 -138.756293 
L 216.538393 -139.164022 
L 217.033248 -138.967113 
L 217.528103 -143.429358 
L 218.022958 -145.064237 
L 218.517813 -146.537843 
L 219.012669 -147.145033 
L 219.507524 -147.259954 
L 220.002379 -147.402736 
L 220.497234 -147.317642 
L 220.992089 -147.592208 
L 221.486944 -147.57284 
L 221.981799 -147.670004 
L 222.476654 -147.720107 
L 222.971509 -147.597128 
L 223.466364 -147.759014 
L 223.961219 -147.6915 
L 224.456075 -146.017982 
L 224.95093 -137.496111 
L 225.445785 -131.056639 
L 225.94064 -130.162501 
L 226.435495 -125.892509 
L 226.93035 -130.137821 
L 227.425205 -126.418695 
L 227.92006 -130.460966 
L 228.414915 -134.041638 
L 228.90977 -141.390862 
L 229.404625 -145.38519 
L 229.899481 -145.685441 
L 230.394336 -143.551865 
L 230.889191 -138.126631 
L 231.384046 -136.683548 
L 231.878901 -135.31437 
L 232.373756 -135.823493 
L 232.868611 -135.956755 
L 233.363466 -138.388599 
L 233.858321 -138.729595 
L 234.353176 -140.525988 
L 234.848032 -142.173882 
L 235.342887 -144.604812 
L 235.837742 -143.182711 
L 236.332597 -142.361663 
L 236.827452 -140.270138 
L 237.322307 -140.211158 
L 237.817162 -139.747523 
L 238.312017 -139.519486 
L 238.806872 -139.933371 
L 239.301727 -140.8848 
L 239.796582 -140.994244 
L 240.291438 -141.391101 
L 240.786293 -141.237429 
L 241.281148 -141.261173 
L 241.776003 -142.056381 
L 242.270858 -141.960748 
L 242.765713 -143.681429 
L 243.260568 -141.402394 
L 243.755423 -142.213833 
L 244.250278 -143.175144 
L 244.745133 -141.771426 
L 245.239988 -141.679909 
L 245.734844 -142.735152 
L 246.229699 -141.249429 
L 246.724554 -140.890695 
L 247.219409 -140.395587 
L 247.714264 -139.954274 
L 248.209119 -139.705928 
L 248.703974 -139.297952 
L 249.198829 -138.217645 
L 249.693684 -138.439149 
L 250.188539 -137.998849 
L 250.683395 -138.01066 
L 251.17825 -138.216025 
L 251.673105 -138.116739 
L 252.16796 -138.627809 
L 252.662815 -139.301689 
L 253.15767 -139.304848 
L 253.652525 -139.355763 
L 254.14738 -139.601534 
L 254.642235 -139.84527 
L 255.13709 -140.752524 
L 255.631945 -141.062091 
L 256.126801 -141.338479 
L 256.621656 -142.202623 
L 257.116511 -142.548093 
L 257.611366 -143.313924 
L 258.106221 -143.467415 
L 258.601076 -143.544274 
L 259.095931 -143.49703 
L 259.590786 -143.817738 
L 260.085641 -146.192303 
L 260.580496 -147.268221 
L 261.075351 -147.698161 
L 261.570207 -148.038969 
L 262.065062 -148.180563 
L 262.559917 -148.196181 
L 263.054772 -148.154495 
L 263.549627 -148.169191 
L 264.044482 -148.181363 
L 264.539337 -148.093286 
L 265.034192 -148.062368 
L 265.529047 -148.015348 
L 266.023902 -148.118795 
L 266.518757 -148.112225 
L 267.013613 -148.103171 
L 267.508468 -148.201198 
L 268.003323 -148.176928 
L 268.498178 -148.157677 
L 268.993033 -148.132619 
L 269.487888 -148.160725 
L 269.982743 -148.047017 
L 270.477598 -148.152778 
L 270.972453 -146.04387 
L 271.467308 -143.371146 
L 271.962164 -129.795142 
L 272.457019 -129.266499 
L 272.951874 -121.398296 
L 273.446729 -123.593266 
L 273.941584 -126.145775 
L 274.436439 -125.682864 
L 274.931294 -125.527436 
L 275.426149 -126.004424 
L 275.921004 -127.269075 
L 276.415859 -127.678934 
L 276.910714 -127.867321 
L 277.40557 -128.074963 
L 277.900425 -127.55709 
L 278.39528 -127.667935 
L 278.890135 -128.775713 
L 279.38499 -129.971728 
L 279.879845 -131.099667 
L 280.3747 -130.915085 
L 280.869555 -131.021674 
L 281.36441 -131.885383 
L 281.859265 -131.921114 
L 282.35412 -132.850783 
L 282.848976 -133.405674 
L 283.343831 -136.801722 
L 283.838686 -140.298022 
L 284.333541 -145.366961 
L 284.828396 -146.31986 
L 285.323251 -146.945454 
L 285.818106 -147.2746 
L 286.312961 -147.486466 
L 286.807816 -147.70288 
L 287.302671 -147.569968 
L 287.797527 -147.721072 
L 288.292382 -147.52499 
L 288.787237 -147.529144 
L 289.282092 -147.61606 
L 289.776947 -147.623565 
L 290.271802 -148.031609 
L 290.766657 -147.930038 
L 291.261512 -147.859954 
L 291.756367 -147.843709 
L 292.251222 -147.895305 
L 292.746077 -147.881304 
L 293.240933 -147.974065 
L 293.735788 -148.074585 
L 294.230643 -148.013986 
L 294.725498 -148.095976 
L 295.220353 -147.256709 
L 295.715208 -143.360132 
L 296.210063 -137.993847 
L 296.704918 -136.209592 
L 297.199773 -135.092899 
L 297.694628 -134.036664 
L 298.189483 -133.278107 
L 298.684339 -132.481938 
L 299.179194 -132.568647 
L 299.674049 -133.04633 
L 300.168904 -132.462447 
L 300.663759 -132.529485 
L 301.158614 -132.771402 
L 301.653469 -131.660655 
L 302.148324 -131.321894 
L 302.643179 -130.91954 
L 303.138034 -129.940252 
L 303.632889 -129.314041 
L 304.127745 -129.494745 
L 304.6226 -129.927054 
L 305.117455 -130.677419 
L 305.61231 -131.376775 
L 306.107165 -131.776158 
L 306.60202 -131.855213 
L 307.096875 -133.048711 
L 307.59173 -133.923357 
L 308.086585 -135.64267 
L 308.58144 -139.835677 
L 309.076296 -140.756087 
L 309.571151 -140.226709 
L 310.066006 -136.926373 
L 310.560861 -137.205421 
L 311.055716 -134.565713 
L 311.550571 -133.044253 
L 312.045426 -132.094044 
L 312.540281 -133.395209 
L 313.035136 -131.860974 
L 313.529991 -131.038548 
L 314.024846 -132.633619 
L 314.519702 -133.478586 
L 315.014557 -134.543436 
L 315.509412 -134.867715 
L 316.004267 -134.806251 
L 316.499122 -134.67336 
L 316.993977 -134.528053 
L 317.488832 -134.861554 
L 317.983687 -135.68211 
L 318.478542 -135.857699 
L 318.973397 -136.455788 
L 319.468252 -136.37945 
L 319.963108 -136.122483 
L 320.457963 -135.951608 
L 320.952818 -135.876173 
L 321.447673 -136.257985 
L 321.942528 -136.502611 
L 322.437383 -136.786327 
L 322.932238 -137.582219 
L 323.427093 -137.795883 
L 323.921948 -137.704083 
L 324.416803 -138.695461 
L 324.911659 -138.86373 
L 325.406514 -139.120579 
L 325.901369 -139.443359 
L 326.396224 -139.485899 
L 326.891079 -139.257405 
L 327.385934 -139.560799 
L 327.880789 -139.088651 
L 328.375644 -138.937125 
L 328.870499 -139.081179 
L 329.365354 -139.077153 
L 329.860209 -139.131108 
L 330.355065 -139.051179 
L 330.84992 -139.121246 
L 331.344775 -138.963924 
L 331.83963 -139.620256 
L 332.334485 -139.525629 
L 332.82934 -139.581967 
L 333.324195 -140.013385 
L 333.81905 -140.100522 
L 334.313905 -140.190483 
L 334.80876 -140.226617 
L 335.303615 -140.646567 
L 335.798471 -140.564525 
L 336.293326 -140.864891 
L 336.788181 -140.837168 
L 337.283036 -140.862223 
L 337.777891 -141.205898 
L 338.272746 -141.351644 
L 338.767601 -141.426119 
L 339.262456 -141.912329 
L 339.757311 -142.000758 
L 340.252166 -142.242739 
L 340.747021 -142.369031 
L 341.241877 -142.375456 
L 341.736732 -142.537608 
L 342.231587 -143.325289 
L 342.726442 -143.893663 
L 343.221297 -144.485362 
L 343.716152 -145.543327 
L 344.211007 -145.906469 
L 344.705862 -146.003074 
L 345.200717 -147.280494 
L 345.695572 -147.181941 
L 346.190428 -147.619759 
L 346.685283 -147.830913 
L 347.180138 -148.016839 
L 347.674993 -148.088354 
L 348.169848 -148.136863 
L 348.664703 -148.144429 
L 349.159558 -148.144674 
L 349.654413 -148.212527 
L 350.149268 -148.12328 
L 350.644123 -148.231806 
L 351.138978 -148.172198 
L 351.633834 -148.13113 
L 352.128689 -148.252088 
L 352.623544 -148.31023 
L 353.118399 -148.223399 
L 353.613254 -148.175997 
L 354.108109 -148.223484 
L 354.602964 -148.15447 
L 355.097819 -148.118327 
L 355.592674 -148.219589 
L 356.087529 -148.120469 
L 356.582384 -148.216791 
L 357.07724 -148.180191 
L 357.572095 -148.207392 
L 358.06695 -148.192014 
L 358.561805 -148.201032 
L 359.05666 -148.216636 
L 359.551515 -148.231965 
L 360.04637 -148.226291 
L 360.541225 -148.227698 
L 361.03608 -148.206187 
L 361.530935 -148.205794 
L 362.025791 -148.209187 
L 362.520646 -148.191147 
L 363.015501 -148.219552 
L 363.510356 -148.187666 
L 364.005211 -148.197504 
L 364.500066 -148.209893 
L 364.994921 -148.244193 
L 365.489776 -148.266876 
L 365.984631 -148.287207 
L 366.479486 -148.29632 
L 366.974341 -148.281999 
L 367.469197 -148.272941 
L 367.964052 -148.306083 
L 368.458907 -148.308795 
L 368.953762 -148.344479 
L 369.448617 -148.341984 
L 369.943472 -148.35306 
L 370.438327 -148.358295 
L 370.933182 -148.357754 
L 371.428037 -148.379068 
L 371.922892 -148.387265 
L 372.417747 -148.400556 
L 372.912603 -148.430106 
L 373.407458 -148.430684 
L 373.902313 -148.443699 
L 374.397168 -148.438531 
L 374.892023 -148.442133 
L 375.386878 -148.459563 
L 375.881733 -148.457501 
L 376.376588 -148.457424 
L 376.871443 -148.43531 
L 377.366298 -148.437637 
L 377.861153 -148.437578 
L 378.356009 -148.439169 
L 378.850864 -148.451022 
L 379.345719 -148.447695 
L 379.840574 -148.438502 
L 380.335429 -148.441003 
L 380.830284 -148.43559 
L 381.325139 -148.436135 
L 381.819994 -148.435474 
L 382.314849 -148.423586 
L 382.809704 -148.426705 
L 383.30456 -148.426604 
L 383.799415 -148.423015 
L 384.29427 -148.428441 
L 384.789125 -148.421413 
L 385.28398 -148.428351 
L 385.778835 -148.434224 
L 386.27369 -148.430101 
L 386.768545 -148.429994 
L 387.2634 -148.431982 
L 387.758255 -148.435288 
L 388.25311 -148.433976 
L 388.747966 -148.436498 
L 389.242821 -148.446993 
L 389.737676 -148.439335 
L 390.232531 -148.446122 
L 390.727386 -148.442797 
L 391.222241 -148.434385 
L 391.717096 -148.444367 
L 392.211951 -148.428584 
L 392.706806 -148.445587 
L 393.201661 -148.443674 
L 393.696516 -148.454746 
L 394.191372 -148.457429 
L 394.686227 -148.447078 
L 395.181082 -148.464176 
L 395.675937 -148.454149 
L 396.170792 -148.47013 
L 396.665647 -148.456663 
L 397.160502 -148.465319 
L 397.655357 -148.461798 
L 398.150212 -148.463042 
L 398.645067 -148.472697 
L 399.139923 -148.467102 
L 399.634778 -148.468009 
L 400.129633 -148.465702 
L 400.624488 -148.468979 
L 401.119343 -148.470288 
L 401.614198 -148.470928 
L 402.109053 -148.479058 
L 402.603908 -148.481307 
L 403.098763 -148.48686 
L 403.593618 -148.487724 
L 404.088473 -148.48669 
L 404.583329 -148.482147 
L 405.078184 -148.477509 
L 405.573039 -148.478521 
L 406.067894 -148.481129 
L 406.562749 -148.481945 
L 407.057604 -148.483939 
L 407.552459 -148.481978 
L 408.047314 -148.483082 
L 408.542169 -148.482362 
L 409.037024 -148.481222 
L 409.531879 -148.486809 
L 410.026735 -148.483885 
L 410.52159 -148.489592 
L 411.016445 -148.489576 
L 411.5113 -148.490033 
L 412.006155 -148.490649 
L 412.50101 -148.492341 
L 412.995865 -148.493961 
L 413.49072 -148.492224 
L 413.985575 -148.491408 
L 414.48043 -148.485024 
L 414.975285 -148.486896 
L 415.470141 -148.485648 
L 415.964996 -148.488145 
L 416.459851 -148.489936 
L 416.954706 -148.49117 
L 417.449561 -148.494198 
L 417.944416 -148.493477 
L 418.439271 -148.492104 
L 418.934126 -148.493643 
L 419.428981 -148.492429 
L 419.923836 -148.49463 
L 420.418692 -148.495176 
L 420.913547 -148.493719 
L 421.408402 -148.493745 
L 421.903257 -148.493624 
L 422.398112 -148.492414 
L 422.892967 -148.492275 
L 423.387822 -148.495059 
L 423.882677 -148.494124 
L 424.377532 -148.493914 
L 424.872387 -148.494849 
L 425.367242 -148.493 
L 425.862098 -148.494733 
L 426.356953 -148.494349 
L 426.851808 -148.493333 
L 427.346663 -148.494018 
L 427.841518 -148.492082 
L 428.336373 -148.495581 
L 428.831228 -148.493138 
L 429.326083 -148.493788 
L 429.820938 -148.493383 
L 430.315793 -148.493301 
L 430.810648 -148.495702 
L 431.305504 -148.494159 
L 431.800359 -148.495819 
L 432.295214 -148.494237 
L 432.790069 -148.494616 
L 433.284924 -148.493595 
L 433.779779 -148.49445 
L 434.274634 -148.495325 
L 434.769489 -148.493927 
L 435.264344 -148.495497 
L 435.759199 -148.494421 
L 436.254055 -148.494402 
L 436.74891 -148.493961 
L 437.243765 -148.494471 
L 437.73862 -148.493904 
L 438.233475 -148.494132 
L 438.72833 -148.493821 
L 439.223185 -148.493797 
L 439.71804 -148.493208 
L 440.212895 -148.494416 
L 440.70775 -148.494807 
L 441.202605 -148.49568 
L 441.697461 -148.495601 
L 442.192316 -148.495385 
L 442.687171 -148.495227 
L 443.182026 -148.496156 
L 443.676881 -148.495847 
L 444.171736 -148.496195 
L 444.666591 -148.496596 
L 445.161446 -148.496735 
L 445.656301 -148.496304 
L 446.151156 -148.496674 
L 446.646011 -148.496382 
L 447.140867 -148.495223 
L 447.635722 -148.495748 
L 448.130577 -148.496303 
L 448.625432 -148.495529 
L 449.120287 -148.496062 
L 449.615142 -148.496205 
L 450.109997 -148.496048 
L 450.604852 -148.49682 
L 451.099707 -148.496131 
L 451.594562 -148.497024 
L 452.089417 -148.496695 
L 452.584273 -148.496915 
L 453.079128 -148.496941 
L 453.573983 -148.496696 
L 454.068838 -148.497011 
L 454.563693 -148.49732 
L 455.058548 -148.496874 
L 455.553403 -148.497352 
L 456.048258 -148.497782 
L 456.543113 -148.497033 
L 457.037968 -148.497066 
L 457.532824 -148.497744 
L 458.027679 -148.497387 
L 458.522534 -148.497177 
L 459.017389 -148.498032 
L 459.512244 -148.497945 
L 460.007099 -148.498233 
L 460.501954 -148.498303 
L 460.996809 -148.498295 
L 461.491664 -148.497336 
L 461.986519 -148.498085 
L 462.481374 -148.497481 
L 462.97623 -148.498196 
L 463.471085 -148.497738 
L 463.96594 -148.49741 
L 464.460795 -148.497468 
L 464.95565 -148.498005 
L 465.450505 -148.498131 
L 465.94536 -148.498343 
L 466.440215 -148.49813 
L 466.93507 -148.498708 
L 467.429925 -148.498222 
L 467.92478 -148.497717 
L 468.419636 -148.497649 
L 468.914491 -148.498844 
L 469.409346 -148.498101 
L 469.904201 -148.498179 
L 470.399056 -148.498662 
L 470.893911 -148.498044 
L 471.388766 -148.498458 
L 471.883621 -148.498311 
L 472.378476 -148.498304 
L 472.873331 -148.498485 
L 473.368187 -148.498135 
L 473.863042 -148.497946 
L 474.357897 -148.498091 
L 474.852752 -148.498248 
L 475.347607 -148.498038 
L 475.842462 -148.49849 
L 476.337317 -148.49828 
L 476.832172 -148.498312 
L 477.327027 -148.497804 
L 477.821882 -148.497853 
L 478.316737 -148.498313 
L 478.811593 -148.498274 
L 479.306448 -148.498285 
L 479.801303 -148.497731 
L 480.296158 -148.498234 
L 480.791013 -148.498215 
L 481.285868 -148.497974 
L 481.780723 -148.498087 
L 482.275578 -148.498579 
L 482.770433 -148.498357 
L 483.265288 -148.497694 
L 483.760143 -148.498282 
L 484.254999 -148.498242 
L 484.749854 -148.497536 
L 485.244709 -148.498213 
L 485.739564 -148.497691 
L 486.234419 -148.49846 
L 486.729274 -148.498265 
L 487.224129 -148.498566 
L 487.718984 -148.496927 
L 488.213839 -148.498315 
L 488.708694 -148.498595 
L 489.203549 -148.498504 
L 489.698405 -148.498612 
L 490.19326 -148.498733 
L 490.688115 -148.498041 
L 491.18297 -148.498533 
L 491.677825 -148.498514 
L 492.17268 -148.498611 
L 492.667535 -148.497909 
L 493.16239 -148.498364 
L 493.657245 -148.497914 
L 494.1521 -148.498014 
L 494.646956 -148.498213 
L 495.141811 -148.498586 
L 495.636666 -148.498487 
L 496.131521 -148.498232 
L 496.626376 -148.498408 
L 497.121231 -148.49843 
L 497.616086 -148.498473 
L 498.110941 -148.49802 
L 498.605796 -148.498317 
L 499.100651 -148.498341 
L 499.595506 -148.498137 
L 500.090362 -148.498612 
L 500.585217 -148.49876 
L 501.080072 -148.498287 
L 501.574927 -148.498426 
L 502.069782 -148.498266 
L 502.564637 -148.498259 
L 503.059492 -148.498537 
L 503.554347 -148.499123 
L 504.049202 -148.498943 
L 504.544057 -148.498883 
L 505.038912 -148.498407 
L 505.533768 -148.498753 
L 506.028623 -148.499034 
L 506.523478 -148.49879 
L 507.018333 -148.498954 
L 507.513188 -148.498797 
L 508.008043 -148.498837 
L 508.502898 -148.499009 
L 508.997753 -148.499017 
L 509.492608 -148.498942 
L 509.987463 -148.498781 
L 510.482319 -148.499122 
L 510.977174 -148.499017 
L 511.472029 -148.499072 
L 511.966884 -148.498937 
L 512.461739 -148.498969 
L 512.956594 -148.498978 
L 513.451449 -148.498213 
L 513.946304 -148.498749 
L 514.441159 -148.498799 
L 514.936014 -148.499018 
L 515.430869 -148.498956 
L 515.925725 -148.498958 
L 516.42058 -148.498707 
L 516.915435 -148.498681 
L 517.41029 -148.498844 
L 517.905145 -148.500096 
L 517.905145 -148.500096 
L 517.905145 -148.500096 
L 517.41029 -148.501227 
L 516.915435 -148.501077 
L 516.42058 -148.501046 
L 515.925725 -148.500907 
L 515.430869 -148.501048 
L 514.936014 -148.501227 
L 514.441159 -148.501073 
L 513.946304 -148.500988 
L 513.451449 -148.501401 
L 512.956594 -148.50115 
L 512.461739 -148.500849 
L 511.966884 -148.501146 
L 511.472029 -148.501168 
L 510.977174 -148.500913 
L 510.482319 -148.500944 
L 509.987463 -148.501147 
L 509.492608 -148.501147 
L 508.997753 -148.500995 
L 508.502898 -148.501014 
L 508.008043 -148.50109 
L 507.513188 -148.501313 
L 507.018333 -148.501258 
L 506.523478 -148.500904 
L 506.028623 -148.501255 
L 505.533768 -148.501244 
L 505.038912 -148.501206 
L 504.544057 -148.501143 
L 504.049202 -148.501069 
L 503.554347 -148.501073 
L 503.059492 -148.501448 
L 502.564637 -148.502103 
L 502.069782 -148.501555 
L 501.574927 -148.501555 
L 501.080072 -148.501542 
L 500.585217 -148.501769 
L 500.090362 -148.501629 
L 499.595506 -148.501735 
L 499.100651 -148.50148 
L 498.605796 -148.501583 
L 498.110941 -148.501953 
L 497.616086 -148.501882 
L 497.121231 -148.501539 
L 496.626376 -148.501533 
L 496.131521 -148.502237 
L 495.636666 -148.501237 
L 495.141811 -148.501281 
L 494.646956 -148.501507 
L 494.1521 -148.501861 
L 493.657245 -148.501554 
L 493.16239 -148.50173 
L 492.667535 -148.50156 
L 492.17268 -148.501735 
L 491.677825 -148.50183 
L 491.18297 -148.501476 
L 490.688115 -148.502032 
L 490.19326 -148.501395 
L 489.698405 -148.501574 
L 489.203549 -148.501694 
L 488.708694 -148.50207 
L 488.213839 -148.501862 
L 487.718984 -148.501552 
L 487.224129 -148.501709 
L 486.729274 -148.50154 
L 486.234419 -148.501518 
L 485.739564 -148.501395 
L 485.244709 -148.501569 
L 484.749854 -148.502166 
L 484.254999 -148.501379 
L 483.760143 -148.501251 
L 483.265288 -148.502194 
L 482.770433 -148.501975 
L 482.275578 -148.501756 
L 481.780723 -148.501027 
L 481.285868 -148.501584 
L 480.791013 -148.501782 
L 480.296158 -148.502109 
L 479.801303 -148.501706 
L 479.306448 -148.501647 
L 478.811593 -148.50174 
L 478.316737 -148.50163 
L 477.821882 -148.502756 
L 477.327027 -148.501721 
L 476.832172 -148.501998 
L 476.337317 -148.501713 
L 475.842462 -148.501343 
L 475.347607 -148.502233 
L 474.852752 -148.501665 
L 474.357897 -148.501659 
L 473.863042 -148.501872 
L 473.368187 -148.501855 
L 472.873331 -148.501532 
L 472.378476 -148.502106 
L 471.883621 -148.501571 
L 471.388766 -148.501906 
L 470.893911 -148.501818 
L 470.399056 -148.502397 
L 469.904201 -148.501765 
L 469.409346 -148.501102 
L 468.914491 -148.502304 
L 468.419636 -148.501656 
L 467.92478 -148.50204 
L 467.429925 -148.50193 
L 466.93507 -148.501589 
L 466.440215 -148.501913 
L 465.94536 -148.50159 
L 465.450505 -148.501717 
L 464.95565 -148.502395 
L 464.460795 -148.503368 
L 463.96594 -148.502754 
L 463.471085 -148.501877 
L 462.97623 -148.501764 
L 462.481374 -148.501815 
L 461.986519 -148.501787 
L 461.491664 -148.502549 
L 460.996809 -148.501814 
L 460.501954 -148.502043 
L 460.007099 -148.502205 
L 459.512244 -148.502363 
L 459.017389 -148.502392 
L 458.522534 -148.50261 
L 458.027679 -148.502134 
L 457.532824 -148.502122 
L 457.037968 -148.502312 
L 456.543113 -148.502443 
L 456.048258 -148.502613 
L 455.553403 -148.503069 
L 455.058548 -148.502343 
L 454.563693 -148.502786 
L 454.068838 -148.502747 
L 453.573983 -148.502631 
L 453.079128 -148.502578 
L 452.584273 -148.502149 
L 452.089417 -148.502573 
L 451.594562 -148.502594 
L 451.099707 -148.503264 
L 450.604852 -148.502482 
L 450.109997 -148.502458 
L 449.615142 -148.504131 
L 449.120287 -148.502794 
L 448.625432 -148.503263 
L 448.130577 -148.502951 
L 447.635722 -148.503252 
L 447.140867 -148.503286 
L 446.646011 -148.503799 
L 446.151156 -148.503414 
L 445.656301 -148.503435 
L 445.161446 -148.502925 
L 444.666591 -148.503322 
L 444.171736 -148.503129 
L 443.676881 -148.503071 
L 443.182026 -148.504322 
L 442.687171 -148.502853 
L 442.192316 -148.503994 
L 441.697461 -148.503819 
L 441.202605 -148.504918 
L 440.70775 -148.50385 
L 440.212895 -148.503426 
L 439.71804 -148.504813 
L 439.223185 -148.504006 
L 438.72833 -148.503978 
L 438.233475 -148.504332 
L 437.73862 -148.504817 
L 437.243765 -148.504914 
L 436.74891 -148.504187 
L 436.254055 -148.505075 
L 435.759199 -148.504803 
L 435.264344 -148.504847 
L 434.769489 -148.505242 
L 434.274634 -148.505957 
L 433.779779 -148.504334 
L 433.284924 -148.505814 
L 432.790069 -148.504884 
L 432.295214 -148.50542 
L 431.800359 -148.504246 
L 431.305504 -148.505009 
L 430.810648 -148.504412 
L 430.315793 -148.50658 
L 429.820938 -148.50516 
L 429.326083 -148.505577 
L 428.831228 -148.507171 
L 428.336373 -148.504921 
L 427.841518 -148.505743 
L 427.346663 -148.505217 
L 426.851808 -148.506005 
L 426.356953 -148.506868 
L 425.862098 -148.50725 
L 425.367242 -148.508152 
L 424.872387 -148.50596 
L 424.377532 -148.509215 
L 423.882677 -148.507968 
L 423.387822 -148.510555 
L 422.892967 -148.510137 
L 422.398112 -148.509141 
L 421.903257 -148.510104 
L 421.408402 -148.507346 
L 420.913547 -148.507434 
L 420.418692 -148.505194 
L 419.923836 -148.504476 
L 419.428981 -148.50629 
L 418.934126 -148.506331 
L 418.439271 -148.507852 
L 417.944416 -148.510141 
L 417.449561 -148.509552 
L 416.954706 -148.513182 
L 416.459851 -148.514533 
L 415.964996 -148.514956 
L 415.470141 -148.513752 
L 414.975285 -148.514712 
L 414.48043 -148.513856 
L 413.985575 -148.513249 
L 413.49072 -148.51183 
L 412.995865 -148.510182 
L 412.50101 -148.505975 
L 412.006155 -148.507955 
L 411.5113 -148.504853 
L 411.016445 -148.507254 
L 410.52159 -148.506849 
L 410.026735 -148.508051 
L 409.531879 -148.5094 
L 409.037024 -148.509437 
L 408.542169 -148.513107 
L 408.047314 -148.511504 
L 407.552459 -148.512372 
L 407.057604 -148.512623 
L 406.562749 -148.515362 
L 406.067894 -148.516873 
L 405.573039 -148.517903 
L 405.078184 -148.51707 
L 404.583329 -148.518783 
L 404.088473 -148.519984 
L 403.593618 -148.517694 
L 403.098763 -148.520302 
L 402.603908 -148.518172 
L 402.109053 -148.520809 
L 401.614198 -148.522789 
L 401.119343 -148.519857 
L 400.624488 -148.522039 
L 400.129633 -148.523525 
L 399.634778 -148.52416 
L 399.139923 -148.531754 
L 398.645067 -148.531838 
L 398.150212 -148.538502 
L 397.655357 -148.531726 
L 397.160502 -148.538696 
L 396.665647 -148.531875 
L 396.170792 -148.533503 
L 395.675937 -148.535626 
L 395.181082 -148.534833 
L 394.686227 -148.552891 
L 394.191372 -148.544312 
L 393.696516 -148.54873 
L 393.201661 -148.550038 
L 392.706806 -148.559157 
L 392.211951 -148.560894 
L 391.717096 -148.559149 
L 391.222241 -148.566898 
L 390.727386 -148.562583 
L 390.232531 -148.559037 
L 389.737676 -148.563901 
L 389.242821 -148.557601 
L 388.747966 -148.56424 
L 388.25311 -148.554524 
L 387.758255 -148.5519 
L 387.2634 -148.54513 
L 386.768545 -148.54885 
L 386.27369 -148.55428 
L 385.778835 -148.554285 
L 385.28398 -148.5554 
L 384.789125 -148.560329 
L 384.29427 -148.55362 
L 383.799415 -148.545576 
L 383.30456 -148.551083 
L 382.809704 -148.55699 
L 382.314849 -148.555436 
L 381.819994 -148.56065 
L 381.325139 -148.566638 
L 380.830284 -148.579258 
L 380.335429 -148.564947 
L 379.840574 -148.57005 
L 379.345719 -148.567666 
L 378.850864 -148.563123 
L 378.356009 -148.571761 
L 377.861153 -148.58041 
L 377.366298 -148.587692 
L 376.871443 -148.590052 
L 376.376588 -148.594162 
L 375.881733 -148.587437 
L 375.386878 -148.588482 
L 374.892023 -148.581889 
L 374.397168 -148.555042 
L 373.902313 -148.566882 
L 373.407458 -148.594099 
L 372.912603 -148.612796 
L 372.417747 -148.636648 
L 371.922892 -148.642119 
L 371.428037 -148.670767 
L 370.933182 -148.688963 
L 370.438327 -148.688954 
L 369.943472 -148.726516 
L 369.448617 -148.71635 
L 368.953762 -148.727173 
L 368.458907 -148.73064 
L 367.964052 -148.742665 
L 367.469197 -148.754643 
L 366.974341 -148.72061 
L 366.479486 -148.728683 
L 365.984631 -148.75342 
L 365.489776 -148.75383 
L 364.994921 -148.742909 
L 364.500066 -148.756039 
L 364.005211 -148.764093 
L 363.510356 -148.778128 
L 363.015501 -148.776071 
L 362.520646 -148.75342 
L 362.025791 -148.800074 
L 361.530935 -148.856584 
L 361.03608 -148.912097 
L 360.541225 -148.929098 
L 360.04637 -148.931636 
L 359.551515 -148.915877 
L 359.05666 -148.87287 
L 358.561805 -148.844579 
L 358.06695 -148.832415 
L 357.572095 -148.800893 
L 357.07724 -148.837699 
L 356.582384 -148.80564 
L 356.087529 -148.809841 
L 355.592674 -148.805129 
L 355.097819 -148.810583 
L 354.602964 -148.865128 
L 354.108109 -148.803583 
L 353.613254 -148.880385 
L 353.118399 -148.78791 
L 352.623544 -148.832931 
L 352.128689 -148.881075 
L 351.633834 -148.913146 
L 351.138978 -148.976188 
L 350.644123 -149.012694 
L 350.149268 -148.995313 
L 349.654413 -149.080662 
L 349.159558 -149.124188 
L 348.664703 -149.121974 
L 348.169848 -149.237359 
L 347.674993 -149.133068 
L 347.180138 -148.988996 
L 346.685283 -149.0387 
L 346.190428 -149.357935 
L 345.695572 -149.297696 
L 345.200717 -149.481089 
L 344.705862 -150.25445 
L 344.211007 -150.169471 
L 343.716152 -150.802293 
L 343.221297 -151.030921 
L 342.726442 -151.148151 
L 342.231587 -151.530657 
L 341.736732 -152.442649 
L 341.241877 -152.661562 
L 340.747021 -152.56497 
L 340.252166 -152.716906 
L 339.757311 -152.730606 
L 339.262456 -153.002682 
L 338.767601 -153.064708 
L 338.272746 -153.254606 
L 337.777891 -153.309704 
L 337.283036 -153.704193 
L 336.788181 -153.762521 
L 336.293326 -153.784565 
L 335.798471 -153.938887 
L 335.303615 -153.626888 
L 334.80876 -153.93421 
L 334.313905 -154.103283 
L 333.81905 -153.659584 
L 333.324195 -154.186963 
L 332.82934 -154.026568 
L 332.334485 -154.237136 
L 331.83963 -154.190988 
L 331.344775 -154.445261 
L 330.84992 -154.365335 
L 330.355065 -154.098664 
L 329.860209 -154.360406 
L 329.365354 -154.452194 
L 328.870499 -154.65877 
L 328.375644 -154.868238 
L 327.880789 -154.355243 
L 327.385934 -154.504242 
L 326.891079 -154.230382 
L 326.396224 -154.647666 
L 325.901369 -154.317784 
L 325.406514 -154.830026 
L 324.911659 -154.910818 
L 324.416803 -155.413259 
L 323.921948 -155.771464 
L 323.427093 -155.794705 
L 322.932238 -156.231106 
L 322.437383 -155.609296 
L 321.942528 -156.33694 
L 321.447673 -156.089236 
L 320.952818 -156.452853 
L 320.457963 -156.37057 
L 319.963108 -155.698355 
L 319.468252 -155.76074 
L 318.973397 -155.564734 
L 318.478542 -155.825619 
L 317.983687 -155.587941 
L 317.488832 -156.58149 
L 316.993977 -156.981983 
L 316.499122 -156.840465 
L 316.004267 -157.460469 
L 315.509412 -157.494254 
L 315.014557 -157.382407 
L 314.519702 -157.068972 
L 314.024846 -156.83006 
L 313.529991 -157.201479 
L 313.035136 -154.933296 
L 312.540281 -153.528846 
L 312.045426 -153.53183 
L 311.550571 -153.688931 
L 311.055716 -153.823321 
L 310.560861 -151.731767 
L 310.066006 -152.69307 
L 309.571151 -153.184032 
L 309.076296 -154.381316 
L 308.58144 -153.200961 
L 308.086585 -157.078785 
L 307.59173 -158.193029 
L 307.096875 -157.921254 
L 306.60202 -158.741528 
L 306.107165 -160.040052 
L 305.61231 -160.325562 
L 305.117455 -161.062708 
L 304.6226 -162.125214 
L 304.127745 -162.116413 
L 303.632889 -161.85622 
L 303.138034 -161.298139 
L 302.643179 -159.873184 
L 302.148324 -158.548747 
L 301.653469 -157.890084 
L 301.158614 -156.946832 
L 300.663759 -157.309338 
L 300.168904 -156.289939 
L 299.674049 -157.400667 
L 299.179194 -156.746309 
L 298.684339 -157.665863 
L 298.189483 -156.786871 
L 297.694628 -157.44842 
L 297.199773 -155.693459 
L 296.704918 -156.885187 
L 296.210063 -153.779856 
L 295.715208 -151.569872 
L 295.220353 -150.037712 
L 294.725498 -148.93798 
L 294.230643 -149.011838 
L 293.735788 -149.135338 
L 293.240933 -149.294115 
L 292.746077 -149.346661 
L 292.251222 -149.296367 
L 291.756367 -149.233668 
L 291.261512 -149.257408 
L 290.766657 -149.115867 
L 290.271802 -149.131007 
L 289.776947 -149.122956 
L 289.282092 -149.085957 
L 288.787237 -149.268344 
L 288.292382 -149.642752 
L 287.797527 -149.593897 
L 287.302671 -149.50503 
L 286.807816 -149.623837 
L 286.312961 -149.737101 
L 285.818106 -150.026193 
L 285.323251 -150.055347 
L 284.828396 -150.658059 
L 284.333541 -150.568196 
L 283.838686 -154.540625 
L 283.343831 -156.300057 
L 282.848976 -156.63484 
L 282.35412 -157.779404 
L 281.859265 -159.114097 
L 281.36441 -159.703982 
L 280.869555 -161.068567 
L 280.3747 -160.636463 
L 279.879845 -160.890651 
L 279.38499 -161.563407 
L 278.890135 -162.151661 
L 278.39528 -162.333652 
L 277.900425 -162.513106 
L 277.40557 -161.610072 
L 276.910714 -162.168385 
L 276.415859 -161.85068 
L 275.921004 -162.969589 
L 275.426149 -162.84407 
L 274.931294 -163.245659 
L 274.436439 -162.688657 
L 273.941584 -163.259828 
L 273.446729 -165.154571 
L 272.951874 -164.557983 
L 272.457019 -159.724175 
L 271.962164 -160.31161 
L 271.467308 -152.299389 
L 270.972453 -150.755049 
L 270.477598 -148.918502 
L 269.982743 -148.887949 
L 269.487888 -148.777351 
L 268.993033 -148.853798 
L 268.498178 -148.920431 
L 268.003323 -148.977326 
L 267.508468 -149.039332 
L 267.013613 -148.939081 
L 266.518757 -148.961304 
L 266.023902 -148.945896 
L 265.529047 -148.908179 
L 265.034192 -148.898042 
L 264.539337 -148.892998 
L 264.044482 -148.967199 
L 263.549627 -149.124635 
L 263.054772 -148.890743 
L 262.559917 -148.816009 
L 262.065062 -148.909483 
L 261.570207 -149.071464 
L 261.075351 -149.929424 
L 260.580496 -150.078973 
L 260.085641 -150.386307 
L 259.590786 -150.983228 
L 259.095931 -150.984474 
L 258.601076 -150.928738 
L 258.106221 -150.956007 
L 257.611366 -151.307059 
L 257.116511 -151.548293 
L 256.621656 -151.971538 
L 256.126801 -151.883345 
L 255.631945 -152.059383 
L 255.13709 -152.131753 
L 254.642235 -152.203672 
L 254.14738 -152.24314 
L 253.652525 -152.251813 
L 253.15767 -152.737002 
L 252.662815 -152.826118 
L 252.16796 -153.019627 
L 251.673105 -153.248757 
L 251.17825 -153.049167 
L 250.683395 -153.137005 
L 250.188539 -153.166846 
L 249.693684 -152.682828 
L 249.198829 -152.849951 
L 248.703974 -152.527938 
L 248.209119 -152.286529 
L 247.714264 -152.999738 
L 247.219409 -152.267101 
L 246.724554 -151.903182 
L 246.229699 -152.153423 
L 245.734844 -151.4411 
L 245.239988 -151.090738 
L 244.745133 -152.231938 
L 244.250278 -150.715173 
L 243.755423 -151.528752 
L 243.260568 -152.736741 
L 242.765713 -151.503912 
L 242.270858 -152.005589 
L 241.776003 -152.923568 
L 241.281148 -152.902682 
L 240.786293 -153.59058 
L 240.291438 -153.066907 
L 239.796582 -153.021097 
L 239.301727 -153.570596 
L 238.806872 -153.269801 
L 238.312017 -153.241685 
L 237.817162 -153.491352 
L 237.322307 -152.428493 
L 236.827452 -153.082516 
L 236.332597 -151.891953 
L 235.837742 -151.191187 
L 235.342887 -150.770938 
L 234.848032 -152.990571 
L 234.353176 -153.850966 
L 233.858321 -154.709554 
L 233.363466 -154.43562 
L 232.868611 -155.320985 
L 232.373756 -155.850209 
L 231.878901 -156.181587 
L 231.384046 -155.868227 
L 230.889191 -154.601205 
L 230.394336 -151.545524 
L 229.899481 -150.432174 
L 229.404625 -151.330777 
L 228.90977 -152.556662 
L 228.414915 -157.08553 
L 227.92006 -160.277204 
L 227.425205 -163.50534 
L 226.93035 -160.44849 
L 226.435495 -163.203253 
L 225.94064 -159.784491 
L 225.445785 -159.210256 
L 224.95093 -154.961115 
L 224.456075 -150.331688 
L 223.961219 -149.314091 
L 223.466364 -149.139499 
L 222.971509 -149.094442 
L 222.476654 -149.015505 
L 221.981799 -149.281523 
L 221.486944 -149.117835 
L 220.992089 -149.2071 
L 220.497234 -149.249695 
L 220.002379 -149.179534 
L 219.507524 -149.417533 
L 219.012669 -149.76516 
L 218.517813 -150.3845 
L 218.022958 -151.428046 
L 217.528103 -151.905987 
L 217.033248 -153.604026 
L 216.538393 -153.565101 
L 216.043538 -153.699384 
L 215.548683 -153.876513 
L 215.053828 -153.9439 
L 214.558973 -153.903944 
L 214.064118 -154.199828 
L 213.569263 -154.930257 
L 213.074407 -155.171534 
L 212.579552 -155.187436 
L 212.084697 -155.851351 
L 211.589842 -156.524648 
L 211.094987 -157.268082 
L 210.600132 -156.961534 
L 210.105277 -157.026126 
L 209.610422 -157.251726 
L 209.115567 -157.669892 
L 208.620712 -159.114303 
L 208.125856 -159.102908 
L 207.631001 -159.527934 
L 207.136146 -160.049782 
L 206.641291 -161.515636 
L 206.146436 -160.734375 
L 205.651581 -156.899945 
L 205.156726 -153.654522 
L 204.661871 -152.76317 
L 204.167016 -152.367957 
L 203.672161 -154.861319 
L 203.177306 -155.621122 
L 202.68245 -163.955511 
L 202.187595 -162.1139 
L 201.69274 -158.753642 
L 201.197885 -153.458723 
L 200.70303 -151.750158 
L 200.208175 -150.369932 
L 199.71332 -149.657285 
L 199.218465 -149.708511 
L 198.72361 -149.691611 
L 198.228755 -150.237154 
L 197.7339 -151.280089 
L 197.239044 -155.178676 
L 196.744189 -154.763448 
L 196.249334 -153.129479 
L 195.754479 -157.390912 
L 195.259624 -163.041609 
L 194.764769 -163.359007 
L 194.269914 -163.466952 
L 193.775059 -163.967387 
L 193.280204 -163.767128 
L 192.785349 -163.752137 
L 192.290493 -163.878546 
L 191.795638 -165.030411 
L 191.300783 -166.543934 
L 190.805928 -163.837345 
L 190.311073 -164.271621 
L 189.816218 -159.636848 
L 189.321363 -163.391307 
L 188.826508 -156.979647 
L 188.331653 -155.161609 
L 187.836798 -151.219069 
L 187.341943 -150.165685 
L 186.847087 -149.725757 
L 186.352232 -150.015592 
L 185.857377 -151.418935 
L 185.362522 -152.504138 
L 184.867667 -152.837712 
L 184.372812 -152.317875 
L 183.877957 -152.603511 
L 183.383102 -152.233795 
L 182.888247 -152.296016 
L 182.393392 -151.58838 
L 181.898537 -151.798666 
L 181.403681 -151.589338 
L 180.908826 -152.403234 
L 180.413971 -152.757281 
L 179.919116 -152.846676 
L 179.424261 -152.875167 
L 178.929406 -153.03932 
L 178.434551 -154.33202 
L 177.939696 -154.709966 
L 177.444841 -155.424071 
L 176.949986 -154.98103 
L 176.455131 -152.394303 
L 175.960275 -152.545924 
L 175.46542 -152.625862 
L 174.970565 -152.557371 
L 174.47571 -152.200947 
L 173.980855 -153.825527 
L 173.486 -155.18126 
L 172.991145 -155.416633 
L 172.49629 -155.628739 
L 172.001435 -155.493634 
L 171.50658 -155.974699 
L 171.011724 -156.266579 
L 170.516869 -157.004637 
L 170.022014 -158.766535 
L 169.527159 -160.371797 
L 169.032304 -162.410858 
L 168.537449 -166.292787 
L 168.042594 -166.928403 
L 167.547739 -168.744761 
L 167.052884 -170.308691 
L 166.558029 -170.065117 
L 166.063174 -168.710933 
L 165.568318 -166.437773 
L 165.073463 -166.109968 
L 164.578608 -157.757655 
L 164.083753 -153.261311 
L 163.588898 -150.774083 
L 163.094043 -149.379041 
L 162.599188 -149.412605 
L 162.104333 -149.422121 
L 161.609478 -149.829433 
L 161.114623 -150.413528 
L 160.619768 -152.43936 
L 160.124912 -153.68694 
L 159.630057 -154.114507 
L 159.135202 -154.91429 
L 158.640347 -155.006193 
L 158.145492 -154.942098 
L 157.650637 -155.677647 
L 157.155782 -155.11201 
L 156.660927 -155.360783 
L 156.166072 -154.789434 
L 155.671217 -154.598063 
L 155.176362 -154.219736 
L 154.681506 -153.832895 
L 154.186651 -153.868004 
L 153.691796 -154.43642 
L 153.196941 -155.6071 
L 152.702086 -156.208261 
L 152.207231 -155.991485 
L 151.712376 -158.013089 
L 151.217521 -157.121975 
L 150.722666 -155.060211 
L 150.227811 -153.969501 
L 149.732955 -151.099158 
L 149.2381 -152.535082 
L 148.743245 -154.448624 
L 148.24839 -156.384708 
L 147.753535 -156.632257 
L 147.25868 -157.147622 
L 146.763825 -156.631426 
L 146.26897 -157.234698 
L 145.774115 -156.967348 
L 145.27926 -156.822473 
L 144.784405 -156.953167 
L 144.289549 -156.722364 
L 143.794694 -157.351051 
L 143.299839 -158.485766 
L 142.804984 -161.363565 
L 142.310129 -162.159663 
L 141.815274 -163.058399 
L 141.320419 -164.129237 
L 140.825564 -163.629068 
L 140.330709 -164.555592 
L 139.835854 -164.914165 
L 139.340999 -162.936041 
L 138.846143 -163.786824 
L 138.351288 -160.106025 
L 137.856433 -157.192347 
L 137.361578 -152.581042 
L 136.866723 -149.391167 
L 136.371868 -149.505968 
L 135.877013 -149.710328 
L 135.382158 -151.925353 
L 134.887303 -153.178084 
L 134.392448 -155.750622 
L 133.897592 -156.373934 
L 133.402737 -156.064301 
L 132.907882 -155.365214 
L 132.413027 -154.728285 
L 131.918172 -154.904435 
L 131.423317 -154.89094 
L 130.928462 -154.99383 
L 130.433607 -154.83322 
L 129.938752 -154.839355 
L 129.443897 -154.64163 
L 128.949042 -155.281471 
L 128.454186 -155.658778 
L 127.959331 -156.961489 
L 127.464476 -157.045066 
L 126.969621 -157.75044 
L 126.474766 -158.513697 
L 125.979911 -158.788616 
L 125.485056 -160.13835 
L 124.990201 -160.862163 
L 124.495346 -158.914683 
L 124.000491 -159.045844 
L 123.505636 -157.296099 
L 123.01078 -156.102012 
L 122.515925 -151.14918 
L 122.02107 -150.756023 
z
" style="stroke: #1b5975; stroke-width: 0.5"/>
    </defs>
    <g clip-path="url(#p56ea3c0093)">
     <use xlink:href="#mbb26d5c47d" x="0" y="216" style="fill: #1b5975; stroke: #1b5975; stroke-width: 0.5"/>
    </g>
   </g>
   <g id="matplotlib.axis_1">
    <g id="xtick_1"/>
    <g id="xtick_2"/>
    <g id="xtick_3"/>
    <g id="xtick_4"/>
    <g id="xtick_5"/>
    <g id="xtick_6"/>
   </g>
   <g id="matplotlib.axis_2">
    <g id="ytick_1"/>
    <g id="ytick_2"/>
    <g id="ytick_3"/>
    <g id="ytick_4"/>
    <g id="ytick_5"/>
   </g>
   <g id="text_1">
    <!-- Left  -->
    <g style="fill: #1b5975" transform="translate(83.174742 70.81125) scale(0.12 -0.12)">
     <defs>
      <path id="DejaVuSans-Bold-4c" d="M 588 4666 
L 1791 4666 
L 1791 909 
L 3903 909 
L 3903 0 
L 588 0 
L 588 4666 
z
" transform="scale(0.015625)"/>
      <path id="DejaVuSans-Bold-65" d="M 4031 1759 
L 4031 1441 
L 1416 1441 
Q 1456 1047 1700 850 
Q 1944 653 2381 653 
Q 2734 653 3104 758 
Q 3475 863 3866 1075 
L 3866 213 
Q 3469 63 3072 -14 
Q 2675 -91 2278 -91 
Q 1328 -91 801 392 
Q 275 875 275 1747 
Q 275 2603 792 3093 
Q 1309 3584 2216 3584 
Q 3041 3584 3536 3087 
Q 4031 2591 4031 1759 
z
M 2881 2131 
Q 2881 2450 2695 2645 
Q 2509 2841 2209 2841 
Q 1884 2841 1681 2658 
Q 1478 2475 1428 2131 
L 2881 2131 
z
" transform="scale(0.015625)"/>
      <path id="DejaVuSans-Bold-66" d="M 2841 4863 
L 2841 4128 
L 2222 4128 
Q 1984 4128 1890 4042 
Q 1797 3956 1797 3744 
L 1797 3500 
L 2753 3500 
L 2753 2700 
L 1797 2700 
L 1797 0 
L 678 0 
L 678 2700 
L 122 2700 
L 122 3500 
L 678 3500 
L 678 3744 
Q 678 4316 997 4589 
Q 1316 4863 1984 4863 
L 2841 4863 
z
" transform="scale(0.015625)"/>
      <path id="DejaVuSans-Bold-74" d="M 1759 4494 
L 1759 3500 
L 2913 3500 
L 2913 2700 
L 1759 2700 
L 1759 1216 
Q 1759 972 1856 886 
Q 1953 800 2241 800 
L 2816 800 
L 2816 0 
L 1856 0 
Q 1194 0 917 276 
Q 641 553 641 1216 
L 641 2700 
L 84 2700 
L 84 3500 
L 641 3500 
L 641 4494 
L 1759 4494 
z
" transform="scale(0.015625)"/>
      <path id="DejaVuSans-Bold-20" transform="scale(0.015625)"/>
     </defs>
     <use xlink:href="#DejaVuSans-Bold-4c"/>
     <use xlink:href="#DejaVuSans-Bold-65" x="63.720703"/>
     <use xlink:href="#DejaVuSans-Bold-66" x="131.542969"/>
     <use xlink:href="#DejaVuSans-Bold-74" x="175.048828"/>
     <use xlink:href="#DejaVuSans-Bold-20" x="222.851562"/>
    </g>
   </g>
  </g>
  <g id="axes_2">
   <g id="patch_3">
    <path d="M 72 192.24 
L 518.4 192.24 
L 518.4 109.08 
L 72 109.08 
z
" style="fill: #ca5144"/>
   </g>
   <g id="PolyCollection_2">
    <defs>
     <path id="mb0863c1d0f" d="M 126.339206 -67.779073 
L 126.339206 -62.632013 
L 126.82867 -62.951127 
L 127.318134 -53.856343 
L 127.807599 -48.720574 
L 128.297063 -43.909611 
L 128.786527 -43.467987 
L 129.275991 -43.546742 
L 129.765455 -44.559125 
L 130.254919 -44.108143 
L 130.744384 -44.941874 
L 131.233848 -44.953865 
L 131.723312 -46.018469 
L 132.212776 -46.242587 
L 132.70224 -46.362048 
L 133.191704 -47.34947 
L 133.681168 -47.73196 
L 134.170633 -48.429727 
L 134.660097 -48.041609 
L 135.149561 -48.095421 
L 135.639025 -48.487326 
L 136.128489 -48.796165 
L 136.617953 -48.719875 
L 137.107418 -48.44823 
L 137.596882 -47.92008 
L 138.086346 -47.891266 
L 138.57581 -48.382959 
L 139.065274 -59.155824 
L 139.554738 -61.616072 
L 140.044203 -63.164351 
L 140.533667 -64.221736 
L 141.023131 -64.477258 
L 141.512595 -60.678672 
L 142.002059 -50.965121 
L 142.491523 -44.057594 
L 142.980988 -38.099934 
L 143.470452 -39.637271 
L 143.959916 -39.466594 
L 144.44938 -40.177066 
L 144.938844 -39.62274 
L 145.428308 -40.601693 
L 145.917773 -41.991717 
L 146.407237 -42.229761 
L 146.896701 -44.598598 
L 147.386165 -45.899 
L 147.875629 -46.902532 
L 148.365093 -48.007189 
L 148.854558 -48.744703 
L 149.344022 -48.207075 
L 149.833486 -49.098041 
L 150.32295 -49.285992 
L 150.812414 -49.997615 
L 151.301878 -49.420018 
L 151.791342 -50.298016 
L 152.280807 -52.701706 
L 152.770271 -55.987412 
L 153.259735 -59.079414 
L 153.749199 -60.559116 
L 154.238663 -57.898677 
L 154.728127 -53.171725 
L 155.217592 -51.8918 
L 155.707056 -52.490116 
L 156.19652 -52.200292 
L 156.685984 -52.426274 
L 157.175448 -52.411898 
L 157.664912 -53.320835 
L 158.154377 -53.294291 
L 158.643841 -53.401684 
L 159.133305 -53.656235 
L 159.622769 -53.342888 
L 160.112233 -53.08099 
L 160.601697 -53.687041 
L 161.091162 -53.55954 
L 161.580626 -53.72436 
L 162.07009 -53.737064 
L 162.559554 -53.306843 
L 163.049018 -53.086435 
L 163.538482 -53.422886 
L 164.027947 -54.426091 
L 164.517411 -60.409357 
L 165.006875 -63.562927 
L 165.496339 -63.46914 
L 165.985803 -64.202923 
L 166.475267 -64.378932 
L 166.964732 -64.461851 
L 167.454196 -63.312051 
L 167.94366 -55.780173 
L 168.433124 -48.065486 
L 168.922588 -39.027252 
L 169.412052 -37.691245 
L 169.901516 -36.817821 
L 170.390981 -35.691267 
L 170.880445 -35.724789 
L 171.369909 -35.924991 
L 171.859373 -36.592201 
L 172.348837 -38.61088 
L 172.838301 -39.343479 
L 173.327766 -42.077686 
L 173.81723 -44.490584 
L 174.306694 -45.88426 
L 174.796158 -47.178374 
L 175.285622 -48.46354 
L 175.775086 -49.013727 
L 176.264551 -49.695184 
L 176.754015 -50.027309 
L 177.243479 -50.68064 
L 177.732943 -57.849743 
L 178.222407 -59.986979 
L 178.711871 -57.831702 
L 179.201336 -58.429174 
L 179.6908 -55.768996 
L 180.180264 -54.746125 
L 180.669728 -54.495215 
L 181.159192 -54.015793 
L 181.648656 -53.205514 
L 182.138121 -54.081229 
L 182.627585 -54.629862 
L 183.117049 -55.188834 
L 183.606513 -55.661608 
L 184.095977 -55.944763 
L 184.585441 -55.598091 
L 185.074906 -56.072488 
L 185.56437 -55.303831 
L 186.053834 -54.675509 
L 186.543298 -54.514743 
L 187.032762 -54.519764 
L 187.522226 -53.54829 
L 188.01169 -52.858324 
L 188.501155 -53.286268 
L 188.990619 -56.13848 
L 189.480083 -59.860769 
L 189.969547 -63.194702 
L 190.459011 -63.834829 
L 190.948475 -63.15474 
L 191.43794 -59.704223 
L 191.927404 -53.814726 
L 192.416868 -50.056979 
L 192.906332 -39.947146 
L 193.395796 -43.508722 
L 193.88526 -41.04926 
L 194.374725 -41.373841 
L 194.864189 -38.227327 
L 195.353653 -37.611756 
L 195.843117 -39.260592 
L 196.332581 -37.951118 
L 196.822045 -37.813956 
L 197.31151 -37.780366 
L 197.800974 -37.740614 
L 198.290438 -37.027361 
L 198.779902 -37.268932 
L 199.269366 -44.548585 
L 199.75883 -58.541567 
L 200.248295 -53.918069 
L 200.737759 -52.193846 
L 201.227223 -61.9176 
L 201.716687 -63.597168 
L 202.206151 -63.641108 
L 202.695615 -64.415086 
L 203.18508 -64.079707 
L 203.674544 -64.201002 
L 204.164008 -60.668237 
L 204.653472 -56.238275 
L 205.142936 -45.975714 
L 205.6324 -43.439751 
L 206.121864 -40.09749 
L 206.611329 -49.945459 
L 207.100793 -57.385296 
L 207.590257 -59.540222 
L 208.079721 -59.209933 
L 208.569185 -53.540536 
L 209.058649 -50.755603 
L 209.548114 -48.001548 
L 210.037578 -47.897954 
L 210.527042 -47.264812 
L 211.016506 -46.677081 
L 211.50597 -47.616331 
L 211.995434 -48.15374 
L 212.484899 -49.010085 
L 212.974363 -48.170428 
L 213.463827 -48.122124 
L 213.953291 -48.804766 
L 214.442755 -49.34419 
L 214.932219 -50.197422 
L 215.421684 -50.839768 
L 215.911148 -51.640863 
L 216.400612 -53.123621 
L 216.890076 -53.04487 
L 217.37954 -54.305009 
L 217.869004 -54.259342 
L 218.358469 -54.527267 
L 218.847933 -54.070425 
L 219.337397 -54.221415 
L 219.826861 -54.715117 
L 220.316325 -54.695476 
L 220.805789 -59.395441 
L 221.295254 -61.563045 
L 221.784718 -63.268221 
L 222.274182 -63.781657 
L 222.763646 -63.945411 
L 223.25311 -63.964024 
L 223.742574 -64.25304 
L 224.232038 -64.575438 
L 224.721503 -64.372175 
L 225.210967 -64.694819 
L 225.700431 -64.459935 
L 226.189895 -64.667627 
L 226.679359 -64.653215 
L 227.168823 -64.637157 
L 227.658288 -62.677882 
L 228.147752 -54.644241 
L 228.637216 -46.818075 
L 229.12668 -45.173167 
L 229.616144 -41.04038 
L 230.105608 -46.448469 
L 230.595073 -41.742954 
L 231.084537 -44.587391 
L 231.574001 -50.511463 
L 232.063465 -58.355717 
L 232.552929 -61.744751 
L 233.042393 -62.467663 
L 233.531858 -60.143605 
L 234.021322 -54.534862 
L 234.510786 -52.39978 
L 235.00025 -51.046558 
L 235.489714 -52.021466 
L 235.979178 -52.047425 
L 236.468643 -54.101886 
L 236.958107 -55.250827 
L 237.447571 -56.486696 
L 237.937035 -58.553642 
L 238.426499 -60.169943 
L 238.915963 -58.769665 
L 239.405428 -58.730761 
L 239.894892 -56.380607 
L 240.384356 -55.11647 
L 240.87382 -55.694655 
L 241.363284 -55.524365 
L 241.852748 -56.18339 
L 242.342212 -56.593736 
L 242.831677 -57.538764 
L 243.321141 -57.886002 
L 243.810605 -57.634354 
L 244.300069 -58.104972 
L 244.789533 -58.284767 
L 245.278997 -59.840761 
L 245.768462 -60.08228 
L 246.257926 -58.166827 
L 246.74739 -58.476839 
L 247.236854 -59.749394 
L 247.726318 -58.19989 
L 248.215782 -58.185005 
L 248.705247 -59.055048 
L 249.194711 -57.886237 
L 249.684175 -57.285919 
L 250.173639 -56.488522 
L 250.663103 -56.053181 
L 251.152567 -56.042697 
L 251.642032 -55.276622 
L 252.131496 -54.357636 
L 252.62096 -54.74308 
L 253.110424 -54.390386 
L 253.599888 -54.379961 
L 254.089352 -54.553078 
L 254.578817 -54.709002 
L 255.068281 -54.820378 
L 255.557745 -55.247503 
L 256.047209 -55.127682 
L 256.536673 -55.225638 
L 257.026137 -56.140981 
L 257.515602 -56.307601 
L 258.005066 -56.672578 
L 258.49453 -57.523639 
L 258.983994 -58.050685 
L 259.473458 -58.790507 
L 259.962922 -59.187908 
L 260.452387 -59.964382 
L 260.941851 -59.997536 
L 261.431315 -60.289527 
L 261.920779 -59.96143 
L 262.410243 -60.123429 
L 262.899707 -62.872529 
L 263.389171 -63.563192 
L 263.878636 -64.486815 
L 264.3681 -64.582695 
L 264.857564 -64.843818 
L 265.347028 -65.020176 
L 265.836492 -65.023317 
L 266.325956 -64.946739 
L 266.815421 -64.989148 
L 267.304885 -65.019473 
L 267.794349 -64.910113 
L 268.283813 -64.964679 
L 268.773277 -64.858055 
L 269.262741 -64.894642 
L 269.752206 -64.985677 
L 270.24167 -64.789763 
L 270.731134 -64.839126 
L 271.220598 -65.042558 
L 271.710062 -64.922678 
L 272.199526 -64.994303 
L 272.688991 -64.995352 
L 273.178455 -65.12606 
L 273.667919 -62.761638 
L 274.157383 -60.171925 
L 274.646847 -47.246557 
L 275.136311 -40.917625 
L 275.625776 -38.491671 
L 276.11524 -38.912363 
L 276.604704 -39.26661 
L 277.094168 -39.533653 
L 277.583632 -40.671875 
L 278.073096 -41.27379 
L 278.562561 -43.429657 
L 279.052025 -42.789737 
L 279.541489 -43.330654 
L 280.030953 -43.408697 
L 280.520417 -42.634579 
L 281.009881 -43.046477 
L 281.499345 -43.727501 
L 281.98881 -44.961041 
L 282.478274 -46.343606 
L 282.967738 -46.818788 
L 283.457202 -46.870238 
L 283.946666 -47.711039 
L 284.43613 -47.923072 
L 284.925595 -48.943584 
L 285.415059 -49.48479 
L 285.904523 -52.501794 
L 286.393987 -57.054612 
L 286.883451 -62.90008 
L 287.372915 -63.041506 
L 287.86238 -63.782733 
L 288.351844 -64.145112 
L 288.841308 -64.19846 
L 289.330772 -64.476857 
L 289.820236 -64.493503 
L 290.3097 -64.851594 
L 290.799165 -64.708631 
L 291.288629 -64.753581 
L 291.778093 -64.528653 
L 292.267557 -64.549232 
L 292.757021 -64.801787 
L 293.246485 -64.666208 
L 293.73595 -64.786206 
L 294.225414 -64.747824 
L 294.714878 -64.793928 
L 295.204342 -64.881208 
L 295.693806 -64.794421 
L 296.18327 -64.81627 
L 296.672735 -64.827063 
L 297.162199 -64.779472 
L 297.651663 -63.752883 
L 298.141127 -60.32073 
L 298.630591 -55.052488 
L 299.120055 -53.583854 
L 299.609519 -51.642088 
L 300.098984 -50.892801 
L 300.588448 -48.566702 
L 301.077912 -48.403968 
L 301.567376 -48.176002 
L 302.05684 -48.796728 
L 302.546304 -48.299732 
L 303.035769 -47.81014 
L 303.525233 -47.765537 
L 304.014697 -46.573226 
L 304.504161 -45.850902 
L 304.993625 -45.090202 
L 305.483089 -44.708324 
L 305.972554 -43.628694 
L 306.462018 -43.418517 
L 306.951482 -43.726864 
L 307.440946 -44.36046 
L 307.93041 -44.919902 
L 308.419874 -45.721017 
L 308.909339 -46.286132 
L 309.398803 -47.765555 
L 309.888267 -49.301385 
L 310.377731 -50.767645 
L 310.867195 -55.133234 
L 311.356659 -56.942355 
L 311.846124 -56.941345 
L 312.335588 -54.038813 
L 312.825052 -53.712288 
L 313.314516 -50.706549 
L 313.80398 -46.742342 
L 314.293444 -47.984555 
L 314.782909 -50.63122 
L 315.272373 -47.315327 
L 315.761837 -47.261659 
L 316.251301 -48.003731 
L 316.740765 -49.853726 
L 317.230229 -50.564903 
L 317.719693 -50.221785 
L 318.209158 -51.166476 
L 318.698622 -50.544278 
L 319.188086 -49.833603 
L 319.67755 -50.611273 
L 320.167014 -51.36839 
L 320.656478 -51.922359 
L 321.145943 -52.456771 
L 321.635407 -52.205846 
L 322.124871 -51.935833 
L 322.614335 -51.691689 
L 323.103799 -52.205482 
L 323.593263 -52.560715 
L 324.082728 -52.696617 
L 324.572192 -52.801531 
L 325.061656 -53.089976 
L 325.55112 -53.35475 
L 326.040584 -53.887483 
L 326.530048 -54.315365 
L 327.019513 -54.672873 
L 327.508977 -55.033374 
L 327.998441 -55.291034 
L 328.487905 -55.496088 
L 328.977369 -55.837298 
L 329.466833 -55.984233 
L 329.956298 -55.86804 
L 330.445762 -55.859373 
L 330.935226 -55.78407 
L 331.42469 -55.512228 
L 331.914154 -55.188087 
L 332.403618 -55.055319 
L 332.893083 -55.059922 
L 333.382547 -54.87541 
L 333.872011 -55.17029 
L 334.361475 -55.75957 
L 334.850939 -55.530276 
L 335.340403 -55.872897 
L 335.829867 -56.407144 
L 336.319332 -56.045104 
L 336.808796 -56.606509 
L 337.29826 -57.007276 
L 337.787724 -57.16751 
L 338.277188 -57.040931 
L 338.766652 -57.341486 
L 339.256117 -57.522717 
L 339.745581 -57.519377 
L 340.235045 -57.965677 
L 340.724509 -57.962291 
L 341.213973 -58.35798 
L 341.703437 -58.583699 
L 342.192902 -58.685925 
L 342.682366 -58.611784 
L 343.17183 -58.670093 
L 343.661294 -59.089208 
L 344.150758 -59.618983 
L 344.640222 -60.216644 
L 345.129687 -61.044131 
L 345.619151 -61.919392 
L 346.108615 -62.430927 
L 346.598079 -62.487897 
L 347.087543 -64.053988 
L 347.577007 -64.313282 
L 348.066472 -64.314447 
L 348.555936 -64.686972 
L 349.0454 -64.596436 
L 349.534864 -64.859915 
L 350.024328 -64.856325 
L 350.513792 -64.81625 
L 351.003257 -64.771723 
L 351.492721 -64.750183 
L 351.982185 -64.771034 
L 352.471649 -64.936333 
L 352.961113 -64.884833 
L 353.450577 -64.910582 
L 353.940041 -64.862028 
L 354.429506 -64.901325 
L 354.91897 -64.957748 
L 355.408434 -64.961419 
L 355.897898 -64.952089 
L 356.387362 -64.897313 
L 356.876826 -64.917271 
L 357.366291 -64.979011 
L 357.855755 -64.959163 
L 358.345219 -65.083238 
L 358.834683 -65.107578 
L 359.324147 -65.093206 
L 359.813611 -65.147837 
L 360.303076 -65.070345 
L 360.79254 -65.098426 
L 361.282004 -65.147187 
L 361.771468 -65.139402 
L 362.260932 -65.152103 
L 362.750396 -65.129446 
L 363.239861 -65.121896 
L 363.729325 -65.138334 
L 364.218789 -65.120604 
L 364.708253 -65.15191 
L 365.197717 -65.138377 
L 365.687181 -65.160214 
L 366.176646 -65.18321 
L 366.66611 -65.23482 
L 367.155574 -65.206047 
L 367.645038 -65.233586 
L 368.134502 -65.218982 
L 368.623966 -65.211269 
L 369.113431 -65.193281 
L 369.602895 -65.185943 
L 370.092359 -65.1797 
L 370.581823 -65.183823 
L 371.071287 -65.187233 
L 371.560751 -65.177931 
L 372.050215 -65.186251 
L 372.53968 -65.177676 
L 373.029144 -65.188131 
L 373.518608 -65.186022 
L 374.008072 -65.199622 
L 374.497536 -65.225039 
L 374.987 -65.222452 
L 375.476465 -65.243171 
L 375.965929 -65.249576 
L 376.455393 -65.246754 
L 376.944857 -65.251558 
L 377.434321 -65.248943 
L 377.923785 -65.22507 
L 378.41325 -65.24294 
L 378.902714 -65.247899 
L 379.392178 -65.257019 
L 379.881642 -65.273935 
L 380.371106 -65.281235 
L 380.86057 -65.29034 
L 381.350035 -65.298588 
L 381.839499 -65.29277 
L 382.328963 -65.288074 
L 382.818427 -65.291847 
L 383.307891 -65.291444 
L 383.797355 -65.280026 
L 384.28682 -65.295414 
L 384.776284 -65.30233 
L 385.265748 -65.303525 
L 385.755212 -65.283753 
L 386.244676 -65.288939 
L 386.73414 -65.28335 
L 387.223605 -65.269473 
L 387.713069 -65.277453 
L 388.202533 -65.277468 
L 388.691997 -65.273922 
L 389.181461 -65.287897 
L 389.670925 -65.280789 
L 390.160389 -65.292545 
L 390.649854 -65.294679 
L 391.139318 -65.30014 
L 391.628782 -65.298865 
L 392.118246 -65.302651 
L 392.60771 -65.308304 
L 393.097174 -65.309993 
L 393.586639 -65.307017 
L 394.076103 -65.307188 
L 394.565567 -65.307016 
L 395.055031 -65.314342 
L 395.544495 -65.314771 
L 396.033959 -65.311311 
L 396.523424 -65.309559 
L 397.012888 -65.312219 
L 397.502352 -65.310489 
L 397.991816 -65.316425 
L 398.48128 -65.315203 
L 398.970744 -65.320711 
L 399.460209 -65.320704 
L 399.949673 -65.320549 
L 400.439137 -65.317512 
L 400.928601 -65.324732 
L 401.418065 -65.321405 
L 401.907529 -65.320736 
L 402.396994 -65.320781 
L 402.886458 -65.31757 
L 403.375922 -65.32257 
L 403.865386 -65.318636 
L 404.35485 -65.318402 
L 404.844314 -65.315127 
L 405.333779 -65.31142 
L 405.823243 -65.312096 
L 406.312707 -65.31708 
L 406.802171 -65.319745 
L 407.291635 -65.321241 
L 407.781099 -65.322863 
L 408.270563 -65.324469 
L 408.760028 -65.323896 
L 409.249492 -65.32681 
L 409.738956 -65.32673 
L 410.22842 -65.328858 
L 410.717884 -65.327287 
L 411.207348 -65.328088 
L 411.696813 -65.328462 
L 412.186277 -65.331265 
L 412.675741 -65.32903 
L 413.165205 -65.326356 
L 413.654669 -65.328121 
L 414.144133 -65.325251 
L 414.633598 -65.323579 
L 415.123062 -65.323986 
L 415.612526 -65.323921 
L 416.10199 -65.325702 
L 416.591454 -65.325725 
L 417.080918 -65.32956 
L 417.570383 -65.327405 
L 418.059847 -65.332299 
L 418.549311 -65.329539 
L 419.038775 -65.333547 
L 419.528239 -65.332086 
L 420.017703 -65.33375 
L 420.507168 -65.335326 
L 420.996632 -65.33444 
L 421.486096 -65.334017 
L 421.97556 -65.331033 
L 422.465024 -65.329632 
L 422.954488 -65.330447 
L 423.443953 -65.329831 
L 423.933417 -65.330947 
L 424.422881 -65.330474 
L 424.912345 -65.330773 
L 425.401809 -65.332391 
L 425.891273 -65.330166 
L 426.380737 -65.333796 
L 426.870202 -65.334174 
L 427.359666 -65.334728 
L 427.84913 -65.334054 
L 428.338594 -65.335233 
L 428.828058 -65.333326 
L 429.317522 -65.333749 
L 429.806987 -65.333365 
L 430.296451 -65.332238 
L 430.785915 -65.333495 
L 431.275379 -65.332829 
L 431.764843 -65.333373 
L 432.254307 -65.333712 
L 432.743772 -65.33409 
L 433.233236 -65.333284 
L 433.7227 -65.333467 
L 434.212164 -65.333658 
L 434.701628 -65.334181 
L 435.191092 -65.334962 
L 435.680557 -65.334378 
L 436.170021 -65.336343 
L 436.659485 -65.335858 
L 437.148949 -65.335991 
L 437.638413 -65.335451 
L 438.127877 -65.336583 
L 438.617342 -65.335236 
L 439.106806 -65.335322 
L 439.59627 -65.336193 
L 440.085734 -65.335232 
L 440.575198 -65.335399 
L 441.064662 -65.33563 
L 441.554127 -65.335808 
L 442.043591 -65.336151 
L 442.533055 -65.335953 
L 443.022519 -65.336153 
L 443.511983 -65.335055 
L 444.001447 -65.336086 
L 444.490912 -65.335008 
L 444.980376 -65.336147 
L 445.46984 -65.335728 
L 445.959304 -65.335357 
L 446.448768 -65.335559 
L 446.938232 -65.335524 
L 447.427696 -65.336052 
L 447.917161 -65.335634 
L 448.406625 -65.335627 
L 448.896089 -65.33505 
L 449.385553 -65.336219 
L 449.875017 -65.336156 
L 450.364481 -65.335709 
L 450.853946 -65.335362 
L 451.34341 -65.336801 
L 451.832874 -65.337114 
L 452.322338 -65.336264 
L 452.811802 -65.336947 
L 453.301266 -65.337051 
L 453.790731 -65.337148 
L 454.280195 -65.337247 
L 454.769659 -65.336746 
L 455.259123 -65.337168 
L 455.748587 -65.337592 
L 456.238051 -65.336759 
L 456.727516 -65.336732 
L 457.21698 -65.337772 
L 457.706444 -65.337789 
L 458.195908 -65.337674 
L 458.685372 -65.338048 
L 459.174836 -65.337401 
L 459.664301 -65.337848 
L 460.153765 -65.337997 
L 460.643229 -65.337637 
L 461.132693 -65.337587 
L 461.622157 -65.338033 
L 462.111621 -65.336782 
L 462.601086 -65.338002 
L 463.09055 -65.337485 
L 463.580014 -65.337858 
L 464.069478 -65.337288 
L 464.558942 -65.337529 
L 465.048406 -65.33676 
L 465.53787 -65.337417 
L 466.027335 -65.337993 
L 466.516799 -65.338315 
L 467.006263 -65.33781 
L 467.495727 -65.338084 
L 467.985191 -65.338029 
L 468.474655 -65.338159 
L 468.96412 -65.337723 
L 469.453584 -65.338352 
L 469.943048 -65.338387 
L 470.432512 -65.337985 
L 470.921976 -65.338341 
L 471.41144 -65.337815 
L 471.900905 -65.337653 
L 472.390369 -65.337968 
L 472.879833 -65.337666 
L 473.369297 -65.338049 
L 473.858761 -65.338193 
L 474.348225 -65.337945 
L 474.83769 -65.338433 
L 475.327154 -65.33757 
L 475.816618 -65.337528 
L 476.306082 -65.337563 
L 476.795546 -65.337259 
L 477.28501 -65.337969 
L 477.774475 -65.33787 
L 478.263939 -65.337963 
L 478.753403 -65.337321 
L 479.242867 -65.338141 
L 479.732331 -65.337397 
L 480.221795 -65.337835 
L 480.71126 -65.338217 
L 481.200724 -65.33855 
L 481.690188 -65.338031 
L 482.179652 -65.338369 
L 482.669116 -65.338261 
L 483.15858 -65.338073 
L 483.648044 -65.338348 
L 484.137509 -65.337871 
L 484.626973 -65.338743 
L 485.116437 -65.337921 
L 485.605901 -65.338118 
L 486.095365 -65.337807 
L 486.584829 -65.338231 
L 487.074294 -65.338373 
L 487.563758 -65.338305 
L 488.053222 -65.338426 
L 488.542686 -65.338348 
L 489.03215 -65.338165 
L 489.521614 -65.337735 
L 490.011079 -65.33815 
L 490.500543 -65.338067 
L 490.990007 -65.338155 
L 491.479471 -65.338443 
L 491.968935 -65.338159 
L 492.458399 -65.338078 
L 492.947864 -65.338147 
L 493.437328 -65.338559 
L 493.926792 -65.338011 
L 494.416256 -65.338644 
L 494.90572 -65.33847 
L 495.395184 -65.338632 
L 495.884649 -65.338119 
L 496.374113 -65.338386 
L 496.863577 -65.337754 
L 497.353041 -65.337961 
L 497.842505 -65.338202 
L 498.331969 -65.338206 
L 498.821434 -65.338144 
L 499.310898 -65.338624 
L 499.800362 -65.338196 
L 500.289826 -65.338207 
L 500.77929 -65.338306 
L 501.268754 -65.338316 
L 501.758218 -65.337865 
L 502.247683 -65.337848 
L 502.737147 -65.338272 
L 503.226611 -65.338573 
L 503.716075 -65.338881 
L 504.205539 -65.338969 
L 504.695003 -65.338868 
L 505.184468 -65.338793 
L 505.673932 -65.338977 
L 506.163396 -65.338888 
L 506.65286 -65.338394 
L 507.142324 -65.338882 
L 507.631788 -65.338953 
L 508.121253 -65.338904 
L 508.610717 -65.33873 
L 509.100181 -65.33888 
L 509.589645 -65.339054 
L 510.079109 -65.338932 
L 510.568573 -65.338594 
L 511.058038 -65.339013 
L 511.547502 -65.338984 
L 512.036966 -65.338865 
L 512.52643 -65.338953 
L 513.015894 -65.339134 
L 513.505358 -65.338549 
L 513.994823 -65.338892 
L 514.484287 -65.338834 
L 514.973751 -65.338468 
L 515.463215 -65.338649 
L 515.952679 -65.338709 
L 516.442143 -65.33874 
L 516.931608 -65.339169 
L 517.421072 -65.339068 
L 517.910536 -65.340366 
L 517.910536 -65.340366 
L 517.910536 -65.340366 
L 517.421072 -65.340885 
L 516.931608 -65.341112 
L 516.442143 -65.340973 
L 515.952679 -65.341155 
L 515.463215 -65.341121 
L 514.973751 -65.341459 
L 514.484287 -65.341183 
L 513.994823 -65.341229 
L 513.505358 -65.341533 
L 513.015894 -65.341086 
L 512.52643 -65.341334 
L 512.036966 -65.341138 
L 511.547502 -65.341592 
L 511.058038 -65.341203 
L 510.568573 -65.340928 
L 510.079109 -65.341163 
L 509.589645 -65.340922 
L 509.100181 -65.341096 
L 508.610717 -65.341095 
L 508.121253 -65.341025 
L 507.631788 -65.340958 
L 507.142324 -65.340904 
L 506.65286 -65.341042 
L 506.163396 -65.34115 
L 505.673932 -65.341055 
L 505.184468 -65.341271 
L 504.695003 -65.341055 
L 504.205539 -65.34133 
L 503.716075 -65.341031 
L 503.226611 -65.341974 
L 502.737147 -65.342746 
L 502.247683 -65.342143 
L 501.758218 -65.341664 
L 501.268754 -65.341584 
L 500.77929 -65.342016 
L 500.289826 -65.341412 
L 499.800362 -65.341335 
L 499.310898 -65.341743 
L 498.821434 -65.341784 
L 498.331969 -65.341634 
L 497.842505 -65.341611 
L 497.353041 -65.341708 
L 496.863577 -65.341959 
L 496.374113 -65.341703 
L 495.884649 -65.341845 
L 495.395184 -65.342061 
L 494.90572 -65.341865 
L 494.416256 -65.341538 
L 493.926792 -65.341885 
L 493.437328 -65.341507 
L 492.947864 -65.341643 
L 492.458399 -65.341931 
L 491.968935 -65.341635 
L 491.479471 -65.34168 
L 490.990007 -65.341833 
L 490.500543 -65.342077 
L 490.011079 -65.341944 
L 489.521614 -65.342119 
L 489.03215 -65.341874 
L 488.542686 -65.341356 
L 488.053222 -65.341498 
L 487.563758 -65.341729 
L 487.074294 -65.341461 
L 486.584829 -65.341466 
L 486.095365 -65.341762 
L 485.605901 -65.341489 
L 485.116437 -65.341581 
L 484.626973 -65.341559 
L 484.137509 -65.341676 
L 483.648044 -65.34237 
L 483.15858 -65.341926 
L 482.669116 -65.341938 
L 482.179652 -65.341713 
L 481.690188 -65.34196 
L 481.200724 -65.342097 
L 480.71126 -65.342725 
L 480.221795 -65.341887 
L 479.732331 -65.341763 
L 479.242867 -65.342012 
L 478.753403 -65.342015 
L 478.263939 -65.342048 
L 477.774475 -65.342001 
L 477.28501 -65.341917 
L 476.795546 -65.341978 
L 476.306082 -65.34225 
L 475.816618 -65.341709 
L 475.327154 -65.34254 
L 474.83769 -65.341704 
L 474.348225 -65.342241 
L 473.858761 -65.342139 
L 473.369297 -65.342206 
L 472.879833 -65.342165 
L 472.390369 -65.342357 
L 471.900905 -65.341974 
L 471.41144 -65.34186 
L 470.921976 -65.34252 
L 470.432512 -65.342137 
L 469.943048 -65.341533 
L 469.453584 -65.342027 
L 468.96412 -65.34192 
L 468.474655 -65.341953 
L 467.985191 -65.341584 
L 467.495727 -65.341889 
L 467.006263 -65.341894 
L 466.516799 -65.342203 
L 466.027335 -65.341911 
L 465.53787 -65.34336 
L 465.048406 -65.342858 
L 464.558942 -65.34322 
L 464.069478 -65.342774 
L 463.580014 -65.342411 
L 463.09055 -65.342379 
L 462.601086 -65.34239 
L 462.111621 -65.342416 
L 461.622157 -65.342056 
L 461.132693 -65.3421 
L 460.643229 -65.342057 
L 460.153765 -65.342067 
L 459.664301 -65.34205 
L 459.174836 -65.342054 
L 458.685372 -65.341942 
L 458.195908 -65.342296 
L 457.706444 -65.342275 
L 457.21698 -65.342511 
L 456.727516 -65.343124 
L 456.238051 -65.342624 
L 455.748587 -65.343179 
L 455.259123 -65.342167 
L 454.769659 -65.342758 
L 454.280195 -65.34269 
L 453.790731 -65.342541 
L 453.301266 -65.343079 
L 452.811802 -65.342697 
L 452.322338 -65.342162 
L 451.832874 -65.342052 
L 451.34341 -65.34195 
L 450.853946 -65.342874 
L 450.364481 -65.342344 
L 449.875017 -65.343392 
L 449.385553 -65.343077 
L 448.896089 -65.342427 
L 448.406625 -65.343138 
L 447.917161 -65.343351 
L 447.427696 -65.342842 
L 446.938232 -65.34416 
L 446.448768 -65.343356 
L 445.959304 -65.343476 
L 445.46984 -65.343245 
L 444.980376 -65.343902 
L 444.490912 -65.343625 
L 444.001447 -65.344005 
L 443.511983 -65.344851 
L 443.022519 -65.344003 
L 442.533055 -65.34421 
L 442.043591 -65.344148 
L 441.554127 -65.344513 
L 441.064662 -65.34378 
L 440.575198 -65.343754 
L 440.085734 -65.343534 
L 439.59627 -65.343523 
L 439.106806 -65.344534 
L 438.617342 -65.344446 
L 438.127877 -65.343541 
L 437.638413 -65.344064 
L 437.148949 -65.343924 
L 436.659485 -65.344345 
L 436.170021 -65.34382 
L 435.680557 -65.344609 
L 435.191092 -65.34444 
L 434.701628 -65.345457 
L 434.212164 -65.345065 
L 433.7227 -65.346074 
L 433.233236 -65.345617 
L 432.743772 -65.344974 
L 432.254307 -65.345303 
L 431.764843 -65.345845 
L 431.275379 -65.345364 
L 430.785915 -65.345238 
L 430.296451 -65.345083 
L 429.806987 -65.344538 
L 429.317522 -65.345448 
L 428.828058 -65.345686 
L 428.338594 -65.34626 
L 427.84913 -65.347322 
L 427.359666 -65.346961 
L 426.870202 -65.347449 
L 426.380737 -65.348079 
L 425.891273 -65.349164 
L 425.401809 -65.349198 
L 424.912345 -65.348067 
L 424.422881 -65.350046 
L 423.933417 -65.348353 
L 423.443953 -65.347771 
L 422.954488 -65.346355 
L 422.465024 -65.346465 
L 421.97556 -65.3467 
L 421.486096 -65.345725 
L 420.996632 -65.345457 
L 420.507168 -65.346705 
L 420.017703 -65.348389 
L 419.528239 -65.347047 
L 419.038775 -65.349125 
L 418.549311 -65.348264 
L 418.059847 -65.347846 
L 417.570383 -65.348046 
L 417.080918 -65.348729 
L 416.591454 -65.347671 
L 416.10199 -65.348647 
L 415.612526 -65.347631 
L 415.123062 -65.350778 
L 414.633598 -65.349502 
L 414.144133 -65.350073 
L 413.654669 -65.347852 
L 413.165205 -65.347097 
L 412.675741 -65.345835 
L 412.186277 -65.346637 
L 411.696813 -65.345801 
L 411.207348 -65.346585 
L 410.717884 -65.347596 
L 410.22842 -65.347578 
L 409.738956 -65.351092 
L 409.249492 -65.351833 
L 408.760028 -65.350592 
L 408.270563 -65.352059 
L 407.781099 -65.348665 
L 407.291635 -65.351916 
L 406.802171 -65.350939 
L 406.312707 -65.352501 
L 405.823243 -65.35589 
L 405.333779 -65.357018 
L 404.844314 -65.353193 
L 404.35485 -65.354893 
L 403.865386 -65.354022 
L 403.375922 -65.356616 
L 402.886458 -65.356316 
L 402.396994 -65.361193 
L 401.907529 -65.355496 
L 401.418065 -65.360255 
L 400.928601 -65.357229 
L 400.439137 -65.359068 
L 399.949673 -65.357714 
L 399.460209 -65.360228 
L 398.970744 -65.357051 
L 398.48128 -65.368693 
L 397.991816 -65.36272 
L 397.502352 -65.370189 
L 397.012888 -65.375054 
L 396.523424 -65.365193 
L 396.033959 -65.37422 
L 395.544495 -65.3639 
L 395.055031 -65.373815 
L 394.565567 -65.361895 
L 394.076103 -65.377512 
L 393.586639 -65.380731 
L 393.097174 -65.379311 
L 392.60771 -65.390779 
L 392.118246 -65.38548 
L 391.628782 -65.403128 
L 391.139318 -65.392799 
L 390.649854 -65.391507 
L 390.160389 -65.393139 
L 389.670925 -65.392434 
L 389.181461 -65.386149 
L 388.691997 -65.393072 
L 388.202533 -65.390491 
L 387.713069 -65.397759 
L 387.223605 -65.394337 
L 386.73414 -65.382458 
L 386.244676 -65.378107 
L 385.755212 -65.375647 
L 385.265748 -65.38436 
L 384.776284 -65.395421 
L 384.28682 -65.396951 
L 383.797355 -65.415809 
L 383.307891 -65.425244 
L 382.818427 -65.426436 
L 382.328963 -65.42633 
L 381.839499 -65.427626 
L 381.350035 -65.41638 
L 380.86057 -65.406799 
L 380.371106 -65.417194 
L 379.881642 -65.423807 
L 379.392178 -65.432239 
L 378.902714 -65.446176 
L 378.41325 -65.446412 
L 377.923785 -65.443681 
L 377.434321 -65.454885 
L 376.944857 -65.457694 
L 376.455393 -65.443998 
L 375.965929 -65.422771 
L 375.476465 -65.426904 
L 374.987 -65.429235 
L 374.497536 -65.436164 
L 374.008072 -65.459992 
L 373.518608 -65.454667 
L 373.029144 -65.456593 
L 372.53968 -65.491887 
L 372.050215 -65.496721 
L 371.560751 -65.506667 
L 371.071287 -65.510716 
L 370.581823 -65.502679 
L 370.092359 -65.512814 
L 369.602895 -65.509916 
L 369.113431 -65.49307 
L 368.623966 -65.475152 
L 368.134502 -65.464807 
L 367.645038 -65.457146 
L 367.155574 -65.457459 
L 366.66611 -65.449149 
L 366.176646 -65.474249 
L 365.687181 -65.5092 
L 365.197717 -65.501171 
L 364.708253 -65.53825 
L 364.218789 -65.518548 
L 363.729325 -65.547041 
L 363.239861 -65.558951 
L 362.750396 -65.564573 
L 362.260932 -65.534701 
L 361.771468 -65.515253 
L 361.282004 -65.532083 
L 360.79254 -65.528389 
L 360.303076 -65.572889 
L 359.813611 -65.572119 
L 359.324147 -65.5476 
L 358.834683 -65.520734 
L 358.345219 -65.544799 
L 357.855755 -65.676477 
L 357.366291 -65.628158 
L 356.876826 -65.70565 
L 356.387362 -65.705373 
L 355.897898 -65.645962 
L 355.408434 -65.677961 
L 354.91897 -65.639397 
L 354.429506 -65.677023 
L 353.940041 -65.783333 
L 353.450577 -65.613065 
L 352.961113 -65.674309 
L 352.471649 -65.616354 
L 351.982185 -65.662062 
L 351.492721 -65.675803 
L 351.003257 -65.792168 
L 350.513792 -65.745623 
L 350.024328 -65.708864 
L 349.534864 -65.813913 
L 349.0454 -65.719048 
L 348.555936 -65.726791 
L 348.066472 -66.066713 
L 347.577007 -66.220562 
L 347.087543 -66.512101 
L 346.598079 -67.420581 
L 346.108615 -67.230599 
L 345.619151 -68.016139 
L 345.129687 -67.980681 
L 344.640222 -68.332784 
L 344.150758 -68.715824 
L 343.661294 -69.500089 
L 343.17183 -69.68333 
L 342.682366 -69.78872 
L 342.192902 -69.598762 
L 341.703437 -69.837992 
L 341.213973 -69.994635 
L 340.724509 -70.099396 
L 340.235045 -70.293923 
L 339.745581 -70.359233 
L 339.256117 -70.527354 
L 338.766652 -70.6934 
L 338.277188 -70.888495 
L 337.787724 -71.033995 
L 337.29826 -70.789389 
L 336.808796 -71.253578 
L 336.319332 -71.431068 
L 335.829867 -71.158694 
L 335.340403 -71.466947 
L 334.850939 -71.891879 
L 334.361475 -71.568765 
L 333.872011 -72.073998 
L 333.382547 -72.136286 
L 332.893083 -72.114978 
L 332.403618 -71.636503 
L 331.914154 -71.692112 
L 331.42469 -71.753059 
L 330.935226 -72.070954 
L 330.445762 -71.907972 
L 329.956298 -71.651798 
L 329.466833 -71.506461 
L 328.977369 -71.550071 
L 328.487905 -72.18567 
L 327.998441 -71.750711 
L 327.508977 -72.321459 
L 327.019513 -72.586222 
L 326.530048 -72.816331 
L 326.040584 -73.321366 
L 325.55112 -73.178408 
L 325.061656 -74.0847 
L 324.572192 -73.911364 
L 324.082728 -74.020498 
L 323.593263 -73.432041 
L 323.103799 -73.394755 
L 322.614335 -72.975824 
L 322.124871 -72.814439 
L 321.635407 -73.603018 
L 321.145943 -73.178277 
L 320.656478 -72.808113 
L 320.167014 -73.328401 
L 319.67755 -74.209318 
L 319.188086 -74.710936 
L 318.698622 -74.429121 
L 318.209158 -74.855576 
L 317.719693 -75.186744 
L 317.230229 -74.77371 
L 316.740765 -74.938636 
L 316.251301 -74.990663 
L 315.761837 -74.459133 
L 315.272373 -72.707432 
L 314.782909 -72.026242 
L 314.293444 -70.317948 
L 313.80398 -70.830356 
L 313.314516 -70.567157 
L 312.825052 -70.023279 
L 312.335588 -69.947676 
L 311.846124 -70.318067 
L 311.356659 -70.148541 
L 310.867195 -70.006484 
L 310.377731 -74.45536 
L 309.888267 -74.604893 
L 309.398803 -75.334557 
L 308.909339 -75.981805 
L 308.419874 -77.001756 
L 307.93041 -78.566896 
L 307.440946 -79.502628 
L 306.951482 -80.170092 
L 306.462018 -80.311849 
L 305.972554 -79.735792 
L 305.483089 -80.179988 
L 304.993625 -78.120948 
L 304.504161 -76.376582 
L 304.014697 -75.021826 
L 303.525233 -74.185732 
L 303.035769 -74.482306 
L 302.546304 -73.484942 
L 302.05684 -74.512705 
L 301.567376 -73.820892 
L 301.077912 -75.055308 
L 300.588448 -74.061482 
L 300.098984 -74.286643 
L 299.609519 -72.635992 
L 299.120055 -73.306999 
L 298.630591 -71.462211 
L 298.141127 -68.93938 
L 297.651663 -67.181863 
L 297.162199 -65.895912 
L 296.672735 -65.896148 
L 296.18327 -65.854772 
L 295.693806 -65.878191 
L 295.204342 -65.925734 
L 294.714878 -65.886927 
L 294.225414 -65.851912 
L 293.73595 -65.824961 
L 293.246485 -65.737508 
L 292.757021 -65.805368 
L 292.267557 -65.778751 
L 291.778093 -65.877228 
L 291.288629 -65.972643 
L 290.799165 -66.021822 
L 290.3097 -65.828608 
L 289.820236 -66.058061 
L 289.330772 -65.994535 
L 288.841308 -66.097381 
L 288.351844 -66.336113 
L 287.86238 -66.698688 
L 287.372915 -67.529209 
L 286.883451 -67.231472 
L 286.393987 -72.081358 
L 285.904523 -73.766007 
L 285.415059 -74.271377 
L 284.925595 -75.328183 
L 284.43613 -77.674969 
L 283.946666 -78.374328 
L 283.457202 -79.478763 
L 282.967738 -79.741248 
L 282.478274 -79.34705 
L 281.98881 -80.986111 
L 281.499345 -80.940966 
L 281.009881 -81.295595 
L 280.520417 -81.546806 
L 280.030953 -81.398742 
L 279.541489 -80.756888 
L 279.052025 -80.647887 
L 278.562561 -81.468624 
L 278.073096 -82.131115 
L 277.583632 -82.061894 
L 277.094168 -82.318008 
L 276.604704 -83.827424 
L 276.11524 -85.09407 
L 275.625776 -83.467464 
L 275.136311 -79.724961 
L 274.646847 -77.878784 
L 274.157383 -69.880132 
L 273.667919 -67.896589 
L 273.178455 -65.614507 
L 272.688991 -65.566463 
L 272.199526 -65.609535 
L 271.710062 -65.62052 
L 271.220598 -65.641635 
L 270.731134 -65.701125 
L 270.24167 -65.700782 
L 269.752206 -65.674217 
L 269.262741 -65.664595 
L 268.773277 -65.756403 
L 268.283813 -65.813451 
L 267.794349 -65.707051 
L 267.304885 -65.854282 
L 266.815421 -65.96274 
L 266.325956 -66.074628 
L 265.836492 -65.889116 
L 265.347028 -65.805671 
L 264.857564 -65.782283 
L 264.3681 -65.990222 
L 263.878636 -66.647241 
L 263.389171 -67.003406 
L 262.899707 -67.198377 
L 262.410243 -68.131343 
L 261.920779 -68.333183 
L 261.431315 -67.844301 
L 260.941851 -68.110966 
L 260.452387 -68.159734 
L 259.962922 -68.394052 
L 259.473458 -68.670002 
L 258.983994 -68.982213 
L 258.49453 -69.445777 
L 258.005066 -69.19533 
L 257.515602 -69.22896 
L 257.026137 -69.486985 
L 256.536673 -69.92931 
L 256.047209 -70.27607 
L 255.557745 -70.464676 
L 255.068281 -70.493472 
L 254.578817 -70.570392 
L 254.089352 -70.419313 
L 253.599888 -70.265907 
L 253.110424 -70.409791 
L 252.62096 -69.727088 
L 252.131496 -69.652541 
L 251.642032 -69.825057 
L 251.152567 -69.51698 
L 250.663103 -69.753814 
L 250.173639 -69.677427 
L 249.684175 -69.52978 
L 249.194711 -69.135551 
L 248.705247 -68.444577 
L 248.215782 -68.066457 
L 247.726318 -69.816117 
L 247.236854 -67.066506 
L 246.74739 -69.199722 
L 246.257926 -68.930339 
L 245.768462 -68.368434 
L 245.278997 -68.288837 
L 244.789533 -69.800162 
L 244.300069 -70.400022 
L 243.810605 -70.561354 
L 243.321141 -70.455888 
L 242.831677 -70.078077 
L 242.342212 -70.643918 
L 241.852748 -70.307891 
L 241.363284 -70.193589 
L 240.87382 -70.356567 
L 240.384356 -70.1466 
L 239.894892 -69.755195 
L 239.405428 -68.540428 
L 238.915963 -68.395502 
L 238.426499 -67.74225 
L 237.937035 -70.290896 
L 237.447571 -71.544575 
L 236.958107 -71.669744 
L 236.468643 -72.05489 
L 235.979178 -73.819053 
L 235.489714 -73.963341 
L 235.00025 -73.958367 
L 234.510786 -73.428918 
L 234.021322 -72.52005 
L 233.531858 -68.602655 
L 233.042393 -66.719636 
L 232.552929 -67.765368 
L 232.063465 -69.292574 
L 231.574001 -73.938636 
L 231.084537 -78.536323 
L 230.595073 -81.640909 
L 230.105608 -78.061101 
L 229.616144 -81.963917 
L 229.12668 -76.531834 
L 228.637216 -77.877026 
L 228.147752 -72.668826 
L 227.658288 -67.31447 
L 227.168823 -66.115754 
L 226.679359 -65.986445 
L 226.189895 -65.894376 
L 225.700431 -66.001665 
L 225.210967 -66.241917 
L 224.721503 -66.333992 
L 224.232038 -66.088464 
L 223.742574 -66.199439 
L 223.25311 -66.335185 
L 222.763646 -66.454941 
L 222.274182 -66.778202 
L 221.784718 -67.257741 
L 221.295254 -68.018402 
L 220.805789 -69.04734 
L 220.316325 -71.459367 
L 219.826861 -71.395909 
L 219.337397 -71.057503 
L 218.847933 -70.924978 
L 218.358469 -71.294445 
L 217.869004 -71.096576 
L 217.37954 -71.448507 
L 216.890076 -71.85479 
L 216.400612 -72.219808 
L 215.911148 -72.633609 
L 215.421684 -73.201295 
L 214.932219 -73.881019 
L 214.442755 -74.626185 
L 213.953291 -74.943486 
L 213.463827 -75.140677 
L 212.974363 -75.079882 
L 212.484899 -75.506255 
L 211.995434 -76.520554 
L 211.50597 -77.432422 
L 211.016506 -77.530226 
L 210.527042 -78.369431 
L 210.037578 -78.327083 
L 209.548114 -77.893199 
L 209.058649 -74.324119 
L 208.569185 -71.859796 
L 208.079721 -70.138215 
L 207.590257 -69.959254 
L 207.100793 -69.814647 
L 206.611329 -71.049323 
L 206.121864 -83.857682 
L 205.6324 -81.472415 
L 205.142936 -76.601596 
L 204.653472 -71.139389 
L 204.164008 -68.788771 
L 203.674544 -67.008806 
L 203.18508 -66.581409 
L 202.695615 -66.610651 
L 202.206151 -66.334443 
L 201.716687 -66.875389 
L 201.227223 -68.440339 
L 200.737759 -72.2214 
L 200.248295 -70.839025 
L 199.75883 -70.77747 
L 199.269366 -77.304412 
L 198.779902 -82.206889 
L 198.290438 -82.710687 
L 197.800974 -82.387546 
L 197.31151 -83.325073 
L 196.822045 -83.066733 
L 196.332581 -83.51101 
L 195.843117 -83.482845 
L 195.353653 -83.82526 
L 194.864189 -86.035355 
L 194.374725 -81.923128 
L 193.88526 -83.167863 
L 193.395796 -79.316927 
L 192.906332 -81.560177 
L 192.416868 -74.932566 
L 191.927404 -73.308777 
L 191.43794 -69.250938 
L 190.948475 -67.414437 
L 190.459011 -66.838092 
L 189.969547 -67.358171 
L 189.480083 -67.940729 
L 188.990619 -70.05643 
L 188.501155 -70.124985 
L 188.01169 -69.487031 
L 187.522226 -69.794498 
L 187.032762 -69.657707 
L 186.543298 -69.194483 
L 186.053834 -69.045268 
L 185.56437 -69.431497 
L 185.074906 -68.645913 
L 184.585441 -69.322191 
L 184.095977 -70.037404 
L 183.606513 -70.349287 
L 183.117049 -70.107663 
L 182.627585 -70.481601 
L 182.138121 -71.749877 
L 181.648656 -71.710371 
L 181.159192 -72.580538 
L 180.669728 -72.167339 
L 180.180264 -70.101862 
L 179.6908 -70.53232 
L 179.201336 -70.943418 
L 178.711871 -70.06395 
L 178.222407 -70.227421 
L 177.732943 -70.182597 
L 177.243479 -72.506308 
L 176.754015 -72.808102 
L 176.264551 -72.546787 
L 175.775086 -73.164628 
L 175.285622 -73.913774 
L 174.796158 -74.216995 
L 174.306694 -75.287226 
L 173.81723 -77.189838 
L 173.327766 -79.562329 
L 172.838301 -82.369878 
L 172.348837 -86.012334 
L 171.859373 -88.343821 
L 171.369909 -89.720603 
L 170.880445 -90.123646 
L 170.390981 -91.568801 
L 169.901516 -88.897189 
L 169.412052 -88.361244 
L 168.922588 -85.801605 
L 168.433124 -76.908894 
L 167.94366 -70.662361 
L 167.454196 -67.978186 
L 166.964732 -66.52895 
L 166.475267 -66.508158 
L 165.985803 -66.558631 
L 165.496339 -67.015293 
L 165.006875 -67.151873 
L 164.517411 -68.815066 
L 164.027947 -70.7364 
L 163.538482 -71.900688 
L 163.049018 -72.215452 
L 162.559554 -72.466505 
L 162.07009 -72.491723 
L 161.580626 -72.978036 
L 161.091162 -72.17757 
L 160.601697 -72.698754 
L 160.112233 -72.495418 
L 159.622769 -71.896488 
L 159.133305 -71.122052 
L 158.643841 -71.103379 
L 158.154377 -71.390124 
L 157.664912 -72.345691 
L 157.175448 -73.114806 
L 156.685984 -73.619789 
L 156.19652 -73.597737 
L 155.707056 -74.900333 
L 155.217592 -74.555726 
L 154.728127 -72.40694 
L 154.238663 -70.003338 
L 153.749199 -68.582765 
L 153.259735 -69.642967 
L 152.770271 -71.280357 
L 152.280807 -73.062526 
L 151.791342 -73.60911 
L 151.301878 -74.990011 
L 150.812414 -75.433613 
L 150.32295 -75.74784 
L 149.833486 -75.007964 
L 149.344022 -75.236566 
L 148.854558 -75.403287 
L 148.365093 -75.332717 
L 147.875629 -75.517021 
L 147.386165 -76.738443 
L 146.896701 -77.634296 
L 146.407237 -78.597596 
L 145.917773 -79.765325 
L 145.428308 -82.822544 
L 144.938844 -83.404539 
L 144.44938 -83.167979 
L 143.959916 -84.923406 
L 143.470452 -81.971547 
L 142.980988 -83.610458 
L 142.491523 -79.205499 
L 142.002059 -75.297311 
L 141.512595 -69.224501 
L 141.023131 -66.134795 
L 140.533667 -66.575771 
L 140.044203 -67.156523 
L 139.554738 -69.00114 
L 139.065274 -69.740755 
L 138.57581 -73.134063 
L 138.086346 -74.556207 
L 137.596882 -74.437468 
L 137.107418 -73.119695 
L 136.617953 -72.900088 
L 136.128489 -72.269533 
L 135.639025 -72.500428 
L 135.149561 -72.615801 
L 134.660097 -72.441897 
L 134.170633 -72.535791 
L 133.681168 -72.744346 
L 133.191704 -73.324286 
L 132.70224 -73.738413 
L 132.212776 -74.922803 
L 131.723312 -74.974631 
L 131.233848 -75.985659 
L 130.744384 -76.960897 
L 130.254919 -77.074999 
L 129.765455 -78.275765 
L 129.275991 -79.613162 
L 128.786527 -77.803091 
L 128.297063 -77.108188 
L 127.807599 -74.913296 
L 127.318134 -74.187493 
L 126.82867 -67.756695 
L 126.339206 -67.779073 
z
" style="stroke: #742a23; stroke-width: 0.5"/>
    </defs>
    <g clip-path="url(#pc90b18f672)">
     <use xlink:href="#mb0863c1d0f" x="0" y="216" style="fill: #742a23; stroke: #742a23; stroke-width: 0.5"/>
    </g>
   </g>
   <g id="matplotlib.axis_3">
    <g id="xtick_7"/>
    <g id="xtick_8"/>
    <g id="xtick_9"/>
    <g id="xtick_10"/>
    <g id="xtick_11"/>
    <g id="xtick_12"/>
   </g>
   <g id="matplotlib.axis_4">
    <g id="ytick_6"/>
    <g id="ytick_7"/>
    <g id="ytick_8"/>
    <g id="ytick_9"/>
    <g id="ytick_10"/>
   </g>
   <g id="text_2">
    <!-- Right -->
    <g style="fill: #742a23" transform="translate(82.27674 153.924375) scale(0.12 -0.12)">
     <defs>
      <path id="DejaVuSans-Bold-52" d="M 2297 2597 
Q 2675 2597 2839 2737 
Q 3003 2878 3003 3200 
Q 3003 3519 2839 3656 
Q 2675 3794 2297 3794 
L 1791 3794 
L 1791 2597 
L 2297 2597 
z
M 1791 1766 
L 1791 0 
L 588 0 
L 588 4666 
L 2425 4666 
Q 3347 4666 3776 4356 
Q 4206 4047 4206 3378 
Q 4206 2916 3982 2619 
Q 3759 2322 3309 2181 
Q 3556 2125 3751 1926 
Q 3947 1728 4147 1325 
L 4800 0 
L 3519 0 
L 2950 1159 
Q 2778 1509 2601 1637 
Q 2425 1766 2131 1766 
L 1791 1766 
z
" transform="scale(0.015625)"/>
      <path id="DejaVuSans-Bold-69" d="M 538 3500 
L 1656 3500 
L 1656 0 
L 538 0 
L 538 3500 
z
M 538 4863 
L 1656 4863 
L 1656 3950 
L 538 3950 
L 538 4863 
z
" transform="scale(0.015625)"/>
      <path id="DejaVuSans-Bold-67" d="M 2919 594 
Q 2688 288 2409 144 
Q 2131 0 1766 0 
Q 1125 0 706 504 
Q 288 1009 288 1791 
Q 288 2575 706 3076 
Q 1125 3578 1766 3578 
Q 2131 3578 2409 3434 
Q 2688 3291 2919 2981 
L 2919 3500 
L 4044 3500 
L 4044 353 
Q 4044 -491 3511 -936 
Q 2978 -1381 1966 -1381 
Q 1638 -1381 1331 -1331 
Q 1025 -1281 716 -1178 
L 716 -306 
Q 1009 -475 1290 -558 
Q 1572 -641 1856 -641 
Q 2406 -641 2662 -400 
Q 2919 -159 2919 353 
L 2919 594 
z
M 2181 2772 
Q 1834 2772 1640 2515 
Q 1447 2259 1447 1791 
Q 1447 1309 1634 1061 
Q 1822 813 2181 813 
Q 2531 813 2725 1069 
Q 2919 1325 2919 1791 
Q 2919 2259 2725 2515 
Q 2531 2772 2181 2772 
z
" transform="scale(0.015625)"/>
      <path id="DejaVuSans-Bold-68" d="M 4056 2131 
L 4056 0 
L 2931 0 
L 2931 347 
L 2931 1625 
Q 2931 2084 2911 2256 
Q 2891 2428 2841 2509 
Q 2775 2619 2662 2680 
Q 2550 2741 2406 2741 
Q 2056 2741 1856 2470 
Q 1656 2200 1656 1722 
L 1656 0 
L 538 0 
L 538 4863 
L 1656 4863 
L 1656 2988 
Q 1909 3294 2193 3439 
Q 2478 3584 2822 3584 
Q 3428 3584 3742 3212 
Q 4056 2841 4056 2131 
z
" transform="scale(0.015625)"/>
     </defs>
     <use xlink:href="#DejaVuSans-Bold-52"/>
     <use xlink:href="#DejaVuSans-Bold-69" x="77.001953"/>
     <use xlink:href="#DejaVuSans-Bold-67" x="111.279297"/>
     <use xlink:href="#DejaVuSans-Bold-68" x="182.861328"/>
     <use xlink:href="#DejaVuSans-Bold-74" x="254.052734"/>
    </g>
   </g>
  </g>
 </g>
 <defs>
  <clipPath id="p56ea3c0093">
   <rect x="72" y="25.92" width="446.4" height="83.16"/>
  </clipPath>
  <clipPath id="pc90b18f672">
   <rect x="72" y="109.08" width="446.4" height="83.16"/>
  </clipPath>
 </defs>
</svg>
