<?xml version="1.0" encoding="utf-8" standalone="no"?>
<!DOCTYPE svg PUBLIC "-//W3C//DTD SVG 1.1//EN"
  "http://www.w3.org/Graphics/SVG/1.1/DTD/svg11.dtd">
<svg xmlns:xlink="http://www.w3.org/1999/xlink" width="576pt" height="72pt" viewBox="0 0 576 72" xmlns="http://www.w3.org/2000/svg" version="1.1">
 <metadata>
  <rdf:RDF xmlns:dc="http://purl.org/dc/elements/1.1/" xmlns:cc="http://creativecommons.org/ns#" xmlns:rdf="http://www.w3.org/1999/02/22-rdf-syntax-ns#">
   <cc:Work>
    <dc:type rdf:resource="http://purl.org/dc/dcmitype/StillImage"/>
    <dc:date>2022-12-21T16:03:02.349696</dc:date>
    <dc:format>image/svg+xml</dc:format>
    <dc:creator>
     <cc:Agent>
      <dc:title>Matplotlib v3.6.2, https://matplotlib.org/</dc:title>
     </cc:Agent>
    </dc:creator>
   </cc:Work>
  </rdf:RDF>
 </metadata>
 <defs>
  <style type="text/css">*{stroke-linejoin: round; stroke-linecap: butt}</style>
 </defs>
 <g id="figure_1">
  <g id="patch_1">
   <path d="M 0 72 
L 576 72 
L 576 0 
L 0 0 
z
" style="fill: #ffffff"/>
  </g>
  <g id="axes_1">
   <g id="patch_2">
    <path d="M 72 64.08 
L 518.4 64.08 
L 518.4 8.64 
L 72 8.64 
z
" style="fill: #363636"/>
   </g>
   <g id="PolyCollection_1">
    <defs>
     <path id="me460629a51" d="M 72 -37.156131 
L 72 -33.775476 
L 72.557303 -33.83155 
L 73.114607 -27.133586 
L 73.67191 -24.542142 
L 74.229213 -21.459199 
L 74.786517 -21.847929 
L 75.34382 -21.837324 
L 75.901124 -22.462844 
L 76.458427 -22.152762 
L 77.01573 -22.788087 
L 77.573034 -22.987914 
L 78.130337 -22.740164 
L 78.68764 -23.589729 
L 79.244944 -23.217364 
L 79.802247 -24.588637 
L 80.359551 -24.481357 
L 80.916854 -24.481273 
L 81.474157 -24.985425 
L 82.031461 -25.156876 
L 82.588764 -25.113596 
L 83.146067 -25.200722 
L 83.703371 -25.047242 
L 84.260674 -25.031889 
L 84.817978 -24.87453 
L 85.375281 -24.319011 
L 85.932584 -24.668578 
L 86.489888 -31.872077 
L 87.047191 -33.653649 
L 87.604494 -34.451418 
L 88.161798 -34.977753 
L 88.719101 -35.211262 
L 89.276404 -32.717794 
L 89.833708 -26.546183 
L 90.391011 -21.423483 
L 90.948315 -18.294935 
L 91.505618 -19.101148 
L 92.062921 -19.257574 
L 92.620225 -19.10148 
L 93.177528 -18.921899 
L 93.734831 -20.012363 
L 94.292135 -20.496833 
L 94.849438 -20.103769 
L 95.406742 -22.487042 
L 95.964045 -22.930111 
L 96.521348 -23.433939 
L 97.078652 -24.362078 
L 97.635955 -24.294694 
L 98.193258 -24.178741 
L 98.750562 -25.311916 
L 99.307865 -26.049118 
L 99.865169 -26.10983 
L 100.422472 -26.094839 
L 100.979775 -26.471343 
L 101.537079 -27.023558 
L 102.094382 -29.595361 
L 102.651685 -31.627299 
L 103.208989 -32.219985 
L 103.766292 -31.132053 
L 104.323596 -27.794343 
L 104.880899 -27.168188 
L 105.438202 -27.239331 
L 105.995506 -27.325599 
L 106.552809 -28.296978 
L 107.110112 -27.789882 
L 107.667416 -28.432797 
L 108.224719 -28.083887 
L 108.782022 -28.214675 
L 109.339326 -28.470888 
L 109.896629 -28.159919 
L 110.453933 -27.495577 
L 111.011236 -28.310847 
L 111.568539 -28.394401 
L 112.125843 -27.804559 
L 112.683146 -28.184397 
L 113.240449 -28.21548 
L 113.797753 -27.847651 
L 114.355056 -28.444008 
L 114.91236 -28.963669 
L 115.469663 -32.822944 
L 116.026966 -33.968198 
L 116.58427 -34.448365 
L 117.141573 -34.750387 
L 117.698876 -35.033842 
L 118.25618 -34.982336 
L 118.813483 -34.179885 
L 119.370787 -29.481497 
L 119.92809 -25.162266 
L 120.485393 -19.524232 
L 121.042697 -17.393602 
L 121.6 -18.017032 
L 122.157303 -16.658455 
L 122.714607 -16.885866 
L 123.27191 -17.43771 
L 123.829213 -17.159634 
L 124.386517 -18.408946 
L 124.94382 -19.087598 
L 125.501124 -20.753119 
L 126.058427 -22.443906 
L 126.61573 -23.546905 
L 127.173034 -24.161988 
L 127.730337 -25.003021 
L 128.28764 -24.973718 
L 128.844944 -25.565947 
L 129.402247 -25.990156 
L 129.959551 -26.752704 
L 130.516854 -30.897795 
L 131.074157 -32.482847 
L 131.631461 -31.258951 
L 132.188764 -31.57608 
L 132.746067 -29.450445 
L 133.303371 -28.574246 
L 133.860674 -28.157901 
L 134.417978 -28.619617 
L 134.975281 -27.691205 
L 135.532584 -28.699896 
L 136.089888 -29.18406 
L 136.647191 -29.240992 
L 137.204494 -29.511389 
L 137.761798 -29.388945 
L 138.319101 -29.562263 
L 138.876404 -29.902048 
L 139.433708 -29.65329 
L 139.991011 -28.799838 
L 140.548315 -29.001138 
L 141.105618 -28.700253 
L 141.662921 -28.279286 
L 142.220225 -27.657677 
L 142.777528 -28.093981 
L 143.334831 -29.945276 
L 143.892135 -32.278654 
L 144.449438 -34.085097 
L 145.006742 -34.45846 
L 145.564045 -33.868573 
L 146.121348 -31.767407 
L 146.678652 -28.010171 
L 147.235955 -25.483571 
L 147.793258 -18.859688 
L 148.350562 -20.970514 
L 148.907865 -18.964996 
L 149.465169 -18.578463 
L 150.022472 -18.340155 
L 150.579775 -18.406499 
L 151.137079 -18.983312 
L 151.694382 -18.407426 
L 152.251685 -18.762452 
L 152.808989 -17.426926 
L 153.366292 -18.035951 
L 153.923596 -17.458315 
L 154.480899 -16.742871 
L 155.038202 -21.255166 
L 155.595506 -31.105049 
L 156.152809 -27.70473 
L 156.710112 -26.129671 
L 157.267416 -33.160686 
L 157.824719 -34.327446 
L 158.382022 -34.605209 
L 158.939326 -35.221391 
L 159.496629 -35.036645 
L 160.053933 -34.676223 
L 160.611236 -32.451388 
L 161.168539 -29.356165 
L 161.725843 -22.368908 
L 162.283146 -20.634259 
L 162.840449 -18.803604 
L 163.397753 -25.149716 
L 163.955056 -29.732566 
L 164.51236 -31.821844 
L 165.069663 -31.370427 
L 165.626966 -27.584546 
L 166.18427 -25.806233 
L 166.741573 -23.942328 
L 167.298876 -23.668116 
L 167.85618 -24.183981 
L 168.413483 -24.53105 
L 168.970787 -25.010498 
L 169.52809 -25.064681 
L 170.085393 -25.374446 
L 170.642697 -25.396359 
L 171.2 -25.17766 
L 171.757303 -25.03512 
L 172.314607 -25.195845 
L 172.87191 -26.200126 
L 173.429213 -26.811505 
L 173.986517 -27.100308 
L 174.54382 -27.608096 
L 175.101124 -27.904657 
L 175.658427 -28.771865 
L 176.21573 -28.872237 
L 176.773034 -28.89945 
L 177.330337 -28.850423 
L 177.88764 -28.341451 
L 178.444944 -28.837769 
L 179.002247 -29.193312 
L 179.559551 -31.805322 
L 180.116854 -33.097096 
L 180.674157 -34.22828 
L 181.231461 -34.731654 
L 181.788764 -34.751301 
L 182.346067 -34.80853 
L 182.903371 -34.907856 
L 183.460674 -35.033057 
L 184.017978 -35.073194 
L 184.575281 -35.24775 
L 185.132584 -35.132897 
L 185.689888 -35.148725 
L 186.247191 -35.163216 
L 186.804494 -35.120441 
L 187.361798 -33.684274 
L 187.919101 -28.29392 
L 188.476404 -23.076489 
L 189.033708 -22.197897 
L 189.591011 -20.248135 
L 190.148315 -23.480241 
L 190.705618 -20.077216 
L 191.262921 -22.424827 
L 191.820225 -26.23863 
L 192.377528 -30.975111 
L 192.934831 -33.468085 
L 193.492135 -33.7401 
L 194.049438 -32.093541 
L 194.606742 -28.712623 
L 195.164045 -27.536034 
L 195.721348 -26.128012 
L 196.278652 -27.21229 
L 196.835955 -27.333393 
L 197.393258 -28.266648 
L 197.950562 -28.599389 
L 198.507865 -29.745215 
L 199.065169 -31.143134 
L 199.622472 -32.678155 
L 200.179775 -31.585557 
L 200.737079 -31.272373 
L 201.294382 -30.010784 
L 201.851685 -29.579599 
L 202.408989 -29.687331 
L 202.966292 -29.408713 
L 203.523596 -29.939539 
L 204.080899 -30.372479 
L 204.638202 -30.365424 
L 205.195506 -30.784784 
L 205.752809 -30.890188 
L 206.310112 -30.898921 
L 206.867416 -31.195937 
L 207.424719 -31.919579 
L 207.982022 -31.818731 
L 208.539326 -31.220264 
L 209.096629 -31.213208 
L 209.653933 -31.862808 
L 210.211236 -30.320834 
L 210.768539 -30.777889 
L 211.325843 -31.52136 
L 211.883146 -30.991286 
L 212.440449 -30.206189 
L 212.997753 -30.055274 
L 213.555056 -29.875927 
L 214.11236 -29.578186 
L 214.669663 -29.22683 
L 215.226966 -28.91882 
L 215.78427 -28.424593 
L 216.341573 -28.336777 
L 216.898876 -28.528128 
L 217.45618 -28.68698 
L 218.013483 -28.894716 
L 218.570787 -28.773873 
L 219.12809 -29.256158 
L 219.685393 -29.1016 
L 220.242697 -29.297961 
L 220.8 -29.581448 
L 221.357303 -29.822522 
L 221.914607 -30.239341 
L 222.47191 -30.650701 
L 223.029213 -30.936629 
L 223.586517 -31.382223 
L 224.14382 -31.633539 
L 224.701124 -32.204788 
L 225.258427 -32.169789 
L 225.81573 -32.362956 
L 226.373034 -32.225557 
L 226.930337 -32.207472 
L 227.48764 -34.107903 
L 228.044944 -34.577226 
L 228.602247 -35.130941 
L 229.159551 -35.244272 
L 229.716854 -35.435845 
L 230.274157 -35.504773 
L 230.831461 -35.476566 
L 231.388764 -35.401955 
L 231.946067 -35.442926 
L 232.503371 -35.421525 
L 233.060674 -35.367413 
L 233.617978 -35.381555 
L 234.175281 -35.379724 
L 234.732584 -35.329407 
L 235.289888 -35.418723 
L 235.847191 -35.358727 
L 236.404494 -35.370489 
L 236.961798 -35.4661 
L 237.519101 -35.409792 
L 238.076404 -35.420742 
L 238.633708 -35.410321 
L 239.191011 -35.437776 
L 239.748315 -33.778007 
L 240.305618 -31.441699 
L 240.862921 -22.274792 
L 241.420225 -19.641482 
L 241.977528 -17.785609 
L 242.534831 -18.902082 
L 243.092135 -19.312491 
L 243.649438 -19.353643 
L 244.206742 -20.375285 
L 244.764045 -20.192829 
L 245.321348 -20.938468 
L 245.878652 -20.872798 
L 246.435955 -21.885613 
L 246.993258 -21.568363 
L 247.550562 -21.348063 
L 248.107865 -20.948596 
L 248.665169 -21.700464 
L 249.222472 -22.906069 
L 249.779775 -23.131114 
L 250.337079 -23.616411 
L 250.894382 -23.826506 
L 251.451685 -24.304971 
L 252.008989 -24.15227 
L 252.566292 -24.670592 
L 253.123596 -25.296672 
L 253.680899 -27.228727 
L 254.238202 -29.777819 
L 254.795506 -33.87325 
L 255.352809 -34.09921 
L 255.910112 -34.518361 
L 256.467416 -34.901454 
L 257.024719 -34.993043 
L 257.582022 -35.123688 
L 258.139326 -35.015804 
L 258.696629 -35.336139 
L 259.253933 -35.183554 
L 259.811236 -35.101595 
L 260.368539 -35.088279 
L 260.925843 -35.092355 
L 261.483146 -35.304669 
L 262.040449 -35.235145 
L 262.597753 -35.282499 
L 263.155056 -35.220393 
L 263.71236 -35.256579 
L 264.269663 -35.252889 
L 264.826966 -35.365706 
L 265.38427 -35.401691 
L 265.941573 -35.4432 
L 266.498876 -35.421886 
L 267.05618 -34.754997 
L 267.613483 -32.364523 
L 268.170787 -28.364734 
L 268.72809 -27.309239 
L 269.285393 -26.207407 
L 269.842697 -26.561454 
L 270.4 -25.283665 
L 270.957303 -24.270957 
L 271.514607 -24.540207 
L 272.07191 -24.831434 
L 272.629213 -24.171678 
L 273.186517 -24.713154 
L 273.74382 -24.860436 
L 274.301124 -23.773899 
L 274.858427 -23.573644 
L 275.41573 -23.311862 
L 275.973034 -22.641799 
L 276.530337 -22.394292 
L 277.08764 -22.334408 
L 277.644944 -22.162856 
L 278.202247 -22.69682 
L 278.759551 -22.895122 
L 279.316854 -23.061451 
L 279.874157 -24.313792 
L 280.431461 -24.571781 
L 280.988764 -25.356879 
L 281.546067 -26.706655 
L 282.103371 -29.577328 
L 282.660674 -30.397395 
L 283.217978 -29.333799 
L 283.775281 -27.44359 
L 284.332584 -27.674884 
L 284.889888 -25.538304 
L 285.447191 -24.510671 
L 286.004494 -24.545345 
L 286.561798 -25.648867 
L 287.119101 -24.675888 
L 287.676404 -24.015749 
L 288.233708 -24.501202 
L 288.791011 -25.193446 
L 289.348315 -25.681235 
L 289.905618 -26.051165 
L 290.462921 -26.318387 
L 291.020225 -26.452719 
L 291.577528 -26.0222 
L 292.134831 -26.233897 
L 292.692135 -26.179566 
L 293.249438 -27.112931 
L 293.806742 -27.316099 
L 294.364045 -27.25614 
L 294.921348 -27.125525 
L 295.478652 -27.113753 
L 296.035955 -26.808079 
L 296.593258 -27.089769 
L 297.150562 -27.254672 
L 297.707865 -27.440209 
L 298.265169 -28.135693 
L 298.822472 -28.268293 
L 299.379775 -28.32082 
L 299.937079 -28.910578 
L 300.494382 -28.98874 
L 301.051685 -28.766361 
L 301.608989 -28.991681 
L 302.166292 -29.481667 
L 302.723596 -29.34648 
L 303.280899 -29.496056 
L 303.838202 -29.30037 
L 304.395506 -29.366571 
L 304.952809 -29.394121 
L 305.510112 -29.320568 
L 306.067416 -29.223932 
L 306.624719 -29.100325 
L 307.182022 -29.210493 
L 307.739326 -28.876407 
L 308.296629 -29.049652 
L 308.853933 -29.358107 
L 309.411236 -29.346646 
L 309.968539 -29.647397 
L 310.525843 -29.629702 
L 311.083146 -30.06951 
L 311.640449 -30.108667 
L 312.197753 -30.248641 
L 312.755056 -30.3237 
L 313.31236 -30.24217 
L 313.869663 -30.17945 
L 314.426966 -30.286715 
L 314.98427 -30.529272 
L 315.541573 -30.815275 
L 316.098876 -31.00271 
L 316.65618 -31.243077 
L 317.213483 -31.355715 
L 317.770787 -31.451916 
L 318.32809 -31.441385 
L 318.885393 -31.507719 
L 319.442697 -31.621287 
L 320 -31.924042 
L 320.557303 -32.397003 
L 321.114607 -32.762921 
L 321.67191 -33.200598 
L 322.229213 -33.749824 
L 322.786517 -33.908158 
L 323.34382 -34.785679 
L 323.901124 -34.999125 
L 324.458427 -35.046313 
L 325.01573 -35.188617 
L 325.573034 -35.280484 
L 326.130337 -35.357268 
L 326.68764 -35.406295 
L 327.244944 -35.37891 
L 327.802247 -35.381384 
L 328.359551 -35.361246 
L 328.916854 -35.395328 
L 329.474157 -35.465636 
L 330.031461 -35.422875 
L 330.588764 -35.373558 
L 331.146067 -35.422915 
L 331.703371 -35.420486 
L 332.260674 -35.431745 
L 332.817978 -35.433186 
L 333.375281 -35.454416 
L 333.932584 -35.396399 
L 334.489888 -35.417522 
L 335.047191 -35.43028 
L 335.604494 -35.418823 
L 336.161798 -35.460843 
L 336.719101 -35.45932 
L 337.276404 -35.455466 
L 337.833708 -35.472597 
L 338.391011 -35.466341 
L 338.948315 -35.484369 
L 339.505618 -35.489758 
L 340.062921 -35.467667 
L 340.620225 -35.481197 
L 341.177528 -35.483847 
L 341.734831 -35.477781 
L 342.292135 -35.47711 
L 342.849438 -35.470445 
L 343.406742 -35.476074 
L 343.964045 -35.476037 
L 344.521348 -35.482793 
L 345.078652 -35.503611 
L 345.635955 -35.530811 
L 346.193258 -35.525394 
L 346.750562 -35.544702 
L 347.307865 -35.564507 
L 347.865169 -35.558408 
L 348.422472 -35.545855 
L 348.979775 -35.55367 
L 349.537079 -35.563798 
L 350.094382 -35.55351 
L 350.651685 -35.558205 
L 351.208989 -35.562918 
L 351.766292 -35.568765 
L 352.323596 -35.577812 
L 352.880899 -35.577179 
L 353.438202 -35.571757 
L 353.995506 -35.580725 
L 354.552809 -35.58476 
L 355.110112 -35.577678 
L 355.667416 -35.584493 
L 356.224719 -35.598883 
L 356.782022 -35.598603 
L 357.339326 -35.608496 
L 357.896629 -35.603707 
L 358.453933 -35.589983 
L 359.011236 -35.588266 
L 359.568539 -35.591368 
L 360.125843 -35.593955 
L 360.683146 -35.595413 
L 361.240449 -35.605567 
L 361.797753 -35.610129 
L 362.355056 -35.605749 
L 362.91236 -35.610347 
L 363.469663 -35.606383 
L 364.026966 -35.607895 
L 364.58427 -35.610326 
L 365.141573 -35.596783 
L 365.698876 -35.61157 
L 366.25618 -35.611896 
L 366.813483 -35.607789 
L 367.370787 -35.60983 
L 367.92809 -35.607495 
L 368.485393 -35.609001 
L 369.042697 -35.610358 
L 369.6 -35.610382 
L 370.157303 -35.605067 
L 370.714607 -35.610919 
L 371.27191 -35.609914 
L 371.829213 -35.609415 
L 372.386517 -35.613067 
L 372.94382 -35.617944 
L 373.501124 -35.618603 
L 374.058427 -35.617848 
L 374.61573 -35.619985 
L 375.173034 -35.617047 
L 375.730337 -35.621531 
L 376.28764 -35.614201 
L 376.844944 -35.620776 
L 377.402247 -35.62203 
L 377.959551 -35.617216 
L 378.516854 -35.626064 
L 379.074157 -35.620934 
L 379.631461 -35.625645 
L 380.188764 -35.62422 
L 380.746067 -35.622744 
L 381.303371 -35.623899 
L 381.860674 -35.626304 
L 382.417978 -35.626598 
L 382.975281 -35.625312 
L 383.532584 -35.628831 
L 384.089888 -35.622996 
L 384.647191 -35.626752 
L 385.204494 -35.625743 
L 385.761798 -35.62828 
L 386.319101 -35.627841 
L 386.876404 -35.630276 
L 387.433708 -35.631114 
L 387.991011 -35.631394 
L 388.548315 -35.630636 
L 389.105618 -35.628832 
L 389.662921 -35.626859 
L 390.220225 -35.624608 
L 390.777528 -35.624441 
L 391.334831 -35.626089 
L 391.892135 -35.627654 
L 392.449438 -35.629411 
L 393.006742 -35.629465 
L 393.564045 -35.628575 
L 394.121348 -35.629888 
L 394.678652 -35.627342 
L 395.235955 -35.629608 
L 395.793258 -35.630822 
L 396.350562 -35.630387 
L 396.907865 -35.632792 
L 397.465169 -35.633485 
L 398.022472 -35.635677 
L 398.579775 -35.636371 
L 399.137079 -35.634457 
L 399.694382 -35.634571 
L 400.251685 -35.634548 
L 400.808989 -35.63181 
L 401.366292 -35.631563 
L 401.923596 -35.631322 
L 402.480899 -35.633514 
L 403.038202 -35.633098 
L 403.595506 -35.634891 
L 404.152809 -35.635523 
L 404.710112 -35.634206 
L 405.267416 -35.636301 
L 405.824719 -35.634066 
L 406.382022 -35.636271 
L 406.939326 -35.636485 
L 407.496629 -35.636966 
L 408.053933 -35.637326 
L 408.611236 -35.636311 
L 409.168539 -35.63624 
L 409.725843 -35.636265 
L 410.283146 -35.636213 
L 410.840449 -35.635844 
L 411.397753 -35.635581 
L 411.955056 -35.635739 
L 412.51236 -35.636098 
L 413.069663 -35.636276 
L 413.626966 -35.636409 
L 414.18427 -35.636949 
L 414.741573 -35.636607 
L 415.298876 -35.635103 
L 415.85618 -35.636735 
L 416.413483 -35.635426 
L 416.970787 -35.635978 
L 417.52809 -35.634986 
L 418.085393 -35.6348 
L 418.642697 -35.635807 
L 419.2 -35.635668 
L 419.757303 -35.635751 
L 420.314607 -35.636018 
L 420.87191 -35.636358 
L 421.429213 -35.636069 
L 421.986517 -35.635003 
L 422.54382 -35.63555 
L 423.101124 -35.636041 
L 423.658427 -35.636724 
L 424.21573 -35.63628 
L 424.773034 -35.636538 
L 425.330337 -35.636618 
L 425.88764 -35.636307 
L 426.444944 -35.636529 
L 427.002247 -35.635341 
L 427.559551 -35.635069 
L 428.116854 -35.636077 
L 428.674157 -35.63615 
L 429.231461 -35.636645 
L 429.788764 -35.637301 
L 430.346067 -35.637165 
L 430.903371 -35.636709 
L 431.460674 -35.636841 
L 432.017978 -35.637255 
L 432.575281 -35.637177 
L 433.132584 -35.637319 
L 433.689888 -35.637206 
L 434.247191 -35.637721 
L 434.804494 -35.637975 
L 435.361798 -35.637766 
L 435.919101 -35.637475 
L 436.476404 -35.63768 
L 437.033708 -35.637739 
L 437.591011 -35.637279 
L 438.148315 -35.637311 
L 438.705618 -35.637193 
L 439.262921 -35.637547 
L 439.820225 -35.63757 
L 440.377528 -35.637752 
L 440.934831 -35.637797 
L 441.492135 -35.637497 
L 442.049438 -35.638086 
L 442.606742 -35.638379 
L 443.164045 -35.637789 
L 443.721348 -35.63839 
L 444.278652 -35.637971 
L 444.835955 -35.637895 
L 445.393258 -35.637982 
L 445.950562 -35.638231 
L 446.507865 -35.63763 
L 447.065169 -35.638157 
L 447.622472 -35.638172 
L 448.179775 -35.638187 
L 448.737079 -35.638028 
L 449.294382 -35.638049 
L 449.851685 -35.638695 
L 450.408989 -35.638073 
L 450.966292 -35.638337 
L 451.523596 -35.638574 
L 452.080899 -35.638373 
L 452.638202 -35.638394 
L 453.195506 -35.6385 
L 453.752809 -35.638323 
L 454.310112 -35.638056 
L 454.867416 -35.63806 
L 455.424719 -35.63798 
L 455.982022 -35.638147 
L 456.539326 -35.637947 
L 457.096629 -35.637672 
L 457.653933 -35.637727 
L 458.211236 -35.63834 
L 458.768539 -35.638614 
L 459.325843 -35.63852 
L 459.883146 -35.638475 
L 460.440449 -35.638418 
L 460.997753 -35.638395 
L 461.555056 -35.63848 
L 462.11236 -35.637595 
L 462.669663 -35.637952 
L 463.226966 -35.638428 
L 463.78427 -35.638268 
L 464.341573 -35.63827 
L 464.898876 -35.637999 
L 465.45618 -35.638295 
L 466.013483 -35.638135 
L 466.570787 -35.638382 
L 467.12809 -35.638414 
L 467.685393 -35.638213 
L 468.242697 -35.638617 
L 468.8 -35.638443 
L 469.357303 -35.637772 
L 469.914607 -35.63763 
L 470.47191 -35.638303 
L 471.029213 -35.638369 
L 471.586517 -35.637591 
L 472.14382 -35.638293 
L 472.701124 -35.637433 
L 473.258427 -35.638251 
L 473.81573 -35.637672 
L 474.373034 -35.638679 
L 474.930337 -35.638515 
L 475.48764 -35.637907 
L 476.044944 -35.638281 
L 476.602247 -35.638458 
L 477.159551 -35.638382 
L 477.716854 -35.638784 
L 478.274157 -35.638542 
L 478.831461 -35.638013 
L 479.388764 -35.638551 
L 479.946067 -35.638201 
L 480.503371 -35.638261 
L 481.060674 -35.637917 
L 481.617978 -35.638542 
L 482.175281 -35.638672 
L 482.732584 -35.638522 
L 483.289888 -35.638577 
L 483.847191 -35.63764 
L 484.404494 -35.63846 
L 484.961798 -35.638637 
L 485.519101 -35.638272 
L 486.076404 -35.638511 
L 486.633708 -35.638068 
L 487.191011 -35.63817 
L 487.748315 -35.638495 
L 488.305618 -35.638428 
L 488.862921 -35.638482 
L 489.420225 -35.638409 
L 489.977528 -35.638271 
L 490.534831 -35.638363 
L 491.092135 -35.638649 
L 491.649438 -35.637857 
L 492.206742 -35.638119 
L 492.764045 -35.637996 
L 493.321348 -35.638706 
L 493.878652 -35.638292 
L 494.435955 -35.638473 
L 494.993258 -35.638572 
L 495.550562 -35.638159 
L 496.107865 -35.638392 
L 496.665169 -35.638589 
L 497.222472 -35.638303 
L 497.779775 -35.638364 
L 498.337079 -35.638487 
L 498.894382 -35.638026 
L 499.451685 -35.638249 
L 500.008989 -35.638581 
L 500.566292 -35.63789 
L 501.123596 -35.638705 
L 501.680899 -35.638571 
L 502.238202 -35.638299 
L 502.795506 -35.638756 
L 503.352809 -35.638759 
L 503.910112 -35.638193 
L 504.467416 -35.638644 
L 505.024719 -35.638229 
L 505.582022 -35.638418 
L 506.139326 -35.638626 
L 506.696629 -35.638193 
L 507.253933 -35.638288 
L 507.811236 -35.638747 
L 508.368539 -35.638789 
L 508.925843 -35.638166 
L 509.483146 -35.638701 
L 510.040449 -35.638537 
L 510.597753 -35.638685 
L 511.155056 -35.638633 
L 511.71236 -35.63876 
L 512.269663 -35.63874 
L 512.826966 -35.637955 
L 513.38427 -35.638553 
L 513.941573 -35.638706 
L 514.498876 -35.638324 
L 515.05618 -35.638412 
L 515.613483 -35.638536 
L 516.170787 -35.638665 
L 516.72809 -35.63886 
L 517.285393 -35.638785 
L 517.842697 -35.640354 
L 517.842697 -35.640354 
L 517.842697 -35.640354 
L 517.285393 -35.641122 
L 516.72809 -35.64131 
L 516.170787 -35.641215 
L 515.613483 -35.641066 
L 515.05618 -35.641473 
L 514.498876 -35.641356 
L 513.941573 -35.641378 
L 513.38427 -35.641393 
L 512.826966 -35.641554 
L 512.269663 -35.641337 
L 511.71236 -35.641153 
L 511.155056 -35.641167 
L 510.597753 -35.641548 
L 510.040449 -35.641345 
L 509.483146 -35.641102 
L 508.925843 -35.641166 
L 508.368539 -35.641426 
L 507.811236 -35.641204 
L 507.253933 -35.641551 
L 506.696629 -35.641722 
L 506.139326 -35.641764 
L 505.582022 -35.641704 
L 505.024719 -35.641307 
L 504.467416 -35.64169 
L 503.910112 -35.641104 
L 503.352809 -35.641446 
L 502.795506 -35.641357 
L 502.238202 -35.641406 
L 501.680899 -35.641635 
L 501.123596 -35.641504 
L 500.566292 -35.641583 
L 500.008989 -35.641786 
L 499.451685 -35.641593 
L 498.894382 -35.641727 
L 498.337079 -35.641442 
L 497.779775 -35.642092 
L 497.222472 -35.641681 
L 496.665169 -35.641489 
L 496.107865 -35.641846 
L 495.550562 -35.641385 
L 494.993258 -35.64185 
L 494.435955 -35.64179 
L 493.878652 -35.641677 
L 493.321348 -35.641402 
L 492.764045 -35.64189 
L 492.206742 -35.641502 
L 491.649438 -35.641751 
L 491.092135 -35.641794 
L 490.534831 -35.642116 
L 489.977528 -35.641628 
L 489.420225 -35.641885 
L 488.862921 -35.641646 
L 488.305618 -35.641932 
L 487.748315 -35.641496 
L 487.191011 -35.641679 
L 486.633708 -35.642047 
L 486.076404 -35.641576 
L 485.519101 -35.641915 
L 484.961798 -35.641795 
L 484.404494 -35.641915 
L 483.847191 -35.641814 
L 483.289888 -35.641663 
L 482.732584 -35.642127 
L 482.175281 -35.64149 
L 481.617978 -35.641753 
L 481.060674 -35.641481 
L 480.503371 -35.642495 
L 479.946067 -35.641792 
L 479.388764 -35.641897 
L 478.831461 -35.642015 
L 478.274157 -35.641526 
L 477.716854 -35.641764 
L 477.159551 -35.641565 
L 476.602247 -35.641593 
L 476.044944 -35.641936 
L 475.48764 -35.641948 
L 474.930337 -35.641528 
L 474.373034 -35.641445 
L 473.81573 -35.641652 
L 473.258427 -35.641731 
L 472.701124 -35.641894 
L 472.14382 -35.641796 
L 471.586517 -35.641917 
L 471.029213 -35.641507 
L 470.47191 -35.642061 
L 469.914607 -35.642594 
L 469.357303 -35.641825 
L 468.8 -35.641556 
L 468.242697 -35.641841 
L 467.685393 -35.64224 
L 467.12809 -35.641477 
L 466.570787 -35.641876 
L 466.013483 -35.641725 
L 465.45618 -35.642058 
L 464.898876 -35.6417 
L 464.341573 -35.642065 
L 463.78427 -35.641514 
L 463.226966 -35.641711 
L 462.669663 -35.641712 
L 462.11236 -35.641799 
L 461.555056 -35.641921 
L 460.997753 -35.641483 
L 460.440449 -35.641587 
L 459.883146 -35.641538 
L 459.325843 -35.641768 
L 458.768539 -35.641956 
L 458.211236 -35.641785 
L 457.653933 -35.642315 
L 457.096629 -35.642225 
L 456.539326 -35.643099 
L 455.982022 -35.641859 
L 455.424719 -35.641352 
L 454.867416 -35.641834 
L 454.310112 -35.641926 
L 453.752809 -35.641632 
L 453.195506 -35.641315 
L 452.638202 -35.641612 
L 452.080899 -35.64136 
L 451.523596 -35.641656 
L 450.966292 -35.641769 
L 450.408989 -35.641468 
L 449.851685 -35.641543 
L 449.294382 -35.641678 
L 448.737079 -35.642212 
L 448.179775 -35.641716 
L 447.622472 -35.642472 
L 447.065169 -35.64205 
L 446.507865 -35.642173 
L 445.950562 -35.642354 
L 445.393258 -35.642174 
L 444.835955 -35.64252 
L 444.278652 -35.642041 
L 443.721348 -35.642121 
L 443.164045 -35.642336 
L 442.606742 -35.642106 
L 442.049438 -35.641739 
L 441.492135 -35.642058 
L 440.934831 -35.642503 
L 440.377528 -35.642191 
L 439.820225 -35.642235 
L 439.262921 -35.642237 
L 438.705618 -35.642463 
L 438.148315 -35.642155 
L 437.591011 -35.642349 
L 437.033708 -35.642053 
L 436.476404 -35.641834 
L 435.919101 -35.642064 
L 435.361798 -35.641858 
L 434.804494 -35.641982 
L 434.247191 -35.642457 
L 433.689888 -35.642392 
L 433.132584 -35.64299 
L 432.575281 -35.642709 
L 432.017978 -35.643124 
L 431.460674 -35.642713 
L 430.903371 -35.642803 
L 430.346067 -35.642681 
L 429.788764 -35.643238 
L 429.231461 -35.642662 
L 428.674157 -35.642673 
L 428.116854 -35.642721 
L 427.559551 -35.643832 
L 427.002247 -35.64327 
L 426.444944 -35.643628 
L 425.88764 -35.642933 
L 425.330337 -35.64281 
L 424.773034 -35.642664 
L 424.21573 -35.642532 
L 423.658427 -35.643604 
L 423.101124 -35.643835 
L 422.54382 -35.64334 
L 421.986517 -35.643874 
L 421.429213 -35.64335 
L 420.87191 -35.643015 
L 420.314607 -35.643722 
L 419.757303 -35.643331 
L 419.2 -35.644102 
L 418.642697 -35.643428 
L 418.085393 -35.644275 
L 417.52809 -35.643972 
L 416.970787 -35.643088 
L 416.413483 -35.644175 
L 415.85618 -35.644131 
L 415.298876 -35.644863 
L 414.741573 -35.64532 
L 414.18427 -35.646009 
L 413.626966 -35.645237 
L 413.069663 -35.645567 
L 412.51236 -35.646545 
L 411.955056 -35.646159 
L 411.397753 -35.646975 
L 410.840449 -35.646305 
L 410.283146 -35.645392 
L 409.725843 -35.645323 
L 409.168539 -35.644959 
L 408.611236 -35.643893 
L 408.053933 -35.642931 
L 407.496629 -35.64272 
L 406.939326 -35.643292 
L 406.382022 -35.64448 
L 405.824719 -35.64458 
L 405.267416 -35.644525 
L 404.710112 -35.645394 
L 404.152809 -35.645377 
L 403.595506 -35.647471 
L 403.038202 -35.64762 
L 402.480899 -35.64654 
L 401.923596 -35.648157 
L 401.366292 -35.646932 
L 400.808989 -35.647371 
L 400.251685 -35.646286 
L 399.694382 -35.646312 
L 399.137079 -35.645398 
L 398.579775 -35.643616 
L 398.022472 -35.643273 
L 397.465169 -35.643933 
L 396.907865 -35.643543 
L 396.350562 -35.644667 
L 395.793258 -35.645322 
L 395.235955 -35.646617 
L 394.678652 -35.647913 
L 394.121348 -35.648585 
L 393.564045 -35.647461 
L 393.006742 -35.64858 
L 392.449438 -35.648329 
L 391.892135 -35.649275 
L 391.334831 -35.648676 
L 390.777528 -35.648186 
L 390.220225 -35.648383 
L 389.662921 -35.646419 
L 389.105618 -35.647001 
L 388.548315 -35.64748 
L 387.991011 -35.648056 
L 387.433708 -35.646776 
L 386.876404 -35.648388 
L 386.319101 -35.652267 
L 385.761798 -35.648917 
L 385.204494 -35.651239 
L 384.647191 -35.653668 
L 384.089888 -35.655398 
L 383.532584 -35.655831 
L 382.975281 -35.656236 
L 382.417978 -35.654543 
L 381.860674 -35.658603 
L 381.303371 -35.6541 
L 380.746067 -35.659961 
L 380.188764 -35.656857 
L 379.631461 -35.658114 
L 379.074157 -35.666286 
L 378.516854 -35.661628 
L 377.959551 -35.667045 
L 377.402247 -35.661734 
L 376.844944 -35.666469 
L 376.28764 -35.66468 
L 375.730337 -35.66695 
L 375.173034 -35.670353 
L 374.61573 -35.663121 
L 374.058427 -35.662636 
L 373.501124 -35.66053 
L 372.94382 -35.660277 
L 372.386517 -35.66364 
L 371.829213 -35.664657 
L 371.27191 -35.666955 
L 370.714607 -35.666882 
L 370.157303 -35.673872 
L 369.6 -35.675404 
L 369.042697 -35.675567 
L 368.485393 -35.669094 
L 367.92809 -35.667585 
L 367.370787 -35.663755 
L 366.813483 -35.664985 
L 366.25618 -35.670222 
L 365.698876 -35.675724 
L 365.141573 -35.67771 
L 364.58427 -35.684154 
L 364.026966 -35.682689 
L 363.469663 -35.691298 
L 362.91236 -35.686109 
L 362.355056 -35.679003 
L 361.797753 -35.677901 
L 361.240449 -35.677414 
L 360.683146 -35.690392 
L 360.125843 -35.696096 
L 359.568539 -35.703146 
L 359.011236 -35.70784 
L 358.453933 -35.708677 
L 357.896629 -35.703453 
L 357.339326 -35.706241 
L 356.782022 -35.695065 
L 356.224719 -35.682083 
L 355.667416 -35.682805 
L 355.110112 -35.685275 
L 354.552809 -35.684557 
L 353.995506 -35.706076 
L 353.438202 -35.713143 
L 352.880899 -35.726907 
L 352.323596 -35.747088 
L 351.766292 -35.754289 
L 351.208989 -35.772414 
L 350.651685 -35.768285 
L 350.094382 -35.775974 
L 349.537079 -35.767939 
L 348.979775 -35.765671 
L 348.422472 -35.776221 
L 347.865169 -35.750804 
L 347.307865 -35.759152 
L 346.750562 -35.761818 
L 346.193258 -35.76173 
L 345.635955 -35.746675 
L 345.078652 -35.763964 
L 344.521348 -35.765649 
L 343.964045 -35.76736 
L 343.406742 -35.761046 
L 342.849438 -35.752175 
L 342.292135 -35.780073 
L 341.734831 -35.796322 
L 341.177528 -35.829978 
L 340.620225 -35.843024 
L 340.062921 -35.836474 
L 339.505618 -35.834544 
L 338.948315 -35.816644 
L 338.391011 -35.81469 
L 337.833708 -35.796029 
L 337.276404 -35.795656 
L 336.719101 -35.776462 
L 336.161798 -35.788488 
L 335.604494 -35.838993 
L 335.047191 -35.823469 
L 334.489888 -35.802585 
L 333.932584 -35.864243 
L 333.375281 -35.826559 
L 332.817978 -35.876565 
L 332.260674 -35.800926 
L 331.703371 -35.854557 
L 331.146067 -35.912811 
L 330.588764 -35.869331 
L 330.031461 -35.879254 
L 329.474157 -35.910076 
L 328.916854 -35.886081 
L 328.359551 -35.919825 
L 327.802247 -35.96611 
L 327.244944 -36.02085 
L 326.68764 -35.987655 
L 326.130337 -35.990286 
L 325.573034 -35.905123 
L 325.01573 -35.944683 
L 324.458427 -36.146831 
L 323.901124 -36.136904 
L 323.34382 -36.289721 
L 322.786517 -37.013899 
L 322.229213 -36.76588 
L 321.67191 -37.477062 
L 321.114607 -37.38915 
L 320.557303 -37.544894 
L 320 -37.915853 
L 319.442697 -38.335991 
L 318.885393 -38.389897 
L 318.32809 -38.503549 
L 317.770787 -38.471446 
L 317.213483 -38.457988 
L 316.65618 -38.629194 
L 316.098876 -38.637993 
L 315.541573 -38.815092 
L 314.98427 -38.98029 
L 314.426966 -39.159251 
L 313.869663 -39.21817 
L 313.31236 -39.439915 
L 312.755056 -39.414514 
L 312.197753 -39.308737 
L 311.640449 -39.256171 
L 311.083146 -39.311774 
L 310.525843 -39.468313 
L 309.968539 -39.53933 
L 309.411236 -39.709965 
L 308.853933 -39.727362 
L 308.296629 -39.898544 
L 307.739326 -39.883823 
L 307.182022 -39.868324 
L 306.624719 -39.72068 
L 306.067416 -39.447065 
L 305.510112 -39.666101 
L 304.952809 -40.069674 
L 304.395506 -40.034643 
L 303.838202 -39.733038 
L 303.280899 -39.801831 
L 302.723596 -39.67215 
L 302.166292 -40.01077 
L 301.608989 -40.146824 
L 301.051685 -40.367508 
L 300.494382 -40.092372 
L 299.937079 -39.995668 
L 299.379775 -40.633257 
L 298.822472 -40.611896 
L 298.265169 -41.253511 
L 297.707865 -41.061536 
L 297.150562 -41.138697 
L 296.593258 -41.20193 
L 296.035955 -41.383746 
L 295.478652 -41.073031 
L 294.921348 -40.522356 
L 294.364045 -40.864117 
L 293.806742 -40.456821 
L 293.249438 -40.153893 
L 292.692135 -40.851247 
L 292.134831 -41.314756 
L 291.577528 -41.472225 
L 291.020225 -41.450376 
L 290.462921 -41.703239 
L 289.905618 -41.803104 
L 289.348315 -41.665178 
L 288.791011 -42.519463 
L 288.233708 -41.653473 
L 287.676404 -41.106772 
L 287.119101 -39.521218 
L 286.561798 -38.699116 
L 286.004494 -38.805467 
L 285.447191 -38.953084 
L 284.889888 -39.974659 
L 284.332584 -38.673695 
L 283.775281 -38.718181 
L 283.217978 -39.056019 
L 282.660674 -39.124653 
L 282.103371 -38.858763 
L 281.546067 -41.486823 
L 280.988764 -41.923764 
L 280.431461 -42.323001 
L 279.874157 -42.5051 
L 279.316854 -43.567827 
L 278.759551 -44.073408 
L 278.202247 -44.123381 
L 277.644944 -44.594566 
L 277.08764 -45.084637 
L 276.530337 -44.585414 
L 275.973034 -44.591731 
L 275.41573 -43.816222 
L 274.858427 -42.831148 
L 274.301124 -42.233207 
L 273.74382 -41.412499 
L 273.186517 -41.698005 
L 272.629213 -41.60442 
L 272.07191 -41.765333 
L 271.514607 -40.849793 
L 270.957303 -42.242893 
L 270.4 -41.177293 
L 269.842697 -41.317069 
L 269.285393 -40.513825 
L 268.72809 -41.302691 
L 268.170787 -39.565981 
L 267.613483 -37.813125 
L 267.05618 -36.63046 
L 266.498876 -35.956914 
L 265.941573 -35.939668 
L 265.38427 -36.010737 
L 264.826966 -36.088682 
L 264.269663 -36.043274 
L 263.71236 -36.091463 
L 263.155056 -35.966445 
L 262.597753 -35.891199 
L 262.040449 -35.874974 
L 261.483146 -35.947861 
L 260.925843 -35.894591 
L 260.368539 -35.989123 
L 259.811236 -35.979446 
L 259.253933 -36.114016 
L 258.696629 -35.999449 
L 258.139326 -36.021192 
L 257.582022 -36.062887 
L 257.024719 -36.183531 
L 256.467416 -36.494587 
L 255.910112 -36.68302 
L 255.352809 -36.826681 
L 254.795506 -36.841515 
L 254.238202 -39.861046 
L 253.680899 -41.014911 
L 253.123596 -41.438877 
L 252.566292 -42.03675 
L 252.008989 -43.249496 
L 251.451685 -43.73697 
L 250.894382 -44.320562 
L 250.337079 -44.259184 
L 249.779775 -44.889911 
L 249.222472 -45.207094 
L 248.665169 -45.471726 
L 248.107865 -45.995283 
L 247.550562 -45.953536 
L 246.993258 -45.119087 
L 246.435955 -45.305841 
L 245.878652 -45.258917 
L 245.321348 -45.715637 
L 244.764045 -45.671265 
L 244.206742 -45.552924 
L 243.649438 -46.331138 
L 243.092135 -46.127448 
L 242.534831 -47.366257 
L 241.977528 -47.896207 
L 241.420225 -44.974088 
L 240.862921 -44.668878 
L 240.305618 -38.716919 
L 239.748315 -37.434942 
L 239.191011 -35.879385 
L 238.633708 -35.836491 
L 238.076404 -35.813479 
L 237.519101 -35.844006 
L 236.961798 -35.855432 
L 236.404494 -35.912374 
L 235.847191 -35.907197 
L 235.289888 -35.908739 
L 234.732584 -35.906269 
L 234.175281 -35.905967 
L 233.617978 -35.87706 
L 233.060674 -35.862973 
L 232.503371 -35.91134 
L 231.946067 -35.967924 
L 231.388764 -36.085371 
L 230.831461 -35.945334 
L 230.274157 -35.848523 
L 229.716854 -35.936721 
L 229.159551 -36.086915 
L 228.602247 -36.52659 
L 228.044944 -36.623302 
L 227.48764 -36.915215 
L 226.930337 -37.644811 
L 226.373034 -37.397627 
L 225.81573 -37.370162 
L 225.258427 -37.251838 
L 224.701124 -37.593387 
L 224.14382 -37.646105 
L 223.586517 -37.906921 
L 223.029213 -37.971452 
L 222.47191 -38.189586 
L 221.914607 -38.03817 
L 221.357303 -38.112632 
L 220.8 -38.356661 
L 220.242697 -38.491355 
L 219.685393 -38.804172 
L 219.12809 -38.701509 
L 218.570787 -38.866374 
L 218.013483 -38.955386 
L 217.45618 -39.003145 
L 216.898876 -39.035244 
L 216.341573 -38.856069 
L 215.78427 -38.664067 
L 215.226966 -38.489385 
L 214.669663 -38.572235 
L 214.11236 -38.474279 
L 213.555056 -38.647625 
L 212.997753 -38.371934 
L 212.440449 -38.024749 
L 211.883146 -37.877346 
L 211.325843 -37.547706 
L 210.768539 -37.397128 
L 210.211236 -38.62944 
L 209.653933 -37.07855 
L 209.096629 -38.268799 
L 208.539326 -38.146843 
L 207.982022 -37.671234 
L 207.424719 -37.7512 
L 206.867416 -38.60279 
L 206.310112 -38.669747 
L 205.752809 -39.065351 
L 205.195506 -38.736407 
L 204.638202 -38.838588 
L 204.080899 -38.923364 
L 203.523596 -38.955665 
L 202.966292 -38.967709 
L 202.408989 -39.034675 
L 201.851685 -38.721544 
L 201.294382 -38.585789 
L 200.737079 -37.681786 
L 200.179775 -37.714999 
L 199.622472 -36.839156 
L 199.065169 -38.882409 
L 198.507865 -39.680206 
L 197.950562 -40.322637 
L 197.393258 -40.068408 
L 196.835955 -40.644683 
L 196.278652 -40.808046 
L 195.721348 -40.759394 
L 195.164045 -40.553784 
L 194.606742 -39.904654 
L 194.049438 -37.878159 
L 193.492135 -36.835005 
L 192.934831 -37.271584 
L 192.377528 -38.181173 
L 191.820225 -41.088335 
L 191.262921 -44.051138 
L 190.705618 -46.158033 
L 190.148315 -43.858013 
L 189.591011 -46.051833 
L 189.033708 -43.360341 
L 188.476404 -43.392833 
L 187.919101 -40.321468 
L 187.361798 -37.037824 
L 186.804494 -36.311392 
L 186.247191 -36.065683 
L 185.689888 -35.962345 
L 185.132584 -36.027716 
L 184.575281 -36.227117 
L 184.017978 -36.135586 
L 183.460674 -36.040215 
L 182.903371 -36.043937 
L 182.346067 -36.11785 
L 181.788764 -36.248357 
L 181.231461 -36.491677 
L 180.674157 -37.085233 
L 180.116854 -37.486055 
L 179.559551 -37.739096 
L 179.002247 -39.100895 
L 178.444944 -39.277805 
L 177.88764 -39.669338 
L 177.330337 -39.303346 
L 176.773034 -39.732904 
L 176.21573 -39.523066 
L 175.658427 -39.537282 
L 175.101124 -39.934596 
L 174.54382 -40.177658 
L 173.986517 -40.301947 
L 173.429213 -40.758831 
L 172.87191 -41.181276 
L 172.314607 -41.264194 
L 171.757303 -41.68835 
L 171.2 -42.121806 
L 170.642697 -41.550014 
L 170.085393 -41.980759 
L 169.52809 -42.138013 
L 168.970787 -43.123172 
L 168.413483 -43.536485 
L 167.85618 -44.021935 
L 167.298876 -44.352173 
L 166.741573 -43.665835 
L 166.18427 -41.908613 
L 165.626966 -39.46982 
L 165.069663 -38.526051 
L 164.51236 -38.293361 
L 163.955056 -38.561328 
L 163.397753 -39.530355 
L 162.840449 -47.735414 
L 162.283146 -45.57157 
L 161.725843 -43.824644 
L 161.168539 -39.319958 
L 160.611236 -37.694704 
L 160.053933 -36.952652 
L 159.496629 -36.407009 
L 158.939326 -36.37676 
L 158.382022 -36.381926 
L 157.824719 -36.641621 
L 157.267416 -37.618096 
L 156.710112 -40.295063 
L 156.152809 -39.801039 
L 155.595506 -39.050733 
L 155.038202 -42.292322 
L 154.480899 -46.596647 
L 153.923596 -46.297661 
L 153.366292 -45.857177 
L 152.808989 -47.693475 
L 152.251685 -46.440439 
L 151.694382 -46.770321 
L 151.137079 -47.142173 
L 150.579775 -46.933186 
L 150.022472 -47.379201 
L 149.465169 -47.246464 
L 148.907865 -46.635067 
L 148.350562 -44.543597 
L 147.793258 -45.969375 
L 147.235955 -42.048808 
L 146.678652 -40.939207 
L 146.121348 -37.86107 
L 145.564045 -37.138341 
L 145.006742 -36.42189 
L 144.449438 -37.020112 
L 143.892135 -37.255481 
L 143.334831 -38.587011 
L 142.777528 -38.595168 
L 142.220225 -38.482695 
L 141.662921 -38.28228 
L 141.105618 -38.121939 
L 140.548315 -37.965759 
L 139.991011 -38.272002 
L 139.433708 -37.891924 
L 138.876404 -37.591078 
L 138.319101 -38.347391 
L 137.761798 -38.647437 
L 137.204494 -38.672005 
L 136.647191 -38.811829 
L 136.089888 -39.100801 
L 135.532584 -39.961183 
L 134.975281 -40.414975 
L 134.417978 -40.539109 
L 133.860674 -40.1224 
L 133.303371 -38.48476 
L 132.746067 -38.588461 
L 132.188764 -38.715495 
L 131.631461 -38.521484 
L 131.074157 -38.218655 
L 130.516854 -39.005767 
L 129.959551 -40.405066 
L 129.402247 -40.03018 
L 128.844944 -40.474946 
L 128.28764 -40.426712 
L 127.730337 -40.836906 
L 127.173034 -40.976051 
L 126.61573 -41.330936 
L 126.058427 -42.677238 
L 125.501124 -44.21694 
L 124.94382 -45.761669 
L 124.386517 -47.771139 
L 123.829213 -48.254693 
L 123.27191 -50.405998 
L 122.714607 -50.882988 
L 122.157303 -53.147911 
L 121.6 -50.955611 
L 121.042697 -49.782318 
L 120.485393 -47.922407 
L 119.92809 -42.30168 
L 119.370787 -38.646728 
L 118.813483 -37.405424 
L 118.25618 -36.27066 
L 117.698876 -36.295136 
L 117.141573 -36.280722 
L 116.58427 -36.581705 
L 116.026966 -37.042639 
L 115.469663 -37.845126 
L 114.91236 -38.848907 
L 114.355056 -39.778331 
L 113.797753 -40.061902 
L 113.240449 -40.133781 
L 112.683146 -40.533944 
L 112.125843 -40.537088 
L 111.568539 -39.883124 
L 111.011236 -40.009773 
L 110.453933 -40.054211 
L 109.896629 -39.735681 
L 109.339326 -39.718441 
L 108.782022 -39.71097 
L 108.224719 -39.588456 
L 107.667416 -40.078556 
L 107.110112 -40.464885 
L 106.552809 -40.765741 
L 105.995506 -40.774417 
L 105.438202 -41.735502 
L 104.880899 -41.798189 
L 104.323596 -40.278671 
L 103.766292 -38.7395 
L 103.208989 -37.444569 
L 102.651685 -37.71275 
L 102.094382 -39.667594 
L 101.537079 -41.175819 
L 100.979775 -40.997727 
L 100.422472 -41.74088 
L 99.865169 -41.8903 
L 99.307865 -41.834802 
L 98.750562 -41.367221 
L 98.193258 -42.00172 
L 97.635955 -42.238737 
L 97.078652 -41.572935 
L 96.521348 -41.862675 
L 95.964045 -42.43388 
L 95.406742 -44.406935 
L 94.849438 -45.083619 
L 94.292135 -45.931906 
L 93.734831 -46.47729 
L 93.177528 -46.866793 
L 92.620225 -47.479509 
L 92.062921 -48.47064 
L 91.505618 -47.340478 
L 90.948315 -46.662732 
L 90.391011 -43.998147 
L 89.833708 -41.04259 
L 89.276404 -38.157212 
L 88.719101 -36.07934 
L 88.161798 -36.209201 
L 87.604494 -36.501255 
L 87.047191 -38.029781 
L 86.489888 -38.954383 
L 85.932584 -40.872307 
L 85.375281 -41.377133 
L 84.817978 -41.146059 
L 84.260674 -40.680011 
L 83.703371 -40.484612 
L 83.146067 -39.872439 
L 82.588764 -40.101629 
L 82.031461 -40.026623 
L 81.474157 -39.753976 
L 80.916854 -40.137496 
L 80.359551 -40.481628 
L 79.802247 -40.504476 
L 79.244944 -41.278327 
L 78.68764 -41.503682 
L 78.130337 -41.615624 
L 77.573034 -42.291652 
L 77.01573 -43.041554 
L 76.458427 -43.554207 
L 75.901124 -44.139825 
L 75.34382 -45.266791 
L 74.786517 -43.073064 
L 74.229213 -43.845128 
L 73.67191 -41.808904 
L 73.114607 -41.116706 
L 72.557303 -37.355289 
L 72 -37.156131 
z
" style="stroke: #f6f6f6; stroke-width: 1.5"/>
    </defs>
    <g clip-path="url(#pc029029f29)">
     <use xlink:href="#me460629a51" x="0" y="72" style="fill: #f6f6f6; stroke: #f6f6f6; stroke-width: 1.5"/>
    </g>
   </g>
   <g id="matplotlib.axis_1">
    <g id="xtick_1"/>
    <g id="xtick_2"/>
    <g id="xtick_3"/>
    <g id="xtick_4"/>
    <g id="xtick_5"/>
    <g id="xtick_6"/>
   </g>
   <g id="matplotlib.axis_2">
    <g id="ytick_1"/>
    <g id="ytick_2"/>
    <g id="ytick_3"/>
   </g>
  </g>
 </g>
 <defs>
  <clipPath id="pc029029f29">
   <rect x="72" y="8.64" width="446.4" height="55.44"/>
  </clipPath>
 </defs>
</svg>
