<?xml version="1.0" encoding="utf-8" standalone="no"?>
<!DOCTYPE svg PUBLIC "-//W3C//DTD SVG 1.1//EN"
  "http://www.w3.org/Graphics/SVG/1.1/DTD/svg11.dtd">
<svg xmlns:xlink="http://www.w3.org/1999/xlink" width="576pt" height="216pt" viewBox="0 0 576 216" xmlns="http://www.w3.org/2000/svg" version="1.1">
 <metadata>
  <rdf:RDF xmlns:dc="http://purl.org/dc/elements/1.1/" xmlns:cc="http://creativecommons.org/ns#" xmlns:rdf="http://www.w3.org/1999/02/22-rdf-syntax-ns#">
   <cc:Work>
    <dc:type rdf:resource="http://purl.org/dc/dcmitype/StillImage"/>
    <dc:date>2022-12-21T16:03:03.712221</dc:date>
    <dc:format>image/svg+xml</dc:format>
    <dc:creator>
     <cc:Agent>
      <dc:title>Matplotlib v3.6.2, https://matplotlib.org/</dc:title>
     </cc:Agent>
    </dc:creator>
   </cc:Work>
  </rdf:RDF>
 </metadata>
 <defs>
  <style type="text/css">*{stroke-linejoin: round; stroke-linecap: butt}</style>
 </defs>
 <g id="figure_1">
  <g id="patch_1">
   <path d="M 0 216 
L 576 216 
L 576 0 
L 0 0 
z
" style="fill: #ffffff"/>
  </g>
  <g id="axes_1">
   <g id="patch_2">
    <path d="M 72 109.08 
L 518.4 109.08 
L 518.4 25.92 
L 72 25.92 
z
" style="fill: #389dcd"/>
   </g>
   <g id="PolyCollection_1">
    <defs>
     <path id="mc6abe39086" d="M 122.02107 -150.755876 
L 122.02107 -145.788176 
L 122.515925 -145.904694 
L 123.01078 -137.090477 
L 123.505636 -132.470446 
L 124.000491 -128.488275 
L 124.495346 -128.951305 
L 124.990201 -128.747275 
L 125.485056 -130.662584 
L 125.979911 -129.900151 
L 126.474766 -130.441855 
L 126.969621 -130.337234 
L 127.464476 -131.030439 
L 127.959331 -131.459488 
L 128.454186 -131.554806 
L 128.949042 -132.872378 
L 129.443897 -132.973672 
L 129.938752 -133.459315 
L 130.433607 -133.252101 
L 130.928462 -133.430188 
L 131.423317 -133.462222 
L 131.918172 -133.653316 
L 132.413027 -133.802419 
L 132.907882 -133.549029 
L 133.402737 -133.465556 
L 133.897592 -133.293822 
L 134.392448 -134.192559 
L 134.887303 -142.994811 
L 135.382158 -146.167937 
L 135.877013 -146.850773 
L 136.371868 -147.607659 
L 136.866723 -147.770317 
L 137.361578 -143.867987 
L 137.856433 -134.025398 
L 138.351288 -127.563288 
L 138.846143 -123.412651 
L 139.340999 -124.934352 
L 139.835854 -124.22357 
L 140.330709 -124.622309 
L 140.825564 -125.295558 
L 141.320419 -125.70648 
L 141.815274 -127.017972 
L 142.310129 -126.817446 
L 142.804984 -128.635354 
L 143.299839 -129.437782 
L 143.794694 -131.058035 
L 144.289549 -131.952483 
L 144.784405 -132.467048 
L 145.27926 -132.298002 
L 145.774115 -133.690059 
L 146.26897 -134.56542 
L 146.763825 -135.251659 
L 147.25868 -134.74523 
L 147.753535 -134.812059 
L 148.24839 -136.231052 
L 148.743245 -140.032983 
L 149.2381 -142.34996 
L 149.732955 -143.681103 
L 150.227811 -141.599344 
L 150.722666 -137.117319 
L 151.217521 -135.779462 
L 151.712376 -136.402148 
L 152.207231 -136.424198 
L 152.702086 -137.722539 
L 153.196941 -137.303072 
L 153.691796 -138.278922 
L 154.186651 -137.766726 
L 154.681506 -137.853738 
L 155.176362 -138.57905 
L 155.671217 -137.406284 
L 156.166072 -137.727197 
L 156.660927 -138.206303 
L 157.155782 -137.875692 
L 157.650637 -137.588625 
L 158.145492 -138.09195 
L 158.640347 -137.856653 
L 159.135202 -137.489267 
L 159.630057 -138.357903 
L 160.124912 -138.524064 
L 160.619768 -144.59948 
L 161.114623 -146.421419 
L 161.609478 -146.415432 
L 162.104333 -147.29428 
L 162.599188 -147.396089 
L 163.094043 -147.572049 
L 163.588898 -146.07331 
L 164.083753 -139.1278 
L 164.578608 -133.359129 
L 165.073463 -123.753016 
L 165.568318 -124.553639 
L 166.063174 -122.700865 
L 166.558029 -121.783312 
L 167.052884 -121.742724 
L 167.547739 -121.408596 
L 168.042594 -121.363785 
L 168.537449 -122.49674 
L 169.032304 -125.086355 
L 169.527159 -127.384829 
L 170.022014 -129.65983 
L 170.516869 -130.015863 
L 171.011724 -131.641806 
L 171.50658 -132.41303 
L 172.001435 -132.416543 
L 172.49629 -133.579498 
L 172.991145 -134.061722 
L 173.486 -134.918494 
L 173.980855 -142.008593 
L 174.47571 -144.282618 
L 174.970565 -142.219378 
L 175.46542 -142.796315 
L 175.960275 -139.303503 
L 176.455131 -138.329537 
L 176.949986 -137.849963 
L 177.444841 -137.419105 
L 177.939696 -137.849607 
L 178.434551 -138.507644 
L 178.929406 -139.151577 
L 179.424261 -139.582845 
L 179.919116 -139.527119 
L 180.413971 -139.655813 
L 180.908826 -139.87974 
L 181.403681 -140.130866 
L 181.898537 -139.510305 
L 182.393392 -139.131055 
L 182.888247 -139.134649 
L 183.383102 -138.633636 
L 183.877957 -137.673713 
L 184.372812 -137.973478 
L 184.867667 -137.957391 
L 185.362522 -140.317609 
L 185.857377 -143.586642 
L 186.352232 -145.833189 
L 186.847087 -146.51257 
L 187.341943 -145.881493 
L 187.836798 -143.608446 
L 188.331653 -137.610286 
L 188.826508 -133.778064 
L 189.321363 -126.064128 
L 189.816218 -127.907947 
L 190.311073 -125.081745 
L 190.805928 -127.702954 
L 191.300783 -123.061626 
L 191.795638 -123.022378 
L 192.290493 -124.217746 
L 192.785349 -122.881917 
L 193.280204 -123.460074 
L 193.775059 -122.872311 
L 194.269914 -123.087133 
L 194.764769 -122.457991 
L 195.259624 -121.365086 
L 195.754479 -128.414013 
L 196.249334 -141.909994 
L 196.744189 -136.638619 
L 197.239044 -134.7719 
L 197.7339 -143.763322 
L 198.228755 -146.527892 
L 198.72361 -147.223364 
L 199.218465 -147.511635 
L 199.71332 -147.715542 
L 200.208175 -147.137491 
L 200.70303 -144.21121 
L 201.197885 -140.039239 
L 201.69274 -129.806033 
L 202.187595 -127.566513 
L 202.68245 -124.801309 
L 203.177306 -133.276903 
L 203.672161 -139.461461 
L 204.167016 -143.271181 
L 204.661871 -142.367491 
L 205.156726 -137.933786 
L 205.651581 -134.084412 
L 206.146436 -132.069524 
L 206.641291 -132.180283 
L 207.136146 -133.361967 
L 207.631001 -133.093759 
L 208.125856 -132.500854 
L 208.620712 -132.953811 
L 209.115567 -133.980598 
L 209.610422 -133.430272 
L 210.105277 -133.075886 
L 210.600132 -133.442366 
L 211.094987 -134.410236 
L 211.589842 -135.628524 
L 212.084697 -135.696299 
L 212.579552 -136.060823 
L 213.074407 -136.8427 
L 213.569263 -136.961326 
L 214.064118 -138.444663 
L 214.558973 -138.354648 
L 215.053828 -139.261485 
L 215.548683 -138.581311 
L 216.043538 -138.755453 
L 216.538393 -139.163214 
L 217.033248 -138.966103 
L 217.528103 -143.429037 
L 218.022958 -145.064211 
L 218.517813 -146.537794 
L 219.012669 -147.144976 
L 219.507524 -147.259909 
L 220.002379 -147.402775 
L 220.497234 -147.317728 
L 220.992089 -147.592167 
L 221.486944 -147.572864 
L 221.981799 -147.669985 
L 222.476654 -147.720202 
L 222.971509 -147.597038 
L 223.466364 -147.759233 
L 223.961219 -147.691601 
L 224.456075 -146.017729 
L 224.95093 -137.49756 
L 225.445785 -131.057007 
L 225.94064 -130.16548 
L 226.435495 -125.891302 
L 226.93035 -130.138256 
L 227.425205 -126.421267 
L 227.92006 -130.465107 
L 228.414915 -134.044863 
L 228.90977 -141.389307 
L 229.404625 -145.385674 
L 229.899481 -145.685573 
L 230.394336 -143.552597 
L 230.889191 -138.126469 
L 231.384046 -136.683999 
L 231.878901 -135.315329 
L 232.373756 -135.823328 
L 232.868611 -135.956887 
L 233.363466 -138.388197 
L 233.858321 -138.730224 
L 234.353176 -140.526043 
L 234.848032 -142.174037 
L 235.342887 -144.604799 
L 235.837742 -143.18257 
L 236.332597 -142.361349 
L 236.827452 -140.270642 
L 237.322307 -140.210839 
L 237.817162 -139.746673 
L 238.312017 -139.520015 
L 238.806872 -139.933733 
L 239.301727 -140.885515 
L 239.796582 -140.994522 
L 240.291438 -141.390538 
L 240.786293 -141.23764 
L 241.281148 -141.261086 
L 241.776003 -142.056539 
L 242.270858 -141.960717 
L 242.765713 -143.681761 
L 243.260568 -141.402394 
L 243.755423 -142.213861 
L 244.250278 -143.175297 
L 244.745133 -141.771644 
L 245.239988 -141.679732 
L 245.734844 -142.735099 
L 246.229699 -141.249227 
L 246.724554 -140.890591 
L 247.219409 -140.395424 
L 247.714264 -139.953982 
L 248.209119 -139.705808 
L 248.703974 -139.298392 
L 249.198829 -138.216615 
L 249.693684 -138.439335 
L 250.188539 -137.99932 
L 250.683395 -138.010369 
L 251.17825 -138.215988 
L 251.673105 -138.116827 
L 252.16796 -138.627753 
L 252.662815 -139.301345 
L 253.15767 -139.304857 
L 253.652525 -139.355676 
L 254.14738 -139.601334 
L 254.642235 -139.845153 
L 255.13709 -140.752775 
L 255.631945 -141.062071 
L 256.126801 -141.338145 
L 256.621656 -142.202611 
L 257.116511 -142.548152 
L 257.611366 -143.31412 
L 258.106221 -143.467734 
L 258.601076 -143.544221 
L 259.095931 -143.497145 
L 259.590786 -143.818004 
L 260.085641 -146.192424 
L 260.580496 -147.267989 
L 261.075351 -147.698167 
L 261.570207 -148.038956 
L 262.065062 -148.18045 
L 262.559917 -148.196039 
L 263.054772 -148.15455 
L 263.549627 -148.169011 
L 264.044482 -148.181165 
L 264.539337 -148.09329 
L 265.034192 -148.062135 
L 265.529047 -148.015368 
L 266.023902 -148.118835 
L 266.518757 -148.112169 
L 267.013613 -148.103217 
L 267.508468 -148.201268 
L 268.003323 -148.176841 
L 268.498178 -148.1578 
L 268.993033 -148.132496 
L 269.487888 -148.160902 
L 269.982743 -148.047083 
L 270.477598 -148.152693 
L 270.972453 -146.044183 
L 271.467308 -143.370388 
L 271.962164 -129.793168 
L 272.457019 -129.260727 
L 272.951874 -121.399619 
L 273.446729 -123.595187 
L 273.941584 -126.146662 
L 274.436439 -125.683365 
L 274.931294 -125.533409 
L 275.426149 -126.014204 
L 275.921004 -127.271114 
L 276.415859 -127.680009 
L 276.910714 -127.868775 
L 277.40557 -128.076463 
L 277.900425 -127.559036 
L 278.39528 -127.668326 
L 278.890135 -128.775804 
L 279.38499 -129.97488 
L 279.879845 -131.098521 
L 280.3747 -130.918442 
L 280.869555 -131.024348 
L 281.36441 -131.884114 
L 281.859265 -131.919012 
L 282.35412 -132.85277 
L 282.848976 -133.40585 
L 283.343831 -136.800352 
L 283.838686 -140.29785 
L 284.333541 -145.367433 
L 284.828396 -146.319525 
L 285.323251 -146.945693 
L 285.818106 -147.274268 
L 286.312961 -147.4863 
L 286.807816 -147.702897 
L 287.302671 -147.569909 
L 287.797527 -147.721099 
L 288.292382 -147.525022 
L 288.787237 -147.529207 
L 289.282092 -147.616048 
L 289.776947 -147.623517 
L 290.271802 -148.031629 
L 290.766657 -147.929992 
L 291.261512 -147.859993 
L 291.756367 -147.843848 
L 292.251222 -147.895248 
L 292.746077 -147.881214 
L 293.240933 -147.973998 
L 293.735788 -148.074708 
L 294.230643 -148.014154 
L 294.725498 -148.096043 
L 295.220353 -147.256363 
L 295.715208 -143.360484 
L 296.210063 -137.9948 
L 296.704918 -136.209789 
L 297.199773 -135.091927 
L 297.694628 -134.036895 
L 298.189483 -133.277129 
L 298.684339 -132.479451 
L 299.179194 -132.569119 
L 299.674049 -133.047489 
L 300.168904 -132.464994 
L 300.663759 -132.526751 
L 301.158614 -132.770245 
L 301.653469 -131.660877 
L 302.148324 -131.325115 
L 302.643179 -130.923845 
L 303.138034 -129.944383 
L 303.632889 -129.312963 
L 304.127745 -129.493698 
L 304.6226 -129.930515 
L 305.117455 -130.681342 
L 305.61231 -131.38251 
L 306.107165 -131.778438 
L 306.60202 -131.856417 
L 307.096875 -133.048487 
L 307.59173 -133.923039 
L 308.086585 -135.642545 
L 308.58144 -139.835417 
L 309.076296 -140.756412 
L 309.571151 -140.227141 
L 310.066006 -136.927055 
L 310.560861 -137.205022 
L 311.055716 -134.567291 
L 311.550571 -133.044649 
L 312.045426 -132.095589 
L 312.540281 -133.39499 
L 313.035136 -131.860141 
L 313.529991 -131.037337 
L 314.024846 -132.634877 
L 314.519702 -133.479921 
L 315.014557 -134.543334 
L 315.509412 -134.866039 
L 316.004267 -134.805662 
L 316.499122 -134.672824 
L 316.993977 -134.52694 
L 317.488832 -134.860587 
L 317.983687 -135.682433 
L 318.478542 -135.857397 
L 318.973397 -136.456114 
L 319.468252 -136.379128 
L 319.963108 -136.123537 
L 320.457963 -135.951027 
L 320.952818 -135.876212 
L 321.447673 -136.258182 
L 321.942528 -136.502946 
L 322.437383 -136.786029 
L 322.932238 -137.582651 
L 323.427093 -137.795657 
L 323.921948 -137.703421 
L 324.416803 -138.695904 
L 324.911659 -138.863904 
L 325.406514 -139.120743 
L 325.901369 -139.443153 
L 326.396224 -139.486235 
L 326.891079 -139.25697 
L 327.385934 -139.561157 
L 327.880789 -139.088632 
L 328.375644 -138.936999 
L 328.870499 -139.081293 
L 329.365354 -139.077565 
L 329.860209 -139.131252 
L 330.355065 -139.051311 
L 330.84992 -139.121256 
L 331.344775 -138.963883 
L 331.83963 -139.620111 
L 332.334485 -139.525904 
L 332.82934 -139.582134 
L 333.324195 -140.013495 
L 333.81905 -140.100364 
L 334.313905 -140.19004 
L 334.80876 -140.226485 
L 335.303615 -140.645795 
L 335.798471 -140.564335 
L 336.293326 -140.864368 
L 336.788181 -140.837223 
L 337.283036 -140.861834 
L 337.777891 -141.205812 
L 338.272746 -141.352019 
L 338.767601 -141.426232 
L 339.262456 -141.912331 
L 339.757311 -142.00092 
L 340.252166 -142.243024 
L 340.747021 -142.36967 
L 341.241877 -142.375872 
L 341.736732 -142.537526 
L 342.231587 -143.325363 
L 342.726442 -143.893755 
L 343.221297 -144.485271 
L 343.716152 -145.54336 
L 344.211007 -145.906489 
L 344.705862 -146.00314 
L 345.200717 -147.280395 
L 345.695572 -147.182102 
L 346.190428 -147.619719 
L 346.685283 -147.830902 
L 347.180138 -148.016755 
L 347.674993 -148.088352 
L 348.169848 -148.136684 
L 348.664703 -148.144523 
L 349.159558 -148.144423 
L 349.654413 -148.212513 
L 350.149268 -148.123192 
L 350.644123 -148.231918 
L 351.138978 -148.172078 
L 351.633834 -148.131183 
L 352.128689 -148.252335 
L 352.623544 -148.310237 
L 353.118399 -148.223236 
L 353.613254 -148.175929 
L 354.108109 -148.223474 
L 354.602964 -148.15465 
L 355.097819 -148.118376 
L 355.592674 -148.219494 
L 356.087529 -148.120427 
L 356.582384 -148.216827 
L 357.07724 -148.18008 
L 357.572095 -148.207327 
L 358.06695 -148.19211 
L 358.561805 -148.201059 
L 359.05666 -148.216727 
L 359.551515 -148.231944 
L 360.04637 -148.226336 
L 360.541225 -148.227707 
L 361.03608 -148.206441 
L 361.530935 -148.205675 
L 362.025791 -148.209137 
L 362.520646 -148.191138 
L 363.015501 -148.219591 
L 363.510356 -148.187746 
L 364.005211 -148.197626 
L 364.500066 -148.209947 
L 364.994921 -148.244137 
L 365.489776 -148.266842 
L 365.984631 -148.287238 
L 366.479486 -148.296408 
L 366.974341 -148.282123 
L 367.469197 -148.27294 
L 367.964052 -148.306089 
L 368.458907 -148.308886 
L 368.953762 -148.344613 
L 369.448617 -148.342301 
L 369.943472 -148.353057 
L 370.438327 -148.358243 
L 370.933182 -148.35779 
L 371.428037 -148.379031 
L 371.922892 -148.387298 
L 372.417747 -148.400553 
L 372.912603 -148.429977 
L 373.407458 -148.43046 
L 373.902313 -148.443626 
L 374.397168 -148.438604 
L 374.892023 -148.442129 
L 375.386878 -148.459689 
L 375.881733 -148.457565 
L 376.376588 -148.457504 
L 376.871443 -148.435384 
L 377.366298 -148.437599 
L 377.861153 -148.437597 
L 378.356009 -148.439125 
L 378.850864 -148.451211 
L 379.345719 -148.447866 
L 379.840574 -148.438617 
L 380.335429 -148.441078 
L 380.830284 -148.435658 
L 381.325139 -148.436218 
L 381.819994 -148.435407 
L 382.314849 -148.423536 
L 382.809704 -148.426661 
L 383.30456 -148.426665 
L 383.799415 -148.422978 
L 384.29427 -148.42845 
L 384.789125 -148.421587 
L 385.28398 -148.428376 
L 385.778835 -148.434122 
L 386.27369 -148.430208 
L 386.768545 -148.430159 
L 387.2634 -148.431972 
L 387.758255 -148.435305 
L 388.25311 -148.434063 
L 388.747966 -148.436483 
L 389.242821 -148.447052 
L 389.737676 -148.439324 
L 390.232531 -148.446333 
L 390.727386 -148.44273 
L 391.222241 -148.434437 
L 391.717096 -148.444285 
L 392.211951 -148.428661 
L 392.706806 -148.445523 
L 393.201661 -148.443688 
L 393.696516 -148.454687 
L 394.191372 -148.457464 
L 394.686227 -148.447142 
L 395.181082 -148.46427 
L 395.675937 -148.454032 
L 396.170792 -148.470085 
L 396.665647 -148.45665 
L 397.160502 -148.465397 
L 397.655357 -148.461947 
L 398.150212 -148.462904 
L 398.645067 -148.472693 
L 399.139923 -148.467146 
L 399.634778 -148.467955 
L 400.129633 -148.465654 
L 400.624488 -148.468858 
L 401.119343 -148.470249 
L 401.614198 -148.470923 
L 402.109053 -148.478996 
L 402.603908 -148.481404 
L 403.098763 -148.486914 
L 403.593618 -148.487749 
L 404.088473 -148.486781 
L 404.583329 -148.48221 
L 405.078184 -148.477641 
L 405.573039 -148.478492 
L 406.067894 -148.48106 
L 406.562749 -148.481897 
L 407.057604 -148.483928 
L 407.552459 -148.482123 
L 408.047314 -148.482994 
L 408.542169 -148.48248 
L 409.037024 -148.481221 
L 409.531879 -148.486708 
L 410.026735 -148.484042 
L 410.52159 -148.489629 
L 411.016445 -148.489549 
L 411.5113 -148.490068 
L 412.006155 -148.490744 
L 412.50101 -148.492321 
L 412.995865 -148.494112 
L 413.49072 -148.49216 
L 413.985575 -148.491412 
L 414.48043 -148.485319 
L 414.975285 -148.486911 
L 415.470141 -148.485669 
L 415.964996 -148.487941 
L 416.459851 -148.489847 
L 416.954706 -148.491287 
L 417.449561 -148.494298 
L 417.944416 -148.493515 
L 418.439271 -148.492145 
L 418.934126 -148.493669 
L 419.428981 -148.49242 
L 419.923836 -148.494498 
L 420.418692 -148.495133 
L 420.913547 -148.493798 
L 421.408402 -148.493795 
L 421.903257 -148.493682 
L 422.398112 -148.492641 
L 422.892967 -148.492352 
L 423.387822 -148.494988 
L 423.882677 -148.494087 
L 424.377532 -148.494026 
L 424.872387 -148.494821 
L 425.367242 -148.493185 
L 425.862098 -148.494947 
L 426.356953 -148.494441 
L 426.851808 -148.493405 
L 427.346663 -148.494048 
L 427.841518 -148.491985 
L 428.336373 -148.495604 
L 428.831228 -148.492998 
L 429.326083 -148.493692 
L 429.820938 -148.493492 
L 430.315793 -148.493322 
L 430.810648 -148.495791 
L 431.305504 -148.494113 
L 431.800359 -148.495815 
L 432.295214 -148.494282 
L 432.790069 -148.494587 
L 433.284924 -148.493559 
L 433.779779 -148.494463 
L 434.274634 -148.495316 
L 434.769489 -148.493741 
L 435.264344 -148.495528 
L 435.759199 -148.494556 
L 436.254055 -148.4944 
L 436.74891 -148.493911 
L 437.243765 -148.494546 
L 437.73862 -148.493963 
L 438.233475 -148.494226 
L 438.72833 -148.493793 
L 439.223185 -148.493775 
L 439.71804 -148.493136 
L 440.212895 -148.49449 
L 440.70775 -148.494824 
L 441.202605 -148.4957 
L 441.697461 -148.495645 
L 442.192316 -148.49555 
L 442.687171 -148.495395 
L 443.182026 -148.496076 
L 443.676881 -148.495884 
L 444.171736 -148.496374 
L 444.666591 -148.496705 
L 445.161446 -148.496804 
L 445.656301 -148.496392 
L 446.151156 -148.496692 
L 446.646011 -148.496462 
L 447.140867 -148.495374 
L 447.635722 -148.495819 
L 448.130577 -148.496487 
L 448.625432 -148.495402 
L 449.120287 -148.496136 
L 449.615142 -148.496117 
L 450.109997 -148.496051 
L 450.604852 -148.496894 
L 451.099707 -148.496144 
L 451.594562 -148.497067 
L 452.089417 -148.496728 
L 452.584273 -148.496856 
L 453.079128 -148.497064 
L 453.573983 -148.496904 
L 454.068838 -148.497063 
L 454.563693 -148.497202 
L 455.058548 -148.497093 
L 455.553403 -148.497297 
L 456.048258 -148.497668 
L 456.543113 -148.497055 
L 457.037968 -148.497289 
L 457.532824 -148.49775 
L 458.027679 -148.497429 
L 458.522534 -148.497218 
L 459.017389 -148.498089 
L 459.512244 -148.498049 
L 460.007099 -148.498312 
L 460.501954 -148.498415 
L 460.996809 -148.498162 
L 461.491664 -148.497349 
L 461.986519 -148.498108 
L 462.481374 -148.497769 
L 462.97623 -148.498166 
L 463.471085 -148.497709 
L 463.96594 -148.497518 
L 464.460795 -148.497607 
L 464.95565 -148.497938 
L 465.450505 -148.498166 
L 465.94536 -148.498418 
L 466.440215 -148.498067 
L 466.93507 -148.498874 
L 467.429925 -148.49834 
L 467.92478 -148.497815 
L 468.419636 -148.497845 
L 468.914491 -148.498751 
L 469.409346 -148.498045 
L 469.904201 -148.498156 
L 470.399056 -148.498697 
L 470.893911 -148.498115 
L 471.388766 -148.498508 
L 471.883621 -148.49834 
L 472.378476 -148.498305 
L 472.873331 -148.498321 
L 473.368187 -148.498237 
L 473.863042 -148.498026 
L 474.357897 -148.498208 
L 474.852752 -148.49825 
L 475.347607 -148.498008 
L 475.842462 -148.498494 
L 476.337317 -148.498457 
L 476.832172 -148.498444 
L 477.327027 -148.497838 
L 477.821882 -148.498033 
L 478.316737 -148.49833 
L 478.811593 -148.498212 
L 479.306448 -148.498332 
L 479.801303 -148.497687 
L 480.296158 -148.498331 
L 480.791013 -148.498097 
L 481.285868 -148.498172 
L 481.780723 -148.498171 
L 482.275578 -148.498652 
L 482.770433 -148.498264 
L 483.265288 -148.497838 
L 483.760143 -148.498332 
L 484.254999 -148.498171 
L 484.749854 -148.497565 
L 485.244709 -148.498226 
L 485.739564 -148.497649 
L 486.234419 -148.49851 
L 486.729274 -148.49834 
L 487.224129 -148.498716 
L 487.718984 -148.496964 
L 488.213839 -148.498413 
L 488.708694 -148.498519 
L 489.203549 -148.498417 
L 489.698405 -148.498453 
L 490.19326 -148.49869 
L 490.688115 -148.498098 
L 491.18297 -148.498648 
L 491.677825 -148.498603 
L 492.17268 -148.498756 
L 492.667535 -148.498018 
L 493.16239 -148.498298 
L 493.657245 -148.498252 
L 494.1521 -148.498039 
L 494.646956 -148.49849 
L 495.141811 -148.498584 
L 495.636666 -148.498403 
L 496.131521 -148.498114 
L 496.626376 -148.498448 
L 497.121231 -148.498505 
L 497.616086 -148.498397 
L 498.110941 -148.498173 
L 498.605796 -148.49851 
L 499.100651 -148.498413 
L 499.595506 -148.49806 
L 500.090362 -148.498616 
L 500.585217 -148.498732 
L 501.080072 -148.498268 
L 501.574927 -148.498552 
L 502.069782 -148.498323 
L 502.564637 -148.498338 
L 503.059492 -148.498323 
L 503.554347 -148.499064 
L 504.049202 -148.499039 
L 504.544057 -148.499009 
L 505.038912 -148.49842 
L 505.533768 -148.498802 
L 506.028623 -148.499077 
L 506.523478 -148.498829 
L 507.018333 -148.498968 
L 507.513188 -148.498837 
L 508.008043 -148.498798 
L 508.502898 -148.499038 
L 508.997753 -148.499047 
L 509.492608 -148.498945 
L 509.987463 -148.498756 
L 510.482319 -148.499106 
L 510.977174 -148.499112 
L 511.472029 -148.499104 
L 511.966884 -148.498944 
L 512.461739 -148.49905 
L 512.956594 -148.499083 
L 513.451449 -148.498158 
L 513.946304 -148.498737 
L 514.441159 -148.498753 
L 514.936014 -148.499042 
L 515.430869 -148.498884 
L 515.925725 -148.498952 
L 516.42058 -148.498672 
L 516.915435 -148.498664 
L 517.41029 -148.498817 
L 517.905145 -148.5 
L 517.905145 -148.5 
L 517.905145 -148.5 
L 517.41029 -148.501042 
L 516.915435 -148.501114 
L 516.42058 -148.500951 
L 515.925725 -148.50089 
L 515.430869 -148.500978 
L 514.936014 -148.501216 
L 514.441159 -148.500958 
L 513.946304 -148.501023 
L 513.451449 -148.501402 
L 512.956594 -148.501159 
L 512.461739 -148.500771 
L 511.966884 -148.501107 
L 511.472029 -148.501141 
L 510.977174 -148.500827 
L 510.482319 -148.500938 
L 509.987463 -148.50109 
L 509.492608 -148.501181 
L 508.997753 -148.500933 
L 508.502898 -148.500994 
L 508.008043 -148.501043 
L 507.513188 -148.501307 
L 507.018333 -148.501144 
L 506.523478 -148.500834 
L 506.028623 -148.501132 
L 505.533768 -148.501116 
L 505.038912 -148.501158 
L 504.544057 -148.501166 
L 504.049202 -148.501077 
L 503.554347 -148.500993 
L 503.059492 -148.501208 
L 502.564637 -148.502098 
L 502.069782 -148.50164 
L 501.574927 -148.501562 
L 501.080072 -148.501495 
L 500.585217 -148.501605 
L 500.090362 -148.501436 
L 499.595506 -148.501713 
L 499.100651 -148.501435 
L 498.605796 -148.501604 
L 498.110941 -148.501915 
L 497.616086 -148.501737 
L 497.121231 -148.501604 
L 496.626376 -148.501482 
L 496.131521 -148.502077 
L 495.636666 -148.50119 
L 495.141811 -148.501366 
L 494.646956 -148.501495 
L 494.1521 -148.501866 
L 493.657245 -148.501642 
L 493.16239 -148.501854 
L 492.667535 -148.501455 
L 492.17268 -148.501838 
L 491.677825 -148.501791 
L 491.18297 -148.501433 
L 490.688115 -148.502167 
L 490.19326 -148.501398 
L 489.698405 -148.50142 
L 489.203549 -148.501841 
L 488.708694 -148.502186 
L 488.213839 -148.501895 
L 487.718984 -148.50159 
L 487.224129 -148.501598 
L 486.729274 -148.501501 
L 486.234419 -148.501325 
L 485.739564 -148.501329 
L 485.244709 -148.501517 
L 484.749854 -148.502249 
L 484.254999 -148.501269 
L 483.760143 -148.501257 
L 483.265288 -148.502174 
L 482.770433 -148.501823 
L 482.275578 -148.501686 
L 481.780723 -148.501078 
L 481.285868 -148.50169 
L 480.791013 -148.501818 
L 480.296158 -148.50206 
L 479.801303 -148.501685 
L 479.306448 -148.501577 
L 478.811593 -148.501453 
L 478.316737 -148.501501 
L 477.821882 -148.502878 
L 477.327027 -148.501669 
L 476.832172 -148.50192 
L 476.337317 -148.501423 
L 475.842462 -148.501353 
L 475.347607 -148.502037 
L 474.852752 -148.501727 
L 474.357897 -148.501753 
L 473.863042 -148.501845 
L 473.368187 -148.501763 
L 472.873331 -148.501654 
L 472.378476 -148.50209 
L 471.883621 -148.501564 
L 471.388766 -148.501933 
L 470.893911 -148.5018 
L 470.399056 -148.502346 
L 469.904201 -148.501863 
L 469.409346 -148.501148 
L 468.914491 -148.502411 
L 468.419636 -148.501594 
L 467.92478 -148.502005 
L 467.429925 -148.501785 
L 466.93507 -148.501626 
L 466.440215 -148.501915 
L 465.94536 -148.50163 
L 465.450505 -148.501649 
L 464.95565 -148.502233 
L 464.460795 -148.503304 
L 463.96594 -148.50277 
L 463.471085 -148.501912 
L 462.97623 -148.501721 
L 462.481374 -148.501724 
L 461.986519 -148.501763 
L 461.491664 -148.502495 
L 460.996809 -148.501807 
L 460.501954 -148.502014 
L 460.007099 -148.502233 
L 459.512244 -148.502215 
L 459.017389 -148.502459 
L 458.522534 -148.502693 
L 458.027679 -148.502038 
L 457.532824 -148.50207 
L 457.037968 -148.502161 
L 456.543113 -148.502249 
L 456.048258 -148.502548 
L 455.553403 -148.502995 
L 455.058548 -148.50253 
L 454.563693 -148.502714 
L 454.068838 -148.502699 
L 453.573983 -148.502703 
L 453.079128 -148.502573 
L 452.584273 -148.502097 
L 452.089417 -148.502624 
L 451.594562 -148.502473 
L 451.099707 -148.503225 
L 450.604852 -148.502417 
L 450.109997 -148.502522 
L 449.615142 -148.504075 
L 449.120287 -148.502721 
L 448.625432 -148.503196 
L 448.130577 -148.502948 
L 447.635722 -148.503221 
L 447.140867 -148.503321 
L 446.646011 -148.503769 
L 446.151156 -148.503455 
L 445.656301 -148.503313 
L 445.161446 -148.502915 
L 444.666591 -148.5032 
L 444.171736 -148.503002 
L 443.676881 -148.503212 
L 443.182026 -148.504106 
L 442.687171 -148.502862 
L 442.192316 -148.50397 
L 441.697461 -148.503786 
L 441.202605 -148.504696 
L 440.70775 -148.503841 
L 440.212895 -148.503458 
L 439.71804 -148.504714 
L 439.223185 -148.503969 
L 438.72833 -148.503929 
L 438.233475 -148.504035 
L 437.73862 -148.504643 
L 437.243765 -148.50484 
L 436.74891 -148.504204 
L 436.254055 -148.504944 
L 435.759199 -148.504749 
L 435.264344 -148.504712 
L 434.769489 -148.5054 
L 434.274634 -148.5059 
L 433.779779 -148.504552 
L 433.284924 -148.505728 
L 432.790069 -148.504786 
L 432.295214 -148.505477 
L 431.800359 -148.504219 
L 431.305504 -148.504906 
L 430.810648 -148.504463 
L 430.315793 -148.506549 
L 429.820938 -148.505119 
L 429.326083 -148.505762 
L 428.831228 -148.506976 
L 428.336373 -148.504878 
L 427.841518 -148.505794 
L 427.346663 -148.505321 
L 426.851808 -148.505884 
L 426.356953 -148.506665 
L 425.862098 -148.507214 
L 425.367242 -148.508165 
L 424.872387 -148.506056 
L 424.377532 -148.509177 
L 423.882677 -148.507786 
L 423.387822 -148.510698 
L 422.892967 -148.510193 
L 422.398112 -148.509334 
L 421.903257 -148.510043 
L 421.408402 -148.507457 
L 420.913547 -148.507364 
L 420.418692 -148.505086 
L 419.923836 -148.504473 
L 419.428981 -148.506206 
L 418.934126 -148.506213 
L 418.439271 -148.507835 
L 417.944416 -148.510103 
L 417.449561 -148.509507 
L 416.954706 -148.51311 
L 416.459851 -148.514353 
L 415.964996 -148.514985 
L 415.470141 -148.51374 
L 414.975285 -148.514714 
L 414.48043 -148.513793 
L 413.985575 -148.513187 
L 413.49072 -148.511963 
L 412.995865 -148.510131 
L 412.50101 -148.505933 
L 412.006155 -148.507932 
L 411.5113 -148.504809 
L 411.016445 -148.507311 
L 410.52159 -148.506825 
L 410.026735 -148.507929 
L 409.531879 -148.509254 
L 409.037024 -148.50933 
L 408.542169 -148.513228 
L 408.047314 -148.51176 
L 407.552459 -148.512287 
L 407.057604 -148.512573 
L 406.562749 -148.515398 
L 406.067894 -148.516895 
L 405.573039 -148.517635 
L 405.078184 -148.517186 
L 404.583329 -148.518755 
L 404.088473 -148.519942 
L 403.593618 -148.517895 
L 403.098763 -148.520273 
L 402.603908 -148.51815 
L 402.109053 -148.520761 
L 401.614198 -148.522889 
L 401.119343 -148.519979 
L 400.624488 -148.522165 
L 400.129633 -148.523472 
L 399.634778 -148.523973 
L 399.139923 -148.531798 
L 398.645067 -148.531707 
L 398.150212 -148.53854 
L 397.655357 -148.531703 
L 397.160502 -148.538651 
L 396.665647 -148.531843 
L 396.170792 -148.533471 
L 395.675937 -148.535527 
L 395.181082 -148.534787 
L 394.686227 -148.552903 
L 394.191372 -148.544212 
L 393.696516 -148.548706 
L 393.201661 -148.549972 
L 392.706806 -148.559121 
L 392.211951 -148.560956 
L 391.717096 -148.559205 
L 391.222241 -148.566868 
L 390.727386 -148.562614 
L 390.232531 -148.55909 
L 389.737676 -148.563987 
L 389.242821 -148.557633 
L 388.747966 -148.564191 
L 388.25311 -148.554459 
L 387.758255 -148.551756 
L 387.2634 -148.545097 
L 386.768545 -148.548733 
L 386.27369 -148.554272 
L 385.778835 -148.554259 
L 385.28398 -148.555415 
L 384.789125 -148.560366 
L 384.29427 -148.553661 
L 383.799415 -148.545567 
L 383.30456 -148.551063 
L 382.809704 -148.556876 
L 382.314849 -148.555444 
L 381.819994 -148.560653 
L 381.325139 -148.566625 
L 380.830284 -148.579389 
L 380.335429 -148.564855 
L 379.840574 -148.570286 
L 379.345719 -148.567594 
L 378.850864 -148.562983 
L 378.356009 -148.571773 
L 377.861153 -148.580377 
L 377.366298 -148.587566 
L 376.871443 -148.59003 
L 376.376588 -148.594072 
L 375.881733 -148.587403 
L 375.386878 -148.588276 
L 374.892023 -148.581811 
L 374.397168 -148.555212 
L 373.902313 -148.566818 
L 373.407458 -148.594367 
L 372.912603 -148.612894 
L 372.417747 -148.636617 
L 371.922892 -148.642056 
L 371.428037 -148.670842 
L 370.933182 -148.689074 
L 370.438327 -148.688862 
L 369.943472 -148.726511 
L 369.448617 -148.716387 
L 368.953762 -148.727088 
L 368.458907 -148.730751 
L 367.964052 -148.742603 
L 367.469197 -148.754618 
L 366.974341 -148.720553 
L 366.479486 -148.728624 
L 365.984631 -148.753426 
L 365.489776 -148.753892 
L 364.994921 -148.742888 
L 364.500066 -148.756045 
L 364.005211 -148.76429 
L 363.510356 -148.777906 
L 363.015501 -148.776039 
L 362.520646 -148.753476 
L 362.025791 -148.799907 
L 361.530935 -148.856686 
L 361.03608 -148.912176 
L 360.541225 -148.929203 
L 360.04637 -148.931494 
L 359.551515 -148.915929 
L 359.05666 -148.872842 
L 358.561805 -148.844456 
L 358.06695 -148.832257 
L 357.572095 -148.800908 
L 357.07724 -148.83768 
L 356.582384 -148.805554 
L 356.087529 -148.809891 
L 355.592674 -148.80523 
L 355.097819 -148.810762 
L 354.602964 -148.865219 
L 354.108109 -148.80358 
L 353.613254 -148.880348 
L 353.118399 -148.78801 
L 352.623544 -148.832942 
L 352.128689 -148.881074 
L 351.633834 -148.913204 
L 351.138978 -148.976287 
L 350.644123 -149.012623 
L 350.149268 -148.995164 
L 349.654413 -149.080614 
L 349.159558 -149.124155 
L 348.664703 -149.122067 
L 348.169848 -149.237293 
L 347.674993 -149.133163 
L 347.180138 -148.988886 
L 346.685283 -149.038664 
L 346.190428 -149.358072 
L 345.695572 -149.297701 
L 345.200717 -149.481159 
L 344.705862 -150.254572 
L 344.211007 -150.169467 
L 343.716152 -150.802333 
L 343.221297 -151.030688 
L 342.726442 -151.148107 
L 342.231587 -151.530916 
L 341.736732 -152.442652 
L 341.241877 -152.661192 
L 340.747021 -152.564531 
L 340.252166 -152.716755 
L 339.757311 -152.730445 
L 339.262456 -153.002349 
L 338.767601 -153.06505 
L 338.272746 -153.254369 
L 337.777891 -153.309651 
L 337.283036 -153.703875 
L 336.788181 -153.763349 
L 336.293326 -153.784545 
L 335.798471 -153.939313 
L 335.303615 -153.627182 
L 334.80876 -153.935054 
L 334.313905 -154.103942 
L 333.81905 -153.659572 
L 333.324195 -154.187107 
L 332.82934 -154.02616 
L 332.334485 -154.236832 
L 331.83963 -154.190424 
L 331.344775 -154.445315 
L 330.84992 -154.365338 
L 330.355065 -154.098539 
L 329.860209 -154.360343 
L 329.365354 -154.452149 
L 328.870499 -154.658493 
L 328.375644 -154.868268 
L 327.880789 -154.355564 
L 327.385934 -154.504752 
L 326.891079 -154.230622 
L 326.396224 -154.647724 
L 325.901369 -154.317852 
L 325.406514 -154.830462 
L 324.911659 -154.91128 
L 324.416803 -155.413031 
L 323.921948 -155.771779 
L 323.427093 -155.794272 
L 322.932238 -156.230704 
L 322.437383 -155.608888 
L 321.942528 -156.336991 
L 321.447673 -156.090227 
L 320.952818 -156.452564 
L 320.457963 -156.370535 
L 319.963108 -155.69865 
L 319.468252 -155.759703 
L 318.973397 -155.564185 
L 318.478542 -155.825967 
L 317.983687 -155.588743 
L 317.488832 -156.582035 
L 316.993977 -156.983931 
L 316.499122 -156.83974 
L 316.004267 -157.461777 
L 315.509412 -157.496734 
L 315.014557 -157.382459 
L 314.519702 -157.069943 
L 314.024846 -156.830526 
L 313.529991 -157.201752 
L 313.035136 -154.934628 
L 312.540281 -153.530456 
L 312.045426 -153.533804 
L 311.550571 -153.688852 
L 311.055716 -153.822939 
L 310.560861 -151.730168 
L 310.066006 -152.69113 
L 309.571151 -153.184084 
L 309.076296 -154.380934 
L 308.58144 -153.200698 
L 308.086585 -157.079091 
L 307.59173 -158.191926 
L 307.096875 -157.91955 
L 306.60202 -158.742412 
L 306.107165 -160.04035 
L 305.61231 -160.322428 
L 305.117455 -161.065062 
L 304.6226 -162.128168 
L 304.127745 -162.120349 
L 303.632889 -161.860855 
L 303.138034 -161.295059 
L 302.643179 -159.869257 
L 302.148324 -158.550836 
L 301.653469 -157.887759 
L 301.158614 -156.948867 
L 300.663759 -157.30844 
L 300.168904 -156.288587 
L 299.674049 -157.400317 
L 299.179194 -156.746315 
L 298.684339 -157.665896 
L 298.189483 -156.788045 
L 297.694628 -157.448619 
L 297.199773 -155.693183 
L 296.704918 -156.886083 
L 296.210063 -153.778275 
L 295.715208 -151.569608 
L 295.220353 -150.03796 
L 294.725498 -148.93796 
L 294.230643 -149.011778 
L 293.735788 -149.135413 
L 293.240933 -149.294087 
L 292.746077 -149.346669 
L 292.251222 -149.296314 
L 291.756367 -149.233711 
L 291.261512 -149.25754 
L 290.766657 -149.115892 
L 290.271802 -149.130953 
L 289.776947 -149.123045 
L 289.282092 -149.086035 
L 288.787237 -149.268487 
L 288.292382 -149.642682 
L 287.797527 -149.593972 
L 287.302671 -149.505055 
L 286.807816 -149.623739 
L 286.312961 -149.736942 
L 285.818106 -150.026004 
L 285.323251 -150.055275 
L 284.828396 -150.657712 
L 284.333541 -150.567598 
L 283.838686 -154.539658 
L 283.343831 -156.300575 
L 282.848976 -156.634059 
L 282.35412 -157.777944 
L 281.859265 -159.115328 
L 281.36441 -159.703085 
L 280.869555 -161.066266 
L 280.3747 -160.632083 
L 279.879845 -160.891065 
L 279.38499 -161.559537 
L 278.890135 -162.149917 
L 278.39528 -162.334077 
L 277.900425 -162.509969 
L 277.40557 -161.606685 
L 276.910714 -162.166388 
L 276.415859 -161.848971 
L 275.921004 -162.972527 
L 275.426149 -162.840774 
L 274.931294 -163.248317 
L 274.436439 -162.688549 
L 273.941584 -163.265696 
L 273.446729 -165.152889 
L 272.951874 -164.549127 
L 272.457019 -159.731146 
L 271.962164 -160.315485 
L 271.467308 -152.298479 
L 270.972453 -150.754936 
L 270.477598 -148.918523 
L 269.982743 -148.88797 
L 269.487888 -148.777596 
L 268.993033 -148.853903 
L 268.498178 -148.920402 
L 268.003323 -148.977366 
L 267.508468 -149.039406 
L 267.013613 -148.939083 
L 266.518757 -148.961277 
L 266.023902 -148.946021 
L 265.529047 -148.908336 
L 265.034192 -148.898057 
L 264.539337 -148.892999 
L 264.044482 -148.967176 
L 263.549627 -149.124528 
L 263.054772 -148.890886 
L 262.559917 -148.815995 
L 262.065062 -148.909641 
L 261.570207 -149.071393 
L 261.075351 -149.929551 
L 260.580496 -150.078742 
L 260.085641 -150.385869 
L 259.590786 -150.983501 
L 259.095931 -150.984224 
L 258.601076 -150.928627 
L 258.106221 -150.956225 
L 257.611366 -151.306771 
L 257.116511 -151.548166 
L 256.621656 -151.971354 
L 256.126801 -151.883212 
L 255.631945 -152.059931 
L 255.13709 -152.131994 
L 254.642235 -152.204074 
L 254.14738 -152.243475 
L 253.652525 -152.251597 
L 253.15767 -152.737337 
L 252.662815 -152.826612 
L 252.16796 -153.020237 
L 251.673105 -153.248709 
L 251.17825 -153.04926 
L 250.683395 -153.136687 
L 250.188539 -153.166499 
L 249.693684 -152.682935 
L 249.198829 -152.850538 
L 248.703974 -152.527992 
L 248.209119 -152.28722 
L 247.714264 -152.999725 
L 247.219409 -152.267059 
L 246.724554 -151.903186 
L 246.229699 -152.15305 
L 245.734844 -151.44134 
L 245.239988 -151.090927 
L 244.745133 -152.231753 
L 244.250278 -150.715145 
L 243.755423 -151.528741 
L 243.260568 -152.737288 
L 242.765713 -151.504204 
L 242.270858 -152.005519 
L 241.776003 -152.923427 
L 241.281148 -152.902632 
L 240.786293 -153.589614 
L 240.291438 -153.066253 
L 239.796582 -153.021653 
L 239.301727 -153.571543 
L 238.806872 -153.269501 
L 238.312017 -153.240692 
L 237.817162 -153.490715 
L 237.322307 -152.428082 
L 236.827452 -153.082035 
L 236.332597 -151.891361 
L 235.837742 -151.190498 
L 235.342887 -150.771029 
L 234.848032 -152.990264 
L 234.353176 -153.850132 
L 233.858321 -154.710061 
L 233.363466 -154.436327 
L 232.868611 -155.320827 
L 232.373756 -155.85056 
L 231.878901 -156.18254 
L 231.384046 -155.869189 
L 230.889191 -154.602159 
L 230.394336 -151.545211 
L 229.899481 -150.432535 
L 229.404625 -151.330922 
L 228.90977 -152.555 
L 228.414915 -157.08503 
L 227.92006 -160.273619 
L 227.425205 -163.498864 
L 226.93035 -160.450064 
L 226.435495 -163.200584 
L 225.94064 -159.780279 
L 225.445785 -159.207502 
L 224.95093 -154.962795 
L 224.456075 -150.331305 
L 223.961219 -149.314002 
L 223.466364 -149.13967 
L 222.971509 -149.094473 
L 222.476654 -149.015549 
L 221.981799 -149.281587 
L 221.486944 -149.117934 
L 220.992089 -149.207141 
L 220.497234 -149.249469 
L 220.002379 -149.179581 
L 219.507524 -149.417541 
L 219.012669 -149.76538 
L 218.517813 -150.384457 
L 218.022958 -151.427913 
L 217.528103 -151.906374 
L 217.033248 -153.604394 
L 216.538393 -153.56477 
L 216.043538 -153.698314 
L 215.548683 -153.876355 
L 215.053828 -153.944004 
L 214.558973 -153.903674 
L 214.064118 -154.199952 
L 213.569263 -154.92996 
L 213.074407 -155.17073 
L 212.579552 -155.187376 
L 212.084697 -155.853158 
L 211.589842 -156.524743 
L 211.094987 -157.265738 
L 210.600132 -156.960769 
L 210.105277 -157.025588 
L 209.610422 -157.249954 
L 209.115567 -157.668493 
L 208.620712 -159.115036 
L 208.125856 -159.101809 
L 207.631001 -159.528148 
L 207.136146 -160.050048 
L 206.641291 -161.515798 
L 206.146436 -160.734488 
L 205.651581 -156.898528 
L 205.156726 -153.6564 
L 204.661871 -152.765391 
L 204.167016 -152.368772 
L 203.672161 -154.857603 
L 203.177306 -155.617259 
L 202.68245 -163.961753 
L 202.187595 -162.113539 
L 201.69274 -158.753095 
L 201.197885 -153.459175 
L 200.70303 -151.7496 
L 200.208175 -150.369732 
L 199.71332 -149.657129 
L 199.218465 -149.70874 
L 198.72361 -149.691607 
L 198.228755 -150.236713 
L 197.7339 -151.280979 
L 197.239044 -155.179073 
L 196.744189 -154.762964 
L 196.249334 -153.131459 
L 195.754479 -157.39022 
L 195.259624 -163.034472 
L 194.764769 -163.359376 
L 194.269914 -163.465981 
L 193.775059 -163.961717 
L 193.280204 -163.761911 
L 192.785349 -163.747161 
L 192.290493 -163.87664 
L 191.795638 -165.030473 
L 191.300783 -166.543441 
L 190.805928 -163.839356 
L 190.311073 -164.266636 
L 189.816218 -159.638085 
L 189.321363 -163.389536 
L 188.826508 -156.97879 
L 188.331653 -155.161333 
L 187.836798 -151.218819 
L 187.341943 -150.165936 
L 186.847087 -149.725407 
L 186.352232 -150.015615 
L 185.857377 -151.419034 
L 185.362522 -152.503722 
L 184.867667 -152.836766 
L 184.372812 -152.317812 
L 183.877957 -152.603252 
L 183.383102 -152.233562 
L 182.888247 -152.295384 
L 182.393392 -151.587707 
L 181.898537 -151.799219 
L 181.403681 -151.590154 
L 180.908826 -152.402621 
L 180.413971 -152.756814 
L 179.919116 -152.847077 
L 179.424261 -152.875207 
L 178.929406 -153.03919 
L 178.434551 -154.332008 
L 177.939696 -154.70973 
L 177.444841 -155.424934 
L 176.949986 -154.981587 
L 176.455131 -152.394797 
L 175.960275 -152.54565 
L 175.46542 -152.625855 
L 174.970565 -152.557357 
L 174.47571 -152.200288 
L 173.980855 -153.824367 
L 173.486 -155.18031 
L 172.991145 -155.414501 
L 172.49629 -155.631172 
L 172.001435 -155.491535 
L 171.50658 -155.976049 
L 171.011724 -156.265542 
L 170.516869 -157.00463 
L 170.022014 -158.76726 
L 169.527159 -160.375513 
L 169.032304 -162.411501 
L 168.537449 -166.284069 
L 168.042594 -166.918723 
L 167.547739 -168.738656 
L 167.052884 -170.313035 
L 166.558029 -170.048619 
L 166.063174 -168.715122 
L 165.568318 -166.44552 
L 165.073463 -166.109602 
L 164.578608 -157.757493 
L 164.083753 -153.25737 
L 163.588898 -150.774209 
L 163.094043 -149.378371 
L 162.599188 -149.412682 
L 162.104333 -149.421735 
L 161.609478 -149.829285 
L 161.114623 -150.4136 
L 160.619768 -152.438546 
L 160.124912 -153.686007 
L 159.630057 -154.11313 
L 159.135202 -154.913748 
L 158.640347 -155.005968 
L 158.145492 -154.942088 
L 157.650637 -155.677022 
L 157.155782 -155.111836 
L 156.660927 -155.36022 
L 156.166072 -154.790072 
L 155.671217 -154.598392 
L 155.176362 -154.219019 
L 154.681506 -153.833165 
L 154.186651 -153.868762 
L 153.691796 -154.436237 
L 153.196941 -155.607102 
L 152.702086 -156.208395 
L 152.207231 -155.991263 
L 151.712376 -158.012558 
L 151.217521 -157.122114 
L 150.722666 -155.060073 
L 150.227811 -153.969841 
L 149.732955 -151.099592 
L 149.2381 -152.534952 
L 148.743245 -154.448798 
L 148.24839 -156.385265 
L 147.753535 -156.63329 
L 147.25868 -157.145841 
L 146.763825 -156.630643 
L 146.26897 -157.23368 
L 145.774115 -156.966471 
L 145.27926 -156.82296 
L 144.784405 -156.953278 
L 144.289549 -156.721313 
L 143.794694 -157.353934 
L 143.299839 -158.484376 
L 142.804984 -161.366086 
L 142.310129 -162.161206 
L 141.815274 -163.058258 
L 141.320419 -164.128276 
L 140.825564 -163.626708 
L 140.330709 -164.557768 
L 139.835854 -164.917799 
L 139.340999 -162.936374 
L 138.846143 -163.780183 
L 138.351288 -160.113655 
L 137.856433 -157.1913 
L 137.361578 -152.581028 
L 136.866723 -149.391222 
L 136.371868 -149.505965 
L 135.877013 -149.710507 
L 135.382158 -151.924873 
L 134.887303 -153.178002 
L 134.392448 -155.750819 
L 133.897592 -156.373211 
L 133.402737 -156.064037 
L 132.907882 -155.364779 
L 132.413027 -154.72963 
L 131.918172 -154.904847 
L 131.423317 -154.890946 
L 130.928462 -154.993292 
L 130.433607 -154.834445 
L 129.938752 -154.839713 
L 129.443897 -154.641249 
L 128.949042 -155.281009 
L 128.454186 -155.657573 
L 127.959331 -156.960903 
L 127.464476 -157.045565 
L 126.969621 -157.751524 
L 126.474766 -158.515225 
L 125.979911 -158.789766 
L 125.485056 -160.138058 
L 124.990201 -160.859442 
L 124.495346 -158.912736 
L 124.000491 -159.044118 
L 123.505636 -157.29739 
L 123.01078 -156.100942 
L 122.515925 -151.150128 
L 122.02107 -150.755876 
z
" style="stroke: #1b5975; stroke-width: 0.5"/>
    </defs>
    <g clip-path="url(#p2a67337b5c)">
     <use xlink:href="#mc6abe39086" x="0" y="216" style="fill: #1b5975; stroke: #1b5975; stroke-width: 0.5"/>
    </g>
   </g>
   <g id="matplotlib.axis_1">
    <g id="xtick_1"/>
    <g id="xtick_2"/>
    <g id="xtick_3"/>
    <g id="xtick_4"/>
    <g id="xtick_5"/>
    <g id="xtick_6"/>
   </g>
   <g id="matplotlib.axis_2">
    <g id="ytick_1"/>
    <g id="ytick_2"/>
    <g id="ytick_3"/>
    <g id="ytick_4"/>
    <g id="ytick_5"/>
   </g>
   <g id="text_1">
    <!-- Left  -->
    <g style="fill: #1b5975" transform="translate(83.174742 70.81125) scale(0.12 -0.12)">
     <defs>
      <path id="DejaVuSans-Bold-4c" d="M 588 4666 
L 1791 4666 
L 1791 909 
L 3903 909 
L 3903 0 
L 588 0 
L 588 4666 
z
" transform="scale(0.015625)"/>
      <path id="DejaVuSans-Bold-65" d="M 4031 1759 
L 4031 1441 
L 1416 1441 
Q 1456 1047 1700 850 
Q 1944 653 2381 653 
Q 2734 653 3104 758 
Q 3475 863 3866 1075 
L 3866 213 
Q 3469 63 3072 -14 
Q 2675 -91 2278 -91 
Q 1328 -91 801 392 
Q 275 875 275 1747 
Q 275 2603 792 3093 
Q 1309 3584 2216 3584 
Q 3041 3584 3536 3087 
Q 4031 2591 4031 1759 
z
M 2881 2131 
Q 2881 2450 2695 2645 
Q 2509 2841 2209 2841 
Q 1884 2841 1681 2658 
Q 1478 2475 1428 2131 
L 2881 2131 
z
" transform="scale(0.015625)"/>
      <path id="DejaVuSans-Bold-66" d="M 2841 4863 
L 2841 4128 
L 2222 4128 
Q 1984 4128 1890 4042 
Q 1797 3956 1797 3744 
L 1797 3500 
L 2753 3500 
L 2753 2700 
L 1797 2700 
L 1797 0 
L 678 0 
L 678 2700 
L 122 2700 
L 122 3500 
L 678 3500 
L 678 3744 
Q 678 4316 997 4589 
Q 1316 4863 1984 4863 
L 2841 4863 
z
" transform="scale(0.015625)"/>
      <path id="DejaVuSans-Bold-74" d="M 1759 4494 
L 1759 3500 
L 2913 3500 
L 2913 2700 
L 1759 2700 
L 1759 1216 
Q 1759 972 1856 886 
Q 1953 800 2241 800 
L 2816 800 
L 2816 0 
L 1856 0 
Q 1194 0 917 276 
Q 641 553 641 1216 
L 641 2700 
L 84 2700 
L 84 3500 
L 641 3500 
L 641 4494 
L 1759 4494 
z
" transform="scale(0.015625)"/>
      <path id="DejaVuSans-Bold-20" transform="scale(0.015625)"/>
     </defs>
     <use xlink:href="#DejaVuSans-Bold-4c"/>
     <use xlink:href="#DejaVuSans-Bold-65" x="63.720703"/>
     <use xlink:href="#DejaVuSans-Bold-66" x="131.542969"/>
     <use xlink:href="#DejaVuSans-Bold-74" x="175.048828"/>
     <use xlink:href="#DejaVuSans-Bold-20" x="222.851562"/>
    </g>
   </g>
  </g>
  <g id="axes_2">
   <g id="patch_3">
    <path d="M 72 192.24 
L 518.4 192.24 
L 518.4 109.08 
L 72 109.08 
z
" style="fill: #ca5144"/>
   </g>
   <g id="PolyCollection_2">
    <defs>
     <path id="m3cf098c181" d="M 126.339206 -67.773715 
L 126.339206 -62.629606 
L 126.82867 -62.952215 
L 127.318134 -53.858418 
L 127.807599 -48.722317 
L 128.297063 -43.912276 
L 128.786527 -43.472208 
L 129.275991 -43.547364 
L 129.765455 -44.556529 
L 130.254919 -44.105749 
L 130.744384 -44.941867 
L 131.233848 -44.953192 
L 131.723312 -46.019202 
L 132.212776 -46.244293 
L 132.70224 -46.359984 
L 133.191704 -47.350915 
L 133.681168 -47.733065 
L 134.170633 -48.429552 
L 134.660097 -48.042799 
L 135.149561 -48.094675 
L 135.639025 -48.488215 
L 136.128489 -48.797141 
L 136.617953 -48.719296 
L 137.107418 -48.444339 
L 137.596882 -47.920315 
L 138.086346 -47.89135 
L 138.57581 -48.381999 
L 139.065274 -59.155462 
L 139.554738 -61.616354 
L 140.044203 -63.16446 
L 140.533667 -64.221783 
L 141.023131 -64.476682 
L 141.512595 -60.678842 
L 142.002059 -50.967194 
L 142.491523 -44.061592 
L 142.980988 -38.096734 
L 143.470452 -39.632912 
L 143.959916 -39.465288 
L 144.44938 -40.177199 
L 144.938844 -39.622686 
L 145.428308 -40.602781 
L 145.917773 -41.993238 
L 146.407237 -42.228851 
L 146.896701 -44.59787 
L 147.386165 -45.899535 
L 147.875629 -46.901775 
L 148.365093 -48.006834 
L 148.854558 -48.743544 
L 149.344022 -48.2066 
L 149.833486 -49.097487 
L 150.32295 -49.287086 
L 150.812414 -49.99748 
L 151.301878 -49.421027 
L 151.791342 -50.296601 
L 152.280807 -52.700978 
L 152.770271 -55.987715 
L 153.259735 -59.079934 
L 153.749199 -60.55902 
L 154.238663 -57.898938 
L 154.728127 -53.172424 
L 155.217592 -51.892731 
L 155.707056 -52.49088 
L 156.19652 -52.200576 
L 156.685984 -52.427447 
L 157.175448 -52.411251 
L 157.664912 -53.32098 
L 158.154377 -53.293336 
L 158.643841 -53.401492 
L 159.133305 -53.65604 
L 159.622769 -53.343049 
L 160.112233 -53.080997 
L 160.601697 -53.687616 
L 161.091162 -53.559372 
L 161.580626 -53.723488 
L 162.07009 -53.736329 
L 162.559554 -53.306264 
L 163.049018 -53.085883 
L 163.538482 -53.422665 
L 164.027947 -54.426579 
L 164.517411 -60.409679 
L 165.006875 -63.562468 
L 165.496339 -63.469324 
L 165.985803 -64.203249 
L 166.475267 -64.37881 
L 166.964732 -64.46182 
L 167.454196 -63.312105 
L 167.94366 -55.778102 
L 168.433124 -48.069013 
L 168.922588 -39.027961 
L 169.412052 -37.698449 
L 169.901516 -36.829097 
L 170.390981 -35.69514 
L 170.880445 -35.727664 
L 171.369909 -35.927653 
L 171.859373 -36.602335 
L 172.348837 -38.612999 
L 172.838301 -39.348691 
L 173.327766 -42.078159 
L 173.81723 -44.493144 
L 174.306694 -45.887423 
L 174.796158 -47.180644 
L 175.285622 -48.468808 
L 175.775086 -49.010763 
L 176.264551 -49.695898 
L 176.754015 -50.027907 
L 177.243479 -50.68189 
L 177.732943 -57.849839 
L 178.222407 -59.986446 
L 178.711871 -57.831446 
L 179.201336 -58.429044 
L 179.6908 -55.769063 
L 180.180264 -54.745895 
L 180.669728 -54.495883 
L 181.159192 -54.016289 
L 181.648656 -53.205542 
L 182.138121 -54.080719 
L 182.627585 -54.629465 
L 183.117049 -55.189552 
L 183.606513 -55.661866 
L 184.095977 -55.945702 
L 184.585441 -55.597774 
L 185.074906 -56.073202 
L 185.56437 -55.303414 
L 186.053834 -54.675897 
L 186.543298 -54.514874 
L 187.032762 -54.518593 
L 187.522226 -53.548202 
L 188.01169 -52.857344 
L 188.501155 -53.285755 
L 188.990619 -56.13845 
L 189.480083 -59.860983 
L 189.969547 -63.194458 
L 190.459011 -63.834596 
L 190.948475 -63.154311 
L 191.43794 -59.704896 
L 191.927404 -53.815981 
L 192.416868 -50.054197 
L 192.906332 -39.949592 
L 193.395796 -43.507926 
L 193.88526 -41.049461 
L 194.374725 -41.374781 
L 194.864189 -38.232593 
L 195.353653 -37.610971 
L 195.843117 -39.254057 
L 196.332581 -37.955621 
L 196.822045 -37.810013 
L 197.31151 -37.783787 
L 197.800974 -37.738673 
L 198.290438 -37.024647 
L 198.779902 -37.269371 
L 199.269366 -44.549831 
L 199.75883 -58.539523 
L 200.248295 -53.919644 
L 200.737759 -52.193242 
L 201.227223 -61.9179 
L 201.716687 -63.597555 
L 202.206151 -63.640961 
L 202.695615 -64.415504 
L 203.18508 -64.07936 
L 203.674544 -64.202161 
L 204.164008 -60.66837 
L 204.653472 -56.23912 
L 205.142936 -45.976869 
L 205.6324 -43.444723 
L 206.121864 -40.100355 
L 206.611329 -49.950053 
L 207.100793 -57.381928 
L 207.590257 -59.540571 
L 208.079721 -59.212155 
L 208.569185 -53.540385 
L 209.058649 -50.755661 
L 209.548114 -48.003539 
L 210.037578 -47.899272 
L 210.527042 -47.265125 
L 211.016506 -46.677895 
L 211.50597 -47.618075 
L 211.995434 -48.153796 
L 212.484899 -49.009563 
L 212.974363 -48.172896 
L 213.463827 -48.122546 
L 213.953291 -48.806564 
L 214.442755 -49.346017 
L 214.932219 -50.197117 
L 215.421684 -50.841354 
L 215.911148 -51.642113 
L 216.400612 -53.123721 
L 216.890076 -53.044959 
L 217.37954 -54.306162 
L 217.869004 -54.259156 
L 218.358469 -54.527587 
L 218.847933 -54.070381 
L 219.337397 -54.22039 
L 219.826861 -54.715032 
L 220.316325 -54.696081 
L 220.805789 -59.395515 
L 221.295254 -61.563162 
L 221.784718 -63.268241 
L 222.274182 -63.781728 
L 222.763646 -63.945595 
L 223.25311 -63.964071 
L 223.742574 -64.252933 
L 224.232038 -64.575479 
L 224.721503 -64.372188 
L 225.210967 -64.694823 
L 225.700431 -64.459986 
L 226.189895 -64.667704 
L 226.679359 -64.653515 
L 227.168823 -64.637043 
L 227.658288 -62.677891 
L 228.147752 -54.646655 
L 228.637216 -46.825423 
L 229.12668 -45.169267 
L 229.616144 -41.038735 
L 230.105608 -46.449542 
L 230.595073 -41.745948 
L 231.084537 -44.592176 
L 231.574001 -50.508113 
L 232.063465 -58.357819 
L 232.552929 -61.744061 
L 233.042393 -62.467797 
L 233.531858 -60.144338 
L 234.021322 -54.535324 
L 234.510786 -52.398949 
L 235.00025 -51.045586 
L 235.489714 -52.021184 
L 235.979178 -52.047641 
L 236.468643 -54.101481 
L 236.958107 -55.251458 
L 237.447571 -56.487223 
L 237.937035 -58.553441 
L 238.426499 -60.169926 
L 238.915963 -58.769533 
L 239.405428 -58.731141 
L 239.894892 -56.38 
L 240.384356 -55.116617 
L 240.87382 -55.694205 
L 241.363284 -55.524945 
L 241.852748 -56.183288 
L 242.342212 -56.594309 
L 242.831677 -57.538577 
L 243.321141 -57.885452 
L 243.810605 -57.63414 
L 244.300069 -58.105055 
L 244.789533 -58.284584 
L 245.278997 -59.840727 
L 245.768462 -60.082782 
L 246.257926 -58.166936 
L 246.74739 -58.476878 
L 247.236854 -59.749154 
L 247.726318 -58.200183 
L 248.215782 -58.185196 
L 248.705247 -59.05499 
L 249.194711 -57.886514 
L 249.684175 -57.285754 
L 250.173639 -56.488275 
L 250.663103 -56.052791 
L 251.152567 -56.043026 
L 251.642032 -55.276055 
L 252.131496 -54.3564 
L 252.62096 -54.743362 
L 253.110424 -54.391094 
L 253.599888 -54.380289 
L 254.089352 -54.553139 
L 254.578817 -54.709007 
L 255.068281 -54.820302 
L 255.557745 -55.24712 
L 256.047209 -55.127546 
L 256.536673 -55.225513 
L 257.026137 -56.140706 
L 257.515602 -56.307434 
L 258.005066 -56.67207 
L 258.49453 -57.523338 
L 258.983994 -58.050247 
L 259.473458 -58.790662 
L 259.962922 -59.187847 
L 260.452387 -59.964446 
L 260.941851 -59.997649 
L 261.431315 -60.289614 
L 261.920779 -59.961255 
L 262.410243 -60.123058 
L 262.899707 -62.872621 
L 263.389171 -63.563015 
L 263.878636 -64.486782 
L 264.3681 -64.582617 
L 264.857564 -64.843705 
L 265.347028 -65.020101 
L 265.836492 -65.023267 
L 266.325956 -64.946729 
L 266.815421 -64.989215 
L 267.304885 -65.01943 
L 267.794349 -64.910273 
L 268.283813 -64.964771 
L 268.773277 -64.858088 
L 269.262741 -64.894708 
L 269.752206 -64.985652 
L 270.24167 -64.789533 
L 270.731134 -64.839299 
L 271.220598 -65.042782 
L 271.710062 -64.92275 
L 272.199526 -64.994113 
L 272.688991 -64.995284 
L 273.178455 -65.126106 
L 273.667919 -62.762156 
L 274.157383 -60.172474 
L 274.646847 -47.242966 
L 275.136311 -40.917952 
L 275.625776 -38.493683 
L 276.11524 -38.914819 
L 276.604704 -39.267743 
L 277.094168 -39.53116 
L 277.583632 -40.679355 
L 278.073096 -41.270908 
L 278.562561 -43.428034 
L 279.052025 -42.791087 
L 279.541489 -43.330294 
L 280.030953 -43.410135 
L 280.520417 -42.636643 
L 281.009881 -43.046906 
L 281.499345 -43.727573 
L 281.98881 -44.958863 
L 282.478274 -46.340661 
L 282.967738 -46.818275 
L 283.457202 -46.868606 
L 283.946666 -47.708728 
L 284.43613 -47.92639 
L 284.925595 -48.946352 
L 285.415059 -49.484801 
L 285.904523 -52.503124 
L 286.393987 -57.054601 
L 286.883451 -62.900086 
L 287.372915 -63.041773 
L 287.86238 -63.782543 
L 288.351844 -64.144867 
L 288.841308 -64.19861 
L 289.330772 -64.476842 
L 289.820236 -64.493585 
L 290.3097 -64.851598 
L 290.799165 -64.70866 
L 291.288629 -64.753609 
L 291.778093 -64.528608 
L 292.267557 -64.549272 
L 292.757021 -64.801945 
L 293.246485 -64.666373 
L 293.73595 -64.786221 
L 294.225414 -64.747819 
L 294.714878 -64.793872 
L 295.204342 -64.881143 
L 295.693806 -64.794252 
L 296.18327 -64.81635 
L 296.672735 -64.827035 
L 297.162199 -64.779504 
L 297.651663 -63.752334 
L 298.141127 -60.321191 
L 298.630591 -55.053655 
L 299.120055 -53.583486 
L 299.609519 -51.642414 
L 300.098984 -50.893059 
L 300.588448 -48.565764 
L 301.077912 -48.400765 
L 301.567376 -48.176531 
L 302.05684 -48.795262 
L 302.546304 -48.303006 
L 303.035769 -47.806833 
L 303.525233 -47.76436 
L 304.014697 -46.57435 
L 304.504161 -45.848945 
L 304.993625 -45.094254 
L 305.483089 -44.710637 
L 305.972554 -43.631606 
L 306.462018 -43.417622 
L 306.951482 -43.730485 
L 307.440946 -44.365104 
L 307.93041 -44.925948 
L 308.419874 -45.72349 
L 308.909339 -46.287378 
L 309.398803 -47.765302 
L 309.888267 -49.301073 
L 310.377731 -50.767809 
L 310.867195 -55.133543 
L 311.356659 -56.94263 
L 311.846124 -56.941855 
L 312.335588 -54.039614 
L 312.825052 -53.711779 
L 313.314516 -50.705026 
L 313.80398 -46.741814 
L 314.293444 -47.985965 
L 314.782909 -50.631385 
L 315.272373 -47.314301 
L 315.761837 -47.260512 
L 316.251301 -48.005248 
L 316.740765 -49.856397 
L 317.230229 -50.565161 
L 317.719693 -50.219759 
L 318.209158 -51.16615 
L 318.698622 -50.543547 
L 319.188086 -49.832453 
L 319.67755 -50.61224 
L 320.167014 -51.368432 
L 320.656478 -51.922014 
L 321.145943 -52.457116 
L 321.635407 -52.205496 
L 322.124871 -51.937045 
L 322.614335 -51.69243 
L 323.103799 -52.205524 
L 323.593263 -52.560924 
L 324.082728 -52.697037 
L 324.572192 -52.801185 
L 325.061656 -53.089131 
L 325.55112 -53.354506 
L 326.040584 -53.886623 
L 326.530048 -54.31503 
L 327.019513 -54.672494 
L 327.508977 -55.033569 
L 327.998441 -55.290773 
L 328.487905 -55.496562 
L 328.977369 -55.837909 
L 329.466833 -55.984665 
L 329.956298 -55.867979 
L 330.445762 -55.859179 
L 330.935226 -55.784271 
L 331.42469 -55.512895 
L 331.914154 -55.188537 
L 332.403618 -55.05552 
L 332.893083 -55.059943 
L 333.382547 -54.875349 
L 333.872011 -55.170256 
L 334.361475 -55.759572 
L 334.850939 -55.530452 
L 335.340403 -55.872861 
L 335.829867 -56.407079 
L 336.319332 -56.04462 
L 336.808796 -56.606408 
L 337.29826 -57.006736 
L 337.787724 -57.167484 
L 338.277188 -57.040449 
L 338.766652 -57.342019 
L 339.256117 -57.522947 
L 339.745581 -57.519267 
L 340.235045 -57.965167 
L 340.724509 -57.962209 
L 341.213973 -58.357957 
L 341.703437 -58.583901 
L 342.192902 -58.686261 
L 342.682366 -58.612239 
L 343.17183 -58.670309 
L 343.661294 -59.089436 
L 344.150758 -59.619037 
L 344.640222 -60.216589 
L 345.129687 -61.044047 
L 345.619151 -61.919425 
L 346.108615 -62.43094 
L 346.598079 -62.487977 
L 347.087543 -64.054121 
L 347.577007 -64.313135 
L 348.066472 -64.314362 
L 348.555936 -64.68696 
L 349.0454 -64.596475 
L 349.534864 -64.859999 
L 350.024328 -64.856491 
L 350.513792 -64.816253 
L 351.003257 -64.771714 
L 351.492721 -64.749903 
L 351.982185 -64.771237 
L 352.471649 -64.936451 
L 352.961113 -64.884854 
L 353.450577 -64.910325 
L 353.940041 -64.862125 
L 354.429506 -64.901279 
L 354.91897 -64.957657 
L 355.408434 -64.961505 
L 355.897898 -64.952151 
L 356.387362 -64.897442 
L 356.876826 -64.917321 
L 357.366291 -64.978877 
L 357.855755 -64.959244 
L 358.345219 -65.083408 
L 358.834683 -65.107666 
L 359.324147 -65.09322 
L 359.813611 -65.14774 
L 360.303076 -65.070451 
L 360.79254 -65.098385 
L 361.282004 -65.147156 
L 361.771468 -65.139389 
L 362.260932 -65.152155 
L 362.750396 -65.129485 
L 363.239861 -65.12184 
L 363.729325 -65.138362 
L 364.218789 -65.12064 
L 364.708253 -65.151922 
L 365.197717 -65.1383 
L 365.687181 -65.160267 
L 366.176646 -65.183163 
L 366.66611 -65.234854 
L 367.155574 -65.205997 
L 367.645038 -65.23371 
L 368.134502 -65.218971 
L 368.623966 -65.211441 
L 369.113431 -65.193293 
L 369.602895 -65.186067 
L 370.092359 -65.179806 
L 370.581823 -65.183948 
L 371.071287 -65.187257 
L 371.560751 -65.177891 
L 372.050215 -65.186325 
L 372.53968 -65.177682 
L 373.029144 -65.188173 
L 373.518608 -65.186054 
L 374.008072 -65.19957 
L 374.497536 -65.224915 
L 374.987 -65.22263 
L 375.476465 -65.243122 
L 375.965929 -65.249549 
L 376.455393 -65.246734 
L 376.944857 -65.251595 
L 377.434321 -65.248918 
L 377.923785 -65.224874 
L 378.41325 -65.243023 
L 378.902714 -65.247984 
L 379.392178 -65.257084 
L 379.881642 -65.273882 
L 380.371106 -65.281311 
L 380.86057 -65.290392 
L 381.350035 -65.298685 
L 381.839499 -65.292704 
L 382.328963 -65.288052 
L 382.818427 -65.291832 
L 383.307891 -65.291437 
L 383.797355 -65.279784 
L 384.28682 -65.295328 
L 384.776284 -65.302249 
L 385.265748 -65.303437 
L 385.755212 -65.283783 
L 386.244676 -65.288811 
L 386.73414 -65.283415 
L 387.223605 -65.269494 
L 387.713069 -65.277619 
L 388.202533 -65.277604 
L 388.691997 -65.273951 
L 389.181461 -65.287869 
L 389.670925 -65.280789 
L 390.160389 -65.292773 
L 390.649854 -65.294787 
L 391.139318 -65.300032 
L 391.628782 -65.298701 
L 392.118246 -65.302741 
L 392.60771 -65.308343 
L 393.097174 -65.309837 
L 393.586639 -65.306983 
L 394.076103 -65.307242 
L 394.565567 -65.307093 
L 395.055031 -65.314405 
L 395.544495 -65.314794 
L 396.033959 -65.311276 
L 396.523424 -65.309537 
L 397.012888 -65.312333 
L 397.502352 -65.310443 
L 397.991816 -65.316489 
L 398.48128 -65.315328 
L 398.970744 -65.320827 
L 399.460209 -65.320708 
L 399.949673 -65.320799 
L 400.439137 -65.317468 
L 400.928601 -65.324821 
L 401.418065 -65.321328 
L 401.907529 -65.320796 
L 402.396994 -65.32101 
L 402.886458 -65.317587 
L 403.375922 -65.322615 
L 403.865386 -65.318649 
L 404.35485 -65.318329 
L 404.844314 -65.315266 
L 405.333779 -65.311565 
L 405.823243 -65.31198 
L 406.312707 -65.317229 
L 406.802171 -65.319761 
L 407.291635 -65.321257 
L 407.781099 -65.322885 
L 408.270563 -65.324517 
L 408.760028 -65.32414 
L 409.249492 -65.326846 
L 409.738956 -65.326954 
L 410.22842 -65.328915 
L 410.717884 -65.327186 
L 411.207348 -65.32819 
L 411.696813 -65.328383 
L 412.186277 -65.331258 
L 412.675741 -65.329077 
L 413.165205 -65.326403 
L 413.654669 -65.328159 
L 414.144133 -65.325259 
L 414.633598 -65.323576 
L 415.123062 -65.323929 
L 415.612526 -65.324147 
L 416.10199 -65.32555 
L 416.591454 -65.325676 
L 417.080918 -65.329587 
L 417.570383 -65.327588 
L 418.059847 -65.33231 
L 418.549311 -65.329371 
L 419.038775 -65.333547 
L 419.528239 -65.332131 
L 420.017703 -65.333775 
L 420.507168 -65.335317 
L 420.996632 -65.334342 
L 421.486096 -65.334044 
L 421.97556 -65.33112 
L 422.465024 -65.329631 
L 422.954488 -65.330378 
L 423.443953 -65.330018 
L 423.933417 -65.330985 
L 424.422881 -65.330449 
L 424.912345 -65.330777 
L 425.401809 -65.33238 
L 425.891273 -65.330231 
L 426.380737 -65.333706 
L 426.870202 -65.334094 
L 427.359666 -65.334856 
L 427.84913 -65.33414 
L 428.338594 -65.335264 
L 428.828058 -65.33367 
L 429.317522 -65.33377 
L 429.806987 -65.333234 
L 430.296451 -65.332167 
L 430.785915 -65.333471 
L 431.275379 -65.332926 
L 431.764843 -65.3335 
L 432.254307 -65.333688 
L 432.743772 -65.334238 
L 433.233236 -65.333441 
L 433.7227 -65.333378 
L 434.212164 -65.333646 
L 434.701628 -65.334238 
L 435.191092 -65.335161 
L 435.680557 -65.334417 
L 436.170021 -65.33636 
L 436.659485 -65.335859 
L 437.148949 -65.336114 
L 437.638413 -65.3354 
L 438.127877 -65.336571 
L 438.617342 -65.335362 
L 439.106806 -65.335465 
L 439.59627 -65.336133 
L 440.085734 -65.335268 
L 440.575198 -65.335427 
L 441.064662 -65.335779 
L 441.554127 -65.335955 
L 442.043591 -65.336143 
L 442.533055 -65.336033 
L 443.022519 -65.336202 
L 443.511983 -65.334955 
L 444.001447 -65.336102 
L 444.490912 -65.335117 
L 444.980376 -65.336217 
L 445.46984 -65.335969 
L 445.959304 -65.335306 
L 446.448768 -65.335516 
L 446.938232 -65.335507 
L 447.427696 -65.336026 
L 447.917161 -65.335825 
L 448.406625 -65.335711 
L 448.896089 -65.33505 
L 449.385553 -65.336294 
L 449.875017 -65.336354 
L 450.364481 -65.335674 
L 450.853946 -65.335483 
L 451.34341 -65.3368 
L 451.832874 -65.337228 
L 452.322338 -65.336399 
L 452.811802 -65.337032 
L 453.301266 -65.337056 
L 453.790731 -65.337485 
L 454.280195 -65.337385 
L 454.769659 -65.336657 
L 455.259123 -65.337176 
L 455.748587 -65.337599 
L 456.238051 -65.336845 
L 456.727516 -65.3368 
L 457.21698 -65.33779 
L 457.706444 -65.337699 
L 458.195908 -65.337817 
L 458.685372 -65.338175 
L 459.174836 -65.337448 
L 459.664301 -65.337969 
L 460.153765 -65.337957 
L 460.643229 -65.337541 
L 461.132693 -65.337484 
L 461.622157 -65.337983 
L 462.111621 -65.336917 
L 462.601086 -65.338158 
L 463.09055 -65.337557 
L 463.580014 -65.337843 
L 464.069478 -65.337257 
L 464.558942 -65.337483 
L 465.048406 -65.336862 
L 465.53787 -65.337606 
L 466.027335 -65.337932 
L 466.516799 -65.338196 
L 467.006263 -65.337823 
L 467.495727 -65.338274 
L 467.985191 -65.337979 
L 468.474655 -65.338225 
L 468.96412 -65.33769 
L 469.453584 -65.338314 
L 469.943048 -65.338327 
L 470.432512 -65.338043 
L 470.921976 -65.338248 
L 471.41144 -65.337901 
L 471.900905 -65.337656 
L 472.390369 -65.338011 
L 472.879833 -65.337788 
L 473.369297 -65.338035 
L 473.858761 -65.338291 
L 474.348225 -65.337817 
L 474.83769 -65.338423 
L 475.327154 -65.337463 
L 475.816618 -65.337588 
L 476.306082 -65.337546 
L 476.795546 -65.337384 
L 477.28501 -65.337925 
L 477.774475 -65.337721 
L 478.263939 -65.338061 
L 478.753403 -65.33734 
L 479.242867 -65.33814 
L 479.732331 -65.337452 
L 480.221795 -65.337823 
L 480.71126 -65.338158 
L 481.200724 -65.33861 
L 481.690188 -65.338277 
L 482.179652 -65.338445 
L 482.669116 -65.338241 
L 483.15858 -65.337986 
L 483.648044 -65.338354 
L 484.137509 -65.337949 
L 484.626973 -65.338788 
L 485.116437 -65.337952 
L 485.605901 -65.338249 
L 486.095365 -65.337761 
L 486.584829 -65.338406 
L 487.074294 -65.338332 
L 487.563758 -65.33839 
L 488.053222 -65.338457 
L 488.542686 -65.338356 
L 489.03215 -65.338091 
L 489.521614 -65.337896 
L 490.011079 -65.338177 
L 490.500543 -65.338147 
L 490.990007 -65.338204 
L 491.479471 -65.338318 
L 491.968935 -65.338201 
L 492.458399 -65.338083 
L 492.947864 -65.338184 
L 493.437328 -65.338584 
L 493.926792 -65.337935 
L 494.416256 -65.338546 
L 494.90572 -65.338618 
L 495.395184 -65.338642 
L 495.884649 -65.338048 
L 496.374113 -65.338407 
L 496.863577 -65.337826 
L 497.353041 -65.337964 
L 497.842505 -65.33825 
L 498.331969 -65.33826 
L 498.821434 -65.338195 
L 499.310898 -65.338719 
L 499.800362 -65.338132 
L 500.289826 -65.338191 
L 500.77929 -65.338478 
L 501.268754 -65.338449 
L 501.758218 -65.337865 
L 502.247683 -65.337881 
L 502.737147 -65.338283 
L 503.226611 -65.338417 
L 503.716075 -65.33896 
L 504.205539 -65.339002 
L 504.695003 -65.338944 
L 505.184468 -65.338744 
L 505.673932 -65.338973 
L 506.163396 -65.33893 
L 506.65286 -65.338434 
L 507.142324 -65.338889 
L 507.631788 -65.338933 
L 508.121253 -65.338897 
L 508.610717 -65.338717 
L 509.100181 -65.338929 
L 509.589645 -65.339012 
L 510.079109 -65.338928 
L 510.568573 -65.338667 
L 511.058038 -65.338932 
L 511.547502 -65.338998 
L 512.036966 -65.338886 
L 512.52643 -65.338843 
L 513.015894 -65.339208 
L 513.505358 -65.33864 
L 513.994823 -65.33895 
L 514.484287 -65.338833 
L 514.973751 -65.338504 
L 515.463215 -65.338628 
L 515.952679 -65.338736 
L 516.442143 -65.338689 
L 516.931608 -65.339129 
L 517.421072 -65.339105 
L 517.910536 -65.34 
L 517.910536 -65.34 
L 517.910536 -65.34 
L 517.421072 -65.340976 
L 516.931608 -65.341139 
L 516.442143 -65.34101 
L 515.952679 -65.341098 
L 515.463215 -65.3411 
L 514.973751 -65.341383 
L 514.484287 -65.341056 
L 513.994823 -65.341151 
L 513.505358 -65.341535 
L 513.015894 -65.341 
L 512.52643 -65.341249 
L 512.036966 -65.34112 
L 511.547502 -65.341576 
L 511.058038 -65.341108 
L 510.568573 -65.340914 
L 510.079109 -65.341116 
L 509.589645 -65.340823 
L 509.100181 -65.341028 
L 508.610717 -65.340994 
L 508.121253 -65.340936 
L 507.631788 -65.341 
L 507.142324 -65.340865 
L 506.65286 -65.341085 
L 506.163396 -65.341016 
L 505.673932 -65.341021 
L 505.184468 -65.341165 
L 504.695003 -65.341137 
L 504.205539 -65.341369 
L 503.716075 -65.341012 
L 503.226611 -65.341736 
L 502.737147 -65.342737 
L 502.247683 -65.34218 
L 501.758218 -65.34158 
L 501.268754 -65.341601 
L 500.77929 -65.34185 
L 500.289826 -65.3414 
L 499.800362 -65.341291 
L 499.310898 -65.341519 
L 498.821434 -65.341674 
L 498.331969 -65.341566 
L 497.842505 -65.341561 
L 497.353041 -65.341677 
L 496.863577 -65.341947 
L 496.374113 -65.341496 
L 495.884649 -65.341769 
L 495.395184 -65.342164 
L 494.90572 -65.341557 
L 494.416256 -65.341472 
L 493.926792 -65.341699 
L 493.437328 -65.341516 
L 492.947864 -65.341584 
L 492.458399 -65.341779 
L 491.968935 -65.341479 
L 491.479471 -65.341592 
L 490.990007 -65.341656 
L 490.500543 -65.342056 
L 490.011079 -65.341664 
L 489.521614 -65.342172 
L 489.03215 -65.341865 
L 488.542686 -65.341428 
L 488.053222 -65.341485 
L 487.563758 -65.341648 
L 487.074294 -65.341421 
L 486.584829 -65.341354 
L 486.095365 -65.341779 
L 485.605901 -65.341466 
L 485.116437 -65.341597 
L 484.626973 -65.341672 
L 484.137509 -65.341722 
L 483.648044 -65.342349 
L 483.15858 -65.341769 
L 482.669116 -65.342111 
L 482.179652 -65.341635 
L 481.690188 -65.341924 
L 481.200724 -65.34197 
L 480.71126 -65.342675 
L 480.221795 -65.341816 
L 479.732331 -65.341684 
L 479.242867 -65.341973 
L 478.753403 -65.34199 
L 478.263939 -65.342139 
L 477.774475 -65.341779 
L 477.28501 -65.341812 
L 476.795546 -65.341839 
L 476.306082 -65.342147 
L 475.816618 -65.341816 
L 475.327154 -65.342475 
L 474.83769 -65.341764 
L 474.348225 -65.342209 
L 473.858761 -65.3421 
L 473.369297 -65.342249 
L 472.879833 -65.342143 
L 472.390369 -65.342349 
L 471.900905 -65.341877 
L 471.41144 -65.34186 
L 470.921976 -65.342464 
L 470.432512 -65.342018 
L 469.943048 -65.341471 
L 469.453584 -65.341952 
L 468.96412 -65.341945 
L 468.474655 -65.341844 
L 467.985191 -65.341558 
L 467.495727 -65.341899 
L 467.006263 -65.341833 
L 466.516799 -65.342083 
L 466.027335 -65.341807 
L 465.53787 -65.343478 
L 465.048406 -65.342935 
L 464.558942 -65.343281 
L 464.069478 -65.342648 
L 463.580014 -65.342505 
L 463.09055 -65.342466 
L 462.601086 -65.342307 
L 462.111621 -65.34242 
L 461.622157 -65.34211 
L 461.132693 -65.34202 
L 460.643229 -65.34204 
L 460.153765 -65.342046 
L 459.664301 -65.342134 
L 459.174836 -65.341903 
L 458.685372 -65.341786 
L 458.195908 -65.34217 
L 457.706444 -65.342103 
L 457.21698 -65.342494 
L 456.727516 -65.343061 
L 456.238051 -65.342589 
L 455.748587 -65.342942 
L 455.259123 -65.342146 
L 454.769659 -65.342662 
L 454.280195 -65.342744 
L 453.790731 -65.342382 
L 453.301266 -65.342952 
L 452.811802 -65.342634 
L 452.322338 -65.342217 
L 451.832874 -65.342071 
L 451.34341 -65.341937 
L 450.853946 -65.342768 
L 450.364481 -65.342402 
L 449.875017 -65.343359 
L 449.385553 -65.343091 
L 448.896089 -65.342309 
L 448.406625 -65.343075 
L 447.917161 -65.343277 
L 447.427696 -65.342958 
L 446.938232 -65.344149 
L 446.448768 -65.343417 
L 445.959304 -65.343589 
L 445.46984 -65.343202 
L 444.980376 -65.343806 
L 444.490912 -65.343731 
L 444.001447 -65.344028 
L 443.511983 -65.344613 
L 443.022519 -65.344019 
L 442.533055 -65.344146 
L 442.043591 -65.344283 
L 441.554127 -65.344435 
L 441.064662 -65.343924 
L 440.575198 -65.343527 
L 440.085734 -65.343619 
L 439.59627 -65.343465 
L 439.106806 -65.344341 
L 438.617342 -65.344482 
L 438.127877 -65.343495 
L 437.638413 -65.344027 
L 437.148949 -65.343769 
L 436.659485 -65.344399 
L 436.170021 -65.343739 
L 435.680557 -65.344725 
L 435.191092 -65.344473 
L 434.701628 -65.345346 
L 434.212164 -65.345185 
L 433.7227 -65.346029 
L 433.233236 -65.345382 
L 432.743772 -65.344918 
L 432.254307 -65.345155 
L 431.764843 -65.345763 
L 431.275379 -65.345314 
L 430.785915 -65.345307 
L 430.296451 -65.345241 
L 429.806987 -65.34442 
L 429.317522 -65.345416 
L 428.828058 -65.345654 
L 428.338594 -65.346295 
L 427.84913 -65.347254 
L 427.359666 -65.346888 
L 426.870202 -65.347386 
L 426.380737 -65.348101 
L 425.891273 -65.34927 
L 425.401809 -65.349156 
L 424.912345 -65.347983 
L 424.422881 -65.350209 
L 423.933417 -65.348279 
L 423.443953 -65.347601 
L 422.954488 -65.346264 
L 422.465024 -65.346489 
L 421.97556 -65.346573 
L 421.486096 -65.345628 
L 420.996632 -65.345522 
L 420.507168 -65.346556 
L 420.017703 -65.348265 
L 419.528239 -65.346975 
L 419.038775 -65.349191 
L 418.549311 -65.348346 
L 418.059847 -65.347688 
L 417.570383 -65.3482 
L 417.080918 -65.348762 
L 416.591454 -65.347492 
L 416.10199 -65.348656 
L 415.612526 -65.347277 
L 415.123062 -65.350726 
L 414.633598 -65.349634 
L 414.144133 -65.349939 
L 413.654669 -65.347869 
L 413.165205 -65.347085 
L 412.675741 -65.345719 
L 412.186277 -65.346592 
L 411.696813 -65.345871 
L 411.207348 -65.346555 
L 410.717884 -65.347477 
L 410.22842 -65.347513 
L 409.738956 -65.351032 
L 409.249492 -65.351863 
L 408.760028 -65.350707 
L 408.270563 -65.352139 
L 407.781099 -65.348693 
L 407.291635 -65.35193 
L 406.802171 -65.350985 
L 406.312707 -65.352455 
L 405.823243 -65.355821 
L 405.333779 -65.356926 
L 404.844314 -65.353291 
L 404.35485 -65.354786 
L 403.865386 -65.353859 
L 403.375922 -65.356694 
L 402.886458 -65.356317 
L 402.396994 -65.361466 
L 401.907529 -65.355481 
L 401.418065 -65.360349 
L 400.928601 -65.357117 
L 400.439137 -65.359089 
L 399.949673 -65.357538 
L 399.460209 -65.360157 
L 398.970744 -65.357057 
L 398.48128 -65.368642 
L 397.991816 -65.362641 
L 397.502352 -65.370058 
L 397.012888 -65.375243 
L 396.523424 -65.365134 
L 396.033959 -65.374272 
L 395.544495 -65.363967 
L 395.055031 -65.373641 
L 394.565567 -65.361723 
L 394.076103 -65.377296 
L 393.586639 -65.380701 
L 393.097174 -65.379217 
L 392.60771 -65.390805 
L 392.118246 -65.38535 
L 391.628782 -65.403047 
L 391.139318 -65.392815 
L 390.649854 -65.391614 
L 390.160389 -65.393069 
L 389.670925 -65.39237 
L 389.181461 -65.386092 
L 388.691997 -65.393026 
L 388.202533 -65.390486 
L 387.713069 -65.397765 
L 387.223605 -65.39433 
L 386.73414 -65.382526 
L 386.244676 -65.378161 
L 385.755212 -65.375723 
L 385.265748 -65.384454 
L 384.776284 -65.3955 
L 384.28682 -65.397017 
L 383.797355 -65.415751 
L 383.307891 -65.425283 
L 382.818427 -65.426388 
L 382.328963 -65.426153 
L 381.839499 -65.427665 
L 381.350035 -65.416281 
L 380.86057 -65.406886 
L 380.371106 -65.41731 
L 379.881642 -65.423841 
L 379.392178 -65.432365 
L 378.902714 -65.446032 
L 378.41325 -65.446407 
L 377.923785 -65.443624 
L 377.434321 -65.454847 
L 376.944857 -65.457387 
L 376.455393 -65.444064 
L 375.965929 -65.422509 
L 375.476465 -65.427189 
L 374.987 -65.429084 
L 374.497536 -65.436179 
L 374.008072 -65.459915 
L 373.518608 -65.454599 
L 373.029144 -65.456638 
L 372.53968 -65.492004 
L 372.050215 -65.496671 
L 371.560751 -65.506636 
L 371.071287 -65.510744 
L 370.581823 -65.502769 
L 370.092359 -65.512928 
L 369.602895 -65.509961 
L 369.113431 -65.493066 
L 368.623966 -65.475205 
L 368.134502 -65.464891 
L 367.645038 -65.457165 
L 367.155574 -65.457424 
L 366.66611 -65.449088 
L 366.176646 -65.474282 
L 365.687181 -65.509086 
L 365.197717 -65.501489 
L 364.708253 -65.538417 
L 364.218789 -65.518732 
L 363.729325 -65.546822 
L 363.239861 -65.558906 
L 362.750396 -65.564579 
L 362.260932 -65.534711 
L 361.771468 -65.515289 
L 361.282004 -65.532102 
L 360.79254 -65.528455 
L 360.303076 -65.572938 
L 359.813611 -65.57225 
L 359.324147 -65.54757 
L 358.834683 -65.520646 
L 358.345219 -65.544761 
L 357.855755 -65.676482 
L 357.366291 -65.628084 
L 356.876826 -65.705623 
L 356.387362 -65.705441 
L 355.897898 -65.645911 
L 355.408434 -65.677907 
L 354.91897 -65.639299 
L 354.429506 -65.676862 
L 353.940041 -65.783369 
L 353.450577 -65.6129 
L 352.961113 -65.674351 
L 352.471649 -65.616405 
L 351.982185 -65.661951 
L 351.492721 -65.675776 
L 351.003257 -65.792218 
L 350.513792 -65.745464 
L 350.024328 -65.70893 
L 349.534864 -65.814031 
L 349.0454 -65.719088 
L 348.555936 -65.726746 
L 348.066472 -66.066877 
L 347.577007 -66.220616 
L 347.087543 -66.512181 
L 346.598079 -67.420728 
L 346.108615 -67.230685 
L 345.619151 -68.016169 
L 345.129687 -67.980951 
L 344.640222 -68.332804 
L 344.150758 -68.715718 
L 343.661294 -69.49997 
L 343.17183 -69.682885 
L 342.682366 -69.788162 
L 342.192902 -69.598207 
L 341.703437 -69.837633 
L 341.213973 -69.995142 
L 340.724509 -70.099419 
L 340.235045 -70.293427 
L 339.745581 -70.359262 
L 339.256117 -70.527776 
L 338.766652 -70.693686 
L 338.277188 -70.88874 
L 337.787724 -71.034685 
L 337.29826 -70.788902 
L 336.808796 -71.254391 
L 336.319332 -71.431783 
L 335.829867 -71.158688 
L 335.340403 -71.467107 
L 334.850939 -71.891833 
L 334.361475 -71.56841 
L 333.872011 -72.073331 
L 333.382547 -72.136635 
L 332.893083 -72.114985 
L 332.403618 -71.636214 
L 331.914154 -71.6918 
L 331.42469 -71.752986 
L 330.935226 -72.071451 
L 330.445762 -71.907899 
L 329.956298 -71.651422 
L 329.466833 -71.50712 
L 328.977369 -71.54972 
L 328.487905 -72.185614 
L 327.998441 -71.750799 
L 327.508977 -72.321897 
L 327.019513 -72.586783 
L 326.530048 -72.816034 
L 326.040584 -73.321768 
L 325.55112 -73.178973 
L 325.061656 -74.084107 
L 324.572192 -73.910873 
L 324.082728 -74.020554 
L 323.593263 -73.433191 
L 323.103799 -73.395477 
L 322.614335 -72.975786 
L 322.124871 -72.814761 
L 321.635407 -73.602432 
L 321.145943 -73.177186 
L 320.656478 -72.808497 
L 320.167014 -73.32911 
L 319.67755 -74.210382 
L 319.188086 -74.712621 
L 318.698622 -74.428573 
L 318.209158 -74.855907 
L 317.719693 -75.189678 
L 317.230229 -74.773798 
L 316.740765 -74.939807 
L 316.251301 -74.99122 
L 315.761837 -74.459462 
L 315.272373 -72.708937 
L 314.782909 -72.024385 
L 314.293444 -70.315388 
L 313.80398 -70.829452 
L 313.314516 -70.567746 
L 312.825052 -70.024939 
L 312.335588 -69.945353 
L 311.846124 -70.318108 
L 311.356659 -70.148918 
L 310.867195 -70.00667 
L 310.377731 -74.455645 
L 309.888267 -74.603694 
L 309.398803 -75.332062 
L 308.909339 -75.982785 
L 308.419874 -77.001606 
L 307.93041 -78.56329 
L 307.440946 -79.498997 
L 306.951482 -80.168108 
L 306.462018 -80.317961 
L 305.972554 -79.732008 
L 305.483089 -80.179405 
L 304.993625 -78.115535 
L 304.504161 -76.376629 
L 304.014697 -75.017839 
L 303.525233 -74.188658 
L 303.035769 -74.483872 
L 302.546304 -73.486663 
L 302.05684 -74.512254 
L 301.567376 -73.822332 
L 301.077912 -75.055404 
L 300.588448 -74.063065 
L 300.098984 -74.286888 
L 299.609519 -72.635215 
L 299.120055 -73.305906 
L 298.630591 -71.464295 
L 298.141127 -68.939171 
L 297.651663 -67.18223 
L 297.162199 -65.895756 
L 296.672735 -65.896179 
L 296.18327 -65.85475 
L 295.693806 -65.878308 
L 295.204342 -65.925587 
L 294.714878 -65.886872 
L 294.225414 -65.851721 
L 293.73595 -65.824959 
L 293.246485 -65.737574 
L 292.757021 -65.805144 
L 292.267557 -65.778681 
L 291.778093 -65.877272 
L 291.288629 -65.972468 
L 290.799165 -66.021837 
L 290.3097 -65.828507 
L 289.820236 -66.057968 
L 289.330772 -65.994494 
L 288.841308 -66.097642 
L 288.351844 -66.33639 
L 287.86238 -66.698624 
L 287.372915 -67.529305 
L 286.883451 -67.231393 
L 286.393987 -72.080626 
L 285.904523 -73.765347 
L 285.415059 -74.270467 
L 284.925595 -75.326296 
L 284.43613 -77.671646 
L 283.946666 -78.375276 
L 283.457202 -79.480986 
L 282.967738 -79.735828 
L 282.478274 -79.344738 
L 281.98881 -80.980812 
L 281.499345 -80.93853 
L 281.009881 -81.29648 
L 280.520417 -81.543278 
L 280.030953 -81.395628 
L 279.541489 -80.754963 
L 279.052025 -80.647145 
L 278.562561 -81.465804 
L 278.073096 -82.127045 
L 277.583632 -82.058294 
L 277.094168 -82.317543 
L 276.604704 -83.818662 
L 276.11524 -85.091893 
L 275.625776 -83.453066 
L 275.136311 -79.723847 
L 274.646847 -77.885229 
L 274.157383 -69.879103 
L 273.667919 -67.896933 
L 273.178455 -65.61466 
L 272.688991 -65.566467 
L 272.199526 -65.609304 
L 271.710062 -65.620433 
L 271.220598 -65.641468 
L 270.731134 -65.701104 
L 270.24167 -65.700814 
L 269.752206 -65.674205 
L 269.262741 -65.664501 
L 268.773277 -65.756511 
L 268.283813 -65.813322 
L 267.794349 -65.707236 
L 267.304885 -65.854296 
L 266.815421 -65.962872 
L 266.325956 -66.07454 
L 265.836492 -65.889162 
L 265.347028 -65.805676 
L 264.857564 -65.7821 
L 264.3681 -65.990235 
L 263.878636 -66.647146 
L 263.389171 -67.003221 
L 262.899707 -67.198469 
L 262.410243 -68.131645 
L 261.920779 -68.332898 
L 261.431315 -67.84442 
L 260.941851 -68.111185 
L 260.452387 -68.160053 
L 259.962922 -68.393929 
L 259.473458 -68.669787 
L 258.983994 -68.982036 
L 258.49453 -69.446472 
L 258.005066 -69.19622 
L 257.515602 -69.229061 
L 257.026137 -69.487448 
L 256.536673 -69.929417 
L 256.047209 -70.276505 
L 255.557745 -70.465194 
L 255.068281 -70.494101 
L 254.578817 -70.570255 
L 254.089352 -70.419092 
L 253.599888 -70.265072 
L 253.110424 -70.410233 
L 252.62096 -69.727178 
L 252.131496 -69.653259 
L 251.642032 -69.825123 
L 251.152567 -69.517807 
L 250.663103 -69.75379 
L 250.173639 -69.677377 
L 249.684175 -69.529679 
L 249.194711 -69.13504 
L 248.705247 -68.444295 
L 248.215782 -68.066182 
L 247.726318 -69.815881 
L 247.236854 -67.066452 
L 246.74739 -69.199701 
L 246.257926 -68.931127 
L 245.768462 -68.36805 
L 245.278997 -68.288958 
L 244.789533 -69.800226 
L 244.300069 -70.399799 
L 243.810605 -70.560385 
L 243.321141 -70.455555 
L 242.831677 -70.077291 
L 242.342212 -70.643523 
L 241.852748 -70.307512 
L 241.363284 -70.192398 
L 240.87382 -70.355875 
L 240.384356 -70.146398 
L 239.894892 -69.754679 
L 239.405428 -68.54111 
L 238.915963 -68.394807 
L 238.426499 -67.742353 
L 237.937035 -70.291124 
L 237.447571 -71.543816 
L 236.958107 -71.669882 
L 236.468643 -72.055592 
L 235.979178 -73.818867 
L 235.489714 -73.963989 
L 235.00025 -73.959709 
L 234.510786 -73.430293 
L 234.021322 -72.52148 
L 233.531858 -68.602629 
L 233.042393 -66.720423 
L 232.552929 -67.765334 
L 232.063465 -69.29284 
L 231.574001 -73.9383 
L 231.084537 -78.535734 
L 230.595073 -81.632973 
L 230.105608 -78.05856 
L 229.616144 -81.960323 
L 229.12668 -76.52623 
L 228.637216 -77.872521 
L 228.147752 -72.665441 
L 227.658288 -67.315155 
L 227.168823 -66.115622 
L 226.679359 -65.986575 
L 226.189895 -65.894296 
L 225.700431 -66.001786 
L 225.210967 -66.241795 
L 224.721503 -66.333963 
L 224.232038 -66.088334 
L 223.742574 -66.199394 
L 223.25311 -66.335088 
L 222.763646 -66.454899 
L 222.274182 -66.778281 
L 221.784718 -67.257765 
L 221.295254 -68.018253 
L 220.805789 -69.047378 
L 220.316325 -71.459273 
L 219.826861 -71.396481 
L 219.337397 -71.057833 
L 218.847933 -70.924439 
L 218.358469 -71.29504 
L 217.869004 -71.096966 
L 217.37954 -71.44845 
L 216.890076 -71.854558 
L 216.400612 -72.220523 
L 215.911148 -72.633477 
L 215.421684 -73.202547 
L 214.932219 -73.881024 
L 214.442755 -74.627972 
L 213.953291 -74.943218 
L 213.463827 -75.14113 
L 212.974363 -75.076701 
L 212.484899 -75.504744 
L 211.995434 -76.521347 
L 211.50597 -77.431267 
L 211.016506 -77.528801 
L 210.527042 -78.368909 
L 210.037578 -78.327326 
L 209.548114 -77.89309 
L 209.058649 -74.32229 
L 208.569185 -71.861746 
L 208.079721 -70.136909 
L 207.590257 -69.959868 
L 207.100793 -69.81242 
L 206.611329 -71.046152 
L 206.121864 -83.848667 
L 205.6324 -81.471879 
L 205.142936 -76.600566 
L 204.653472 -71.139822 
L 204.164008 -68.789678 
L 203.674544 -67.009771 
L 203.18508 -66.581822 
L 202.695615 -66.610995 
L 202.206151 -66.334431 
L 201.716687 -66.87474 
L 201.227223 -68.440654 
L 200.737759 -72.219808 
L 200.248295 -70.8386 
L 199.75883 -70.777762 
L 199.269366 -77.302064 
L 198.779902 -82.200177 
L 198.290438 -82.700262 
L 197.800974 -82.380817 
L 197.31151 -83.316864 
L 196.822045 -83.059473 
L 196.332581 -83.503589 
L 195.843117 -83.480134 
L 195.353653 -83.825456 
L 194.864189 -86.034755 
L 194.374725 -81.922036 
L 193.88526 -83.160133 
L 193.395796 -79.311662 
L 192.906332 -81.552077 
L 192.416868 -74.930753 
L 191.927404 -73.309729 
L 191.43794 -69.250524 
L 190.948475 -67.414846 
L 190.459011 -66.837641 
L 189.969547 -67.358026 
L 189.480083 -67.940457 
L 188.990619 -70.05604 
L 188.501155 -70.124647 
L 188.01169 -69.487145 
L 187.522226 -69.794869 
L 187.032762 -69.65797 
L 186.543298 -69.193493 
L 186.053834 -69.045931 
L 185.56437 -69.431146 
L 185.074906 -68.645018 
L 184.585441 -69.32144 
L 184.095977 -70.03726 
L 183.606513 -70.348748 
L 183.117049 -70.107947 
L 182.627585 -70.481411 
L 182.138121 -71.750835 
L 181.648656 -71.710011 
L 181.159192 -72.581857 
L 180.669728 -72.16821 
L 180.180264 -70.102109 
L 179.6908 -70.532062 
L 179.201336 -70.943348 
L 178.711871 -70.063934 
L 178.222407 -70.228032 
L 177.732943 -70.181454 
L 177.243479 -72.506216 
L 176.754015 -72.807118 
L 176.264551 -72.54836 
L 175.775086 -73.162965 
L 175.285622 -73.914758 
L 174.796158 -74.215276 
L 174.306694 -75.28679 
L 173.81723 -77.186659 
L 173.327766 -79.565203 
L 172.838301 -82.365247 
L 172.348837 -86.007239 
L 171.859373 -88.336936 
L 171.369909 -89.709405 
L 170.880445 -90.118642 
L 170.390981 -91.555579 
L 169.901516 -88.891975 
L 169.412052 -88.362015 
L 168.922588 -85.800993 
L 168.433124 -76.90842 
L 167.94366 -70.669444 
L 167.454196 -67.977526 
L 166.964732 -66.530374 
L 166.475267 -66.507587 
L 165.985803 -66.558366 
L 165.496339 -67.015431 
L 165.006875 -67.151762 
L 164.517411 -68.814508 
L 164.027947 -70.735673 
L 163.538482 -71.90168 
L 163.049018 -72.215206 
L 162.559554 -72.466035 
L 162.07009 -72.491597 
L 161.580626 -72.978602 
L 161.091162 -72.17726 
L 160.601697 -72.697971 
L 160.112233 -72.496032 
L 159.622769 -71.896133 
L 159.133305 -71.121567 
L 158.643841 -71.103778 
L 158.154377 -71.389289 
L 157.664912 -72.345481 
L 157.175448 -73.114803 
L 156.685984 -73.619949 
L 156.19652 -73.59791 
L 155.707056 -74.899696 
L 155.217592 -74.555093 
L 154.728127 -72.407358 
L 154.238663 -70.00372 
L 153.749199 -68.582351 
L 153.259735 -69.642584 
L 152.770271 -71.280178 
L 152.280807 -73.063199 
L 151.791342 -73.610356 
L 151.301878 -74.989151 
L 150.812414 -75.432913 
L 150.32295 -75.749005 
L 149.833486 -75.009563 
L 149.344022 -75.238298 
L 148.854558 -75.404415 
L 148.365093 -75.334054 
L 147.875629 -75.516201 
L 147.386165 -76.736762 
L 146.896701 -77.63716 
L 146.407237 -78.599349 
L 145.917773 -79.765175 
L 145.428308 -82.821445 
L 144.938844 -83.401885 
L 144.44938 -83.170413 
L 143.959916 -84.918847 
L 143.470452 -81.96797 
L 142.980988 -83.601369 
L 142.491523 -79.215952 
L 142.002059 -75.30003 
L 141.512595 -69.224319 
L 141.023131 -66.134986 
L 140.533667 -66.575798 
L 140.044203 -67.156373 
L 139.554738 -69.001938 
L 139.065274 -69.740576 
L 138.57581 -73.134317 
L 138.086346 -74.555596 
L 137.596882 -74.436866 
L 137.107418 -73.120651 
L 136.617953 -72.901506 
L 136.128489 -72.269966 
L 135.639025 -72.502612 
L 135.149561 -72.615125 
L 134.660097 -72.443415 
L 134.170633 -72.536978 
L 133.681168 -72.744709 
L 133.191704 -73.323409 
L 132.70224 -73.737218 
L 132.212776 -74.922061 
L 131.723312 -74.97383 
L 131.233848 -75.982882 
L 130.744384 -76.956008 
L 130.254919 -77.075201 
L 129.765455 -78.276247 
L 129.275991 -79.607951 
L 128.786527 -77.798827 
L 128.297063 -77.104537 
L 127.807599 -74.914887 
L 127.318134 -74.186195 
L 126.82867 -67.754732 
L 126.339206 -67.773715 
z
" style="stroke: #742a23; stroke-width: 0.5"/>
    </defs>
    <g clip-path="url(#pcc7caf7bae)">
     <use xlink:href="#m3cf098c181" x="0" y="216" style="fill: #742a23; stroke: #742a23; stroke-width: 0.5"/>
    </g>
   </g>
   <g id="matplotlib.axis_3">
    <g id="xtick_7"/>
    <g id="xtick_8"/>
    <g id="xtick_9"/>
    <g id="xtick_10"/>
    <g id="xtick_11"/>
    <g id="xtick_12"/>
   </g>
   <g id="matplotlib.axis_4">
    <g id="ytick_6"/>
    <g id="ytick_7"/>
    <g id="ytick_8"/>
    <g id="ytick_9"/>
    <g id="ytick_10"/>
   </g>
   <g id="text_2">
    <!-- Right -->
    <g style="fill: #742a23" transform="translate(82.27674 153.924375) scale(0.12 -0.12)">
     <defs>
      <path id="DejaVuSans-Bold-52" d="M 2297 2597 
Q 2675 2597 2839 2737 
Q 3003 2878 3003 3200 
Q 3003 3519 2839 3656 
Q 2675 3794 2297 3794 
L 1791 3794 
L 1791 2597 
L 2297 2597 
z
M 1791 1766 
L 1791 0 
L 588 0 
L 588 4666 
L 2425 4666 
Q 3347 4666 3776 4356 
Q 4206 4047 4206 3378 
Q 4206 2916 3982 2619 
Q 3759 2322 3309 2181 
Q 3556 2125 3751 1926 
Q 3947 1728 4147 1325 
L 4800 0 
L 3519 0 
L 2950 1159 
Q 2778 1509 2601 1637 
Q 2425 1766 2131 1766 
L 1791 1766 
z
" transform="scale(0.015625)"/>
      <path id="DejaVuSans-Bold-69" d="M 538 3500 
L 1656 3500 
L 1656 0 
L 538 0 
L 538 3500 
z
M 538 4863 
L 1656 4863 
L 1656 3950 
L 538 3950 
L 538 4863 
z
" transform="scale(0.015625)"/>
      <path id="DejaVuSans-Bold-67" d="M 2919 594 
Q 2688 288 2409 144 
Q 2131 0 1766 0 
Q 1125 0 706 504 
Q 288 1009 288 1791 
Q 288 2575 706 3076 
Q 1125 3578 1766 3578 
Q 2131 3578 2409 3434 
Q 2688 3291 2919 2981 
L 2919 3500 
L 4044 3500 
L 4044 353 
Q 4044 -491 3511 -936 
Q 2978 -1381 1966 -1381 
Q 1638 -1381 1331 -1331 
Q 1025 -1281 716 -1178 
L 716 -306 
Q 1009 -475 1290 -558 
Q 1572 -641 1856 -641 
Q 2406 -641 2662 -400 
Q 2919 -159 2919 353 
L 2919 594 
z
M 2181 2772 
Q 1834 2772 1640 2515 
Q 1447 2259 1447 1791 
Q 1447 1309 1634 1061 
Q 1822 813 2181 813 
Q 2531 813 2725 1069 
Q 2919 1325 2919 1791 
Q 2919 2259 2725 2515 
Q 2531 2772 2181 2772 
z
" transform="scale(0.015625)"/>
      <path id="DejaVuSans-Bold-68" d="M 4056 2131 
L 4056 0 
L 2931 0 
L 2931 347 
L 2931 1625 
Q 2931 2084 2911 2256 
Q 2891 2428 2841 2509 
Q 2775 2619 2662 2680 
Q 2550 2741 2406 2741 
Q 2056 2741 1856 2470 
Q 1656 2200 1656 1722 
L 1656 0 
L 538 0 
L 538 4863 
L 1656 4863 
L 1656 2988 
Q 1909 3294 2193 3439 
Q 2478 3584 2822 3584 
Q 3428 3584 3742 3212 
Q 4056 2841 4056 2131 
z
" transform="scale(0.015625)"/>
     </defs>
     <use xlink:href="#DejaVuSans-Bold-52"/>
     <use xlink:href="#DejaVuSans-Bold-69" x="77.001953"/>
     <use xlink:href="#DejaVuSans-Bold-67" x="111.279297"/>
     <use xlink:href="#DejaVuSans-Bold-68" x="182.861328"/>
     <use xlink:href="#DejaVuSans-Bold-74" x="254.052734"/>
    </g>
   </g>
  </g>
 </g>
 <defs>
  <clipPath id="p2a67337b5c">
   <rect x="72" y="25.92" width="446.4" height="83.16"/>
  </clipPath>
  <clipPath id="pcc7caf7bae">
   <rect x="72" y="109.08" width="446.4" height="83.16"/>
  </clipPath>
 </defs>
</svg>
